ply
format ascii 1.0
comment VCGLIB generated
element vertex 164
property float x
property float y
property float z
property float nx
property float ny
property float nz
property uchar red
property uchar green
property uchar blue
property uchar alpha
property float texture_u
property float texture_v
element face 200
property list uchar int vertex_indices
end_header
-0.04723451 0.1038739 -0.1353418 -0.7752928 0.371247 -0.5109764 255 255 0 255 0.000922244 0.05160267
-0.01513652 0.05974562 -0.1719392 -0.1929637 0.3032078 -0.9331827 255 255 0 255 0.03101247 0.1010223
-0.04723451 0.05581135 -0.1598308 -0.7752934 0.1951752 -0.6006887 255 255 0 255 0.0007887259 0.101217
-0.04723449 0.1420166 -0.0971991 -0.7752929 0.5109771 -0.3712457 255 255 0 255 0 0.002966693
-0.01513651 0.1113574 -0.1456417 -0.192964 0.5767376 -0.7938127 255 255 0 255 0.03123103 0.05083637
-0.04723448 0.1665057 -0.04913656 -0.7752928 0.6006895 -0.1951748 255 255 0 255 0.002142876 0.9475846
-0.0151365 0.1523167 -0.1046825 -0.1929642 0.7938119 -0.5767387 255 255 0 255 0.03057535 0.9990216
-0.04723449 0.1420166 -0.0971991 -0.7752929 0.5109771 -0.3712457 255 255 0 255 0.0001197346 0.9953268
-0.04723446 0.1749441 0.004141163 -0.7752923 0.6316027 9.473738e-07 255 255 0 255 0.00230591 0.8984919
-0.01513648 0.1786141 -0.05307081 -0.1929642 0.9331821 -0.3032094 255 255 0 255 0.03221655 0.9488482
-0.04723445 0.1665057 0.05741888 -0.7752928 0.600689 0.1951765 255 255 0 255 0.002180692 0.8489187
-0.01513647 0.1876756 0.004141164 -0.1929645 0.9812058 1.468204e-07 255 255 0 255 0.03246954 0.8988964
-0.04723443 0.1420166 0.1054814 -0.7752926 0.5109763 0.3712473 255 255 0 255 0.002035607 0.7991695
-0.01513645 0.1786141 0.06135315 -0.1929642 0.9331821 0.3032095 255 255 0 255 0.03241113 0.8490406
-0.04723442 0.1038739 0.143624 -0.7752925 0.371246 0.5109775 255 255 0 255 0.001902875 0.7493545
-0.01513643 0.1523166 0.1129648 -0.1929642 0.7938119 0.5767387 255 255 0 255 0.03229561 0.7991992
-0.04723442 0.05581132 0.1681131 -0.7752938 0.1951753 0.6006882 255 255 0 255 0.00177937 0.6995142
-0.01513642 0.1113573 0.153924 -0.1929638 0.576738 0.7938125 255 255 0 255 0.03217447 0.7493535
-0.01513641 0.002533572 0.189283 -0.1929637 -3.702163e-06 0.9812059 255 255 0 255 0.03193793 0.6496494
-0.01513642 0.05974559 0.1802215 -0.192966 0.3032072 0.9331825 255 255 0 255 0.0320553 0.6995028
-0.04723441 0.002533558 0.1765514 -0.7752925 7.390627e-07 0.6316025 255 255 0 255 0.001660395 0.6496643
-0.01513642 -0.05467845 0.1802215 -0.1929635 -0.3032125 0.9331813 255 255 0 255 0.03182149 0.5997945
-0.04723442 -0.05074422 0.1681131 -0.7752922 -0.1951749 0.6006902 255 255 0 255 0.001543384 0.5998107
-0.01513643 -0.1062902 0.153924 -0.1929613 -0.5767397 0.7938119 255 255 0 255 0.03170547 0.5499392
-0.04723443 -0.1369494 0.1054814 -0.7752926 -0.510977 0.3712465 255 255 0 255 0.001311317 0.5001002
-0.04723442 -0.09880677 0.143624 -0.7752911 -0.3712471 0.5109786 255 255 0 255 0.001427162 0.5499557
-0.04723445 -0.1614385 0.05741886 -0.7752927 -0.6006894 0.1951758 255 255 0 255 0.001195788 0.4502444
-0.01513644 -0.1472495 0.1129648 -0.192964 -0.7938118 0.576739 255 255 0 255 0.03158967 0.5000834
-0.04723446 -0.1698769 0.004141168 -0.7752947 -0.6315998 1.841702e-07 255 255 0 255 0.001080867 0.4003881
-0.01513645 -0.1735469 0.06135312 -0.1929639 -0.9331821 0.3032098 255 255 0 255 0.03147408 0.4502276
-0.01513649 -0.1735469 -0.05307079 -0.1929616 -0.9331821 -0.3032115 255 255 0 255 0.03124495 0.3505144
-0.01513647 -0.1826084 0.004141158 -0.1929664 -0.9812054 -1.799265e-06 255 255 0 255 0.03135892 0.4003714
-0.04723449 -0.1369494 -0.09719903 -0.7752927 -0.5109762 -0.3712474 255 255 0 255 0.0008585304 0.3006719
-0.04723448 -0.1614385 -0.04913654 -0.7752915 -0.6006907 -0.1951765 255 255 0 255 0.000967551 0.350531
-0.04723451 -0.09880675 -0.1353416 -0.7752922 -0.3712463 -0.5109777 255 255 0 255 0.0007608086 0.2508086
-0.0151365 -0.1472494 -0.1046824 -0.1929642 -0.7938121 -0.5767384 255 255 0 255 0.0311342 0.3006553
-0.04723451 -0.0507442 -0.1598307 -0.7752932 -0.1951749 -0.600689 255 255 0 255 0.0006912202 0.2009379
-0.01513652 -0.1062901 -0.1456417 -0.1929641 -0.5767381 -0.7938123 255 255 0 255 0.03103211 0.250791
-0.04723451 0.002533564 -0.1682691 -0.775292 4.785096e-08 -0.631603 255 255 0 255 0.0006848127 0.1510616
-0.01513652 -0.05467844 -0.1719391 -0.1929638 -0.3032091 -0.9331823 255 255 0 255 0.0309524 0.2009138
-0.01513653 0.002533578 -0.1810006 -0.1929639 -1.279109e-06 -0.9812059 255 255 0 255 0.03092665 0.1510058
0.0449352 0.05974562 -0.1719392 0.1929608 0.3032066 -0.9331837 255 255 0 255 0.08349308 0.1011036
-0.0151365 0.1523167 -0.1046825 -0.1929642 0.7938119 -0.5767387 255 255 0 255 0.03094714 0
0.0449352 0.1113574 -0.1456418 0.1929636 0.576735 -0.7938148 255 255 0 255 0.08374604 0.05115178
0.04493522 0.1523167 -0.1046825 0.1929639 0.7938099 -0.5767416 255 255 0 255 0.08501545 1
0.04493523 0.1786141 -0.05307082 0.1929641 0.933181 -0.3032129 255 255 0 255 0.08473158 0.9491636
0.04493525 0.1876756 0.004141146 0.1929645 0.9812058 -3.48575e-06 255 255 0 255 0.08495013 0.8989777
0.04493527 0.1786141 0.06135313 0.1929667 0.9331821 0.303208 255 255 0 255 0.08503595 0.8489941
0.04493529 0.1523166 0.1129648 0.1929645 0.7938116 0.576739 255 255 0 255 0.0850102 0.7990862
0.04493529 0.1113573 0.153924 0.1929645 0.5767376 0.7938126 255 255 0 255 0.0849305 0.749209
0.0449353 0.05974559 0.1802215 0.1929641 0.3032086 0.9331824 255 255 0 255 0.08482841 0.6993447
0.0449353 0.002533571 0.1892829 0.1929641 -3.394238e-07 0.9812058 255 255 0 255 0.08471766 0.6494855
0.0449353 -0.05467845 0.1802215 0.192964 -0.3032093 0.9331822 255 255 0 255 0.0846037 0.5996286
0.04493529 -0.1062902 0.153924 0.1929642 -0.5767382 0.7938122 255 255 0 255 0.08448855 0.5497723
0.04493528 -0.1472495 0.1129648 0.1929642 -0.793812 0.5767385 255 255 0 255 0.08437296 0.4999165
0.04493526 -0.1735469 0.0613531 0.192964 -0.9331822 0.3032091 255 255 0 255 0.08425716 0.4500608
0.04493525 -0.1826084 0.00414114 0.1929639 -0.9812059 -6.980136e-07 255 255 0 255 0.08414114 0.4002054
0.04493523 -0.1735469 -0.05307081 0.1929637 -0.9331821 -0.3032101 255 255 0 255 0.0840247 0.3503506
0.04493521 -0.1472494 -0.1046824 0.1929613 -0.7938134 -0.5767376 255 255 0 255 0.08390731 0.3004972
0.0449352 -0.1062901 -0.1456417 0.1929636 -0.5767409 -0.7938104 255 255 0 255 0.08378814 0.2506465
0.0449352 -0.05467844 -0.1719391 0.1929631 -0.3032124 -0.9331814 255 255 0 255 0.083667 0.2008008
0.04493519 0.002533577 -0.1810006 0.1929657 -2.621068e-06 -0.9812055 255 255 0 255 0.08355147 0.1509594
0.0770332 0.1038739 -0.1353418 0.7752924 0.371247 -0.5109769 255 255 0 255 0.1138197 0.05241541
0.07703319 0.05581135 -0.1598309 0.7752917 0.1951752 -0.6006908 255 255 0 255 0.1136567 0.1015081
0.07703321 0.1420166 -0.09719914 0.7752927 0.5109771 -0.3712462 255 255 0 255 0.1158429 0.004673226
0.07703323 0.1665057 -0.04913659 0.7752926 0.6006895 -0.1951753 255 255 0 255 0.1150404 0.9483973
0.07703321 0.1420166 -0.09719914 0.7752927 0.5109771 -0.3712462 255 255 0 255 0.1159626 0.9970334
0.07703324 0.1749441 0.004141125 0.7752929 0.6316019 7.348931e-07 255 255 0 255 0.1151739 0.8987831
0.07703326 0.1665057 0.05741885 0.7752942 0.6006874 0.1951756 255 255 0 255 0.1152778 0.8489384
0.07703327 0.1420166 0.1054814 0.7752929 0.5109767 0.3712463 255 255 0 255 0.1152714 0.7990621
0.07703328 0.1038739 0.143624 0.7752922 0.3712471 0.5109771 255 255 0 255 0.1152018 0.7491914
0.07703329 0.05581132 0.1681131 0.7752935 0.1951759 0.6006883 255 255 0 255 0.1151041 0.699328
0.0770333 0.002533557 0.1765514 0.775292 5.444725e-07 0.631603 255 255 0 255 0.1149951 0.649469
0.07703329 -0.05074422 0.1681131 0.7752932 -0.1951749 0.6006889 255 255 0 255 0.1148818 0.5996118
0.07703328 -0.09880677 0.143624 0.7752922 -0.3712463 0.5109777 255 255 0 255 0.1147668 0.5497555
0.07703327 -0.1369494 0.1054813 0.7752935 -0.5109758 0.3712464 255 255 0 255 0.1146513 0.4998997
0.07703326 -0.1614385 0.05741883 0.7752929 -0.6006891 0.1951759 255 255 0 255 0.1145355 0.4500442
0.07703324 -0.1698769 0.00414113 0.7752929 -0.631602 5.547093e-08 255 255 0 255 0.1144192 0.4001892
0.07703323 -0.1614385 -0.04913658 0.7752927 -0.6006894 -0.1951759 255 255 0 255 0.1143022 0.3503357
0.0770332 -0.09880675 -0.1353417 0.7752924 -0.3712457 -0.5109779 255 255 0 255 0.1140597 0.2506455
0.07703321 -0.1369494 -0.09719907 0.7752913 -0.5109777 -0.3712482 255 255 0 255 0.1141832 0.3004858
0.07703319 -0.0507442 -0.1598308 0.7752923 -0.1951749 -0.6006902 255 255 0 255 0.113927 0.2008304
0.07703319 0.002533562 -0.1682691 0.7752928 -5.32131e-07 -0.631602 255 255 0 255 0.1137819 0.1510813
-0.04723451 0.1038739 -0.1353418 -0.7752928 0.371247 -0.5109764 255 255 0 255 0.4181458 0.1761387
-0.06257724 0.04507533 -0.1267888 -0.9147702 0.1248345 -0.3842027 255 255 0 255 0.4510473 0.13313
-0.06257724 0.08345281 -0.1072345 -0.9147702 0.237452 -0.326821 255 255 0 255 0.4510356 0.1708658
-0.04723449 0.1420166 -0.0971991 -0.7752929 0.5109771 -0.3712457 255 255 0 255 0.4330356 0.2219377
-0.06257723 0.1139093 -0.07677798 -0.9147703 0.3268234 -0.2374484 255 255 0 255 0.4626858 0.2067584
-0.04723448 0.1665057 -0.04913656 -0.7752928 0.6006895 -0.1951748 255 255 0 255 0.4613504 0.2608937
-0.06257722 0.1334637 -0.03840053 -0.9147702 0.3842034 -0.1248327 255 255 0 255 0.4848576 0.2372941
-0.04723446 0.1749441 0.004141163 -0.7752923 0.6316027 9.473738e-07 255 255 0 255 0.5003166 0.2891923
-0.0625772 0.1402016 0.004141171 -0.9147702 0.4039745 5.710399e-07 255 255 0 255 0.5153805 0.2594838
-0.06257719 0.1334636 0.04668288 -0.9147702 0.3842031 0.1248334 255 255 0 255 0.5512664 0.2711549
-0.04723445 0.1665057 0.05741888 -0.7752928 0.600689 0.1951765 255 255 0 255 0.5461208 0.3040649
-0.06257718 0.1139093 0.0850603 -0.9147701 0.3268234 0.2374493 255 255 0 255 0.5890023 0.2711652
-0.04723443 0.1420166 0.1054814 -0.7752926 0.5109763 0.3712473 255 255 0 255 0.5942794 0.3040542
-0.06257717 0.08345278 0.1155168 -0.9147699 0.237452 0.3268219 255 255 0 255 0.6248939 0.2595138
-0.04723442 0.1038739 0.143624 -0.7752925 0.371246 0.5109775 255 255 0 255 0.6400763 0.2891615
-0.06257717 0.04507531 0.1350711 -0.9147699 0.1248369 0.3842028 255 255 0 255 0.6554285 0.2373411
-0.04723442 0.05581132 0.1681131 -0.7752938 0.1951753 0.6006882 255 255 0 255 0.679027 0.260849
-0.06257716 0.002533565 0.141809 -0.91477 2.115384e-06 0.4039751 255 255 0 255 0.6776189 0.2068197
-0.04723441 0.002533558 0.1765514 -0.7752925 7.390627e-07 0.6316025 255 255 0 255 0.7073264 0.2218866
-0.06257717 -0.04000818 0.1350711 -0.9147701 -0.124833 0.3842038 255 255 0 255 0.6892914 0.1709348
-0.04723442 -0.05074422 0.1681131 -0.7752922 -0.1951749 0.6006902 255 255 0 255 0.722201 0.1760834
-0.06257717 -0.07838563 0.1155168 -0.9147701 -0.2374485 0.326824 255 255 0 255 0.6893031 0.133199
-0.04723442 -0.09880677 0.143624 -0.7752912 -0.3712471 0.5109787 255 255 0 255 0.7221925 0.1279247
-0.06257718 -0.1088422 0.08506028 -0.9147702 -0.3268209 0.2374524 255 255 0 255 0.6776529 0.09730616
-0.04723443 -0.1369494 0.1054814 -0.7752926 -0.510977 0.3712465 255 255 0 255 0.7073026 0.08212677
-0.06257719 -0.1283965 0.04668286 -0.9147702 -0.3842018 0.1248372 255 255 0 255 0.6554811 0.06677037
-0.04723445 -0.1614385 0.05741886 -0.7752927 -0.6006894 0.1951758 255 255 0 255 0.6789887 0.0431709
-0.0625772 -0.1351344 0.004141176 -0.9147702 -0.4039744 2.873201e-07 255 255 0 255 0.6249583 0.04458088
-0.04723446 -0.1698769 0.004141168 -0.7752947 -0.6315998 1.841702e-07 255 255 0 255 0.6400215 0.01487163
-0.04723448 -0.1614385 -0.04913654 -0.7752915 -0.6006907 -0.1951765 255 255 0 255 0.5942169 1.192093e-07
-0.06257722 -0.1283965 -0.03840052 -0.9147702 -0.384202 -0.1248369 255 255 0 255 0.5890726 0.03290978
-0.04723449 -0.1369494 -0.09719903 -0.7752927 -0.5109762 -0.3712474 255 255 0 255 0.5460617 1.049042e-05
-0.06257723 -0.1088421 -0.07677793 -0.9147702 -0.3268209 -0.237452 255 255 0 255 0.5513367 0.03289944
-0.04723451 -0.09880675 -0.1353416 -0.7752922 -0.3712463 -0.5109777 255 255 0 255 0.5002645 0.01489967
-0.06257724 -0.07838562 -0.1072344 -0.9147703 -0.2374501 -0.3268223 255 255 0 255 0.515444 0.04454973
-0.06257724 -0.04000817 -0.1267887 -0.9147702 -0.124835 -0.3842026 255 255 0 255 0.4849083 0.06672138
-0.04723451 -0.0507442 -0.1598307 -0.7752932 -0.1951749 -0.600689 255 255 0 255 0.4613089 0.04321381
-0.04723451 0.002533564 -0.1682691 -0.775292 4.785096e-08 -0.631603 255 255 0 255 0.4330102 0.08218056
-0.06257725 0.002533569 -0.1335266 -0.9147702 -4.006189e-07 -0.4039746 255 255 0 255 0.4627189 0.09724396
-0.04723451 0.05581135 -0.1598308 -0.7752934 0.1951752 -0.6006887 255 255 0 255 0.4181381 0.1279821
0.0770332 0.1038739 -0.1353418 0.7752924 0.371247 -0.5109769 255 255 0 255 0.4180901 0.1279075
0.09237594 0.04507533 -0.1267888 0.91477 0.1248345 -0.3842033 255 255 0 255 0.3735466 0.09729481
0.07703319 0.05581135 -0.1598309 0.7752917 0.1951752 -0.6006908 255 255 0 255 0.4031951 0.08211222
0.07703321 0.1420166 -0.09719914 0.7752927 0.5109771 -0.3712462 255 255 0 255 0.4181063 0.176063
0.09237594 0.08345281 -0.1072345 0.9147701 0.2374519 -0.3268216 255 255 0 255 0.3852016 0.1331856
0.07703323 0.1665057 -0.04913659 0.7752926 0.6006895 -0.1951753 255 255 0 255 0.4032405 0.2218695
0.09237596 0.1139093 -0.07677802 0.9147702 0.3268234 -0.237449 255 255 0 255 0.3851961 0.170922
0.07703324 0.1749441 0.004141125 0.7752929 0.6316019 7.348931e-07 255 255 0 255 0.3749465 0.2608398
0.09237596 0.1334637 -0.03840058 0.9147701 0.3842034 -0.1248332 255 255 0 255 0.3735297 0.2068093
0.07703326 0.1665057 0.05741885 0.7752942 0.6006874 0.1951756 255 255 0 255 0.3359959 0.2891579
0.09237598 0.1402016 0.004141124 0.9147702 0.4039745 2.018317e-06 255 255 0 255 0.3513443 0.237335
0.07703327 0.1420166 0.1054814 0.7752929 0.5109767 0.3712463 255 255 0 255 0.2902028 0.304055
0.09237599 0.1334636 0.04668283 0.9147703 0.3842019 0.1248368 255 255 0 255 0.3208116 0.2595109
0.07703328 0.1038739 0.143624 0.7752922 0.3712471 0.5109771 255 255 0 255 0.2420445 0.3040725
0.092376 0.1139093 0.08506025 0.9147702 0.3268211 0.2374519 255 255 0 255 0.284921 0.2711672
0.09237602 0.0450753 0.135071 0.9147702 0.1248348 0.3842027 255 255 0 255 0.2112976 0.2594956
0.09237602 0.08345278 0.1155167 0.9147701 0.2374504 0.3268225 255 255 0 255 0.2471851 0.2711619
0.0770333 0.002533557 0.1765514 0.775292 5.444725e-07 0.631603 255 255 0 255 0.1572672 0.2609122
0.07703329 0.05581132 0.1681131 0.7752935 0.1951759 0.6006883 255 255 0 255 0.1962374 0.2892064
0.09237602 -0.04000819 0.135071 0.9147702 -0.1248349 0.3842026 255 255 0 255 0.1585959 0.2067772
0.09237602 0.002533564 0.1418089 0.9147702 -2.446959e-09 0.4039746 255 255 0 255 0.1807718 0.2373101
0.07703328 -0.09880677 0.143624 0.7752922 -0.3712463 0.5109777 255 255 0 255 0.1140519 0.1761639
0.07703329 -0.05074422 0.1681131 0.7752932 -0.1951749 0.6006889 255 255 0 255 0.1289482 0.221961
0.092376 -0.1088422 0.08506023 0.9147703 -0.3268222 0.2374502 255 255 0 255 0.1469478 0.1331508
0.09237602 -0.07838563 0.1155167 0.9147702 -0.2374502 0.3268222 255 255 0 255 0.146941 0.1708863
0.07703326 -0.1614385 0.05741883 0.7752929 -0.6006891 0.1951759 255 255 0 255 0.1289054 0.08220357
0.07703327 -0.1369494 0.1054813 0.7752935 -0.5109758 0.3712464 255 255 0 255 0.1140377 0.1280061
0.07703324 -0.1698769 0.00414113 0.7752929 -0.631602 5.547093e-08 255 255 0 255 0.1571952 0.04323632
0.09237599 -0.1283965 0.04668282 0.9147702 -0.3842033 0.1248328 255 255 0 255 0.1586154 0.09726438
0.07703323 -0.1614385 -0.04913658 0.7752927 -0.6006894 -0.1951759 255 255 0 255 0.1961445 0.01491505
0.09237598 -0.1351344 0.004141128 0.9147702 -0.4039745 -2.28509e-06 255 255 0 255 0.1807995 0.06673807
0.07703321 -0.1369494 -0.09719907 0.7752913 -0.5109777 -0.3712482 255 255 0 255 0.2419406 1.657009e-05
0.09237596 -0.1283965 -0.03840057 0.9147702 -0.384202 -0.1248374 255 255 0 255 0.2113309 0.04456145
0.0770332 -0.09880675 -0.1353417 0.7752924 -0.3712457 -0.5109779 255 255 0 255 0.2900989 1.192093e-07
0.09237596 -0.1088421 -0.07677797 0.9147701 -0.326821 -0.2374526 255 255 0 255 0.2472213 0.03290513
0.07703319 -0.0507442 -0.1598308 0.7752923 -0.1951749 -0.6006902 255 255 0 255 0.3359048 0.01486596
0.09237594 -0.07838562 -0.1072344 0.9147701 -0.2374486 -0.326824 255 255 0 255 0.2849574 0.03291038
0.07703319 0.002533562 -0.1682691 0.7752928 -5.32131e-07 -0.631602 255 255 0 255 0.3748758 0.04316011
0.09237594 -0.04000817 -0.1267888 0.9147701 -0.1248331 -0.3842038 255 255 0 255 0.3208451 0.04457682
0.09237593 0.002533568 -0.1335267 0.91477 -4.186761e-07 -0.4039751 255 255 0 255 0.3513708 0.06676224
0.04493522 0.1523167 -0.1046825 0.1929639 0.7938099 -0.5767416 255 255 0 255 0.08538724 0.0009784224
3 0 1 2 
3 3 4 0 
3 5 6 7 
3 8 9 5 
3 10 11 8 
3 12 13 10 
3 14 15 12 
3 16 17 14 
3 16 18 19 
3 20 21 18 
3 22 23 21 
3 24 23 25 
3 26 27 24 
3 28 29 26 
3 28 30 31 
3 32 30 33 
3 34 35 32 
3 36 37 34 
3 38 39 36 
3 2 40 38 
3 4 41 1 
3 42 43 4 
3 9 44 6 
3 11 45 9 
3 13 46 11 
3 15 47 13 
3 17 48 15 
3 19 49 17 
3 18 50 19 
3 21 51 18 
3 23 52 21 
3 27 53 23 
3 29 54 27 
3 31 55 29 
3 30 56 31 
3 35 57 30 
3 37 58 35 
3 39 59 37 
3 40 60 39 
3 1 61 40 
3 41 62 63 
3 43 64 62 
3 44 65 66 
3 45 67 65 
3 46 68 67 
3 48 68 47 
3 49 69 48 
3 50 70 49 
3 51 71 50 
3 52 72 51 
3 53 73 52 
3 54 74 53 
3 55 75 54 
3 56 76 55 
3 57 77 56 
3 58 78 57 
3 58 79 80 
3 59 81 79 
3 60 82 81 
3 41 82 61 
3 83 84 85 
3 86 85 87 
3 88 87 89 
3 90 89 91 
3 90 92 93 
3 93 94 95 
3 95 96 97 
3 97 98 99 
3 99 100 101 
3 101 102 103 
3 103 104 105 
3 105 106 107 
3 107 108 109 
3 109 110 111 
3 112 110 113 
3 114 113 115 
3 116 115 117 
3 116 118 119 
3 120 118 121 
3 120 84 122 
3 123 124 125 
3 126 127 123 
3 128 129 126 
3 130 131 128 
3 132 133 130 
3 134 135 132 
3 136 137 134 
3 136 138 139 
3 140 138 141 
3 140 142 143 
3 144 142 145 
3 144 146 147 
3 148 146 149 
3 150 151 148 
3 152 153 150 
3 154 155 152 
3 156 157 154 
3 158 159 156 
3 160 161 158 
3 160 124 162 
3 0 4 1 
3 3 42 4 
3 5 9 6 
3 8 11 9 
3 10 13 11 
3 12 15 13 
3 14 17 15 
3 16 19 17 
3 16 20 18 
3 20 22 21 
3 22 25 23 
3 24 27 23 
3 26 29 27 
3 28 31 29 
3 28 33 30 
3 32 35 30 
3 34 37 35 
3 36 39 37 
3 38 40 39 
3 2 1 40 
3 4 43 41 
3 42 163 43 
3 9 45 44 
3 11 46 45 
3 13 47 46 
3 15 48 47 
3 17 49 48 
3 19 50 49 
3 18 51 50 
3 21 52 51 
3 23 53 52 
3 27 54 53 
3 29 55 54 
3 31 56 55 
3 30 57 56 
3 35 58 57 
3 37 59 58 
3 39 60 59 
3 40 61 60 
3 1 41 61 
3 41 43 62 
3 43 163 64 
3 44 45 65 
3 45 46 67 
3 46 47 68 
3 48 69 68 
3 49 70 69 
3 50 71 70 
3 51 72 71 
3 52 73 72 
3 53 74 73 
3 54 75 74 
3 55 76 75 
3 56 77 76 
3 57 78 77 
3 58 80 78 
3 58 59 79 
3 59 60 81 
3 60 61 82 
3 41 63 82 
3 83 122 84 
3 86 83 85 
3 88 86 87 
3 90 88 89 
3 90 91 92 
3 93 92 94 
3 95 94 96 
3 97 96 98 
3 99 98 100 
3 101 100 102 
3 103 102 104 
3 105 104 106 
3 107 106 108 
3 109 108 110 
3 112 111 110 
3 114 112 113 
3 116 114 115 
3 116 117 118 
3 120 119 118 
3 120 121 84 
3 123 127 124 
3 126 129 127 
3 128 131 129 
3 130 133 131 
3 132 135 133 
3 134 137 135 
3 136 139 137 
3 136 141 138 
3 140 143 138 
3 140 145 142 
3 144 147 142 
3 144 149 146 
3 148 151 146 
3 150 153 151 
3 152 155 153 
3 154 157 155 
3 156 159 157 
3 158 161 159 
3 160 162 161 
3 160 125 124 
