ply
format ascii 1.0
comment VCGLIB generated
element vertex 56
property float x
property float y
property float z
property float nx
property float ny
property float nz
property uchar red
property uchar green
property uchar blue
property uchar alpha
property float texture_u
property float texture_v
element face 48
property list uchar int vertex_indices
end_header
-4.998075 0.05884498 0.3 -3.6 0 0 254 254 254 255 -4.998075 0.05884498
-4.998075 3.058845 -0.3 -3.6 3 0 254 254 254 255 -4.998075 3.058845
-4.998075 0.05884498 -0.3 -1.8 0 0 254 254 254 255 -4.998075 0.05884498
-4.998075 3.058845 0.3 -1.8 6 0 254 254 254 255 -4.998075 3.058845
0.001925029 3.058845 -0.3 1.8 6 -30 254 254 254 255 0.001925029 3.058845
0.001925029 3.058845 0.3 3.6 3 15 254 254 254 255 0.001925029 3.058845
0.001925029 0.05884498 -0.3 3.6 -3 -15 254 254 254 255 0.001925029 0.05884498
0.001925029 0.05884498 0.3 1.8 -6 30 254 254 254 255 0.001925029 0.05884498
-4.998075 0.05884498 -0.3 0 -6 0 254 254 254 255 -4.998075 0.05884498
-4.998075 0.05884498 -0.3 0 0 -30 254 254 254 255 -4.998075 0.05884498
-4.998075 3.058845 -0.3 0 0 -15 254 254 254 255 -4.998075 3.058845
-4.998075 3.058845 0.3 0 0 30 254 254 254 255 -4.998075 3.058845
-4.998075 0.05884498 0.3 0 -3 0 254 254 254 255 -4.998075 0.05884498
-4.998075 0.05884498 0.3 0 0 15 254 254 254 255 -4.998075 0.05884498
-1.238843 3.058846 -0.1711262 1.004444e-07 0 -2 254 254 254 255 0 0
-1.238843 3.829353 -0.1711262 5.022222e-08 0 -1 254 254 254 255 0 0
-0.0520246 3.829353 -0.1711261 1 0 -2 254 254 254 255 0 0
-0.0520246 3.058846 -0.1711261 2 0 -1 254 254 254 255 0 0
-0.0520246 3.829353 0.2463885 2 2 1 254 254 254 255 0 0
-0.0520246 3.058846 0.2463885 0.9999999 -1 2 254 254 254 255 0 0
-1.238843 3.829353 0.2463884 -1 1 2 254 254 254 255 0 0
-1.238843 3.058846 0.2463884 -2 -2 1 254 254 254 255 0 0
-1.238843 3.829353 -0.1711262 -2 0 0 254 254 254 255 0 0
-1.238843 3.058846 -0.1711262 -1 0 0 254 254 254 255 0 0
-0.0520246 3.058846 -0.1711261 0 -2 0 254 254 254 255 0 0
-1.238843 3.058846 -0.1711262 0 -1 0 254 254 254 255 0 0
-0.0520246 3.829353 -0.1711261 0 1 0 254 254 254 255 0 0
-1.238843 3.829353 -0.1711262 0 2 0 254 254 254 255 0 0
-3.180141 3.058844 -0.155447 9.842877e-08 0 -2 254 254 254 255 0 0
-3.180141 3.867465 -0.155447 4.921439e-08 0 -1 254 254 254 255 0 0
-1.969019 3.867465 -0.155447 1 0 -2 254 254 254 255 0 0
-1.969019 3.058844 -0.155447 2 0 -1 254 254 254 255 0 0
-1.969019 3.867465 0.2094603 2 2 1 254 254 254 255 0 0
-1.969019 3.058844 0.2094603 0.9999999 -1 2 254 254 254 255 0 0
-3.180141 3.867465 0.2094602 -1 1 2 254 254 254 255 0 0
-3.180141 3.058844 0.2094602 -2 -2 1 254 254 254 255 0 0
-3.180141 3.867465 -0.155447 -2 0 0 254 254 254 255 0 0
-3.180141 3.058844 -0.155447 -1 0 0 254 254 254 255 0 0
-1.969019 3.058844 -0.155447 0 -2 0 254 254 254 255 0 0
-3.180141 3.058844 -0.155447 0 -1 0 254 254 254 255 0 0
-1.969019 3.867465 -0.155447 0 1 0 254 254 254 255 0 0
-3.180141 3.867465 -0.155447 0 2 0 254 254 254 255 0 0
-4.881893 3.058845 -0.2122088 9.793475e-08 0 -2 254 254 254 255 0 0
-4.881893 3.850857 -0.2122088 4.896738e-08 0 -1 254 254 254 255 0 0
-3.664661 3.850857 -0.2122087 1 0 -2 254 254 254 255 0 0
-3.664661 3.058845 -0.2122087 2 0 -1 254 254 254 255 0 0
-3.664661 3.850857 0.2477627 2 2 1 254 254 254 255 0 0
-3.664661 3.058845 0.2477627 0.9999999 -1 2 254 254 254 255 0 0
-4.881893 3.850857 0.2477627 -1 1 2 254 254 254 255 0 0
-4.881893 3.058845 0.2477627 -2 -2 1 254 254 254 255 0 0
-4.881893 3.850857 -0.2122088 -2 0 0 254 254 254 255 0 0
-4.881893 3.058845 -0.2122088 -1 0 0 254 254 254 255 0 0
-3.664661 3.058845 -0.2122087 0 -2 0 254 254 254 255 0 0
-4.881893 3.058845 -0.2122088 0 -1 0 254 254 254 255 0 0
-3.664661 3.850857 -0.2122087 0 1 0 254 254 254 255 0 0
-4.881893 3.850857 -0.2122088 0 2 0 254 254 254 255 0 0
3 0 1 2 
3 3 4 1 
3 5 6 4 
3 7 8 6 
3 4 9 10 
3 11 7 5 
3 0 3 1 
3 3 5 4 
3 5 7 6 
3 7 12 8 
3 4 6 9 
3 11 13 7 
3 14 15 16 
3 14 16 17 
3 17 16 18 
3 17 18 19 
3 19 18 20 
3 19 20 21 
3 21 20 22 
3 21 22 23 
3 24 19 21 
3 24 21 25 
3 18 26 27 
3 18 27 20 
3 28 29 30 
3 28 30 31 
3 31 30 32 
3 31 32 33 
3 33 32 34 
3 33 34 35 
3 35 34 36 
3 35 36 37 
3 38 33 35 
3 38 35 39 
3 32 40 41 
3 32 41 34 
3 42 43 44 
3 42 44 45 
3 45 44 46 
3 45 46 47 
3 47 46 48 
3 47 48 49 
3 49 48 50 
3 49 50 51 
3 52 47 49 
3 52 49 53 
3 46 54 55 
3 46 55 48 
