ply
format ascii 1.0
comment VCGLIB generated
element vertex 125
property float x
property float y
property float z
property float nx
property float ny
property float nz
property uchar red
property uchar green
property uchar blue
property uchar alpha
property float texture_u
property float texture_v
element face 192
property list uchar int vertex_indices
end_header
-1 0.5 0.5 -1 0 0 255 255 0 255 0.5625 0.1875
-1 0.5 1 -1 0 0 255 255 0 255 0.625 0.1875
-1 1 1 -0.8944272 0.4472136 0 255 255 0 255 0.625 0.25
-1 1 0.5 -0.7071068 0.7071068 0 255 255 0 255 0.5625 0.25
0.5 1 0.5 0 1 0 255 255 0 255 0.5625 0.4375
0.5 1 1 0 1 0 255 255 0 255 0.625 0.4375
1 1 1 0.3333333 0.6666667 0.6666667 255 255 0 255 0.625 0.5
1 1 0.5 0.7071068 0.7071068 0 255 255 0 255 0.5625 0.5
1 -0.5 0.5 1 0 0 255 255 0 255 0.5625 0.6875
1 -0.5 1 0.7071068 0 0.7071068 255 255 0 255 0.625 0.6875
1 -1 1 0.8164966 -0.4082483 0.4082483 255 255 0 255 0.625 0.75
1 -1 0.5 0.7071068 -0.7071068 0 255 255 0 255 0.5625 0.75
-0.5 -1 0.5 0 -1 0 255 255 0 255 0.5625 0.9375
-0.5 -1 1 0 -1 0 255 255 0 255 0.625 0.9375
-1 -1 1 0 -1 0 255 255 0 255 0.625 1
-1 -1 0.5 0 -1 0 255 255 0 255 0.5625 1
0.5 -0.5 -1 0 0 -1 255 255 0 255 0.3125 0.6875
1 -0.5 -1 0.7071068 0 -0.7071068 255 255 0 255 0.375 0.6875
1 -1 -1 0.3333333 -0.6666667 -0.6666667 255 255 0 255 0.375 0.75
0.5 -1 -1 0 0 -1 255 255 0 255 0.3125 0.75
-0.5 -0.5 1 0 0 1 255 255 0 255 0.8125 0.6875
-1 -0.5 1 0 0 1 255 255 0 255 0.875 0.6875
-1 -1 1 0 0 1 255 255 0 255 0.875 0.75
-0.5 -1 1 0 0 1 255 255 0 255 0.8125 0.75
0.5 -0.5 1 0 0 1 255 255 0 255 0.6875 0.6875
0 -0.5 1 0 0 1 255 255 0 255 0.75 0.6875
0 -1 1 0 0 1 255 255 0 255 0.75 0.75
0.5 -1 1 0 0 1 255 255 0 255 0.6875 0.75
0.5 0.5 1 0 0 1 255 255 0 255 0.6875 0.5625
0 0.5 1 0 0 1 255 255 0 255 0.75 0.5625
0 0 1 0 0 1 255 255 0 255 0.75 0.625
0.5 0 1 0 0 1 255 255 0 255 0.6875 0.625
-0.5 0.5 1 0 0 1 255 255 0 255 0.8125 0.5625
-1 0.5 1 0 0 1 255 255 0 255 0.875 0.5625
-1 0 1 0 0 1 255 255 0 255 0.875 0.625
-0.5 0 1 0 0 1 255 255 0 255 0.8125 0.625
-0.5 -0.5 -1 0 0 -1 255 255 0 255 0.1875 0.6875
0 -0.5 -1 0 0 -1 255 255 0 255 0.25 0.6875
0 -1 -1 0 0 -1 255 255 0 255 0.25 0.75
-0.5 -1 -1 0 0 -1 255 255 0 255 0.1875 0.75
-0.5 0.5 -1 0 0 -1 255 255 0 255 0.1875 0.5625
0 0.5 -1 0 0 -1 255 255 0 255 0.25 0.5625
0 0 -1 0 0 -1 255 255 0 255 0.25 0.625
-0.5 0 -1 0 0 -1 255 255 0 255 0.1875 0.625
0.5 0.5 -1 0 0 -1 255 255 0 255 0.3125 0.5625
1 0.5 -1 0.7071068 0 -0.7071068 255 255 0 255 0.375 0.5625
1 0 -1 0.7071068 0 -0.7071068 255 255 0 255 0.375 0.625
0.5 0 -1 0 0 -1 255 255 0 255 0.3125 0.625
-0.5 -1 -0.5 0 -1 0 255 255 0 255 0.4375 0.9375
-0.5 -1 0 0 -1 0 255 255 0 255 0.5 0.9375
-1 -1 0 0 -1 0 255 255 0 255 0.5 1
-1 -1 -0.5 0 -1 0 255 255 0 255 0.4375 1
0.5 -1 -0.5 0 -1 0 255 255 0 255 0.4375 0.8125
0.5 -1 0 0 -1 0 255 255 0 255 0.5 0.8125
0 -1 0 0 -1 0 255 255 0 255 0.5 0.875
0 -1 -0.5 0 -1 0 255 255 0 255 0.4375 0.875
0.5 -1 0.5 0 -1 0 255 255 0 255 0.5625 0.8125
0.5 -1 1 0 -1 0 255 255 0 255 0.625 0.8125
0 -1 1 0 -1 0 255 255 0 255 0.625 0.875
0 -1 0.5 0 -1 0 255 255 0 255 0.5625 0.875
1 -0.5 -0.5 1 0 0 255 255 0 255 0.4375 0.6875
1 -0.5 0 1 0 0 255 255 0 255 0.5 0.6875
1 -1 0 0.7071068 -0.7071068 0 255 255 0 255 0.5 0.75
1 -1 -0.5 0.7071068 -0.7071068 0 255 255 0 255 0.4375 0.75
1 0.5 -0.5 1 0 0 255 255 0 255 0.4375 0.5625
1 0.5 0 1 0 0 255 255 0 255 0.5 0.5625
1 0 0 1 0 0 255 255 0 255 0.5 0.625
1 0 -0.5 1 0 0 255 255 0 255 0.4375 0.625
1 0.5 0.5 1 0 0 255 255 0 255 0.5625 0.5625
1 0.5 1 0.7071068 0 0.7071068 255 255 0 255 0.625 0.5625
1 0 1 0.7071068 0 0.7071068 255 255 0 255 0.625 0.625
1 0 0.5 1 0 0 255 255 0 255 0.5625 0.625
0.5 1 -0.5 0 1 0 255 255 0 255 0.4375 0.4375
0.5 1 0 0 1 0 255 255 0 255 0.5 0.4375
1 1 0 0.7071068 0.7071068 0 255 255 0 255 0.5 0.5
1 1 -0.5 0.7071068 0.7071068 0 255 255 0 255 0.4375 0.5
-0.5 1 -0.5 0 1 0 255 255 0 255 0.4375 0.3125
-0.5 1 0 0 1 0 255 255 0 255 0.5 0.3125
0 1 0 0 1 0 255 255 0 255 0.5 0.375
0 1 -0.5 0 1 0 255 255 0 255 0.4375 0.375
-0.5 1 0.5 0 1 0 255 255 0 255 0.5625 0.3125
-0.5 1 1 0 1 0 255 255 0 255 0.625 0.3125
0 1 1 0 1 0 255 255 0 255 0.625 0.375
0 1 0.5 0 1 0 255 255 0 255 0.5625 0.375
-1 0.5 -0.5 -1 0 0 255 255 0 255 0.4375 0.1875
-1 0.5 0 -1 0 0 255 255 0 255 0.5 0.1875
-1 1 0 -0.7071068 0.7071068 0 255 255 0 255 0.5 0.25
-1 1 -0.5 -0.7071068 0.7071068 0 255 255 0 255 0.4375 0.25
-1 -0.5 -0.5 -1 0 0 255 255 0 255 0.4375 0.0625
-1 -0.5 0 -1 0 0 255 255 0 255 0.5 0.0625
-1 0 0 -1 0 0 255 255 0 255 0.5 0.125
-1 0 -0.5 -1 0 0 255 255 0 255 0.4375 0.125
-1 -0.5 0.5 -1 0 0 255 255 0 255 0.5625 0.0625
-1 -0.5 1 -1 0 0 255 255 0 255 0.625 0.0625
-1 0 1 -1 0 0 255 255 0 255 0.625 0.125
-1 0 0.5 -1 0 0 255 255 0 255 0.5625 0.125
-1 -1 0 -1 0 0 255 255 0 255 0.5 0
-1 -1 0.5 -1 0 0 255 255 0 255 0.5625 0
-1 -1 1 -1 0 0 255 255 0 255 0.625 0
-1 -0.5 -1 -1 0 0 255 255 0 255 0.375 0.0625
-1 0 -1 -1 0 0 255 255 0 255 0.375 0.125
-1 -1 -1 -1 0 0 255 255 0 255 0.375 0
-1 -1 -0.5 -1 0 0 255 255 0 255 0.4375 0
-1 0.5 -1 -1 0 0 255 255 0 255 0.375 0.1875
-1 1 -1 -0.4472136 0.8944272 0 255 255 0 255 0.375 0.25
-0.5 1 -1 0 1 0 255 255 0 255 0.375 0.3125
0 1 -1 0 1 0 255 255 0 255 0.375 0.375
0.5 1 -1 0 1 0 255 255 0 255 0.375 0.4375
1 1 -1 0.8164966 0.4082483 -0.4082483 255 255 0 255 0.375 0.5
0.5 -1 -1 0 -1 0 255 255 0 255 0.375 0.8125
0 -1 -1 0 -1 0 255 255 0 255 0.375 0.875
-0.5 -1 -1 0 -1 0 255 255 0 255 0.375 0.9375
-1 -1 -1 0 -1 0 255 255 0 255 0.375 1
0 1 -1 0 0 -1 255 255 0 255 0.25 0.5
0.5 1 -1 0 0 -1 255 255 0 255 0.3125 0.5
-1 0.5 -1 0 0 -1 255 255 0 255 0.125 0.5625
-1 0 -1 0 0 -1 255 255 0 255 0.125 0.625
-1 1 -1 0 0 -1 255 255 0 255 0.125 0.5
-0.5 1 -1 0 0 -1 255 255 0 255 0.1875 0.5
-1 -0.5 -1 0 0 -1 255 255 0 255 0.125 0.6875
-1 -1 -1 0 0 -1 255 255 0 255 0.125 0.75
0 1 1 0 0 1 255 255 0 255 0.75 0.5
-0.5 1 1 0 0 1 255 255 0 255 0.8125 0.5
-1 1 1 0 0 1 255 255 0 255 0.875 0.5
0.5 1 1 0 0 1 255 255 0 255 0.6875 0.5
3 0 1 2 
3 0 2 3 
3 4 5 6 
3 4 6 7 
3 8 9 10 
3 8 10 11 
3 12 13 14 
3 12 14 15 
3 16 17 18 
3 16 18 19 
3 20 21 22 
3 20 22 23 
3 24 25 26 
3 24 26 27 
3 28 29 30 
3 28 30 31 
3 32 33 34 
3 32 34 35 
3 36 37 38 
3 36 38 39 
3 40 41 42 
3 40 42 43 
3 44 45 46 
3 44 46 47 
3 48 49 50 
3 48 50 51 
3 52 53 54 
3 52 54 55 
3 56 57 58 
3 56 58 59 
3 60 61 62 
3 60 62 63 
3 64 65 66 
3 64 66 67 
3 68 69 70 
3 68 70 71 
3 72 73 74 
3 72 74 75 
3 76 77 78 
3 76 78 79 
3 80 81 82 
3 80 82 83 
3 84 85 86 
3 84 86 87 
3 88 89 90 
3 88 90 91 
3 92 93 94 
3 92 94 95 
3 89 92 95 
3 89 95 90 
3 96 97 92 
3 96 92 89 
3 97 98 93 
3 97 93 92 
3 99 88 91 
3 99 91 100 
3 101 102 88 
3 101 88 99 
3 102 96 89 
3 102 89 88 
3 103 84 87 
3 103 87 104 
3 100 91 84 
3 100 84 103 
3 91 90 85 
3 91 85 84 
3 77 80 83 
3 77 83 78 
3 86 3 80 
3 86 80 77 
3 3 2 81 
3 3 81 80 
3 105 76 79 
3 105 79 106 
3 104 87 76 
3 104 76 105 
3 87 86 77 
3 87 77 76 
3 107 72 75 
3 107 75 108 
3 106 79 72 
3 106 72 107 
3 79 78 73 
3 79 73 72 
3 65 68 71 
3 65 71 66 
3 74 7 68 
3 74 68 65 
3 7 6 69 
3 7 69 68 
3 45 64 67 
3 45 67 46 
3 108 75 64 
3 108 64 45 
3 75 74 65 
3 75 65 64 
3 17 60 63 
3 17 63 18 
3 46 67 60 
3 46 60 17 
3 67 66 61 
3 67 61 60 
3 53 56 59 
3 53 59 54 
3 62 11 56 
3 62 56 53 
3 11 10 57 
3 11 57 56 
3 109 52 55 
3 109 55 110 
3 18 63 52 
3 18 52 109 
3 63 62 53 
3 63 53 52 
3 111 48 51 
3 111 51 112 
3 110 55 48 
3 110 48 111 
3 55 54 49 
3 55 49 48 
3 41 44 47 
3 41 47 42 
3 113 114 44 
3 113 44 41 
3 114 108 45 
3 114 45 44 
3 115 40 43 
3 115 43 116 
3 117 118 40 
3 117 40 115 
3 118 113 41 
3 118 41 40 
3 119 36 39 
3 119 39 120 
3 116 43 36 
3 116 36 119 
3 43 42 37 
3 43 37 36 
3 29 32 35 
3 29 35 30 
3 121 122 32 
3 121 32 29 
3 122 123 33 
3 122 33 32 
3 69 28 31 
3 69 31 70 
3 6 124 28 
3 6 28 69 
3 124 121 29 
3 124 29 28 
3 9 24 27 
3 9 27 10 
3 70 31 24 
3 70 24 9 
3 31 30 25 
3 31 25 24 
3 25 20 23 
3 25 23 26 
3 30 35 20 
3 30 20 25 
3 35 34 21 
3 35 21 20 
3 37 16 19 
3 37 19 38 
3 42 47 16 
3 42 16 37 
3 47 46 17 
3 47 17 16 
3 49 12 15 
3 49 15 50 
3 54 59 12 
3 54 12 49 
3 59 58 13 
3 59 13 12 
3 61 8 11 
3 61 11 62 
3 66 71 8 
3 66 8 61 
3 71 70 9 
3 71 9 8 
3 73 4 7 
3 73 7 74 
3 78 83 4 
3 78 4 73 
3 83 82 5 
3 83 5 4 
3 85 0 3 
3 85 3 86 
3 90 95 0 
3 90 0 85 
3 95 94 1 
3 95 1 0 
