ply
format ascii 1.0
comment VCGLIB generated
element vertex 14
property float x
property float y
property float z
property float nx
property float ny
property float nz
property uchar red
property uchar green
property uchar blue
property uchar alpha
property float texture_u
property float texture_v
element face 12
property list uchar int vertex_indices
end_header
-4.998075 0.05884498 0.3 1 -0 -0 255 255 255 255 -4.998075 0.05884498
-4.998075 3.058845 -0.3 0.9578263 -0.2873479 -0 255 255 255 255 -4.998075 3.058845
-4.998075 0.05884498 -0.3 1 -0 -0 255 255 255 255 -4.998075 0.05884498
-4.998075 3.058845 0.3 0.6401845 -0.7682213 -0 255 255 255 255 -4.998075 3.058845
0.001925029 3.058845 -0.3 -0.6327593 -0.7593112 0.1518622 255 255 255 255 0.001925029 3.058845
0.001925029 3.058845 0.3 -0.9562485 -0.2868745 -0.05737491 255 255 255 255 0.001925029 3.058845
0.001925029 0.05884498 -0.3 -0.9562485 0.2868745 0.05737491 255 255 255 255 0.001925029 0.05884498
0.001925029 0.05884498 0.3 -0.6327593 0.7593112 -0.1518622 255 255 255 255 0.001925029 0.05884498
-4.998075 0.05884498 -0.3 -0 1 -0 255 255 255 255 -4.998075 0.05884498
-4.998075 0.05884498 -0.3 -0 -0 1 255 255 255 255 -4.998075 0.05884498
-4.998075 3.058845 -0.3 -0 -0 1 255 255 255 255 -4.998075 3.058845
-4.998075 3.058845 0.3 -0 -0 -1 255 255 255 255 -4.998075 3.058845
-4.998075 0.05884498 0.3 -0 1 -0 255 255 255 255 -4.998075 0.05884498
-4.998075 0.05884498 0.3 -0 -0 -1 255 255 255 255 -4.998075 0.05884498
3 0 1 2 
3 3 4 1 
3 5 6 4 
3 7 8 6 
3 4 9 10 
3 11 7 5 
3 0 3 1 
3 3 5 4 
3 5 7 6 
3 7 12 8 
3 4 6 9 
3 11 13 7 
