ply
format ascii 1.0
comment VCGLIB generated
element vertex 315
property float x
property float y
property float z
property float nx
property float ny
property float nz
property float texture_u
property float texture_v
element face 592
property list uchar int vertex_indices
end_header
-75.95861 -16.73695 0.765367 0.9798602 0.05332497 0.1924331 -75.95861 -16.73695
-77.30463 52.54787 -0.114266 0.956868 -0.01252721 0.2902528 -77.30463 52.54787
-76.82221 72.45988 0.536822 0.7707639 0.5500227 0.3215557 -76.82221 72.45988
-76.39216 -16.73695 1.414214 0.7087259 0.02144932 0.7051578 -76.39216 -16.73695
-77.73817 5.562255 2.088749 0.6342087 0.0235843 0.7728022 -77.73817 5.562255
-77.73817 27.86146 0.863557 0.6001943 0.02555678 0.7994459 -77.73817 27.86146
-77.73817 52.54787 0.53458 0.6342212 -0.0236489 0.77279 -77.73817 52.54787
73.6795 72.45988 -0.993912 -0.8223697 0.5456147 -0.1612848 73.6795 72.45988
74.61504 52.54787 -1.645 -0.9567965 -0.01674367 -0.2902761 74.61504 52.54787
74.61504 27.86146 -1.316023 -0.9569178 -0.007893261 -0.2902517 74.61504 27.86146
74.61504 5.562255 -0.090832 -0.9566807 -0.02327126 -0.2902077 74.61504 5.562255
75.3193 -16.73695 -0.765367 -0.9227179 -0.01749284 -0.3850788 75.3193 -16.73695
74.11305 72.45988 -1.642758 -0.6499535 0.5467815 -0.5278165 74.11305 72.45988
75.04859 52.54787 -2.293847 -0.7325116 -0.01110423 -0.6806639 75.04859 52.54787
75.04859 27.86146 -1.96487 -0.7069225 -0.02315013 -0.7069121 75.04859 27.86146
75.04859 5.562255 -0.739678 -0.7069635 -0.02261952 -0.7068883 75.04859 5.562255
75.75284 -16.73695 -1.414214 -0.6587746 0.001952372 -0.7523379 75.75284 -16.73695
74.76189 72.45988 -2.299421 -0.2931328 0.7302894 -0.61705 74.76189 72.45988
75.69743 52.54787 -2.727392 -0.2844813 0.002809494 -0.9586775 75.69743 52.54787
75.69743 27.86146 -2.398416 -0.2901153 -0.0320266 -0.9564557 75.69743 27.86146
75.69743 5.562255 -1.173224 -0.290347 -0.0191539 -0.9567298 75.69743 5.562255
76.40169 -16.73695 -1.847759 -0.192544 0.0235938 -0.9810047 76.40169 -16.73695
-77.25575 72.45988 1.185669 0.447436 0.7089177 0.5451941 -77.25575 72.45988
-79.65413 -16.73695 0.765367 -0.8799138 -0.06734035 0.4703371 -79.65413 -16.73695
-81.00014 5.562255 1.439902 -0.8813525 -0.03630528 0.4710623 -81.00014 5.562255
-81.00014 27.86146 0.21471 -0.8817894 0.01935204 0.4712461 -81.00014 27.86146
-81.00014 52.54787 -0.114266 -0.8819027 0.006171828 0.4713912 -81.00014 52.54787
76.29263 72.45988 -2.076304 0.1430751 0.5769098 -0.8041795 76.29263 72.45988
77.22817 52.54787 -2.727392 0.2343022 0.01231248 -0.9720858 77.22817 52.54787
77.22817 27.86146 -2.398416 0.2902197 -0.0332434 -0.9563825 77.22817 27.86146
77.22817 5.562255 -1.173224 0.2902502 -0.007496247 -0.9569215 77.22817 5.562255
77.93242 -16.73695 -1.847759 0.3847184 0.04004496 -0.922165 77.93242 -16.73695
77.2969 72.45988 -1.849042 0.5803228 0.3819392 -0.7192691 77.2969 72.45988
77.87701 52.54787 -2.293847 0.7786357 0.01797885 -0.6272187 77.87701 52.54787
77.87701 27.86146 -1.96487 0.7728621 -0.02326675 -0.6341473 77.87701 27.86146
77.87701 5.562255 -0.739678 0.7730439 0.006685127 -0.6343174 77.87701 5.562255
78.58127 -16.73695 -1.414214 0.8321453 0.04300516 -0.5528876 78.58127 -16.73695
-80.51773 72.45988 0.536822 -0.6920987 0.6197858 0.3699527 -80.51773 72.45988
-77.80637 -16.73695 2 0.1977172 -0.01771277 0.9800991 -77.80637 -16.73695
-79.15239 5.562255 2.674535 0.09803909 0.01177307 0.995113 -79.15239 5.562255
-79.15239 27.86146 1.449343 0.03758829 0.03832687 0.998558 -79.15239 27.86146
-79.15239 52.54787 1.120367 0.09799699 -0.002791404 0.9951828 -79.15239 52.54787
77.52727 72.45988 -0.228545 0.5773089 0.8137341 -0.06746285 77.52727 72.45988
78.46281 52.54787 -0.879633 0.9968903 0.02003011 -0.07621427 78.46281 52.54787
78.46281 27.86146 -0.550657 0.995172 -0.005438616 -0.09799568 78.46281 27.86146
78.46281 5.562255 0.674535 0.9950193 0.01862604 -0.0979268 78.46281 5.562255
79.16705 -16.73695 -0 0.9995007 0.03148547 0.002665088 79.16705 -16.73695
77.37502 72.45988 0.536822 0.7581463 0.5824448 0.2932103 77.37502 72.45988
78.31056 52.54787 -0.114266 0.8892423 0.01257257 0.4572638 78.31056 52.54787
78.31056 27.86146 0.21471 0.8818484 0.01423084 0.4713183 78.31056 27.86146
78.31056 5.562255 1.439902 0.8816805 0.02428663 0.4712214 78.31056 5.562255
79.01482 -16.73695 0.765367 0.8299635 0.009340566 0.5577396 79.01482 -16.73695
-78.66997 72.45988 1.771455 0.08803663 0.4384822 0.8944176 -78.66997 72.45988
-78.57174 -16.73695 1.847759 -0.4705238 -0.05504117 0.880669 -78.57174 -16.73695
-79.91776 5.562255 2.522294 -0.4713606 0.01393376 0.8818305 -79.91776 5.562255
-79.91776 27.86146 1.297102 -0.4712966 0.0239707 0.881649 -79.91776 27.86146
-79.91776 52.54787 0.968126 -0.4714164 -0.00769107 0.8818772 -79.91776 52.54787
76.29263 72.48264 1.836142 0.4823287 0.5700418 0.6651402 76.29263 72.48264
77.22817 52.54787 0.968126 0.4784088 -0.004547846 0.8781254 77.22817 52.54787
77.22817 27.86146 1.297102 0.4712008 0.0290911 0.8815461 77.22817 27.86146
77.22817 5.562255 2.522294 0.4713932 0.02174933 0.881655 77.22817 5.562255
77.93242 -16.73695 1.847759 0.3802673 -0.01596317 0.9247389 77.93242 -16.73695
75.52727 72.48264 1.988383 -0.01743914 0.5503103 0.8347782 75.52727 72.48264
76.46281 52.54787 1.120367 -0.1187486 -0.01837411 0.9927543 76.46281 52.54787
76.46281 27.86146 1.449343 -0.09803736 0.03414279 0.9945969 76.46281 27.86146
76.46281 5.562255 2.674535 -0.09794068 0.01188794 0.9951213 76.46281 5.562255
77.16705 -16.73695 2 -0.1974417 -0.03586949 0.9796582 77.16705 -16.73695
-79.43533 72.45988 1.619214 -0.3287624 0.7167291 0.6149916 -79.43533 72.45988
-79.80637 -16.73695 -0 -0.9981758 -0.06032544 0.002445094 -79.80637 -16.73695
-81.15239 5.562255 0.674535 -0.9948318 -0.02663063 -0.09798257 -81.15239 5.562255
-81.15239 27.86146 -0.550657 -0.9951722 -0.005438522 -0.09799337 -81.15239 27.86146
-81.15239 52.54787 -0.879633 -0.9951284 0.01080569 -0.09799376 -81.15239 52.54787
74.11305 72.45988 1.185669 -0.501738 0.533294 0.6810702 74.11305 72.45988
75.04859 52.54787 0.53458 -0.6423032 -0.02381703 0.7660805 75.04859 52.54787
75.04859 27.86146 0.863557 -0.6342318 0.02769991 0.7726466 75.04859 27.86146
75.04859 5.562255 2.088749 -0.6344317 -0.001971143 0.7729765 75.04859 5.562255
75.75284 -16.73695 1.414214 -0.7082537 -0.04368174 0.7046052 75.75284 -16.73695
73.6795 72.45988 0.536822 -0.7801339 0.5361133 0.3224495 73.6795 72.45988
74.61504 52.54787 -0.114266 -0.956663 -0.02372929 0.2902292 74.61504 52.54787
74.61504 27.86146 0.21471 -0.9568861 0.01191838 0.2902189 74.61504 27.86146
74.61504 5.562255 1.439902 -0.9568569 -0.01517624 0.2901631 74.61504 5.562255
75.3193 -16.73695 0.765367 -0.9806357 -0.036789 0.1923545 75.3193 -16.73695
-77.30463 27.86146 0.21471 0.9568861 0.01191838 0.2902189 -77.30463 27.86146
-77.30463 5.562255 1.439902 0.9565763 0.02743495 0.2901881 -77.30463 5.562255
-80.66997 72.45988 -0.228545 -0.7941558 0.5862565 -0.1600627 -80.66997 72.45988
-79.22059 -16.73695 -1.414214 -0.8323731 -0.0335094 -0.5532017 -79.22059 -16.73695
-80.5666 5.562255 -0.739678 -0.7727414 -0.02588213 -0.6341931 -80.5666 5.562255
-80.5666 27.86146 -1.96487 -0.7728618 -0.02326679 -0.6341476 -80.5666 27.86146
-80.5666 52.54787 -2.293847 -0.77292 0.01447797 -0.6343383 -80.5666 52.54787
-76.82221 72.45988 -0.993912 0.8130351 0.5599237 -0.1595603 -76.82221 72.45988
-77.30463 52.54787 -1.645 0.9569182 -0.006197091 -0.2902918 -77.30463 52.54787
-77.30463 27.86146 -1.316023 0.9569178 -0.007893261 -0.2902517 -77.30463 27.86146
-77.30463 5.562255 -0.090832 0.956701 0.02202152 -0.2902382 -77.30463 5.562255
-75.95861 -16.73695 -0.765367 0.9208167 0.06720261 -0.3841622 -75.95861 -16.73695
-77.25575 72.45988 -1.642758 0.6216784 0.5631988 -0.5443558 -77.25575 72.45988
-77.73817 52.54787 -2.293847 0.7071102 -7.009756e-05 -0.7071034 -77.73817 52.54787
-77.73817 27.86146 -1.96487 0.7069206 -0.02315019 -0.706914 -77.73817 27.86146
-77.73817 5.562255 -0.739678 0.7070277 0.01199541 -0.7070841 -77.73817 5.562255
-76.39216 -16.73695 -1.414214 0.6574564 0.06239946 -0.7509044 -76.39216 -16.73695
-77.9046 72.45988 -2.076304 0.3134196 0.5811586 -0.7510146 -77.9046 72.45988
-78.38702 52.54787 -2.727392 0.2903208 0.007595757 -0.9568992 -78.38702 52.54787
-78.38702 27.86146 -2.398416 0.2901127 -0.03202664 -0.9564565 -78.38702 27.86146
-78.38702 5.562255 -1.173224 0.2902347 -0.001386548 -0.9569545 -78.38702 5.562255
-77.04101 -16.73695 -1.847759 0.1922116 0.0412612 -0.9804857 -77.04101 -16.73695
-80.08418 72.45988 -1.642758 -0.6577283 0.3609931 -0.6611184 -80.08418 72.45988
-78.57174 -16.73695 -1.847759 -0.3851292 0.004668575 -0.9228509 -78.57174 -16.73695
-79.91776 5.562255 -1.173224 -0.2902595 -0.01638969 -0.9568076 -79.91776 5.562255
-79.91776 27.86146 -2.398416 -0.2902171 -0.03324341 -0.9563833 -79.91776 27.86146
-79.91776 52.54787 -2.727392 -0.2902097 0.01327209 -0.956871 -79.91776 52.54787
-79.43533 72.45988 -2.076304 -0.1106366 0.8183445 -0.5639786 -79.43533 72.45988
14.26843 55.94351 -1.250177 0.006485822 0.9965706 -0.08249272 14.26843 55.94351
95.39529 54.92101 2.167739 0.6081092 0.5406891 0.5812559 95.39529 54.92101
-78.90887 53.50679 0.909112 0.008872421 -0.08669259 -0.9961956 -78.90887 53.50679
14.26843 55.22475 -2.985417 0.002664645 0.7449278 -0.6671398 14.26843 55.22475
14.26843 54.42862 -3.517377 0.02266493 0.3456313 -0.9380966 14.26843 54.42862
75.66441 72.4733 0.138874 -0.001550854 0.9999919 -0.003721876 75.66441 72.4733
-98.08487 54.92101 -0.660688 -0.4000728 0.6770781 -0.6176625 -98.08487 54.92101
14.26843 53.48951 -3.704177 0.001178879 -0.1410112 -0.9900073 14.26843 53.48951
-98.08487 53.50679 -1.246475 -0.5543035 -0.05334199 -0.8306035 -98.08487 53.50679
-78.90887 52.09258 4.323325 -0.005746458 -0.7622566 0.6472495 -78.90887 52.09258
76.21928 51.65903 2.143745 0.006294941 -0.9887446 -0.1494808 76.21928 51.65903
95.39529 55.8728 0.753525 0.7494768 0.6513973 0.1181782 95.39529 55.8728
14.26843 51.75427 -2.985417 0.007300276 -0.7090168 -0.7051538 14.26843 51.75427
14.26843 51.22231 -2.189282 7.189764e-05 -0.9982596 -0.05897306 14.26843 51.22231
-98.08487 51.00659 -0.011842 -0.4620193 -0.8798558 -0.1113193 -98.08487 51.00659
76.21928 52.09258 1.494898 -0.01926539 -0.625631 -0.7798812 76.21928 52.09258
-98.08487 54.27216 -1.094234 -0.5022347 0.3831626 -0.7752076 -98.08487 54.27216
-78.90887 54.92101 4.323325 -0.01115883 0.7811055 0.6242994 -78.90887 54.92101
-78.90887 52.09258 1.494898 0.04703895 -0.6525364 -0.756296 -78.90887 52.09258
14.26843 51.75427 0.485063 -0.009145487 -0.6499 0.7599647 14.26843 51.75427
-78.90887 54.27216 1.061353 0.04726848 0.345432 -0.9372526 -78.90887 54.27216
95.39529 54.92101 -0.660688 0.5218555 0.6751888 -0.5213318 95.39529 54.92101
-78.30243 72.45988 -0.380786 0 1 0 -78.30243 72.45988
14.26843 53.48951 1.203823 -0.01182269 0.002578937 0.9999268 14.26843 53.48951
14.26843 54.42862 1.017024 -0.01870034 0.4190535 0.907769 14.26843 54.42862
76.21928 53.50679 0.909112 -0.02047331 -0.07520416 -0.996958 76.21928 53.50679
95.39529 54.27216 -1.094234 0.2333847 0.4308637 -0.8717156 95.39529 54.27216
14.26843 55.22475 0.485063 -0.001526768 0.7998003 0.6002643 14.26843 55.22475
-78.90887 54.92101 1.494898 0.03237678 0.7243209 -0.6887023 -78.90887 54.92101
-78.90887 55.50679 2.909112 -8.439742e-05 0.9964532 -0.08414938 -78.90887 55.50679
76.21928 54.27216 1.061353 -0.01943976 0.3828078 -0.9236234 76.21928 54.27216
95.39529 53.50679 -1.246475 0.7853533 0.0151569 -0.6188622 95.39529 53.50679
-100.4984 -2.95741 -1.522536 -0.6968378 -0.5543644 0.4550793 -100.4984 -2.95741
-98.08487 55.8728 0.753525 -0.7489783 0.6625946 0.0001616611 -98.08487 55.8728
-98.08487 54.27216 2.601284 -0.6025637 0.4251454 0.6754025 -98.08487 54.27216
76.21928 54.92101 1.494898 -0.02101569 0.7617357 -0.6475471 76.21928 54.92101
-79.13826 2 -3.622879 -0.05864964 0.9944212 -0.08767451 -79.13826 2
-98.08487 53.50679 0.381394 -1 0 0 -98.08487 53.50679
-78.90887 51.65903 2.143745 0.01354525 -0.9962891 -0.08499716 -78.90887 51.65903
-98.08487 53.50679 3.38376 -0.7876655 -0.005869683 0.6160751 -98.08487 53.50679
-78.90887 54.27216 4.756871 -0.03790812 0.4817941 0.8754641 -78.90887 54.27216
95.39529 51.44014 -0.660688 0.5104632 -0.4423843 -0.7373761 95.39529 51.44014
-100.4984 -0.172151 -1.687926 -0.9151919 0.3545798 0.1915646 -100.4984 -0.172151
95.39529 54.27216 2.601284 0.6025637 0.4251454 0.6754025 95.39529 54.27216
-100.9397 27.39696 2.984917 -1 0 0 -100.9397 27.39696
76.21928 55.50679 2.909112 -0.01569543 0.9997271 -0.01730674 76.21928 55.50679
95.39529 51.00659 -0.011842 0.5612043 -0.792985 -0.2371171 95.39529 51.00659
76.21928 52.09258 4.323325 0.020753 -0.7950762 0.6061544 76.21928 52.09258
-100.4984 -2.435738 -1.173965 -0.5266905 -0.3764605 0.7621514 -100.4984 -2.435738
-98.08487 52.09258 2.167739 -0.6084322 -0.5618225 0.5605048 -98.08487 52.09258
-78.90887 53.50679 4.909112 -0.0312622 -0.003952958 0.9995034 -78.90887 53.50679
-98.08487 54.92101 2.167739 -0.6081093 0.5406891 0.5812559 -98.08487 54.92101
95.39529 53.50679 3.38376 0.6544634 -0.1609575 0.7387628 95.39529 53.50679
76.21928 53.50679 4.909112 0.01401487 -0.01232603 0.9998258 76.21928 53.50679
-98.08487 51.44014 -0.660688 -0.6906135 -0.4397374 -0.5741812 -98.08487 51.44014
76.21928 54.92101 4.323325 0.01156524 0.7502616 0.66104 76.21928 54.92101
95.39529 52.09258 2.167739 0.5973482 -0.6820905 0.4218149 95.39529 52.09258
-100.4984 -1.863208 -2.556175 -1 0 0 -100.4984 -1.863208
76.21928 54.27216 4.756871 0.0172931 0.4366025 0.8994883 76.21928 54.27216
-79.13826 -0.765367 -1.77512 0.005491153 -0.382649 0.9238775 -79.13826 -0.765367
-100.9397 27.79019 0.69561 -0.4584904 0.3757238 -0.8053684 -100.9397 27.79019
98.25008 25.17706 3.308736 0.3290106 -0.8134581 0.4796228 98.25008 25.17706
-19.1215 27.04629 2.8728 0.005760511 0.05486427 0.9984772 -19.1215 27.04629
-19.1215 26.06508 2.677627 0.00873805 -0.5577447 0.8299665 -19.1215 26.06508
-79.16126 27.79019 1.696482 -0.02437669 0.2833674 -0.9587016 -79.16126 27.79019
76.47167 25.02482 3.544241 0.0004056453 -0.9992039 -0.0398935 76.47167 25.02482
98.25008 24.4436 2.336817 0.8820132 -0.4563682 -0.117392 98.25008 24.4436
-19.1215 24.67746 1.29 0.00427837 -0.924876 0.3802449 -19.1215 24.67746
-19.1215 24.48228 0.3088 -0.001470957 -0.9802827 -0.1975946 -19.1215 24.48228
97.80878 -2.163674 -2.710446 1 0 0 97.80878 -2.163674
-100.9397 28.87258 3.308736 -0.5857098 0.7578446 0.2874295 -100.9397 28.87258
-100.9397 26.25945 5.041472 -0.5892665 -0.5030333 0.6322361 -100.9397 26.25945
-79.16126 28.87258 4.309608 -0.004924132 0.9874145 0.1580768 -79.16126 28.87258
-19.1215 25.23326 -1.504222 -0.00652396 -0.7053238 -0.7088553 -19.1215 25.23326
-79.16126 26.25945 5.392 0.01130712 -0.3906445 0.9204722 -79.16126 26.25945
76.47167 25.61061 2.130028 -0.008220672 -0.7294173 -0.6840196 76.47167 25.61061
98.25008 25.61061 1.129156 0.2874628 -0.6309112 -0.720636 98.25008 25.61061
-19.1215 26.06508 -2.060028 -0.009218186 -0.1925808 -0.9812379 -19.1215 26.06508
76.44868 -0.765367 -1.77512 0.00936165 -0.3686625 0.9295162 76.44868 -0.765367
-19.1215 28.02748 -2.060028 -0.008619563 0.3851109 -0.9228301 -19.1215 28.02748
76.47167 26.25945 1.696482 -0.004727845 -0.2902976 -0.9569247 76.47167 26.25945
98.25008 26.25945 0.69561 0.5442173 -0.1615672 -0.8232397 98.25008 26.25945
-19.1215 28.85931 -1.504222 -0.01321632 0.7346212 -0.6783489 -19.1215 28.85931
-19.1215 29.41511 -0.672401 0.00199447 0.9569607 -0.2902106 -19.1215 29.41511
-100.9397 26.25945 0.69561 -0.707796 -0.2050953 -0.6759887 -100.9397 26.25945
-79.16126 26.25945 1.696482 -0.0002607526 -0.3314802 -0.9434622 -79.16126 26.25945
-79.16126 28.43903 4.958455 0.000629284 0.7281517 0.6854157 -79.16126 28.43903
-19.1215 29.41511 1.29 0.005252501 0.9434661 0.3314275 -19.1215 29.41511
-19.1215 28.85931 2.121821 0.01509394 0.586411 0.809873 -19.1215 28.85931
-100.9397 28.43903 3.957583 -0.5774398 0.5264174 0.6240578 -100.9397 28.43903
76.47167 27.79019 1.696482 -0.003882872 0.3336346 -0.9426945 76.47167 27.79019
98.25008 27.79019 0.69561 0.7273568 0.3821934 -0.5699828 98.25008 27.79019
-100.9397 25.61061 1.129156 -0.5387517 -0.5549436 -0.6338645 -100.9397 25.61061
97.80878 -0.172151 -1.687926 0.7519307 0.5260523 0.3973276 97.80878 -0.172151
-79.16126 25.61061 2.130028 0.0008602253 -0.793925 -0.6080151 -79.16126 25.61061
76.47167 28.43903 2.130028 0.0003192305 0.7579162 -0.652352 76.47167 28.43903
98.25008 28.15757 1.47304 0.5491364 0.6775504 -0.4892593 98.25008 28.15757
98.25008 27.01347 2.900763 1 0 0 98.25008 27.01347
76.47167 25.17706 4.309608 0.002066246 -0.8804604 0.4741152 76.47167 25.17706
95.39529 53.50679 0.381394 1 0 0 95.39529 53.50679
76.47167 28.87258 2.778875 0.004132585 0.9385 -0.3452546 76.47167 28.87258
98.25008 28.59111 2.121887 0.5646578 0.7967941 -0.2151296 98.25008 28.59111
-79.13826 0 -5.622879 -0.01425246 -0.0821937 -0.9965145 -79.13826 0
-79.16126 28.43903 2.130028 -0.01735524 0.727565 -0.6858192 -79.16126 28.43903
-100.4984 -3.075256 -3.894731 -0.5732312 -0.4152125 -0.7064026 -100.4984 -3.075256
-100.9397 27.02482 5.151432 -0.5894845 0.05570653 0.8058566 -100.9397 27.02482
-100.4984 -1.820383 -4.267563 -0.60214 0.01407959 -0.7982664 -100.4984 -1.820383
-100.9397 28.15757 1.47304 -0.5491364 0.6775504 -0.4892593 -100.9397 28.15757
-79.13826 0.765367 -1.77512 -0.02902245 0.4504291 0.8923404 -79.13826 0.765367
-100.9397 24.4436 2.336817 -0.5913811 -0.7809687 -0.2008893 -100.9397 24.4436
76.47167 28.87258 4.309608 -0.001200947 0.9663175 0.2573503 76.47167 28.87258
98.25008 28.87258 3.308736 0.818826 0.5367345 0.2035685 98.25008 28.87258
98.25008 26.25945 5.041472 0.8212394 -0.3552531 0.4464989 98.25008 26.25945
76.47167 26.25945 5.392 -0.004920912 -0.4823165 0.8759833 76.47167 26.25945
-100.9397 28.59111 2.121887 -0.5646578 0.7967941 -0.2151296 -100.9397 28.59111
76.47167 28.43903 4.958455 -0.0004586841 0.6562243 0.7545658 76.47167 28.43903
98.25008 28.43903 3.957583 0.3446817 0.6052647 0.7175299 98.25008 28.43903
-100.4984 -1.205028 -1.173965 -0.461338 0.3629044 0.8096097 -100.4984 -1.205028
98.25008 27.02482 5.151432 0.5894845 0.05570653 0.8058566 98.25008 27.02482
-100.4984 -1.820383 -1.051563 -0.5428298 -0.05549882 0.838007 -100.4984 -1.820383
-79.16126 25.02482 3.544241 -0.001578193 -0.9978538 0.06546268 -79.16126 25.02482
-79.16126 25.17706 4.309608 0.002047357 -0.8292965 0.5588052 -79.16126 25.17706
76.47167 27.02482 5.544241 -0.004616171 0.1577414 0.9874697 76.47167 27.02482
-79.16126 27.02482 5.544241 0.009582021 0.2573324 0.9662755 -79.16126 27.02482
-79.16126 28.87258 2.778875 -0.01349637 0.9162466 -0.4003875 -79.16126 28.87258
-100.9397 25.17706 3.308736 -0.5640216 -0.7113233 0.4194031 -100.9397 25.17706
31.31713 2 -0.210611 0.002923156 0.9978052 -0.06615406 31.31713 2
-100.4984 -3.521879 -3.407797 -0.5452937 -0.7526761 -0.3689627 -100.4984 -3.521879
31.31713 1.847759 -0.975977 -0.01604315 0.8517218 -0.5237488 31.31713 1.847759
-79.13826 -1.414214 -5.037093 0.01254076 -0.6097279 -0.7925116 -79.13826 -1.414214
97.80878 -2.95741 -1.522536 0.6026245 -0.5501059 0.5781239 97.80878 -2.95741
76.44868 -2 -3.622879 -0.03963238 -0.9914719 0.124148 76.44868 -2
-79.13826 1.847759 -4.388246 -0.05630609 0.8805181 -0.4706564 -79.13826 1.847759
31.31713 0.765367 -2.05837 -0.01785696 0.4714963 -0.8816873 31.31713 0.765367
31.31713 0 -2.210611 -0.01723298 -0.097938 -0.9950433 31.31713 0
-100.4984 -0.334784 -3.274918 -0.5392444 0.7427012 -0.3970019 -100.4984 -0.334784
76.44868 -1.847759 -4.388246 -0.04686169 -0.9375418 -0.3447018 76.44868 -1.847759
97.80878 -3.428383 -2.659563 0.2572093 -0.9611372 0.1002926 97.80878 -3.428383
-79.13826 0 -1.622879 -0.01143073 5.81795e-05 0.9999347 -79.13826 0
31.31713 -1.414214 -1.624824 -0.009496029 -0.6344306 -0.7729214 31.31713 -1.414214
31.31713 -1.847759 -0.975977 -0.0008784708 -0.9238948 -0.3826456 31.31713 -1.847759
76.44868 -1.414214 -5.037093 -0.0375474 -0.6094719 -0.7919182 76.44868 -1.414214
97.80878 -3.521879 -3.407797 0.7067437 -0.6352504 -0.3114005 97.80878 -3.521879
31.31713 -2 -0.21061 0.0119813 -0.9951159 0.09798395 31.31713 -2
-100.4984 -3.428383 -2.659563 -0.4001314 -0.9021577 0.161265 -100.4984 -3.428383
31.31713 -1.414214 1.203603 0.02265889 -0.7729294 0.6340874 31.31713 -1.414214
-79.13826 -1.847759 -4.388246 0.03014256 -0.9381229 -0.3449883 -79.13826 -1.847759
97.80878 -3.075256 -3.894731 0.5732312 -0.4152126 -0.7064026 97.80878 -3.075256
31.31713 -0.765367 1.637149 0.026356 -0.3826565 0.9235147 31.31713 -0.765367
31.31713 0 1.78939 0.02669843 -8.314193e-05 0.9996436 31.31713 0
-79.13826 -1.414214 -2.208666 0.03056817 -0.799381 0.6000465 -79.13826 -1.414214
76.44868 0 -5.622879 -0.01459616 -0.08231816 -0.9964992 76.44868 0
97.80878 -1.820383 -4.267563 0.60214 0.01407964 -0.7982664 97.80878 -1.820383
31.31713 0.765367 1.637149 0.0164277 0.509108 0.8605459 31.31713 0.765367
-79.13826 1.847759 -2.857512 -0.04737132 0.9000006 0.433307 -79.13826 1.847759
76.44868 -1.414214 -2.208666 -0.003172668 -0.7962483 0.6049618 76.44868 -1.414214
76.44868 0.765367 -5.470638 0.01484053 0.4713527 -0.8818199 76.44868 0.765367
97.80878 -1.205028 -4.145162 0.8313948 0.3097464 -0.4613458 97.80878 -1.205028
31.31713 1.847759 0.554756 0.012903 0.9248295 0.380163 31.31713 1.847759
76.44868 0 -1.622879 0.02705557 -0.002418119 0.999631 76.44868 0
97.80878 -1.820383 -1.051563 0.5430102 -0.06407216 0.8372781 97.80878 -1.820383
-100.4984 -0.212383 -2.659563 -0.4018849 0.9154643 -0.02033798 -100.4984 -0.212383
-79.13826 0.765367 -5.470638 -0.05035416 0.5083813 -0.8596587 -79.13826 0.765367
76.44868 0.765367 -1.77512 0.04098669 0.429569 0.9021034 76.44868 0.765367
97.80878 -1.205028 -1.173965 0.5642085 0.2794038 0.7769185 97.80878 -1.205028
-79.13826 -2 -3.622879 0.02324006 -0.9973039 0.06960531 -79.13826 -2
76.44868 1.847759 -4.388246 0.04255448 0.8812889 -0.4706581 76.44868 1.847759
97.80878 -0.334784 -3.274918 0.4201347 0.8392786 -0.3451063 97.80878 -0.334784
-100.4984 -1.205028 -4.145162 -0.8583202 0.2416869 -0.4526299 -100.4984 -1.205028
76.44868 1.847759 -2.857512 0.05985472 0.8897721 0.4524633 76.44868 1.847759
97.80878 -0.212383 -2.659563 0.6132888 0.789664 -0.01754319 97.80878 -0.212383
76.44868 2 -3.622879 0.0558706 0.9981994 -0.02182871 76.44868 2
34.93087 27.79019 0.299822 0.03831036 0.1924246 -0.9805636 34.93087 27.79019
34.93087 26.25945 0.299822 0.03632723 -0.3848528 -0.9222628 34.93087 26.25945
34.93087 25.61061 0.733368 0.02365636 -0.8327065 -0.5532092 34.93087 25.61061
34.93087 25.02482 2.147581 0.004929853 -0.9999844 0.002618449 34.93087 25.02482
34.93087 25.17706 2.912948 -0.01391059 -0.8299564 0.5576549 34.93087 25.17706
34.93087 26.25945 3.99534 -0.02612757 -0.3801779 0.9245443 34.93087 26.25945
34.93087 27.02482 4.147581 -0.02918173 0.158037 0.9870019 34.93087 27.02482
34.93087 28.43903 3.561795 -0.01914051 0.6671672 0.744662 34.93087 28.43903
34.93087 28.87258 2.912948 -0.003541289 0.9727601 0.2317872 34.93087 28.87258
34.93087 28.87258 1.382215 0.01422815 0.9726738 -0.2317395 34.93087 28.87258
34.93087 28.43903 0.733368 0.02925787 0.7068232 -0.706785 34.93087 28.43903
-38.98067 54.92101 -0.287434 -0.02944737 0.8097138 -0.5860856 -38.98067 54.92101
-38.98067 54.27216 -0.720979 -0.04539331 0.3823157 -0.9229161 -38.98067 54.27216
-38.98067 53.50679 -0.87322 -0.04862337 -0.09792016 -0.9940057 -38.98067 53.50679
-38.98067 52.09258 -0.287434 -0.04141038 -0.5529992 -0.8321521 -38.98067 52.09258
-38.98067 51.65903 0.361413 -0.01901667 -0.9447381 -0.327274 -38.98067 51.65903
-38.98067 52.09258 2.540993 0.01757282 -0.872245 0.4887535 -38.98067 52.09258
-38.98067 53.50679 3.12678 0.03951534 -0.1974963 0.9795069 -38.98067 53.50679
-38.98067 54.27216 2.974539 0.03701324 0.3824428 0.9232376 -38.98067 54.27216
-38.98067 54.92101 2.540993 0.02419147 0.7728282 0.6341542 -38.98067 54.92101
-38.98067 55.50679 1.12678 -0.0020401 0.9982499 0.0591013 -38.98067 55.50679
-34.63987 2.385457 -3.236291 0.01244235 0.8818662 -0.4713357 -34.63987 2.385457
-34.63987 0.988089 -4.633659 0.02643167 0.3801744 -0.9245371 -34.63987 0.988089
-34.63987 0 -4.830202 0.02818349 -0.1975661 -0.9798843 -34.63987 0
-34.63987 -1.82575 -4.073952 0.01965341 -0.7088268 -0.7051088 -34.63987 -1.82575
-34.63987 -2.385457 -3.236291 0.007783639 -0.9471477 -0.3207035 -34.63987 -2.385457
-34.63987 -2.582 -2.248202 -0.008189791 -0.9802443 0.1976208 -34.63987 -2.582
-34.63987 -1.82575 -0.422453 -0.02401823 -0.7050921 0.7087089 -34.63987 -1.82575
-34.63987 -0.988089 0.137255 -0.03136454 -0.3205761 0.9467034 -34.63987 -0.988089
-34.63987 0 0.333798 -0.03292633 0.06612295 0.9972681 -34.63987 0
-34.63987 0.988089 0.137255 -0.02934588 0.4712269 0.8815237 -34.63987 0.988089
-34.63987 2.385457 -1.260114 -0.01930895 0.8298868 0.5575976 -34.63987 2.385457
-34.63987 2.582 -2.248202 -0.004166179 0.9978006 0.0661561 -34.63987 2.582
3 42 32 27 
3 42 27 17 
3 42 17 115 
3 179 203 274 
3 179 274 270 
3 179 270 240 
3 109 104 84 
3 109 84 37 
3 109 37 132 
3 267 277 280 
3 267 280 203 
3 267 203 179 
3 209 121 111 
3 209 111 153 
3 209 153 162 
3 221 226 228 
3 221 228 222 
3 221 222 207 
3 167 158 229 
3 167 229 227 
3 167 227 152 
3 188 265 240 
3 188 240 270 
3 188 270 269 
3 141 136 131 
3 141 131 121 
3 141 121 209 
3 207 201 206 
3 207 206 211 
3 207 211 221 
3 176 186 191 
3 176 191 201 
3 176 201 207 
3 179 252 257 
3 179 257 262 
3 179 262 267 
3 167 237 254 
3 167 254 142 
3 167 142 158 
3 152 271 245 
3 152 245 278 
3 152 278 167 
3 167 278 216 
3 167 216 214 
3 167 214 237 
3 154 170 194 
3 154 194 202 
3 154 202 219 
3 154 180 224 
3 154 224 217 
3 154 217 170 
3 154 219 235 
3 154 235 181 
3 154 181 215 
3 147 149 144 
3 147 144 161 
3 147 161 143 
3 143 116 126 
3 143 126 118 
3 143 118 147 
3 132 89 94 
3 132 94 99 
3 132 99 109 
3 132 37 67 
3 132 67 52 
3 132 52 22 
3 115 77 72 
3 115 72 62 
3 115 62 57 
3 115 17 12 
3 115 12 7 
3 115 7 77 
3 55 40 41 
3 55 41 56 
3 25 24 54 
3 25 54 55 
3 60 61 51 
3 60 51 50 
3 45 46 36 
3 45 36 35 
3 50 51 46 
3 50 46 45 
3 85 68 69 
3 85 69 86 
3 68 23 24 
3 68 24 69 
3 54 39 40 
3 54 40 55 
3 88 71 84 
3 88 84 104 
3 71 26 37 
3 71 37 84 
3 26 25 55 
3 26 55 56 
3 192 213 234 
3 192 234 193 
3 182 197 193 
3 182 193 234 
3 115 57 47 
3 115 47 42 
3 310 311 248 
3 310 248 169 
3 158 142 260 
3 158 260 169 
3 272 278 245 
3 272 245 242 
3 2 89 132 
3 2 132 22 
3 78 77 7 
3 78 7 8 
3 79 78 8 
3 79 8 9 
3 80 79 9 
3 80 9 10 
3 81 80 10 
3 81 10 11 
3 12 13 8 
3 12 8 7 
3 13 14 9 
3 13 9 8 
3 14 15 10 
3 14 10 9 
3 15 16 11 
3 15 11 10 
3 17 18 13 
3 17 13 12 
3 18 19 14 
3 18 14 13 
3 19 20 15 
3 19 15 14 
3 20 21 16 
3 20 16 15 
3 27 28 18 
3 27 18 17 
3 28 29 19 
3 28 19 18 
3 29 30 20 
3 29 20 19 
3 30 31 21 
3 30 21 20 
3 56 41 52 
3 56 52 67 
3 4 83 82 
3 4 82 5 
3 6 1 2 
3 6 2 22 
3 32 33 28 
3 32 28 27 
3 33 34 29 
3 33 29 28 
3 34 35 30 
3 34 30 29 
3 35 36 31 
3 35 31 30 
3 42 43 33 
3 42 33 32 
3 43 44 34 
3 43 34 33 
3 44 45 35 
3 44 35 34 
3 24 23 53 
3 24 53 54 
3 37 26 56 
3 37 56 67 
3 3 0 83 
3 3 83 4 
3 47 48 43 
3 47 43 42 
3 48 49 44 
3 48 44 43 
3 49 50 45 
3 49 45 44 
3 57 58 48 
3 57 48 47 
3 58 59 49 
3 58 49 48 
3 59 60 50 
3 59 50 49 
3 38 3 4 
3 38 4 39 
3 39 4 5 
3 39 5 40 
3 86 69 70 
3 86 70 87 
3 1 90 89 
3 1 89 2 
3 62 63 58 
3 62 58 57 
3 63 64 59 
3 63 59 58 
3 64 65 60 
3 64 60 59 
3 65 66 61 
3 65 61 60 
3 53 38 39 
3 53 39 54 
3 82 91 90 
3 82 90 1 
3 72 73 63 
3 72 63 62 
3 73 74 64 
3 73 64 63 
3 74 75 65 
3 74 65 64 
3 75 76 66 
3 75 66 65 
3 5 82 1 
3 5 1 6 
3 83 92 91 
3 83 91 82 
3 87 70 71 
3 87 71 88 
3 52 41 6 
3 52 6 22 
3 105 85 86 
3 105 86 106 
3 41 40 5 
3 41 5 6 
3 0 93 92 
3 0 92 83 
3 77 78 73 
3 77 73 72 
3 78 79 74 
3 78 74 73 
3 79 80 75 
3 79 75 74 
3 80 81 76 
3 80 76 75 
3 106 86 87 
3 106 87 107 
3 69 24 25 
3 69 25 70 
3 70 25 26 
3 70 26 71 
3 107 87 88 
3 107 88 108 
3 108 88 104 
3 108 104 109 
3 103 105 106 
3 103 106 102 
3 102 106 107 
3 102 107 101 
3 101 107 108 
3 101 108 100 
3 90 95 94 
3 90 94 89 
3 91 96 95 
3 91 95 90 
3 92 97 96 
3 92 96 91 
3 93 98 97 
3 93 97 92 
3 95 100 99 
3 95 99 94 
3 96 101 100 
3 96 100 95 
3 97 102 101 
3 97 101 96 
3 98 103 102 
3 98 102 97 
3 100 108 109 
3 100 109 99 
3 209 156 151 
3 209 151 141 
3 147 124 159 
3 147 159 149 
3 137 165 155 
3 137 155 110 
3 145 113 110 
3 145 110 155 
3 294 295 112 
3 294 112 130 
3 113 145 140 
3 113 140 114 
3 166 157 120 
3 166 120 156 
3 296 295 117 
3 296 117 122 
3 114 140 135 
3 114 135 117 
3 125 122 117 
3 125 117 135 
3 302 301 137 
3 302 137 110 
3 122 125 120 
3 122 120 123 
3 125 151 156 
3 125 156 120 
3 157 129 123 
3 157 123 120 
3 297 296 122 
3 297 122 123 
3 298 297 123 
3 298 123 129 
3 129 157 163 
3 129 163 133 
3 299 298 129 
3 299 129 133 
3 135 141 151 
3 135 151 125 
3 133 163 168 
3 133 168 134 
3 157 166 162 
3 157 162 163 
3 134 168 165 
3 134 165 137 
3 300 299 133 
3 300 133 134 
3 300 301 127 
3 300 127 150 
3 113 293 302 
3 113 302 110 
3 147 118 164 
3 147 164 124 
3 309 310 169 
3 309 169 260 
3 163 162 153 
3 163 153 168 
3 216 278 272 
3 216 272 212 
3 294 293 113 
3 294 113 114 
3 140 136 141 
3 140 141 135 
3 126 116 138 
3 126 138 130 
3 168 153 111 
3 168 111 165 
3 245 271 146 
3 245 146 242 
3 227 229 248 
3 227 248 218 
3 271 152 264 
3 271 264 146 
3 145 131 136 
3 145 136 140 
3 124 164 128 
3 124 128 148 
3 128 164 118 
3 128 118 112 
3 121 155 165 
3 121 165 111 
3 308 309 260 
3 308 260 275 
3 307 308 275 
3 307 275 256 
3 155 121 131 
3 155 131 145 
3 144 149 160 
3 144 160 150 
3 143 161 127 
3 143 127 139 
3 119 159 124 
3 119 124 148 
3 214 216 212 
3 214 212 239 
3 118 126 130 
3 118 130 112 
3 160 149 159 
3 160 159 119 
3 311 312 218 
3 311 218 248 
3 138 116 143 
3 138 143 139 
3 161 144 150 
3 161 150 127 
3 176 207 222 
3 176 222 171 
3 209 162 166 
3 209 166 156 
3 154 215 199 
3 154 199 180 
3 233 172 198 
3 233 198 196 
3 287 288 172 
3 287 172 173 
3 172 233 184 
3 172 184 173 
3 231 177 173 
3 231 173 184 
3 185 186 176 
3 185 176 175 
3 175 176 171 
3 175 171 208 
3 286 287 173 
3 286 173 177 
3 177 231 230 
3 177 230 178 
3 204 183 178 
3 204 178 230 
3 285 286 177 
3 285 177 178 
3 284 285 178 
3 284 178 183 
3 183 204 195 
3 183 195 187 
3 174 189 187 
3 174 187 195 
3 283 284 183 
3 283 183 187 
3 189 174 213 
3 189 213 192 
3 190 191 186 
3 190 186 185 
3 223 222 228 
3 223 228 232 
3 282 283 187 
3 282 187 189 
3 197 182 196 
3 197 196 198 
3 210 291 290 
3 210 290 220 
3 200 201 191 
3 200 191 190 
3 292 282 189 
3 292 189 192 
3 292 291 210 
3 292 210 205 
3 226 225 232 
3 226 232 228 
3 306 307 256 
3 306 256 239 
3 264 152 227 
3 264 227 218 
3 269 270 274 
3 269 274 273 
3 208 171 222 
3 208 222 223 
3 229 158 169 
3 229 169 248 
3 289 290 197 
3 289 197 198 
3 237 214 239 
3 237 239 256 
3 260 142 254 
3 260 254 275 
3 205 206 201 
3 205 201 200 
3 172 288 289 
3 172 289 198 
3 202 194 195 
3 202 195 204 
3 225 226 221 
3 225 221 220 
3 305 306 239 
3 305 239 212 
3 304 305 212 
3 304 212 272 
3 210 211 206 
3 210 206 205 
3 180 199 196 
3 180 196 182 
3 211 210 220 
3 211 220 221 
3 266 267 262 
3 266 262 261 
3 303 304 272 
3 303 272 242 
3 215 181 184 
3 215 184 233 
3 170 217 213 
3 170 213 174 
3 254 237 256 
3 254 256 275 
3 224 180 182 
3 224 182 234 
3 199 215 233 
3 199 233 196 
3 181 235 231 
3 181 231 184 
3 195 194 170 
3 195 170 174 
3 219 202 204 
3 219 204 230 
3 235 219 230 
3 235 230 231 
3 217 224 234 
3 217 234 213 
3 240 247 252 
3 240 252 179 
3 268 279 281 
3 268 281 236 
3 236 281 276 
3 236 276 238 
3 266 243 238 
3 266 238 276 
3 313 312 263 
3 313 263 268 
3 246 252 247 
3 246 247 241 
3 243 266 261 
3 243 261 244 
3 251 249 244 
3 251 244 261 
3 314 313 268 
3 314 268 236 
3 249 251 246 
3 249 246 250 
3 240 265 241 
3 240 241 247 
3 251 257 252 
3 251 252 246 
3 250 246 241 
3 250 241 253 
3 203 279 273 
3 203 273 274 
3 265 255 253 
3 265 253 241 
3 303 314 236 
3 303 236 238 
3 261 262 257 
3 261 257 251 
3 267 266 276 
3 267 276 277 
3 255 265 188 
3 255 188 258 
3 279 203 280 
3 279 280 281 
3 258 188 269 
3 258 269 259 
3 281 280 277 
3 281 277 276 
3 279 268 263 
3 279 263 273 
3 259 269 273 
3 259 273 263 
3 282 200 190 
3 282 190 283 
3 283 190 185 
3 283 185 284 
3 284 185 175 
3 284 175 285 
3 285 175 208 
3 285 208 286 
3 286 208 223 
3 286 223 287 
3 287 223 232 
3 287 232 288 
3 288 232 225 
3 288 225 289 
3 289 225 220 
3 289 220 290 
3 291 193 197 
3 291 197 290 
3 292 192 193 
3 292 193 291 
3 292 205 200 
3 292 200 282 
3 294 130 138 
3 294 138 293 
3 294 114 117 
3 294 117 295 
3 296 128 112 
3 296 112 295 
3 297 148 128 
3 297 128 296 
3 298 119 148 
3 298 148 297 
3 299 160 119 
3 299 119 298 
3 300 150 160 
3 300 160 299 
3 300 134 137 
3 300 137 301 
3 302 139 127 
3 302 127 301 
3 293 138 139 
3 293 139 302 
3 303 238 243 
3 303 243 304 
3 304 243 244 
3 304 244 305 
3 305 244 249 
3 305 249 306 
3 306 249 250 
3 306 250 307 
3 307 250 253 
3 307 253 308 
3 308 253 255 
3 308 255 309 
3 309 255 258 
3 309 258 310 
3 310 258 259 
3 310 259 311 
3 311 259 263 
3 311 263 312 
3 313 264 218 
3 313 218 312 
3 314 146 264 
3 314 264 313 
3 303 242 146 
3 303 146 314 
