ply
format ascii 1.0
comment VCGLIB generated
element vertex 289
property float x
property float y
property float z
property float nx
property float ny
property float nz
property uchar red
property uchar green
property uchar blue
property uchar alpha
property float texture_u
property float texture_v
element face 512
property list uchar int vertex_indices
end_header
-3.824746e-08 0.875 -0.4757794 1 0 -6.098668e-08 255 255 0 255 0.9375 0.9375
-4.371139e-08 0.875 -0.5653715 1 0 -6.098668e-08 255 255 0 255 1 0.9375
-4.371139e-08 1 -0.5653715 1 0 -6.098668e-08 255 255 0 255 1 1
-3.824746e-08 1 -0.4757794 1 0 -6.098668e-08 255 255 0 255 0.9375 1
5.463925e-09 0.875 0.2409574 1 0 -6.098667e-08 255 255 0 255 0.4375 0.9375
8.881784e-16 0.875 0.1513653 1 0 -6.098667e-08 255 255 0 255 0.5 0.9375
8.881784e-16 1 0.1513653 1 0 -6.098667e-08 255 255 0 255 0.5 1
5.463925e-09 1 0.2409574 1 0 -6.098667e-08 255 255 0 255 0.4375 1
5.463923e-09 -0.125 0.2409574 1 4.116843e-15 -6.098667e-08 255 255 0 255 0.4375 0.4375
-1.776357e-15 -0.125 0.1513653 1 1.280342e-15 -6.098668e-08 255 255 0 255 0.5 0.4375
0 0 0.1513653 1 2.120203e-15 -6.098667e-08 255 255 0 255 0.5 0.5
5.463924e-09 0 0.2409574 1 4.817548e-16 -6.098667e-08 255 255 0 255 0.4375 0.5
-3.824746e-08 -0.125 -0.4757794 1 0 -6.098668e-08 255 255 0 255 0.9375 0.4375
-4.371139e-08 -0.125 -0.5653715 1 0 -6.098668e-08 255 255 0 255 1 0.4375
-4.371139e-08 0 -0.5653715 1 0 -6.098668e-08 255 255 0 255 1 0.5
-3.824746e-08 0 -0.4757794 1 0 -6.098668e-08 255 255 0 255 0.9375 0.5
-1.639177e-08 -0.125 -0.117411 1 0 -6.098667e-08 255 255 0 255 0.6875 0.4375
-2.185569e-08 -0.125 -0.2070031 1 0 -6.098666e-08 255 255 0 255 0.75 0.4375
-2.185569e-08 0 -0.2070031 1 0 -6.098666e-08 255 255 0 255 0.75 0.5
-1.639177e-08 0 -0.117411 1 0 -6.098668e-08 255 255 0 255 0.6875 0.5
-1.639177e-08 -0.625 -0.117411 1 0 -6.098667e-08 255 255 0 255 0.6875 0.1875
-2.185569e-08 -0.625 -0.2070031 1 0 -6.098666e-08 255 255 0 255 0.75 0.1875
-2.185569e-08 -0.5 -0.2070031 1 0 -6.098666e-08 255 255 0 255 0.75 0.25
-1.639177e-08 -0.5 -0.117411 1 2.745832e-17 -6.098668e-08 255 255 0 255 0.6875 0.25
-3.824746e-08 -0.625 -0.4757794 1 0 -6.098668e-08 255 255 0 255 0.9375 0.1875
-4.371139e-08 -0.625 -0.5653715 1 0 -6.098668e-08 255 255 0 255 1 0.1875
-4.371139e-08 -0.5 -0.5653715 1 0 -6.098668e-08 255 255 0 255 1 0.25
-3.824746e-08 -0.5 -0.4757794 1 0 -6.098668e-08 255 255 0 255 0.9375 0.25
2.731962e-08 -0.125 0.5993258 1 0 -6.098666e-08 255 255 0 255 0.1875 0.4375
2.185569e-08 -0.125 0.5097337 1 1.239198e-15 -6.098665e-08 255 255 0 255 0.25 0.4375
2.185569e-08 0 0.5097337 1 0 -6.098666e-08 255 255 0 255 0.25 0.5
2.731962e-08 0 0.5993258 1 0 -6.098666e-08 255 255 0 255 0.1875 0.5
2.731962e-08 -0.625 0.5993258 1 0 -6.098666e-08 255 255 0 255 0.1875 0.1875
2.185569e-08 -0.625 0.5097337 1 -1.239197e-15 -6.098664e-08 255 255 0 255 0.25 0.1875
2.185569e-08 -0.5 0.5097337 1 0 -6.098664e-08 255 255 0 255 0.25 0.25
2.731962e-08 -0.5 0.5993258 1 0 -6.098666e-08 255 255 0 255 0.1875 0.25
5.463923e-09 -0.625 0.2409574 1 0 -6.098668e-08 255 255 0 255 0.4375 0.1875
-1.776357e-15 -0.625 0.1513653 1 0 -6.098668e-08 255 255 0 255 0.5 0.1875
-1.776357e-15 -0.5 0.1513653 1 0 -6.098668e-08 255 255 0 255 0.5 0.25
5.463923e-09 -0.5 0.2409574 1 0 -6.098668e-08 255 255 0 255 0.4375 0.25
2.731962e-08 0.875 0.5993258 1 0 -6.098666e-08 255 255 0 255 0.1875 0.9375
2.185569e-08 0.875 0.5097337 1 0 -6.098665e-08 255 255 0 255 0.25 0.9375
2.185569e-08 1 0.5097337 1 0 -6.098665e-08 255 255 0 255 0.25 1
2.731962e-08 1 0.5993258 1 0 -6.098666e-08 255 255 0 255 0.1875 1
2.731962e-08 0.375 0.5993258 1 0 -6.098666e-08 255 255 0 255 0.1875 0.6875
2.185569e-08 0.375 0.5097337 1 0 -6.098665e-08 255 255 0 255 0.25 0.6875
2.185569e-08 0.5 0.5097337 1 0 -6.098666e-08 255 255 0 255 0.25 0.75
2.731962e-08 0.5 0.5993258 1 0 -6.098666e-08 255 255 0 255 0.1875 0.75
5.463925e-09 0.375 0.2409574 1 1.252884e-15 -6.098667e-08 255 255 0 255 0.4375 0.6875
8.881784e-16 0.375 0.1513653 1 2.745852e-17 -6.098667e-08 255 255 0 255 0.5 0.6875
8.881784e-16 0.5 0.1513653 1 0 -6.098668e-08 255 255 0 255 0.5 0.75
5.463925e-09 0.5 0.2409574 1 0 -6.098668e-08 255 255 0 255 0.4375 0.75
-1.639177e-08 0.875 -0.117411 1 0 -6.098667e-08 255 255 0 255 0.6875 0.9375
-2.185569e-08 0.875 -0.2070031 1 0 -6.098666e-08 255 255 0 255 0.75 0.9375
-2.185569e-08 1 -0.2070031 1 0 -6.098667e-08 255 255 0 255 0.75 1
-1.639177e-08 1 -0.117411 1 0 -6.098667e-08 255 255 0 255 0.6875 1
-1.639177e-08 0.375 -0.117411 1 0 -6.098667e-08 255 255 0 255 0.6875 0.6875
-2.185569e-08 0.375 -0.2070031 1 0 -6.098666e-08 255 255 0 255 0.75 0.6875
-2.185569e-08 0.5 -0.2070031 1 0 -6.098666e-08 255 255 0 255 0.75 0.75
-1.639177e-08 0.5 -0.117411 1 0 -6.098668e-08 255 255 0 255 0.6875 0.75
-3.824746e-08 0.375 -0.4757794 1 0 -6.098668e-08 255 255 0 255 0.9375 0.6875
-4.371139e-08 0.375 -0.5653715 1 0 -6.098668e-08 255 255 0 255 1 0.6875
-4.371139e-08 0.5 -0.5653715 1 0 -6.098668e-08 255 255 0 255 1 0.75
-3.824746e-08 0.5 -0.4757794 1 0 -6.098668e-08 255 255 0 255 0.9375 0.75
-2.731962e-08 0.375 -0.2965952 1 0 -6.098666e-08 255 255 0 255 0.8125 0.6875
-3.278354e-08 0.375 -0.3861873 1 0 -6.098667e-08 255 255 0 255 0.875 0.6875
-3.278354e-08 0.5 -0.3861873 1 0 -6.098666e-08 255 255 0 255 0.875 0.75
-2.731962e-08 0.5 -0.2965952 1 0 -6.098666e-08 255 255 0 255 0.8125 0.75
-2.731962e-08 0.125 -0.2965952 1 0 -6.098666e-08 255 255 0 255 0.8125 0.5625
-3.278354e-08 0.125 -0.3861873 1 0 -6.098666e-08 255 255 0 255 0.875 0.5625
-3.278354e-08 0.25 -0.3861873 1 0 -6.098667e-08 255 255 0 255 0.875 0.625
-2.731962e-08 0.25 -0.2965952 1 0 -6.098666e-08 255 255 0 255 0.8125 0.625
-3.824746e-08 0.125 -0.4757794 1 0 -6.098668e-08 255 255 0 255 0.9375 0.5625
-4.371139e-08 0.125 -0.5653715 1 0 -6.098668e-08 255 255 0 255 1 0.5625
-4.371139e-08 0.25 -0.5653715 1 0 -6.098668e-08 255 255 0 255 1 0.625
-3.824746e-08 0.25 -0.4757794 1 0 -6.098668e-08 255 255 0 255 0.9375 0.625
-5.463923e-09 0.375 0.06177324 1 0 -6.098667e-08 255 255 0 255 0.5625 0.6875
-1.092785e-08 0.375 -0.02781886 1 0 -6.098667e-08 255 255 0 255 0.625 0.6875
-1.092785e-08 0.5 -0.02781886 1 0 -6.098667e-08 255 255 0 255 0.625 0.75
-5.463923e-09 0.5 0.06177324 1 0 -6.098667e-08 255 255 0 255 0.5625 0.75
-5.463923e-09 0.125 0.06177324 1 1.239155e-15 -6.098667e-08 255 255 0 255 0.5625 0.5625
-1.092785e-08 0.125 -0.02781886 1 0 -6.098667e-08 255 255 0 255 0.625 0.5625
-1.092785e-08 0.25 -0.02781886 1 0 -6.098667e-08 255 255 0 255 0.625 0.625
-5.463923e-09 0.25 0.06177324 1 0 -6.098667e-08 255 255 0 255 0.5625 0.625
-1.639177e-08 0.125 -0.117411 1 0 -6.098667e-08 255 255 0 255 0.6875 0.5625
-2.185569e-08 0.125 -0.2070031 1 0 -6.098666e-08 255 255 0 255 0.75 0.5625
-2.185569e-08 0.25 -0.2070031 1 0 -6.098666e-08 255 255 0 255 0.75 0.625
-1.639177e-08 0.25 -0.117411 1 0 -6.098667e-08 255 255 0 255 0.6875 0.625
-5.463923e-09 0.875 0.06177324 1 0 -6.098667e-08 255 255 0 255 0.5625 0.9375
-1.092785e-08 0.875 -0.02781886 1 0 -6.098667e-08 255 255 0 255 0.625 0.9375
-1.092785e-08 1 -0.02781886 1 0 -6.098666e-08 255 255 0 255 0.625 1
-5.463923e-09 1 0.06177324 1 0 -6.098666e-08 255 255 0 255 0.5625 1
-5.463923e-09 0.625 0.06177324 1 0 -6.098667e-08 255 255 0 255 0.5625 0.8125
-1.092785e-08 0.625 -0.02781886 1 0 -6.098667e-08 255 255 0 255 0.625 0.8125
-1.092785e-08 0.75 -0.02781886 1 0 -6.098667e-08 255 255 0 255 0.625 0.875
-5.463923e-09 0.75 0.06177324 1 0 -6.098667e-08 255 255 0 255 0.5625 0.875
-1.639177e-08 0.625 -0.117411 1 0 -6.098667e-08 255 255 0 255 0.6875 0.8125
-2.185569e-08 0.625 -0.2070031 1 0 -6.098666e-08 255 255 0 255 0.75 0.8125
-2.185569e-08 0.75 -0.2070031 1 0 -6.098666e-08 255 255 0 255 0.75 0.875
-1.639177e-08 0.75 -0.117411 1 0 -6.098667e-08 255 255 0 255 0.6875 0.875
1.639177e-08 0.375 0.4201416 1 8.261318e-16 -6.098668e-08 255 255 0 255 0.3125 0.6875
1.092785e-08 0.375 0.3305495 1 2.271841e-15 -6.098668e-08 255 255 0 255 0.375 0.6875
1.092785e-08 0.5 0.3305495 1 0 -6.098667e-08 255 255 0 255 0.375 0.75
1.639177e-08 0.5 0.4201416 1 0 -6.098668e-08 255 255 0 255 0.3125 0.75
1.639177e-08 0.125 0.4201416 1 0 -6.098667e-08 255 255 0 255 0.3125 0.5625
1.092785e-08 0.125 0.3305495 1 0 -6.098668e-08 255 255 0 255 0.375 0.5625
1.092785e-08 0.25 0.3305495 1 2.065286e-15 -6.098667e-08 255 255 0 255 0.375 0.625
1.639177e-08 0.25 0.4201416 1 1.652264e-15 -6.098668e-08 255 255 0 255 0.3125 0.625
5.463924e-09 0.125 0.2409574 1 8.535903e-16 -6.098668e-08 255 255 0 255 0.4375 0.5625
8.881784e-16 0.125 0.1513653 1 2.28557e-15 -6.098668e-08 255 255 0 255 0.5 0.5625
8.881784e-16 0.25 0.1513653 1 4.118778e-17 -6.098667e-08 255 255 0 255 0.5 0.625
5.463924e-09 0.25 0.2409574 1 6.607651e-16 -6.098668e-08 255 255 0 255 0.4375 0.625
3.824746e-08 0.375 0.77851 1 0 -6.098668e-08 255 255 0 255 0.0625 0.6875
3.278354e-08 0.375 0.6889179 1 0 -6.098668e-08 255 255 0 255 0.125 0.6875
3.278354e-08 0.5 0.6889179 1 0 -6.098668e-08 255 255 0 255 0.125 0.75
3.824746e-08 0.5 0.77851 1 0 -6.098668e-08 255 255 0 255 0.0625 0.75
3.824746e-08 0.125 0.77851 1 0 -6.098668e-08 255 255 0 255 0.0625 0.5625
3.278354e-08 0.125 0.6889179 1 0 -6.098668e-08 255 255 0 255 0.125 0.5625
3.278354e-08 0.25 0.6889179 1 0 -6.098668e-08 255 255 0 255 0.125 0.625
3.824746e-08 0.25 0.77851 1 0 -6.098668e-08 255 255 0 255 0.0625 0.625
2.731962e-08 0.125 0.5993258 1 0 -6.098666e-08 255 255 0 255 0.1875 0.5625
2.185569e-08 0.125 0.5097337 1 0 -6.098666e-08 255 255 0 255 0.25 0.5625
2.185569e-08 0.25 0.5097337 1 0 -6.098666e-08 255 255 0 255 0.25 0.625
2.731962e-08 0.25 0.5993258 1 0 -6.098665e-08 255 255 0 255 0.1875 0.625
3.824746e-08 0.875 0.77851 1 0 -6.098668e-08 255 255 0 255 0.0625 0.9375
3.278354e-08 0.875 0.6889179 1 0 -6.098668e-08 255 255 0 255 0.125 0.9375
3.278354e-08 1 0.6889179 1 0 -6.098668e-08 255 255 0 255 0.125 1
3.824746e-08 1 0.77851 1 0 -6.098668e-08 255 255 0 255 0.0625 1
3.824746e-08 0.625 0.77851 1 0 -6.098668e-08 255 255 0 255 0.0625 0.8125
3.278354e-08 0.625 0.6889179 1 0 -6.098668e-08 255 255 0 255 0.125 0.8125
3.278354e-08 0.75 0.6889179 1 0 -6.098668e-08 255 255 0 255 0.125 0.875
3.824746e-08 0.75 0.77851 1 0 -6.098668e-08 255 255 0 255 0.0625 0.875
2.731962e-08 0.625 0.5993258 1 0 -6.098666e-08 255 255 0 255 0.1875 0.8125
2.185569e-08 0.625 0.5097337 1 0 -6.098665e-08 255 255 0 255 0.25 0.8125
2.185569e-08 0.75 0.5097337 1 0 -6.098666e-08 255 255 0 255 0.25 0.875
2.731962e-08 0.75 0.5993258 1 0 -6.098665e-08 255 255 0 255 0.1875 0.875
1.639177e-08 -0.625 0.4201416 1 -3.662633e-15 -6.098667e-08 255 255 0 255 0.3125 0.1875
1.092785e-08 -0.625 0.3305495 1 -2.368476e-15 -6.098667e-08 255 255 0 255 0.375 0.1875
1.092785e-08 -0.5 0.3305495 1 0 -6.098668e-08 255 255 0 255 0.375 0.25
1.639177e-08 -0.5 0.4201416 1 0 -6.098666e-08 255 255 0 255 0.3125 0.25
1.639177e-08 -0.875 0.4201416 1 -1.184238e-15 -6.098666e-08 255 255 0 255 0.3125 0.0625
1.092785e-08 -0.875 0.3305495 1 0 -6.098666e-08 255 255 0 255 0.375 0.0625
1.092785e-08 -0.75 0.3305495 1 -1.184238e-15 -6.098667e-08 255 255 0 255 0.375 0.125
1.639177e-08 -0.75 0.4201416 1 -5.976149e-15 -6.098667e-08 255 255 0 255 0.3125 0.125
5.463923e-09 -0.875 0.2409574 1 0 -6.098668e-08 255 255 0 255 0.4375 0.0625
-1.776357e-15 -0.875 0.1513653 1 0 -6.098668e-08 255 255 0 255 0.5 0.0625
-1.776357e-15 -0.75 0.1513653 1 0 -6.098668e-08 255 255 0 255 0.5 0.125
5.463923e-09 -0.75 0.2409574 1 0 -6.098668e-08 255 255 0 255 0.4375 0.125
3.824746e-08 -0.625 0.77851 1 0 -6.098668e-08 255 255 0 255 0.0625 0.1875
3.278354e-08 -0.625 0.6889179 1 0 -6.098668e-08 255 255 0 255 0.125 0.1875
3.278354e-08 -0.5 0.6889179 1 0 -6.098668e-08 255 255 0 255 0.125 0.25
3.824746e-08 -0.5 0.77851 1 0 -6.098668e-08 255 255 0 255 0.0625 0.25
3.824746e-08 -0.875 0.77851 1 0 -6.098668e-08 255 255 0 255 0.0625 0.0625
3.278354e-08 -0.875 0.6889179 1 0 -6.098668e-08 255 255 0 255 0.125 0.0625
3.278354e-08 -0.75 0.6889179 1 0 -6.098668e-08 255 255 0 255 0.125 0.125
3.824746e-08 -0.75 0.77851 1 0 -6.098668e-08 255 255 0 255 0.0625 0.125
2.731962e-08 -0.875 0.5993258 1 -2.478395e-15 -6.098666e-08 255 255 0 255 0.1875 0.0625
2.185569e-08 -0.875 0.5097337 1 -3.607673e-15 -6.098666e-08 255 255 0 255 0.25 0.0625
2.185569e-08 -0.75 0.5097337 1 -6.141028e-15 -6.098665e-08 255 255 0 255 0.25 0.125
2.731962e-08 -0.75 0.5993258 1 -1.239197e-15 -6.098666e-08 255 255 0 255 0.1875 0.125
3.824746e-08 -0.125 0.77851 1 0 -6.098668e-08 255 255 0 255 0.0625 0.4375
3.278354e-08 -0.125 0.6889179 1 0 -6.098668e-08 255 255 0 255 0.125 0.4375
3.278354e-08 0 0.6889179 1 0 -6.098668e-08 255 255 0 255 0.125 0.5
3.824746e-08 0 0.77851 1 0 -6.098668e-08 255 255 0 255 0.0625 0.5
3.824746e-08 -0.375 0.77851 1 0 -6.098668e-08 255 255 0 255 0.0625 0.3125
3.278354e-08 -0.375 0.6889179 1 0 -6.098668e-08 255 255 0 255 0.125 0.3125
3.278354e-08 -0.25 0.6889179 1 0 -6.098668e-08 255 255 0 255 0.125 0.375
3.824746e-08 -0.25 0.77851 1 0 -6.098668e-08 255 255 0 255 0.0625 0.375
2.731962e-08 -0.375 0.5993258 1 0 -6.098666e-08 255 255 0 255 0.1875 0.3125
2.185569e-08 -0.375 0.5097337 1 0 -6.098664e-08 255 255 0 255 0.25 0.3125
2.185569e-08 -0.25 0.5097337 1 2.478395e-15 -6.098665e-08 255 255 0 255 0.25 0.375
2.731962e-08 -0.25 0.5993258 1 0 -6.098665e-08 255 255 0 255 0.1875 0.375
-2.731962e-08 -0.625 -0.2965952 1 0 -6.098666e-08 255 255 0 255 0.8125 0.1875
-3.278354e-08 -0.625 -0.3861873 1 0 -6.098667e-08 255 255 0 255 0.875 0.1875
-3.278354e-08 -0.5 -0.3861873 1 0 -6.098666e-08 255 255 0 255 0.875 0.25
-2.731962e-08 -0.5 -0.2965952 1 0 -6.098666e-08 255 255 0 255 0.8125 0.25
-2.731962e-08 -0.875 -0.2965952 1 0 -6.098666e-08 255 255 0 255 0.8125 0.0625
-3.278354e-08 -0.875 -0.3861873 1 0 -6.098666e-08 255 255 0 255 0.875 0.0625
-3.278354e-08 -0.75 -0.3861873 1 0 -6.098667e-08 255 255 0 255 0.875 0.125
-2.731962e-08 -0.75 -0.2965952 1 0 -6.098666e-08 255 255 0 255 0.8125 0.125
-3.824746e-08 -0.875 -0.4757794 1 0 -6.098668e-08 255 255 0 255 0.9375 0.0625
-4.371139e-08 -0.875 -0.5653715 1 0 -6.098668e-08 255 255 0 255 1 0.0625
-4.371139e-08 -0.75 -0.5653715 1 0 -6.098668e-08 255 255 0 255 1 0.125
-3.824746e-08 -0.75 -0.4757794 1 0 -6.098668e-08 255 255 0 255 0.9375 0.125
-5.463926e-09 -0.625 0.06177318 1 0 -6.098667e-08 255 255 0 255 0.5625 0.1875
-1.092785e-08 -0.625 -0.02781889 1 0 -6.098667e-08 255 255 0 255 0.625 0.1875
-1.092785e-08 -0.5 -0.02781889 1 5.491664e-17 -6.098667e-08 255 255 0 255 0.625 0.25
-5.463926e-09 -0.5 0.06177318 1 0 -6.098667e-08 255 255 0 255 0.5625 0.25
-5.463926e-09 -0.875 0.06177318 1 0 -6.098667e-08 255 255 0 255 0.5625 0.0625
-1.092785e-08 -0.875 -0.02781889 1 0 -6.098667e-08 255 255 0 255 0.625 0.0625
-1.092785e-08 -0.75 -0.02781889 1 0 -6.098667e-08 255 255 0 255 0.625 0.125
-5.463926e-09 -0.75 0.06177318 1 0 -6.098668e-08 255 255 0 255 0.5625 0.125
-1.639177e-08 -0.875 -0.117411 1 0 -6.098667e-08 255 255 0 255 0.6875 0.0625
-2.185569e-08 -0.875 -0.2070031 1 0 -6.098666e-08 255 255 0 255 0.75 0.0625
-2.185569e-08 -0.75 -0.2070031 1 0 -6.098666e-08 255 255 0 255 0.75 0.125
-1.639177e-08 -0.75 -0.117411 1 0 -6.098667e-08 255 255 0 255 0.6875 0.125
-5.463923e-09 -0.125 0.06177324 1 5.491685e-17 -6.098667e-08 255 255 0 255 0.5625 0.4375
-1.092785e-08 -0.125 -0.02781886 1 5.491664e-17 -6.098667e-08 255 255 0 255 0.625 0.4375
-1.092785e-08 0 -0.02781886 1 0 -6.098667e-08 255 255 0 255 0.625 0.5
-5.463923e-09 0 0.06177324 1 6.744944e-16 -6.098667e-08 255 255 0 255 0.5625 0.5
-5.463926e-09 -0.375 0.06177318 1 5.491666e-17 -6.098667e-08 255 255 0 255 0.5625 0.3125
-1.092785e-08 -0.375 -0.02781886 1 5.491665e-17 -6.098667e-08 255 255 0 255 0.625 0.3125
-1.092785e-08 -0.25 -0.02781886 1 8.237499e-17 -6.098667e-08 255 255 0 255 0.625 0.375
-5.463924e-09 -0.25 0.06177321 1 8.237498e-17 -6.098668e-08 255 255 0 255 0.5625 0.375
-1.639177e-08 -0.375 -0.117411 1 5.491664e-17 -6.098667e-08 255 255 0 255 0.6875 0.3125
-2.185569e-08 -0.375 -0.2070031 1 0 -6.098666e-08 255 255 0 255 0.75 0.3125
-2.185569e-08 -0.25 -0.2070031 1 0 -6.098666e-08 255 255 0 255 0.75 0.375
-1.639177e-08 -0.25 -0.117411 1 0 -6.098667e-08 255 255 0 255 0.6875 0.375
-2.731962e-08 -0.125 -0.2965952 1 0 -6.098666e-08 255 255 0 255 0.8125 0.4375
-3.278354e-08 -0.125 -0.3861873 1 0 -6.098667e-08 255 255 0 255 0.875 0.4375
-3.278354e-08 0 -0.3861873 1 0 -6.098666e-08 255 255 0 255 0.875 0.5
-2.731962e-08 0 -0.2965952 1 0 -6.098666e-08 255 255 0 255 0.8125 0.5
-2.731962e-08 -0.375 -0.2965952 1 0 -6.098666e-08 255 255 0 255 0.8125 0.3125
-3.278354e-08 -0.375 -0.3861873 1 0 -6.098666e-08 255 255 0 255 0.875 0.3125
-3.278354e-08 -0.25 -0.3861873 1 0 -6.098667e-08 255 255 0 255 0.875 0.375
-2.731962e-08 -0.25 -0.2965952 1 0 -6.098666e-08 255 255 0 255 0.8125 0.375
-3.824746e-08 -0.375 -0.4757794 1 0 -6.098668e-08 255 255 0 255 0.9375 0.3125
-4.371139e-08 -0.375 -0.5653715 1 0 -6.098668e-08 255 255 0 255 1 0.3125
-4.371139e-08 -0.25 -0.5653715 1 0 -6.098668e-08 255 255 0 255 1 0.375
-3.824746e-08 -0.25 -0.4757794 1 0 -6.098668e-08 255 255 0 255 0.9375 0.375
1.639177e-08 -0.125 0.4201416 1 3.277026e-15 -6.098667e-08 255 255 0 255 0.3125 0.4375
1.092785e-08 -0.125 0.3305495 1 4.929246e-15 -6.098668e-08 255 255 0 255 0.375 0.4375
1.092785e-08 0 0.3305495 1 -2.244382e-15 -6.098668e-08 255 255 0 255 0.375 0.5
1.639177e-08 0 0.4201416 1 -8.261316e-16 -6.098668e-08 255 255 0 255 0.3125 0.5
1.639177e-08 -0.375 0.4201416 1 0 -6.098666e-08 255 255 0 255 0.3125 0.3125
1.092785e-08 -0.375 0.3305495 1 0 -6.098668e-08 255 255 0 255 0.375 0.3125
1.092785e-08 -0.25 0.3305495 1 6.52655e-15 -6.098668e-08 255 255 0 255 0.375 0.375
1.639177e-08 -0.25 0.4201416 1 6.140985e-15 -6.098667e-08 255 255 0 255 0.3125 0.375
5.463923e-09 -0.375 0.2409574 1 0 -6.098668e-08 255 255 0 255 0.4375 0.3125
-1.776357e-15 -0.375 0.1513653 1 0 -6.098668e-08 255 255 0 255 0.5 0.3125
-1.776357e-15 -0.25 0.1513653 1 6.058482e-16 -6.098668e-08 255 255 0 255 0.5 0.375
5.463923e-09 -0.25 0.2409574 1 3.249524e-15 -6.098668e-08 255 255 0 255 0.4375 0.375
1.639177e-08 0.875 0.4201416 1 0 -6.098668e-08 255 255 0 255 0.3125 0.9375
1.092785e-08 0.875 0.3305495 1 0 -6.098668e-08 255 255 0 255 0.375 0.9375
1.092785e-08 1 0.3305495 1 0 -6.098667e-08 255 255 0 255 0.375 1
1.639177e-08 1 0.4201416 1 0 -6.098668e-08 255 255 0 255 0.3125 1
1.639177e-08 0.625 0.4201416 1 0 -6.098668e-08 255 255 0 255 0.3125 0.8125
1.092785e-08 0.625 0.3305495 1 0 -6.098667e-08 255 255 0 255 0.375 0.8125
1.092785e-08 0.75 0.3305495 1 0 -6.098668e-08 255 255 0 255 0.375 0.875
1.639177e-08 0.75 0.4201416 1 0 -6.098668e-08 255 255 0 255 0.3125 0.875
5.463925e-09 0.625 0.2409574 1 0 -6.098667e-08 255 255 0 255 0.4375 0.8125
8.881784e-16 0.625 0.1513653 1 0 -6.098668e-08 255 255 0 255 0.5 0.8125
8.881784e-16 0.75 0.1513653 1 0 -6.098667e-08 255 255 0 255 0.5 0.875
5.463925e-09 0.75 0.2409574 1 0 -6.098667e-08 255 255 0 255 0.4375 0.875
-2.731962e-08 0.875 -0.2965952 1 0 -6.098666e-08 255 255 0 255 0.8125 0.9375
-3.278354e-08 0.875 -0.3861873 1 0 -6.098667e-08 255 255 0 255 0.875 0.9375
-3.278354e-08 1 -0.3861873 1 0 -6.098666e-08 255 255 0 255 0.875 1
-2.731962e-08 1 -0.2965952 1 0 -6.098666e-08 255 255 0 255 0.8125 1
-2.731962e-08 0.625 -0.2965952 1 0 -6.098666e-08 255 255 0 255 0.8125 0.8125
-3.278354e-08 0.625 -0.3861873 1 0 -6.098666e-08 255 255 0 255 0.875 0.8125
-3.278354e-08 0.75 -0.3861873 1 0 -6.098667e-08 255 255 0 255 0.875 0.875
-2.731962e-08 0.75 -0.2965952 1 0 -6.098666e-08 255 255 0 255 0.8125 0.875
-3.824746e-08 0.625 -0.4757794 1 0 -6.098668e-08 255 255 0 255 0.9375 0.8125
-4.371139e-08 0.625 -0.5653715 1 0 -6.098668e-08 255 255 0 255 1 0.8125
-4.371139e-08 0.75 -0.5653715 1 0 -6.098668e-08 255 255 0 255 1 0.875
-3.824746e-08 0.75 -0.4757794 1 0 -6.098668e-08 255 255 0 255 0.9375 0.875
-1.092785e-08 -1 -0.02781889 1 0 -6.098666e-08 255 255 0 255 0.625 0
-1.639177e-08 -1 -0.117411 1 0 -6.098667e-08 255 255 0 255 0.6875 0
-2.185569e-08 -1 -0.2070031 1 0 -6.098666e-08 255 255 0 255 0.75 0
-1.776357e-15 -1 0.1513653 1 0 -6.098668e-08 255 255 0 255 0.5 0
-5.463926e-09 -1 0.06177318 1 0 -6.098667e-08 255 255 0 255 0.5625 0
-3.278354e-08 -1 -0.3861873 1 0 -6.098667e-08 255 255 0 255 0.875 0
-3.824746e-08 -1 -0.4757794 1 0 -6.098668e-08 255 255 0 255 0.9375 0
-4.371139e-08 -1 -0.5653715 1 0 -6.098668e-08 255 255 0 255 1 0
-2.731962e-08 -1 -0.2965952 1 0 -6.098666e-08 255 255 0 255 0.8125 0
4.371139e-08 -0.375 0.8681021 1 0 -6.098668e-08 255 255 0 255 0 0.3125
4.371139e-08 -0.25 0.8681021 1 0 -6.098668e-08 255 255 0 255 0 0.375
4.371139e-08 -0.5 0.8681021 1 0 -6.098668e-08 255 255 0 255 0 0.25
4.371139e-08 -0.125 0.8681021 1 0 -6.098668e-08 255 255 0 255 0 0.4375
4.371139e-08 0 0.8681021 1 0 -6.098668e-08 255 255 0 255 0 0.5
3.278354e-08 -1 0.6889179 1 0 -6.098668e-08 255 255 0 255 0.125 0
2.731962e-08 -1 0.5993258 1 0 -6.098666e-08 255 255 0 255 0.1875 0
2.185569e-08 -1 0.5097337 1 0 -6.098666e-08 255 255 0 255 0.25 0
4.371139e-08 -0.875 0.8681021 1 0 -6.098668e-08 255 255 0 255 0 0.0625
4.371139e-08 -0.75 0.8681021 1 0 -6.098668e-08 255 255 0 255 0 0.125
4.371139e-08 -1 0.8681021 1 0 -6.098668e-08 255 255 0 255 0 0
3.824746e-08 -1 0.77851 1 0 -6.098668e-08 255 255 0 255 0.0625 0
4.371139e-08 -0.625 0.8681021 1 0 -6.098668e-08 255 255 0 255 0 0.1875
1.092785e-08 -1 0.3305495 1 0 -6.098667e-08 255 255 0 255 0.375 0
5.463923e-09 -1 0.2409574 1 0 -6.098668e-08 255 255 0 255 0.4375 0
1.639177e-08 -1 0.4201416 1 0 -6.098666e-08 255 255 0 255 0.3125 0
4.371139e-08 0.625 0.8681021 1 0 -6.098668e-08 255 255 0 255 0 0.8125
4.371139e-08 0.75 0.8681021 1 0 -6.098668e-08 255 255 0 255 0 0.875
4.371139e-08 0.5 0.8681021 1 0 -6.098668e-08 255 255 0 255 0 0.75
4.371139e-08 0.875 0.8681021 1 0 -6.098668e-08 255 255 0 255 0 0.9375
4.371139e-08 1 0.8681021 1 0 -6.098668e-08 255 255 0 255 0 1
4.371139e-08 0.125 0.8681021 1 0 -6.098668e-08 255 255 0 255 0 0.5625
4.371139e-08 0.25 0.8681021 1 0 -6.098668e-08 255 255 0 255 0 0.625
4.371139e-08 0.375 0.8681021 1 0 -6.098668e-08 255 255 0 255 0 0.6875
3 0 1 2 
3 0 2 3 
3 4 5 6 
3 4 6 7 
3 8 9 10 
3 8 10 11 
3 12 13 14 
3 12 14 15 
3 16 17 18 
3 16 18 19 
3 20 21 22 
3 20 22 23 
3 24 25 26 
3 24 26 27 
3 28 29 30 
3 28 30 31 
3 32 33 34 
3 32 34 35 
3 36 37 38 
3 36 38 39 
3 40 41 42 
3 40 42 43 
3 44 45 46 
3 44 46 47 
3 48 49 50 
3 48 50 51 
3 52 53 54 
3 52 54 55 
3 56 57 58 
3 56 58 59 
3 60 61 62 
3 60 62 63 
3 64 65 66 
3 64 66 67 
3 68 69 70 
3 68 70 71 
3 72 73 74 
3 72 74 75 
3 76 77 78 
3 76 78 79 
3 80 81 82 
3 80 82 83 
3 84 85 86 
3 84 86 87 
3 88 89 90 
3 88 90 91 
3 92 93 94 
3 92 94 95 
3 96 97 98 
3 96 98 99 
3 100 101 102 
3 100 102 103 
3 104 105 106 
3 104 106 107 
3 108 109 110 
3 108 110 111 
3 112 113 114 
3 112 114 115 
3 116 117 118 
3 116 118 119 
3 120 121 122 
3 120 122 123 
3 124 125 126 
3 124 126 127 
3 128 129 130 
3 128 130 131 
3 132 133 134 
3 132 134 135 
3 136 137 138 
3 136 138 139 
3 140 141 142 
3 140 142 143 
3 144 145 146 
3 144 146 147 
3 148 149 150 
3 148 150 151 
3 152 153 154 
3 152 154 155 
3 156 157 158 
3 156 158 159 
3 160 161 162 
3 160 162 163 
3 164 165 166 
3 164 166 167 
3 168 169 170 
3 168 170 171 
3 172 173 174 
3 172 174 175 
3 176 177 178 
3 176 178 179 
3 180 181 182 
3 180 182 183 
3 184 185 186 
3 184 186 187 
3 188 189 190 
3 188 190 191 
3 192 193 194 
3 192 194 195 
3 196 197 198 
3 196 198 199 
3 200 201 202 
3 200 202 203 
3 204 205 206 
3 204 206 207 
3 208 209 210 
3 208 210 211 
3 212 213 214 
3 212 214 215 
3 216 217 218 
3 216 218 219 
3 220 221 222 
3 220 222 223 
3 224 225 226 
3 224 226 227 
3 228 229 230 
3 228 230 231 
3 232 233 234 
3 232 234 235 
3 236 237 238 
3 236 238 239 
3 240 241 242 
3 240 242 243 
3 244 245 246 
3 244 246 247 
3 248 249 250 
3 248 250 251 
3 252 253 254 
3 252 254 255 
3 249 252 255 
3 249 255 250 
3 66 63 252 
3 66 252 249 
3 63 62 253 
3 63 253 252 
3 97 248 251 
3 97 251 98 
3 58 67 248 
3 58 248 97 
3 67 66 249 
3 67 249 248 
3 53 244 247 
3 53 247 54 
3 98 251 244 
3 98 244 53 
3 251 250 245 
3 251 245 244 
3 237 240 243 
3 237 243 238 
3 102 51 240 
3 102 240 237 
3 51 50 241 
3 51 241 240 
3 133 236 239 
3 133 239 134 
3 46 103 236 
3 46 236 133 
3 103 102 237 
3 103 237 236 
3 41 232 235 
3 41 235 42 
3 134 239 232 
3 134 232 41 
3 239 238 233 
3 239 233 232 
3 225 228 231 
3 225 231 226 
3 138 39 228 
3 138 228 225 
3 39 38 229 
3 39 229 228 
3 169 224 227 
3 169 227 170 
3 34 139 224 
3 34 224 169 
3 139 138 225 
3 139 225 224 
3 29 220 223 
3 29 223 30 
3 170 227 220 
3 170 220 29 
3 227 226 221 
3 227 221 220 
3 213 216 219 
3 213 219 214 
3 174 27 216 
3 174 216 213 
3 27 26 217 
3 27 217 216 
3 205 212 215 
3 205 215 206 
3 22 175 212 
3 22 212 205 
3 175 174 213 
3 175 213 212 
3 17 208 211 
3 17 211 18 
3 206 215 208 
3 206 208 17 
3 215 214 209 
3 215 209 208 
3 201 204 207 
3 201 207 202 
3 186 23 204 
3 186 204 201 
3 23 22 205 
3 23 205 204 
3 229 200 203 
3 229 203 230 
3 38 187 200 
3 38 200 229 
3 187 186 201 
3 187 201 200 
3 9 196 199 
3 9 199 10 
3 230 203 196 
3 230 196 9 
3 203 202 197 
3 203 197 196 
3 189 192 195 
3 189 195 190 
3 256 257 192 
3 256 192 189 
3 257 258 193 
3 257 193 192 
3 145 188 191 
3 145 191 146 
3 259 260 188 
3 259 188 145 
3 260 256 189 
3 260 189 188 
3 37 184 187 
3 37 187 38 
3 146 191 184 
3 146 184 37 
3 191 190 185 
3 191 185 184 
3 177 180 183 
3 177 183 178 
3 261 262 180 
3 261 180 177 
3 262 263 181 
3 262 181 180 
3 193 176 179 
3 193 179 194 
3 258 264 176 
3 258 176 193 
3 264 261 177 
3 264 177 176 
3 21 172 175 
3 21 175 22 
3 194 179 172 
3 194 172 21 
3 179 178 173 
3 179 173 172 
3 165 168 171 
3 165 171 166 
3 150 35 168 
3 150 168 165 
3 35 34 169 
3 35 169 168 
3 265 164 167 
3 265 167 266 
3 267 151 164 
3 267 164 265 
3 151 150 165 
3 151 165 164 
3 268 160 163 
3 268 163 269 
3 266 167 160 
3 266 160 268 
3 167 166 161 
3 167 161 160 
3 153 156 159 
3 153 159 154 
3 270 271 156 
3 270 156 153 
3 271 272 157 
3 271 157 156 
3 273 152 155 
3 273 155 274 
3 275 276 152 
3 275 152 273 
3 276 270 153 
3 276 153 152 
3 277 148 151 
3 277 151 267 
3 274 155 148 
3 274 148 277 
3 155 154 149 
3 155 149 148 
3 141 144 147 
3 141 147 142 
3 278 279 144 
3 278 144 141 
3 279 259 145 
3 279 145 144 
3 157 140 143 
3 157 143 158 
3 272 280 140 
3 272 140 157 
3 280 278 141 
3 280 141 140 
3 33 136 139 
3 33 139 34 
3 158 143 136 
3 158 136 33 
3 143 142 137 
3 143 137 136 
3 129 132 135 
3 129 135 130 
3 114 47 132 
3 114 132 129 
3 47 46 133 
3 47 133 132 
3 281 128 131 
3 281 131 282 
3 283 115 128 
3 283 128 281 
3 115 114 129 
3 115 129 128 
3 284 124 127 
3 284 127 285 
3 282 131 124 
3 282 124 284 
3 131 130 125 
3 131 125 124 
3 117 120 123 
3 117 123 118 
3 162 31 120 
3 162 120 117 
3 31 30 121 
3 31 121 120 
3 286 116 119 
3 286 119 287 
3 269 163 116 
3 269 116 286 
3 163 162 117 
3 163 117 116 
3 288 112 115 
3 288 115 283 
3 287 119 112 
3 287 112 288 
3 119 118 113 
3 119 113 112 
3 105 108 111 
3 105 111 106 
3 222 11 108 
3 222 108 105 
3 11 10 109 
3 11 109 108 
3 121 104 107 
3 121 107 122 
3 30 223 104 
3 30 104 121 
3 223 222 105 
3 223 105 104 
3 45 100 103 
3 45 103 46 
3 122 107 100 
3 122 100 45 
3 107 106 101 
3 107 101 100 
3 93 96 99 
3 93 99 94 
3 78 59 96 
3 78 96 93 
3 59 58 97 
3 59 97 96 
3 241 92 95 
3 241 95 242 
3 50 79 92 
3 50 92 241 
3 79 78 93 
3 79 93 92 
3 5 88 91 
3 5 91 6 
3 242 95 88 
3 242 88 5 
3 95 94 89 
3 95 89 88 
3 81 84 87 
3 81 87 82 
3 198 19 84 
3 198 84 81 
3 19 18 85 
3 19 85 84 
3 109 80 83 
3 109 83 110 
3 10 199 80 
3 10 80 109 
3 199 198 81 
3 199 81 80 
3 49 76 79 
3 49 79 50 
3 110 83 76 
3 110 76 49 
3 83 82 77 
3 83 77 76 
3 69 72 75 
3 69 75 70 
3 210 15 72 
3 210 72 69 
3 15 14 73 
3 15 73 72 
3 85 68 71 
3 85 71 86 
3 18 211 68 
3 18 68 85 
3 211 210 69 
3 211 69 68 
3 57 64 67 
3 57 67 58 
3 86 71 64 
3 86 64 57 
3 71 70 65 
3 71 65 64 
3 65 60 63 
3 65 63 66 
3 70 75 60 
3 70 60 65 
3 75 74 61 
3 75 61 60 
3 77 56 59 
3 77 59 78 
3 82 87 56 
3 82 56 77 
3 87 86 57 
3 87 57 56 
3 89 52 55 
3 89 55 90 
3 94 99 52 
3 94 52 89 
3 99 98 53 
3 99 53 52 
3 101 48 51 
3 101 51 102 
3 106 111 48 
3 106 48 101 
3 111 110 49 
3 111 49 48 
3 113 44 47 
3 113 47 114 
3 118 123 44 
3 118 44 113 
3 123 122 45 
3 123 45 44 
3 125 40 43 
3 125 43 126 
3 130 135 40 
3 130 40 125 
3 135 134 41 
3 135 41 40 
3 137 36 39 
3 137 39 138 
3 142 147 36 
3 142 36 137 
3 147 146 37 
3 147 37 36 
3 149 32 35 
3 149 35 150 
3 154 159 32 
3 154 32 149 
3 159 158 33 
3 159 33 32 
3 161 28 31 
3 161 31 162 
3 166 171 28 
3 166 28 161 
3 171 170 29 
3 171 29 28 
3 173 24 27 
3 173 27 174 
3 178 183 24 
3 178 24 173 
3 183 182 25 
3 183 25 24 
3 185 20 23 
3 185 23 186 
3 190 195 20 
3 190 20 185 
3 195 194 21 
3 195 21 20 
3 197 16 19 
3 197 19 198 
3 202 207 16 
3 202 16 197 
3 207 206 17 
3 207 17 16 
3 209 12 15 
3 209 15 210 
3 214 219 12 
3 214 12 209 
3 219 218 13 
3 219 13 12 
3 221 8 11 
3 221 11 222 
3 226 231 8 
3 226 8 221 
3 231 230 9 
3 231 9 8 
3 233 4 7 
3 233 7 234 
3 238 243 4 
3 238 4 233 
3 243 242 5 
3 243 5 4 
3 245 0 3 
3 245 3 246 
3 250 255 0 
3 250 0 245 
3 255 254 1 
3 255 1 0 
