ply
format ascii 1.0
comment VCGLIB generated
element vertex 441
property float x
property float y
property float z
property float nx
property float ny
property float nz
property uchar red
property uchar green
property uchar blue
property uchar alpha
property float texture_u
property float texture_v
element face 768
property list uchar int vertex_indices
end_header
-1 0.75 1 -0.7071068 0 0.7071068 255 255 0 255 0.625 0.21875
-1 1 0.75 -0.7071068 0.7071068 0 255 255 0 255 0.59375 0.25
-1 0.75 0.75 -1 0 0 255 255 0 255 0.59375 0.21875
0.75 1 1 0 0.7071068 0.7071068 255 255 0 255 0.625 0.46875
1 1 0.75 0.7071068 0.7071068 0 255 255 0 255 0.59375 0.5
0.75 1 0.75 0 1 0 255 255 0 255 0.59375 0.46875
1 -0.75 1 0.7071068 0 0.7071068 255 255 0 255 0.625 0.71875
1 -1 0.75 0.7071068 -0.7071068 0 255 255 0 255 0.59375 0.75
1 -0.75 0.75 1 0 0 255 255 0 255 0.59375 0.71875
-0.75 -1 1 0 -0.7071068 0.7071068 255 255 0 255 0.625 0.96875
-1 -1 0.75 -0.7071068 -0.7071068 0 255 255 0 255 0.59375 1
-0.75 -1 0.75 0 -1 0 255 255 0 255 0.59375 0.96875
1 -0.75 -1 0.7071068 0 -0.7071068 255 255 0 255 0.375 0.71875
0.75 -1 -1 0 -0.7071068 -0.7071068 255 255 0 255 0.34375 0.75
0.75 -0.75 -1 0 0 -1 255 255 0 255 0.34375 0.71875
-1 -0.75 1 -0.7071068 0 0.7071068 255 255 0 255 0.875 0.71875
-0.75 -1 1 0 -0.7071068 0.7071068 255 255 0 255 0.84375 0.75
-0.75 -0.75 1 0 0 1 255 255 0 255 0.84375 0.71875
0 -0.75 1 0 0 1 255 255 0 255 0.75 0.71875
0.25 -1 1 0 -0.7071068 0.7071068 255 255 0 255 0.71875 0.75
0.25 -0.75 1 0 0 1 255 255 0 255 0.71875 0.71875
0 -0.75 -1 0 0 -1 255 255 0 255 0.25 0.71875
-0.25 -1 -1 0 -0.7071068 -0.7071068 255 255 0 255 0.21875 0.75
-0.25 -0.75 -1 0 0 -1 255 255 0 255 0.21875 0.71875
0.25 -1 1 0 -0.7071068 0.7071068 255 255 0 255 0.625 0.84375
0 -1 0.75 0 -1 0 255 255 0 255 0.59375 0.875
0.25 -1 0.75 0 -1 0 255 255 0 255 0.59375 0.84375
-0.25 1 1 0 0.7071068 0.7071068 255 255 0 255 0.625 0.34375
0 1 0.75 0 1 0 255 255 0 255 0.59375 0.375
-0.25 1 0.75 0 1 0 255 255 0 255 0.59375 0.34375
0.75 -1 1 0 -0.7071068 0.7071068 255 255 0 255 0.625 0.78125
0.5 -1 0.75 0 -1 0 255 255 0 255 0.59375 0.8125
0.75 -1 0.75 0 -1 0 255 255 0 255 0.59375 0.78125
0.5 -0.75 1 0 0 1 255 255 0 255 0.6875 0.71875
0.75 -1 1 0 -0.7071068 0.7071068 255 255 0 255 0.65625 0.75
0.75 -0.75 1 0 0 1 255 255 0 255 0.65625 0.71875
0.5 -0.75 -1 0 0 -1 255 255 0 255 0.3125 0.71875
0.25 -1 -1 0 -0.7071068 -0.7071068 255 255 0 255 0.28125 0.75
0.25 -0.75 -1 0 0 -1 255 255 0 255 0.28125 0.71875
0.25 1 1 0 0.7071068 0.7071068 255 255 0 255 0.625 0.40625
0.5 1 0.75 0 1 0 255 255 0 255 0.59375 0.4375
0.25 1 0.75 0 1 0 255 255 0 255 0.59375 0.40625
-0.75 1 1 0 0.7071068 0.7071068 255 255 0 255 0.625 0.28125
-0.5 1 0.75 0 1 0 255 255 0 255 0.59375 0.3125
-0.75 1 0.75 0 1 0 255 255 0 255 0.59375 0.28125
-0.5 -0.75 -1 0 0 -1 255 255 0 255 0.1875 0.71875
-0.75 -1 -1 0 -0.7071068 -0.7071068 255 255 0 255 0.15625 0.75
-0.75 -0.75 -1 0 0 -1 255 255 0 255 0.15625 0.71875
-0.5 -0.75 1 0 0 1 255 255 0 255 0.8125 0.71875
-0.25 -1 1 0 -0.7071068 0.7071068 255 255 0 255 0.78125 0.75
-0.25 -0.75 1 0 0 1 255 255 0 255 0.78125 0.71875
-0.25 -1 1 0 -0.7071068 0.7071068 255 255 0 255 0.625 0.90625
-0.5 -1 0.75 0 -1 0 255 255 0 255 0.59375 0.9375
-0.25 -1 0.75 0 -1 0 255 255 0 255 0.59375 0.90625
-0.5 0.25 1 0 0 1 255 255 0 255 0.8125 0.59375
-0.25 0 1 0 0 1 255 255 0 255 0.78125 0.625
-0.25 0.25 1 0 0 1 255 255 0 255 0.78125 0.59375
-0.5 0.25 -1 0 0 -1 255 255 0 255 0.1875 0.59375
-0.75 0 -1 0 0 -1 255 255 0 255 0.15625 0.625
-0.75 0.25 -1 0 0 -1 255 255 0 255 0.15625 0.59375
0.5 0.25 -1 0 0 -1 255 255 0 255 0.3125 0.59375
0.25 0 -1 0 0 -1 255 255 0 255 0.28125 0.625
0.25 0.25 -1 0 0 -1 255 255 0 255 0.28125 0.59375
0.5 0.25 1 0 0 1 255 255 0 255 0.6875 0.59375
0.75 0 1 0 0 1 255 255 0 255 0.65625 0.625
0.75 0.25 1 0 0 1 255 255 0 255 0.65625 0.59375
0 0.25 -1 0 0 -1 255 255 0 255 0.25 0.59375
-0.25 0 -1 0 0 -1 255 255 0 255 0.21875 0.625
-0.25 0.25 -1 0 0 -1 255 255 0 255 0.21875 0.59375
0 0.25 1 0 0 1 255 255 0 255 0.75 0.59375
0.25 0 1 0 0 1 255 255 0 255 0.71875 0.625
0.25 0.25 1 0 0 1 255 255 0 255 0.71875 0.59375
-1 0.25 1 -0.7071068 0 0.7071068 255 255 0 255 0.875 0.59375
-0.75 0 1 0 0 1 255 255 0 255 0.84375 0.625
-0.75 0.25 1 0 0 1 255 255 0 255 0.84375 0.59375
1 0.25 -1 0.7071068 0 -0.7071068 255 255 0 255 0.375 0.59375
0.75 0 -1 0 0 -1 255 255 0 255 0.34375 0.625
0.75 0.25 -1 0 0 -1 255 255 0 255 0.34375 0.59375
1 0.25 1 0.7071068 0 0.7071068 255 255 0 255 0.625 0.59375
1 0 0.75 1 0 0 255 255 0 255 0.59375 0.625
1 0.25 0.75 1 0 0 255 255 0 255 0.59375 0.59375
-1 -0.25 1 -0.7071068 0 0.7071068 255 255 0 255 0.625 0.09375
-1 0 0.75 -1 0 0 255 255 0 255 0.59375 0.125
-1 -0.25 0.75 -1 0 0 255 255 0 255 0.59375 0.09375
1 0.75 1 0.7071068 0 0.7071068 255 255 0 255 0.625 0.53125
1 0.5 0.75 1 0 0 255 255 0 255 0.59375 0.5625
1 0.75 0.75 1 0 0 255 255 0 255 0.59375 0.53125
1 0.75 -1 0.7071068 0 -0.7071068 255 255 0 255 0.375 0.53125
0.75 0.5 -1 0 0 -1 255 255 0 255 0.34375 0.5625
0.75 0.75 -1 0 0 -1 255 255 0 255 0.34375 0.53125
-1 0.75 1 -0.7071068 0 0.7071068 255 255 0 255 0.875 0.53125
-0.75 0.5 1 0 0 1 255 255 0 255 0.84375 0.5625
-0.75 0.75 1 0 0 1 255 255 0 255 0.84375 0.53125
0 0.75 1 0 0 1 255 255 0 255 0.75 0.53125
0.25 0.5 1 0 0 1 255 255 0 255 0.71875 0.5625
0.25 0.75 1 0 0 1 255 255 0 255 0.71875 0.53125
0 0.75 -1 0 0 -1 255 255 0 255 0.25 0.53125
-0.25 0.5 -1 0 0 -1 255 255 0 255 0.21875 0.5625
-0.25 0.75 -1 0 0 -1 255 255 0 255 0.21875 0.53125
0.5 0.75 1 0 0 1 255 255 0 255 0.6875 0.53125
0.75 0.5 1 0 0 1 255 255 0 255 0.65625 0.5625
0.75 0.75 1 0 0 1 255 255 0 255 0.65625 0.53125
0.5 0.75 -1 0 0 -1 255 255 0 255 0.3125 0.53125
0.25 0.5 -1 0 0 -1 255 255 0 255 0.28125 0.5625
0.25 0.75 -1 0 0 -1 255 255 0 255 0.28125 0.53125
-0.5 0.75 -1 0 0 -1 255 255 0 255 0.1875 0.53125
-0.75 0.5 -1 0 0 -1 255 255 0 255 0.15625 0.5625
-0.75 0.75 -1 0 0 -1 255 255 0 255 0.15625 0.53125
-0.5 0.75 1 0 0 1 255 255 0 255 0.8125 0.53125
-0.25 0.5 1 0 0 1 255 255 0 255 0.78125 0.5625
-0.25 0.75 1 0 0 1 255 255 0 255 0.78125 0.53125
-1 0.25 1 -0.7071068 0 0.7071068 255 255 0 255 0.625 0.15625
-1 0.5 0.75 -1 0 0 255 255 0 255 0.59375 0.1875
-1 0.25 0.75 -1 0 0 255 255 0 255 0.59375 0.15625
-1 -0.75 1 -0.7071068 0 0.7071068 255 255 0 255 0.625 0.03125
-1 -0.5 0.75 -1 0 0 255 255 0 255 0.59375 0.0625
-1 -0.75 0.75 -1 0 0 255 255 0 255 0.59375 0.03125
-0.5 -0.25 1 0 0 1 255 255 0 255 0.8125 0.65625
-0.25 -0.5 1 0 0 1 255 255 0 255 0.78125 0.6875
-0.25 -0.25 1 0 0 1 255 255 0 255 0.78125 0.65625
-0.5 -0.25 -1 0 0 -1 255 255 0 255 0.1875 0.65625
-0.75 -0.5 -1 0 0 -1 255 255 0 255 0.15625 0.6875
-0.75 -0.25 -1 0 0 -1 255 255 0 255 0.15625 0.65625
0.5 -0.25 -1 0 0 -1 255 255 0 255 0.3125 0.65625
0.25 -0.5 -1 0 0 -1 255 255 0 255 0.28125 0.6875
0.25 -0.25 -1 0 0 -1 255 255 0 255 0.28125 0.65625
0.5 -0.25 1 0 0 1 255 255 0 255 0.6875 0.65625
0.75 -0.5 1 0 0 1 255 255 0 255 0.65625 0.6875
0.75 -0.25 1 0 0 1 255 255 0 255 0.65625 0.65625
0 -0.25 -1 0 0 -1 255 255 0 255 0.25 0.65625
-0.25 -0.5 -1 0 0 -1 255 255 0 255 0.21875 0.6875
-0.25 -0.25 -1 0 0 -1 255 255 0 255 0.21875 0.65625
0 -0.25 1 0 0 1 255 255 0 255 0.75 0.65625
0.25 -0.5 1 0 0 1 255 255 0 255 0.71875 0.6875
0.25 -0.25 1 0 0 1 255 255 0 255 0.71875 0.65625
-1 -0.25 1 -0.7071068 0 0.7071068 255 255 0 255 0.875 0.65625
-0.75 -0.5 1 0 0 1 255 255 0 255 0.84375 0.6875
-0.75 -0.25 1 0 0 1 255 255 0 255 0.84375 0.65625
1 -0.25 -1 0.7071068 0 -0.7071068 255 255 0 255 0.375 0.65625
0.75 -0.5 -1 0 0 -1 255 255 0 255 0.34375 0.6875
0.75 -0.25 -1 0 0 -1 255 255 0 255 0.34375 0.65625
1 -0.25 1 0.7071068 0 0.7071068 255 255 0 255 0.625 0.65625
1 -0.5 0.75 1 0 0 255 255 0 255 0.59375 0.6875
1 -0.25 0.75 1 0 0 255 255 0 255 0.59375 0.65625
1 -0.25 0 1 0 0 255 255 0 255 0.5 0.65625
1 -0.5 -0.25 1 0 0 255 255 0 255 0.46875 0.6875
1 -0.25 -0.25 1 0 0 255 255 0 255 0.46875 0.65625
-1 -0.75 0 -1 0 0 255 255 0 255 0.5 0.03125
-1 -0.5 -0.25 -1 0 0 255 255 0 255 0.46875 0.0625
-1 -0.75 -0.25 -1 0 0 255 255 0 255 0.46875 0.03125
-1 0.25 0 -1 0 0 255 255 0 255 0.5 0.15625
-1 0.5 -0.25 -1 0 0 255 255 0 255 0.46875 0.1875
-1 0.25 -0.25 -1 0 0 255 255 0 255 0.46875 0.15625
1 0.75 0 1 0 0 255 255 0 255 0.5 0.53125
1 0.5 -0.25 1 0 0 255 255 0 255 0.46875 0.5625
1 0.75 -0.25 1 0 0 255 255 0 255 0.46875 0.53125
-1 -0.25 0 -1 0 0 255 255 0 255 0.5 0.09375
-1 0 -0.25 -1 0 0 255 255 0 255 0.46875 0.125
-1 -0.25 -0.25 -1 0 0 255 255 0 255 0.46875 0.09375
1 0.25 0 1 0 0 255 255 0 255 0.5 0.59375
1 0 -0.25 1 0 0 255 255 0 255 0.46875 0.625
1 0.25 -0.25 1 0 0 255 255 0 255 0.46875 0.59375
-0.25 -1 0 0 -1 0 255 255 0 255 0.5 0.90625
-0.5 -1 -0.25 0 -1 0 255 255 0 255 0.46875 0.9375
-0.25 -1 -0.25 0 -1 0 255 255 0 255 0.46875 0.90625
-0.75 1 0 0 1 0 255 255 0 255 0.5 0.28125
-0.5 1 -0.25 0 1 0 255 255 0 255 0.46875 0.3125
-0.75 1 -0.25 0 1 0 255 255 0 255 0.46875 0.28125
0.25 1 0 0 1 0 255 255 0 255 0.5 0.40625
0.5 1 -0.25 0 1 0 255 255 0 255 0.46875 0.4375
0.25 1 -0.25 0 1 0 255 255 0 255 0.46875 0.40625
0.75 -1 0 0 -1 0 255 255 0 255 0.5 0.78125
0.5 -1 -0.25 0 -1 0 255 255 0 255 0.46875 0.8125
0.75 -1 -0.25 0 -1 0 255 255 0 255 0.46875 0.78125
-0.25 1 0 0 1 0 255 255 0 255 0.5 0.34375
0 1 -0.25 0 1 0 255 255 0 255 0.46875 0.375
-0.25 1 -0.25 0 1 0 255 255 0 255 0.46875 0.34375
0.25 -1 0 0 -1 0 255 255 0 255 0.5 0.84375
0 -1 -0.25 0 -1 0 255 255 0 255 0.46875 0.875
0.25 -1 -0.25 0 -1 0 255 255 0 255 0.46875 0.84375
-0.75 -1 0 0 -1 0 255 255 0 255 0.5 0.96875
-1 -1 -0.25 -0.7071068 -0.7071068 0 255 255 0 255 0.46875 1
-0.75 -1 -0.25 0 -1 0 255 255 0 255 0.46875 0.96875
1 -0.75 0 1 0 0 255 255 0 255 0.5 0.71875
1 -1 -0.25 0.7071068 -0.7071068 0 255 255 0 255 0.46875 0.75
1 -0.75 -0.25 1 0 0 255 255 0 255 0.46875 0.71875
0.75 1 0 0 1 0 255 255 0 255 0.5 0.46875
1 1 -0.25 0.7071068 0.7071068 0 255 255 0 255 0.46875 0.5
0.75 1 -0.25 0 1 0 255 255 0 255 0.46875 0.46875
-1 0.75 0 -1 0 0 255 255 0 255 0.5 0.21875
-1 1 -0.25 -0.7071068 0.7071068 0 255 255 0 255 0.46875 0.25
-1 0.75 -0.25 -1 0 0 255 255 0 255 0.46875 0.21875
1 -0.25 0.5 1 0 0 255 255 0 255 0.5625 0.65625
1 -0.5 0.25 1 0 0 255 255 0 255 0.53125 0.6875
1 -0.25 0.25 1 0 0 255 255 0 255 0.53125 0.65625
-1 -0.75 0.5 -1 0 0 255 255 0 255 0.5625 0.03125
-1 -0.5 0.25 -1 0 0 255 255 0 255 0.53125 0.0625
-1 -0.75 0.25 -1 0 0 255 255 0 255 0.53125 0.03125
-1 0.25 0.5 -1 0 0 255 255 0 255 0.5625 0.15625
-1 0.5 0.25 -1 0 0 255 255 0 255 0.53125 0.1875
-1 0.25 0.25 -1 0 0 255 255 0 255 0.53125 0.15625
1 0.75 0.5 1 0 0 255 255 0 255 0.5625 0.53125
1 0.5 0.25 1 0 0 255 255 0 255 0.53125 0.5625
1 0.75 0.25 1 0 0 255 255 0 255 0.53125 0.53125
-1 -0.25 0.5 -1 0 0 255 255 0 255 0.5625 0.09375
-1 0 0.25 -1 0 0 255 255 0 255 0.53125 0.125
-1 -0.25 0.25 -1 0 0 255 255 0 255 0.53125 0.09375
1 0.25 0.5 1 0 0 255 255 0 255 0.5625 0.59375
1 0 0.25 1 0 0 255 255 0 255 0.53125 0.625
1 0.25 0.25 1 0 0 255 255 0 255 0.53125 0.59375
-0.25 -1 0.5 0 -1 0 255 255 0 255 0.5625 0.90625
-0.5 -1 0.25 0 -1 0 255 255 0 255 0.53125 0.9375
-0.25 -1 0.25 0 -1 0 255 255 0 255 0.53125 0.90625
-0.75 1 0.5 0 1 0 255 255 0 255 0.5625 0.28125
-0.5 1 0.25 0 1 0 255 255 0 255 0.53125 0.3125
-0.75 1 0.25 0 1 0 255 255 0 255 0.53125 0.28125
0.25 1 0.5 0 1 0 255 255 0 255 0.5625 0.40625
0.5 1 0.25 0 1 0 255 255 0 255 0.53125 0.4375
0.25 1 0.25 0 1 0 255 255 0 255 0.53125 0.40625
0.75 -1 0.5 0 -1 0 255 255 0 255 0.5625 0.78125
0.5 -1 0.25 0 -1 0 255 255 0 255 0.53125 0.8125
0.75 -1 0.25 0 -1 0 255 255 0 255 0.53125 0.78125
-0.25 1 0.5 0 1 0 255 255 0 255 0.5625 0.34375
0 1 0.25 0 1 0 255 255 0 255 0.53125 0.375
-0.25 1 0.25 0 1 0 255 255 0 255 0.53125 0.34375
0.25 -1 0.5 0 -1 0 255 255 0 255 0.5625 0.84375
0 -1 0.25 0 -1 0 255 255 0 255 0.53125 0.875
0.25 -1 0.25 0 -1 0 255 255 0 255 0.53125 0.84375
-0.75 -1 0.5 0 -1 0 255 255 0 255 0.5625 0.96875
-1 -1 0.25 -0.7071068 -0.7071068 0 255 255 0 255 0.53125 1
-0.75 -1 0.25 0 -1 0 255 255 0 255 0.53125 0.96875
1 -0.75 0.5 1 0 0 255 255 0 255 0.5625 0.71875
1 -1 0.25 0.7071068 -0.7071068 0 255 255 0 255 0.53125 0.75
1 -0.75 0.25 1 0 0 255 255 0 255 0.53125 0.71875
0.75 1 0.5 0 1 0 255 255 0 255 0.5625 0.46875
1 1 0.25 0.7071068 0.7071068 0 255 255 0 255 0.53125 0.5
0.75 1 0.25 0 1 0 255 255 0 255 0.53125 0.46875
-1 0.75 0.5 -1 0 0 255 255 0 255 0.5625 0.21875
-1 1 0.25 -0.7071068 0.7071068 0 255 255 0 255 0.53125 0.25
-1 0.75 0.25 -1 0 0 255 255 0 255 0.53125 0.21875
-1 0.75 -0.5 -1 0 0 255 255 0 255 0.4375 0.21875
-1 1 -0.75 -0.7071068 0.7071068 0 255 255 0 255 0.40625 0.25
-1 0.75 -0.75 -1 0 0 255 255 0 255 0.40625 0.21875
0.75 1 -0.5 0 1 0 255 255 0 255 0.4375 0.46875
1 1 -0.75 0.7071068 0.7071068 0 255 255 0 255 0.40625 0.5
0.75 1 -0.75 0 1 0 255 255 0 255 0.40625 0.46875
1 -0.75 -0.5 1 0 0 255 255 0 255 0.4375 0.71875
1 -1 -0.75 0.7071068 -0.7071068 0 255 255 0 255 0.40625 0.75
1 -0.75 -0.75 1 0 0 255 255 0 255 0.40625 0.71875
-0.75 -1 -0.5 0 -1 0 255 255 0 255 0.4375 0.96875
-1 -1 -0.75 -0.7071068 -0.7071068 0 255 255 0 255 0.40625 1
-0.75 -1 -0.75 0 -1 0 255 255 0 255 0.40625 0.96875
0.25 -1 -0.5 0 -1 0 255 255 0 255 0.4375 0.84375
0 -1 -0.75 0 -1 0 255 255 0 255 0.40625 0.875
0.25 -1 -0.75 0 -1 0 255 255 0 255 0.40625 0.84375
-0.25 1 -0.5 0 1 0 255 255 0 255 0.4375 0.34375
0 1 -0.75 0 1 0 255 255 0 255 0.40625 0.375
-0.25 1 -0.75 0 1 0 255 255 0 255 0.40625 0.34375
0.75 -1 -0.5 0 -1 0 255 255 0 255 0.4375 0.78125
0.5 -1 -0.75 0 -1 0 255 255 0 255 0.40625 0.8125
0.75 -1 -0.75 0 -1 0 255 255 0 255 0.40625 0.78125
0.25 1 -0.5 0 1 0 255 255 0 255 0.4375 0.40625
0.5 1 -0.75 0 1 0 255 255 0 255 0.40625 0.4375
0.25 1 -0.75 0 1 0 255 255 0 255 0.40625 0.40625
-0.75 1 -0.5 0 1 0 255 255 0 255 0.4375 0.28125
-0.5 1 -0.75 0 1 0 255 255 0 255 0.40625 0.3125
-0.75 1 -0.75 0 1 0 255 255 0 255 0.40625 0.28125
-0.25 -1 -0.5 0 -1 0 255 255 0 255 0.4375 0.90625
-0.5 -1 -0.75 0 -1 0 255 255 0 255 0.40625 0.9375
-0.25 -1 -0.75 0 -1 0 255 255 0 255 0.40625 0.90625
1 0.25 -0.5 1 0 0 255 255 0 255 0.4375 0.59375
1 0 -0.75 1 0 0 255 255 0 255 0.40625 0.625
1 0.25 -0.75 1 0 0 255 255 0 255 0.40625 0.59375
-1 -0.25 -0.5 -1 0 0 255 255 0 255 0.4375 0.09375
-1 0 -0.75 -1 0 0 255 255 0 255 0.40625 0.125
-1 -0.25 -0.75 -1 0 0 255 255 0 255 0.40625 0.09375
1 0.75 -0.5 1 0 0 255 255 0 255 0.4375 0.53125
1 0.5 -0.75 1 0 0 255 255 0 255 0.40625 0.5625
1 0.75 -0.75 1 0 0 255 255 0 255 0.40625 0.53125
-1 0.25 -0.5 -1 0 0 255 255 0 255 0.4375 0.15625
-1 0.5 -0.75 -1 0 0 255 255 0 255 0.40625 0.1875
-1 0.25 -0.75 -1 0 0 255 255 0 255 0.40625 0.15625
-1 -0.75 -0.5 -1 0 0 255 255 0 255 0.4375 0.03125
-1 -0.5 -0.75 -1 0 0 255 255 0 255 0.40625 0.0625
-1 -0.75 -0.75 -1 0 0 255 255 0 255 0.40625 0.03125
1 -0.25 -0.5 1 0 0 255 255 0 255 0.4375 0.65625
1 -0.5 -0.75 1 0 0 255 255 0 255 0.40625 0.6875
1 -0.25 -0.75 1 0 0 255 255 0 255 0.40625 0.65625
1 1 -0.5 0.7071068 0.7071068 0 255 255 0 255 0.4375 0.5
-1 0.5 -0.5 -1 0 0 255 255 0 255 0.4375 0.1875
-1 0.5 0.5 -1 0 0 255 255 0 255 0.5625 0.1875
1 1 0.5 0.7071068 0.7071068 0 255 255 0 255 0.5625 0.5
-1 0.5 0 -1 0 0 255 255 0 255 0.5 0.1875
1 1 0 0.7071068 0.7071068 0 255 255 0 255 0.5 0.5
-0.5 1 1 0 0.7071068 0.7071068 255 255 0 255 0.8125 0.5
-0.25 1 1 0 0.7071068 0.7071068 255 255 0 255 0.78125 0.5
-0.5 1 -1 0 0.7071068 -0.7071068 255 255 0 255 0.1875 0.5
-0.75 1 -1 0 0.7071068 -0.7071068 255 255 0 255 0.15625 0.5
0.5 1 -1 0 0.7071068 -0.7071068 255 255 0 255 0.3125 0.5
0.25 1 -1 0 0.7071068 -0.7071068 255 255 0 255 0.28125 0.5
0.5 1 1 0 0.7071068 0.7071068 255 255 0 255 0.6875 0.5
0.75 1 1 0 0.7071068 0.7071068 255 255 0 255 0.65625 0.5
0 1 -1 0 0.7071068 -0.7071068 255 255 0 255 0.25 0.5
-0.25 1 -1 0 0.7071068 -0.7071068 255 255 0 255 0.21875 0.5
0 1 1 0 0.7071068 0.7071068 255 255 0 255 0.75 0.5
0.25 1 1 0 0.7071068 0.7071068 255 255 0 255 0.71875 0.5
-1 1 1 -0.5773284 0.5773612 0.5773612 255 255 0 255 0.875 0.5
-0.75 1 1 0 0.7071068 0.7071068 255 255 0 255 0.84375 0.5
1 1 -1 0.5773284 0.5773612 -0.5773612 255 255 0 255 0.375 0.5
0.75 1 -1 0 0.7071068 -0.7071068 255 255 0 255 0.34375 0.5
1 1 1 0.5773721 0.5773394 0.5773394 255 255 0 255 0.625 0.5
-1 0.5 1 -0.7071068 0 0.7071068 255 255 0 255 0.625 0.1875
-1 0 -0.5 -1 0 0 255 255 0 255 0.4375 0.125
1 0.5 -0.5 1 0 0 255 255 0 255 0.4375 0.5625
1 0.5 0.5 1 0 0 255 255 0 255 0.5625 0.5625
-1 0 0.5 -1 0 0 255 255 0 255 0.5625 0.125
1 0.5 0 1 0 0 255 255 0 255 0.5 0.5625
-1 0 0 -1 0 0 255 255 0 255 0.5 0.125
-1 0 1 -0.7071068 0 0.7071068 255 255 0 255 0.625 0.125
1 0.5 1 0.7071068 0 0.7071068 255 255 0 255 0.625 0.5625
1 0.5 -1 0.7071068 0 -0.7071068 255 255 0 255 0.375 0.5625
-1 0.5 1 -0.7071068 0 0.7071068 255 255 0 255 0.875 0.5625
0 0.5 1 0 0 1 255 255 0 255 0.75 0.5625
0 0.5 -1 0 0 -1 255 255 0 255 0.25 0.5625
0.5 0.5 1 0 0 1 255 255 0 255 0.6875 0.5625
0.5 0.5 -1 0 0 -1 255 255 0 255 0.3125 0.5625
-0.5 0.5 -1 0 0 -1 255 255 0 255 0.1875 0.5625
-0.5 0.5 1 0 0 1 255 255 0 255 0.8125 0.5625
1 0 -0.5 1 0 0 255 255 0 255 0.4375 0.625
-1 -0.5 -0.5 -1 0 0 255 255 0 255 0.4375 0.0625
-1 -0.5 0.5 -1 0 0 255 255 0 255 0.5625 0.0625
1 0 0.5 1 0 0 255 255 0 255 0.5625 0.625
-1 -0.5 0 -1 0 0 255 255 0 255 0.5 0.0625
1 0 0 1 0 0 255 255 0 255 0.5 0.625
1 0 1 0.7071068 0 0.7071068 255 255 0 255 0.625 0.625
1 0 -1 0.7071068 0 -0.7071068 255 255 0 255 0.375 0.625
-1 0 1 -0.7071068 0 0.7071068 255 255 0 255 0.875 0.625
0 0 1 0 0 1 255 255 0 255 0.75 0.625
0 0 -1 0 0 -1 255 255 0 255 0.25 0.625
0.5 0 1 0 0 1 255 255 0 255 0.6875 0.625
0.5 0 -1 0 0 -1 255 255 0 255 0.3125 0.625
-0.5 0 -1 0 0 -1 255 255 0 255 0.1875 0.625
-0.5 0 1 0 0 1 255 255 0 255 0.8125 0.625
-1 -0.5 1 -0.7071068 0 0.7071068 255 255 0 255 0.625 0.0625
-1 -1 -0.5 -0.7071068 -0.7071068 0 255 255 0 255 0.4375 0
-1 -1 -0.75 -0.7071068 -0.7071068 0 255 255 0 255 0.40625 0
1 -0.5 -0.5 1 0 0 255 255 0 255 0.4375 0.6875
1 -0.5 0.5 1 0 0 255 255 0 255 0.5625 0.6875
-1 -1 0.5 -0.7071068 -0.7071068 0 255 255 0 255 0.5625 0
-1 -1 0.25 -0.7071068 -0.7071068 0 255 255 0 255 0.53125 0
1 -0.5 0 1 0 0 255 255 0 255 0.5 0.6875
-1 -1 0 -0.7071068 -0.7071068 0 255 255 0 255 0.5 0
-1 -1 -0.25 -0.7071068 -0.7071068 0 255 255 0 255 0.46875 0
-1 -1 1 -0.5773721 -0.5773394 0.5773394 255 255 0 255 0.625 0
-1 -1 0.75 -0.7071068 -0.7071068 0 255 255 0 255 0.59375 0
-0.5 -0.5 1 0 0 1 255 255 0 255 0.8125 0.6875
-0.5 -0.5 -1 0 0 -1 255 255 0 255 0.1875 0.6875
0.5 -0.5 -1 0 0 -1 255 255 0 255 0.3125 0.6875
0.5 -0.5 1 0 0 1 255 255 0 255 0.6875 0.6875
0 -0.5 -1 0 0 -1 255 255 0 255 0.25 0.6875
0 -0.5 1 0 0 1 255 255 0 255 0.75 0.6875
-1 -0.5 1 -0.7071068 0 0.7071068 255 255 0 255 0.875 0.6875
1 -0.5 -1 0.7071068 0 -0.7071068 255 255 0 255 0.375 0.6875
1 -0.5 1 0.7071068 0 0.7071068 255 255 0 255 0.625 0.6875
-1 -0.75 -1 -0.7071068 0 -0.7071068 255 255 0 255 0.125 0.71875
-1 -0.5 -1 -0.7071068 0 -0.7071068 255 255 0 255 0.125 0.6875
-1 -0.25 -1 -0.7071068 0 -0.7071068 255 255 0 255 0.125 0.65625
-1 0 -1 -0.7071068 0 -0.7071068 255 255 0 255 0.125 0.625
-1 0.25 -1 -0.7071068 0 -0.7071068 255 255 0 255 0.125 0.59375
-1 0.5 -1 -0.7071068 0 -0.7071068 255 255 0 255 0.125 0.5625
-1 0.75 -1 -0.7071068 0 -0.7071068 255 255 0 255 0.125 0.53125
-1 1 -1 -0.5773721 0.5773394 -0.5773394 255 255 0 255 0.125 0.5
-1 1 -0.5 -0.7071068 0.7071068 0 255 255 0 255 0.4375 0.25
-0.5 -1 -0.5 0 -1 0 255 255 0 255 0.4375 0.9375
-0.5 -1 0.5 0 -1 0 255 255 0 255 0.5625 0.9375
-1 1 0.5 -0.7071068 0.7071068 0 255 255 0 255 0.5625 0.25
-0.5 -1 0 0 -1 0 255 255 0 255 0.5 0.9375
-1 1 0 -0.7071068 0.7071068 0 255 255 0 255 0.5 0.25
-1 -1 -1 -0.5773284 -0.5773612 -0.5773612 255 255 0 255 0.125 0.75
-1 1 1 -0.5773284 0.5773612 0.5773612 255 255 0 255 0.625 0.25
-0.5 -1 1 0 -0.7071068 0.7071068 255 255 0 255 0.8125 0.75
-0.5 -1 1 0 -0.7071068 0.7071068 255 255 0 255 0.625 0.9375
0 -1 -0.5 0 -1 0 255 255 0 255 0.4375 0.875
-0.5 1 -0.5 0 1 0 255 255 0 255 0.4375 0.3125
-0.5 1 0.5 0 1 0 255 255 0 255 0.5625 0.3125
0 -1 0.5 0 -1 0 255 255 0 255 0.5625 0.875
-0.5 1 0 0 1 0 255 255 0 255 0.5 0.3125
0 -1 0 0 -1 0 255 255 0 255 0.5 0.875
0 -1 1 0 -0.7071068 0.7071068 255 255 0 255 0.625 0.875
0 -1 1 0 -0.7071068 0.7071068 255 255 0 255 0.75 0.75
-0.5 1 1 0 0.7071068 0.7071068 255 255 0 255 0.625 0.3125
-0.5 -1 -1 0 -0.7071068 -0.7071068 255 255 0 255 0.1875 0.75
0 1 -0.5 0 1 0 255 255 0 255 0.4375 0.375
0.5 -1 -0.5 0 -1 0 255 255 0 255 0.4375 0.8125
0.5 -1 0.5 0 -1 0 255 255 0 255 0.5625 0.8125
0 1 0.5 0 1 0 255 255 0 255 0.5625 0.375
0.5 -1 0 0 -1 0 255 255 0 255 0.5 0.8125
0 1 0 0 1 0 255 255 0 255 0.5 0.375
0 1 1 0 0.7071068 0.7071068 255 255 0 255 0.625 0.375
0 -1 -1 0 -0.7071068 -0.7071068 255 255 0 255 0.25 0.75
0.5 -1 1 0 -0.7071068 0.7071068 255 255 0 255 0.625 0.8125
0.5 -1 1 0 -0.7071068 0.7071068 255 255 0 255 0.6875 0.75
1 -1 -0.5 0.7071068 -0.7071068 0 255 255 0 255 0.4375 0.75
0.5 1 -0.5 0 1 0 255 255 0 255 0.4375 0.4375
0.5 1 0.5 0 1 0 255 255 0 255 0.5625 0.4375
1 -1 0.5 0.7071068 -0.7071068 0 255 255 0 255 0.5625 0.75
0.5 1 0 0 1 0 255 255 0 255 0.5 0.4375
1 -1 0 0.7071068 -0.7071068 0 255 255 0 255 0.5 0.75
1 -1 1 0.5773284 -0.5773612 0.5773612 255 255 0 255 0.625 0.75
0.5 -1 -1 0 -0.7071068 -0.7071068 255 255 0 255 0.3125 0.75
0.5 1 1 0 0.7071068 0.7071068 255 255 0 255 0.625 0.4375
-1 -1 0.5 -0.7071068 -0.7071068 0 255 255 0 255 0.5625 1
-1 -1 0 -0.7071068 -0.7071068 0 255 255 0 255 0.5 1
-1 -1 -0.5 -0.7071068 -0.7071068 0 255 255 0 255 0.4375 1
0.75 1 -1 0 0.7071068 -0.7071068 255 255 0 255 0.375 0.46875
0.5 1 -1 0 0.7071068 -0.7071068 255 255 0 255 0.375 0.4375
0.75 -1 -1 0 -0.7071068 -0.7071068 255 255 0 255 0.375 0.78125
1 -1 -1 0.5773721 -0.5773394 -0.5773394 255 255 0 255 0.375 0.75
0.25 -1 -1 0 -0.7071068 -0.7071068 255 255 0 255 0.375 0.84375
0.5 -1 -1 0 -0.7071068 -0.7071068 255 255 0 255 0.375 0.8125
0.25 1 -1 0 0.7071068 -0.7071068 255 255 0 255 0.375 0.40625
0 1 -1 0 0.7071068 -0.7071068 255 255 0 255 0.375 0.375
-0.25 1 -1 0 0.7071068 -0.7071068 255 255 0 255 0.375 0.34375
-0.5 1 -1 0 0.7071068 -0.7071068 255 255 0 255 0.375 0.3125
-0.25 -1 -1 0 -0.7071068 -0.7071068 255 255 0 255 0.375 0.90625
0 -1 -1 0 -0.7071068 -0.7071068 255 255 0 255 0.375 0.875
-0.75 -1 -1 0 -0.7071068 -0.7071068 255 255 0 255 0.375 0.96875
-0.5 -1 -1 0 -0.7071068 -0.7071068 255 255 0 255 0.375 0.9375
-0.75 1 -1 0 0.7071068 -0.7071068 255 255 0 255 0.375 0.28125
-1 1 -1 -0.5773721 0.5773394 -0.5773394 255 255 0 255 0.375 0.25
-1 -0.75 -1 -0.7071068 0 -0.7071068 255 255 0 255 0.375 0.03125
-1 -1 -1 -0.5773284 -0.5773612 -0.5773612 255 255 0 255 0.375 0
-1 -0.25 -1 -0.7071068 0 -0.7071068 255 255 0 255 0.375 0.09375
-1 -0.5 -1 -0.7071068 0 -0.7071068 255 255 0 255 0.375 0.0625
-1 0.25 -1 -0.7071068 0 -0.7071068 255 255 0 255 0.375 0.15625
-1 0 -1 -0.7071068 0 -0.7071068 255 255 0 255 0.375 0.125
-1 0.75 -1 -0.7071068 0 -0.7071068 255 255 0 255 0.375 0.21875
-1 0.5 -1 -0.7071068 0 -0.7071068 255 255 0 255 0.375 0.1875
-1 -1 -1 -0.5773284 -0.5773612 -0.5773612 255 255 0 255 0.375 1
-1 -1 1 -0.5773721 -0.5773394 0.5773394 255 255 0 255 0.625 1
-1 -1 1 -0.5773721 -0.5773394 0.5773394 255 255 0 255 0.875 0.75
3 0 1 2 
3 3 4 5 
3 6 7 8 
3 9 10 11 
3 12 13 14 
3 15 16 17 
3 18 19 20 
3 21 22 23 
3 24 25 26 
3 27 28 29 
3 30 31 32 
3 33 34 35 
3 36 37 38 
3 39 40 41 
3 42 43 44 
3 45 46 47 
3 48 49 50 
3 51 52 53 
3 54 55 56 
3 57 58 59 
3 60 61 62 
3 63 64 65 
3 66 67 68 
3 69 70 71 
3 72 73 74 
3 75 76 77 
3 78 79 80 
3 81 82 83 
3 84 85 86 
3 87 88 89 
3 90 91 92 
3 93 94 95 
3 96 97 98 
3 99 100 101 
3 102 103 104 
3 105 106 107 
3 108 109 110 
3 111 112 113 
3 114 115 116 
3 117 118 119 
3 120 121 122 
3 123 124 125 
3 126 127 128 
3 129 130 131 
3 132 133 134 
3 135 136 137 
3 138 139 140 
3 141 142 143 
3 144 145 146 
3 147 148 149 
3 150 151 152 
3 153 154 155 
3 156 157 158 
3 159 160 161 
3 162 163 164 
3 165 166 167 
3 168 169 170 
3 171 172 173 
3 174 175 176 
3 177 178 179 
3 180 181 182 
3 183 184 185 
3 186 187 188 
3 189 190 191 
3 192 193 194 
3 195 196 197 
3 198 199 200 
3 201 202 203 
3 204 205 206 
3 207 208 209 
3 210 211 212 
3 213 214 215 
3 216 217 218 
3 219 220 221 
3 222 223 224 
3 225 226 227 
3 228 229 230 
3 231 232 233 
3 234 235 236 
3 237 238 239 
3 240 241 242 
3 243 244 245 
3 246 247 248 
3 249 250 251 
3 252 253 254 
3 255 256 257 
3 258 259 260 
3 261 262 263 
3 264 265 266 
3 267 268 269 
3 270 271 272 
3 273 274 275 
3 276 277 278 
3 279 280 281 
3 282 283 284 
3 285 286 287 
3 288 278 244 
3 289 242 280 
3 290 239 199 
3 291 203 235 
3 292 191 151 
3 293 155 187 
3 294 110 295 
3 296 107 297 
3 298 104 299 
3 300 101 301 
3 302 98 303 
3 304 95 305 
3 306 92 307 
3 308 89 309 
3 310 86 4 
3 311 2 112 
3 312 281 274 
3 313 272 277 
3 314 209 202 
3 315 200 205 
3 316 161 154 
3 317 152 157 
3 318 113 82 
3 319 80 85 
3 320 77 88 
3 321 74 91 
3 322 71 94 
3 323 68 97 
3 324 65 100 
3 325 62 103 
3 326 59 106 
3 327 56 109 
3 328 287 271 
3 329 275 283 
3 330 206 196 
3 331 194 208 
3 332 158 148 
3 333 146 160 
3 334 143 79 
3 335 140 76 
3 336 137 73 
3 337 134 70 
3 338 131 67 
3 339 128 64 
3 340 125 61 
3 341 122 58 
3 342 119 55 
3 343 83 115 
3 344 284 345 
3 346 248 286 
3 347 233 193 
3 348 197 349 
3 350 185 145 
3 351 149 352 
3 353 116 354 
3 355 50 118 
3 356 47 121 
3 357 38 124 
3 358 35 127 
3 359 23 130 
3 360 20 133 
3 361 17 136 
3 362 14 139 
3 363 8 142 
3 136 48 355 
3 121 364 365 
3 58 366 367 
3 73 117 342 
3 106 368 369 
3 91 54 327 
3 307 108 294 
3 297 370 371 
3 372 266 241 
3 373 251 268 
3 374 230 211 
3 375 215 238 
3 376 182 163 
3 377 167 190 
3 137 355 117 
3 122 365 366 
3 107 369 370 
3 92 327 108 
3 74 342 54 
3 59 367 368 
3 47 378 364 
3 379 44 1 
3 17 380 48 
3 381 11 52 
3 130 45 356 
3 118 18 360 
3 55 132 337 
3 67 120 341 
3 109 69 322 
3 97 57 326 
3 303 105 296 
3 295 93 304 
3 382 269 253 
3 383 257 265 
3 384 224 214 
3 385 212 226 
3 386 176 166 
3 387 164 178 
3 131 356 120 
3 119 360 132 
3 110 322 93 
3 98 326 105 
3 68 341 57 
3 56 337 69 
3 388 53 25 
3 50 389 18 
3 390 29 43 
3 23 391 45 
3 133 33 358 
3 124 21 359 
3 61 129 338 
3 70 126 339 
3 103 66 323 
3 94 63 324 
3 305 99 300 
3 299 96 302 
3 392 263 256 
3 393 254 259 
3 394 227 220 
3 395 218 223 
3 396 179 172 
3 397 170 175 
3 134 358 126 
3 125 359 129 
3 104 323 96 
3 95 324 99 
3 71 339 63 
3 62 338 66 
3 398 41 28 
3 38 399 21 
3 400 26 31 
3 20 401 33 
3 139 36 357 
3 127 6 363 
3 64 141 334 
3 76 123 340 
3 100 78 319 
3 88 60 325 
3 309 102 298 
3 301 84 310 
3 402 260 247 
3 403 245 262 
3 404 236 217 
3 405 221 232 
3 406 188 169 
3 407 173 184 
3 140 357 123 
3 128 363 141 
3 101 319 84 
3 89 325 102 
3 77 340 60 
3 65 334 78 
3 35 408 6 
3 408 32 7 
3 14 409 36 
3 410 5 40 
3 40 234 404 
3 7 219 405 
3 31 225 394 
3 28 216 395 
3 43 222 384 
3 25 210 385 
3 52 228 374 
3 1 213 375 
3 142 231 347 
3 354 195 348 
3 115 204 330 
3 79 192 331 
3 85 207 314 
3 82 198 315 
3 112 237 290 
3 4 201 291 
3 143 347 192 
3 116 330 195 
3 113 290 198 
3 86 314 201 
3 83 315 204 
3 80 331 207 
3 53 374 210 
3 44 384 213 
3 41 404 216 
3 32 394 219 
3 29 395 222 
3 26 385 225 
3 11 411 228 
3 8 405 231 
3 5 291 234 
3 2 375 237 
3 232 171 407 
3 217 186 406 
3 223 168 397 
3 220 177 396 
3 226 162 387 
3 214 174 386 
3 238 165 377 
3 211 180 376 
3 349 147 351 
3 193 183 350 
3 208 144 333 
3 196 156 332 
3 205 150 317 
3 202 159 316 
3 235 153 293 
3 199 189 292 
3 239 377 189 
3 236 293 186 
3 233 407 183 
3 230 412 180 
3 227 387 177 
3 224 397 174 
3 221 396 171 
3 218 406 168 
3 215 386 165 
3 212 376 162 
3 209 333 159 
3 206 317 156 
3 203 316 153 
3 200 292 150 
3 197 332 147 
3 194 350 144 
3 184 258 402 
3 169 243 403 
3 175 261 392 
3 172 252 393 
3 178 267 382 
3 166 255 383 
3 190 264 372 
3 163 249 373 
3 352 282 344 
3 145 246 346 
3 160 285 328 
3 148 273 329 
3 157 279 312 
3 154 270 313 
3 187 276 288 
3 151 240 289 
3 191 372 240 
3 188 288 243 
3 185 402 246 
3 182 413 249 
3 179 382 252 
3 176 392 255 
3 173 393 258 
3 170 403 261 
3 167 383 264 
3 164 373 267 
3 161 328 270 
3 158 312 273 
3 155 313 276 
3 152 289 279 
3 149 329 282 
3 146 346 285 
3 262 414 415 
3 247 416 417 
3 259 418 419 
3 256 420 421 
3 265 422 423 
3 253 424 425 
3 268 426 427 
3 241 428 429 
3 286 12 362 
3 345 430 431 
3 283 432 433 
3 271 138 335 
3 277 75 320 
3 274 434 435 
3 280 436 437 
3 244 87 308 
3 287 362 138 
3 284 433 430 
3 281 437 434 
3 278 320 87 
3 275 435 432 
3 272 335 75 
3 269 427 424 
3 266 423 428 
3 263 415 420 
3 260 419 416 
3 257 421 422 
3 254 425 418 
3 251 438 426 
3 248 417 12 
3 245 308 414 
3 242 429 436 
3 0 379 1 
3 3 310 4 
3 6 408 7 
3 9 439 10 
3 12 417 13 
3 15 440 16 
3 18 389 19 
3 21 399 22 
3 24 388 25 
3 27 398 28 
3 30 400 31 
3 33 401 34 
3 36 409 37 
3 39 410 40 
3 42 390 43 
3 45 391 46 
3 48 380 49 
3 51 381 52 
3 54 342 55 
3 57 341 58 
3 60 340 61 
3 63 339 64 
3 66 338 67 
3 69 337 70 
3 72 336 73 
3 75 335 76 
3 78 334 79 
3 81 318 82 
3 84 319 85 
3 87 320 88 
3 90 321 91 
3 93 322 94 
3 96 323 97 
3 99 324 100 
3 102 325 103 
3 105 326 106 
3 108 327 109 
3 111 311 112 
3 114 343 115 
3 117 355 118 
3 120 356 121 
3 123 357 124 
3 126 358 127 
3 129 359 130 
3 132 360 133 
3 135 361 136 
3 138 362 139 
3 141 363 142 
3 144 350 145 
3 147 332 148 
3 150 292 151 
3 153 316 154 
3 156 317 157 
3 159 333 160 
3 162 376 163 
3 165 386 166 
3 168 406 169 
3 171 396 172 
3 174 397 175 
3 177 387 178 
3 180 412 181 
3 183 407 184 
3 186 293 187 
3 189 377 190 
3 192 347 193 
3 195 330 196 
3 198 290 199 
3 201 314 202 
3 204 315 205 
3 207 331 208 
3 210 374 211 
3 213 384 214 
3 216 404 217 
3 219 394 220 
3 222 395 223 
3 225 385 226 
3 228 411 229 
3 231 405 232 
3 234 291 235 
3 237 375 238 
3 240 372 241 
3 243 288 244 
3 246 402 247 
3 249 413 250 
3 252 382 253 
3 255 392 256 
3 258 393 259 
3 261 403 262 
3 264 383 265 
3 267 373 268 
3 270 328 271 
3 273 312 274 
3 276 313 277 
3 279 289 280 
3 282 329 283 
3 285 346 286 
3 288 276 278 
3 289 240 242 
3 290 237 239 
3 291 201 203 
3 292 189 191 
3 293 153 155 
3 294 108 110 
3 296 105 107 
3 298 102 104 
3 300 99 101 
3 302 96 98 
3 304 93 95 
3 306 90 92 
3 308 87 89 
3 310 84 86 
3 311 0 2 
3 312 279 281 
3 313 270 272 
3 314 207 209 
3 315 198 200 
3 316 159 161 
3 317 150 152 
3 318 111 113 
3 319 78 80 
3 320 75 77 
3 321 72 74 
3 322 69 71 
3 323 66 68 
3 324 63 65 
3 325 60 62 
3 326 57 59 
3 327 54 56 
3 328 285 287 
3 329 273 275 
3 330 204 206 
3 331 192 194 
3 332 156 158 
3 333 144 146 
3 334 141 143 
3 335 138 140 
3 336 135 137 
3 337 132 134 
3 338 129 131 
3 339 126 128 
3 340 123 125 
3 341 120 122 
3 342 117 119 
3 343 81 83 
3 344 282 284 
3 346 246 248 
3 347 231 233 
3 348 195 197 
3 350 183 185 
3 351 147 149 
3 353 114 116 
3 355 48 50 
3 356 45 47 
3 357 36 38 
3 358 33 35 
3 359 21 23 
3 360 18 20 
3 361 15 17 
3 362 12 14 
3 363 6 8 
3 136 17 48 
3 121 47 364 
3 58 122 366 
3 73 137 117 
3 106 59 368 
3 91 74 54 
3 307 92 108 
3 297 107 370 
3 372 264 266 
3 373 249 251 
3 374 228 230 
3 375 213 215 
3 376 180 182 
3 377 165 167 
3 137 136 355 
3 122 121 365 
3 107 106 369 
3 92 91 327 
3 74 73 342 
3 59 58 367 
3 47 46 378 
3 379 42 44 
3 17 16 380 
3 381 9 11 
3 130 23 45 
3 118 50 18 
3 55 119 132 
3 67 131 120 
3 109 56 69 
3 97 68 57 
3 303 98 105 
3 295 110 93 
3 382 267 269 
3 383 255 257 
3 384 222 224 
3 385 210 212 
3 386 174 176 
3 387 162 164 
3 131 130 356 
3 119 118 360 
3 110 109 322 
3 98 97 326 
3 68 67 341 
3 56 55 337 
3 388 51 53 
3 50 49 389 
3 390 27 29 
3 23 22 391 
3 133 20 33 
3 124 38 21 
3 61 125 129 
3 70 134 126 
3 103 62 66 
3 94 71 63 
3 305 95 99 
3 299 104 96 
3 392 261 263 
3 393 252 254 
3 394 225 227 
3 395 216 218 
3 396 177 179 
3 397 168 170 
3 134 133 358 
3 125 124 359 
3 104 103 323 
3 95 94 324 
3 71 70 339 
3 62 61 338 
3 398 39 41 
3 38 37 399 
3 400 24 26 
3 20 19 401 
3 139 14 36 
3 127 35 6 
3 64 128 141 
3 76 140 123 
3 100 65 78 
3 88 77 60 
3 309 89 102 
3 301 101 84 
3 402 258 260 
3 403 243 245 
3 404 234 236 
3 405 219 221 
3 406 186 188 
3 407 171 173 
3 140 139 357 
3 128 127 363 
3 101 100 319 
3 89 88 325 
3 77 76 340 
3 65 64 334 
3 35 34 408 
3 408 30 32 
3 14 13 409 
3 410 3 5 
3 40 5 234 
3 7 32 219 
3 31 26 225 
3 28 41 216 
3 43 29 222 
3 25 53 210 
3 52 11 228 
3 1 44 213 
3 142 8 231 
3 354 116 195 
3 115 83 204 
3 79 143 192 
3 85 80 207 
3 82 113 198 
3 112 2 237 
3 4 86 201 
3 143 142 347 
3 116 115 330 
3 113 112 290 
3 86 85 314 
3 83 82 315 
3 80 79 331 
3 53 52 374 
3 44 43 384 
3 41 40 404 
3 32 31 394 
3 29 28 395 
3 26 25 385 
3 11 10 411 
3 8 7 405 
3 5 4 291 
3 2 1 375 
3 232 221 171 
3 217 236 186 
3 223 218 168 
3 220 227 177 
3 226 212 162 
3 214 224 174 
3 238 215 165 
3 211 230 180 
3 349 197 147 
3 193 233 183 
3 208 194 144 
3 196 206 156 
3 205 200 150 
3 202 209 159 
3 235 203 153 
3 199 239 189 
3 239 238 377 
3 236 235 293 
3 233 232 407 
3 230 229 412 
3 227 226 387 
3 224 223 397 
3 221 220 396 
3 218 217 406 
3 215 214 386 
3 212 211 376 
3 209 208 333 
3 206 205 317 
3 203 202 316 
3 200 199 292 
3 197 196 332 
3 194 193 350 
3 184 173 258 
3 169 188 243 
3 175 170 261 
3 172 179 252 
3 178 164 267 
3 166 176 255 
3 190 167 264 
3 163 182 249 
3 352 149 282 
3 145 185 246 
3 160 146 285 
3 148 158 273 
3 157 152 279 
3 154 161 270 
3 187 155 276 
3 151 191 240 
3 191 190 372 
3 188 187 288 
3 185 184 402 
3 182 181 413 
3 179 178 382 
3 176 175 392 
3 173 172 393 
3 170 169 403 
3 167 166 383 
3 164 163 373 
3 161 160 328 
3 158 157 312 
3 155 154 313 
3 152 151 289 
3 149 148 329 
3 146 145 346 
3 262 245 414 
3 247 260 416 
3 259 254 418 
3 256 263 420 
3 265 257 422 
3 253 269 424 
3 268 251 426 
3 241 266 428 
3 286 248 12 
3 345 284 430 
3 283 275 432 
3 271 287 138 
3 277 272 75 
3 274 281 434 
3 280 242 436 
3 244 278 87 
3 287 286 362 
3 284 283 433 
3 281 280 437 
3 278 277 320 
3 275 274 435 
3 272 271 335 
3 269 268 427 
3 266 265 423 
3 263 262 415 
3 260 259 419 
3 257 256 421 
3 254 253 425 
3 251 250 438 
3 248 247 417 
3 245 244 308 
3 242 241 429 
