ply
format ascii 1.0
comment Created in Blender version 4.2.2 LTS
comment TextureFile Canadian_Flag_Texture.png
element vertex 98
property float x
property float y
property float z
property float nx
property float ny
property float nz
property float s
property float t
element face 94
property list uchar uint vertex_indices
end_header
0 0 0.99999994 2.1447666e-07 0 1 1 1
-0.19509031 -6 0.9807852 -0.020593835 -0.99441284 0.10353206 0.96875 0.5
0 -6 0.99999994 -2.2712491e-08 -0.9944132 0.10555825 1 0.5
-0.19509031 0 0.9807852 -0.19509023 0 0.98078537 0.96875 1
-0.38268343 -6 0.92387944 -0.040395416 -0.9944131 0.097523086 0.9375 0.5
-0.38268343 0 0.92387944 -0.38268322 0 0.9238796 0.9375 1
-0.5555702 -6 0.83146954 -0.058648203 -0.99441254 0.08777222 0.90625 0.5
-0.5555702 0 0.83146954 -0.55557007 0 0.8314698 0.90625 1
-0.7071067 -6 0.7071067 -0.07464099 -0.9944131 0.074640945 0.875 0.5
-0.7071067 0 0.7071067 -0.7071067 0 0.7071069 0.875 1
-0.83146954 -6 0.5555702 -0.087773606 -0.99441254 0.058646142 0.84375 0.5
-0.83146954 0 0.5555702 -0.8314696 0 0.55557024 0.84375 1
-0.92387944 -6 0.38268343 -0.09748393 -0.994417 0.04039556 0.8125 0.5
-0.92387944 0 0.38268343 -0.9238795 0 0.3826835 0.8125 1
-0.9807852 -6 0.19509031 -0.10353724 -0.99441236 0.020594845 0.78125 0.5
-0.9807852 0 0.19509031 -0.9807852 0 0.19509059 0.78125 1
-0.99999994 -6 0 -0.10555825 -0.9944132 -2.2712491e-08 0.75 0.5
-0.99999994 0 0 -1 0 2.1447666e-07 0.75 1
-0.9807852 -6 -0.19509031 -0.10353544 -0.9944126 -0.020593831 0.71875 0.5
-0.9807852 0 -0.19509031 -0.98078537 0 -0.19509019 0.71875 1
-0.92387944 -6 -0.38268343 -0.097483955 -0.994417 -0.04039556 0.6875 0.5
-0.92387944 0 -0.38268343 -0.9238795 0 -0.38268355 0.6875 1
-0.83146954 -6 -0.5555702 -0.08777193 -0.9944126 -0.058647987 0.65625 0.5
-0.83146954 0 -0.5555702 -0.83146966 0 -0.5555701 0.65625 1
-0.7071067 -6 -0.7071067 -0.07464096 -0.9944131 -0.07464098 0.625 0.5
-0.7071067 0 -0.7071067 -0.707107 0 -0.7071066 0.625 1
-0.5555702 -6 -0.83146954 -0.058645178 -0.99441266 -0.08777339 0.59375 0.5
-0.5555702 0 -0.83146954 -0.5555704 0 -0.83146954 0.59375 1
-0.38268343 -6 -0.92387944 -0.040395364 -0.9944131 -0.0975231 0.5625 0.5
-0.38268343 0 -0.92387944 -0.38268363 0 -0.92387944 0.5625 1
-0.19509031 -6 -0.9807852 -0.020594804 -0.9944119 -0.10354119 0.53125 0.5
-0.19509031 0 -0.9807852 -0.19509056 0 -0.9807852 0.53125 1
0 -6 -0.99999994 2.2712491e-08 -0.9944132 -0.10555825 0.5 0.5
0 0 -0.99999994 -2.1447666e-07 0 -1 0.5 1
0.19509031 -6 -0.9807852 0.020593835 -0.99441284 -0.10353206 0.46875 0.5
0.19509031 0 -0.9807852 0.19509023 0 -0.98078537 0.46875 1
0.38268343 -6 -0.92387944 0.040395416 -0.9944131 -0.097523086 0.4375 0.5
0.38268343 0 -0.92387944 0.38268322 0 -0.9238796 0.4375 1
0.5555702 -6 -0.83146954 0.058647998 -0.9944126 -0.08777289 0.40625 0.5
0.5555702 0 -0.83146954 0.55557007 0 -0.8314698 0.40625 1
0.7071067 -6 -0.7071067 0.07464099 -0.9944131 -0.074640945 0.375 0.5
0.7071067 0 -0.7071067 0.7071067 0 -0.7071069 0.375 1
0.83146954 -6 -0.5555702 0.087773606 -0.9944125 -0.05864829 0.34375 0.5
0.83146954 0 -0.5555702 0.8314696 0 -0.55557024 0.34375 1
0.92387944 -6 -0.38268343 0.09748393 -0.994417 -0.04039556 0.3125 0.5
0.92387944 0 -0.38268343 0.9238795 0 -0.3826835 0.3125 1
0.9807852 -6 -0.19509031 0.10353103 -0.994413 -0.020593861 0.28125 0.5
0.9807852 0 -0.19509031 0.9807852 0 -0.19509059 0.28125 1
0.99999994 -6 0 0.10555825 -0.9944132 2.2712491e-08 0.25 0.5
0.99999994 0 0 1 0 -2.1447666e-07 0.25 1
0.9807852 -6 0.19509031 0.10353544 -0.9944126 0.020593831 0.21875 0.5
0.9807852 0 0.19509031 0.98078537 0 0.19509019 0.21875 1
0.92387944 -6 0.38268343 0.097483955 -0.994417 0.04039556 0.1875 0.5
0.92387944 0 0.38268343 0.9238795 0 0.38268355 0.1875 1
0.83146954 -6 0.5555702 0.087771505 -0.9944128 0.058647547 0.15625 0.5
0.83146954 0 0.5555702 0.83146966 0 0.5555701 0.15625 1
0.7071067 -6 0.7071067 0.07464096 -0.9944131 0.07464098 0.125 0.5
0.7071067 0 0.7071067 0.707107 0 0.7071066 0.125 1
0.5555702 -6 0.83146954 0.058641408 -0.99441314 0.08777023 0.09375 0.5
0.5555702 0 0.83146954 0.5555704 0 0.83146954 0.09375 1
0.38268343 -6 0.92387944 0.040395364 -0.9944131 0.0975231 0.0625 0.5
0.38268343 0 0.92387944 0.38268363 0 0.92387944 0.0625 1
0.19509031 -6 0.9807852 0.020595534 -0.9944121 0.103539124 0.03125 0.5
0.19509031 0 0.9807852 0.19509056 0 0.9807852 0.03125 1
0 -6 0.99999994 -2.2712491e-08 -0.9944132 0.10555825 0 0.5
0.83146954 -6 0.5555702 0.087771505 -0.9944128 0.058647547 0.5504473 0.38333684
0.19509031 -6 0.9807852 0.020595534 -0.9944121 0.103539124 0.70317835 0.48538846
-0.19509031 -6 -0.9807852 -0.020594804 -0.9944119 -0.10354119 0.79682165 0.014611542
0 0 0.99999994 2.1447666e-07 0 1 0 1
0 -6 0.99999994 -2.2712491e-08 -0.9944132 0.10555825 0.75 0.49
-0.19509031 -6 0.9807852 -0.020593835 -0.99441284 0.10353206 0.79682165 0.48538846
-0.38268343 -6 0.92387944 -0.040395416 -0.9944131 0.097523086 0.841844 0.47173107
-0.5555702 -6 0.83146954 -0.058648203 -0.99441254 0.08777222 0.88333684 0.4495527
-0.7071067 -6 0.7071067 -0.07464099 -0.9944131 0.074640945 0.9197056 0.41970563
-0.83146954 -6 0.5555702 -0.087773606 -0.99441254 0.058646142 0.9495527 0.38333684
-0.92387944 -6 0.38268343 -0.09748393 -0.994417 0.04039556 0.97173107 0.34184402
-0.9807852 -6 0.19509031 -0.10353724 -0.99441236 0.020594845 0.98538846 0.29682168
-0.99999994 -6 0 -0.10555825 -0.9944132 -2.2712491e-08 0.99 0.25
-0.9807852 -6 -0.19509031 -0.10353544 -0.9944126 -0.020593831 0.98538846 0.20317832
-0.92387944 -6 -0.38268343 -0.097483955 -0.994417 -0.04039556 0.97173107 0.15815598
-0.83146954 -6 -0.5555702 -0.08777193 -0.9944126 -0.058647987 0.9495527 0.11666314
-0.7071067 -6 -0.7071067 -0.07464096 -0.9944131 -0.07464098 0.9197056 0.080294386
-0.5555702 -6 -0.83146954 -0.058645178 -0.99441266 -0.08777339 0.88333684 0.0504473
-0.38268343 -6 -0.92387944 -0.040395364 -0.9944131 -0.0975231 0.841844 0.028268918
0 -6 -0.99999994 2.2712491e-08 -0.9944132 -0.10555825 0.75 0.010000005
0.19509031 -6 -0.9807852 0.020593835 -0.99441284 -0.10353206 0.70317835 0.014611542
0.38268343 -6 -0.92387944 0.040395416 -0.9944131 -0.097523086 0.658156 0.028268918
0.5555702 -6 -0.83146954 0.058647998 -0.9944126 -0.08777289 0.61666316 0.0504473
0.7071067 -6 -0.7071067 0.07464099 -0.9944131 -0.074640945 0.5802944 0.080294386
0.83146954 -6 -0.5555702 0.087773606 -0.9944125 -0.05864829 0.5504473 0.11666314
0.92387944 -6 -0.38268343 0.09748393 -0.994417 -0.04039556 0.52826893 0.15815598
0.9807852 -6 -0.19509031 0.10353103 -0.994413 -0.020593861 0.51461154 0.20317832
0.99999994 -6 0 0.10555825 -0.9944132 2.2712491e-08 0.51 0.25
0.9807852 -6 0.19509031 0.10353544 -0.9944126 0.020593831 0.51461154 0.29682168
0.92387944 -6 0.38268343 0.097483955 -0.994417 0.04039556 0.52826893 0.34184402
0.7071067 -6 0.7071067 0.07464096 -0.9944131 0.07464098 0.5802944 0.41970563
0.5555702 -6 0.83146954 0.058641408 -0.99441314 0.08777023 0.61666316 0.4495527
0.38268343 -6 0.92387944 0.040395364 -0.9944131 0.0975231 0.658156 0.47173107
3 0 1 2
3 3 4 1
3 5 6 4
3 7 8 6
3 9 10 8
3 11 12 10
3 13 14 12
3 15 16 14
3 17 18 16
3 19 20 18
3 21 22 20
3 23 24 22
3 25 26 24
3 27 28 26
3 29 30 28
3 31 32 30
3 33 34 32
3 35 36 34
3 37 38 36
3 39 40 38
3 41 42 40
3 43 44 42
3 45 46 44
3 47 48 46
3 49 50 48
3 51 52 50
3 53 54 52
3 55 56 54
3 57 58 56
3 59 60 58
3 61 62 60
3 63 64 62
3 65 66 67
3 0 3 1
3 3 5 4
3 5 7 6
3 7 9 8
3 9 11 10
3 11 13 12
3 13 15 14
3 15 17 16
3 17 19 18
3 19 21 20
3 21 23 22
3 23 25 24
3 25 27 26
3 27 29 28
3 29 31 30
3 31 33 32
3 33 35 34
3 35 37 36
3 37 39 38
3 39 41 40
3 41 43 42
3 43 45 44
3 45 47 46
3 47 49 48
3 49 51 50
3 51 53 52
3 53 55 54
3 55 57 56
3 57 59 58
3 59 61 60
3 61 63 62
3 63 68 64
3 66 69 70
3 70 71 72
3 72 73 74
3 74 75 76
3 76 77 78
3 78 79 80
3 80 81 82
3 82 83 67
3 67 84 85
3 85 86 87
3 87 88 89
3 89 90 91
3 91 92 93
3 93 94 65
3 65 95 96
3 96 97 66
3 66 70 72
3 72 74 76
3 76 78 80
3 80 82 76
3 82 67 76
3 67 85 87
3 87 89 67
3 89 91 67
3 91 93 65
3 65 96 66
3 66 72 67
3 72 76 67
3 91 65 67
