ply
format ascii 1.0
comment Created in Blender version 4.2.2 LTS
comment TextureFile Canadian_Flag_Texture.png
element vertex 84
property float x
property float y
property float z
property float nx
property float ny
property float nz
property float s
property float t
element face 96
property list uchar uint vertex_indices
end_header
9.999999 0 9.999999 0 1 0 0 1
0.19509031 0 0.9807852 0 1 0 0.49024546 0.54903924
0 0 0.99999994 0 1 0 0.5 0.55
2.4999998 0 3.25 0 1 0 0.375 0.6625
4.9999995 0 5.4999995 0 1 0 0.25 0.775
7.4999995 0 7.75 0 1 0 0.125 0.8875
0 0 -0.99999994 0 1 0 0.5 0.45000002
0.19509031 0 -0.9807852 0 1 0 0.49024552 0.45096076
9.999999 0 -9.999999 0 1 0 0 0
7.4999995 0 -7.75 0 1 0 0.12499999 0.1125
4.9999995 0 -5.4999995 0 1 0 0.24999999 0.225
2.4999998 0 -3.25 0 1 0 0.375 0.3375
-0.7071067 0 -0.7071067 0 1 0 0.5353553 0.46464467
-9.999999 0 -9.999999 0 1 0 1 0
-0.83146954 0 -0.5555702 0 1 0 0.5415735 0.4722215
-9.999999 0 -4.9999995 0 1 0 1 0.25
-7.75 0 -7.4999995 0 1 0 0.8875 0.12499999
-0.92387944 0 -0.38268343 0 1 0 0.54619396 0.48086584
9.999999 0 4.9999995 0 1 0 0 0.75
7.75 0 7.4999995 0 1 0 0.1125 0.875
0.7071067 0 -0.7071067 0 1 0 0.46464467 0.46464467
0.83146954 0 -0.5555702 0 1 0 0.45842654 0.4722215
0.92387944 0 -0.38268343 0 1 0 0.45380604 0.48086584
-0.9807852 0 -0.19509031 0 1 0 0.5490393 0.49024552
-5.4999995 0 -4.9999995 0 1 0 0.775 0.24999999
-3.25 0 -2.4999998 0 1 0 0.6625 0.375
-0.99999994 0 0 0 1 0 0.55 0.5
0.9807852 0 -0.19509031 0 1 0 0.45096076 0.49024552
0.99999994 0 0 0 1 0 0.45000002 0.5
3.25 0 -2.4999998 0 1 0 0.3375 0.375
5.4999995 0 -4.9999995 0 1 0 0.225 0.25
7.75 0 -7.4999995 0 1 0 0.112500004 0.125
5.4999995 0 4.9999995 0 1 0 0.225 0.75
3.25 0 2.4999998 0 1 0 0.3375 0.625
0.9807852 0 0.19509031 0 1 0 0.45096076 0.50975454
-0.9807852 0 0.19509031 0 1 0 0.5490393 0.50975454
-3.25 0 2.4999998 0 1 0 0.6625 0.625
-5.4999995 0 4.9999995 0 1 0 0.775 0.75
-7.75 0 7.4999995 0 1 0 0.8875 0.875
-9.999999 0 9.999999 0 1 0 1 1
-0.92387944 0 0.38268343 0 1 0 0.54619396 0.51913416
0.92387944 0 0.38268343 0 1 0 0.45380604 0.51913416
0.83146954 0 0.5555702 0 1 0 0.45842654 0.5277785
-0.83146954 0 0.5555702 0 1 0 0.5415735 0.5277785
-0.7071067 0 0.7071067 0 1 0 0.5353553 0.5353553
0.7071067 0 0.7071067 0 1 0 0.46464467 0.5353553
0.5555702 0 0.83146954 0 1 0 0.4722215 0.5415735
-0.5555702 0 0.83146954 0 1 0 0.5277785 0.5415735
-4.9999995 0 9.999999 0 1 0 0.75 1
-7.4999995 0 7.75 0 1 0 0.875 0.8875
-0.38268343 0 0.92387944 0 1 0 0.51913416 0.54619396
-0.19509031 0 0.9807852 0 1 0 0.5097545 0.54903924
0.38268343 0 0.92387944 0 1 0 0.48086584 0.54619396
-4.9999995 0 5.4999995 0 1 0 0.75 0.775
-2.4999998 0 3.25 0 1 0 0.625 0.6625
0.5555702 0 -0.83146954 0 1 0 0.4722215 0.45842654
4.9999995 0 -9.999999 0 1 0 0.25 0
-0.5555702 0 -0.83146954 0 1 0 0.5277785 0.45842654
-0.38268343 0 -0.92387944 0 1 0 0.51913416 0.45380598
0.38268343 0 -0.92387944 0 1 0 0.48086584 0.45380604
-0.19509031 0 -0.9807852 0 1 0 0.5097545 0.4509607
-2.4999998 0 -3.25 0 1 0 0.625 0.3375
-4.9999995 0 -5.4999995 0 1 0 0.75 0.225
-7.4999995 0 -7.75 0 1 0 0.875 0.112500004
-2.9802322e-07 0 5.4999995 0 1 0 0.5 0.775
-2.4999998 0 7.75 0 1 0 0.625 0.8875
2.4999998 0 7.75 0 1 0 0.375 0.8875
0 0 9.999999 0 1 0 0.5 1
4.9999995 0 9.999999 0 1 0 0.25 1
-5.4999995 0 -2.9802322e-07 0 1 0 0.775 0.5
-7.75 0 -2.4999998 0 1 0 0.8875 0.375
-7.75 0 2.4999998 0 1 0 0.8875 0.625
-9.999999 0 0 0 1 0 1 0.5
-9.999999 0 4.9999995 0 1 0 1 0.75
2.9802322e-07 0 -5.4999995 0 1 0 0.5 0.225
2.4999998 0 -7.75 0 1 0 0.375 0.1125
-2.4999998 0 -7.75 0 1 0 0.625 0.1125
0 0 -9.999999 0 1 0 0.5 0
-4.9999995 0 -9.999999 0 1 0 0.75 0
5.4999995 0 2.9802322e-07 0 1 0 0.225 0.5
7.75 0 2.4999998 0 1 0 0.1125 0.625
7.75 0 -2.4999998 0 1 0 0.1125 0.375
9.999999 0 0 0 1 0 0 0.5
9.999999 0 -4.9999995 0 1 0 0 0.25
6 0 1 2 3 4 5
6 6 7 8 9 10 11
3 12 13 14
3 13 15 16
3 14 13 17
3 0 18 19
3 8 20 21
3 8 21 22
3 17 13 23
6 23 13 16 24 25 26
3 8 22 27
6 8 27 28 29 30 31
6 0 19 32 33 28 34
6 35 26 36 37 38 39
3 40 35 39
3 0 34 41
3 0 41 42
3 43 40 39
3 44 43 39
3 0 42 45
3 0 45 46
3 44 39 47
3 39 48 49
3 47 39 50
3 50 39 51
3 0 46 52
3 0 52 1
6 51 39 49 53 54 2
3 55 20 8
3 8 56 9
3 13 12 57
3 13 57 58
3 59 55 8
3 7 59 8
3 13 58 60
6 13 60 6 61 62 63
3 54 3 2
3 53 64 54
3 49 65 53
3 54 64 3
3 64 4 3
3 53 65 64
3 65 66 64
3 64 66 4
3 66 5 4
3 49 48 65
3 48 67 65
3 65 67 66
3 67 68 66
3 66 68 5
3 68 0 5
3 25 36 26
3 24 69 25
3 16 70 24
3 25 69 36
3 69 37 36
3 24 70 69
3 70 71 69
3 69 71 37
3 71 38 37
3 16 15 70
3 15 72 70
3 70 72 71
3 72 73 71
3 71 73 38
3 73 39 38
3 11 61 6
3 10 74 11
3 9 75 10
3 11 74 61
3 74 62 61
3 10 75 74
3 75 76 74
3 74 76 62
3 76 63 62
3 9 56 75
3 56 77 75
3 75 77 76
3 77 78 76
3 76 78 63
3 78 13 63
3 33 29 28
3 32 79 33
3 19 80 32
3 33 79 29
3 79 30 29
3 32 80 79
3 80 81 79
3 79 81 30
3 81 31 30
3 19 18 80
3 18 82 80
3 80 82 81
3 82 83 81
3 81 83 31
3 83 8 31
