ply
format ascii 1.0
comment Created in Blender version 4.2.2 LTS
comment TextureFile Canadian_Flag_Texture.png
element vertex 182
property float x
property float y
property float z
property float nx
property float ny
property float nz
property float s
property float t
element face 190
property list uchar uint vertex_indices
end_header
9.999999 0 9.999999 0 1 0 0 1
0.19509031 0 0.9807852 0 1 0 0.49024546 0.54903924
0 0 0.99999994 0 1 0 0.5 0.55
2.4999998 0 3.25 0 1 0 0.375 0.6625
4.9999995 0 5.4999995 0 1 0 0.25 0.775
7.4999995 0 7.75 0 1 0 0.125 0.8875
0 0 -0.99999994 0 1 0 0.5 0.45000002
0.19509031 0 -0.9807852 0 1 0 0.49024552 0.45096076
9.999999 0 -9.999999 0 1 0 0 0
7.4999995 0 -7.75 0 1 0 0.12499999 0.1125
4.9999995 0 -5.4999995 0 1 0 0.24999999 0.225
2.4999998 0 -3.25 0 1 0 0.375 0.3375
0 0 0.99999994 2.1447666e-07 0 1 1 1
-0.19509031 -6 0.9807852 -0.020593835 -0.99441284 0.10353206 0.96875 0.5
0 -6 0.99999994 -2.2712491e-08 -0.9944132 0.10555825 1 0.5
-0.19509031 0 0.9807852 -0.19509023 0 0.98078537 0.96875 1
-0.38268343 -6 0.92387944 -0.040395416 -0.9944131 0.097523086 0.9375 0.5
-0.38268343 0 0.92387944 -0.38268322 0 0.9238796 0.9375 1
-0.5555702 -6 0.83146954 -0.058648203 -0.99441254 0.08777222 0.90625 0.5
-0.5555702 0 0.83146954 -0.55557007 0 0.8314698 0.90625 1
-0.7071067 -6 0.7071067 -0.07464099 -0.9944131 0.074640945 0.875 0.5
-0.7071067 0 0.7071067 -0.7071067 0 0.7071069 0.875 1
-0.83146954 -6 0.5555702 -0.087773606 -0.99441254 0.058646142 0.84375 0.5
-0.83146954 0 0.5555702 -0.8314696 0 0.55557024 0.84375 1
-0.92387944 -6 0.38268343 -0.09748393 -0.994417 0.04039556 0.8125 0.5
-0.92387944 0 0.38268343 -0.9238795 0 0.3826835 0.8125 1
-0.9807852 -6 0.19509031 -0.10353724 -0.99441236 0.020594845 0.78125 0.5
-0.9807852 0 0.19509031 -0.9807852 0 0.19509059 0.78125 1
-0.99999994 -6 0 -0.10555825 -0.9944132 -2.2712491e-08 0.75 0.5
-0.99999994 0 0 -1 0 2.1447666e-07 0.75 1
-0.9807852 -6 -0.19509031 -0.10353544 -0.9944126 -0.020593831 0.71875 0.5
-0.9807852 0 -0.19509031 -0.98078537 0 -0.19509019 0.71875 1
-0.92387944 -6 -0.38268343 -0.097483955 -0.994417 -0.04039556 0.6875 0.5
-0.92387944 0 -0.38268343 -0.9238795 0 -0.38268355 0.6875 1
-0.83146954 -6 -0.5555702 -0.08777193 -0.9944126 -0.058647987 0.65625 0.5
-0.83146954 0 -0.5555702 -0.83146966 0 -0.5555701 0.65625 1
-0.7071067 -6 -0.7071067 -0.07464096 -0.9944131 -0.07464098 0.625 0.5
-0.7071067 0 -0.7071067 -0.707107 0 -0.7071066 0.625 1
-0.5555702 -6 -0.83146954 -0.058645178 -0.99441266 -0.08777339 0.59375 0.5
-0.5555702 0 -0.83146954 -0.5555704 0 -0.83146954 0.59375 1
-0.38268343 -6 -0.92387944 -0.040395364 -0.9944131 -0.0975231 0.5625 0.5
-0.38268343 0 -0.92387944 -0.38268363 0 -0.92387944 0.5625 1
-0.19509031 -6 -0.9807852 -0.020594804 -0.9944119 -0.10354119 0.53125 0.5
-0.19509031 0 -0.9807852 -0.19509056 0 -0.9807852 0.53125 1
0 -6 -0.99999994 2.2712491e-08 -0.9944132 -0.10555825 0.5 0.5
0 0 -0.99999994 -2.1447666e-07 0 -1 0.5 1
0.19509031 -6 -0.9807852 0.020593835 -0.99441284 -0.10353206 0.46875 0.5
0.19509031 0 -0.9807852 0.19509023 0 -0.98078537 0.46875 1
0.38268343 -6 -0.92387944 0.040395416 -0.9944131 -0.097523086 0.4375 0.5
0.38268343 0 -0.92387944 0.38268322 0 -0.9238796 0.4375 1
0.5555702 -6 -0.83146954 0.058647998 -0.9944126 -0.08777289 0.40625 0.5
0.5555702 0 -0.83146954 0.55557007 0 -0.8314698 0.40625 1
0.7071067 -6 -0.7071067 0.07464099 -0.9944131 -0.074640945 0.375 0.5
0.7071067 0 -0.7071067 0.7071067 0 -0.7071069 0.375 1
0.83146954 -6 -0.5555702 0.087773606 -0.9944125 -0.05864829 0.34375 0.5
0.83146954 0 -0.5555702 0.8314696 0 -0.55557024 0.34375 1
0.92387944 -6 -0.38268343 0.09748393 -0.994417 -0.04039556 0.3125 0.5
0.92387944 0 -0.38268343 0.9238795 0 -0.3826835 0.3125 1
0.9807852 -6 -0.19509031 0.10353103 -0.994413 -0.020593861 0.28125 0.5
0.9807852 0 -0.19509031 0.9807852 0 -0.19509059 0.28125 1
0.99999994 -6 0 0.10555825 -0.9944132 2.2712491e-08 0.25 0.5
0.99999994 0 0 1 0 -2.1447666e-07 0.25 1
0.9807852 -6 0.19509031 0.10353544 -0.9944126 0.020593831 0.21875 0.5
0.9807852 0 0.19509031 0.98078537 0 0.19509019 0.21875 1
0.92387944 -6 0.38268343 0.097483955 -0.994417 0.04039556 0.1875 0.5
0.92387944 0 0.38268343 0.9238795 0 0.38268355 0.1875 1
0.83146954 -6 0.5555702 0.087771505 -0.9944128 0.058647547 0.15625 0.5
0.83146954 0 0.5555702 0.83146966 0 0.5555701 0.15625 1
0.7071067 -6 0.7071067 0.07464096 -0.9944131 0.07464098 0.125 0.5
0.7071067 0 0.7071067 0.707107 0 0.7071066 0.125 1
0.5555702 -6 0.83146954 0.058641408 -0.99441314 0.08777023 0.09375 0.5
0.5555702 0 0.83146954 0.5555704 0 0.83146954 0.09375 1
0.38268343 -6 0.92387944 0.040395364 -0.9944131 0.0975231 0.0625 0.5
0.38268343 0 0.92387944 0.38268363 0 0.92387944 0.0625 1
0.19509031 -6 0.9807852 0.020595534 -0.9944121 0.103539124 0.03125 0.5
0.19509031 0 0.9807852 0.19509056 0 0.9807852 0.03125 1
0 -6 0.99999994 -2.2712491e-08 -0.9944132 0.10555825 0 0.5
0.83146954 -6 0.5555702 0.087771505 -0.9944128 0.058647547 0.5504473 0.38333684
0.19509031 -6 0.9807852 0.020595534 -0.9944121 0.103539124 0.70317835 0.48538846
-0.19509031 -6 -0.9807852 -0.020594804 -0.9944119 -0.10354119 0.79682165 0.014611542
-0.7071067 0 -0.7071067 0 1 0 0.5353553 0.46464467
-9.999999 0 -9.999999 0 1 0 1 0
-0.83146954 0 -0.5555702 0 1 0 0.5415735 0.4722215
-9.999999 0 -4.9999995 0 1 0 1 0.25
-7.75 0 -7.4999995 0 1 0 0.8875 0.12499999
-0.92387944 0 -0.38268343 0 1 0 0.54619396 0.48086584
9.999999 0 4.9999995 0 1 0 0 0.75
7.75 0 7.4999995 0 1 0 0.1125 0.875
0.7071067 0 -0.7071067 0 1 0 0.46464467 0.46464467
0.83146954 0 -0.5555702 0 1 0 0.45842654 0.4722215
0.92387944 0 -0.38268343 0 1 0 0.45380604 0.48086584
-0.9807852 0 -0.19509031 0 1 0 0.5490393 0.49024552
-5.4999995 0 -4.9999995 0 1 0 0.775 0.24999999
-3.25 0 -2.4999998 0 1 0 0.6625 0.375
-0.99999994 0 0 0 1 0 0.55 0.5
0.9807852 0 -0.19509031 0 1 0 0.45096076 0.49024552
0.99999994 0 0 0 1 0 0.45000002 0.5
3.25 0 -2.4999998 0 1 0 0.3375 0.375
5.4999995 0 -4.9999995 0 1 0 0.225 0.25
7.75 0 -7.4999995 0 1 0 0.112500004 0.125
5.4999995 0 4.9999995 0 1 0 0.225 0.75
3.25 0 2.4999998 0 1 0 0.3375 0.625
0.9807852 0 0.19509031 0 1 0 0.45096076 0.50975454
-0.9807852 0 0.19509031 0 1 0 0.5490393 0.50975454
-3.25 0 2.4999998 0 1 0 0.6625 0.625
-5.4999995 0 4.9999995 0 1 0 0.775 0.75
-7.75 0 7.4999995 0 1 0 0.8875 0.875
-9.999999 0 9.999999 0 1 0 1 1
-0.92387944 0 0.38268343 0 1 0 0.54619396 0.51913416
0.92387944 0 0.38268343 0 1 0 0.45380604 0.51913416
0.83146954 0 0.5555702 0 1 0 0.45842654 0.5277785
-0.83146954 0 0.5555702 0 1 0 0.5415735 0.5277785
-0.7071067 0 0.7071067 0 1 0 0.5353553 0.5353553
0.7071067 0 0.7071067 0 1 0 0.46464467 0.5353553
0.5555702 0 0.83146954 0 1 0 0.4722215 0.5415735
-0.5555702 0 0.83146954 0 1 0 0.5277785 0.5415735
-4.9999995 0 9.999999 0 1 0 0.75 1
-7.4999995 0 7.75 0 1 0 0.875 0.8875
-0.38268343 0 0.92387944 0 1 0 0.51913416 0.54619396
-0.19509031 0 0.9807852 0 1 0 0.5097545 0.54903924
0.38268343 0 0.92387944 0 1 0 0.48086584 0.54619396
-4.9999995 0 5.4999995 0 1 0 0.75 0.775
-2.4999998 0 3.25 0 1 0 0.625 0.6625
0.5555702 0 -0.83146954 0 1 0 0.4722215 0.45842654
4.9999995 0 -9.999999 0 1 0 0.25 0
-0.5555702 0 -0.83146954 0 1 0 0.5277785 0.45842654
-0.38268343 0 -0.92387944 0 1 0 0.51913416 0.45380598
0.38268343 0 -0.92387944 0 1 0 0.48086584 0.45380604
-0.19509031 0 -0.9807852 0 1 0 0.5097545 0.4509607
-2.4999998 0 -3.25 0 1 0 0.625 0.3375
-4.9999995 0 -5.4999995 0 1 0 0.75 0.225
-7.4999995 0 -7.75 0 1 0 0.875 0.112500004
0 0 0.99999994 2.1447666e-07 0 1 0 1
0 -6 0.99999994 -2.2712491e-08 -0.9944132 0.10555825 0.75 0.49
-0.19509031 -6 0.9807852 -0.020593835 -0.99441284 0.10353206 0.79682165 0.48538846
-0.38268343 -6 0.92387944 -0.040395416 -0.9944131 0.097523086 0.841844 0.47173107
-0.5555702 -6 0.83146954 -0.058648203 -0.99441254 0.08777222 0.88333684 0.4495527
-0.7071067 -6 0.7071067 -0.07464099 -0.9944131 0.074640945 0.9197056 0.41970563
-0.83146954 -6 0.5555702 -0.087773606 -0.99441254 0.058646142 0.9495527 0.38333684
-0.92387944 -6 0.38268343 -0.09748393 -0.994417 0.04039556 0.97173107 0.34184402
-0.9807852 -6 0.19509031 -0.10353724 -0.99441236 0.020594845 0.98538846 0.29682168
-0.99999994 -6 0 -0.10555825 -0.9944132 -2.2712491e-08 0.99 0.25
-0.9807852 -6 -0.19509031 -0.10353544 -0.9944126 -0.020593831 0.98538846 0.20317832
-0.92387944 -6 -0.38268343 -0.097483955 -0.994417 -0.04039556 0.97173107 0.15815598
-0.83146954 -6 -0.5555702 -0.08777193 -0.9944126 -0.058647987 0.9495527 0.11666314
-0.7071067 -6 -0.7071067 -0.07464096 -0.9944131 -0.07464098 0.9197056 0.080294386
-0.5555702 -6 -0.83146954 -0.058645178 -0.99441266 -0.08777339 0.88333684 0.0504473
-0.38268343 -6 -0.92387944 -0.040395364 -0.9944131 -0.0975231 0.841844 0.028268918
0 -6 -0.99999994 2.2712491e-08 -0.9944132 -0.10555825 0.75 0.010000005
0.19509031 -6 -0.9807852 0.020593835 -0.99441284 -0.10353206 0.70317835 0.014611542
0.38268343 -6 -0.92387944 0.040395416 -0.9944131 -0.097523086 0.658156 0.028268918
0.5555702 -6 -0.83146954 0.058647998 -0.9944126 -0.08777289 0.61666316 0.0504473
0.7071067 -6 -0.7071067 0.07464099 -0.9944131 -0.074640945 0.5802944 0.080294386
0.83146954 -6 -0.5555702 0.087773606 -0.9944125 -0.05864829 0.5504473 0.11666314
0.92387944 -6 -0.38268343 0.09748393 -0.994417 -0.04039556 0.52826893 0.15815598
0.9807852 -6 -0.19509031 0.10353103 -0.994413 -0.020593861 0.51461154 0.20317832
0.99999994 -6 0 0.10555825 -0.9944132 2.2712491e-08 0.51 0.25
0.9807852 -6 0.19509031 0.10353544 -0.9944126 0.020593831 0.51461154 0.29682168
0.92387944 -6 0.38268343 0.097483955 -0.994417 0.04039556 0.52826893 0.34184402
0.7071067 -6 0.7071067 0.07464096 -0.9944131 0.07464098 0.5802944 0.41970563
0.5555702 -6 0.83146954 0.058641408 -0.99441314 0.08777023 0.61666316 0.4495527
0.38268343 -6 0.92387944 0.040395364 -0.9944131 0.0975231 0.658156 0.47173107
-2.9802322e-07 0 5.4999995 0 1 0 0.5 0.775
-2.4999998 0 7.75 0 1 0 0.625 0.8875
2.4999998 0 7.75 0 1 0 0.375 0.8875
0 0 9.999999 0 1 0 0.5 1
4.9999995 0 9.999999 0 1 0 0.25 1
-5.4999995 0 -2.9802322e-07 0 1 0 0.775 0.5
-7.75 0 -2.4999998 0 1 0 0.8875 0.375
-7.75 0 2.4999998 0 1 0 0.8875 0.625
-9.999999 0 0 0 1 0 1 0.5
-9.999999 0 4.9999995 0 1 0 1 0.75
2.9802322e-07 0 -5.4999995 0 1 0 0.5 0.225
2.4999998 0 -7.75 0 1 0 0.375 0.1125
-2.4999998 0 -7.75 0 1 0 0.625 0.1125
0 0 -9.999999 0 1 0 0.5 0
-4.9999995 0 -9.999999 0 1 0 0.75 0
5.4999995 0 2.9802322e-07 0 1 0 0.225 0.5
7.75 0 2.4999998 0 1 0 0.1125 0.625
7.75 0 -2.4999998 0 1 0 0.1125 0.375
9.999999 0 0 0 1 0 0 0.5
9.999999 0 -4.9999995 0 1 0 0 0.25
6 0 1 2 3 4 5
6 6 7 8 9 10 11
3 12 13 14
3 15 16 13
3 17 18 16
3 19 20 18
3 21 22 20
3 23 24 22
3 25 26 24
3 27 28 26
3 29 30 28
3 31 32 30
3 33 34 32
3 35 36 34
3 37 38 36
3 39 40 38
3 41 42 40
3 43 44 42
3 45 46 44
3 47 48 46
3 49 50 48
3 51 52 50
3 53 54 52
3 55 56 54
3 57 58 56
3 59 60 58
3 61 62 60
3 63 64 62
3 65 66 64
3 67 68 66
3 69 70 68
3 71 72 70
3 73 74 72
3 75 76 74
3 77 78 79
3 80 81 82
3 81 83 84
3 82 81 85
3 0 86 87
3 8 88 89
3 8 89 90
3 85 81 91
6 91 81 84 92 93 94
3 8 90 95
6 8 95 96 97 98 99
6 0 87 100 101 96 102
6 103 94 104 105 106 107
3 108 103 107
3 0 102 109
3 0 109 110
3 111 108 107
3 112 111 107
3 0 110 113
3 0 113 114
3 112 107 115
3 107 116 117
3 115 107 118
3 118 107 119
3 0 114 120
3 0 120 1
6 119 107 117 121 122 2
3 123 88 8
3 8 124 9
3 81 80 125
3 81 125 126
3 127 123 8
3 7 127 8
3 81 126 128
6 81 128 6 129 130 131
3 12 15 13
3 15 17 16
3 17 19 18
3 19 21 20
3 21 23 22
3 23 25 24
3 25 27 26
3 27 29 28
3 29 31 30
3 31 33 32
3 33 35 34
3 35 37 36
3 37 39 38
3 39 41 40
3 41 43 42
3 43 45 44
3 45 47 46
3 47 49 48
3 49 51 50
3 51 53 52
3 53 55 54
3 55 57 56
3 57 59 58
3 59 61 60
3 61 63 62
3 63 65 64
3 65 67 66
3 67 69 68
3 69 71 70
3 71 73 72
3 73 75 74
3 75 132 76
3 78 133 134
3 134 135 136
3 136 137 138
3 138 139 140
3 140 141 142
3 142 143 144
3 144 145 146
3 146 147 79
3 79 148 149
3 149 150 151
3 151 152 153
3 153 154 155
3 155 156 157
3 157 158 77
3 77 159 160
3 160 161 78
3 78 134 136
3 136 138 140
3 140 142 144
3 144 146 140
3 146 79 140
3 79 149 151
3 151 153 79
3 153 155 79
3 155 157 77
3 77 160 78
3 78 136 79
3 136 140 79
3 155 77 79
3 122 3 2
3 121 162 122
3 117 163 121
3 122 162 3
3 162 4 3
3 121 163 162
3 163 164 162
3 162 164 4
3 164 5 4
3 117 116 163
3 116 165 163
3 163 165 164
3 165 166 164
3 164 166 5
3 166 0 5
3 93 104 94
3 92 167 93
3 84 168 92
3 93 167 104
3 167 105 104
3 92 168 167
3 168 169 167
3 167 169 105
3 169 106 105
3 84 83 168
3 83 170 168
3 168 170 169
3 170 171 169
3 169 171 106
3 171 107 106
3 11 129 6
3 10 172 11
3 9 173 10
3 11 172 129
3 172 130 129
3 10 173 172
3 173 174 172
3 172 174 130
3 174 131 130
3 9 124 173
3 124 175 173
3 173 175 174
3 175 176 174
3 174 176 131
3 176 81 131
3 101 97 96
3 100 177 101
3 87 178 100
3 101 177 97
3 177 98 97
3 100 178 177
3 178 179 177
3 177 179 98
3 179 99 98
3 87 86 178
3 86 180 178
3 178 180 179
3 180 181 179
3 179 181 99
3 181 8 99
