ply
format ascii 1.0
comment VCGLIB generated
element vertex 136
property float x
property float y
property float z
property float nx
property float ny
property float nz
property float texture_u
property float texture_v
element face 250
property list uchar int vertex_indices
end_header
-287.0643 -3.605701 -103.8033 0.5854772 0.2140435 -0.7819219 -287.0643 -3.605701
-183.73 -3.605701 -42.11634 0.431373 0.2985943 -0.8513277 -183.73 -3.605701
-119.3498 -3.605701 -14.79207 -0.004940888 0.4306902 -0.9024864 -119.3498 -3.605701
-40.61616 -3.605701 -38.88343 -0.1903788 0.5080572 -0.8400201 -40.61616 -3.605701
123.9286 -3.605701 -77.72804 -0.2159457 0.4879909 -0.8457141 123.9286 -3.605701
231.8752 -3.605701 -96.4288 -0.5257664 0.3794921 -0.7612854 231.8752 -3.605701
-281.4192 62.0198 -86.21718 0.6273166 -0.01558371 -0.7786084 -281.4192 62.0198
-182.0178 62.0198 -17.45509 0.4726963 -0.02665047 -0.8808224 -182.0178 62.0198
-116.1471 62.0198 12.78807 0.1422403 0.08797359 -0.985915 -116.1471 62.0198
10.24085 59.49788 -11.22856 -0.1952697 0.2897576 -0.9369687 10.24085 59.49788
186.3419 54.2619 -52.71467 -0.2952987 0.3279981 -0.8973382 186.3419 54.2619
275.8484 51.76951 -88.59258 -0.6173603 0.1824209 -0.7652378 275.8484 51.76951
-287.0643 124.6879 -103.8033 0.5826552 -0.3649758 -0.7261581 -287.0643 124.6879
-183.73 124.6879 -42.11634 0.3926762 -0.4583291 -0.797333 -183.73 124.6879
-108.0521 124.6421 -11.20387 0.1784391 -0.4580706 -0.8708219 -108.0521 124.6421
68.49361 121.046 -9.832776 -0.130795 -0.1974302 -0.9715524 68.49361 121.046
214.4922 114.9873 -51.3596 -0.3923068 -0.004327926 -0.9198243 214.4922 114.9873
275.2595 112.7676 -90.36142 -0.7631063 -0.1560748 -0.6271439 275.2595 112.7676
-287.6978 192.2433 -144.9927 0.5500287 -0.5390933 -0.6378454 -287.6978 192.2433
-193.5301 192.235 -102.1001 0.2782441 -0.5968871 -0.7525331 -193.5301 192.235
-94.48029 187.9938 -70.14339 0.1477035 -0.6654417 -0.7316905 -94.48029 187.9938
82.19019 184.834 -38.99025 0.01000246 -0.5676834 -0.8231862 82.19019 184.834
214.4102 179.598 -57.84742 -0.2887829 -0.3280801 -0.8994265 214.4102 179.598
257.5205 177.1056 -92.13028 -0.7799509 -0.3447042 -0.522356 257.5205 177.1056
-262.919 268.1481 -181.8559 0.5805919 -0.5239131 -0.6232401 -262.919 268.1481
-190.3519 271.1367 -163.1544 0.1911425 -0.4918954 -0.8494136 -190.3519 271.1367
-102.6876 263.2856 -143.8534 0.1075717 -0.5922232 -0.7985613 -102.6876 263.2856
23.73746 249.4969 -119.3498 0.1003907 -0.6217208 -0.7767786 23.73746 249.4969
168.9554 246.4893 -83.5955 0.002851069 -0.5631854 -0.8263257 168.9554 246.4893
228.0472 244.1091 -88.69124 -0.5643689 -0.655324 -0.5020342 228.0472 244.1091
-233.1468 325.1219 -189.7882 0.5786758 -0.7663462 -0.2790127 -233.1468 325.1219
-182.0178 341.8799 -189.7882 0.1246675 -0.7951792 -0.5934206 -182.0178 341.8799
-116.308 337.0222 -187.327 -0.0324388 -0.8362585 -0.5473752 -116.308 337.0222
-32.49398 322.2202 -176.2022 -0.02239811 -0.8697115 -0.4930521 -32.49398 322.2202
65.99078 312.2099 -153.9272 0.04645659 -0.8850271 -0.4632158 65.99078 312.2099
151.4782 311.072 -133.1066 -0.1508166 -0.8753843 -0.4593002 151.4782 311.072
-230.0227 330.5145 -251.4617 0.5697371 -0.7696662 0.2881208 -230.0227 330.5145
-175.7906 346.4669 -250.5554 0.1229903 -0.9897999 0.07189934 -175.7906 346.4669
-112.7545 341.8799 -250.4431 -0.1238875 -0.9922962 0.0003002966 -112.7545 341.8799
-40.04496 327.6755 -245.5059 -0.1782195 -0.9839278 0.01112736 -40.04496 327.6755
53.60144 313.0109 -229.6245 -0.08958036 -0.9952409 0.03835212 53.60144 313.0109
136.4939 311.3747 -213.3281 -0.3546975 -0.9313797 0.08198632 136.4939 311.3747
-203.3507 319.8452 -300.0502 0.4010165 -0.612029 0.6816204 -203.3507 319.8452
-151.3929 336.3694 -300.2386 0.1519866 -0.8850964 0.4398913 -151.3929 336.3694
-95.51566 335.5485 -305.9508 -0.07337072 -0.9586182 0.2750779 -95.51566 335.5485
-36.54007 324.1525 -307.7662 -0.2139426 -0.9572535 0.1946645 -36.54007 324.1525
36.05808 306.7337 -300.0002 -0.1403793 -0.9675158 0.2102543 36.05808 306.7337
108.6653 304.7017 -294.4402 -0.3726213 -0.8874369 0.2713104 108.6653 304.7017
-161.3926 308.0391 -333.8062 0.3491707 -0.5007157 0.792063 -161.3926 308.0391
-107.7119 311.364 -337.1795 0.1771367 -0.7239742 0.6666964 -107.7119 311.364
-66.88376 313.4806 -347.4929 0.08758 -0.807698 0.5830555 -66.88376 313.4806
-25.56225 307.0393 -354.3585 -0.166585 -0.9043112 0.3930275 -25.56225 307.0393
28.10875 290.4818 -349.6119 -0.1763585 -0.9259739 0.3338713 28.10875 290.4818
89.00139 286.5125 -348.5151 -0.3940021 -0.8068292 0.4402148 89.00139 286.5125
-116.5002 281.0686 -368.6642 0.4468364 -0.6582323 0.605861 -116.5002 281.0686
-71.00708 281.7983 -371.8847 0.1720508 -0.7928153 0.584673 -71.00708 281.7983
-41.68973 284.5886 -382.8969 0.2634356 -0.7883404 0.5559866 -41.68973 284.5886
-14.02868 284.277 -395.0865 -0.005749573 -0.9204226 0.3908825 -14.02868 284.277
24.10529 275.3395 -396.126 -0.2459274 -0.9124389 0.3270703 24.10529 275.3395
76.10553 269.5092 -394.2784 -0.4854571 -0.7494662 0.4501465 76.10553 269.5092
-76.56048 263.8422 -412.189 0.2947508 -0.6508549 0.6996498 -76.56048 263.8422
-57.54462 260.8379 -416.106 0.2370767 -0.7553275 0.6109625 -57.54462 260.8379
-31.76548 264.4091 -428.0832 0.433354 -0.7173719 0.5455107 -31.76548 264.4091
-9.640248 270.335 -446.005 0.1979475 -0.7810688 0.5922402 -9.640248 270.335
22.71173 268.8425 -451.7764 -0.2607529 -0.7811187 0.5673284 22.71173 268.8425
61.63689 242.9977 -438.1453 -0.5637618 -0.6646863 0.4902702 61.63689 242.9977
-109.2454 204.9891 -444.7546 0.5582693 -0.6827459 0.4713742 -109.2454 204.9891
-68.89624 206.8235 -449.618 0.2910858 -0.7639168 0.5759342 -68.89624 206.8235
-43.7765 212.2363 -464.5591 0.4140021 -0.7561469 0.5067979 -43.7765 212.2363
-19.33841 217.4792 -481.7243 0.1743539 -0.7436252 0.6454629 -19.33841 217.4792
20.28276 213.0398 -479.0074 -0.2239381 -0.6346858 0.7396119 20.28276 213.0398
75.20209 206.8971 -463.2946 -0.5234644 -0.6108307 0.5940294 75.20209 206.8971
-147.6649 161.6086 -503.8344 0.5383615 -0.8137831 0.2189156 -147.6649 161.6086
-110.6061 168.3799 -527.4179 0.320161 -0.8683901 0.378676 -110.6061 168.3799
-81.61472 174.6706 -547.5182 0.2670178 -0.8651634 0.4244925 -81.61472 174.6706
-43.86426 176.7657 -557.985 -0.0355969 -0.8317001 0.5540829 -43.86426 176.7657
18.9841 167.3182 -537.2262 -0.3207421 -0.7239869 0.6107107 18.9841 167.3182
89.76543 162.0198 -500.3358 -0.4296713 -0.7090166 0.5591762 89.76543 162.0198
-195.0605 117.8138 -559.7854 0.621578 -0.6619268 0.4189198 -195.0605 117.8138
-152.4475 121.7845 -591.2783 0.4420246 -0.5995508 0.667198 -152.4475 121.7845
-111.45 124.3988 -610.9699 0.2701636 -0.5723546 0.7742234 -111.45 124.3988
-55.78593 124.5653 -616.6219 -0.1222891 -0.5363094 0.8351153 -55.78593 124.5653
35.93779 119.7848 -580.5778 -0.4280072 -0.4815294 0.7648132 35.93779 119.7848
125.7753 117.8694 -520.619 -0.5145919 -0.5126388 0.6873112 125.7753 117.8694
-220.0786 62.0198 -569.3329 0.7536731 -0.1510237 0.6396629 -220.0786 62.0198
-166.874 62.0198 -601.7385 0.486967 0.000334175 0.8734203 -166.874 62.0198
-116.6271 62.0198 -624.493 0.3025879 0.02876789 0.9526873 -116.6271 62.0198
-54.72618 62.0198 -634.0885 -0.1183263 -0.004084427 0.9929664 -54.72618 62.0198
52.24788 62.0198 -588.4268 -0.46753 -0.05252673 0.8824152 52.24788 62.0198
153.7296 62.0198 -518.4471 -0.5833279 -0.1014464 0.8058767 153.7296 62.0198
-229.9849 -3.605701 -543.6675 0.8076046 0.1248894 0.5763484 -229.9849 -3.605701
-174.4571 -3.605701 -573.9759 0.4573267 0.2839058 0.8427632 -174.4571 -3.605701
-120.8147 -3.605701 -600.7377 0.3368535 0.3000497 0.8924685 -120.8147 -3.605701
-54.76733 -3.605701 -616.1568 0.001691424 0.2730331 0.9620032 -54.76733 -3.605701
47.95284 -3.605701 -578.2875 -0.4238931 0.1757038 0.888506 47.95284 -3.605701
152.5503 -3.605701 -514.5641 -0.5630662 0.09786692 0.8205965 152.5503 -3.605701
-260.7222 -3.605701 -471.4584 0.7995397 0.1387562 0.5843655 -260.7222 -3.605701
249.4019 -3.605701 -439.4702 -0.6485934 0.0537633 0.7592339 249.4019 -3.605701
-332.5714 -3.605701 -389.735 0.7875639 0.2158345 0.577199 -332.5714 -3.605701
325.9818 -3.605701 -365.4128 -0.8443549 -0.01125961 0.5356661 325.9818 -3.605701
-402.8401 -3.605701 -281.6458 0.9467519 0.296847 -0.1246706 -402.8401 -3.605701
354.6006 -3.605701 -250.0532 -0.9989119 -0.04610395 -0.007030244 354.6006 -3.605701
-361.5063 -3.605701 -182.0481 0.7581123 0.2105194 -0.6172093 -361.5063 -3.605701
312.6994 -3.605701 -149.7803 -0.8635171 0.1203169 -0.4897572 312.6994 -3.605701
257.2953 62.0198 -440.2603 -0.6733007 -0.1867305 0.7154005 257.2953 62.0198
331.1988 60.49118 -354.6041 -0.865085 -0.3092438 0.3949636 331.1988 60.49118
345.5066 57.20959 -229.9813 -0.9485495 -0.2988237 -0.1046817 345.5066 57.20959
315.2898 53.44189 -149.1122 -0.8795051 -0.07870914 -0.4693354 315.2898 53.44189
214.7417 124.2644 -439.5166 -0.5742715 -0.5975021 0.5596458 214.7417 124.2644
283.3263 122.798 -350.5132 -0.6871073 -0.6534505 0.3176257 283.3263 122.798
302.3426 119.3483 -237.1327 -0.8124073 -0.5829711 0.01179576 302.3426 119.3483
298.67 115.0899 -163.9916 -0.897144 -0.3887325 -0.2098088 298.67 115.0899
148.3386 171.2196 -425.1603 -0.5115491 -0.7178842 0.4721861 148.3386 171.2196
204.6193 184.5371 -357.501 -0.5743088 -0.7242243 0.3816656 204.6193 184.5371
253.5326 182.5457 -242.8502 -0.7434574 -0.639953 0.1942457 253.5326 182.5457
265.7302 178.778 -166.3932 -0.8692169 -0.494416 -0.003839306 265.7302 178.778
98.46889 214.0824 -403.4423 -0.624324 -0.6099679 0.4880151 98.46889 214.0824
134.4768 232.6461 -351.0477 -0.6254889 -0.6276767 0.4634496 134.4768 232.6461
186.7268 246.8733 -263.9046 -0.6923488 -0.6401377 0.332982 186.7268 246.8733
228.7017 244.7932 -160.2352 -0.7699366 -0.6276665 0.1150321 228.7017 244.7932
-255.6957 61.86147 -492.4908 0.814409 -0.2004519 0.5445705 -255.6957 61.86147
-347.9878 62.0198 -393.9357 0.7719045 -0.0831767 0.6302739 -347.9878 62.0198
-428.3125 62.0198 -271.6751 0.9958078 -0.05071096 0.07612663 -428.3125 62.0198
-366.2015 62.0198 -166.4713 0.810523 0.006982068 -0.5856652 -366.2015 62.0198
-212.7718 115.0573 -485.9911 0.6006899 -0.699888 0.3864304 -212.7718 115.0573
-309.2021 122.5114 -403.0081 0.5589534 -0.5718713 0.600445 -309.2021 122.5114
-398.1151 124.6879 -286.647 0.810595 -0.5497626 0.2017346 -398.1151 124.6879
-361.5063 124.6879 -182.0481 0.7821679 -0.4210791 -0.4592448 -361.5063 124.6879
-147.3653 159.8921 -440.9926 0.5125289 -0.7941499 0.3265579 -147.3653 159.8921
-214.9902 173.8451 -380.6658 0.3428502 -0.7035633 0.6224568 -214.9902 173.8451
-320.2265 191.1647 -315.8598 0.6048245 -0.6782499 0.4173303 -320.2265 191.1647
-330.0898 192.1239 -218.9777 0.7717641 -0.6090568 -0.1828391 -330.0898 192.1239
-109.9534 214.0263 -390.655 0.710464 -0.4920297 0.5031379 -109.9534 214.0263
-156.6548 237.2753 -347.5907 0.4261902 -0.4533284 0.7828508 -156.6548 237.2753
-232.5335 261.756 -309.2348 0.5615266 -0.5148409 0.6477861 -232.5335 261.756
-272.6165 270.5323 -248.8223 0.8026901 -0.5870242 0.1053155 -272.6165 270.5323
3 0 1 7 
3 0 7 6 
3 1 2 8 
3 1 8 7 
3 2 3 9 
3 2 9 8 
3 3 4 10 
3 3 10 9 
3 4 5 11 
3 4 11 10 
3 6 7 13 
3 6 13 12 
3 7 8 14 
3 7 14 13 
3 8 9 15 
3 8 15 14 
3 9 10 16 
3 9 16 15 
3 10 11 17 
3 10 17 16 
3 12 13 19 
3 12 19 18 
3 13 14 20 
3 13 20 19 
3 14 15 21 
3 14 21 20 
3 15 16 22 
3 15 22 21 
3 16 17 23 
3 16 23 22 
3 18 19 25 
3 18 25 24 
3 19 20 26 
3 19 26 25 
3 20 21 27 
3 20 27 26 
3 21 22 28 
3 21 28 27 
3 22 23 29 
3 22 29 28 
3 24 25 31 
3 24 31 30 
3 25 26 32 
3 25 32 31 
3 26 27 33 
3 26 33 32 
3 27 28 34 
3 27 34 33 
3 28 29 35 
3 28 35 34 
3 30 31 37 
3 30 37 36 
3 31 32 38 
3 31 38 37 
3 32 33 39 
3 32 39 38 
3 33 34 40 
3 33 40 39 
3 34 35 41 
3 34 41 40 
3 36 37 43 
3 36 43 42 
3 37 38 44 
3 37 44 43 
3 38 39 45 
3 38 45 44 
3 39 40 46 
3 39 46 45 
3 40 41 47 
3 40 47 46 
3 42 43 49 
3 42 49 48 
3 43 44 50 
3 43 50 49 
3 44 45 51 
3 44 51 50 
3 45 46 52 
3 45 52 51 
3 46 47 53 
3 46 53 52 
3 48 49 55 
3 48 55 54 
3 49 50 56 
3 49 56 55 
3 50 51 57 
3 50 57 56 
3 51 52 58 
3 51 58 57 
3 52 53 59 
3 52 59 58 
3 54 55 61 
3 54 61 60 
3 55 56 62 
3 55 62 61 
3 56 57 63 
3 56 63 62 
3 57 58 64 
3 57 64 63 
3 58 59 65 
3 58 65 64 
3 60 61 67 
3 60 67 66 
3 61 62 68 
3 61 68 67 
3 62 63 69 
3 62 69 68 
3 63 64 70 
3 63 70 69 
3 64 65 71 
3 64 71 70 
3 66 67 73 
3 66 73 72 
3 67 68 74 
3 67 74 73 
3 68 69 75 
3 68 75 74 
3 69 70 76 
3 69 76 75 
3 70 71 77 
3 70 77 76 
3 72 73 79 
3 72 79 78 
3 73 74 80 
3 73 80 79 
3 74 75 81 
3 74 81 80 
3 75 76 82 
3 75 82 81 
3 76 77 83 
3 76 83 82 
3 78 79 85 
3 78 85 84 
3 79 80 86 
3 79 86 85 
3 80 81 87 
3 80 87 86 
3 81 82 88 
3 81 88 87 
3 82 83 89 
3 82 89 88 
3 84 85 91 
3 84 91 90 
3 85 86 92 
3 85 92 91 
3 86 87 93 
3 86 93 92 
3 87 88 94 
3 87 94 93 
3 88 89 95 
3 88 95 94 
3 97 95 89 
3 97 89 104 
3 99 97 104 
3 99 104 105 
3 101 99 105 
3 101 105 106 
3 103 101 106 
3 103 106 107 
3 5 103 107 
3 5 107 11 
3 104 89 83 
3 104 83 108 
3 105 104 108 
3 105 108 109 
3 106 105 109 
3 106 109 110 
3 107 106 110 
3 107 110 111 
3 11 107 111 
3 11 111 17 
3 108 83 77 
3 108 77 112 
3 109 108 112 
3 109 112 113 
3 110 109 113 
3 110 113 114 
3 111 110 114 
3 111 114 115 
3 17 111 115 
3 17 115 23 
3 112 77 71 
3 112 71 116 
3 113 112 116 
3 113 116 117 
3 114 113 117 
3 114 117 118 
3 115 114 118 
3 115 118 119 
3 23 115 119 
3 23 119 29 
3 116 71 65 
3 116 65 59 
3 117 116 59 
3 117 59 53 
3 118 117 53 
3 118 53 47 
3 119 118 47 
3 119 47 41 
3 29 119 41 
3 29 41 35 
3 90 96 120 
3 90 120 84 
3 96 98 121 
3 96 121 120 
3 98 100 122 
3 98 122 121 
3 100 102 123 
3 100 123 122 
3 102 0 6 
3 102 6 123 
3 84 120 124 
3 84 124 78 
3 120 121 125 
3 120 125 124 
3 121 122 126 
3 121 126 125 
3 122 123 127 
3 122 127 126 
3 123 6 12 
3 123 12 127 
3 78 124 128 
3 78 128 72 
3 124 125 129 
3 124 129 128 
3 125 126 130 
3 125 130 129 
3 126 127 131 
3 126 131 130 
3 127 12 18 
3 127 18 131 
3 72 128 132 
3 72 132 66 
3 128 129 133 
3 128 133 132 
3 129 130 134 
3 129 134 133 
3 130 131 135 
3 130 135 134 
3 131 18 24 
3 131 24 135 
3 66 132 54 
3 66 54 60 
3 132 133 48 
3 132 48 54 
3 133 134 42 
3 133 42 48 
3 134 135 36 
3 134 36 42 
3 135 24 30 
3 135 30 36 
