ply
format ascii 1.0
comment VCGLIB generated
element vertex 133
property float x
property float y
property float z
property float nx
property float ny
property float nz
property uchar red
property uchar green
property uchar blue
property uchar alpha
property float texture_u
property float texture_v
element face 204
property list uchar int vertex_indices
end_header
0 -28.45885 -0.9999987 -1.037092e-05 -3.129889e-08 -1 255 255 0 255 1 1
0.7071068 -30.45885 -0.7071055 0.5489913 -0.6302621 -0.5489795 255 255 0 255 0.875 0.5
0 -30.45885 -0.9999987 8.402551e-06 -0.6302651 -0.77638 255 255 0 255 1 0.5
0.7071068 -28.45885 -0.7071055 0.7071031 -2.864161e-08 -0.7071105 255 255 0 255 0.875 1
1 -30.45885 1.331399e-06 0.77638 -0.6302651 8.318842e-06 255 255 0 255 0.75 0.5
1 -28.45885 1.243976e-06 1 -5.099414e-09 -5.370352e-06 255 255 0 255 0.75 1
0.7071068 -30.45885 0.7071081 0.5489715 -0.6302862 0.5489715 255 255 0 255 0.625 0.5
0 -28.45885 1.000001 5.077708e-06 2.442519e-08 1 255 255 0 255 0.5 1
0 -30.45885 1.000001 0 -0.6302553 0.776388 255 255 0 255 0.5 0.5
-0.7071068 -30.45885 0.7071081 -0.5489913 -0.630262 0.5489795 255 255 0 255 0.375 0.5
-0.7071068 -28.45885 0.707108 -0.7070994 2.832307e-08 0.7071142 255 255 0 255 0.375 1
-1 -30.45885 1.331399e-06 -0.77638 -0.6302651 -8.286955e-06 255 255 0 255 0.25 0.5
-0.7071068 -28.45885 -0.7071055 -0.7071106 -2.881973e-08 -0.7071029 255 255 0 255 0.125 1
0 -26.59013 -0.9999988 -3.927601e-07 -4.556861e-08 -1 255 255 0 255 0 1
0 -28.45885 -0.9999987 -1.037092e-05 -3.129889e-08 -1 255 255 0 255 0 1
-1 -28.45885 1.243976e-06 -1 5.099287e-09 5.37022e-06 255 255 0 255 0.25 1
-0.7071068 -30.45885 -0.7071055 -0.5489713 -0.6302764 -0.5489829 255 255 0 255 0.125 0.5
0 -30.45885 -0.9999987 8.402551e-06 -0.6302651 -0.77638 255 255 0 255 0 0.5
0.7071068 -30.45885 0.7071081 0.5489715 -0.6302862 0.5489715 255 255 0 255 0.9197056 0.08029439
-0.7071068 -30.45885 0.7071081 -0.5489913 -0.630262 0.5489795 255 255 0 255 0.5802944 0.08029439
-0.7071068 -30.45885 -0.7071055 -0.5489713 -0.6302764 -0.5489829 255 255 0 255 0.5802944 0.4197056
-1 -26.59013 1.162291e-06 -1 1.293012e-08 5.483306e-06 255 255 0 255 0.25 1
-0.7071068 -24.48195 -0.7071057 -0.7071066 -3.18784e-08 -0.7071069 255 255 0 255 0.125 1
-0.7071068 -26.59013 -0.7071056 -0.7071106 -1.461617e-08 -0.707103 255 255 0 255 0.125 1
0.7071068 -26.59013 -0.7071056 0.7071029 -2.050091e-08 -0.7071107 255 255 0 255 0.875 1
0.7071068 -26.59013 0.707108 0.7071071 3.624355e-08 0.7071066 255 255 0 255 0.625 1
0.7071068 -28.45885 0.707108 0.7071104 2.27738e-08 0.7071031 255 255 0 255 0.625 1
0 -26.59013 1.000001 4.415342e-07 3.501778e-08 1 255 255 0 255 0.5 1
1 -26.59013 1.162291e-06 1 1.819004e-08 -5.529379e-06 255 255 0 255 0.75 1
-0.7071068 -26.59013 0.707108 -0.7071065 2.36291e-08 0.7071072 255 255 0 255 0.375 1
0.7071068 -24.48195 0.7071078 0.7071067 3.898847e-08 0.7071068 255 255 0 255 0.625 1
0 -22.17092 1.000001 7.316125e-08 4.718501e-08 1 255 255 0 255 0.5 1
0 -24.48195 1.000001 -1.411884e-07 5.415308e-08 1 255 255 0 255 0.5 1
-0.7071068 -24.48195 0.7071078 -0.7071069 3.681859e-08 0.7071066 255 255 0 255 0.375 1
0 -26.59013 -0.9999988 -3.927601e-07 -4.556861e-08 -1 255 255 0 255 1 1
0.7071068 -24.48195 -0.7071057 0.7071068 -4.599971e-08 -0.7071068 255 255 0 255 0.875 1
0 -24.48195 -0.9999989 7.059419e-08 -5.415308e-08 -1 255 255 0 255 0 1
-1 -24.48195 1.07014e-06 -1 -2.597503e-09 2.567062e-08 255 255 0 255 0.25 1
1 -24.48195 1.07014e-06 1 5.26458e-10 -3.208827e-08 255 255 0 255 0.75 1
-0.7071068 -22.17092 -0.7071058 -0.7071068 -3.675714e-08 -0.7071068 255 255 0 255 0.125 1
0 -19.89571 -0.9999991 5.421697e-06 -3.678105e-08 -1 255 255 0 255 0 1
0 -22.17092 -0.999999 -1.283531e-08 -3.880329e-08 -1 255 255 0 255 0 1
1 -22.17092 9.691219e-07 1 -1.764443e-08 -5.519181e-08 255 255 0 255 0.75 1
-0.7071068 -22.17092 0.7071077 -0.7071068 2.933718e-08 0.7071068 255 255 0 255 0.375 1
0.7071068 -22.17092 0.7071077 0.7071069 3.145723e-08 0.7071067 255 255 0 255 0.625 1
0 -24.48195 -0.9999989 7.059419e-08 -5.415308e-08 -1 255 255 0 255 1 1
0.7071068 -22.17092 -0.7071058 0.7071068 -4.757496e-08 -0.7071068 255 255 0 255 0.875 1
-1 -22.17092 9.691219e-07 -1 -1.140479e-08 5.262476e-08 255 255 0 255 0.25 1
1 -19.89571 8.69669e-07 1 2.669021e-08 2.669742e-07 255 255 0 255 0.75 1
0.7071068 -17.38986 0.7071075 0.7071032 3.535796e-08 0.7071104 255 255 0 255 0.625 1
0.7071068 -19.89571 0.7071077 0.7071065 4.352638e-08 0.7071071 255 255 0 255 0.625 1
-1 -19.89571 8.69669e-07 -1 8.531646e-10 -5.431831e-06 255 255 0 255 0.25 1
0 -19.89571 1.000001 -5.43183e-06 4.329923e-08 1 255 255 0 255 0.5 1
-0.7071068 -19.89571 -0.7071059 -0.7070993 -3.489561e-08 -0.7071143 255 255 0 255 0.125 1
-0.7071068 -19.89571 0.7071077 -0.7071105 3.463319e-08 0.7071031 255 255 0 255 0.375 1
0 -22.17092 -0.999999 -1.283531e-08 -3.880329e-08 -1 255 255 0 255 1 1
0.7071068 -19.89571 -0.7071059 0.7071069 -1.891299e-08 -0.7071066 255 255 0 255 0.875 1
-0.7071068 -17.38986 -0.707106 -0.7071068 -4.135611e-08 -0.7071068 255 255 0 255 0.125 1
-1 -14.86717 6.498648e-07 -1 -5.522674e-09 3.69656e-07 255 255 0 255 0.25 1
-0.7071068 -14.86717 -0.7071061 -0.7071104 -4.288816e-08 -0.7071032 255 255 0 255 0.125 1
0 -19.89571 -0.9999991 5.421697e-06 -3.678105e-08 -1 255 255 0 255 1 1
0.7071068 -17.38986 -0.707106 0.7071068 -4.135611e-08 -0.7071068 255 255 0 255 0.875 1
0 -17.38986 -0.9999992 5.134115e-09 -4.796086e-08 -1 255 255 0 255 0 1
-1 -17.38986 7.601351e-07 -1 -1.446194e-11 -5.113643e-06 255 255 0 255 0.25 1
0 -17.38986 1.000001 -5.200924e-06 4.624341e-08 1 255 255 0 255 0.5 1
1 -17.38986 7.601351e-07 1 -2.672982e-09 2.952117e-08 255 255 0 255 0.75 1
-0.7071068 -17.38986 0.7071075 -0.7071106 3.323477e-08 0.707103 255 255 0 255 0.375 1
0.7071068 -14.86717 0.7071074 0.7071101 3.320044e-08 0.7071034 255 255 0 255 0.625 1
0 -12.14776 1 -3.824905e-07 4.172378e-08 1 255 255 0 255 0.5 1
0 -14.86717 1.000001 9.961459e-06 4.488214e-08 1 255 255 0 255 0.5 1
-0.7071068 -14.86717 0.7071074 -0.7071031 3.37389e-08 0.7071105 255 255 0 255 0.375 1
0 -17.38986 -0.9999992 5.134115e-09 -4.796086e-08 -1 255 255 0 255 1 1
0.7071068 -14.86717 -0.7071061 0.7071071 -4.189692e-08 -0.7071066 255 255 0 255 0.875 1
0 -14.86717 -0.9999993 -4.7875e-06 -4.721111e-08 -1 255 255 0 255 0 1
1 -14.86717 6.498648e-07 1 -5.522674e-09 3.722231e-07 255 255 0 255 0.75 1
-1 -12.14776 5.309955e-07 -1 6.343674e-09 9.079658e-06 255 255 0 255 0.25 1
-0.7071068 -9.228374 -0.7071064 -0.7071068 -3.616208e-08 -0.7071068 255 255 0 255 0.125 1
-0.7071068 -12.14776 -0.7071062 -0.7071068 -2.879429e-08 -0.7071067 255 255 0 255 0.125 1
1 -12.14776 5.309955e-07 1 -7.734489e-09 4.440998e-07 255 255 0 255 0.75 1
-0.7071068 -12.14776 0.7071073 -0.7071037 3.634985e-08 0.7071099 255 255 0 255 0.375 1
0.7071068 -12.14776 0.7071073 0.7071065 3.098409e-08 0.7071071 255 255 0 255 0.625 1
0 -14.86717 -0.9999993 -4.7875e-06 -4.721111e-08 -1 255 255 0 255 1 1
0.7071068 -12.14776 -0.7071062 0.7071071 -4.053849e-08 -0.7071065 255 255 0 255 0.875 1
0 -12.14776 -0.9999995 4.774764e-06 -4.123143e-08 -1 255 255 0 255 0 1
-1 -9.228374 4.033851e-07 -1 -6.123968e-09 -8.789575e-06 255 255 0 255 0.25 1
-0.7071068 -6.357378 0.7071071 -0.7071043 2.723936e-07 0.7071093 255 255 0 255 0.375 1
-1 -6.357378 2.778898e-07 -1 3.344945e-07 8.095175e-06 255 255 0 255 0.25 1
-0.7071068 -9.228374 0.7071072 -0.7071099 2.897566e-08 0.7071037 255 255 0 255 0.375 1
0.7071068 -9.228374 0.7071072 0.7071037 3.055842e-08 0.7071099 255 255 0 255 0.625 1
0 -12.14776 -0.9999995 4.774764e-06 -4.123143e-08 -1 255 255 0 255 1 1
0.7071068 -9.228374 -0.7071064 0.7071098 -3.949442e-08 -0.7071037 255 255 0 255 0.875 1
0 -9.228374 -0.9999996 0 -4.367566e-08 -1 255 255 0 255 0 1
0 -9.228374 1 -4.365313e-06 4.128012e-08 1 255 255 0 255 0.5 1
1 -9.228374 4.033851e-07 1 -6.787545e-09 -1.309195e-07 255 255 0 255 0.75 1
0.7071068 -6.357378 -0.7071065 0.7071067 -2.710302e-07 -0.7071068 255 255 0 255 0.875 1
2.18061e-06 -3.123728 -0.9999999 -6.602416e-06 -4.479733e-08 -1 255 255 0 255 1 1
0.707109 -3.123728 -0.7071066 0.7071047 -2.697412e-07 -0.7071089 255 255 0 255 0.875 1
0.7071068 -6.357378 0.7071071 0.7071093 -2.069522e-07 0.7071043 255 255 0 255 0.625 1
0 -6.357378 1 3.575854e-06 4.406305e-08 1 255 255 0 255 0.5 1
1 -6.357378 2.778898e-07 1 -3.334313e-07 8.034849e-07 255 255 0 255 0.75 1
-0.7071068 -6.357378 -0.7071065 -0.7071069 2.042367e-07 -0.7071067 255 255 0 255 0.125 1
0 -6.357378 -0.9999997 3.532291e-06 -4.661739e-08 -1 255 255 0 255 1 1
0 -6.357378 -0.9999997 3.532291e-06 -4.661739e-08 -1 255 255 0 255 0 1
-0.9999978 -3.123728 1.365425e-07 -1 3.629509e-07 -5.955522e-07 255 255 0 255 0.25 1
-0.7071046 0.3902092 -0.7071068 -0.5489826 0.6302608 -0.5489894 255 255 0 255 0.125 1
-0.7071046 -3.123728 -0.7071066 -0.7071089 2.219898e-07 -0.7071047 255 255 0 255 0.125 1
2.18061e-06 -3.123728 -0.9999999 -6.602416e-06 -4.479733e-08 -1 255 255 0 255 0 1
2.18061e-06 -3.123728 1 -3.624628e-06 3.85805e-08 1 255 255 0 255 0.5 1
1.000002 -3.123728 1.365425e-07 1 -3.376646e-07 3.645164e-06 255 255 0 255 0.75 1
-0.7071046 -3.123728 0.7071069 -0.7071093 2.783389e-07 0.7071043 255 255 0 255 0.375 1
0.707109 -3.123728 0.7071069 0.7071043 -2.083642e-07 0.7071093 255 255 0 255 0.625 1
-0.9999978 0.3902092 -1.705659e-08 -0.7763743 0.6302722 -4.703426e-06 255 255 0 255 0.01000001 0.25
2.18061e-06 0.3902092 1 0 0.6302634 0.7763814 255 255 0 255 0.25 0.01000001
1.000002 0.3902092 -1.705659e-08 0.7763698 0.6302778 -3.188791e-08 255 255 0 255 0.49 0.25
2.18061e-06 0.3902092 1 0 0.6302634 0.7763814 255 255 0 255 0.5 1
-0.7071046 0.3902092 0.7071068 -0.5489892 0.6302554 0.5489892 255 255 0 255 0.375 1
1.000002 0.3902092 -1.705659e-08 0.7763698 0.6302778 -3.188791e-08 255 255 0 255 0.75 1
0.707109 0.3902092 0.7071068 0.5489892 0.6302553 0.5489892 255 255 0 255 0.625 1
0.707109 0.3902092 -0.7071068 0.5489894 0.6302608 -0.5489827 255 255 0 255 0.875 1
2.18061e-06 0.3902092 -1 4.751329e-06 0.6302578 -0.7763859 255 255 0 255 0 1
-0.9999978 0.3902092 -1.705659e-08 -0.7763743 0.6302722 -4.703426e-06 255 255 0 255 0.25 1
0 -30.45885 -0.9999987 8.402551e-06 -0.6302651 -0.77638 255 255 0 255 0.75 0.49
0.7071068 -30.45885 -0.7071055 0.5489913 -0.6302621 -0.5489795 255 255 0 255 0.9197056 0.4197056
1 -30.45885 1.331399e-06 0.77638 -0.6302651 8.318842e-06 255 255 0 255 0.99 0.25
0 -30.45885 1.000001 0 -0.6302553 0.776388 255 255 0 255 0.75 0.01000001
-1 -30.45885 1.331399e-06 -0.77638 -0.6302651 -8.286955e-06 255 255 0 255 0.51 0.25
0 -9.228374 -0.9999996 0 -4.367566e-08 -1 255 255 0 255 1 1
0.707109 0.3902092 -0.7071068 0.5489894 0.6302608 -0.5489827 255 255 0 255 0.4197056 0.4197056
2.18061e-06 0.3902092 -1 4.751329e-06 0.6302578 -0.7763859 255 255 0 255 0.25 0.49
-0.7071046 0.3902092 -0.7071068 -0.5489826 0.6302608 -0.5489894 255 255 0 255 0.08029439 0.4197056
-0.7071046 0.3902092 0.7071068 -0.5489892 0.6302554 0.5489892 255 255 0 255 0.08029439 0.08029439
0.707109 0.3902092 0.7071068 0.5489892 0.6302553 0.5489892 255 255 0 255 0.4197056 0.08029439
2.18061e-06 0.3902092 -1 4.751329e-06 0.6302578 -0.7763859 255 255 0 255 1 1
3 0 1 2 
3 3 4 1 
3 5 6 4 
3 6 7 8 
3 7 9 8 
3 10 11 9 
3 12 13 14 
3 15 16 11 
3 12 17 16 
3 18 19 20 
3 21 22 23 
3 0 24 3 
3 5 25 26 
3 10 21 15 
3 26 27 7 
3 12 21 23 
3 5 24 28 
3 7 29 10 
3 30 31 32 
3 27 33 29 
3 28 30 25 
3 34 35 24 
3 23 36 13 
3 29 37 21 
3 25 32 27 
3 24 38 28 
3 39 40 41 
3 35 42 38 
3 37 39 22 
3 32 43 33 
3 38 44 30 
3 45 46 35 
3 22 41 36 
3 33 47 37 
3 48 49 50 
3 43 51 47 
3 44 52 31 
3 46 48 42 
3 47 53 39 
3 31 54 43 
3 42 50 44 
3 55 56 46 
3 57 58 59 
3 60 61 56 
3 40 57 62 
3 54 63 51 
3 50 64 52 
3 56 65 48 
3 53 63 57 
3 54 64 66 
3 67 68 69 
3 66 69 70 
3 65 67 49 
3 71 72 61 
3 62 59 73 
3 63 70 58 
3 64 67 69 
3 61 74 65 
3 75 76 77 
3 72 78 74 
3 59 75 77 
3 69 79 70 
3 74 80 67 
3 81 82 72 
3 59 83 73 
3 58 79 75 
3 84 85 86 
3 68 87 79 
3 78 88 80 
3 89 90 82 
3 83 76 91 
3 79 84 75 
3 80 92 68 
3 82 93 78 
3 94 95 96 
3 92 97 98 
3 90 99 93 
3 76 86 100 
3 92 85 87 
3 93 97 88 
3 90 101 94 
3 76 102 91 
3 103 104 105 
3 102 105 106 
3 85 103 86 
3 97 107 98 
3 94 108 99 
3 86 105 100 
3 98 109 85 
3 99 110 97 
3 111 112 113 
3 109 114 115 
3 110 116 117 
3 95 118 96 
3 105 119 106 
3 109 120 103 
3 110 114 107 
3 96 116 108 
3 0 3 1 
3 3 5 4 
3 5 26 6 
3 6 26 7 
3 7 10 9 
3 10 15 11 
3 12 23 13 
3 15 12 16 
3 12 14 17 
3 20 121 122 
3 122 123 18 
3 18 124 19 
3 19 125 20 
3 20 122 18 
3 21 37 22 
3 0 34 24 
3 5 28 25 
3 10 29 21 
3 26 25 27 
3 12 15 21 
3 5 3 24 
3 7 27 29 
3 30 44 31 
3 27 32 33 
3 28 38 30 
3 34 45 35 
3 23 22 36 
3 29 33 37 
3 25 30 32 
3 24 35 38 
3 39 53 40 
3 35 46 42 
3 37 47 39 
3 32 31 43 
3 38 42 44 
3 45 55 46 
3 22 39 41 
3 33 43 47 
3 48 65 49 
3 43 54 51 
3 44 50 52 
3 46 56 48 
3 47 51 53 
3 31 52 54 
3 42 48 50 
3 55 60 56 
3 57 63 58 
3 60 71 61 
3 40 53 57 
3 54 66 63 
3 50 49 64 
3 56 61 65 
3 53 51 63 
3 54 52 64 
3 67 80 68 
3 66 64 69 
3 65 74 67 
3 71 81 72 
3 62 57 59 
3 63 66 70 
3 64 49 67 
3 61 72 74 
3 75 84 76 
3 72 82 78 
3 59 58 75 
3 69 68 79 
3 74 78 80 
3 81 89 82 
3 59 77 83 
3 58 70 79 
3 84 87 85 
3 68 92 87 
3 78 93 88 
3 89 126 90 
3 83 77 76 
3 79 87 84 
3 80 88 92 
3 82 90 93 
3 94 101 95 
3 92 88 97 
3 90 94 99 
3 76 84 86 
3 92 98 85 
3 93 99 97 
3 90 126 101 
3 76 100 102 
3 103 120 104 
3 102 100 105 
3 85 109 103 
3 97 110 107 
3 94 96 108 
3 86 103 105 
3 98 107 109 
3 99 108 110 
3 113 127 128 
3 128 129 111 
3 111 130 112 
3 112 131 113 
3 113 128 111 
3 109 107 114 
3 110 108 116 
3 95 132 118 
3 105 104 119 
3 109 115 120 
3 110 117 114 
3 96 118 116 
