ply
format ascii 1.0
comment VCGLIB generated
element vertex 464
property float x
property float y
property float z
property float nx
property float ny
property float nz
property float texture_u
property float texture_v
element face 504
property list uchar int vertex_indices
property uchar red
property uchar green
property uchar blue
property uchar alpha
end_header
2.849121 391.4611 273.9922 -0.4056111 -0.4087639 0.8175523 0.245029 0.328432
67.9837 391.9654 273.9922 -0.1370952 -0.6773328 0.7227899 0.245029 0.328432
127.5874 349.0278 273.9922 -0.2374139 -0.5326534 0.8123516 0.245029 0.328432
372.4127 349.0278 268.9564 0.1910733 -0.8157251 0.5459704 0.245029 0.328432
432.0165 391.9654 273.9922 0.3143596 -0.6183751 0.720271 0.245029 0.328432
497.1509 391.4611 273.9922 0.663793 -0.6689526 0.3344864 0.245029 0.328432
2.849121 391.4611 226.0081 -0.663793 -0.6689526 -0.3344864 0.24652 0.325533
67.9837 391.9654 226.0081 -0.2797867 -0.6318973 -0.7227899 0.243837 0.325533
127.5874 349.0278 226.0081 -0.1407517 -0.6769897 -0.7224084 0.243837 0.325533
372.4127 349.0278 226.0081 0.2815033 -0.631571 -0.7224084 0.243837 0.325533
432.0165 391.9654 226.0081 0.1370951 -0.6773328 -0.7227899 0.243837 0.325533
497.1509 391.4611 226.0081 0.6652313 -0.3338983 -0.6678167 0.243837 0.325533
2.849121 437.405 273.9922 -0.8944272 0 0.4472136 0.245029 0.328432
67.9837 437.9095 273.9922 0 0 1 0.24652 0.328216
127.5874 437.9095 273.9922 0 0 1 0.24652 0.328216
372.4127 437.9095 273.9922 0 0 1 0.24652 0.328216
432.0165 437.9095 273.9922 0 0 1 0.24652 0.328216
497.1509 437.405 273.9922 0.4472136 0 0.8944272 0.245029 0.328432
2.849121 437.405 226.0081 -0.4472136 0 -0.8944272 0.24652 0.328216
67.9837 437.9095 226.0081 0 0 -1 0.243837 0.328216
127.5874 437.9095 226.0081 0 0 -1 0.243837 0.328216
372.4127 437.9095 226.0081 0 0 -1 0.243837 0.328216
432.0165 437.9095 226.0081 0 0 -1 0.243837 0.328216
497.1509 437.405 226.0081 0.7071068 0 -0.7071068 0.243837 0.328216
130.7927 358.9608 17.45216 -0.2664435 -0.8523067 -0.4500903 0.244708 0.377257
71.18896 398.377 17.45216 -0.1883128 -0.9104605 -0.3682392 0.244708 0.377257
130.7927 358.9608 250.0001 -0.4182823 -0.9083171 -1.821992e-08 0.244708 0.377257
71.18896 398.377 250.0001 -0.1782784 -0.9839801 -1.127987e-08 0.244708 0.377257
125.2606 362.946 72.54371 -0.3515719 -0.9091051 -0.2234394 0.244708 0.377257
76.72089 397.9133 72.54371 -0.5315948 -0.449463 -0.7179067 0.244708 0.377257
125.2606 362.946 194.9088 0.1363195 -0.8100981 0.5702264 0.244708 0.377257
76.72089 397.9133 194.9088 -0.7412663 -0.6267401 0.2402525 0.244708 0.377257
123.9378 369.1938 79.85542 -0.5698717 -0.09262095 0.8164973 0.057902 0.022613
83.0661 398.6371 79.85542 -0.1460045 -0.90112 0.4082469 0.057902 0.084355
123.9378 369.1938 187.5971 -0.9305977 -0.1512496 -0.333334 0.192204 0.022613
83.0661 398.6371 187.5971 0.3460833 -0.6601393 -0.6666651 0.192204 0.084355
124.1602 361.4182 72.54371 0.1310132 -0.8059072 -0.5773639 0.245376 0.302197
120.3261 364.1802 79.85542 -0.8643212 -0.4531333 0.2182184 0.245376 0.302197
75.62042 396.3855 72.54371 -0.9023513 -0.3381373 -0.2672551 0.245376 0.302197
79.45435 393.6236 79.85542 -0.03171622 -0.8739001 0.4850698 0.245376 0.302197
124.1602 361.4182 194.9088 -0.359833 -0.9027531 0.2357057 0.245376 0.302197
120.3261 364.1802 187.5971 -0.6601359 -0.3460862 -0.6666671 0.245376 0.302197
75.62042 396.3855 194.9088 -0.6855036 -0.494345 0.5345165 0.245376 0.302197
79.45435 393.6236 187.5971 -0.2840682 -0.9101629 -0.301511 0.245376 0.302197
156.3126 364.382 371.274 0 -0.4472136 0.8944272 0.244858 0.24996
343.6874 364.382 371.274 0 -0.8944272 0.4472136 0.245555 0.24996
164.9213 374.382 371.274 0 0 1 0.244858 0.250657
335.0787 374.382 371.274 0 0 1 0.245555 0.250657
156.3126 374.382 361.274 0 0 -1 0.244713 0.250323
343.6874 374.382 361.274 0 0 -1 0.245338 0.250323
156.3126 364.382 361.274 0 -0.8944272 -0.4472136 0.244713 0.250948
343.6874 364.382 361.274 0 -0.4472136 -0.8944272 0.245338 0.250948
130.7927 358.9608 482.548 -0.3547457 -0.7222504 0.5937254 0.244708 0.377257
71.18896 398.377 482.548 -0.2137882 -0.8911116 0.4002684 0.244708 0.377257
125.2606 362.946 427.4566 -0.2734632 -0.9184077 0.2859111 0.244708 0.377257
76.72089 397.9133 427.4566 -0.4603237 -0.6650612 0.588044 0.244708 0.377257
125.2606 362.946 305.0915 -0.02734614 -0.8773949 -0.478989 0.244708 0.377257
76.72089 397.9133 305.0915 -0.8509129 -0.4419794 -0.2839042 0.244708 0.377257
123.9378 369.1938 420.1449 -0.660135 -0.3460873 -0.6666673 0.057902 0.022613
83.0661 398.6371 420.1449 0.1309839 -0.8059232 -0.5773483 0.057902 0.084355
123.9378 369.1938 312.4032 -0.9011188 0.1460059 0.408249 0.192204 0.022613
83.0661 398.6371 312.4032 0.1309839 -0.8059232 0.5773483 0.192204 0.084355
124.1602 361.4182 427.4566 0.1310132 -0.8059072 0.5773639 0.245376 0.302197
120.3261 364.1802 420.1449 -0.8643212 -0.4531334 -0.2182184 0.245376 0.302197
75.62042 396.3855 427.4566 -0.9023513 -0.3381373 0.2672551 0.245376 0.302197
79.45435 393.6236 420.1449 -0.03171616 -0.8739001 -0.4850698 0.245376 0.302197
124.1602 361.4182 305.0915 -0.359833 -0.9027531 -0.2357057 0.245376 0.302197
120.3261 364.1802 312.4032 -0.6601359 -0.3460862 0.6666671 0.245376 0.302197
75.62042 396.3855 305.0915 -0.6855036 -0.494345 -0.5345165 0.245376 0.302197
79.45435 393.6236 312.4032 -0.2840682 -0.9101629 0.301511 0.245376 0.302197
496.257 400 496.2568 0.01897844 -0.9996233 0.019828 0.234682 0.277959
500 400 500.0001 0.5345225 -0.8017837 0.2672613 0.234682 0.277959
492.1375 399.726 492.3145 0.0004582091 -0.9999998 0.0004787206 0.246053 0.301458
483.3209 399.726 477.5024 0.01585761 -0.9998602 0.005310189 0.245662 0.302569
481.8332 398.377 476.2174 0.3031293 -0.9475278 0.101508 0.245662 0.302569
477.7997 399.726 483.9734 0.003248513 -0.9999185 0.01234503 0.245662 0.302569
476.8295 398.377 482.548 0.1648816 -0.9518864 0.2583147 0.245662 0.302569
496.257 400 3.743355 0.01106965 -0.9996712 -0.02312937 0.246053 0.301458
500 400 6.9e-05 0.2672613 -0.8017837 -0.5345225 0.234682 0.277959
492.1375 399.726 7.685783 0.0009164334 -0.9999995 -0.0004787082 0.245662 0.302569
483.3209 399.726 22.4978 0.01113858 -0.9999239 -0.005300739 0.245662 0.302569
481.8332 398.377 23.78289 0.4792949 -0.8718497 -0.1007699 0.245662 0.302569
477.7997 399.726 16.02668 0.003248433 -0.9999186 -0.01234465 0.245662 0.302569
476.8295 398.377 17.45232 0.1648759 -0.9518901 -0.2583047 0.245662 0.302569
3.743286 400 3.743355 -0.02656909 -0.9995506 -0.01387864 0.246053 0.301458
0 400 6.9e-05 -0.4364358 -0.8728716 -0.2182179 0.234682 0.277959
7.862854 399.726 7.685783 -0.0004582093 -0.9999995 -0.0009574012 0.245662 0.302569
16.67908 399.726 22.4978 -0.01585735 -0.9998602 -0.005310227 0.245662 0.302569
18.16681 398.377 23.78289 -0.3031292 -0.9475275 -0.1015104 0.245662 0.302569
22.20062 399.726 16.02668 -0.003242373 -0.9999667 -0.007493618 0.245662 0.302569
23.17047 398.377 17.45232 -0.1658939 -0.9085587 -0.3834061 0.245662 0.302569
3.743286 400 496.2568 -0.009487511 -0.9997585 0.01982442 0.234682 0.277959
0 400 500.0001 -0.3333333 -0.6666667 0.6666667 0.234682 0.277959
7.862854 399.726 492.3145 -0.0009164158 -0.9999995 0.0004787192 0.246053 0.301458
16.67908 399.726 477.5024 -0.01113875 -0.9999239 0.005301128 0.245662 0.302569
18.16681 398.377 476.2174 -0.4793037 -0.8718437 0.1007795 0.245662 0.302569
22.20062 399.726 483.9734 -0.003248549 -0.9999185 0.01234497 0.245662 0.302569
23.17047 398.377 482.548 -0.140775 -0.9651638 0.220548 0.245662 0.302569
250 399.726 16.02668 0 -0.8394802 -0.5433904 0.245662 0.302569
250 399.726 7.685783 0 -0.9993983 -0.03468575 0.245662 0.302569
250 400 3.743355 0 -0.9993983 -0.03468575 0.246053 0.301458
250 400 6.9e-05 0 -0.7071068 -0.7071068 0.234682 0.277959
250 400 500.0001 0 -0.7071068 0.7071068 0.245029 0.328432
250 400 496.2568 0 -0.9993982 0.03468721 0.245029 0.328432
250 399.726 492.3145 0 -0.9993982 0.03468721 0.246053 0.301458
250 399.726 483.9734 0 -0.8394793 0.5433917 0.245662 0.302569
369.2075 400 500.0001 0 -0.7071068 0.7071068 0.245029 0.328432
369.2075 400 496.2568 0 -0.9993982 0.03468721 0.245029 0.328432
369.2075 399.726 492.3145 0 -0.9993982 0.03468721 0.246053 0.301458
369.2075 399.726 483.9734 3.329898e-05 -0.04608975 0.9989373 0.245662 0.302569
369.2075 358.9608 482.548 0.2352325 -0.7627566 0.6023853 0.244708 0.377257
369.2075 358.9608 17.45216 0.3547494 -0.7222482 -0.5937259 0.244708 0.377257
369.2075 399.726 16.02668 7.764676e-06 -0.04606119 -0.9989387 0.244708 0.377257
369.2075 399.726 7.685783 0 -0.9993983 -0.03468575 0.245662 0.302569
369.2075 400 3.743355 0 -0.9993983 -0.03468575 0.246053 0.301458
369.2075 400 6.9e-05 0 -0.7071068 -0.7071068 0.234682 0.277959
130.7927 400 500.0001 0 -0.7071068 0.7071068 0.245029 0.328432
130.7927 400 496.2568 0 -0.9993982 0.03468721 0.245029 0.328432
130.7927 399.726 492.3145 0 -0.9993982 0.03468721 0.246053 0.301458
130.7927 399.726 483.9734 -7.773187e-06 -0.0460561 0.9989389 0.245662 0.302569
130.7927 399.726 16.02668 -2.734889e-05 -0.04608004 -0.9989378 0.244708 0.377257
130.7927 399.726 7.685783 0 -0.9993983 -0.03468575 0.245662 0.302569
130.7927 400 3.743355 0 -0.9993983 -0.03468575 0.246053 0.301458
130.7927 400 6.9e-05 0 -0.7071068 -0.7071068 0.234682 0.277959
71.18896 400 500.0001 0 -0.7071068 0.7071068 0.245029 0.328432
71.18896 400 496.2568 0 -0.9993982 0.03468721 0.245029 0.328432
71.18896 399.726 492.3145 0 -0.9993982 0.03468721 0.246053 0.301458
71.18896 399.726 483.9734 -0.009497256 -0.8212549 0.5704825 0.245662 0.302569
71.18896 399.726 16.02668 -0.004374136 -0.8854681 -0.4646796 0.244708 0.377257
71.18896 399.726 7.685783 0 -0.9993983 -0.03468575 0.245662 0.302569
71.18896 400 3.743355 0 -0.9993983 -0.03468575 0.246053 0.301458
71.18896 400 6.9e-05 0 -0.7071068 -0.7071068 0.234682 0.277959
428.8112 400 500.0001 0 -0.7071068 0.7071068 0.245029 0.328432
428.8112 400 496.2568 0 -0.999615 0.0277491 0.246053 0.301458
428.8112 399.726 492.3145 0 -0.9989301 0.04624652 0.245662 0.302569
428.8112 399.726 483.9734 0.004393928 -0.9434204 0.3315701 0.245662 0.302569
428.8112 398.377 482.548 0.1872077 -0.8670182 0.4617712 0.245376 0.302197
428.8112 398.377 17.45216 0.1848689 -0.9197972 -0.3461167 0.245662 0.302569
428.8112 399.726 16.02668 0.009497504 -0.8212585 -0.5704773 0.245662 0.302569
428.8112 399.726 7.685783 0 -0.9993983 -0.03468575 0.245662 0.302569
428.8112 400 3.743355 0 -0.9993983 -0.03468575 0.246053 0.301458
428.8112 400 6.9e-05 0 -0.7071068 -0.7071068 0.234682 0.277959
334.6112 400 500.0001 0 -0.7071068 0.7071068 0.245029 0.328432
334.6112 400 496.2568 0 -0.9993982 0.03468721 0.245029 0.328432
334.6112 399.726 492.3145 0 -0.9993982 0.03468721 0.246053 0.301458
334.6112 399.726 483.9734 0 -0.04606216 0.9989386 0.245662 0.302569
334.6112 358.9608 482.548 -0.8134772 -0.4172235 0.4051905 0.244708 0.377257
334.6112 358.9608 17.45232 -0.3330369 -0.6764237 -0.656915 0.244708 0.377257
334.6112 399.726 16.02668 0 -0.04606726 -0.9989384 0.245662 0.302569
334.6112 399.726 7.685783 0 -0.9993983 -0.03468575 0.245662 0.302569
334.6112 400 3.743355 0 -0.9993983 -0.03468575 0.246053 0.301458
334.6112 400 6.9e-05 0 -0.7071068 -0.7071068 0.234682 0.277959
165.3889 400 500.0001 0 -0.7071068 0.7071068 0.245029 0.328432
165.3889 400 496.2568 0 -0.9993982 0.03468721 0.245029 0.328432
165.3889 399.726 492.3145 0 -0.9993982 0.03468721 0.246053 0.301458
165.3889 399.726 483.9734 0 -0.04606216 0.9989386 0.245662 0.302569
165.3889 358.9608 482.548 0.3330341 -0.6764244 0.6569158 0.244708 0.377257
165.3889 358.9608 17.45232 0.6648797 -0.3495201 -0.6601292 0.244708 0.377257
165.3889 399.726 16.02668 0 -0.04606726 -0.9989384 0.245662 0.302569
165.3889 399.726 7.685783 0 -0.9993983 -0.03468575 0.245662 0.302569
165.3889 400 3.743355 0 -0.9993983 -0.03468575 0.246053 0.301458
165.3889 400 6.9e-05 0 -0.7071068 -0.7071068 0.234682 0.277959
165.3889 366.9348 482.548 0.001764058 -0.04429514 0.9990169 0.245376 0.302197
165.3889 366.9348 17.45232 0.0008849606 -0.04517758 -0.9989786 0.244708 0.377257
250 366.9348 17.45232 0 -0.6219144 -0.7830852 0.245376 0.302197
250 366.9348 482.548 0 -0.6219119 0.7830872 0.245376 0.302197
334.6112 366.9348 17.45232 -0.001764062 -0.04430023 -0.9990168 0.244708 0.377257
334.6112 366.9348 482.548 -0.0008900973 -0.04515849 0.9989794 0.244708 0.377257
0 400 250.0001 -0.7071068 -0.7071068 0 0.234682 0.277959
3.743286 400 250.0001 -0.03319931 -0.9994488 0 0.234682 0.277959
7.862854 399.726 250.0001 -0.03319931 -0.9994488 0 0.246053 0.301458
16.67908 399.726 250.0001 -0.3599979 -0.9329532 0 0.245662 0.302569
18.16681 398.377 250.0001 -0.3599979 -0.9329532 0 0.245662 0.302569
23.17047 398.377 250.0001 0 -1 0 0.245376 0.302197
165.3889 358.9608 250.0001 0.7071068 -0.7071068 0 0.244708 0.377257
165.3889 366.9348 250.0001 0.7071068 -0.7071068 0 0.245376 0.302197
250 366.9348 250.0001 0 -1 0 0.245376 0.302197
334.6112 366.9348 250.0001 -0.7071068 -0.7071068 0 0.245376 0.302197
334.6112 358.9608 250.0001 -0.7071068 -0.7071068 0 0.244708 0.377257
369.2075 358.9608 250.0001 0.418286 -0.9083154 -6.202531e-09 0.244708 0.377257
428.8112 398.377 250.0001 0.1782777 -0.9839802 -3.839956e-09 0.245376 0.302197
476.8295 398.377 250.0001 0 -1 0 0.245376 0.302197
481.8332 398.377 250.0001 0.3599979 -0.9329532 0 0.245662 0.302569
483.3209 399.726 250.0001 0.3599979 -0.9329532 0 0.245662 0.302569
492.1375 399.726 250.0001 0.03319931 -0.9994488 0 0.246053 0.301458
496.257 400 250.0001 0.03319931 -0.9994488 0 0.234682 0.277959
500 400 250.0001 0.7071068 -0.7071068 0 0.234682 0.277959
374.7394 362.946 427.4566 0.3515853 -0.9091016 0.2234325 0.244708 0.377257
423.2791 397.9133 427.4566 0.5315838 -0.449439 0.7179299 0.244708 0.377257
374.7394 362.946 305.0915 -0.1362663 -0.8101239 -0.5702024 0.244708 0.377257
423.2791 397.9133 305.0915 0.7412736 -0.6267258 -0.2402671 0.244708 0.377257
376.0623 369.1938 420.1449 0.5698715 -0.09262103 -0.8164973 0.057902 0.022613
416.9341 398.6371 420.1449 0.1460027 -0.9011198 -0.4082479 0.057902 0.084355
376.0623 369.1938 312.4032 0.9305976 -0.1512497 0.3333341 0.192204 0.022613
416.9341 398.6371 312.4032 -0.3460872 -0.6601362 0.6666663 0.192204 0.084355
375.8401 361.4182 427.4566 -0.1309594 -0.8059347 0.5773379 0.245376 0.302197
379.6741 364.1802 420.1449 0.8643236 -0.4531263 -0.2182232 0.245376 0.302197
424.3799 396.3855 427.4566 0.9023609 -0.3381044 0.2672643 0.245376 0.302197
420.5458 393.6236 420.1449 0.0317049 -0.8738998 -0.4850711 0.245376 0.302197
375.8401 361.4182 305.0915 0.3598491 -0.9027498 -0.2356933 0.245376 0.302197
379.6741 364.1802 312.4032 0.6601376 -0.3460807 0.6666683 0.245376 0.302197
424.3799 396.3855 305.0915 0.6854961 -0.49434 -0.5345307 0.245376 0.302197
420.5458 393.6236 312.4032 0.2840607 -0.9101627 0.3015184 0.245376 0.302197
156.3126 364.382 138.7261 0 -0.4472136 0.8944272 0.244858 0.24996
343.6874 364.382 138.7261 0 -0.8944272 0.4472136 0.245555 0.24996
164.9213 374.382 138.7261 0 0 1 0.244858 0.250657
335.0787 374.382 138.7261 0 0 1 0.245555 0.250657
156.3126 374.382 128.7261 0 0 -1 0.244713 0.250323
343.6874 374.382 128.7261 0 0 -1 0.245338 0.250323
156.3126 364.382 128.7261 0 -0.8944272 -0.4472136 0.244713 0.250948
343.6874 364.382 128.7261 0 -0.4472136 -0.8944272 0.245338 0.250948
374.7394 362.946 72.54357 0.2734802 -0.918406 -0.2859005 0.244708 0.377257
423.2791 397.9133 72.54357 0.4603147 -0.665051 -0.5880626 0.244708 0.377257
374.7394 362.946 194.9087 0.02738741 -0.877405 0.478968 0.244708 0.377257
423.2791 397.9133 194.9087 0.8509243 -0.4419455 0.2839227 0.244708 0.377257
376.0623 369.1938 79.85528 0.6601349 -0.3460875 0.6666675 0.057902 0.022613
416.9341 398.6371 79.85528 -0.1309871 -0.8059217 0.5773497 0.057902 0.084355
376.0623 369.1938 187.597 0.9011188 0.1460058 -0.408249 0.192204 0.022613
416.9341 398.6371 187.597 -0.1309871 -0.8059217 -0.5773497 0.192204 0.084355
375.8401 361.4182 72.54357 -0.1309594 -0.8059347 -0.5773379 0.245376 0.302197
379.6741 364.1802 79.85528 0.8643236 -0.4531262 0.2182232 0.245376 0.302197
424.3799 396.3855 72.54357 0.9023609 -0.3381044 -0.2672643 0.245376 0.302197
420.5458 393.6236 79.85528 0.0317049 -0.8738998 0.4850711 0.245376 0.302197
375.8401 361.4182 194.9087 0.3598491 -0.9027498 0.2356933 0.245376 0.302197
379.6741 364.1802 187.597 0.6601376 -0.3460807 -0.6666683 0.245376 0.302197
424.3799 396.3855 194.9087 0.6854961 -0.49434 0.5345307 0.245376 0.302197
420.5458 393.6236 187.597 0.2840607 -0.9101627 -0.3015184 0.245376 0.302197
2.849121 437.405 238.0041 -1 0 0 0.245029 0.328432
2.849121 391.4611 238.0041 -0.704364 -0.709839 0 0.245029 0.328432
67.9837 391.9654 238.0041 -0.1983816 -0.9801249 0 0.245029 0.328432
127.5874 349.0278 239.0344 -0.4071107 -0.9133789 0 0.245029 0.328432
372.4127 349.0278 237.1754 0.2035553 -0.9790635 0 0.245029 0.328432
432.0165 391.9654 238.0041 0.4048612 -0.9143782 0 0.245029 0.328432
497.1509 391.4611 238.0041 0.4416583 -0.8971834 0 0.245029 0.328432
497.1509 437.405 238.0041 1 0 0 0.245029 0.328432
2.849121 437.405 261.9962 -1 0 0 0.245029 0.328432
2.849121 391.4611 261.9962 -0.704364 -0.709839 0 0.245029 0.328432
67.9837 391.9654 261.9962 -0.4048614 -0.9143781 0 0.245029 0.328432
127.5874 349.0278 261.9962 -0.173828 -0.9847761 0 0.245029 0.328432
372.4127 349.0278 261.9962 0.4071106 -0.9133789 2.065006e-09 0.245029 0.328432
432.0165 391.9654 261.9962 0.1983815 -0.9801249 1.033645e-09 0.245029 0.328432
497.1509 391.4611 261.9962 0.8307294 -0.5566765 0 0.245029 0.328432
497.1509 437.405 261.9962 1 0 0 0.245029 0.328432
358.3743 349.0278 273.9922 0.1952862 -0.8082513 0.5555117 0.245029 0.328432
372.4127 352.5156 273.9922 0.1826351 -0.7900835 0.5851602 0.24652 0.32564
379.0457 353.8062 273.9922 0.1668062 -0.8057041 0.5683455 0.245029 0.328432
500 448.9237 500.0001 0.4082483 0.4082483 0.8164966 0.233549 0.255951
500 448.9237 250.0001 0.6 0.8 0 0.233549 0.255951
0 448.9237 6.9e-05 -0.3333333 0.6666667 -0.6666667 0.233551 0.255951
71.18896 448.9237 6.9e-05 0 0.7071068 -0.7071068 0.233551 0.255951
0 448.9237 250.0001 -0.7071068 0.7071068 0 0.233551 0.255951
428.8112 448.9237 500.0001 0 0.8 0.6 0.233549 0.255951
250 448.9237 6.9e-05 0 0.7071068 -0.7071068 0.233549 0.255951
334.6112 448.9237 6.9e-05 0 0.7071068 -0.7071068 0.233549 0.255951
250 448.9237 500.0001 0 0.7071068 0.7071068 0.233549 0.255951
165.3889 448.9237 500.0001 0 0.7071068 0.7071068 0.233551 0.255951
369.2075 448.9237 500.0001 0 0.7071068 0.7071068 0.233549 0.255951
334.6112 448.9237 500.0001 0 0.7071068 0.7071068 0.233549 0.255951
369.2075 448.9237 6.9e-05 0 0.7071068 -0.7071068 0.233549 0.255951
428.8112 448.9237 6.9e-05 0 0.7071068 -0.7071068 0.233549 0.255951
130.7927 448.9237 500.0001 0 0.7071068 0.7071068 0.233551 0.255951
71.18896 448.9237 500.0001 0 0.7071068 0.7071068 0.233551 0.255951
130.7927 448.9237 6.9e-05 0 0.7071068 -0.7071068 0.233551 0.255951
165.3889 448.9237 6.9e-05 0 0.7071068 -0.7071068 0.233551 0.255951
0 448.9237 500.0001 -0.8164966 0.4082483 0.4082483 0.233551 0.255951
500 448.9237 6.9e-05 0.8164966 0.4082483 -0.4082483 0.233549 0.255951
250 448.9237 250.0001 0 1 0 0.233549 0.255951
334.6112 448.9237 250.0001 0 1 0 0.233549 0.255951
369.2075 448.9237 250.0001 0 1 0 0.233549 0.255951
428.8112 448.9237 250.0001 0 1 0 0.233549 0.255951
165.3889 448.9237 250.0001 0 1 0 0.233551 0.255951
130.7927 448.9237 250.0001 0 1 0 0.233551 0.255951
71.18896 448.9237 250.0001 0 1 0 0.233551 0.255951
2.849121 391.4611 273.9922 -0.4056111 -0.4087639 0.8175523 0.243837 0.325533
67.9837 391.9654 273.9922 -0.1370952 -0.6773328 0.7227899 0.24652 0.325533
2.849121 437.405 273.9922 -0.8944272 0 0.4472136 0.243837 0.328216
67.9837 391.9654 273.9922 -0.1370952 -0.6773328 0.7227899 0.243837 0.325533
127.5874 349.0278 273.9922 -0.2374139 -0.5326534 0.8123516 0.24652 0.325533
67.9837 437.9095 273.9922 0 0 1 0.243837 0.328216
127.5874 349.0278 273.9922 -0.2374139 -0.5326534 0.8123516 0.243837 0.325533
358.3743 349.0278 273.9922 0.1952862 -0.8082513 0.5555117 0.246366 0.325533
127.5874 437.9095 273.9922 0 0 1 0.243837 0.328216
372.4127 352.5156 273.9922 0.1826351 -0.7900835 0.5851602 0.243836 0.32564
379.0457 353.8062 273.9922 0.1668062 -0.8057041 0.5683455 0.244135 0.325533
432.0165 391.9654 273.9922 0.3143596 -0.6183751 0.720271 0.24652 0.325533
372.4127 437.9095 273.9922 0 0 1 0.243837 0.328216
432.0165 391.9654 273.9922 0.3143596 -0.6183751 0.720271 0.243837 0.325533
497.1509 391.4611 273.9922 0.663793 -0.6689526 0.3344864 0.24652 0.325533
497.1509 437.405 273.9922 0.4472136 0 0.8944272 0.24652 0.328216
432.0165 437.9095 273.9922 0 0 1 0.243837 0.328216
67.9837 391.9654 226.0081 -0.2797867 -0.6318973 -0.7227899 0.24652 0.325533
67.9837 437.9095 226.0081 0 0 -1 0.24652 0.328216
127.5874 349.0278 226.0081 -0.1407517 -0.6769897 -0.7224084 0.24652 0.325533
127.5874 437.9095 226.0081 0 0 -1 0.24652 0.328216
372.4127 349.0278 226.0081 0.2815033 -0.631571 -0.7224084 0.24652 0.325533
372.4127 437.9095 226.0081 0 0 -1 0.24652 0.328216
432.0165 391.9654 226.0081 0.1370951 -0.6773328 -0.7227899 0.24652 0.325533
432.0165 437.9095 226.0081 0 0 -1 0.24652 0.328216
123.9378 369.1938 79.85542 -0.5698717 -0.09262095 0.8164973 0.245376 0.302197
83.0661 398.6371 79.85542 -0.1460045 -0.90112 0.4082469 0.245376 0.302197
123.9378 369.1938 187.5971 -0.9305977 -0.1512496 -0.333334 0.245376 0.302197
83.0661 398.6371 187.5971 0.3460833 -0.6601393 -0.6666651 0.245376 0.302197
125.2606 362.946 72.54371 -0.3515719 -0.9091051 -0.2234394 0.245376 0.302197
125.2606 362.946 194.9088 0.1363195 -0.8100981 0.5702264 0.245376 0.302197
76.72089 397.9133 72.54371 -0.5315948 -0.449463 -0.7179067 0.245376 0.302197
76.72089 397.9133 194.9088 -0.7412663 -0.6267401 0.2402525 0.245376 0.302197
343.6874 364.382 371.274 0 -0.8944272 0.4472136 0.245338 0.251573
156.3126 364.382 371.274 0 -0.4472136 0.8944272 0.244713 0.251573
123.9378 369.1938 420.1449 -0.660135 -0.3460873 -0.6666673 0.245376 0.302197
123.9378 369.1938 312.4032 -0.9011188 0.1460059 0.408249 0.245376 0.302197
83.0661 398.6371 420.1449 0.1309839 -0.8059232 -0.5773483 0.245376 0.302197
83.0661 398.6371 312.4032 0.1309839 -0.8059232 0.5773483 0.245376 0.302197
76.72089 397.9133 427.4566 -0.4603237 -0.6650612 0.588044 0.245376 0.302197
76.72089 397.9133 305.0915 -0.8509129 -0.4419794 -0.2839042 0.245376 0.302197
125.2606 362.946 427.4566 -0.2734632 -0.9184077 0.2859111 0.245376 0.302197
125.2606 362.946 305.0915 -0.02734614 -0.8773949 -0.478989 0.245376 0.302197
496.257 400 496.2568 0.01897844 -0.9996233 0.019828 0.246053 0.301458
496.257 400 250.0001 0.03319931 -0.9994488 0 0.246053 0.301458
492.1375 399.726 492.3145 0.0004582091 -0.9999998 0.0004787206 0.245662 0.302569
492.1375 399.726 250.0001 0.03319931 -0.9994488 0 0.245662 0.302569
492.1375 399.726 7.685783 0.0009164334 -0.9999995 -0.0004787082 0.246053 0.301458
428.8112 399.726 7.685783 0 -0.9993983 -0.03468575 0.246053 0.301458
496.257 400 3.743355 0.01106965 -0.9996712 -0.02312937 0.234682 0.277959
428.8112 400 3.743355 0 -0.9993983 -0.03468575 0.234682 0.277959
3.743286 400 496.2568 -0.009487511 -0.9997585 0.01982442 0.246053 0.301458
3.743286 400 250.0001 -0.03319931 -0.9994488 0 0.246053 0.301458
7.862854 399.726 492.3145 -0.0009164158 -0.9999995 0.0004787192 0.245662 0.302569
7.862854 399.726 250.0001 -0.03319931 -0.9994488 0 0.245662 0.302569
476.8295 398.377 482.548 0.1648816 -0.9518864 0.2583147 0.245376 0.302197
428.8112 398.377 482.548 0.1872077 -0.8670182 0.4617712 0.245662 0.302569
428.8112 399.726 492.3145 0 -0.9989301 0.04624652 0.246053 0.301458
500 400 500.0001 0.5345225 -0.8017837 0.2672613 0.245029 0.328432
428.8112 400 496.2568 0 -0.999615 0.0277491 0.245029 0.328432
496.257 400 496.2568 0.01897844 -0.9996233 0.019828 0.245029 0.328432
250 399.726 7.685783 0 -0.9993983 -0.03468575 0.246053 0.301458
165.3889 399.726 7.685783 0 -0.9993983 -0.03468575 0.246053 0.301458
250 400 3.743355 0 -0.9993983 -0.03468575 0.234682 0.277959
165.3889 400 3.743355 0 -0.9993983 -0.03468575 0.234682 0.277959
250 400 496.2568 0 -0.9993982 0.03468721 0.246053 0.301458
165.3889 400 496.2568 0 -0.9993982 0.03468721 0.246053 0.301458
250 399.726 492.3145 0 -0.9993982 0.03468721 0.245662 0.302569
165.3889 399.726 492.3145 0 -0.9993982 0.03468721 0.245662 0.302569
23.17047 398.377 482.548 -0.140775 -0.9651638 0.220548 0.245376 0.302197
18.16681 398.377 476.2174 -0.4793037 -0.8718437 0.1007795 0.245376 0.302197
18.16681 398.377 250.0001 -0.3599979 -0.9329532 0 0.245376 0.302197
481.8332 398.377 476.2174 0.3031293 -0.9475278 0.101508 0.245376 0.302197
481.8332 398.377 250.0001 0.3599979 -0.9329532 0 0.245376 0.302197
369.2075 400 496.2568 0 -0.9993982 0.03468721 0.246053 0.301458
334.6112 400 496.2568 0 -0.9993982 0.03468721 0.246053 0.301458
369.2075 399.726 492.3145 0 -0.9993982 0.03468721 0.245662 0.302569
334.6112 399.726 492.3145 0 -0.9993982 0.03468721 0.245662 0.302569
369.2075 399.726 483.9734 3.329898e-05 -0.04608975 0.9989373 0.244708 0.377257
334.6112 399.726 483.9734 0 -0.04606216 0.9989386 0.244708 0.377257
369.2075 399.726 16.02668 7.764676e-06 -0.04606119 -0.9989387 0.245662 0.302569
369.2075 399.726 7.685783 0 -0.9993983 -0.03468575 0.246053 0.301458
334.6112 399.726 7.685783 0 -0.9993983 -0.03468575 0.246053 0.301458
369.2075 400 3.743355 0 -0.9993983 -0.03468575 0.234682 0.277959
334.6112 400 3.743355 0 -0.9993983 -0.03468575 0.234682 0.277959
130.7927 400 496.2568 0 -0.9993982 0.03468721 0.246053 0.301458
71.18896 400 496.2568 0 -0.9993982 0.03468721 0.246053 0.301458
130.7927 399.726 492.3145 0 -0.9993982 0.03468721 0.245662 0.302569
71.18896 399.726 492.3145 0 -0.9993982 0.03468721 0.245662 0.302569
130.7927 399.726 483.9734 -7.773187e-06 -0.0460561 0.9989389 0.244708 0.377257
71.18896 399.726 483.9734 -0.009497256 -0.8212549 0.5704825 0.244708 0.377257
130.7927 399.726 16.02668 -2.734889e-05 -0.04608004 -0.9989378 0.245662 0.302569
71.18896 399.726 16.02668 -0.004374136 -0.8854681 -0.4646796 0.245662 0.302569
130.7927 399.726 7.685783 0 -0.9993983 -0.03468575 0.246053 0.301458
71.18896 399.726 7.685783 0 -0.9993983 -0.03468575 0.246053 0.301458
130.7927 400 3.743355 0 -0.9993983 -0.03468575 0.234682 0.277959
71.18896 400 3.743355 0 -0.9993983 -0.03468575 0.234682 0.277959
0 400 500.0001 -0.3333333 -0.6666667 0.6666667 0.245029 0.328432
3.743286 400 496.2568 -0.009487511 -0.9997585 0.01982442 0.245029 0.328432
71.18896 398.377 482.548 -0.2137882 -0.8911116 0.4002684 0.245662 0.302569
71.18896 398.377 250.0001 -0.1782784 -0.9839801 -1.127987e-08 0.245376 0.302197
71.18896 398.377 482.548 -0.2137882 -0.8911116 0.4002684 0.245376 0.302197
71.18896 398.377 17.45216 -0.1883128 -0.9104605 -0.3682392 0.245662 0.302569
7.862854 399.726 7.685783 -0.0004582093 -0.9999995 -0.0009574012 0.246053 0.301458
3.743286 400 3.743355 -0.02656909 -0.9995506 -0.01387864 0.234682 0.277959
428.8112 398.377 482.548 0.1872077 -0.8670182 0.4617712 0.244708 0.377257
428.8112 399.726 483.9734 0.004393928 -0.9434204 0.3315701 0.244708 0.377257
428.8112 399.726 16.02668 0.009497504 -0.8212585 -0.5704773 0.244708 0.377257
428.8112 398.377 17.45216 0.1848689 -0.9197972 -0.3461167 0.244708 0.377257
334.6112 366.9348 482.548 -0.0008900973 -0.04515849 0.9989794 0.245376 0.302197
165.3889 366.9348 482.548 0.001764058 -0.04429514 0.9990169 0.244708 0.377257
165.3889 366.9348 250.0001 0.7071068 -0.7071068 0 0.244708 0.377257
334.6112 366.9348 250.0001 -0.7071068 -0.7071068 0 0.244708 0.377257
165.3889 399.726 483.9734 0 -0.04606216 0.9989386 0.244708 0.377257
334.6112 366.9348 482.548 -0.0008900973 -0.04515849 0.9989794 0.245662 0.302569
334.6112 399.726 16.02668 0 -0.04606726 -0.9989384 0.244708 0.377257
165.3889 399.726 16.02668 0 -0.04606726 -0.9989384 0.244708 0.377257
334.6112 366.9348 17.45232 -0.001764062 -0.04430023 -0.9990168 0.245376 0.302197
165.3889 366.9348 17.45232 0.0008849606 -0.04517758 -0.9989786 0.245662 0.302569
18.16681 398.377 23.78289 -0.3031292 -0.9475275 -0.1015104 0.245376 0.302197
23.17047 398.377 17.45232 -0.1658939 -0.9085587 -0.3834061 0.245376 0.302197
71.18896 398.377 17.45216 -0.1883128 -0.9104605 -0.3682392 0.245376 0.302197
165.3889 366.9348 17.45232 0.0008849606 -0.04517758 -0.9989786 0.245376 0.302197
428.8112 398.377 17.45216 0.1848689 -0.9197972 -0.3461167 0.245376 0.302197
476.8295 398.377 17.45232 0.1648759 -0.9518901 -0.2583047 0.245376 0.302197
481.8332 398.377 23.78289 0.4792949 -0.8718497 -0.1007699 0.245376 0.302197
428.8112 398.377 250.0001 0.1782777 -0.9839802 -3.839956e-09 0.244708 0.377257
376.0623 369.1938 420.1449 0.5698715 -0.09262103 -0.8164973 0.245376 0.302197
416.9341 398.6371 420.1449 0.1460027 -0.9011198 -0.4082479 0.245376 0.302197
376.0623 369.1938 312.4032 0.9305976 -0.1512497 0.3333341 0.245376 0.302197
416.9341 398.6371 312.4032 -0.3460872 -0.6601362 0.6666663 0.245376 0.302197
374.7394 362.946 427.4566 0.3515853 -0.9091016 0.2234325 0.245376 0.302197
374.7394 362.946 305.0915 -0.1362663 -0.8101239 -0.5702024 0.245376 0.302197
423.2791 397.9133 427.4566 0.5315838 -0.449439 0.7179299 0.245376 0.302197
423.2791 397.9133 305.0915 0.7412736 -0.6267258 -0.2402671 0.245376 0.302197
343.6874 364.382 138.7261 0 -0.8944272 0.4472136 0.245338 0.251573
156.3126 364.382 138.7261 0 -0.4472136 0.8944272 0.244713 0.251573
376.0623 369.1938 79.85528 0.6601349 -0.3460875 0.6666675 0.245376 0.302197
376.0623 369.1938 187.597 0.9011188 0.1460058 -0.408249 0.245376 0.302197
416.9341 398.6371 79.85528 -0.1309871 -0.8059217 0.5773497 0.245376 0.302197
416.9341 398.6371 187.597 -0.1309871 -0.8059217 -0.5773497 0.245376 0.302197
423.2791 397.9133 72.54357 0.4603147 -0.665051 -0.5880626 0.245376 0.302197
423.2791 397.9133 194.9087 0.8509243 -0.4419455 0.2839227 0.245376 0.302197
374.7394 362.946 72.54357 0.2734802 -0.918406 -0.2859005 0.245376 0.302197
374.7394 362.946 194.9087 0.02738741 -0.877405 0.478968 0.245376 0.302197
2.849121 391.4611 226.0081 -0.663793 -0.6689526 -0.3344864 0.245029 0.328432
2.849121 437.405 226.0081 -0.4472136 0 -0.8944272 0.245029 0.328432
67.9837 391.9654 226.0081 -0.2797867 -0.6318973 -0.7227899 0.245029 0.328432
127.5874 349.0278 226.0081 -0.1407517 -0.6769897 -0.7224084 0.245029 0.328432
372.4127 349.0278 226.0081 0.2815033 -0.631571 -0.7224084 0.245029 0.328432
432.0165 391.9654 226.0081 0.1370951 -0.6773328 -0.7227899 0.245029 0.328432
497.1509 391.4611 226.0081 0.6652313 -0.3338983 -0.6678167 0.245029 0.328432
497.1509 437.405 226.0081 0.7071068 0 -0.7071068 0.245029 0.328432
2.849121 391.4611 261.9962 -0.704364 -0.709839 0 0.235638 0.276507
2.849121 437.405 261.9962 -1 0 0 0.235638 0.276507
2.849121 437.405 238.0041 -1 0 0 0.235638 0.276507
2.849121 391.4611 238.0041 -0.704364 -0.709839 0 0.235638 0.276507
67.9837 391.9654 238.0041 -0.1983816 -0.9801249 0 0.235638 0.276507
67.9837 391.9654 261.9962 -0.4048614 -0.9143781 0 0.235638 0.276507
127.5874 349.0278 239.0344 -0.4071107 -0.9133789 0 0.235638 0.276507
127.5874 349.0278 261.9962 -0.173828 -0.9847761 0 0.235638 0.276507
372.4127 349.0278 237.1754 0.2035553 -0.9790635 0 0.235638 0.276507
372.4127 349.0278 261.9962 0.4071106 -0.9133789 2.065006e-09 0.235638 0.276507
432.0165 391.9654 238.0041 0.4048612 -0.9143782 0 0.235638 0.276507
432.0165 391.9654 261.9962 0.1983815 -0.9801249 1.033645e-09 0.235638 0.276507
497.1509 391.4611 238.0041 0.4416583 -0.8971834 0 0.235638 0.276507
497.1509 391.4611 261.9962 0.8307294 -0.5566765 0 0.235638 0.276507
497.1509 437.405 238.0041 1 0 0 0.235638 0.276507
497.1509 437.405 261.9962 1 0 0 0.235638 0.276507
372.4127 349.0278 268.9564 0.1910733 -0.8157251 0.5459704 0.24652 0.325533
372.4127 349.0278 268.9564 0.1910733 -0.8157251 0.5459704 0.243837 0.325533
500 400 500.0001 0.5345225 -0.8017837 0.2672613 0.233549 0.255951
500 400 250.0001 0.7071068 -0.7071068 0 0.233549 0.255951
71.18896 400 6.9e-05 0 -0.7071068 -0.7071068 0.233551 0.255951
0 400 6.9e-05 -0.4364358 -0.8728716 -0.2182179 0.233551 0.255951
0 400 250.0001 -0.7071068 -0.7071068 0 0.233551 0.255951
428.8112 400 500.0001 0 -0.7071068 0.7071068 0.233549 0.255951
334.6112 400 6.9e-05 0 -0.7071068 -0.7071068 0.233549 0.255951
250 400 6.9e-05 0 -0.7071068 -0.7071068 0.233549 0.255951
165.3889 400 500.0001 0 -0.7071068 0.7071068 0.233551 0.255951
250 400 500.0001 0 -0.7071068 0.7071068 0.233549 0.255951
334.6112 400 500.0001 0 -0.7071068 0.7071068 0.233549 0.255951
369.2075 400 500.0001 0 -0.7071068 0.7071068 0.233549 0.255951
428.8112 400 6.9e-05 0 -0.7071068 -0.7071068 0.233549 0.255951
369.2075 400 6.9e-05 0 -0.7071068 -0.7071068 0.233549 0.255951
71.18896 400 500.0001 0 -0.7071068 0.7071068 0.233551 0.255951
130.7927 400 500.0001 0 -0.7071068 0.7071068 0.233551 0.255951
165.3889 400 6.9e-05 0 -0.7071068 -0.7071068 0.233551 0.255951
130.7927 400 6.9e-05 0 -0.7071068 -0.7071068 0.233551 0.255951
0 400 500.0001 -0.3333333 -0.6666667 0.6666667 0.233551 0.255951
500 400 6.9e-05 0.2672613 -0.8017837 -0.5345225 0.233549 0.255951
3 236 0 12 192 192 192 255 
3 236 12 235 192 192 192 255 
3 2 1 237 192 192 192 255 
3 2 237 238 192 192 192 255 
3 238 239 3 192 192 192 255 
3 238 3 243 192 192 192 255 
3 238 243 2 192 192 192 255 
3 4 245 3 192 192 192 255 
3 4 3 239 192 192 192 255 
3 4 239 240 192 192 192 255 
3 5 241 242 192 192 192 255 
3 5 242 17 192 192 192 255 
3 273 274 13 192 192 192 255 
3 273 13 275 192 192 192 255 
3 276 277 14 192 192 192 255 
3 276 14 278 192 192 192 255 
3 279 280 244 192 192 192 255 
3 279 244 15 192 192 192 255 
3 279 15 281 192 192 192 255 
3 282 283 284 192 192 192 255 
3 282 284 16 192 192 192 255 
3 282 16 285 192 192 192 255 
3 286 287 288 192 192 192 255 
3 286 288 289 192 192 192 255 
3 7 6 18 192 192 192 255 
3 7 18 19 192 192 192 255 
3 8 290 291 192 192 192 255 
3 8 291 20 192 192 192 255 
3 9 292 293 192 192 192 255 
3 9 293 21 192 192 192 255 
3 10 294 295 192 192 192 255 
3 10 295 22 192 192 192 255 
3 11 296 297 192 192 192 255 
3 11 297 23 192 192 192 255 
3 1 0 236 192 192 192 255 
3 1 236 237 192 192 192 255 
3 5 4 240 192 192 192 255 
3 5 240 241 192 192 192 255 
3 33 32 34 192 192 192 255 
3 33 34 35 192 192 192 255 
3 28 24 26 192 192 192 255 
3 28 26 30 192 192 192 255 
3 25 24 28 192 192 192 255 
3 25 28 29 192 192 192 255 
3 26 27 31 192 192 192 255 
3 26 31 30 192 192 192 255 
3 31 27 25 192 192 192 255 
3 31 25 29 192 192 192 255 
3 37 36 40 192 192 192 255 
3 37 40 41 192 192 192 255 
3 38 36 37 192 192 192 255 
3 38 37 39 192 192 192 255 
3 40 42 43 192 192 192 255 
3 40 43 41 192 192 192 255 
3 39 43 42 192 192 192 255 
3 39 42 38 192 192 192 255 
3 298 299 39 192 192 192 255 
3 298 39 37 192 192 192 255 
3 37 41 300 192 192 192 255 
3 37 300 298 192 192 192 255 
3 301 300 41 192 192 192 255 
3 301 41 43 192 192 192 255 
3 36 302 303 192 192 192 255 
3 36 303 40 192 192 192 255 
3 39 299 301 192 192 192 255 
3 39 301 43 192 192 192 255 
3 304 302 36 192 192 192 255 
3 304 36 38 192 192 192 255 
3 303 305 42 192 192 192 255 
3 303 42 40 192 192 192 255 
3 38 42 305 192 192 192 255 
3 38 305 304 192 192 192 255 
3 44 45 47 192 192 192 255 
3 44 47 46 192 192 192 255 
3 48 49 51 192 192 192 255 
3 48 51 50 192 192 192 255 
3 50 51 306 192 192 192 255 
3 50 306 307 192 192 192 255 
3 61 60 58 192 192 192 255 
3 61 58 59 192 192 192 255 
3 55 53 27 192 192 192 255 
3 55 27 57 192 192 192 255 
3 53 55 54 192 192 192 255 
3 53 54 52 192 192 192 255 
3 56 26 52 192 192 192 255 
3 56 52 54 192 192 192 255 
3 26 56 57 192 192 192 255 
3 26 57 27 192 192 192 255 
3 65 64 68 192 192 192 255 
3 65 68 69 192 192 192 255 
3 64 65 63 192 192 192 255 
3 64 63 62 192 192 192 255 
3 63 67 66 192 192 192 255 
3 63 66 62 192 192 192 255 
3 66 67 69 192 192 192 255 
3 66 69 68 192 192 192 255 
3 63 308 309 192 192 192 255 
3 63 309 67 192 192 192 255 
3 308 63 65 192 192 192 255 
3 308 65 310 192 192 192 255 
3 311 69 67 192 192 192 255 
3 311 67 309 192 192 192 255 
3 64 312 313 192 192 192 255 
3 64 313 68 192 192 192 255 
3 312 64 62 192 192 192 255 
3 312 62 314 192 192 192 255 
3 62 66 315 192 192 192 255 
3 62 315 314 192 192 192 255 
3 315 66 68 192 192 192 255 
3 315 68 313 192 192 192 255 
3 65 69 311 192 192 192 255 
3 65 311 310 192 192 192 255 
3 186 71 70 192 192 192 255 
3 186 70 185 192 192 192 255 
3 316 72 184 192 192 192 255 
3 316 184 317 192 192 192 255 
3 318 73 183 192 192 192 255 
3 318 183 319 192 192 192 255 
3 73 74 182 192 192 192 255 
3 73 182 183 192 192 192 255 
3 73 75 76 192 192 192 255 
3 73 76 74 192 192 192 255 
3 318 75 73 192 192 192 255 
3 80 81 83 192 192 192 255 
3 80 83 82 192 192 192 255 
3 79 80 82 192 192 192 255 
3 82 83 137 192 192 192 255 
3 82 137 138 192 192 192 255 
3 79 82 138 192 192 192 255 
3 79 138 139 192 192 192 255 
3 77 320 321 192 192 192 255 
3 77 321 140 192 192 192 255 
3 141 78 322 192 192 192 255 
3 141 322 323 192 192 192 255 
3 91 92 168 192 192 192 255 
3 91 168 169 192 192 192 255 
3 93 324 325 192 192 192 255 
3 93 325 170 192 192 192 255 
3 94 326 327 192 192 192 255 
3 94 327 171 192 192 192 255 
3 95 94 171 192 192 192 255 
3 95 171 172 192 192 192 255 
3 87 89 90 192 192 192 255 
3 87 90 88 192 192 192 255 
3 86 89 87 192 192 192 255 
3 328 136 180 192 192 192 255 
3 328 180 181 192 192 192 255 
3 94 95 97 192 192 192 255 
3 94 97 96 192 192 192 255 
3 326 94 96 192 192 192 255 
3 75 135 329 192 192 192 255 
3 75 329 76 192 192 192 255 
3 318 134 135 192 192 192 255 
3 318 135 75 192 192 192 255 
3 316 133 330 192 192 192 255 
3 316 330 72 192 192 192 255 
3 331 132 332 192 192 192 255 
3 331 332 333 192 192 192 255 
3 99 98 158 192 192 192 255 
3 99 158 159 192 192 192 255 
3 100 334 335 192 192 192 255 
3 100 335 160 192 192 192 255 
3 161 101 336 192 192 192 255 
3 161 336 337 192 192 192 255 
3 102 152 153 192 192 192 255 
3 102 153 103 192 192 192 255 
3 104 338 339 192 192 192 255 
3 104 339 154 192 192 192 255 
3 105 340 341 192 192 192 255 
3 105 341 155 192 192 192 255 
3 165 162 175 192 192 192 255 
3 165 175 176 192 192 192 255 
3 342 343 344 192 192 192 255 
3 342 344 173 192 192 192 255 
3 345 328 181 192 192 192 255 
3 345 181 346 192 192 192 255 
3 106 142 143 192 192 192 255 
3 106 143 107 192 192 192 255 
3 108 347 348 192 192 192 255 
3 108 348 144 192 192 192 255 
3 109 349 350 192 192 192 255 
3 109 350 145 192 192 192 255 
3 167 351 352 192 192 192 255 
3 110 146 178 192 192 192 255 
3 110 178 179 192 192 192 255 
3 112 111 147 192 192 192 255 
3 112 147 166 192 192 192 255 
3 113 353 148 192 192 192 255 
3 113 148 149 192 192 192 255 
3 114 354 355 192 192 192 255 
3 114 355 150 192 192 192 255 
3 151 115 356 192 192 192 255 
3 151 356 357 192 192 192 255 
3 116 124 125 192 192 192 255 
3 116 125 117 192 192 192 255 
3 118 358 359 192 192 192 255 
3 118 359 126 192 192 192 255 
3 119 360 361 192 192 192 255 
3 119 361 127 192 192 192 255 
3 52 362 363 192 192 192 255 
3 52 363 53 192 192 192 255 
3 120 24 25 192 192 192 255 
3 120 25 128 192 192 192 255 
3 121 364 365 192 192 192 255 
3 121 365 129 192 192 192 255 
3 122 366 367 192 192 192 255 
3 122 367 130 192 192 192 255 
3 131 123 368 192 192 192 255 
3 131 368 369 192 192 192 255 
3 124 370 371 192 192 192 255 
3 124 371 125 192 192 192 255 
3 126 359 324 192 192 192 255 
3 126 324 93 192 192 192 255 
3 127 361 326 192 192 192 255 
3 127 326 96 192 192 192 255 
3 372 127 96 192 192 192 255 
3 372 96 97 192 192 192 255 
3 373 374 342 192 192 192 255 
3 373 342 173 192 192 192 255 
3 365 375 90 192 192 192 255 
3 365 90 89 192 192 192 255 
3 129 365 89 192 192 192 255 
3 129 89 86 192 192 192 255 
3 130 367 376 192 192 192 255 
3 130 376 84 192 192 192 255 
3 85 131 369 192 192 192 255 
3 85 369 377 192 192 192 255 
3 132 106 107 192 192 192 255 
3 132 107 332 192 192 192 255 
3 330 133 347 192 192 192 255 
3 330 347 108 192 192 192 255 
3 135 134 349 192 192 192 255 
3 135 349 109 192 192 192 255 
3 378 379 351 192 192 192 255 
3 378 351 110 192 192 192 255 
3 192 191 193 192 192 192 255 
3 192 193 194 192 192 192 255 
3 380 381 111 192 192 192 255 
3 380 111 112 192 192 192 255 
3 139 138 353 192 192 192 255 
3 139 353 113 192 192 192 255 
3 140 321 354 192 192 192 255 
3 140 354 114 192 192 192 255 
3 115 141 323 192 192 192 255 
3 115 323 356 192 192 192 255 
3 142 102 103 192 192 192 255 
3 142 103 143 192 192 192 255 
3 144 348 338 192 192 192 255 
3 144 338 104 192 192 192 255 
3 145 350 340 192 192 192 255 
3 145 340 105 192 192 192 255 
3 382 165 176 192 192 192 255 
3 382 176 177 192 192 192 255 
3 149 148 98 192 192 192 255 
3 149 98 99 192 192 192 255 
3 150 355 334 192 192 192 255 
3 150 334 100 192 192 192 255 
3 101 151 357 192 192 192 255 
3 101 357 336 192 192 192 255 
3 152 116 117 192 192 192 255 
3 152 117 153 192 192 192 255 
3 154 339 358 192 192 192 255 
3 154 358 118 192 192 192 255 
3 155 341 360 192 192 192 255 
3 155 360 119 192 192 192 255 
3 156 383 362 192 192 192 255 
3 156 362 52 192 192 192 255 
3 156 52 26 192 192 192 255 
3 156 26 174 192 192 192 255 
3 120 163 157 192 192 192 255 
3 120 157 24 192 192 192 255 
3 159 158 364 192 192 192 255 
3 159 364 121 192 192 192 255 
3 160 335 366 192 192 192 255 
3 160 366 122 192 192 192 255 
3 123 161 337 192 192 192 255 
3 123 337 368 192 192 192 255 
3 383 156 174 192 192 192 255 
3 383 174 384 192 192 192 255 
3 146 167 385 192 192 192 255 
3 146 385 178 192 192 192 255 
3 362 383 386 192 192 192 255 
3 110 351 167 192 192 192 255 
3 110 167 146 192 192 192 255 
3 165 105 155 192 192 192 255 
3 165 155 162 192 192 192 255 
3 165 387 145 192 192 192 255 
3 165 145 105 192 192 192 255 
3 112 166 388 192 192 192 255 
3 389 163 120 192 192 192 255 
3 164 98 148 192 192 192 255 
3 164 148 390 192 192 192 255 
3 164 391 158 192 192 192 255 
3 164 158 98 192 192 192 255 
3 169 168 85 192 192 192 255 
3 169 85 377 192 192 192 255 
3 170 325 84 192 192 192 255 
3 170 84 376 192 192 192 255 
3 171 327 86 192 192 192 255 
3 171 86 87 192 192 192 255 
3 172 171 87 192 192 192 255 
3 172 87 88 192 192 192 255 
3 173 344 392 192 192 192 255 
3 173 392 393 192 192 192 255 
3 394 373 173 192 192 192 255 
3 394 173 393 192 192 192 255 
3 174 26 24 192 192 192 255 
3 174 24 157 192 192 192 255 
3 384 174 157 192 192 192 255 
3 384 157 163 192 192 192 255 
3 176 175 395 192 192 192 255 
3 176 395 164 192 192 192 255 
3 177 176 164 192 192 192 255 
3 177 164 390 192 192 192 255 
3 178 385 166 192 192 192 255 
3 178 166 147 192 192 192 255 
3 179 178 147 192 192 192 255 
3 179 147 111 192 192 192 255 
3 181 180 396 192 192 192 255 
3 181 396 397 192 192 192 255 
3 346 181 397 192 192 192 255 
3 346 397 398 192 192 192 255 
3 183 182 81 192 192 192 255 
3 183 81 80 192 192 192 255 
3 319 183 80 192 192 192 255 
3 319 80 79 192 192 192 255 
3 317 184 320 192 192 192 255 
3 317 320 77 192 192 192 255 
3 78 186 185 192 192 192 255 
3 78 185 322 192 192 192 255 
3 187 110 179 192 192 192 255 
3 187 179 189 192 192 192 255 
3 378 110 187 192 192 192 255 
3 378 187 188 192 192 192 255 
3 179 399 190 192 192 192 255 
3 179 190 189 192 192 192 255 
3 190 399 378 192 192 192 255 
3 190 378 188 192 192 192 255 
3 196 195 199 192 192 192 255 
3 196 199 200 192 192 192 255 
3 197 195 196 192 192 192 255 
3 197 196 198 192 192 192 255 
3 199 201 202 192 192 192 255 
3 199 202 200 192 192 192 255 
3 198 202 201 192 192 192 255 
3 198 201 197 192 192 192 255 
3 400 401 198 192 192 192 255 
3 400 198 196 192 192 192 255 
3 196 200 402 192 192 192 255 
3 196 402 400 192 192 192 255 
3 403 402 200 192 192 192 255 
3 403 200 202 192 192 192 255 
3 195 404 405 192 192 192 255 
3 195 405 199 192 192 192 255 
3 198 401 403 192 192 192 255 
3 198 403 202 192 192 192 255 
3 406 404 195 192 192 192 255 
3 406 195 197 192 192 192 255 
3 405 407 201 192 192 192 255 
3 405 201 199 192 192 192 255 
3 197 201 407 192 192 192 255 
3 197 407 406 192 192 192 255 
3 203 204 206 192 192 192 255 
3 203 206 205 192 192 192 255 
3 207 208 210 192 192 192 255 
3 207 210 209 192 192 192 255 
3 209 210 408 192 192 192 255 
3 209 408 409 192 192 192 255 
3 218 217 215 192 192 192 255 
3 218 215 216 192 192 192 255 
3 212 381 399 192 192 192 255 
3 212 399 214 192 192 192 255 
3 381 212 211 192 192 192 255 
3 381 211 111 192 192 192 255 
3 213 179 111 192 192 192 255 
3 213 111 211 192 192 192 255 
3 179 213 214 192 192 192 255 
3 179 214 399 192 192 192 255 
3 222 221 225 192 192 192 255 
3 222 225 226 192 192 192 255 
3 221 222 220 192 192 192 255 
3 221 220 219 192 192 192 255 
3 220 224 223 192 192 192 255 
3 220 223 219 192 192 192 255 
3 223 224 226 192 192 192 255 
3 223 226 225 192 192 192 255 
3 220 410 411 192 192 192 255 
3 220 411 224 192 192 192 255 
3 410 220 222 192 192 192 255 
3 410 222 412 192 192 192 255 
3 413 226 224 192 192 192 255 
3 413 224 411 192 192 192 255 
3 221 414 415 192 192 192 255 
3 221 415 225 192 192 192 255 
3 414 221 219 192 192 192 255 
3 414 219 416 192 192 192 255 
3 219 223 417 192 192 192 255 
3 219 417 416 192 192 192 255 
3 417 223 225 192 192 192 255 
3 417 225 415 192 192 192 255 
3 222 226 413 192 192 192 255 
3 222 413 412 192 192 192 255 
3 418 228 227 192 192 192 255 
3 418 227 419 192 192 192 255 
3 229 228 418 192 192 192 255 
3 229 418 420 192 192 192 255 
3 230 229 420 192 192 192 255 
3 230 420 421 192 192 192 255 
3 421 422 231 192 192 192 255 
3 421 231 230 192 192 192 255 
3 232 231 422 192 192 192 255 
3 232 422 423 192 192 192 255 
3 233 232 423 192 192 192 255 
3 233 423 424 192 192 192 255 
3 234 233 424 192 192 192 255 
3 234 424 425 192 192 192 255 
3 426 427 428 192 192 192 255 
3 426 428 429 192 192 192 255 
3 430 431 426 192 192 192 255 
3 430 426 429 192 192 192 255 
3 432 433 431 192 192 192 255 
3 432 431 430 192 192 192 255 
3 434 435 433 192 192 192 255 
3 434 433 432 192 192 192 255 
3 436 437 435 192 192 192 255 
3 436 435 434 192 192 192 255 
3 438 439 437 192 192 192 255 
3 438 437 436 192 192 192 255 
3 440 441 439 192 192 192 255 
3 440 439 438 192 192 192 255 
3 244 280 442 192 192 192 255 
3 443 283 282 192 192 192 255 
3 444 445 247 192 192 192 255 
3 444 247 246 192 192 192 255 
3 446 447 248 192 192 192 255 
3 446 248 249 192 192 192 255 
3 447 448 250 192 192 192 255 
3 447 250 248 192 192 192 255 
3 449 444 246 192 192 192 255 
3 449 246 251 192 192 192 255 
3 450 451 252 192 192 192 255 
3 450 252 253 192 192 192 255 
3 452 453 254 192 192 192 255 
3 452 254 255 192 192 192 255 
3 454 455 256 192 192 192 255 
3 454 256 257 192 192 192 255 
3 456 457 258 192 192 192 255 
3 456 258 259 192 192 192 255 
3 458 459 260 192 192 192 255 
3 458 260 261 192 192 192 255 
3 460 461 262 192 192 192 255 
3 460 262 263 192 192 192 255 
3 462 458 261 192 192 192 255 
3 462 261 264 192 192 192 255 
3 461 446 249 192 192 192 255 
3 461 249 262 192 192 192 255 
3 455 449 251 192 192 192 255 
3 455 251 256 192 192 192 255 
3 463 456 259 192 192 192 255 
3 463 259 265 192 192 192 255 
3 453 454 257 192 192 192 255 
3 453 257 254 192 192 192 255 
3 457 450 253 192 192 192 255 
3 457 253 258 192 192 192 255 
3 459 452 255 192 192 192 255 
3 459 255 260 192 192 192 255 
3 451 460 263 192 192 192 255 
3 451 263 252 192 192 192 255 
3 448 462 264 192 192 192 255 
3 448 264 250 192 192 192 255 
3 445 463 265 192 192 192 255 
3 445 265 247 192 192 192 255 
3 266 252 263 192 192 192 255 
3 266 263 270 192 192 192 255 
3 254 266 270 192 192 192 255 
3 254 270 255 192 192 192 255 
3 256 268 267 192 192 192 255 
3 256 267 257 192 192 192 255 
3 268 258 253 192 192 192 255 
3 268 253 267 192 192 192 255 
3 267 253 252 192 192 192 255 
3 267 252 266 192 192 192 255 
3 257 267 266 192 192 192 255 
3 257 266 254 192 192 192 255 
3 247 269 251 192 192 192 255 
3 247 251 246 192 192 192 255 
3 247 265 259 192 192 192 255 
3 247 259 269 192 192 192 255 
3 269 259 258 192 192 192 255 
3 269 258 268 192 192 192 255 
3 251 269 268 192 192 192 255 
3 251 268 256 192 192 192 255 
3 271 262 249 192 192 192 255 
3 271 249 272 192 192 192 255 
3 260 271 272 192 192 192 255 
3 260 272 261 192 192 192 255 
3 255 270 271 192 192 192 255 
3 255 271 260 192 192 192 255 
3 270 263 262 192 192 192 255 
3 270 262 271 192 192 192 255 
3 272 249 248 192 192 192 255 
3 272 248 250 192 192 192 255 
3 261 272 250 192 192 192 255 
3 261 250 264 192 192 192 255 
