ply
format ascii 1.0
comment VCGLIB generated
element vertex 40
property float x
property float y
property float z
property float nx
property float ny
property float nz
property uchar red
property uchar green
property uchar blue
property uchar alpha
property float texture_u
property float texture_v
element face 20
property list uchar int vertex_indices
end_header
0 0 0.15 0 7.934133e-10 -1 255 255 255 255 250 -150
0 3 0.15 0 7.934133e-10 -1 255 255 255 255 250 150
-5 3 0.15 0 7.934133e-10 -1 255 255 255 255 -250 150
-5 0 0.15 0 7.934133e-10 -1 255 255 255 255 -250 -150
0 0 -0.15 -1 -0 -0 255 255 255 255 250 -150
0 3 -0.15 -1 -0 -0 255 255 255 255 250 150
0 3 0.15 -1 -0 -0 255 255 255 255 250 150
0 0 0.15 -1 -0 -0 255 255 255 255 250 -150
0 0 -0.15 0 1 -4.371139e-08 255 255 255 255 250 -150
0 0 0.15 0 1 -4.371139e-08 255 255 255 255 250 -150
-5 0 0.15 0 1 -4.371139e-08 255 255 255 255 -250 -150
-5 0 -0.15 0 1 -4.371139e-08 255 255 255 255 -250 -150
-5 0 0.15 1 0 0 255 255 255 255 -250 -150
-5 3 0.15 1 0 0 255 255 255 255 -250 150
-5 3 -0.15 1 0 0 255 255 255 255 -250 150
-5 0 -0.15 1 0 0 255 255 255 255 -250 -150
0 3 0.15 0 -1 4.371139e-08 255 255 255 255 250 150
0 3 -0.15 0 -1 4.371139e-08 255 255 255 255 250 150
-5 3 -0.15 0 -1 4.371139e-08 255 255 255 255 -250 150
-5 3 0.15 0 -1 4.371139e-08 255 255 255 255 -250 150
-5 3 -0.2086669 0 1 -4.371139e-08 255 255 255 255 -250 150
0 3 -0.2086669 0 1 -4.371139e-08 255 255 255 255 250 150
0 3 0.2086669 0 1 -4.371139e-08 255 255 255 255 250 150
-5 3 0.2086669 0 1 -4.371139e-08 255 255 255 255 -250 150
0 3.075 0.2086669 0 -1 4.371139e-08 255 255 255 255 250 157.5
0 3.075 -0.2086669 0 -1 4.371139e-08 255 255 255 255 250 157.5
-5 3.075 -0.2086669 0 -1 4.371139e-08 255 255 255 255 -250 157.5
-5 3.075 0.2086669 0 -1 4.371139e-08 255 255 255 255 -250 157.5
-5 3.075 -0.2086669 1 0 0 255 255 255 255 -250 157.5
-5 3 -0.2086669 1 0 0 255 255 255 255 -250 150
-5 3 0.2086669 1 0 0 255 255 255 255 -250 150
-5 3.075 0.2086669 1 0 0 255 255 255 255 -250 157.5
-5 3.075 0.2086669 0 2.106018e-07 -1 255 255 255 255 -250 157.5
-5 3 0.2086669 0 2.106018e-07 -1 255 255 255 255 -250 150
0 3 0.2086669 0 2.106018e-07 -1 255 255 255 255 250 150
0 3.075 0.2086669 0 2.106018e-07 -1 255 255 255 255 250 157.5
0 3.075 0.2086669 -1 -0 -0 255 255 255 255 250 157.5
0 3 0.2086669 -1 -0 -0 255 255 255 255 250 150
0 3 -0.2086669 -1 -0 -0 255 255 255 255 250 150
0 3.075 -0.2086669 -1 -0 -0 255 255 255 255 250 157.5
3 0 1 2 
3 0 2 3 
3 4 5 6 
3 4 6 7 
3 8 9 10 
3 8 10 11 
3 12 13 14 
3 12 14 15 
3 16 17 18 
3 16 18 19 
3 20 21 22 
3 20 22 23 
3 24 25 26 
3 24 26 27 
3 28 29 30 
3 28 30 31 
3 32 33 34 
3 32 34 35 
3 36 37 38 
3 36 38 39 
