ply
format ascii 1.0
comment VCGLIB generated
element vertex 477
property float x
property float y
property float z
property float nx
property float ny
property float nz
property uchar red
property uchar green
property uchar blue
property uchar alpha
property float texture_u
property float texture_v
element face 462
property list uchar int vertex_indices
end_header
-2.488584 -5.025214 0.8132232 -1 0 0 255 255 255 255 0.7071518 0.5150629
-2.488584 -5.025214 2.465099 -1 0 0 255 255 255 255 0.7071518 0.9065732
-2.488584 -4.926067 2.465099 -0.8944272 0.4472136 0 255 255 255 255 0.683653 0.9065732
-2.488584 -4.926067 0.8132232 -0.4472136 0.8944272 0 255 255 255 255 0.6836529 0.5150628
1.818649 -4.926067 2.419927 -0.8944272 0.4472136 0 255 255 255 255 0.3841327 0.9272029
1.818649 -4.926067 0.8583953 -0.4472136 0.8944272 0 255 255 255 255 0.01403579 0.9272022
1.818649 -5.025214 0.8583953 -1 0 0 255 255 255 255 0.01403593 0.9037033
1.818649 -5.025214 2.419927 -1 0 0 255 255 255 255 0.3841327 0.9037038
1.863821 -4.926067 0.8132232 0.8944272 0.4472136 0 255 255 255 255 0.003328559 0.9379093
1.863821 -4.926067 2.465099 0.4472136 0.8944272 0 255 255 255 255 0.3948389 0.9379092
1.863821 -5.025214 2.465099 1 0 0 255 255 255 255 0.3948389 0.961408
1.863821 -5.025214 0.8132232 1 0 0 255 255 255 255 0.003328699 0.9614082
-2.488584 -4.926067 0.8132232 0 0.4472136 -0.8944272 255 255 255 255 0.7958065 0.9799863
1.863821 -4.926067 0.8132232 0 0.8944272 -0.4472136 255 255 255 255 0.7958055 0.003328559
1.863821 -5.025214 0.8132232 0 0 -1 255 255 255 255 0.8180536 0.003328615
-2.488584 -5.025214 0.8132232 0 0 -1 255 255 255 255 0.8180536 0.979986
1.863821 -4.926067 2.465099 0 0.4472136 0.8944272 255 255 255 255 0.8636742 0.9799861
-2.488584 -4.926067 2.465099 0 0.8944272 0.4472136 255 255 255 255 0.8636733 0.003328559
-2.488584 -5.025214 2.465099 0 0 1 255 255 255 255 0.8859214 0.003328616
1.863821 -5.025214 2.465099 0 0 1 255 255 255 255 0.8859214 0.9799861
-2.443412 -4.926067 2.419927 0.4472136 0.8944272 0 255 255 255 255 0.6729457 0.8958659
-2.443412 -4.926067 0.8583953 0.8944272 0.4472136 0 255 255 255 255 0.6729466 0.5257691
-2.443412 -4.926067 0.8583953 0 0.8944272 0.4472136 255 255 255 255 0.779052 0.9700127
1.818649 -4.926067 0.8583953 0 0.4472136 0.8944272 255 255 255 255 0.7789364 0.02019773
1.818649 -4.926067 2.419927 0 0.8944272 -0.4472136 255 255 255 255 0.8469197 0.9700126
-2.443412 -4.926067 2.419927 0 0.4472136 -0.8944272 255 255 255 255 0.846804 0.02019772
-2.443412 -5.025214 0.8583953 0 0 1 255 255 255 255 0.7569567 0.9700154
1.818649 -5.025214 0.8583953 0 0 1 255 255 255 255 0.7568429 0.02020054
1.818649 -5.025214 2.419927 0 0 -1 255 255 255 255 0.8248245 0.9700153
-2.443412 -5.025214 2.419927 0 0 -1 255 255 255 255 0.8247107 0.02020047
-2.443412 -5.025214 2.419927 1 0 0 255 255 255 255 0.649447 0.8958659
-2.443412 -5.025214 0.8583953 1 0 0 255 255 255 255 0.6494474 0.5257691
-0.3123813 -4.946014 0.8583953 0 1 -3.05365e-07 255 255 255 255 0.3800857 0.003328559
-0.3123813 -4.946013 2.419927 0 1 -3.05365e-07 255 255 255 255 0.7501857 0.003328559
1.818649 -4.946013 2.419927 0 1 -3.05365e-07 255 255 255 255 0.7501857 0.5084057
1.818649 -4.946014 0.8583953 0 1 -3.05365e-07 255 255 255 255 0.3800858 0.5084057
-0.07692815 -4.808039 0.8132232 0 -0.8944272 0.4472136 255 255 255 255 0.5429011 0.8047358
-0.5478344 -4.808039 0.8132232 0 -0.4472136 0.8944272 255 255 255 255 0.5429012 0.693126
-0.5478344 -4.808039 0.7900082 0 -1 0 255 255 255 255 0.5484033 0.6931261
-0.07692815 -4.808039 0.7900082 0 -1 0 255 255 255 255 0.5484033 0.8047358
-0.5603845 -5.025214 0.7838618 0 0 -1 255 255 255 255 0.4229783 0.9236664
-0.5603845 -4.795489 0.7838618 0 0 -1 255 255 255 255 0.4229783 0.869219
-0.06437804 -4.795489 0.7838618 0 0 -1 255 255 255 255 0.5405372 0.869219
-0.06437804 -5.025214 0.7838618 0 0 -1 255 255 255 255 0.5405372 0.9236664
-0.06437804 -4.795489 0.8132232 0 0.7071068 0.7071068 255 255 255 255 0.5399267 0.8077104
-0.06437804 -4.795489 0.7838618 0 1 0 255 255 255 255 0.5329675 0.8077104
-0.5603845 -4.795489 0.7838618 0 1 0 255 255 255 255 0.5329675 0.6901515
-0.5603845 -4.795489 0.8132232 0 0.7071068 0.7071068 255 255 255 255 0.5399267 0.6901515
-0.06437804 -5.025214 0.8132232 0.7071068 0 0.7071068 255 255 255 255 0.5635372 0.7512562
-0.06437804 -5.025214 0.7838618 1 0 0 255 255 255 255 0.570496 0.7512562
-0.06437804 -4.795489 0.7838618 1 0 0 255 255 255 255 0.570496 0.8057035
-0.06437804 -4.795489 0.8132232 0.7071068 0 0.7071068 255 255 255 255 0.5635372 0.8057035
-0.5603845 -4.795489 0.8132232 -0.7071068 0 0.7071068 255 255 255 255 0.5620195 0.7445989
-0.5603845 -4.795489 0.7838618 -1 0 0 255 255 255 255 0.5550605 0.744599
-0.5603845 -5.025214 0.7838618 -1 0 0 255 255 255 255 0.5550604 0.6901517
-0.5603845 -5.025214 0.8132232 -0.7071068 0 0.7071068 255 255 255 255 0.5620193 0.6901516
-0.5478344 -5.025214 0.8132232 0.4472136 0 0.8944272 255 255 255 255 0.5649938 0.6901515
-0.5478344 -4.808039 0.8132232 0.8944272 0 0.4472136 255 255 255 255 0.5649939 0.7416245
-0.07692815 -4.808039 0.8132232 -0.4472136 0 0.8944272 255 255 255 255 0.5605626 0.8027288
-0.07692815 -5.025214 0.8132232 -0.8944272 0 0.4472136 255 255 255 255 0.5605626 0.7512561
-0.5478344 -5.025214 0.7900082 0 0 1 255 255 255 255 0.5955419 0.9132303
-0.07692815 -5.025214 0.7900082 0 0 1 255 255 255 255 0.7071518 0.9132303
-0.07692815 -4.808039 0.7900082 0 0 1 255 255 255 255 0.7071518 0.9647031
-0.5478344 -4.808039 0.7900082 0 0 1 255 255 255 255 0.5955419 0.9647031
-0.5478344 -5.025214 0.7900082 1 0 0 255 255 255 255 0.570496 0.6901516
-0.5478344 -4.808039 0.7900082 1 0 0 255 255 255 255 0.570496 0.7416245
-0.07692815 -4.808039 0.7900082 -1 0 0 255 255 255 255 0.5550604 0.8027288
-0.07692815 -5.025214 0.7900082 -1 0 0 255 255 255 255 0.5550604 0.7512561
-2.443412 -4.946014 0.8583953 0 1 -3.05365e-07 255 255 255 255 0.003328582 0.003328559
-2.443412 -4.946013 2.419927 0 1 -3.05365e-07 255 255 255 255 0.3734286 0.00332859
-0.3123813 -4.946013 2.419927 0 1 -3.05365e-07 255 255 255 255 0.3734286 0.5084057
-0.3123813 -4.946014 0.8583953 0 1 -3.05365e-07 255 255 255 255 0.003328559 0.5084057
1.939983 -5.023131 0.8122554 -1 0 0 255 255 255 255 0.9206702 0.003328559
1.939983 -5.023131 2.464131 -1 0 0 255 255 255 255 0.9206702 0.3764276
1.939983 -4.975002 2.464131 -0.8944272 0.4472136 0 255 255 255 255 0.9097995 0.3764276
1.939983 -4.975002 0.8122553 -0.4472136 0.8944272 0 255 255 255 255 0.9097994 0.003328615
3.510819 -4.975002 2.44545 -0.8944272 0.4472136 0 255 255 255 255 0.9033613 0.3903602
3.510819 -4.975002 0.8309364 -0.4472136 0.8944272 0 255 255 255 255 0.9034132 0.7520356
3.510819 -5.023131 0.8309364 -1 0 0 255 255 255 255 0.8926315 0.7520372
3.510819 -5.023131 2.44545 -1 0 0 255 255 255 255 0.8925785 0.3903618
3.52735 -4.975002 0.8122553 0.8944272 0.4472136 0 255 255 255 255 0.9097991 0.7561839
3.52735 -4.975002 2.464131 0.4472136 0.8944272 0 255 255 255 255 0.9097995 0.3830847
3.52735 -5.023131 2.464131 1 0 0 255 255 255 255 0.9206701 0.3830847
3.52735 -5.023131 0.8122554 1 0 0 255 255 255 255 0.9206701 0.756184
1.939983 -4.975002 0.8122553 0 0.4472127 -0.8944277 255 255 255 255 0.4048336 0.9789293
3.52735 -4.975002 0.8122553 0 0.8944271 -0.4472138 255 255 255 255 0.003328615 0.9789301
3.52735 -5.023131 0.8122554 0 -1.238421e-06 -1 255 255 255 255 0.003328559 0.9680653
1.939983 -5.023131 0.8122554 0 -1.238421e-06 -1 255 255 255 255 0.4048336 0.9680656
3.52735 -4.975002 2.464131 0 0.4472136 0.8944272 255 255 255 255 0.7315515 0.9165669
1.939983 -4.975002 2.464131 0 0.8944272 0.4472136 255 255 255 255 0.7315505 0.5150628
1.939983 -5.023131 2.464131 0 0 1 255 255 255 255 0.7424152 0.5150629
3.52735 -5.023131 2.464131 0 0 1 255 255 255 255 0.7424152 0.9165669
1.956514 -4.975002 2.44545 0.4472136 0.8944272 0 255 255 255 255 0.9034132 0.372279
1.956514 -4.975002 0.8309364 0.8944272 0.4472136 0 255 255 255 255 0.9033612 0.01060425
1.956514 -4.975002 0.8309364 0 0.8944272 0.4472136 255 255 255 255 0.4011604 0.9858305
3.510819 -4.975002 0.8309364 0 0.4472136 0.8944272 255 255 255 255 0.009472112 0.9858724
3.510819 -4.975002 2.44545 0 0.8944272 -0.4472136 255 255 255 255 0.72465 0.9128958
1.956514 -4.975002 2.44545 0 0.4472136 -0.8944272 255 255 255 255 0.724608 0.5212063
1.956514 -5.023131 0.8309364 0 0 1 255 255 255 255 0.4011616 0.9966303
3.510819 -5.023131 0.8309364 0 0 1 255 255 255 255 0.009473235 0.9966715
3.510819 -5.023131 2.44545 0 0 -1 255 255 255 255 0.7138502 0.9128969
1.956514 -5.023131 2.44545 0 0 -1 255 255 255 255 0.7138089 0.5212074
1.956514 -5.023131 2.44545 1 0 0 255 255 255 255 0.8926316 0.3722807
1.956514 -5.023131 0.8309364 1 0 0 255 255 255 255 0.8925785 0.01060571
1.956514 -4.994948 0.8309364 0 1 0 255 255 255 255 0.4163212 0.5150628
1.956514 -4.994948 2.44545 0 1 0 255 255 255 255 0.4163211 0.8970462
3.510819 -4.994948 2.44545 0 1 0 255 255 255 255 0.003328559 0.897046
3.510819 -4.994948 0.8309364 0 1 0 255 255 255 255 0.003328699 0.5150628
3.013083 -4.990444 1.720682 0.3817731 0.9185904 0.1021808 255 255 255 255 0.4931853 0.645963
3.255542 -4.990444 1.97265 -0.570475 0.8017839 0.1780472 255 255 255 255 0.6222844 0.6614125
3.344608 -4.990444 1.974868 0.5632083 0.8017838 0.1998479 255 255 255 255 0.6399805 0.6797502
2.922258 -4.990444 1.535956 0.1381159 0.9156882 -0.3774112 255 255 255 255 0.4255478 0.6645136
3.088527 -4.990444 2.133362 -0.1173862 0.8737028 -0.4720847 255 255 255 255 0.617357 0.5617006
3.034355 -4.990444 2.273414 -0.3754961 0.8773911 0.2986429 255 255 255 255 0.6399805 0.5187873
3.255542 -4.993 1.97265 -0.942428 0 -0.3344093 255 255 255 255 0.6197932 0.6593251
3.088527 -4.993 2.133362 0.7627268 0 -0.6467209 255 255 255 255 0.6161586 0.5673497
2.922258 -4.993 1.535956 -0.9886438 0 0.1502782 255 255 255 255 0.4229783 0.6607891
3.034355 -4.993 2.273414 -0.9886438 0 0.1502782 255 255 255 255 0.6374112 0.5150628
3.344608 -4.993 1.974868 0.7205712 0 -0.693381 255 255 255 255 0.6397396 0.6834944
2.922258 -4.993 1.535956 0.7205712 0 -0.693381 255 255 255 255 0.4253067 0.6682576
3.013083 -4.993 1.720682 -0.3544136 0 0.9350888 255 255 255 255 0.499766 0.6438404
3.034355 -4.993 2.273414 0.6933805 0 0.7205716 255 255 255 255 0.6427899 0.5187711
3.344608 -4.993 1.974868 0.6933805 0 0.7205716 255 255 255 255 0.6427899 0.6797341
3.088233 -5.000322 2.130144 -0.9486697 0 0.3162684 255 255 255 255 0.7491301 0.5382472
3.0899 -5.000322 2.131812 0.3161871 0 0.9486969 255 255 255 255 0.7492062 0.5387982
3.0899 -4.988341 2.131812 -0.3161871 0 0.9486969 255 255 255 255 0.7491716 0.5302591
3.088233 -4.988341 2.130144 -0.9486697 0 -0.3162684 255 255 255 255 0.7492776 0.5310926
3.0899 -4.988341 2.128477 0.3161871 0 -0.9486969 255 255 255 255 0.7491762 0.5313725
3.091568 -4.988341 2.130144 0.9486697 0 0.3162684 255 255 255 255 0.7490723 0.5310934
3.091568 -5.000322 2.130144 0.9486697 0 -0.3162684 255 255 255 255 0.7492776 0.5382465
3.0899 -5.000322 2.128477 -0.3161871 0 -0.9486969 255 255 255 255 0.7492031 0.5380605
3.097663 -4.989339 2.130144 0.9425232 0.3003785 0.1463653 255 255 255 255 0.6085078 0.838127
3.095866 -4.9837 2.130144 0.9875385 -0.03536799 -0.1533524 255 255 255 255 0.6075152 0.8382353
3.09397 -4.9837 2.134214 0.7867478 -0.03428247 0.6163219 255 255 255 255 0.6074407 0.8374001
3.095196 -4.989339 2.13544 0.5898486 0.2919229 0.7529008 255 255 255 255 0.608408 0.8373368
3.082137 -4.989339 2.130144 -0.9527837 0.3036498 5.184376e-06 255 255 255 255 0.6085078 0.8349716
3.083934 -4.9837 2.130144 -0.9900905 -0.1065496 0.09147667 255 255 255 255 0.6075152 0.8348631
3.08583 -4.9837 2.126074 -0.7867495 -0.03427716 -0.61632 255 255 255 255 0.6076587 0.8340541
3.084604 -4.989339 2.124848 -0.5898373 0.2919406 -0.7529029 255 255 255 255 0.6085933 0.8341638
3.0899 -4.989339 2.122381 0.4057107 0.2775843 -0.8708305 255 255 255 255 0.6086677 0.839789
3.0899 -4.9837 2.124178 0.4220804 -0.03242602 -0.9059783 255 255 255 255 0.6077997 0.8397527
3.09397 -4.9837 2.126074 0.6163353 -0.03426458 -0.7867381 255 255 255 255 0.6076587 0.8390445
3.095196 -4.989339 2.124848 0.7529215 0.2919481 -0.5898098 255 255 255 255 0.6085933 0.8389348
3.084604 -4.989339 2.13544 -0.5898517 0.2919008 0.752907 255 255 255 255 0.608408 0.8357617
3.0899 -4.989339 2.137907 -2.119445e-06 0.3036328 0.9527891 255 255 255 255 0.608404 0.8365493
3.0899 -4.9837 2.13611 0.06560221 0.01523919 0.9977295 255 255 255 255 0.6073962 0.8365493
3.08583 -4.9837 2.134214 -0.7076046 -0.03453904 0.705764 255 255 255 255 0.6074407 0.8356985
3.0899 -4.9837 2.124178 -0.422094 -0.03244226 -0.9059715 255 255 255 255 0.6077997 0.8333459
3.0899 -4.989339 2.122381 -0.4057146 0.2775527 -0.8708388 255 255 255 255 0.6086677 0.8333096
3.0899 -4.969826 2.14163 0.003676742 -0.1006789 0.9949122 255 255 255 255 0.6049536 0.8365493
3.082065 -4.969826 2.13798 -0.7017282 -0.09716348 0.705788 255 255 255 255 0.6050008 0.8354751
3.084604 -4.989339 2.13544 0 -1 0 255 255 255 255 0.6365092 0.8341863
3.082137 -4.989339 2.130144 0 -1 0 255 255 255 255 0.6358289 0.8336148
3.084604 -4.989339 2.124848 0 -1 0 255 255 255 255 0.635829 0.8327264
3.0899 -4.989339 2.122381 0 -1 0 255 255 255 255 0.6364003 0.8320462
3.095196 -4.989339 2.124848 0 -1 0 255 255 255 255 0.6372889 0.832046
3.097663 -4.989339 2.130144 0 -1 0 255 255 255 255 0.6379691 0.8326175
3.095196 -4.989339 2.13544 0 -1 0 255 255 255 255 0.6379691 0.8335061
3.0899 -4.989339 2.137907 0 -1 0 255 255 255 255 0.6373976 0.8341863
3.097736 -4.969826 2.122308 0.701717 -0.09716531 -0.7057989 255 255 255 255 0.6054369 0.8397651
3.0899 -4.969826 2.118658 0.4156309 -0.1770917 -0.8921264 255 255 255 255 0.6058387 0.8409318
3.0899 -4.966386 2.119282 0.4167092 0.1624707 -0.894403 255 255 255 255 0.6053194 0.8410525
3.09731 -4.966386 2.122735 0.7755455 0.1713939 -0.6075799 255 255 255 255 0.6049769 0.8398972
3.082065 -4.969826 2.122308 -0.7058024 -0.09716533 -0.7017136 255 255 255 255 0.6054369 0.8333333
3.0899 -4.969826 2.118658 -0.4223318 -0.004917323 -0.906428 255 255 255 255 0.6058387 0.8321667
3.101387 -4.969826 2.130144 0.994912 -0.1006803 -0.003694485 255 255 255 255 0.6051667 0.8386956
3.097736 -4.969826 2.13798 0.7057962 -0.09716325 0.7017201 255 255 255 255 0.6050008 0.8376235
3.078414 -4.969826 2.130144 -0.994912 -0.1006803 0.003694485 255 255 255 255 0.6051667 0.8344029
3.082491 -4.966386 2.122735 0 1 0 255 255 255 255 0.5978153 0.8340886
3.079039 -4.966386 2.130144 0 1 0 255 255 255 255 0.5970157 0.8350403
3.082491 -4.966386 2.137553 0 1 0 255 255 255 255 0.5957726 0.8350403
3.0899 -4.966386 2.141006 0 1 0 255 255 255 255 0.5948209 0.8342406
3.09731 -4.966386 2.137553 0 1 0 255 255 255 255 0.5948209 0.8329975
3.100762 -4.966386 2.130144 0 1 0 255 255 255 255 0.5956203 0.832046
3.09731 -4.966386 2.122735 0 1 0 255 255 255 255 0.5968635 0.8320461
3.0899 -4.966386 2.119282 0 1 0 255 255 255 255 0.5978153 0.8328455
3.100762 -4.966386 2.130144 0.9726088 0.1766778 0.1510534 255 255 255 255 0.604687 0.8387905
3.09731 -4.966386 2.137553 0.6075706 0.1713939 0.7755527 255 255 255 255 0.6045466 0.8376676
3.0899 -4.966386 2.141006 -0.151065 0.1766778 0.972607 255 255 255 255 0.6044723 0.8365493
3.082491 -4.966386 2.137553 -0.7755501 0.1713932 0.6075742 255 255 255 255 0.6045466 0.8354308
3.082491 -4.966386 2.122735 -0.6075835 0.1713931 -0.7755429 255 255 255 255 0.6049769 0.8332014
3.0899 -4.966386 2.119282 -0.4167306 0.1624705 -0.8943931 255 255 255 255 0.6053194 0.832046
3.079039 -4.966386 2.130144 -0.9726088 0.1766778 -0.1510534 255 255 255 255 0.604687 0.834308
2.266159 -4.991285 1.419809 -0.8661264 0.4489421 -0.2197183 255 255 255 255 0.4274728 0.8080302
2.291622 -4.991285 1.349311 -0.4021434 0.8952878 -0.191678 255 255 255 255 0.4353006 0.8252214
2.291622 -4.993285 1.349311 -0.9027027 0 -0.430265 255 255 255 255 0.4348764 0.8254777
2.266159 -4.993285 1.419809 -0.9692976 0 -0.2458907 255 255 255 255 0.4269635 0.8081954
2.407737 -4.991285 1.818845 -0.5344395 0.4489603 0.716107 255 255 255 255 0.4738368 0.7005784
2.35235 -4.991285 1.768342 -0.3309813 0.8952878 0.2981799 255 255 255 255 0.4549317 0.7127652
2.35235 -4.993285 1.768342 -0.7429629 0 0.6693327 255 255 255 255 0.4545438 0.7123039
2.407737 -4.993285 1.818845 -0.598107 2.5536e-05 0.8014163 255 255 255 255 0.4735652 0.700017
2.580599 -4.991285 1.876308 0.1731098 0.8043395 0.5683935 255 255 255 255 0.5233269 0.6907114
2.471476 -4.991285 1.857309 -0.1544076 0.8974835 0.4131364 255 255 255 255 0.4941851 0.6936418
2.471476 -4.993285 1.85731 -0.3500925 5.579872e-05 0.9367152 255 255 255 255 0.4940643 0.6931002
2.580599 -4.993285 1.876308 -0.1715233 5.886106e-05 0.9851801 255 255 255 255 0.5232708 0.6901515
2.580641 -4.991285 1.136302 -0.05090188 0.4534121 -0.8898464 255 255 255 255 0.5029273 0.8621767
2.690497 -4.991285 1.150458 0.5644417 0.8043281 -0.1856391 255 255 255 255 0.5233269 0.8616687
2.690497 -4.993285 1.150458 0.1278037 0 -0.9917995 255 255 255 255 0.5233363 0.8620375
2.580641 -4.993285 1.136302 -0.05710964 0 -0.9983679 255 255 255 255 0.5029095 0.8625618
2.440517 -4.991285 1.186018 -0.4570791 0.4489423 -0.7678083 255 255 255 255 0.4738696 0.8567732
2.508372 -4.991285 1.154174 -0.1488204 0.8952878 -0.4198957 255 255 255 255 0.4885295 0.8606064
2.508372 -4.993285 1.154174 -0.3340613 0 -0.9425514 255 255 255 255 0.4884573 0.8609976
2.440517 -4.993285 1.186018 -0.5115255 0 -0.8592681 255 255 255 255 0.4737191 0.8571775
2.557179 -4.991285 1.214579 0.08680956 0.8964607 0.4345371 255 255 255 255 0.4960206 0.8465521
2.584213 -4.991285 1.213332 -0.2465973 0.825109 0.5083159 255 255 255 255 0.5027074 0.8450192
2.321009 -4.991285 1.495474 0.8923489 0.4489422 0.04652143 255 255 255 255 0.4407552 0.7881967
2.323735 -4.991285 1.55457 0.4408611 0.8952877 -0.0640431 255 255 255 255 0.4417178 0.7725604
2.323735 -4.993285 1.55457 0.9896127 0 -0.1437593 255 255 255 255 0.4422655 0.7726589
2.321009 -4.993285 1.495474 0.9986438 0 0.05206298 255 255 255 255 0.4412596 0.7881732
2.308183 -4.991285 1.708414 -0.7678089 0.4489422 0.4570781 255 255 255 255 0.4399839 0.7290363
2.276339 -4.991285 1.640559 -0.4198959 0.8952878 0.1488199 255 255 255 255 0.4295385 0.7481651
2.276339 -4.993285 1.640559 -0.9425518 0 0.3340602 255 255 255 255 0.4290021 0.7479494
2.308183 -4.993285 1.708414 -0.8592688 0 0.5115244 255 255 255 255 0.4394857 0.7286785
2.497691 -4.991285 1.78479 -0.45044 0.8251095 -0.3410252 255 255 255 255 0.4988059 0.7166312
2.349902 -4.991285 1.381738 0.8066189 0.4489422 0.3844697 255 255 255 255 0.4486334 0.8164166
2.329805 -4.991285 1.437379 0.4318108 0.8952878 0.109541 255 255 255 255 0.443143 0.8030127
2.329805 -4.993285 1.437379 0.9692978 0 0.2458898 255 255 255 255 0.4436421 0.8028745
2.349902 -4.993285 1.381738 0.9027017 0 0.4302669 255 255 255 255 0.4490418 0.8161953
2.397833 -4.991285 1.712463 0.6638855 0.4489341 -0.5980922 255 255 255 255 0.4657169 0.7305899
2.441548 -4.991285 1.752323 0.285835 0.8946083 -0.3434741 255 255 255 255 0.4795298 0.7210281
2.441548 -4.993285 1.752324 0.6396646 -2.299542e-05 -0.7686541 255 255 255 255 0.4798196 0.7215437
2.397833 -4.993285 1.712463 0.7429629 -1.112341e-05 -0.6693327 255 255 255 255 0.4660807 0.73101
2.472238 -4.991285 1.775596 0.4260299 0.451314 -0.7841009 255 255 255 255 0.4895325 0.7165421
2.497691 -4.993285 1.78479 -0.1505704 0 -0.9885993 255 255 255 255 0.4977733 0.7173857
2.472238 -4.993285 1.775596 0.4774165 -1.20392e-05 -0.8786771 255 255 255 255 0.4896435 0.7170828
2.557179 -4.993285 1.214579 0.1959038 0 0.9806231 255 255 255 255 0.4959992 0.846138
2.584213 -4.993285 1.213332 -0.9402284 0 0.3405445 255 255 255 255 0.5000118 0.845266
2.520975 -4.991285 1.227723 0.3428991 0.4475802 0.8258888 255 255 255 255 0.4885801 0.8454815
2.46742 -4.991285 1.252856 0.2278792 0.8952878 0.3827936 255 255 255 255 0.4771577 0.8423688
2.46742 -4.993285 1.252856 0.5115268 0 0.8592674 255 255 255 255 0.4773185 0.8419797
2.520975 -4.993285 1.227723 0.3834515 0 0.923561 255 255 255 255 0.4886586 0.84511
2.420121 -4.991285 1.287716 0.5980878 0.4489421 0.6638839 255 255 255 255 0.4663363 0.836421
2.38026 -4.991285 1.331431 0.3570208 0.8952878 0.2664507 255 255 255 255 0.4565163 0.8276658
2.38026 -4.993285 1.331431 0.8014145 0 0.5981094 255 255 255 255 0.4568705 0.827354
2.420121 -4.993285 1.287716 0.6693309 0 0.7429644 255 255 255 255 0.4665799 0.8360798
2.33784 -4.991285 1.611609 0.8422276 0.4489422 -0.2985021 255 255 255 255 0.4462954 0.7572007
2.362973 -4.991285 1.665164 0.3827933 0.8952878 -0.2278795 255 255 255 255 0.4544172 0.7428323
2.362973 -4.993285 1.665164 0.8592669 0 -0.5115275 255 255 255 255 0.4548876 0.7431765
2.33784 -4.993285 1.611609 0.9425521 0 -0.334059 255 255 255 255 0.4467881 0.7574112
2.255014 -4.991285 1.493415 -0.444884 0.8952878 -0.02319496 255 255 255 255 0.4235155 0.7889366
2.258467 -4.991285 1.568291 -0.884279 0.4489422 0.128459 255 255 255 255 0.424095 0.7684787
2.330086 -4.991285 1.285572 -0.7161127 0.4489422 -0.5344468 255 255 255 255 0.44631 0.839276
2.380589 -4.991285 1.230186 -0.2981791 0.8952878 -0.3309821 255 255 255 255 0.4595963 0.8498667
2.380589 -4.993285 1.230186 -0.6693308 0 -0.7429645 255 255 255 255 0.4593596 0.8502406
2.330086 -4.993285 1.285572 -0.8014147 0 -0.5981091 255 255 255 255 0.4459637 0.8396168
2.580599 -4.993285 1.876308 0.9887316 0 0.1496993 255 255 255 255 0.5263104 0.6906894
2.690497 -4.993285 1.150458 0.9887316 0 0.1496993 255 255 255 255 0.5263104 0.8616466
2.255014 -4.993285 1.493415 -0.9986436 0 -0.05206639 255 255 255 255 0.4229783 0.7889829
2.258467 -4.993285 1.568291 -0.9896125 0 0.1437608 255 255 255 255 0.4235219 0.7683936
2.487632 -5.000322 1.773141 -0.9486946 0 0.3161939 255 255 255 255 0.7491302 0.5230511
2.4893 -5.000322 1.774808 0.31616 0 0.9487059 255 255 255 255 0.7492064 0.5236019
2.4893 -4.988341 1.774808 -0.3162956 0 0.9486607 255 255 255 255 0.7491719 0.5150628
2.487632 -4.988341 1.773141 -0.9487059 0 -0.31616 255 255 255 255 0.7492778 0.5158963
2.4893 -4.988341 1.771473 0.3161803 0 -0.9486992 255 255 255 255 0.7491761 0.5161763
2.490968 -4.988341 1.773141 0.9486675 0 0.3162752 255 255 255 255 0.7490723 0.5158973
2.490968 -5.000322 1.773141 0.9486788 0 -0.3162414 255 255 255 255 0.7492778 0.5230504
2.4893 -5.000322 1.771473 -0.3163159 0 -0.9486539 255 255 255 255 0.7492034 0.5228645
2.497063 -4.989339 1.77314 0.942519 0.3003819 0.1463854 255 255 255 255 0.6193603 0.8381271
2.495266 -4.9837 1.77314 0.9875345 -0.03536211 -0.1533792 255 255 255 255 0.6183677 0.8382354
2.49337 -4.9837 1.77721 0.7867278 -0.03427629 0.6163477 255 255 255 255 0.6182932 0.8374001
2.494596 -4.989339 1.778436 0.5898325 0.2919191 0.7529149 255 255 255 255 0.6192607 0.8373368
2.481536 -4.989339 1.77314 -0.9527823 0.3036546 -4.108512e-06 255 255 255 255 0.6193602 0.8349717
2.483334 -4.9837 1.77314 -0.9900905 -0.1065512 0.0914741 255 255 255 255 0.6183677 0.8348632
2.48523 -4.9837 1.76907 -0.7867308 -0.03427976 -0.6163438 255 255 255 255 0.6185112 0.8340541
2.484004 -4.989339 1.767844 -0.5898295 0.2919214 -0.7529163 255 255 255 255 0.6194459 0.8341639
2.4893 -4.989339 1.765377 0.4057338 0.2775343 -0.8708357 255 255 255 255 0.6195202 0.839789
2.4893 -4.9837 1.767174 0.4221029 -0.03244495 -0.9059672 255 255 255 255 0.6186523 0.8397527
2.49337 -4.9837 1.76907 0.6163327 -0.0342753 -0.7867396 255 255 255 255 0.6185112 0.8390446
2.494596 -4.989339 1.767844 0.752894 0.2919226 -0.5898573 255 255 255 255 0.6194459 0.8389348
2.484004 -4.989339 1.778436 -0.5898325 0.2919191 0.7529149 255 255 255 255 0.6192607 0.8357617
2.4893 -4.989339 1.780904 0 0.3036509 0.9527834 255 255 255 255 0.6192566 0.8365493
2.4893 -4.9837 1.779106 0.06561238 0.01525261 0.9977286 255 255 255 255 0.6182485 0.8365493
2.48523 -4.9837 1.77721 -0.7075813 -0.03453404 0.7057875 255 255 255 255 0.6182932 0.8356984
2.4893 -4.9837 1.767174 -0.422096 -0.03244829 -0.9059703 255 255 255 255 0.6186523 0.8333459
2.4893 -4.989339 1.765377 -0.4057338 0.2775342 -0.8708357 255 255 255 255 0.6195202 0.8333097
2.4893 -4.969826 1.784626 0.003696615 -0.100704 0.9949096 255 255 255 255 0.615806 0.8365493
2.481464 -4.969826 1.780976 -0.7017208 -0.09717638 0.7057937 255 255 255 255 0.6158533 0.8354751
2.484004 -4.989339 1.778436 0 -1 0 255 255 255 255 0.5679175 0.8381659
2.481536 -4.989339 1.77314 0 -1 0 255 255 255 255 0.5684891 0.8374856
2.484004 -4.989339 1.767844 0 -1 0 255 255 255 255 0.5693776 0.8374857
2.4893 -4.989339 1.765377 0 -1 0 255 255 255 255 0.5700577 0.838057
2.494596 -4.989339 1.767844 0 -1 0 255 255 255 255 0.5700577 0.8389456
2.497063 -4.989339 1.77314 0 -1 0 255 255 255 255 0.5694862 0.8396258
2.494596 -4.989339 1.778436 0 -1 0 255 255 255 255 0.5685976 0.8396258
2.4893 -4.989339 1.780904 0 -1 0 255 255 255 255 0.5679175 0.8390543
2.497135 -4.969826 1.765305 0.7017142 -0.09719033 -0.7057983 255 255 255 255 0.6162894 0.8397651
2.4893 -4.969826 1.761654 0.4156479 -0.177101 -0.8921166 255 255 255 255 0.6166912 0.8409319
2.4893 -4.966386 1.762279 0.4167125 0.1624124 -0.894412 255 255 255 255 0.6161719 0.8410525
2.496709 -4.966386 1.765731 0.7755662 0.1713221 -0.6075739 255 255 255 255 0.6158293 0.8398972
2.481464 -4.969826 1.765305 -0.7058061 -0.09717346 -0.7017087 255 255 255 255 0.6162894 0.8333334
2.4893 -4.969826 1.761654 -0.4223047 -0.004935516 -0.9064406 255 255 255 255 0.6166912 0.8321667
2.500786 -4.969826 1.77314 0.9949088 -0.100712 -0.003685268 255 255 255 255 0.6160191 0.8386956
2.497135 -4.969826 1.780976 0.7058003 -0.09719454 0.7017116 255 255 255 255 0.6158533 0.8376236
2.477814 -4.969826 1.77314 -0.9949116 -0.1006849 0.003685799 255 255 255 255 0.6160191 0.8344029
2.48189 -4.966386 1.765731 0 1 0 255 255 255 255 0.6261774 0.8329978
2.478438 -4.966386 1.77314 0 1 0 255 255 255 255 0.6269769 0.8320461
2.48189 -4.966386 1.78055 0 1 0 255 255 255 255 0.62822 0.832046
2.4893 -4.966386 1.784002 0 1 0 255 255 255 255 0.6291718 0.8328455
2.496709 -4.966386 1.78055 0 1 0 255 255 255 255 0.6291718 0.8340888
2.500161 -4.966386 1.77314 0 1 0 255 255 255 255 0.6283721 0.8350404
2.496709 -4.966386 1.765731 0 1 0 255 255 255 255 0.6271291 0.8350404
2.4893 -4.966386 1.762279 0 1 0 255 255 255 255 0.6261773 0.8342408
2.500161 -4.966386 1.77314 0.9726249 0.1765958 0.1510457 255 255 255 255 0.6155396 0.8387906
2.496709 -4.966386 1.78055 0.6075839 0.1713277 0.775557 255 255 255 255 0.6153991 0.8376677
2.4893 -4.966386 1.784002 -0.1510406 0.176634 0.9726188 255 255 255 255 0.6153248 0.8365493
2.48189 -4.966386 1.78055 -0.7755667 0.1713755 0.6075581 255 255 255 255 0.6153991 0.8354309
2.48189 -4.966386 1.765731 -0.6075786 0.1713697 -0.7755519 255 255 255 255 0.6158293 0.8332015
2.4893 -4.966386 1.762279 -0.4166998 0.1624406 -0.8944129 255 255 255 255 0.6161719 0.832046
2.478438 -4.966386 1.77314 -0.9726151 0.1766596 -0.1510341 255 255 255 255 0.6155396 0.834308
-0.2589515 -4.8105 0.8043253 0 0.9906021 -0.1367751 255 255 255 255 0.6361446 0.7639284
-0.09719014 -4.8105 0.8043253 0 0.9906024 0.1367733 255 255 255 255 0.5982853 0.7639285
-0.09719014 -4.815296 0.7927468 0 0.7971747 -0.6037488 255 255 255 255 0.5982853 0.7609954
-0.2589515 -4.815296 0.7927468 0 0.6037488 -0.7971746 255 255 255 255 0.6361446 0.7609954
-0.09719014 -4.826874 0.7879508 0 0.3826856 -0.9238787 255 255 255 255 0.5982853 0.7580621
-0.2589515 -4.826874 0.7879508 0 0.3826856 -0.9238787 255 255 255 255 0.6361446 0.7580621
-0.2589515 -4.826874 0.7879508 0 -0.3826856 -0.9238787 255 255 255 255 0.6361445 0.7815277
-0.09719014 -4.826874 0.7879508 0 -0.3826856 -0.9238787 255 255 255 255 0.5982853 0.7815276
-0.09719014 -4.838453 0.7927468 0 -0.6037488 -0.7971747 255 255 255 255 0.5982853 0.7785944
-0.2589515 -4.838453 0.7927468 0 -0.7971746 -0.6037488 255 255 255 255 0.6361446 0.7785945
-0.09719014 -4.843249 0.8043253 0 -0.9906021 -0.1367751 255 255 255 255 0.5982853 0.7756613
-0.2589515 -4.843249 0.8043253 0 -0.9906024 0.1367733 255 255 255 255 0.6361446 0.7756613
-0.09719014 -4.838453 0.815904 0 -0.7971755 0.6037478 255 255 255 255 0.5982853 0.772728
-0.2589515 -4.838453 0.815904 0 -0.6037492 0.7971743 255 255 255 255 0.6361446 0.772728
-0.09719014 -4.826874 0.8207 0 -0.1367745 0.9906022 255 255 255 255 0.5982853 0.7697947
-0.2589515 -4.826874 0.8207 0 0.1367745 0.9906022 255 255 255 255 0.6361446 0.7697947
-0.09719014 -4.815296 0.7927468 1 0 0 255 255 255 255 0.5839187 0.8260775
-0.09719014 -4.8105 0.8043253 1 0 0 255 255 255 255 0.5859927 0.8281515
-0.09719014 -4.815296 0.815904 1 0 0 255 255 255 255 0.5859927 0.8310847
-0.09719014 -4.826874 0.8207 1 0 0 255 255 255 255 0.5839187 0.8331588
-0.09719014 -4.838453 0.815904 1 0 0 255 255 255 255 0.5809856 0.8331587
-0.09719014 -4.843249 0.8043253 1 0 0 255 255 255 255 0.5789115 0.8310846
-0.09719014 -4.838453 0.7927468 1 0 0 255 255 255 255 0.5789115 0.8281513
-0.09719014 -4.826874 0.7879508 1 0 0 255 255 255 255 0.5809855 0.8260774
-0.09719014 -4.815296 0.815904 0 0.6037492 0.7971743 255 255 255 255 0.5982853 0.7668617
-0.2589515 -4.815296 0.815904 0 0.7971754 0.6037478 255 255 255 255 0.6361446 0.7668617
-0.2589515 -4.8105 0.8043253 -1 0 0 255 255 255 255 0.6053666 0.8203816
-0.2589515 -4.815296 0.7927468 -1 0 0 255 255 255 255 0.6053666 0.8233149
-0.2589515 -4.826874 0.7879508 -1 0 0 255 255 255 255 0.6032926 0.825389
-0.2589515 -4.838453 0.7927468 -1 0 0 255 255 255 255 0.6003592 0.825389
-0.2589515 -4.843249 0.8043253 -1 0 0 255 255 255 255 0.5982853 0.8233148
-0.2589515 -4.838453 0.815904 -1 0 0 255 255 255 255 0.5982853 0.8203815
-0.2589515 -4.826874 0.8207 -1 0 0 255 255 255 255 0.6003593 0.8183076
-0.2589515 -4.815296 0.815904 -1 0 0 255 255 255 255 0.6032926 0.8183076
-0.4297987 -4.8105 0.8043253 2.546935e-08 0.9906023 -0.1367742 255 255 255 255 0.6361446 0.7940512
-0.2680373 -4.8105 0.8043253 -2.506348e-08 0.9906023 0.1367742 255 255 255 255 0.5982853 0.7940513
-0.2680373 -4.815296 0.7927468 1.11503e-07 0.7971746 -0.6037489 255 255 255 255 0.5982853 0.7911181
-0.4297987 -4.815296 0.7927467 1.470039e-07 0.6037478 -0.7971755 255 255 255 255 0.6361446 0.791118
-0.2680373 -4.826874 0.7879508 1.702121e-07 0.3826836 -0.9238795 255 255 255 255 0.5982853 0.7881849
-0.4297987 -4.826874 0.7879508 1.702121e-07 0.3826836 -0.9238795 255 255 255 255 0.6361446 0.7881848
-0.4297987 -4.826874 0.7879508 1.695813e-07 -0.3826836 -0.9238795 255 255 255 255 0.6361445 0.8116505
-0.2680373 -4.826874 0.7879508 1.695813e-07 -0.3826836 -0.9238795 255 255 255 255 0.5982853 0.8116503
-0.2680373 -4.838453 0.7927468 1.464177e-07 -0.6037478 -0.7971754 255 255 255 255 0.5982853 0.8087172
-0.4297987 -4.838453 0.7927467 1.11007e-07 -0.7971746 -0.6037489 255 255 255 255 0.6361446 0.8087173
-0.2680373 -4.843249 0.8043253 2.506348e-08 -0.9906023 -0.1367742 255 255 255 255 0.5982853 0.8057839
-0.4297987 -4.843249 0.8043253 -2.546935e-08 -0.9906023 0.1367742 255 255 255 255 0.6361446 0.8057839
-0.2680373 -4.838453 0.815904 -1.11503e-07 -0.7971746 0.6037489 255 255 255 255 0.5982853 0.8028507
-0.4297987 -4.838453 0.8159039 -1.470039e-07 -0.6037478 0.7971755 255 255 255 255 0.6361446 0.8028508
-0.2680373 -4.826874 0.8206999 -1.822794e-07 -0.1367737 0.9906024 255 255 255 255 0.5982853 0.7999175
-0.4297987 -4.826874 0.8206999 -1.82054e-07 0.1367737 0.9906024 255 255 255 255 0.6361446 0.7999175
-0.2680373 -4.815296 0.7927468 1 0 0 255 255 255 255 0.6340706 0.8253891
-0.2680373 -4.8105 0.8043253 1 0 0 255 255 255 255 0.6311374 0.8253891
-0.2680373 -4.815296 0.815904 1 0 0 255 255 255 255 0.6290633 0.8233148
-0.2680373 -4.826874 0.8206999 1 0 0 255 255 255 255 0.6290633 0.8203816
-0.2680373 -4.838453 0.815904 1 0 0 255 255 255 255 0.6311374 0.8183076
-0.2680373 -4.843249 0.8043253 1 0 0 255 255 255 255 0.6340706 0.8183078
-0.2680373 -4.838453 0.7927468 1 0 0 255 255 255 255 0.6361446 0.8203819
-0.2680373 -4.826874 0.7879508 1 0 0 255 255 255 255 0.6361446 0.823315
-0.2680373 -4.815296 0.815904 -1.464177e-07 0.6037478 0.7971754 255 255 255 255 0.5982853 0.7969845
-0.4297987 -4.815296 0.8159039 -1.11007e-07 0.7971746 0.6037489 255 255 255 255 0.6361446 0.7969845
-0.4297987 -4.8105 0.8043253 -1 0 0 255 255 255 255 0.6173989 0.8183076
-0.4297987 -4.815296 0.7927467 -1 0 0 255 255 255 255 0.6203322 0.8183076
-0.4297987 -4.826874 0.7879508 -1 0 0 255 255 255 255 0.6224062 0.8203816
-0.4297987 -4.838453 0.7927467 -1 0 0 255 255 255 255 0.6224062 0.8233148
-0.4297987 -4.843249 0.8043253 -1 0 0 255 255 255 255 0.6203322 0.8253889
-0.4297987 -4.838453 0.8159039 -1 0 0 255 255 255 255 0.6173989 0.8253889
-0.4297987 -4.826874 0.8206999 -1 0 0 255 255 255 255 0.6153248 0.8233148
-0.4297987 -4.815296 0.8159039 -1 0 0 255 255 255 255 0.6153248 0.8203816
-0.1685317 -4.870668 0.8113716 0.2355628 0.9676269 -0.09060059 255 255 255 255 0.5963075 0.6965135
-0.09563906 -4.888014 0.8090559 0.2372067 0.9586068 0.1574992 255 255 255 255 0.5789115 0.6959708
-0.09680897 -4.892665 0.7974773 0.1935824 0.8014938 -0.5658034 255 255 255 255 0.5789335 0.6930612
-0.1730201 -4.873496 0.7974773 0.1474791 0.6022633 -0.7845564 255 255 255 255 0.5971783 0.6931722
-0.09963337 -4.903894 0.7926813 0.09335003 0.3711252 -0.9238787 255 255 255 255 0.5789512 0.6901515
-0.1758445 -4.884725 0.7926813 0.09335003 0.3711252 -0.9238787 255 255 255 255 0.597196 0.6902626
-0.1758445 -4.884725 0.7926813 -0.09335003 -0.3711252 -0.9238787 255 255 255 255 0.597196 0.7133878
-0.09963337 -4.903894 0.7926813 -0.09335003 -0.3711252 -0.9238787 255 255 255 255 0.5789509 0.7134289
-0.1024578 -4.915123 0.7974773 -0.1472743 -0.5855122 -0.7971737 255 255 255 255 0.5789444 0.7105193
-0.1786689 -4.895954 0.7974773 -0.1944568 -0.7730963 -0.6037456 255 255 255 255 0.5971895 0.710478
-0.1036277 -4.919774 0.8090559 -0.2416392 -0.9606789 -0.1367718 255 255 255 255 0.5789377 0.7076096
-0.1798388 -4.900605 0.8090559 -0.2416393 -0.9606787 0.1367736 255 255 255 255 0.5971828 0.7075684
-0.1024578 -4.915123 0.8206345 -0.1944569 -0.7730957 0.6037463 255 255 255 255 0.5789312 0.7046998
-0.1634267 -4.899787 0.8206345 -0.1472744 -0.5855125 0.7971734 255 255 255 255 0.5935274 0.7046669
-0.09963337 -4.903894 0.8254305 -0.0333642 -0.1326444 0.990602 255 255 255 255 0.5789247 0.7017902
-0.1580819 -4.889193 0.8254305 0.03336347 0.1326409 0.9906025 255 255 255 255 0.5929174 0.7017587
-0.09680897 -4.892665 0.7974773 0.9697927 -0.2439306 -7.992262e-10 255 255 255 255 0.5434361 0.8280531
-0.09563906 -4.888014 0.8090559 0.9697927 -0.2439306 0 255 255 255 255 0.5463458 0.8280531
-0.09680897 -4.892665 0.8206345 0.9697927 -0.2439306 -7.564128e-10 255 255 255 255 0.5484033 0.8301103
-0.09963337 -4.903894 0.8254305 0.9697927 -0.2439306 -1.643456e-09 255 255 255 255 0.5484033 0.8330201
-0.1024578 -4.915123 0.8206345 0.9697927 -0.2439305 -1.642917e-09 255 255 255 255 0.5463461 0.8350776
-0.1036277 -4.919774 0.8090559 0.9697927 -0.2439305 -7.550479e-10 255 255 255 255 0.5434362 0.8350777
-0.1024578 -4.915123 0.7974773 0.9697927 -0.2439305 1.651606e-12 255 255 255 255 0.5413788 0.8330203
-0.09963337 -4.903894 0.7926813 0.9697927 -0.2439305 1.651606e-12 255 255 255 255 0.5413787 0.8301105
-0.09680897 -4.892665 0.8206345 0.1472734 0.5855069 0.7971777 255 255 255 255 0.5789181 0.6988804
-0.1552575 -4.877964 0.8206345 0.194456 0.7730888 0.6037555 255 255 255 255 0.5929108 0.6988488
-0.1634267 -4.899787 0.8206345 -0.6386998 0.1293135 0.7585121 255 255 255 255 0.5465986 0.8143964
-0.1580819 -4.889193 0.8254305 -0.6120989 0.2291267 0.7568592 255 255 255 255 0.5484033 0.8167571
-0.1685317 -4.870668 0.8113716 -0.7824368 0.2487055 0.57091 255 255 255 255 0.5446241 0.8213129
-0.1552575 -4.877964 0.8206345 -0.3383334 0.440325 0.8316516 255 255 255 255 0.5484033 0.8196668
-0.1730201 -4.873496 0.7974773 -0.9516857 0.1183601 0.2833464 255 255 255 255 0.5411722 0.8213959
-0.1758445 -4.884725 0.7926813 -0.9482582 0.2918827 0.1249433 255 255 255 255 0.5393828 0.8191014
-0.1798388 -4.900605 0.8090559 -0.8423406 0.2704061 0.4662005 255 255 255 255 0.5419316 0.8143675
-0.1786689 -4.895954 0.7974773 -0.9697939 0.2439261 -5.5357e-06 255 255 255 255 0.5396767 0.8162066
-0.3383153 -4.929992 0.8071668 -0.03776838 -0.9951848 0.09044708 255 255 255 255 0.6038531 0.723322
-0.345705 -4.926359 0.8440537 -0.03152458 -0.8306557 0.5558934 255 255 255 255 0.6054962 0.715232
-0.508808 -4.920169 0.8440537 -0.03152458 -0.8306557 0.5558934 255 255 255 255 0.641147 0.715232
-0.5164518 -4.923232 0.8071668 -0.03776838 -0.9951848 0.09044708 255 255 255 255 0.6427898 0.723322
-0.3232644 -4.852213 0.8071668 0.9162171 0.3203625 0.2406532 255 255 255 255 0.5903682 0.7406222
-0.3320619 -4.85478 0.8440537 0.6534469 0.5704219 0.4976204 255 255 255 255 0.5826749 0.738667
-0.3346227 -4.922257 0.8440537 0.6995431 -0.2623875 0.6646746 255 255 255 255 0.5817122 0.7259222
-0.3260451 -4.925483 0.8071668 0.6438597 -0.7347033 0.2136721 255 255 255 255 0.5903682 0.7233488
-0.3435667 -4.854569 0.8465391 0.006020277 0.1586282 0.9873201 255 255 255 255 0.6056243 0.6994116
-0.5054989 -4.848423 0.8465391 0.01204055 0.3172564 0.9482634 255 255 255 255 0.641019 0.6994117
-0.5080427 -4.91545 0.8465391 -0.00602028 -0.1586283 0.9873201 255 255 255 255 0.641019 0.714062
-0.3461105 -4.921596 0.8465391 -0.01204056 -0.3172565 0.9482633 255 255 255 255 0.6056241 0.714062
-0.528345 -4.917806 0.8071668 -0.9162181 -0.3203577 0.2406562 255 255 255 255 0.5903682 0.7706929
-0.5195475 -4.915239 0.8440537 -0.6534526 -0.5704127 0.4976234 255 255 255 255 0.582675 0.7687374
-0.5169867 -4.847762 0.8440537 -0.6995457 0.2623855 0.6646727 255 255 255 255 0.5817124 0.7559927
-0.5255643 -4.844536 0.8071668 -0.6438692 0.7346958 0.2136694 255 255 255 255 0.5903682 0.7534195
-0.5132941 -4.840027 0.8071668 0.03776979 0.9951854 0.09044065 255 255 255 255 0.6427899 0.6901516
-0.5059043 -4.843659 0.8440537 0.03152544 0.8306574 0.5558907 255 255 255 255 0.641147 0.6982415
-0.3428014 -4.84985 0.8440537 0.03152544 0.8306574 0.5558907 255 255 255 255 0.6054962 0.6982416
-0.3351576 -4.846787 0.8071668 0.03776979 0.9951854 0.09044065 255 255 255 255 0.6038531 0.6901515
-0.5168573 -4.918468 0.8046814 -0.2110135 0.007978207 -0.9774506 255 255 255 255 0.5576312 0.8296514
-0.5164518 -4.923232 0.8071668 -0.2126548 -0.4661202 -0.8587841 255 255 255 255 0.5576389 0.8308285
-0.528345 -4.917806 0.8071668 -0.2110127 0.007993209 -0.9774507 255 255 255 255 0.5550604 0.8296021
-0.508808 -4.920169 0.8440537 -0.4107288 -0.8975958 0.1600736 255 255 255 255 0.5810801 0.770609
-0.5080427 -4.91545 0.8465391 -0.2110132 0.007994589 0.9774506 255 255 255 255 0.580359 0.7694934
-0.5140594 -4.844747 0.8046814 -0.2110115 0.008023236 -0.9774507 255 255 255 255 0.5576312 0.8135377
-0.5255643 -4.844536 0.8071668 -0.2110113 0.008038258 -0.9774506 255 255 255 255 0.5550606 0.813587
-0.5132941 -4.840027 0.8071668 -0.176714 0.4808896 -0.8587884 255 255 255 255 0.5576389 0.8123606
-0.5054989 -4.848423 0.8465391 -0.2110114 0.008035255 0.9774506 255 255 255 255 0.5789115 0.7554637
-0.5059043 -4.843659 0.8440537 -0.3415157 0.9261501 0.1600407 255 255 255 255 0.5796106 0.7540371
-0.33755 -4.925272 0.8046814 0.2110118 -0.008023202 -0.9774506 255 255 255 255 0.5704883 0.8135377
-0.3260451 -4.925483 0.8071668 0.2110115 -0.008038226 -0.9774505 255 255 255 255 0.5679176 0.8135868
-0.3383153 -4.929992 0.8071668 0.1767144 -0.4808896 -0.8587882 255 255 255 255 0.570496 0.8123606
-0.3461105 -4.921596 0.8465391 0.2110105 -0.008035215 0.9774508 255 255 255 255 0.5789115 0.725393
-0.345705 -4.926359 0.8440537 0.3414997 -0.9261556 0.1600435 255 255 255 255 0.5796105 0.7239665
-0.3347521 -4.851552 0.8046814 0.2110138 -0.007978174 -0.9774505 255 255 255 255 0.5704884 0.8296513
-0.3351576 -4.846787 0.8071668 0.2126548 0.4661202 -0.8587841 255 255 255 255 0.570496 0.8308285
-0.3232644 -4.852213 0.8071668 0.2110129 -0.007993176 -0.9774506 255 255 255 255 0.5679175 0.8296022
-0.3435667 -4.854569 0.8465391 0.2110123 -0.007994549 0.9774507 255 255 255 255 0.580359 0.7394228
-0.3428014 -4.84985 0.8440537 0.4107138 0.8976043 0.1600644 255 255 255 255 0.5810801 0.7405384
-0.5164518 -4.923232 0.8071668 -0.4107321 -0.897603 0.1600252 255 255 255 255 0.5889015 0.7735701
-0.5132941 -4.840027 0.8071668 -0.341517 0.9261538 0.1600165 255 255 255 255 0.5885339 0.7501566
-0.3347521 -4.851552 0.8046814 0.01759572 0.4636367 -0.8858507 255 255 255 255 0.5800816 0.7802272
-0.5140594 -4.844747 0.8046814 0.01759572 0.4636367 -0.8858507 255 255 255 255 0.5800816 0.8194203
-0.5132941 -4.840027 0.8071668 0.01759572 0.4636367 -0.8858507 255 255 255 255 0.5789115 0.8192923
-0.3351576 -4.846787 0.8071668 0.01759572 0.4636367 -0.8858507 255 255 255 255 0.5789116 0.7803552
-0.3351576 -4.846787 0.8071668 0.4107171 0.8976115 0.160016 255 255 255 255 0.5889015 0.7434995
-0.3383153 -4.929992 0.8071668 0.341501 -0.9261593 0.1600193 255 255 255 255 0.5885339 0.720086
-0.5168573 -4.918468 0.8046814 -0.01759572 -0.4636367 -0.8858507 255 255 255 255 0.5903682 0.7802272
-0.33755 -4.925272 0.8046814 -0.01759572 -0.4636367 -0.8858507 255 255 255 255 0.5903682 0.8194203
-0.3383153 -4.929992 0.8071668 -0.01759572 -0.4636367 -0.8858507 255 255 255 255 0.5891981 0.8192924
-0.5164518 -4.923232 0.8071668 -0.01759572 -0.4636367 -0.8858507 255 255 255 255 0.5891982 0.780355
-0.5168573 -4.918468 0.8046814 -0.9992806 0.0379245 0 255 255 255 255 0.6427899 0.7326351
-0.5140594 -4.844747 0.8046814 -0.9992806 0.0379245 0 255 255 255 255 0.6427899 0.7487489
-0.5140594 -4.844747 0.7925214 -0.6535457 0.3583766 -0.6666666 255 255 255 255 0.6401339 0.7487489
-0.5168573 -4.918468 0.7925214 -0.4389195 -0.8004267 -0.4082484 255 255 255 255 0.6401339 0.7326351
-0.3347521 -4.851552 0.7925214 0.4389194 0.8004268 -0.4082483 255 255 255 255 0.6009413 0.7487489
-0.33755 -4.925272 0.7925214 0.6535458 -0.3583762 -0.6666667 255 255 255 255 0.6009413 0.7326351
-0.33755 -4.925272 0.8046814 -0.03792398 -0.9992806 0 255 255 255 255 0.6009412 0.7299791
-0.5168573 -4.918468 0.8046814 -0.03792398 -0.9992806 0 255 255 255 255 0.6401339 0.7299791
-0.3347521 -4.851552 0.8046814 0.9992806 -0.0379241 0 255 255 255 255 0.5982853 0.7487489
-0.33755 -4.925272 0.8046814 0.9992806 -0.0379241 0 255 255 255 255 0.5982853 0.7326351
-0.5140594 -4.844747 0.8046814 0.037924 0.9992807 0 255 255 255 255 0.6401339 0.7514049
-0.3347521 -4.851552 0.8046814 0.037924 0.9992807 0 255 255 255 255 0.6009413 0.7514049
3.191295 -4.990424 2.131112 0 0 0 255 255 255 255 0 0
2.590695 -4.990424 1.774108 0 0 0 255 255 255 255 0 0
3 0 1 2 
3 0 2 3 
3 4 5 6 
3 4 6 7 
3 8 9 10 
3 8 10 11 
3 12 13 14 
3 12 14 15 
3 16 17 18 
3 16 18 19 
3 20 21 3 
3 20 3 2 
3 22 23 13 
3 22 13 12 
3 24 25 17 
3 24 17 16 
3 5 4 9 
3 5 9 8 
3 23 22 26 
3 23 26 27 
3 25 24 28 
3 25 28 29 
3 21 20 30 
3 21 30 31 
3 32 33 34 
3 32 34 35 
3 36 37 38 
3 36 38 39 
3 40 41 42 
3 40 42 43 
3 44 45 46 
3 44 46 47 
3 48 49 50 
3 48 50 51 
3 52 53 54 
3 52 54 55 
3 56 57 52 
3 56 52 55 
3 58 59 48 
3 58 48 51 
3 37 36 44 
3 37 44 47 
3 60 61 62 
3 60 62 63 
3 57 56 64 
3 57 64 65 
3 59 58 66 
3 59 66 67 
3 68 69 70 
3 68 70 71 
3 72 73 74 
3 72 74 75 
3 76 77 78 
3 76 78 79 
3 80 81 82 
3 80 82 83 
3 84 85 86 
3 84 86 87 
3 88 89 90 
3 88 90 91 
3 92 93 75 
3 92 75 74 
3 94 95 85 
3 94 85 84 
3 96 97 89 
3 96 89 88 
3 77 76 81 
3 77 81 80 
3 95 94 98 
3 95 98 99 
3 97 96 100 
3 97 100 101 
3 93 92 102 
3 93 102 103 
3 104 105 106 
3 104 106 107 
3 108 109 110 
3 108 110 111 
3 109 112 113 
3 109 113 110 
3 112 108 111 
3 112 111 113 
3 114 115 112 
3 114 112 109 
3 116 117 113 
3 116 113 111 
3 118 119 111 
3 118 111 110 
3 115 120 108 
3 115 108 112 
3 120 114 109 
3 120 109 108 
3 121 122 110 
3 121 110 113 
3 123 124 125 
3 123 125 126 
3 127 128 129 
3 127 129 130 
3 126 127 130 
3 126 130 123 
3 128 125 124 
3 128 124 129 
3 131 132 133 
3 131 133 134 
3 135 136 137 
3 135 137 138 
3 139 140 141 
3 139 141 142 
3 143 144 145 
3 143 145 146 
3 135 143 146 
3 135 146 136 
3 142 141 132 
3 142 132 131 
3 134 133 145 
3 134 145 144 
3 138 137 147 
3 138 147 148 
3 146 145 149 
3 146 149 150 
3 151 152 153 
3 151 153 154 
3 151 154 155 
3 151 155 156 
3 151 156 157 
3 151 157 158 
3 159 160 161 
3 159 161 162 
3 147 137 163 
3 147 163 164 
3 132 141 159 
3 132 159 165 
3 145 133 166 
3 145 166 149 
3 136 146 150 
3 136 150 167 
3 137 136 167 
3 137 167 163 
3 141 140 160 
3 141 160 159 
3 133 132 165 
3 133 165 166 
3 168 169 170 
3 168 170 171 
3 168 171 172 
3 168 172 173 
3 168 173 174 
3 168 174 175 
3 166 165 176 
3 166 176 177 
3 150 149 178 
3 150 178 179 
3 164 163 180 
3 164 180 181 
3 165 159 162 
3 165 162 176 
3 149 166 177 
3 149 177 178 
3 167 150 179 
3 167 179 182 
3 163 167 182 
3 163 182 180 
3 183 184 185 
3 183 185 186 
3 187 188 189 
3 187 189 190 
3 191 192 193 
3 191 193 194 
3 195 196 197 
3 195 197 198 
3 199 200 201 
3 199 201 202 
3 203 204 196 
3 203 196 195 
3 205 206 207 
3 205 207 208 
3 209 210 211 
3 209 211 212 
3 204 213 191 
3 204 191 196 
3 214 215 216 
3 214 216 217 
3 218 219 220 
3 218 220 221 
3 222 213 223 
3 222 223 224 
3 204 203 225 
3 204 225 226 
3 227 228 229 
3 227 229 230 
3 231 232 233 
3 231 233 234 
3 235 236 237 
3 235 237 238 
3 213 204 226 
3 213 226 223 
3 206 205 239 
3 206 239 240 
3 236 235 210 
3 236 210 209 
3 219 218 188 
3 219 188 187 
3 213 222 192 
3 213 192 191 
3 228 227 200 
3 228 200 199 
3 241 242 243 
3 241 243 244 
3 232 231 242 
3 232 242 241 
3 215 214 184 
3 215 184 183 
3 196 191 245 
3 196 245 246 
3 210 235 206 
3 210 206 240 
3 215 183 239 
3 215 239 205 
3 188 218 236 
3 188 236 209 
3 192 222 219 
3 192 219 187 
3 200 227 203 
3 200 203 195 
3 242 231 228 
3 242 228 199 
3 184 214 232 
3 184 232 241 
3 183 186 247 
3 183 247 239 
3 240 248 211 
3 240 211 210 
3 209 212 189 
3 209 189 188 
3 187 190 193 
3 187 193 192 
3 195 198 201 
3 195 201 200 
3 199 202 243 
3 199 243 242 
3 241 244 185 
3 241 185 184 
3 205 208 216 
3 205 216 215 
3 235 238 207 
3 235 207 206 
3 218 221 237 
3 218 237 236 
3 222 224 220 
3 222 220 219 
3 227 230 225 
3 227 225 203 
3 231 234 229 
3 231 229 228 
3 214 217 233 
3 214 233 232 
3 240 239 247 
3 240 247 248 
3 249 250 251 
3 249 251 252 
3 253 254 255 
3 253 255 256 
3 252 253 256 
3 252 256 249 
3 254 251 250 
3 254 250 255 
3 257 258 259 
3 257 259 260 
3 261 262 263 
3 261 263 264 
3 265 266 267 
3 265 267 268 
3 269 270 271 
3 269 271 272 
3 261 269 272 
3 261 272 262 
3 268 267 258 
3 268 258 257 
3 260 259 271 
3 260 271 270 
3 264 263 273 
3 264 273 274 
3 272 271 275 
3 272 275 276 
3 277 278 279 
3 277 279 280 
3 277 280 281 
3 277 281 282 
3 277 282 283 
3 277 283 284 
3 285 286 287 
3 285 287 288 
3 273 263 289 
3 273 289 290 
3 258 267 285 
3 258 285 291 
3 271 259 292 
3 271 292 275 
3 262 272 276 
3 262 276 293 
3 263 262 293 
3 263 293 289 
3 267 266 286 
3 267 286 285 
3 259 258 291 
3 259 291 292 
3 294 295 296 
3 294 296 297 
3 294 297 298 
3 294 298 299 
3 294 299 300 
3 294 300 301 
3 292 291 302 
3 292 302 303 
3 276 275 304 
3 276 304 305 
3 290 289 306 
3 290 306 307 
3 291 285 288 
3 291 288 302 
3 275 292 303 
3 275 303 304 
3 293 276 305 
3 293 305 308 
3 289 293 308 
3 289 308 306 
3 309 310 311 
3 309 311 312 
3 312 311 313 
3 312 313 314 
3 315 316 317 
3 315 317 318 
3 318 317 319 
3 318 319 320 
3 320 319 321 
3 320 321 322 
3 322 321 323 
3 322 323 324 
3 325 326 327 
3 325 327 328 
3 325 328 329 
3 325 329 330 
3 325 330 331 
3 325 331 332 
3 324 323 333 
3 324 333 334 
3 334 333 310 
3 334 310 309 
3 335 336 337 
3 335 337 338 
3 335 338 339 
3 335 339 340 
3 335 340 341 
3 335 341 342 
3 343 344 345 
3 343 345 346 
3 346 345 347 
3 346 347 348 
3 349 350 351 
3 349 351 352 
3 352 351 353 
3 352 353 354 
3 354 353 355 
3 354 355 356 
3 356 355 357 
3 356 357 358 
3 359 360 361 
3 359 361 362 
3 359 362 363 
3 359 363 364 
3 359 364 365 
3 359 365 366 
3 358 357 367 
3 358 367 368 
3 368 367 344 
3 368 344 343 
3 369 370 371 
3 369 371 372 
3 369 372 373 
3 369 373 374 
3 369 374 375 
3 369 375 376 
3 377 378 379 
3 377 379 380 
3 380 379 381 
3 380 381 382 
3 383 384 385 
3 383 385 386 
3 386 385 387 
3 386 387 388 
3 388 387 389 
3 388 389 390 
3 390 389 391 
3 390 391 392 
3 393 394 395 
3 393 395 396 
3 393 396 397 
3 393 397 398 
3 393 398 399 
3 393 399 400 
3 392 391 401 
3 392 401 402 
3 402 401 378 
3 402 378 377 
3 403 404 405 
3 406 405 404 
3 405 407 408 
3 409 408 410 
3 405 408 409 
3 409 403 405 
3 411 412 413 
3 411 413 414 
3 415 416 417 
3 415 417 418 
3 419 420 421 
3 419 421 422 
3 423 424 425 
3 423 425 426 
3 427 428 429 
3 427 429 430 
3 431 432 433 
3 434 435 424 
3 436 437 438 
3 439 440 425 
3 441 442 443 
3 444 445 417 
3 446 447 448 
3 449 416 450 
3 436 431 433 
3 436 433 437 
3 451 434 424 
3 451 424 423 
3 435 439 425 
3 435 425 424 
3 440 452 426 
3 440 426 425 
3 453 454 455 
3 453 455 456 
3 420 419 429 
3 420 429 428 
3 416 415 457 
3 416 457 450 
3 441 446 448 
3 441 448 442 
3 449 444 417 
3 449 417 416 
3 445 458 418 
3 445 418 417 
3 459 460 461 
3 459 461 462 
3 422 421 413 
3 422 413 412 
3 463 464 465 
3 463 465 466 
3 465 467 468 
3 465 468 466 
3 469 470 466 
3 469 466 468 
3 471 472 468 
3 471 468 467 
3 473 474 467 
3 473 467 465 
