ply
format ascii 1.0
comment VCGLIB generated
element vertex 487
property float x
property float y
property float z
property float nx
property float ny
property float nz
property uchar red
property uchar green
property uchar blue
property uchar alpha
property float texture_u
property float texture_v
element face 440
property list uchar int vertex_indices
end_header
2.192739 4.498131 0.004788717 -1 0 0 255 255 0 255 0.5043389 0.3390391
2.192739 4.498132 2.325523 -1 0 0 255 255 0 255 0.5043389 0.9977145
2.192739 5.012949 2.325523 -1 0 0 255 255 0 255 0.3582225 0.9977145
2.192739 5.012949 0.004788695 -1 0 0 255 255 0 255 0.3582225 0.3390391
3.430718 5.012949 0.004788695 1 0 0 255 255 0 255 0.5089101 0.9977142
3.430718 5.012949 2.325523 1 0 0 255 255 0 255 0.5089102 0.3390391
3.430718 4.498132 2.325523 1 0 0 255 255 0 255 0.6550264 0.3390391
3.430718 4.498131 0.004788717 1 0 0 255 255 0 255 0.6550264 0.9977145
3.430718 5.012949 2.325523 0 0 1 255 255 0 255 0.6595976 0.6904045
2.192739 5.012949 2.325523 0 0 1 255 255 0 255 0.6595976 0.3390391
2.192739 4.498132 2.325523 0 0 1 255 255 0 255 0.8057138 0.3390391
3.430718 4.498132 2.325523 0 0 1 255 255 0 255 0.8057138 0.6904045
2.192739 4.498132 2.325523 0 -1 2.054682e-07 255 255 0 255 0.002285589 0.6609609
2.192739 4.498131 0.004788717 0 -1 2.054682e-07 255 255 0 255 0.002285708 0.002285589
3.430718 4.498131 0.004788717 0 -1 2.054682e-07 255 255 0 255 0.3536513 0.002285589
3.430718 4.498132 2.325523 0 -1 2.054682e-07 255 255 0 255 0.3536513 0.660961
3.3711 4.498132 2.265905 0 0 1 255 255 0 255 0.3582225 0.323808
2.252357 4.498132 2.265905 0 0 1 255 255 0 255 0.3582225 0.01297609
2.252357 4.484887 2.265905 -0.2672613 -0.8017837 0.5345225 255 255 0 255 0.3636476 0.01296077
3.3711 4.484887 2.265905 0.5345225 -0.8017837 0.2672613 255 255 0 255 0.3636477 0.3237927
2.252357 4.498132 2.265905 -1 0 0 255 255 0 255 0.3635865 0.002285589
2.252357 4.498131 0.06440724 -1 0 0 255 255 0 255 0.9752519 0.002285589
2.252357 4.484887 0.06440724 -0.5345225 -0.8017837 -0.2672613 255 255 0 255 0.9753132 0.01296077
3.3711 4.498131 0.06440724 1 0 0 255 255 0 255 0.9753743 0.3344679
3.3711 4.498132 2.265905 1 0 0 255 255 0 255 0.3637088 0.3344677
3.3711 4.484887 0.06440724 0.2672613 -0.8017837 -0.5345225 255 255 0 255 0.9753132 0.323793
2.252357 4.498131 0.06440724 0 0 -1 255 255 0 255 0.9807383 0.01294536
3.3711 4.498131 0.06440724 0 0 -1 255 255 0 255 0.9807383 0.3237775
2.472163 4.484887 1.07022 0 -1 0 255 255 0 255 0.6958574 0.07403173
2.38852 4.484887 1.071286 0 -1 0 255 255 0 255 0.6955613 0.05079213
2.38852 4.484887 1.258695 0 -1 0 255 255 0 255 0.6434914 0.05079216
2.472163 4.484887 1.258725 0 -1 0 255 255 0 255 0.6434833 0.07403179
2.400953 4.478939 1.24685 0.698217 -0.207925 -0.6850257 255 255 0 255 0.7135331 0.7632761
2.393594 4.478939 1.236987 0.9263057 -0.1450955 -0.3477141 255 255 0 255 0.7133066 0.7597816
2.394953 4.496125 1.233477 0.8637067 -0.167337 -0.4754041 255 255 0 255 0.7199746 0.7587792
2.401861 4.495195 1.242858 0.5978357 -0.2268654 -0.7688463 255 255 0 255 0.7197748 0.7621145
2.475784 4.484887 1.059931 1 0 0 255 255 0 255 0.729964 0.6949757
2.475784 4.484887 1.270381 1 0 0 255 255 0 255 0.729964 0.7548611
2.475784 4.478939 1.270381 0.8944272 -0.4472136 0 255 255 0 255 0.7282715 0.754861
2.475784 4.478939 1.059931 0.4472136 -0.8944272 0 255 255 0 255 0.7282715 0.6949758
2.475784 4.484887 1.270381 0 0 1 255 255 0 255 0.2322493 0.7056696
2.405931 4.484887 1.270381 -0.09801674 0 0.9951848 255 255 0 255 0.2123717 0.7056695
2.405931 4.478939 1.270381 -0.09801675 0 0.9951848 255 255 0 255 0.2123717 0.7039768
2.475784 4.478939 1.270381 0 0 1 255 255 0 255 0.2322493 0.7039769
2.367926 4.478939 1.097936 -0.9951847 0 -0.09801751 255 255 0 255 0.1572358 0.7039766
2.367926 4.478939 1.232376 -0.9951848 0 0.09801674 255 255 0 255 0.1954927 0.7039767
2.367926 4.484887 1.232376 -0.9951848 0 0.09801675 255 255 0 255 0.1954925 0.7056695
2.367926 4.484887 1.097936 -0.9951847 0 -0.09801751 255 255 0 255 0.1572358 0.7056692
2.405931 4.484887 1.059931 -0.09801674 0 -0.9951848 255 255 0 255 0.1403572 0.7056693
2.405931 4.478939 1.059931 -0.09801674 0 -0.9951848 255 255 0 255 0.1403572 0.7039767
2.391387 4.478939 1.062824 -0.3207229 0 -0.9471731 255 255 0 255 0.1445768 0.7039767
2.391387 4.484887 1.062824 -0.4429701 0 -0.8965364 255 255 0 255 0.1445768 0.7056693
2.379057 4.478939 1.071063 -0.6587778 0 -0.7523375 255 255 0 255 0.1487965 0.7039767
2.379057 4.484887 1.071063 -0.7523391 0 -0.6587762 255 255 0 255 0.1487965 0.7056691
2.370819 4.478939 1.083393 -0.8965368 0 -0.4429692 255 255 0 255 0.1530163 0.7039767
2.370819 4.484887 1.083393 -0.9471729 0 -0.3207233 255 255 0 255 0.1530163 0.7056691
2.391387 4.484887 1.267488 -0.3207229 0 0.9471731 255 255 0 255 0.208152 0.7056695
2.391387 4.478939 1.267488 -0.4429701 0 0.8965364 255 255 0 255 0.208152 0.7039767
2.379057 4.484887 1.25925 -0.6587768 0 0.7523385 255 255 0 255 0.2039321 0.7056695
2.379057 4.478939 1.25925 -0.752337 0 0.6587784 255 255 0 255 0.2039321 0.7039767
2.370819 4.484887 1.24692 -0.8965358 0 0.4429714 255 255 0 255 0.1997124 0.7056695
2.370819 4.478939 1.24692 -0.9471728 0 0.3207237 255 255 0 255 0.1997125 0.7039767
2.475784 4.484887 1.059931 0 0 -1 255 255 0 255 0.12048 0.7056696
2.475784 4.478939 1.059931 0 0 -1 255 255 0 255 0.12048 0.703977
2.471805 4.478939 1.255824 -0.3566422 -0.9342411 0 255 255 0 255 0.7271388 0.7507177
2.471805 4.478939 1.074488 -0.7132843 -0.7008748 0 255 255 0 255 0.7271392 0.699118
2.42535 4.478939 1.074488 0 -1 0 255 255 0 255 0.3373106 0.7212757
2.411967 4.478939 1.076872 0 -1 0 255 255 0 255 0.341119 0.7205974
2.391387 4.478939 1.062824 0 -1 0 255 255 0 255 0.3469751 0.7245947
2.405931 4.478939 1.059931 0 -1 0 255 255 0 255 0.3428366 0.725418
2.400953 4.478939 1.083462 0 -1 0 255 255 0 255 0.344253 0.7187222
2.379057 4.478939 1.071063 0 -1 0 255 255 0 255 0.3504838 0.7222505
2.393594 4.478939 1.093325 0 -1 0 255 255 0 255 0.3463471 0.7159154
2.370819 4.478939 1.083393 0 -1 0 255 255 0 255 0.3528282 0.7187418
2.390932 4.478939 1.10531 0 -1 0 255 255 0 255 0.3471047 0.7125048
2.367926 4.478939 1.097936 0 -1 0 255 255 0 255 0.3536513 0.7146032
2.411967 4.478939 1.25344 0 -1 0 255 255 0 255 0.3411191 0.6703528
2.42535 4.478939 1.255824 0 -1 0 255 255 0 255 0.3373106 0.6696743
2.405931 4.478939 1.270381 0 -1 0 255 255 0 255 0.3428366 0.6655321
2.391387 4.478939 1.267488 0 -1 0 255 255 0 255 0.3469751 0.6663553
2.400953 4.478939 1.24685 0 -1 0 255 255 0 255 0.3442532 0.672228
2.379057 4.478939 1.25925 0 -1 0 255 255 0 255 0.3504838 0.6686996
2.393594 4.478939 1.236987 0 -1 0 255 255 0 255 0.3463471 0.6750347
2.370819 4.478939 1.24692 0 -1 0 255 255 0 255 0.3528282 0.6722082
2.390932 4.478939 1.225002 0 -1 0 255 255 0 255 0.3471047 0.6784451
2.367926 4.478939 1.232376 0 -1 0 255 255 0 255 0.3536513 0.6763469
2.471805 4.478939 1.074488 0 -1 0 255 255 0 255 0.3240915 0.7212759
2.475784 4.478939 1.059931 0 -1 0 255 255 0 255 0.3229592 0.725418
2.471805 4.478939 1.255824 0 -1 0 255 255 0 255 0.3240912 0.6696743
2.475784 4.478939 1.270381 0 -1 0 255 255 0 255 0.322959 0.6655321
2.468371 4.486797 1.078918 -0.1237839 -0.992309 -0.0007050092 255 255 0 255 0.6595976 0.694976
2.468371 4.486797 1.251394 -0.1237411 -0.9923143 -0.0007083768 255 255 0 255 0.7086775 0.6949757
2.424763 4.492112 1.251394 -0.1237497 -0.9923133 -0.0007104923 255 255 0 255 0.7086775 0.7076599
2.4122 4.493804 1.249126 -0.1237643 -0.9923114 -0.0007138883 255 255 0 255 0.7080324 0.711314
2.401861 4.495195 1.242858 -0.1237731 -0.9923103 -0.0007154309 255 255 0 255 0.7062485 0.7143213
2.394953 4.496125 1.233477 -0.1237868 -0.9923086 -0.0007126023 255 255 0 255 0.7035791 0.7163305
2.392454 4.496462 1.222078 -0.1237984 -0.9923072 -0.0007085257 255 255 0 255 0.7003353 0.7170574
2.392454 4.496462 1.108234 -0.1237993 -0.9923071 -0.0007054254 255 255 0 255 0.6679397 0.7170574
2.394953 4.496125 1.096835 -0.1237993 -0.9923071 -0.0007003212 255 255 0 255 0.6646959 0.7163305
2.401861 4.495195 1.087454 -0.1237991 -0.9923071 -0.0006938034 255 255 0 255 0.6620265 0.7143213
2.4122 4.493804 1.081186 -0.1237989 -0.9923071 -0.0006902757 255 255 0 255 0.6602427 0.7113141
2.424763 4.492112 1.078918 -0.1237989 -0.9923071 -0.0006902757 255 255 0 255 0.6595976 0.70766
2.390932 4.478939 1.10531 0.9834044 -0.1096887 0.1445138 255 255 0 255 0.7132487 0.7222286
2.393594 4.478939 1.093325 0.863708 -0.1673353 0.4754025 255 255 0 255 0.7133066 0.7187354
2.394953 4.496125 1.096835 0.9263062 -0.1450946 0.3477133 255 255 0 255 0.7199746 0.7197379
2.392454 4.496462 1.108234 0.9925262 -0.09834006 0.07225691 255 255 0 255 0.7200701 0.7230607
2.471805 4.478939 1.255824 -0.02312796 -0.391919 -0.919709 255 255 0 255 0.7178608 0.7835415
2.42535 4.478939 1.255824 0.09285963 -0.3272029 -0.9403804 255 255 0 255 0.7147632 0.7706903
2.424763 4.492112 1.251394 0.03481342 -0.3604491 -0.932129 255 255 0 255 0.7195976 0.7693172
2.468371 4.486797 1.251394 -0.02312796 -0.391919 -0.919709 255 255 0 255 0.7201275 0.7819901
2.411967 4.478939 1.076872 0.2669892 -0.2796532 0.9222315 255 255 0 255 0.7139949 0.7116182
2.42535 4.478939 1.074488 0.03481342 -0.3604491 0.932129 255 255 0 255 0.7147632 0.7078267
2.424763 4.492112 1.078918 0.09285963 -0.3272029 0.9403804 255 255 0 255 0.7195978 0.7092
2.4122 4.493804 1.081186 0.3815591 -0.2624014 0.8863172 255 255 0 255 0.7195995 0.7129107
2.390932 4.478939 1.225002 0.9925262 -0.09834006 -0.07225691 255 255 0 255 0.7132487 0.7562885
2.392454 4.496462 1.222078 0.9834044 -0.1096887 -0.1445138 255 255 0 255 0.7200702 0.7554564
2.411967 4.478939 1.25344 0.3815612 -0.2624033 -0.8863158 255 255 0 255 0.7139949 0.7668989
2.4122 4.493804 1.249126 0.2669903 -0.2796541 -0.9222309 255 255 0 255 0.7195994 0.7656063
2.400953 4.478939 1.083462 0.5978348 -0.2268629 0.7688477 255 255 0 255 0.7135331 0.715241
2.401861 4.495195 1.087454 0.698218 -0.2079226 0.6850255 255 255 0 255 0.7197749 0.7164026
2.471805 4.478939 1.074488 -0.02312796 -0.391919 0.919709 255 255 0 255 0.7178608 0.6949757
2.468371 4.486797 1.078918 -0.02312796 -0.391919 0.919709 255 255 0 255 0.7201275 0.6965271
2.468371 4.486797 1.251394 -0.916341 -0.4003988 0 255 255 0 255 0.7246987 0.7494571
2.468371 4.486797 1.078918 -0.916341 -0.4003988 0 255 255 0 255 0.7246987 0.7003788
2.303484 4.47728 1.939811 0 -1 0 255 255 0 255 0.1132451 0.6655322
2.306226 4.47728 1.933192 0 -1 0 255 255 0 255 0.1151286 0.6663123
2.312845 4.47728 1.93045 0 -1 0 255 255 0 255 0.1159089 0.668196
2.449349 4.47728 1.93045 0 -1 0 255 255 0 255 0.1159089 0.7070397
2.455968 4.47728 1.933192 0 -1 0 255 255 0 255 0.1151287 0.7089232
2.45871 4.47728 1.939811 0 -1 0 255 255 0 255 0.1132451 0.7097034
2.45871 4.47728 2.136253 0 -1 0 255 255 0 255 0.05734501 0.7097033
2.455968 4.47728 2.142872 0 -1 0 255 255 0 255 0.05546137 0.7089231
2.449349 4.47728 2.145614 0 -1 0 255 255 0 255 0.05468121 0.7070397
2.312845 4.47728 2.145614 0 -1 0 255 255 0 255 0.05468121 0.6681959
2.306226 4.47728 2.142872 0 -1 0 255 255 0 255 0.05546137 0.6663122
2.303484 4.47728 2.136253 0 -1 0 255 255 0 255 0.05734501 0.6655321
2.303484 4.484838 2.136253 -0.9915432 0 0.1297772 255 255 0 255 0.2967989 0.7061272
2.303484 4.484838 1.939811 -0.9657297 0 -0.2595502 255 255 0 255 0.2408982 0.7061272
2.303484 4.47728 1.939811 -0.9915435 0 -0.1297751 255 255 0 255 0.2408982 0.7039766
2.303484 4.47728 2.136253 -0.9657285 0 0.2595544 255 255 0 255 0.2967989 0.7039766
2.45871 4.484838 2.136253 0.9657285 0 0.2595544 255 255 0 255 0.7366858 0.754954
2.455968 4.484838 2.142872 0.6037428 0 0.7971792 255 255 0 255 0.7366858 0.7569927
2.455968 4.47728 2.142872 0.7971715 0 0.603753 255 255 0 255 0.7345352 0.7569927
2.45871 4.47728 2.136253 0.9915432 0 0.1297772 255 255 0 255 0.7345353 0.754954
2.449349 4.484838 1.93045 0.3826628 0 -0.9238881 255 255 0 255 0.7366858 0.6949757
2.455968 4.484838 1.933192 0.7971713 0 -0.6037533 255 255 0 255 0.7366857 0.6970142
2.455968 4.47728 1.933192 0.6037359 0 -0.7971844 255 255 0 255 0.7345353 0.6970144
2.449349 4.47728 1.93045 0.3826628 0 -0.9238881 255 255 0 255 0.7345353 0.6949757
2.306226 4.484838 2.142872 -0.7971739 0 0.6037499 255 255 0 255 0.2988375 0.7061272
2.306226 4.47728 2.142872 -0.6037499 0 0.7971739 255 255 0 255 0.2988375 0.7039766
2.306226 4.484838 1.933192 -0.603743 0 -0.7971791 255 255 0 255 0.2388592 0.7061272
2.306226 4.47728 1.933192 -0.7971736 0 -0.6037501 255 255 0 255 0.2388592 0.7039766
2.449349 4.484838 2.145614 0.382677 0 0.9238822 255 255 0 255 0.7366858 0.7590315
2.449349 4.47728 2.145614 0.382677 0 0.9238822 255 255 0 255 0.7345352 0.7590315
2.45871 4.484838 1.939811 0.9915435 0 -0.1297751 255 255 0 255 0.7366858 0.6990531
2.45871 4.47728 1.939811 0.9657297 0 -0.2595502 255 255 0 255 0.7345353 0.6990531
2.312845 4.484838 1.93045 -0.3826746 0 -0.9238832 255 255 0 255 0.2368205 0.7061272
2.312845 4.47728 1.93045 -0.3826746 0 -0.9238832 255 255 0 255 0.2368205 0.7039767
2.449349 4.484838 2.145614 0 0 1 255 255 0 255 0.1638948 0.7102407
2.312845 4.484838 2.145614 0 0 1 255 255 0 255 0.2027384 0.7102407
2.312845 4.47728 2.145614 0 0 1 255 255 0 255 0.2027384 0.7123913
2.449349 4.47728 2.145614 0 0 1 255 255 0 255 0.1638948 0.7123913
2.312845 4.484838 1.93045 0 0 -1 255 255 0 255 0.1593236 0.7123914
2.449349 4.484838 1.93045 0 0 -1 255 255 0 255 0.12048 0.7123914
2.449349 4.47728 1.93045 0 0 -1 255 255 0 255 0.12048 0.7102407
2.312845 4.47728 1.93045 0 0 -1 255 255 0 255 0.1593236 0.7102407
2.312845 4.484838 2.145614 -0.3826888 0 0.9238773 255 255 0 255 0.3008763 0.7061272
2.312845 4.47728 2.145614 -0.3826888 0 0.9238773 255 255 0 255 0.3008763 0.7039768
3.3711 4.517199 0.2111514 0.1950314 0.9807971 0 255 255 0 255 0.3181738 0.6994054
3.3711 4.517199 0.4320196 0.1950314 0.9807971 0 255 255 0 255 0.2553234 0.6994051
3.378397 4.515748 0.4320196 0.3207013 0.9471804 0 255 255 0 255 0.2553235 0.697288
3.378397 4.515748 0.2111514 0.442984 0.8965296 0 255 255 0 255 0.3181738 0.6972884
3.384583 4.511614 0.4320196 0.6587995 0.7523186 0 255 255 0 255 0.2553235 0.695171
3.384583 4.511614 0.2111514 0.7523419 0.6587729 0 255 255 0 255 0.3181738 0.6951713
3.388716 4.505428 0.4320196 0.896531 0.4429811 0 255 255 0 255 0.2553235 0.6930538
3.388716 4.505428 0.2111514 0.9471706 0.3207304 0 255 255 0 255 0.3181738 0.6930543
3.390167 4.498131 0.4320196 0.9978093 0.06615571 0 255 255 0 255 0.2553235 0.6909368
3.390167 4.498131 0.2111514 0.9978085 -0.0661682 0 255 255 0 255 0.3181738 0.690937
3.388716 4.490835 0.4320196 0.9471716 -0.3207273 0 255 255 0 255 0.2553236 0.6888199
3.388716 4.490835 0.2111514 0.8965397 -0.4429633 0 255 255 0 255 0.3181739 0.6888199
3.384583 4.484649 0.4320196 0.7523462 -0.6587679 0 255 255 0 255 0.2553236 0.6867028
3.384583 4.484649 0.2111514 0.6587813 -0.7523345 0 255 255 0 255 0.3181739 0.686703
3.378397 4.480515 0.4320196 0.4429722 -0.8965354 0 255 255 0 255 0.2553236 0.6845858
3.378397 4.480515 0.2111514 0.3207288 -0.947171 0 255 255 0 255 0.3181739 0.684586
3.3711 4.479064 0.4320196 0.06616196 -0.9978089 0 255 255 0 255 0.2553236 0.6824686
3.3711 4.479064 0.2111514 -0.06616196 -0.9978089 0 255 255 0 255 0.3181739 0.6824688
3.363803 4.480515 0.4320196 -0.3207233 -0.9471729 0 255 255 0 255 0.2553235 0.6803516
3.363803 4.480515 0.2111514 -0.4429615 -0.8965406 0 255 255 0 255 0.3181738 0.6803517
3.357617 4.484649 0.4320196 -0.6587723 -0.7523424 0 255 255 0 255 0.2553235 0.6782347
3.357617 4.484649 0.2111514 -0.7523424 -0.6587723 0 255 255 0 255 0.3181738 0.6782347
3.353484 4.490835 0.4320196 -0.8965397 -0.4429633 0 255 255 0 255 0.2553236 0.6761174
3.353484 4.490835 0.2111514 -0.9471716 -0.3207273 0 255 255 0 255 0.3181739 0.6761176
3.352033 4.498131 0.4320196 -0.9978085 -0.0661682 0 255 255 0 255 0.2553234 0.6740004
3.352033 4.498131 0.2111514 -0.9978093 0.06615571 0 255 255 0 255 0.3181739 0.6740005
3.353484 4.505428 0.4320196 -0.9471706 0.3207304 0 255 255 0 255 0.2553234 0.6718835
3.353484 4.505428 0.2111514 -0.896531 0.4429811 0 255 255 0 255 0.3181739 0.6718835
3.357617 4.511614 0.4320196 -0.7523381 0.6587772 0 255 255 0 255 0.2553234 0.6697662
3.357617 4.511614 0.2111514 -0.6587905 0.7523265 0 255 255 0 255 0.3181739 0.6697664
3.378397 4.515748 0.4320196 0 0 1 255 255 0 255 0.2824635 0.7170786
3.3711 4.517199 0.4320196 0 0 1 255 255 0 255 0.2824635 0.7149615
3.363803 4.515748 0.4320196 0 0 1 255 255 0 255 0.2832736 0.7130056
3.357617 4.511614 0.4320196 0 0 1 255 255 0 255 0.2847705 0.7115086
3.353484 4.505428 0.4320196 0 0 1 255 255 0 255 0.2867264 0.7106985
3.352033 4.498131 0.4320196 0 0 1 255 255 0 255 0.2888436 0.7106985
3.353484 4.490835 0.4320196 0 0 1 255 255 0 255 0.2907994 0.7115085
3.357617 4.484649 0.4320196 0 0 1 255 255 0 255 0.2922966 0.7130055
3.363803 4.480515 0.4320196 0 0 1 255 255 0 255 0.2931067 0.7149615
3.3711 4.479064 0.4320196 0 0 1 255 255 0 255 0.2931067 0.7170785
3.378397 4.480515 0.4320196 0 0 1 255 255 0 255 0.2922965 0.7190345
3.384583 4.484649 0.4320196 0 0 1 255 255 0 255 0.2907996 0.7205315
3.388716 4.490835 0.4320196 0 0 1 255 255 0 255 0.2888438 0.7213416
3.390167 4.498131 0.4320196 0 0 1 255 255 0 255 0.2867265 0.7213416
3.388716 4.505428 0.4320196 0 0 1 255 255 0 255 0.2847707 0.7205315
3.384583 4.511614 0.4320196 0 0 1 255 255 0 255 0.2832736 0.7190344
3.363803 4.515748 0.4320196 -0.442977 0.896533 0 255 255 0 255 0.2553234 0.6676492
3.363803 4.515748 0.2111514 -0.3207038 0.9471796 0 255 255 0 255 0.3181739 0.6676493
3.3711 4.517199 0.4320196 -0.1950437 0.9807946 0 255 255 0 255 0.2553235 0.6655322
3.3711 4.517199 0.2111514 -0.1950437 0.9807946 0 255 255 0 255 0.3181739 0.6655321
3.3711 4.517199 0.2111514 -1.073618e-11 -6.630763e-10 -1 255 255 0 255 0.1095288 0.7142745
3.378397 4.515748 0.2111514 0 0 -1 255 255 0 255 0.1116459 0.7142746
3.384583 4.511614 0.2111514 -8.768541e-11 -1.312351e-10 -1 255 255 0 255 0.1136017 0.7150847
3.388716 4.505428 0.2111514 -1.210016e-10 -2.732609e-10 -1 255 255 0 255 0.1150987 0.7165817
3.390167 4.498131 0.2111514 -2.054588e-11 -3.148089e-10 -1 255 255 0 255 0.1159089 0.7185377
3.388716 4.490835 0.2111514 5.632442e-11 -3.915975e-10 -1 255 255 0 255 0.1159089 0.7206547
3.384583 4.484649 0.2111514 9.790749e-11 -4.919183e-10 -1 255 255 0 255 0.1150986 0.7226107
3.378397 4.480515 0.2111514 9.788025e-11 -6.00482e-10 -1 255 255 0 255 0.1136017 0.7241077
3.3711 4.479064 0.2111514 5.625548e-11 -7.007497e-10 -1 255 255 0 255 0.1116459 0.7249177
3.363803 4.480515 0.2111514 -2.06248e-11 -7.774499e-10 -1 255 255 0 255 0.1095288 0.7249177
3.357617 4.484649 0.2111514 -1.210559e-10 -8.189019e-10 -1 255 255 0 255 0.1075728 0.7241076
3.353484 4.490835 0.2111514 -8.77097e-11 -9.608343e-10 -1 255 255 0 255 0.1060759 0.7226107
3.352033 4.498131 0.2111514 -1.451411e-14 -1.091988e-09 -1 255 255 0 255 0.1052658 0.7206547
3.353484 4.505428 0.2111514 -1.451352e-14 -1.091944e-09 -1 255 255 0 255 0.1052658 0.7185375
3.357617 4.511614 0.2111514 -1.451336e-14 -1.091932e-09 -1 255 255 0 255 0.1060759 0.7165818
3.363803 4.515748 0.2111514 -1.451336e-14 -1.091932e-09 -1 255 255 0 255 0.1075728 0.7150847
3.3711 4.517199 0.7219989 0.01363085 0.205658 -0.978529 255 255 0 255 0.04996919 0.751215
3.3711 4.517199 0.9428672 0.1950314 0.980797 0 255 255 0 255 0.002285589 0.6711501
3.378397 4.515748 0.9428672 0.3206848 0.947186 0 255 255 0 255 0.004982514 0.669544
3.378397 4.515748 0.7219989 0.419487 0.849052 -0.3211565 255 255 0 255 0.04970458 0.7512117
3.384583 4.511614 0.9428672 0.6587813 0.7523345 0 255 255 0 255 0.007686311 0.6679342
3.384583 4.511614 0.7219989 0.6226445 0.5451987 -0.561313 255 255 0 255 0.04952576 0.7513248
3.388716 4.505428 0.9428672 0.8965415 0.4429596 0 255 255 0 255 0.01040374 0.6663181
3.388716 4.505428 0.7219989 0.7838855 0.2654287 -0.561312 255 255 0 255 0.04900328 0.7505878
3.390167 4.498131 0.9428672 0.9978093 0.06615572 0 255 255 0 255 0.01374715 0.666133
3.390167 4.498131 0.7219989 0.8257898 -0.05476103 -0.5613132 255 255 0 255 0.04877682 0.7500269
3.388716 4.490835 0.9428672 0.9471716 -0.3207273 0 255 255 0 255 0.01702218 0.6659806
3.388716 4.490835 0.7219989 0.7419804 -0.3665984 -0.5613115 255 255 0 255 0.04864813 0.7495773
3.384583 4.484649 0.9428672 0.7523462 -0.6587679 0 255 255 0 255 0.02023489 0.6658568
3.384583 4.484649 0.7219989 0.5452098 -0.6226348 -0.561313 255 255 0 255 0.04861803 0.7492228
3.378397 4.480515 0.9428672 0.4429722 -0.8965354 0 255 255 0 255 0.02339053 0.6657586
3.378397 4.480515 0.7219989 0.2654365 -0.7838826 -0.5613124 255 255 0 255 0.04867166 0.74897
3.3711 4.479064 0.9428672 0.06616196 -0.9978089 0 255 255 0 255 0.02649486 0.6656823
3.3711 4.479064 0.7219989 -0.05475587 -0.82579 -0.5613132 255 255 0 255 0.04887844 0.7487017
3.363803 4.480515 0.9428672 -0.3207233 -0.9471729 0 255 255 0 255 0.0295528 0.665625
3.363803 4.480515 0.7219989 -0.3665969 -0.741981 -0.5613118 255 255 0 255 0.04913612 0.7485794
3.357617 4.484649 0.9428672 -0.6587723 -0.7523424 0 255 255 0 255 0.03256956 0.6655842
3.357617 4.484649 0.7219989 -0.622641 -0.5452021 -0.5613136 255 255 0 255 0.04942871 0.7485999
3.353484 4.490835 0.9428672 -0.8965397 -0.4429633 0 255 255 0 255 0.0355503 0.6655572
3.353484 4.490835 0.7219989 -0.7838836 -0.2654354 -0.5613115 255 255 0 255 0.04973071 0.7487651
3.352033 4.498131 0.9428672 -0.9978085 -0.0661682 0 255 255 0 255 0.03850047 0.6655412
3.352033 4.498131 0.7219989 -0.8257905 0.05475071 -0.5613132 255 255 0 255 0.04989021 0.7489907
3.353484 4.505428 0.9428672 -0.9471743 0.3207193 0 255 255 0 255 0.04142532 0.6655335
3.353484 4.505428 0.7219989 -0.7419817 0.3665953 -0.561312 255 255 0 255 0.05004077 0.7493563
3.357617 4.511614 0.9428672 -0.7523424 0.6587723 0 255 255 0 255 0.04433129 0.6655321
3.357617 4.511614 0.7219989 -0.5452021 0.622641 -0.5613136 255 255 0 255 0.05009374 0.7498078
3.378397 4.515748 0.9428672 0 0 1 255 255 0 255 0.2410835 0.7213416
3.3711 4.517199 0.9428672 0 0 1 255 255 0 255 0.2391275 0.7205315
3.363803 4.515748 0.9428672 0 0 1 255 255 0 255 0.2376306 0.7190346
3.357617 4.511614 0.9428672 0 0 1 255 255 0 255 0.2368205 0.7170787
3.353484 4.505428 0.9428672 0 0 1 255 255 0 255 0.2368205 0.7149615
3.352033 4.498131 0.9428672 0 0 1 255 255 0 255 0.2376306 0.7130057
3.353484 4.490835 0.9428672 0 0 1 255 255 0 255 0.2391275 0.7115086
3.357617 4.484649 0.9428672 0 0 1 255 255 0 255 0.2410835 0.7106985
3.363803 4.480515 0.9428672 0 0 1 255 255 0 255 0.2432006 0.7106985
3.3711 4.479064 0.9428672 0 0 1 255 255 0 255 0.2451564 0.7115085
3.378397 4.480515 0.9428672 0 0 1 255 255 0 255 0.2466535 0.7130056
3.384583 4.484649 0.9428672 0 0 1 255 255 0 255 0.2474637 0.7149614
3.388716 4.490835 0.9428672 0 0 1 255 255 0 255 0.2474637 0.7170786
3.390167 4.498131 0.9428672 0 0 1 255 255 0 255 0.2466535 0.7190344
3.388716 4.505428 0.9428672 0 0 1 255 255 0 255 0.2451565 0.7205315
3.384583 4.511614 0.9428672 0 0 1 255 255 0 255 0.2432006 0.7213416
3.363803 4.515748 0.9428672 -0.4429448 0.8965489 0 255 255 0 255 0.04722386 0.6655347
3.363803 4.515748 0.7219989 -0.3036993 0.8970094 -0.3211557 255 255 0 255 0.05011003 0.75039
3.3711 4.517199 0.9428672 -0.1950437 0.9807946 0 255 255 0 255 0.05011003 0.6655395
3.3711 4.517199 2.119161 0.195093 0.9807847 0 255 255 0 255 0.1879017 0.6994054
3.378397 4.515748 2.119161 0.4429703 0.8965363 0 255 255 0 255 0.1879017 0.6972884
3.378397 4.515748 1.898293 0.3207248 0.9471725 0 255 255 0 255 0.250752 0.6972884
3.3711 4.517199 1.898293 0.195093 0.9807847 0 255 255 0 255 0.2507521 0.6994054
3.384583 4.511614 2.119161 0.7523462 0.6587679 0 255 255 0 255 0.1879017 0.6951712
3.384583 4.511614 1.898293 0.6587813 0.7523345 0 255 255 0 255 0.2507521 0.6951714
3.388716 4.505428 2.119161 0.9471729 0.3207233 -1.42838e-07 255 255 0 255 0.1879017 0.6930543
3.388716 4.505428 1.898293 0.8965406 0.4429615 -7.141902e-08 255 255 0 255 0.2507521 0.6930543
3.390167 4.498132 2.119161 0.9978089 -0.06616197 7.141929e-08 255 255 0 255 0.1879017 0.6909372
3.390167 4.498131 1.898293 0.9978089 0.06616197 -7.141929e-08 255 255 0 255 0.2507521 0.6909372
3.388716 4.490835 2.119161 0.8965406 -0.4429615 7.141902e-08 255 255 0 255 0.1879017 0.6888202
3.388716 4.490835 1.898293 0.9471729 -0.3207233 1.42838e-07 255 255 0 255 0.2507521 0.6888201
3.384583 4.484649 2.119161 0.6587813 -0.7523345 0 255 255 0 255 0.1879017 0.6867031
3.384583 4.484649 1.898293 0.7523462 -0.6587679 0 255 255 0 255 0.2507521 0.6867031
3.378397 4.480515 2.119161 0.3207288 -0.9471711 0 255 255 0 255 0.1879017 0.6845859
3.378397 4.480515 1.898293 0.4429721 -0.8965354 0 255 255 0 255 0.2507521 0.6845858
3.3711 4.479064 2.119161 -0.06616196 -0.9978089 0 255 255 0 255 0.1879017 0.682469
3.3711 4.479064 1.898293 0.06616196 -0.9978089 0 255 255 0 255 0.2507521 0.6824687
3.363803 4.480515 2.119161 -0.4429614 -0.8965406 0 255 255 0 255 0.1879017 0.680352
3.363803 4.480515 1.898293 -0.3207233 -0.9471729 0 255 255 0 255 0.2507521 0.6803517
3.357617 4.484649 2.119161 -0.7523424 -0.6587723 0 255 255 0 255 0.1879017 0.6782347
3.357617 4.484649 1.898293 -0.6587723 -0.7523424 0 255 255 0 255 0.2507521 0.6782346
3.353484 4.490835 2.119161 -0.9471729 -0.3207233 1.42838e-07 255 255 0 255 0.1879017 0.6761178
3.353484 4.490835 1.898293 -0.8965406 -0.4429615 7.141902e-08 255 255 0 255 0.2507521 0.6761177
3.352033 4.498132 2.119161 -0.9978089 0.06616195 -7.141927e-08 255 255 0 255 0.1879017 0.6740007
3.352033 4.498131 1.898293 -0.9978089 -0.06616198 7.141929e-08 255 255 0 255 0.2507521 0.6740005
3.353484 4.505428 2.119161 -0.8965406 0.4429615 -7.1419e-08 255 255 0 255 0.1879017 0.6718836
3.353484 4.505428 1.898293 -0.9471729 0.3207233 -1.42838e-07 255 255 0 255 0.2507521 0.6718833
3.357617 4.511614 2.119161 -0.6587723 0.7523424 0 255 255 0 255 0.1879017 0.6697667
3.357617 4.511614 1.898293 -0.7523424 0.6587723 0 255 255 0 255 0.2507521 0.6697662
3.378397 4.515748 1.898293 0 0 -1 255 255 0 255 0.308341 0.7062839
3.384583 4.511614 1.898293 0 0 -1 255 255 0 255 0.3098379 0.7047868
3.388716 4.505428 1.898293 0 0 -1 255 255 0 255 0.311794 0.7039767
3.390167 4.498131 1.898293 0 0 -1 255 255 0 255 0.3139111 0.7039766
3.388716 4.490835 1.898293 0 0 -1 255 255 0 255 0.3158669 0.7047869
3.384583 4.484649 1.898293 0 0 -1 255 255 0 255 0.3173638 0.706284
3.378397 4.480515 1.898293 0 0 -1 255 255 0 255 0.3181739 0.7082399
3.3711 4.479064 1.898293 0 0 -1 255 255 0 255 0.3181739 0.710357
3.363803 4.480515 1.898293 0 0 -1 255 255 0 255 0.3173638 0.7123128
3.357617 4.484649 1.898293 0 0 -1 255 255 0 255 0.3158667 0.7138097
3.353484 4.490835 1.898293 0 0 -1 255 255 0 255 0.3139108 0.7146199
3.352033 4.498131 1.898293 0 0 -1 255 255 0 255 0.3117937 0.7146199
3.353484 4.505428 1.898293 0 0 -1 255 255 0 255 0.3098379 0.7138097
3.357617 4.511614 1.898293 0 0 -1 255 255 0 255 0.3083408 0.7123128
3.363803 4.515748 1.898293 0 0 -1 255 255 0 255 0.3075309 0.7103568
3.3711 4.517199 1.898293 0 0 -1 255 255 0 255 0.307531 0.70824
3.363803 4.515748 2.119161 -0.3207273 0.9471716 0 255 255 0 255 0.1879017 0.6676495
3.363803 4.515748 1.898293 -0.4429633 0.8965397 0 255 255 0 255 0.2507522 0.6676491
3.3711 4.517199 2.119161 -0.1951053 0.9807823 0 255 255 0 255 0.1879017 0.6655324
3.3711 4.517199 1.898293 -0.1951053 0.9807823 0 255 255 0 255 0.2507522 0.6655321
3.3711 4.517199 2.119161 0 0 1 255 255 0 255 0.2695561 0.7115086
3.363803 4.515748 2.119161 0 0 1 255 255 0 255 0.2715122 0.7106985
3.357617 4.511614 2.119161 0 0 1 255 255 0 255 0.2736291 0.7106985
3.353484 4.505428 2.119161 0 0 1 255 255 0 255 0.2755851 0.7115083
3.352033 4.498132 2.119161 0 0 1 255 255 0 255 0.2770821 0.7130054
3.353484 4.490835 2.119161 0 0 1 255 255 0 255 0.2778924 0.7149612
3.357617 4.484649 2.119161 0 0 1 255 255 0 255 0.2778924 0.7170783
3.363803 4.480515 2.119161 0 0 1 255 255 0 255 0.2770824 0.7190342
3.3711 4.479064 2.119161 0 0 1 255 255 0 255 0.2755854 0.7205315
3.378397 4.480515 2.119161 0 0 1 255 255 0 255 0.2736295 0.7213416
3.384583 4.484649 2.119161 0 0 1 255 255 0 255 0.2715124 0.7213416
3.388716 4.490835 2.119161 0 0 1 255 255 0 255 0.2695566 0.7205315
3.390167 4.498132 2.119161 0 0 1 255 255 0 255 0.2680595 0.7190344
3.388716 4.505428 2.119161 0 0 1 255 255 0 255 0.2672493 0.7170785
3.384583 4.511614 2.119161 0 0 1 255 255 0 255 0.2672492 0.7149616
3.378397 4.515748 2.119161 0 0 1 255 255 0 255 0.2680592 0.7130057
3.3711 4.517199 1.608313 0.195093 0.9807847 0 255 255 0 255 0.1833305 0.6655322
3.378397 4.515748 1.608313 0.4429703 0.8965363 0 255 255 0 255 0.1833304 0.6676494
3.378397 4.515748 1.387445 0.3207248 0.9471725 0 255 255 0 255 0.12048 0.6676492
3.3711 4.517199 1.387445 0.195093 0.9807847 0 255 255 0 255 0.1204801 0.6655321
3.384583 4.511614 1.608313 0.7523462 0.6587679 0 255 255 0 255 0.1833304 0.6697662
3.384583 4.511614 1.387445 0.6587813 0.7523345 0 255 255 0 255 0.12048 0.6697661
3.388716 4.505428 1.608313 0.9471743 0.3207193 0 255 255 0 255 0.1833304 0.6718834
3.388716 4.505428 1.387445 0.8965415 0.4429596 0 255 255 0 255 0.12048 0.6718833
3.390167 4.498131 1.608313 0.9978085 -0.0661682 0 255 255 0 255 0.1833304 0.6740005
3.390167 4.498131 1.387445 0.9978093 0.06615572 0 255 255 0 255 0.12048 0.6740004
3.388716 4.490835 1.608313 0.8965397 -0.4429633 0 255 255 0 255 0.1833304 0.6761176
3.388716 4.490835 1.387445 0.9471716 -0.3207273 0 255 255 0 255 0.12048 0.6761174
3.384583 4.484649 1.608313 0.6587813 -0.7523345 0 255 255 0 255 0.1833304 0.6782344
3.384583 4.484649 1.387445 0.7523462 -0.6587679 0 255 255 0 255 0.12048 0.6782344
3.378397 4.480515 1.608313 0.3207288 -0.9471711 0 255 255 0 255 0.1833304 0.6803516
3.378397 4.480515 1.387445 0.4429721 -0.8965354 0 255 255 0 255 0.12048 0.6803516
3.3711 4.479064 1.608313 -0.06616196 -0.9978089 0 255 255 0 255 0.1833304 0.6824686
3.3711 4.479064 1.387445 0.06616196 -0.9978089 0 255 255 0 255 0.12048 0.6824686
3.363803 4.480515 1.608313 -0.4429614 -0.8965406 0 255 255 0 255 0.1833304 0.6845856
3.363803 4.480515 1.387445 -0.3207233 -0.9471729 0 255 255 0 255 0.12048 0.6845858
3.357617 4.484649 1.608313 -0.7523424 -0.6587723 0 255 255 0 255 0.1833304 0.6867029
3.357617 4.484649 1.387445 -0.6587723 -0.7523424 0 255 255 0 255 0.12048 0.686703
3.353484 4.490835 1.608313 -0.9471716 -0.3207273 0 255 255 0 255 0.1833304 0.6888198
3.353484 4.490835 1.387445 -0.8965397 -0.4429633 0 255 255 0 255 0.12048 0.6888199
3.352033 4.498131 1.608313 -0.9978093 0.06615572 0 255 255 0 255 0.1833304 0.6909369
3.352033 4.498131 1.387445 -0.9978085 -0.0661682 0 255 255 0 255 0.12048 0.6909372
3.353484 4.505428 1.608313 -0.8965415 0.4429596 0 255 255 0 255 0.1833304 0.693054
3.353484 4.505428 1.387445 -0.9471743 0.3207193 0 255 255 0 255 0.12048 0.6930543
3.357617 4.511614 1.608313 -0.6587723 0.7523424 0 255 255 0 255 0.1833305 0.6951711
3.357617 4.511614 1.387445 -0.7523424 0.6587723 0 255 255 0 255 0.1204801 0.6951712
3.378397 4.515748 1.387445 0 0 -1 255 255 0 255 0.2618679 0.7130056
3.384583 4.511614 1.387445 0 0 -1 255 255 0 255 0.262678 0.7149615
3.388716 4.505428 1.387445 0 0 -1 255 255 0 255 0.262678 0.7170786
3.390167 4.498131 1.387445 0 0 -1 255 255 0 255 0.2618679 0.7190346
3.388716 4.490835 1.387445 0 0 -1 255 255 0 255 0.2603709 0.7205315
3.384583 4.484649 1.387445 0 0 -1 255 255 0 255 0.2584151 0.7213416
3.378397 4.480515 1.387445 0 0 -1 255 255 0 255 0.2562979 0.7213416
3.3711 4.479064 1.387445 0 0 -1 255 255 0 255 0.254342 0.7205315
3.363803 4.480515 1.387445 0 0 -1 255 255 0 255 0.252845 0.7190345
3.357617 4.484649 1.387445 0 0 -1 255 255 0 255 0.2520349 0.7170787
3.353484 4.490835 1.387445 0 0 -1 255 255 0 255 0.2520349 0.7149617
3.352033 4.498131 1.387445 0 0 -1 255 255 0 255 0.2528451 0.7130058
3.353484 4.505428 1.387445 0 0 -1 255 255 0 255 0.2543419 0.7115088
3.357617 4.511614 1.387445 0 0 -1 255 255 0 255 0.2562979 0.7106986
3.363803 4.515748 1.387445 0 0 -1 255 255 0 255 0.258415 0.7106985
3.3711 4.517199 1.387445 0 0 -1 255 255 0 255 0.2603708 0.7115087
3.363803 4.515748 1.608313 -0.3207273 0.9471716 0 255 255 0 255 0.1833304 0.6972882
3.363803 4.515748 1.387445 -0.4429633 0.8965397 0 255 255 0 255 0.12048 0.6972883
3.3711 4.517199 1.608313 -0.1951053 0.9807823 0 255 255 0 255 0.1833305 0.6994052
3.3711 4.517199 1.387445 -0.1951053 0.9807823 0 255 255 0 255 0.12048 0.6994055
3.3711 4.517199 1.608313 0 0 1 255 255 0 255 0.2179527 0.7166209
3.363803 4.515748 1.608313 0 0 1 255 255 0 255 0.2171426 0.7185768
3.357617 4.511614 1.608313 0 0 1 255 255 0 255 0.2156456 0.7200738
3.353484 4.505428 1.608313 0 0 1 255 255 0 255 0.2136897 0.720884
3.352033 4.498131 1.608313 0 0 1 255 255 0 255 0.2115727 0.7208838
3.353484 4.490835 1.608313 0 0 1 255 255 0 255 0.2096168 0.7200738
3.357617 4.484649 1.608313 0 0 1 255 255 0 255 0.2081198 0.7185768
3.363803 4.480515 1.608313 0 0 1 255 255 0 255 0.2073097 0.7166207
3.3711 4.479064 1.608313 0 0 1 255 255 0 255 0.2073096 0.7145037
3.378397 4.480515 1.608313 0 0 1 255 255 0 255 0.2081196 0.7125479
3.384583 4.484649 1.608313 0 0 1 255 255 0 255 0.2096167 0.7110509
3.388716 4.490835 1.608313 0 0 1 255 255 0 255 0.2115726 0.7102407
3.390167 4.498131 1.608313 0 0 1 255 255 0 255 0.2136896 0.7102407
3.388716 4.505428 1.608313 0 0 1 255 255 0 255 0.2156456 0.7110509
3.384583 4.511614 1.608313 0 0 1 255 255 0 255 0.2171427 0.7125478
3.378397 4.515748 1.608313 0 0 1 255 255 0 255 0.2179527 0.7145038
0.1343518 4.6926 4.719861e-08 -0.8164966 -0.4082483 -0.4082483 255 255 0 255 0.2160415 0.2160416
0.1343518 4.6926 0.7985189 -0.3333333 -0.6666667 0.6666667 255 255 0 255 0.2160414 0.7839583
0.1343518 4.996224 0.7985189 -1 0 0 255 255 0 255 0.0001000166 0.7839583
0.1343518 4.996224 3.392677e-08 -1 0 0 255 255 0 255 9.992719e-05 0.2160417
0.9328707 4.6926 4.719861e-08 0.3333333 -0.6666667 -0.6666667 255 255 0 255 0.7839582 0.2160415
0.9328707 4.6926 0.7985189 0.8164966 -0.4082483 0.4082483 255 255 0 255 0.7839582 0.7839583
0.9328707 4.996224 3.392677e-08 1 0 0 255 255 0 255 0.9998999 0.2160414
0.9328707 4.996224 0.7985189 1 0 0 255 255 0 255 0.9999 0.7839583
0.1343518 4.996224 3.392677e-08 0 -4.371142e-08 -1 255 255 0 255 0.2160415 0.0001000166
0.9328707 4.996224 3.392677e-08 0 -4.371142e-08 -1 255 255 0 255 0.7839582 0.0001000464
0.9328707 4.996224 0.7985189 0 0 1 255 255 0 255 0.7839582 0.9998999
0.1343518 4.996224 0.7985189 0 0 1 255 255 0 255 0.2160416 0.9998999
-0.6729906 4.6926 0.8079042 -0.8164966 -0.4082483 -0.4082483 255 255 0 255 0.2160415 0.2160416
-0.6729906 4.6926 1.606423 -0.3333333 -0.6666667 0.6666667 255 255 0 255 0.2160414 0.7839583
-0.6729906 4.996224 1.606423 -1 0 0 255 255 0 255 0.0001000166 0.7839583
-0.6729906 4.996224 0.8079042 -1 0 0 255 255 0 255 9.992719e-05 0.2160417
0.1255284 4.6926 0.8079042 0.3333333 -0.6666667 -0.6666667 255 255 0 255 0.7839582 0.2160415
0.1255284 4.6926 1.606423 0.8164966 -0.4082483 0.4082483 255 255 0 255 0.7839582 0.7839583
0.1255284 4.996224 0.8079042 1 0 0 255 255 0 255 0.9998999 0.2160414
0.1255284 4.996224 1.606423 1 0 0 255 255 0 255 0.9999 0.7839583
-0.6729906 4.996224 0.8079042 0 0 -1 255 255 0 255 0.2160415 0.0001000166
0.1255284 4.996224 0.8079042 0 0 -1 255 255 0 255 0.7839582 0.0001000464
0.1255284 4.996224 1.606423 0 0 1 255 255 0 255 0.7839582 0.9998999
-0.6729906 4.996224 1.606423 0 0 1 255 255 0 255 0.2160416 0.9998999
-0.6729906 4.6926 4.719861e-08 -0.8164966 -0.4082483 -0.4082483 255 255 0 255 0.2160415 0.2160416
-0.6729906 4.6926 0.7985189 -0.3333333 -0.6666667 0.6666667 255 255 0 255 0.2160414 0.7839583
-0.6729906 4.996224 0.7985189 -1 0 0 255 255 0 255 0.0001000166 0.7839583
-0.6729906 4.996224 3.392677e-08 -1 0 0 255 255 0 255 9.992719e-05 0.2160417
0.1255284 4.6926 4.719861e-08 0.3333333 -0.6666667 -0.6666667 255 255 0 255 0.7839582 0.2160415
0.1255284 4.6926 0.7985189 0.8164966 -0.4082483 0.4082483 255 255 0 255 0.7839582 0.7839583
0.1255284 4.996224 3.392677e-08 1 0 0 255 255 0 255 0.9998999 0.2160414
0.1255284 4.996224 0.7985189 1 0 0 255 255 0 255 0.9999 0.7839583
-0.6729906 4.996224 3.392677e-08 0 -4.371142e-08 -1 255 255 0 255 0.2160415 0.0001000166
0.1255284 4.996224 3.392677e-08 0 -4.371142e-08 -1 255 255 0 255 0.7839582 0.0001000464
0.1255284 4.996224 0.7985189 0 0 1 255 255 0 255 0.7839582 0.9998999
-0.6729906 4.996224 0.7985189 0 0 1 255 255 0 255 0.2160416 0.9998999
0.9407988 4.6926 0.8079042 -0.8164966 -0.4082483 -0.4082483 255 255 0 255 0.2160415 0.2160416
0.9407988 4.6926 1.606423 -0.3333333 -0.6666667 0.6666667 255 255 0 255 0.2160414 0.7839583
0.9407988 4.996224 1.606423 -1 0 0 255 255 0 255 0.0001000166 0.7839583
0.9407988 4.996224 0.8079042 -1 0 0 255 255 0 255 9.992719e-05 0.2160417
1.739318 4.6926 0.8079042 0.3333333 -0.6666667 -0.6666667 255 255 0 255 0.7839582 0.2160415
1.739318 4.6926 1.606423 0.8164966 -0.4082483 0.4082483 255 255 0 255 0.7839582 0.7839583
1.739318 4.996224 0.8079042 1 0 0 255 255 0 255 0.9998999 0.2160414
1.739318 4.996224 1.606423 1 0 0 255 255 0 255 0.9999 0.7839583
0.9407988 4.996224 0.8079042 0 0 -1 255 255 0 255 0.2160415 0.0001000166
1.739318 4.996224 0.8079042 0 0 -1 255 255 0 255 0.7839582 0.0001000464
1.739318 4.996224 1.606423 0 0 1 255 255 0 255 0.7839582 0.9998999
0.9407988 4.996224 1.606423 0 0 1 255 255 0 255 0.2160416 0.9998999
0.9407988 4.6926 4.719861e-08 -0.8164966 -0.4082483 -0.4082483 255 255 0 255 0.2160415 0.2160416
0.9407988 4.6926 0.7985189 -0.3333333 -0.6666667 0.6666667 255 255 0 255 0.2160414 0.7839583
0.9407988 4.996224 0.7985189 -1 0 0 255 255 0 255 0.0001000166 0.7839583
0.9407988 4.996224 3.392677e-08 -1 0 0 255 255 0 255 9.992719e-05 0.2160417
1.739318 4.6926 4.719861e-08 0.3333333 -0.6666667 -0.6666667 255 255 0 255 0.7839582 0.2160415
1.739318 4.6926 0.7985189 0.8164966 -0.4082483 0.4082483 255 255 0 255 0.7839582 0.7839583
1.739318 4.996224 3.392677e-08 1 0 0 255 255 0 255 0.9998999 0.2160414
1.739318 4.996224 0.7985189 1 0 0 255 255 0 255 0.9999 0.7839583
0.9407988 4.996224 3.392677e-08 0 -4.371142e-08 -1 255 255 0 255 0.2160415 0.0001000166
1.739318 4.996224 3.392677e-08 0 -4.371142e-08 -1 255 255 0 255 0.7839582 0.0001000464
1.739318 4.996224 0.7985189 0 0 1 255 255 0 255 0.7839582 0.9998999
0.9407988 4.996224 0.7985189 0 0 1 255 255 0 255 0.2160416 0.9998999
0.1343518 4.6926 0.8079042 -0.8164966 -0.4082483 -0.4082483 255 255 0 255 0.2160415 0.2160416
0.1343518 4.6926 1.606423 -0.3333333 -0.6666667 0.6666667 255 255 0 255 0.2160414 0.7839583
0.1343518 4.996224 1.606423 -1 0 0 255 255 0 255 0.0001000166 0.7839583
0.1343518 4.996224 0.8079042 -1 0 0 255 255 0 255 9.992719e-05 0.2160417
0.9328707 4.6926 0.8079042 0.3333333 -0.6666667 -0.6666667 255 255 0 255 0.7839582 0.2160415
0.9328707 4.6926 1.606423 0.8164966 -0.4082483 0.4082483 255 255 0 255 0.7839582 0.7839583
0.9328707 4.996224 0.8079042 1 0 0 255 255 0 255 0.9998999 0.2160414
0.9328707 4.996224 1.606423 1 0 0 255 255 0 255 0.9999 0.7839583
0.1343518 4.996224 0.8079042 0 0 -1 255 255 0 255 0.2160415 0.0001000166
0.9328707 4.996224 0.8079042 0 0 -1 255 255 0 255 0.7839582 0.0001000464
0.9328707 4.996224 1.606423 0 0 1 255 255 0 255 0.7839582 0.9998999
0.1343518 4.996224 1.606423 0 0 1 255 255 0 255 0.2160416 0.9998999
3 0 1 2 
3 0 2 3 
3 4 5 6 
3 4 6 7 
3 8 9 10 
3 8 10 11 
3 12 13 14 
3 12 14 15 
3 16 17 18 
3 16 18 19 
3 20 21 22 
3 20 22 18 
3 23 24 19 
3 23 19 25 
3 26 27 25 
3 26 25 22 
3 28 29 22 
3 28 22 25 
3 29 30 18 
3 29 18 22 
3 31 28 25 
3 31 25 19 
3 30 31 19 
3 30 19 18 
3 32 33 34 
3 32 34 35 
3 36 37 38 
3 36 38 39 
3 40 41 42 
3 40 42 43 
3 44 45 46 
3 44 46 47 
3 48 49 50 
3 48 50 51 
3 51 50 52 
3 51 52 53 
3 53 52 54 
3 53 54 55 
3 55 54 44 
3 55 44 47 
3 42 41 56 
3 42 56 57 
3 57 56 58 
3 57 58 59 
3 59 58 60 
3 59 60 61 
3 61 60 46 
3 61 46 45 
3 48 62 63 
3 48 63 49 
3 64 65 39 
3 64 39 38 
3 66 67 68 
3 66 68 69 
3 67 70 71 
3 67 71 68 
3 70 72 73 
3 70 73 71 
3 72 74 75 
3 72 75 73 
3 76 77 78 
3 76 78 79 
3 80 76 79 
3 80 79 81 
3 82 80 81 
3 82 81 83 
3 84 82 83 
3 84 83 85 
3 86 66 69 
3 86 69 87 
3 74 84 85 
3 74 85 75 
3 77 88 89 
3 77 89 78 
3 90 91 92 
3 90 92 93 
3 90 93 94 
3 90 94 95 
3 90 95 96 
3 90 96 97 
3 90 97 98 
3 90 98 99 
3 90 99 100 
3 90 100 101 
3 102 103 104 
3 102 104 105 
3 106 107 108 
3 106 108 109 
3 110 111 112 
3 110 112 113 
3 33 114 115 
3 33 115 34 
3 107 116 117 
3 107 117 108 
3 118 110 113 
3 118 113 119 
3 111 120 121 
3 111 121 112 
3 116 32 35 
3 116 35 117 
3 103 118 119 
3 103 119 104 
3 114 102 105 
3 114 105 115 
3 65 64 122 
3 65 122 123 
3 124 125 126 
3 124 126 127 
3 124 127 128 
3 124 128 129 
3 124 129 130 
3 124 130 131 
3 124 131 132 
3 124 132 133 
3 124 133 134 
3 124 134 135 
3 136 137 138 
3 136 138 139 
3 140 141 142 
3 140 142 143 
3 144 145 146 
3 144 146 147 
3 148 136 139 
3 148 139 149 
3 137 150 151 
3 137 151 138 
3 141 152 153 
3 141 153 142 
3 145 154 155 
3 145 155 146 
3 150 156 157 
3 150 157 151 
3 158 159 160 
3 158 160 161 
3 154 140 143 
3 154 143 155 
3 162 163 164 
3 162 164 165 
3 166 148 149 
3 166 149 167 
3 168 169 170 
3 168 170 171 
3 171 170 172 
3 171 172 173 
3 173 172 174 
3 173 174 175 
3 175 174 176 
3 175 176 177 
3 177 176 178 
3 177 178 179 
3 179 178 180 
3 179 180 181 
3 181 180 182 
3 181 182 183 
3 183 182 184 
3 183 184 185 
3 185 184 186 
3 185 186 187 
3 187 186 188 
3 187 188 189 
3 189 188 190 
3 189 190 191 
3 191 190 192 
3 191 192 193 
3 193 192 194 
3 193 194 195 
3 195 194 196 
3 195 196 197 
3 198 199 200 
3 198 200 201 
3 198 201 202 
3 198 202 203 
3 198 203 204 
3 198 204 205 
3 198 205 206 
3 198 206 207 
3 198 207 208 
3 198 208 209 
3 198 209 210 
3 198 210 211 
3 198 211 212 
3 198 212 213 
3 197 196 214 
3 197 214 215 
3 215 214 216 
3 215 216 217 
3 218 219 220 
3 218 220 221 
3 218 221 222 
3 218 222 223 
3 218 223 224 
3 218 224 225 
3 218 225 226 
3 218 226 227 
3 218 227 228 
3 218 228 229 
3 218 229 230 
3 218 230 231 
3 218 231 232 
3 218 232 233 
3 234 235 236 
3 234 236 237 
3 237 236 238 
3 237 238 239 
3 239 238 240 
3 239 240 241 
3 241 240 242 
3 241 242 243 
3 243 242 244 
3 243 244 245 
3 245 244 246 
3 245 246 247 
3 247 246 248 
3 247 248 249 
3 249 248 250 
3 249 250 251 
3 251 250 252 
3 251 252 253 
3 253 252 254 
3 253 254 255 
3 255 254 256 
3 255 256 257 
3 257 256 258 
3 257 258 259 
3 259 258 260 
3 259 260 261 
3 261 260 262 
3 261 262 263 
3 264 265 266 
3 264 266 267 
3 264 267 268 
3 264 268 269 
3 264 269 270 
3 264 270 271 
3 264 271 272 
3 264 272 273 
3 264 273 274 
3 264 274 275 
3 264 275 276 
3 264 276 277 
3 264 277 278 
3 264 278 279 
3 263 262 280 
3 263 280 281 
3 281 280 282 
3 281 282 234 
3 234 237 239 
3 234 239 241 
3 234 241 243 
3 234 243 245 
3 234 245 247 
3 234 247 249 
3 234 249 251 
3 234 251 253 
3 234 253 255 
3 234 255 257 
3 234 257 259 
3 234 259 261 
3 234 261 263 
3 234 263 281 
3 283 284 285 
3 283 285 286 
3 284 287 288 
3 284 288 285 
3 287 289 290 
3 287 290 288 
3 289 291 292 
3 289 292 290 
3 291 293 294 
3 291 294 292 
3 293 295 296 
3 293 296 294 
3 295 297 298 
3 295 298 296 
3 297 299 300 
3 297 300 298 
3 299 301 302 
3 299 302 300 
3 301 303 304 
3 301 304 302 
3 303 305 306 
3 303 306 304 
3 305 307 308 
3 305 308 306 
3 307 309 310 
3 307 310 308 
3 309 311 312 
3 309 312 310 
3 313 314 315 
3 313 315 316 
3 313 316 317 
3 313 317 318 
3 313 318 319 
3 313 319 320 
3 313 320 321 
3 313 321 322 
3 313 322 323 
3 313 323 324 
3 313 324 325 
3 313 325 326 
3 313 326 327 
3 313 327 328 
3 311 329 330 
3 311 330 312 
3 329 331 332 
3 329 332 330 
3 333 334 335 
3 333 335 336 
3 333 336 337 
3 333 337 338 
3 333 338 339 
3 333 339 340 
3 333 340 341 
3 333 341 342 
3 333 342 343 
3 333 343 344 
3 333 344 345 
3 333 345 346 
3 333 346 347 
3 333 347 348 
3 349 350 351 
3 349 351 352 
3 350 353 354 
3 350 354 351 
3 353 355 356 
3 353 356 354 
3 355 357 358 
3 355 358 356 
3 357 359 360 
3 357 360 358 
3 359 361 362 
3 359 362 360 
3 361 363 364 
3 361 364 362 
3 363 365 366 
3 363 366 364 
3 365 367 368 
3 365 368 366 
3 367 369 370 
3 367 370 368 
3 369 371 372 
3 369 372 370 
3 371 373 374 
3 371 374 372 
3 373 375 376 
3 373 376 374 
3 375 377 378 
3 375 378 376 
3 379 380 381 
3 379 381 382 
3 379 382 383 
3 379 383 384 
3 379 384 385 
3 379 385 386 
3 379 386 387 
3 379 387 388 
3 379 388 389 
3 379 389 390 
3 379 390 391 
3 379 391 392 
3 379 392 393 
3 379 393 394 
3 377 395 396 
3 377 396 378 
3 395 397 398 
3 395 398 396 
3 399 400 401 
3 399 401 402 
3 399 402 403 
3 399 403 404 
3 399 404 405 
3 399 405 406 
3 399 406 407 
3 399 407 408 
3 399 408 409 
3 399 409 410 
3 399 410 411 
3 399 411 412 
3 399 412 413 
3 399 413 414 
3 415 416 417 
3 415 417 418 
3 419 420 416 
3 419 416 415 
3 421 422 420 
3 421 420 419 
3 423 424 419 
3 423 419 415 
3 425 426 416 
3 425 416 420 
3 427 428 429 
3 427 429 430 
3 431 432 428 
3 431 428 427 
3 433 434 432 
3 433 432 431 
3 435 436 431 
3 435 431 427 
3 437 438 428 
3 437 428 432 
3 439 440 441 
3 439 441 442 
3 443 444 440 
3 443 440 439 
3 445 446 444 
3 445 444 443 
3 447 448 443 
3 447 443 439 
3 449 450 440 
3 449 440 444 
3 451 452 453 
3 451 453 454 
3 455 456 452 
3 455 452 451 
3 457 458 456 
3 457 456 455 
3 459 460 455 
3 459 455 451 
3 461 462 452 
3 461 452 456 
3 463 464 465 
3 463 465 466 
3 467 468 464 
3 467 464 463 
3 469 470 468 
3 469 468 467 
3 471 472 467 
3 471 467 463 
3 473 474 464 
3 473 464 468 
3 475 476 477 
3 475 477 478 
3 479 480 476 
3 479 476 475 
3 481 482 480 
3 481 480 479 
3 483 484 479 
3 483 479 475 
3 485 486 476 
3 485 476 480 
