ply
format ascii 1.0
comment VCGLIB generated
element vertex 64
property float x
property float y
property float z
property float nx
property float ny
property float nz
property uchar red
property uchar green
property uchar blue
property uchar alpha
property float texture_u
property float texture_v
element face 110
property list uchar int vertex_indices
end_header
-0.2335145 -4.981126 2.581787 -0.2248262 0.7131643 0.6639653 255 255 0 255 0.3409531 0.144334
-0.3123812 -4.981126 2.566099 0.0463776 0.7131644 0.6994609 255 255 0 255 0.490917 0.1085302
-0.3123812 -4.99545 2.566099 -0.05475386 0.5613127 0.8257905 255 255 0 255 0.492157 0.1353009
-0.2335145 -4.99545 2.581787 -0.3666027 0.5613126 0.7419776 255 255 0 255 0.3519779 0.1692195
-0.3994512 -4.981126 2.982394 -0.2248258 0.7131643 0.6639655 255 255 0 255 0.6600056 0.8953729
-0.3994512 -5.015252 2.982394 -0.4429677 0 0.8965376 255 255 0 255 0.6874946 0.9639929
-0.3123812 -5.015252 2.999713 -0.06615949 0 0.9978091 255 255 0 255 0.4930258 1.005876
-0.3123812 -4.981126 2.999713 0.0463774 0.7131644 0.699461 255 255 0 255 0.4934466 0.9320065
-0.4732657 -4.981126 2.933072 -0.4617996 0.7131643 0.5273877 255 255 0 255 0.8015167 0.8006406
-0.4732657 -5.015252 2.933072 -0.7523384 0 0.6587769 255 255 0 255 0.8526204 0.8536425
-0.522587 -4.981126 2.859258 -0.6284698 0.7131644 0.3105194 255 255 0 255 0.8939894 0.658656
-0.522587 -5.015252 2.859258 -0.9471733 0 0.3207223 255 255 0 255 0.9614698 0.6881098
-0.5399063 -4.981126 2.772188 -0.6994611 0.7131643 0.04637709 255 255 0 255 0.9274461 0.4928601
-0.5399063 -5.015252 2.772188 -0.9978091 0 -0.06615878 255 255 0 255 1.000806 0.4944345
-0.522587 -4.981126 2.685117 -0.6639655 0.7131644 -0.2248253 255 255 0 255 0.8930651 0.3278618
-0.522587 -5.015252 2.685117 -0.8965373 0 -0.4429683 255 255 0 255 0.9614503 0.3008763
-0.4732657 -4.981126 2.611303 -0.527387 0.7131643 -0.4618005 255 255 0 255 0.7986728 0.1879146
-0.4732657 -5.015252 2.611303 -0.6587757 0 -0.7523394 255 255 0 255 0.8512983 0.1366439
-0.3994513 -4.981126 2.561982 -0.3105192 0.7131643 -0.6284701 255 255 0 255 0.6566688 0.0968107
-0.3994513 -5.015252 2.561982 -0.3207229 0 -0.9471731 255 255 0 255 0.6850241 0.02892482
-0.3123812 -4.981126 2.544662 -0.04637748 0.7131644 -0.699461 255 255 0 255 0.4900748 0.06761682
-0.3123812 -5.015252 2.544662 0.06615933 0 -0.9978091 255 255 0 255 0.4899392 -0.00576818
-0.2253111 -4.981126 2.561982 0.2248258 0.7131643 -0.6639655 255 255 0 255 0.3250208 0.1061
-0.2253111 -5.015252 2.561982 0.4429679 0 -0.8965375 255 255 0 255 0.29753 0.03799689
-0.1514966 -4.981126 2.611303 0.4617998 0.7131643 -0.5273875 255 255 0 255 0.1835017 0.1992018
-0.1514966 -5.015252 2.611303 0.7523387 0 -0.6587765 255 255 0 255 0.1332269 0.1461888
-0.1021754 -4.981126 2.685117 0.6284699 0.7131644 -0.3105192 255 255 0 255 0.09049523 0.3390918
-0.1021754 -5.015252 2.685117 0.9471733 0 -0.3207223 255 255 0 255 0.02366066 0.3095298
-0.08485608 -4.981126 2.772188 0.6994611 0.7131644 -0.04637701 255 255 0 255 0.05770141 0.503504
-0.08485608 -5.015252 2.772188 0.9978091 0 0.06615918 255 255 0 255 -0.0151971 0.5019679
-0.1021754 -4.981126 2.859258 0.6639656 0.7131643 0.2248252 255 255 0 255 0.09226814 0.6674566
-0.1021754 -5.015252 2.859258 0.8965378 0 0.4429672 255 255 0 255 0.0239045 0.6941014
-0.1514966 -4.981126 2.933072 0.5273875 0.7131644 0.4617997 255 255 0 255 0.1853978 0.8085763
-0.1514966 -5.015252 2.933072 0.6587762 0 0.752339 255 255 0 255 0.1320705 0.8592998
-0.2253111 -4.981126 2.982394 0.3105191 0.7131643 0.6284701 255 255 0 255 0.3265528 0.9017946
-0.2253111 -5.015252 2.982394 0.3207229 0 0.9471731 255 255 0 255 0.2973774 0.9695764
-0.2335146 -4.981126 2.962589 -0.3105197 0.7131643 -0.6284698 255 255 0 255 0.3421396 0.8638484
-0.3123812 -4.981126 2.978276 -0.04637821 0.7131644 -0.699461 255 255 0 255 0.4929447 0.8907962
-0.1666547 -4.981126 2.917914 -0.527387 0.7131643 -0.4618005 255 255 0 255 0.2145768 0.7799047
-0.1219803 -4.981126 2.851054 -0.6639655 0.7131644 -0.2248255 255 255 0 255 0.1302141 0.6518142
-0.1062928 -4.981126 2.772188 -0.6994611 0.7131643 0.04637712 255 255 0 255 0.09829748 0.5036185
-0.1219803 -4.981126 2.693321 -0.6284698 0.7131644 0.3105195 255 255 0 255 0.1280745 0.3549991
-0.1666547 -4.981126 2.626461 -0.4618001 0.7131643 0.5273873 255 255 0 255 0.2120062 0.2283489
-0.3912478 -4.981126 2.581787 0.3105187 0.7131642 0.6284703 255 255 0 255 0.641495 0.1348714
-0.4581077 -4.981126 2.626461 0.5273869 0.7131644 0.4618004 255 255 0 255 0.7699167 0.2168992
-0.5027821 -4.981126 2.693321 0.6639656 0.7131643 0.2248254 255 255 0 255 0.8551573 0.3435408
-0.5184697 -4.981126 2.772188 0.6994611 0.7131644 -0.04637721 255 255 0 255 0.8865951 0.4926705
-0.5027821 -4.981126 2.851054 0.62847 0.7131643 -0.3105191 255 255 0 255 0.8559725 0.6427031
-0.4581077 -4.981126 2.917914 0.4618001 0.7131643 -0.5273873 255 255 0 255 0.7725309 0.7715703
-0.3912477 -4.981126 2.962589 0.2248249 0.7131643 -0.6639657 255 255 0 255 0.644074 0.8570868
-0.3123812 -4.99545 2.978276 0.0136356 0.9785294 -0.2056558 255 255 0 255 0.4919336 0.8638638
-0.2335146 -4.99545 2.962589 -0.3037338 0.3211548 -0.896998 255 255 0 255 0.3517104 0.8388957
-0.1666547 -4.99545 2.917914 -0.5452057 0.5613125 -0.6226387 255 255 0 255 0.2332082 0.7608114
-0.1219803 -4.99545 2.851054 -0.7419776 0.5613126 -0.3666024 255 255 0 255 0.1544338 0.6410249
-0.1062928 -4.99545 2.772188 -0.8257907 0.5613126 -0.05475329 255 255 0 255 0.1248749 0.5032251
-0.1219803 -4.99545 2.693321 -0.7838842 0.5613126 0.2654311 255 255 0 255 0.1527786 0.364802
-0.1666547 -4.99545 2.626461 -0.6226383 0.5613126 0.5452062 255 255 0 255 0.2310367 0.2471147
-0.3912478 -4.99545 2.581787 0.2654315 0.5613124 0.7838842 255 255 0 255 0.6321845 0.1599172
-0.4581077 -4.99545 2.626461 0.5452049 0.5613127 0.6226394 255 255 0 255 0.751559 0.2362391
-0.5027821 -4.99545 2.693321 0.7419779 0.5613126 0.366602 255 255 0 255 0.8307904 0.3543026
-0.5184697 -4.99545 2.772188 0.8257907 0.5613126 0.0547534 255 255 0 255 0.8598667 0.4930677
-0.5027821 -4.99545 2.851054 0.7838843 0.5613126 -0.265431 255 255 0 255 0.8309431 0.6328653
-0.4581077 -4.99545 2.917914 0.6226387 0.5613126 -0.5452057 255 255 0 255 0.7531456 0.7528949
-0.3912477 -4.99545 2.962589 0.4195021 0.3211549 -0.8490451 255 255 0 255 0.63308 0.8321497
3 0 1 2 
3 0 2 3 
3 4 5 6 
3 4 6 7 
3 8 9 5 
3 8 5 4 
3 10 11 9 
3 10 9 8 
3 12 13 11 
3 12 11 10 
3 14 15 13 
3 14 13 12 
3 16 17 15 
3 16 15 14 
3 18 19 17 
3 18 17 16 
3 20 21 19 
3 20 19 18 
3 22 23 21 
3 22 21 20 
3 24 25 23 
3 24 23 22 
3 26 27 25 
3 26 25 24 
3 28 29 27 
3 28 27 26 
3 30 31 29 
3 30 29 28 
3 32 33 31 
3 32 31 30 
3 34 35 33 
3 34 33 32 
3 7 6 35 
3 7 35 34 
3 36 37 7 
3 36 7 34 
3 38 36 34 
3 38 34 32 
3 39 38 32 
3 39 32 30 
3 40 39 30 
3 40 30 28 
3 41 40 28 
3 41 28 26 
3 42 41 26 
3 42 26 24 
3 0 42 24 
3 0 24 22 
3 1 0 22 
3 1 22 20 
3 43 1 20 
3 43 20 18 
3 44 43 18 
3 44 18 16 
3 45 44 16 
3 45 16 14 
3 46 45 14 
3 46 14 12 
3 47 46 12 
3 47 12 10 
3 48 47 10 
3 48 10 8 
3 49 48 8 
3 49 8 4 
3 37 49 4 
3 37 4 7 
3 50 51 52 
3 50 52 53 
3 50 53 54 
3 50 54 55 
3 50 55 56 
3 50 56 3 
3 50 3 2 
3 50 2 57 
3 50 57 58 
3 50 58 59 
3 50 59 60 
3 50 60 61 
3 50 61 62 
3 50 62 63 
3 37 36 51 
3 37 51 50 
3 49 37 50 
3 49 50 63 
3 1 43 57 
3 1 57 2 
3 36 38 52 
3 36 52 51 
3 43 44 58 
3 43 58 57 
3 38 39 53 
3 38 53 52 
3 44 45 59 
3 44 59 58 
3 39 40 54 
3 39 54 53 
3 45 46 60 
3 45 60 59 
3 40 41 55 
3 40 55 54 
3 46 47 61 
3 46 61 60 
3 41 42 56 
3 41 56 55 
3 47 48 62 
3 47 62 61 
3 42 0 3 
3 42 3 56 
3 48 49 63 
3 48 63 62 
