ply
format ascii 1.0
comment VCGLIB generated
element vertex 191
property float x
property float y
property float z
property float nx
property float ny
property float nz
property uchar red
property uchar green
property uchar blue
property uchar alpha
property float texture_u
property float texture_v
element face 202
property list uchar int vertex_indices
end_header
-3.952146 -3.665361 1.097066 0 0.996035 -0.08896221 255 255 0 255 0.3554664 0.1128053
-3.928747 -3.665361 1.097066 0 0.996035 0.08896221 255 255 0 255 0.3895631 0.1558246
-3.928747 -3.667925 1.087497 0 0.9070717 -0.4209763 255 255 0 255 0.3534939 0.1699871
-3.952146 -3.667925 1.087497 0 0.8181072 -0.5750657 255 255 0 255 0.3489278 0.1162072
-3.928747 -3.67493 1.080492 0 0.5750571 -0.8181133 255 255 0 255 0.3163937 0.1618581
-3.952146 -3.67493 1.080492 0 0.4209733 -0.9070731 255 255 0 255 0.3415035 0.1155909
-3.928747 -3.684498 1.077928 0 0.08895177 -0.9960359 255 255 0 255 0.2908288 0.1347585
-3.952146 -3.684498 1.077928 0 -0.08895909 -0.9960353 255 255 0 255 0.3353034 0.1116608
-3.952146 -3.701072 1.087497 0 -0.9070674 -0.4209856 255 255 0 255 0.3328934 0.09939982
-3.91714 -3.701072 1.087497 0.3927768 -0.7523615 -0.5288466 255 255 0 255 0.2606514 0.057892
-3.91714 -3.703636 1.097066 0.382668 -0.8924002 -0.2391384 255 255 0 255 0.284665 0.03061756
-3.952146 -3.703636 1.097066 0 -0.9960343 0.08897041 255 255 0 255 0.3365341 0.094323
-3.91714 -3.694067 1.080492 0.193681 -0.4724433 -0.8598168 255 255 0 255 0.2472389 0.09237356
-3.952146 -3.694067 1.080492 0 -0.575065 -0.8181077 255 255 0 255 0.3323075 0.1058202
-3.91714 -3.703636 1.097066 0.3826663 -0.892401 0.2391379 255 255 0 255 0.284665 0.03061755
-3.91714 -3.701072 1.106635 0.3826663 -0.892401 0.2391379 255 255 0 255 0.3160523 0.0133299
-3.952146 -3.701072 1.106635 0 -0.8181095 0.5750625 255 255 0 255 0.3422285 0.09107368
-3.91714 -3.701072 1.106635 0.382661 -0.6532926 0.6532836 255 255 0 255 0.3160523 0.01332991
-3.91714 -3.694067 1.11364 0.3117944 -0.589371 0.7452692 255 255 0 255 0.350988 0.007390971
-3.952146 -3.694067 1.11364 0 -0.4209744 0.9070725 255 255 0 255 0.3491789 0.0904829
-3.928747 -3.684498 1.116204 0 -0.08896586 0.9960347 255 255 0 255 0.3883624 0.05032226
-3.952146 -3.684498 1.116204 0 0.08896531 0.9960347 255 255 0 255 0.3548712 0.09382996
-3.91714 -3.694067 1.11364 0.7053285 -0.1834843 0.6847227 255 255 0 255 0.3513835 0.0100308
-3.91714 -3.684498 1.116204 0.7053573 -0.183477 0.6846951 255 255 0 255 0.3868622 0.008750443
-3.928747 -3.67493 1.11364 0 0.4209733 0.9070731 255 255 0 255 0.4119277 0.08330514
-3.952146 -3.67493 1.11364 0 0.5750571 0.8181133 255 255 0 255 0.3588075 0.09938375
-3.928747 -3.667925 1.106635 0 0.8181072 0.5750657 255 255 0 255 0.4119277 0.1233465
-3.952146 -3.667925 1.106635 0 0.9070717 0.4209763 255 255 0 255 0.3591072 0.1065072
-3.91714 -3.694067 1.080492 0.7053573 -0.183477 -0.6846951 255 255 0 255 0.2502848 0.09238113
-3.91714 -3.684498 1.077928 0.7053285 -0.1834843 -0.6847227 255 255 0 255 0.2464452 0.1302595
-3.91714 -3.684498 1.077928 0 0.07500773 -0.997183 255 255 0 255 0.02543327 0.9990773
-3.928747 -3.684498 1.077928 0 0.07500773 -0.997183 255 255 0 255 0.0009227618 0.9990773
-3.928747 -3.571167 1.086453 0 0.2013421 -0.979521 255 255 0 255 0.0009226463 0.7590925
-3.91714 -3.571167 1.086453 0 0.2013421 -0.979521 255 255 0 255 0.02543324 0.7590925
-3.928747 -3.571167 1.086453 -1 0 0 255 255 0 255 0.2555984 0.4880498
-3.928747 -3.571167 1.107679 1 0 0 255 255 0 255 0.2555952 0.5328702
-3.928747 -3.567021 1.106257 -1 0 0 255 255 0 255 0.246841 0.5298673
-3.928747 -3.563986 1.102372 -1 0 0 255 255 0 255 0.2404329 0.5216641
-3.928747 -3.562875 1.097066 -1 0 0 255 255 0 255 0.2380879 0.5104588
-3.928747 -3.563986 1.09176 -1 0 0 255 255 0 255 0.2404345 0.4992539
-3.928747 -3.567021 1.087875 -1 0 0 255 255 0 255 0.2468438 0.4910516
-3.914954 -3.684498 1.113952 0.9865968 0.01224051 0.1627178 255 255 0 255 0.2428293 0.2148036
-3.914954 -3.692921 1.111694 1 0 0 255 255 0 255 0.2462484 0.1967104
-3.914954 -3.699112 1.105503 1 0 0 255 255 0 255 0.258304 0.1826937
-3.914954 -3.701373 1.097066 1 0 0 255 255 0 255 0.275712 0.176597
-3.914954 -3.699112 1.088629 1 0 0 255 255 0 255 0.2938362 0.180021
-3.914954 -3.692921 1.082437 1 0 0 255 255 0 255 0.3078529 0.1920766
-3.914954 -3.684498 1.08018 1 0 0 255 255 0 255 0.31394 0.2094547
-3.928747 -3.684498 1.116204 0 0.07500669 0.997183 255 255 0 255 0.000922862 0.4568841
-3.91714 -3.684498 1.116204 0 0.07500669 0.997183 255 255 0 255 0.02543329 0.4568841
-3.91714 -3.571167 1.107679 0 0.2013416 0.9795211 255 255 0 255 0.02543322 0.6968679
-3.928747 -3.571167 1.107679 0 0.2013416 0.9795211 255 255 0 255 0.0009226231 0.6968679
-3.928747 -3.567021 1.087875 0 0.6576068 -0.7533613 255 255 0 255 0.0009226463 0.7498375
-3.91714 -3.567021 1.087875 0 0.497179 -0.8676479 255 255 0 255 0.02543323 0.7498375
-3.928747 -3.562875 1.097066 0 0.9975733 0.06962448 255 255 0 255 0.0009226308 0.7279801
-3.928747 -3.563986 1.102372 0 0.8717058 0.4900297 255 255 0 255 0.0009226308 0.7165322
-3.91714 -3.563986 1.102372 0 0.9367874 0.3498991 255 255 0 255 0.02543323 0.7165322
-3.91714 -3.562875 1.097066 0 0.9975736 -0.06961994 255 255 0 255 0.02543323 0.7279801
-3.928747 -3.567021 1.106257 0 0.497179 0.8676479 255 255 0 255 0.0009226231 0.7061229
-3.91714 -3.567021 1.106257 0 0.6576068 0.7533613 255 255 0 255 0.02543322 0.7061229
-3.928747 -3.563986 1.09176 0 0.9367885 -0.3498962 255 255 0 255 0.0009226385 0.7394282
-3.91714 -3.563986 1.09176 0 0.8717065 -0.4900284 255 255 0 255 0.02543323 0.7394282
-3.928747 -3.67493 1.080492 1 0 0 255 255 0 255 0.474704 0.4754794
-3.928747 -3.667925 1.087497 1 0 0 255 255 0 255 0.4599121 0.4902692
-3.928747 -3.665361 1.097066 1 0 0 255 255 0 255 0.4544966 0.5104742
-3.928747 -3.667925 1.106635 1 0 0 255 255 0 255 0.4599093 0.5306801
-3.928747 -3.67493 1.11364 1 0 0 255 255 0 255 0.4746996 0.5454726
-3.928747 -3.684498 1.116204 1 0 0 255 255 0 255 0.4949042 0.5508879
-3.928747 -3.684498 1.077928 1 0 0 255 255 0 255 0.4949042 0.4700685
-3.914954 -3.571167 1.105426 0.9758599 0.07090797 0.2065661 255 255 0 255 0.2787324 0.4520878
-3.914954 -3.571167 1.088706 0.9258077 0.06080369 -0.3730727 255 255 0 255 0.3139367 0.4494398
-3.914954 -3.568402 1.089657 0.8936591 0.2225669 -0.3896633 255 255 0 255 0.3123737 0.4554108
-3.914954 -3.566021 1.092705 0.8933942 0.3916348 -0.2201566 255 255 0 255 0.3063327 0.460908
-3.914954 -3.565108 1.097066 0.8926165 0.4497229 -0.03138599 255 255 0 255 0.2972942 0.4635212
-3.914954 -3.566021 1.101427 0.8933939 0.4208744 0.1572009 255 255 0 255 0.2879664 0.4622895
-3.914954 -3.568402 1.104475 0.8349242 0.3613023 0.4151655 255 255 0 255 0.281171 0.4577579
-3.960042 -3.733114 1.156512 0 -0.9675375 0.2527277 255 255 0 255 0.000922731 0.4114016
-3.960042 -3.733114 0.9854549 0 -0.8628536 -0.5054539 255 255 0 255 0.0009226231 0.03709266
-3.954247 -3.733114 0.9854549 0.4090124 -0.8510995 -0.3291482 255 255 0 255 0.01468501 0.04308619
-3.954247 -3.733114 1.156512 0.4090117 -0.8345585 0.3690821 255 255 0 255 0.01452041 0.4045269
-3.960042 -3.721028 1.168598 0 -0.5054436 0.8628597 255 255 0 255 0.03277043 0.4484696
-3.954247 -3.721028 1.168598 0.4090111 -0.3291414 0.8511028 255 255 0 255 0.03955888 0.4349387
-3.960042 -3.635883 1.156512 0 0.8628528 0.5054553 255 255 0 255 0.2362427 0.4188688
-3.960042 -3.647969 1.168598 0 0.2527218 0.967539 255 255 0 255 0.2026013 0.4550388
-3.954247 -3.647969 1.168598 0.4090072 0.3690756 0.8345636 255 255 0 255 0.1949486 0.4412817
-3.954247 -3.635883 1.156512 0.4090059 0.8511015 0.3291512 255 255 0 255 0.2224803 0.4128754
-3.960042 -3.721028 0.9733689 0 -0.2527225 -0.9675388 255 255 0 255 0.03456412 0.0009226231
-3.960042 -3.647969 0.9733689 0 0.5054451 -0.8628588 255 255 0 255 0.204395 0.007491976
-3.954247 -3.647969 0.9733689 0.4090112 0.3291423 -0.8511023 255 255 0 255 0.1976065 0.0210228
-3.954247 -3.721028 0.9733689 0.4090105 -0.3690746 -0.8345624 255 255 0 255 0.04221681 0.01467983
-3.960042 -3.635883 0.9854549 0 0.9675376 -0.252727 255 255 0 255 0.2362427 0.04455987
-3.954247 -3.635883 0.9854549 0.4090115 0.834559 -0.369081 255 255 0 255 0.222645 0.05143456
-3.952146 -3.720157 1.166497 0.9715857 -0.05981605 0.2290052 255 255 0 255 0.04400311 0.4255652
-3.952146 -3.731012 1.155642 0.844625 -0.4619356 0.2705996 255 255 0 255 0.023576 0.4005408
-3.952146 -3.731012 0.9863254 0.9015064 -0.4187174 -0.1093713 255 255 0 255 0.02401348 0.0471458
-3.952146 -3.720157 0.9754704 0.9015063 -0.218739 -0.3734162 255 255 0 255 0.0467191 0.02426
-3.952146 -3.648839 0.9754704 0.9015059 0.1093695 -0.4187189 255 255 0 255 0.1931623 0.03039632
-3.952146 -3.637984 0.9863254 0.9015068 0.373413 -0.2187425 255 255 0 255 0.2135894 0.05542068
-3.952146 -3.637984 1.155642 0.9015047 0.4187205 0.1093734 255 255 0 255 0.2131518 0.4088157
-3.952146 -3.648839 1.166497 0.8446188 0.2706012 0.461946 255 255 0 255 0.1904463 0.4317016
-3.914954 -3.684498 1.08018 0.705386 -0.1834695 -0.6846675 255 255 0 255 0.2383138 0.1271839
-3.914954 -3.692921 1.082437 0.705386 -0.1834695 -0.6846675 255 255 0 255 0.2416937 0.09384108
-3.914954 -3.692921 1.082437 0.7070793 -0.500024 -0.500015 255 255 0 255 0.2427385 0.08946675
-3.914954 -3.699112 1.088629 0.7070793 -0.500024 -0.500015 255 255 0 255 0.2553006 0.05744247
-3.914954 -3.699112 1.088629 0.7070831 -0.6830321 -0.1830318 255 255 0 255 0.2576357 0.05360603
-3.914954 -3.701373 1.097066 0.7070831 -0.6830321 -0.1830318 255 255 0 255 0.2799316 0.02833436
-3.914954 -3.701373 1.097066 0.7070806 -0.6830348 0.1830313 255 255 0 255 0.2833769 0.02556615
-3.914954 -3.699112 1.105503 0.7070806 -0.6830348 0.1830313 255 255 0 255 0.3124675 0.009549676
-3.914954 -3.699112 1.105503 0.7070724 -0.5000266 0.5000221 255 255 0 255 0.3165866 0.008104989
-3.914954 -3.692921 1.111694 0.7070724 -0.5000266 0.5000221 255 255 0 255 0.3490081 0.002560865
-3.914954 -3.692921 1.111694 0.705386 -0.1834695 0.6846675 255 255 0 255 0.3532619 0.002124998
-3.914954 -3.684498 1.113952 0.705386 -0.1834695 0.6846675 255 255 0 255 0.3844925 0.0009979478
-3.914954 -3.684498 1.08018 0.9264635 0.02823432 -0.3753242 255 255 0 255 0.3139401 0.2094547
-3.91714 -3.684498 1.077928 0.7166691 0.05231612 -0.6954483 255 255 0 255 0.3186814 0.2090981
-3.91714 -3.571167 1.086453 0.7070428 0.1730073 -0.6856815 255 255 0 255 0.3186814 0.4490829
-3.91714 -3.563986 1.09176 0.7152748 0.6546683 -0.2445228 255 255 0 255 0.3086453 0.4650437
-3.91714 -3.562875 1.097066 0.7137713 0.6986791 0.04876403 255 255 0 255 0.2976478 0.4682232
-3.91714 -3.567021 1.087875 0.7173541 0.4573737 -0.5255593 255 255 0 255 0.3163442 0.4580378
-3.91714 -3.567021 1.106257 0.7143797 0.3470623 0.607626 255 255 0 255 0.2776382 0.4609493
-3.91714 -3.571167 1.107679 0.7131814 0.112758 0.6918511 255 255 0 255 0.2739877 0.4524447
-3.91714 -3.563986 1.102372 0.7152753 0.6091854 0.3424535 255 255 0 255 0.2862985 0.4667246
-3.91714 -3.684498 1.116204 0.7166691 0.0523154 0.6954484 255 255 0 255 0.2380879 0.2151602
-3.914954 -3.571167 1.105426 0.9264635 0.02823392 0.3753243 255 255 0 255 0.2787324 0.4520878
-3.966551 -2.84902 -2.050533e-08 0.4125398 0.9109396 -8.255974e-08 255 255 0 255 0.9450184 0.001717687
-4.09445 -2.84902 -2.050533e-08 0 1 -1.131452e-07 255 255 0 255 0.9982823 0.001717687
-4.09445 -2.84902 2.107192 0 1 -1.131452e-07 255 255 0 255 0.9982812 0.8792557
-3.966551 -2.84902 2.107192 0.4125398 0.9109396 -8.255974e-08 255 255 0 255 0.9450178 0.8792555
-3.967403 -3.787234 2.105441 0.2884974 0.9574807 2.164286e-06 255 255 0 255 0.4232225 0.9023015
-3.967403 -3.787234 2.050533e-08 0.5769948 0.8167478 4.328572e-06 255 255 0 255 0.4229476 0.07495248
-4.09445 -3.787234 2.050533e-08 0 1 0 255 255 0 255 0.4728716 0.07493579
-4.09445 -3.787234 2.105441 0 1 0 255 255 0 255 0.4731472 0.9022849
-3.960042 -2.856436 -2.018116e-08 0.9724484 0.2331184 -1.317121e-08 255 255 0 255 0.9297032 0.001815736
-3.960042 -2.856436 2.107192 0.9273896 0.3578634 0.1090065 255 255 0 255 0.9297027 0.8793536
-3.960042 -3.779818 2.107192 0.9752167 -0.1403787 0.1710152 255 255 0 255 0.5451612 0.8793534
-3.960042 -3.779818 2.018116e-08 0.8846574 -0.4662417 0 255 255 0 255 0.5451616 0.001815617
-3.966597 -3.868127 2.404126e-08 0.2719492 -0.9623116 1.305939e-08 255 255 0 255 0.3680688 0.07520038
-3.966597 -3.868127 2.185061 0.5438984 -0.8391511 2.611878e-08 255 255 0 255 0.368067 0.9513897
-4.09445 -3.868127 2.185061 0 -1 0 255 255 0 255 0.3167993 0.9513896
-4.09445 -3.868127 2.404126e-08 0 -1 0 255 255 0 255 0.3167994 0.07520032
-4.09445 -2.768127 -2.404126e-08 0 1 -1.09113e-07 255 255 0 255 0.1571152 0.9510239
-4.09445 -2.768127 2.185061 0 1 -1.09113e-07 255 255 0 255 0.1571153 0.08378208
-3.966597 -2.768127 2.185061 0.2719492 0.9623116 -9.201879e-08 255 255 0 255 0.2078595 0.0837819
-3.966597 -2.768127 -2.404126e-08 0.5438984 0.8391511 -6.559849e-08 255 255 0 255 0.2078609 0.9510239
-3.966597 -2.775596 2.2 0.6831097 0.2336453 0.6919328 255 255 0 255 0.06298 0.9240322
-4.09445 -2.775596 2.2 0 0.6865538 0.727079 255 255 0 255 0.001717627 0.9417679
-4.09445 -3.860658 2.2 0 -0.3432769 0.9392343 255 255 0 255 0.001717687 0.4588858
-3.966597 -3.860658 2.2 0.4991058 -0.5302833 0.6853417 255 255 0 255 0.05223995 0.473715
-3.960042 -3.796638 2.091639e-08 0.9764841 0.2155896 2.070653e-06 255 255 0 255 0.4085085 0.0750699
-3.960042 -3.796679 2.114545 0.9022663 0.4311791 4.141305e-06 255 255 0 255 0.4086568 0.91338
-3.960042 -3.860658 2.176217 0.9724493 -0.2331145 1.275575e-08 255 255 0 255 0.3832969 0.9378352
-3.960042 -3.860658 2.371477e-08 0.8846641 -0.466229 2.551151e-08 255 255 0 255 0.3831262 0.07507491
-3.967403 -2.866223 2.122024 0.5091822 -0.2766204 -0.8149937 255 255 0 255 0.1019112 0.8853153
-3.967403 -3.770031 2.122024 0.4847535 0.3439162 -0.8041987 255 255 0 255 0.09042692 0.5077403
-4.09445 -3.770031 2.122024 0 0.2472315 -0.9689565 255 255 0 255 0.1436834 0.5200443
-4.09445 -2.866223 2.122024 0 -0.4944629 -0.8691987 255 255 0 255 0.1513013 0.8721812
-3.966551 -2.856436 2.122024 0.4773262 0.2331252 0.8472381 255 255 0 255 0.9273157 0.8873427
-4.09445 -2.856436 2.122024 0 0.6865538 0.727079 255 255 0 255 0.9426585 0.9513897
-4.09445 -3.779818 2.122024 0 -0.3432803 0.939233 255 255 0 255 0.5314662 0.9389086
-3.966551 -3.779818 2.122024 0.3001164 -0.5862421 0.7524961 255 255 0 255 0.5471503 0.8861643
-3.966551 -3.787234 2.107192 0.0001099843 -0.8944301 0.4472079 255 255 0 255 0.5408475 0.8823918
-3.966551 -2.84902 2.107192 5.499689e-05 0.8944243 0.4472193 255 255 0 255 0.9347433 0.8829771
-4.09445 -2.84902 2.107192 0 0.8944243 0.4472193 255 255 0 255 0.9525403 0.9488556
-3.966551 -3.787234 2.107192 0.4125362 -0.9109412 0 255 255 0 255 0.5298461 0.8794512
-3.966551 -3.787234 2.050533e-08 0.4125362 -0.9109412 0 255 255 0 255 0.5298465 0.001913548
-4.09445 -3.787234 2.107192 0 -0.8944301 0.4472079 255 255 0 255 0.5244147 0.9367778
-4.09445 -3.787234 2.050533e-08 0 -1 0 255 255 0 255 0.4765827 0.001913607
-4.09445 -3.787234 2.107192 0 -1 0 255 255 0 255 0.4765826 0.8794512
-3.960042 -2.800828 2.185061 0.9931574 0.03214491 0.1122721 255 255 0 255 0.07158589 0.9138899
-3.960042 -2.775596 2.176217 0.976025 0.1280234 0.1760261 255 255 0 255 0.07418078 0.9274563
-3.966597 -2.768127 2.185061 0.3818209 0.7981347 0.4660406 255 255 0 255 0.06744087 0.9303839
-3.960042 -3.835426 2.185061 0.972203 -0.06444764 0.2250954 255 255 0 255 0.06001985 0.4822791
-3.966597 -3.868127 2.185061 0.7636419 -0.513875 0.3908754 255 255 0 255 0.05581892 0.4680046
-3.960042 -3.860658 2.176217 0.9940605 -0.06401172 0.08801307 255 255 0 255 0.06184763 0.4701973
-4.09445 -2.768127 2.185061 0 0.8944243 0.4472193 255 255 0 255 0.004812241 0.9513897
-3.960042 -2.775596 2.176217 0.8846641 0.466229 -2.551151e-08 255 255 0 255 0.222934 0.08741546
-3.960042 -2.775596 -2.371477e-08 0.9724493 0.2331145 -1.275575e-08 255 255 0 255 0.2229341 0.9512181
-4.09445 -3.868127 2.185061 0 -0.8944243 0.4472193 255 255 0 255 0.003796697 0.45209
-3.960042 -3.779577 2.131226 0.974966 0.1014005 -0.197887 255 255 0 255 0.08445323 0.5036928
-3.960042 -2.856677 2.131226 0.9382645 -0.07180988 -0.3383832 255 255 0 255 0.09589303 0.8898604
-3.960042 -3.796679 2.114545 0.9677489 0.1753653 -0.1808568 255 255 0 255 0.09008586 0.4950995
-3.960042 -2.839575 2.114545 0.9764841 -0.2155896 2.095003e-06 255 255 0 255 0.2483305 0.111896
-3.960042 -2.839616 -2.091639e-08 0.9022663 -0.4311792 4.190006e-06 255 255 0 255 0.2483469 0.9512181
-3.967403 -3.787234 2.105441 0.6623372 0.5207372 -0.5386485 255 255 0 255 0.09511405 0.4983471
-4.09445 -3.787234 2.105441 0 0.6940063 -0.7199689 255 255 0 255 0.1459653 0.5104802
-3.960042 -2.839575 2.114545 0.9677489 -0.1753652 -0.1808568 255 255 0 255 0.102437 0.8982753
-3.967403 -2.84902 2.105441 0.3311687 -0.6552367 -0.6789641 255 255 0 255 0.1073164 0.894465
-4.09445 -2.84902 2.105441 0 -0.6940063 -0.7199689 255 255 0 255 0.1536798 0.880326
-3.967403 -2.84902 2.105441 0.5769948 -0.8167479 4.420927e-06 255 255 0 255 0.2629156 0.115621
-3.967403 -2.84902 -2.050533e-08 0.2884974 -0.9574807 2.272644e-06 255 255 0 255 0.2629313 0.9513897
-4.09445 -2.84902 2.105441 0 -1 1.132393e-07 255 255 0 255 0.3133477 0.11562
-4.09445 -2.84902 -2.050533e-08 0 -1 1.132393e-07 255 255 0 255 0.3133639 0.9513887
3 0 1 2 
3 0 2 3 
3 3 2 4 
3 3 4 5 
3 5 4 6 
3 5 6 7 
3 8 9 10 
3 8 10 11 
3 7 6 12 
3 7 12 13 
3 11 14 15 
3 11 15 16 
3 16 17 18 
3 16 18 19 
3 19 18 20 
3 19 20 21 
3 20 22 23 
3 21 20 24 
3 21 24 25 
3 25 24 26 
3 25 26 27 
3 27 26 1 
3 27 1 0 
3 28 6 29 
3 30 31 32 
3 30 32 33 
3 34 35 36 
3 34 36 37 
3 34 37 38 
3 34 38 39 
3 34 39 40 
3 41 42 43 
3 41 43 44 
3 41 44 45 
3 41 45 46 
3 41 46 47 
3 13 12 9 
3 13 9 8 
3 48 49 50 
3 48 50 51 
3 32 52 53 
3 32 53 33 
3 54 55 56 
3 54 56 57 
3 58 51 50 
3 58 50 59 
3 60 54 57 
3 60 57 61 
3 55 58 59 
3 55 59 56 
3 52 60 61 
3 52 61 53 
3 62 63 64 
3 62 64 65 
3 62 65 66 
3 62 66 67 
3 62 67 35 
3 62 35 34 
3 62 34 68 
3 69 70 71 
3 69 71 72 
3 69 72 73 
3 69 73 74 
3 69 74 75 
3 76 77 78 
3 76 78 79 
3 80 76 79 
3 80 79 81 
3 82 83 84 
3 82 84 85 
3 86 87 88 
3 86 88 89 
3 90 82 85 
3 90 85 91 
3 92 93 94 
3 92 94 95 
3 92 95 96 
3 92 96 97 
3 92 97 98 
3 92 98 99 
3 83 80 81 
3 83 81 84 
3 87 90 91 
3 87 91 88 
3 28 29 100 
3 28 100 101 
3 9 12 102 
3 9 102 103 
3 10 9 104 
3 10 104 105 
3 15 14 106 
3 15 106 107 
3 18 17 108 
3 18 108 109 
3 23 22 110 
3 23 110 111 
3 70 112 113 
3 70 113 114 
3 115 116 73 
3 115 73 72 
3 117 115 72 
3 117 72 71 
3 114 117 71 
3 114 71 70 
3 118 119 69 
3 118 69 75 
3 120 118 75 
3 120 75 74 
3 116 120 74 
3 116 74 73 
3 119 121 41 
3 119 41 122 
3 41 112 70 
3 41 70 122 
3 78 89 95 
3 78 95 94 
3 79 78 94 
3 79 94 93 
3 81 79 93 
3 81 93 92 
3 84 81 92 
3 84 92 99 
3 89 88 96 
3 89 96 95 
3 88 91 97 
3 88 97 96 
3 91 85 98 
3 91 98 97 
3 85 84 99 
3 85 99 98 
3 77 86 89 
3 77 89 78 
3 123 124 125 
3 123 125 126 
3 127 128 129 
3 127 129 130 
3 131 132 133 
3 131 133 134 
3 135 136 137 
3 135 137 138 
3 139 140 141 
3 139 141 142 
3 143 144 145 
3 143 145 146 
3 147 148 149 
3 147 149 150 
3 151 152 153 
3 151 153 154 
3 155 156 157 
3 155 157 158 
3 158 159 133 
3 155 132 160 
3 156 155 160 
3 156 160 161 
3 132 131 123 
3 132 123 126 
3 155 158 133 
3 155 133 132 
3 162 163 134 
3 162 134 133 
3 164 159 158 
3 164 158 157 
3 165 163 162 
3 165 162 166 
3 143 167 168 
3 143 168 169 
3 170 146 171 
3 170 171 172 
3 144 143 169 
3 144 169 173 
3 174 175 142 
3 174 142 141 
3 143 146 170 
3 143 170 167 
3 136 135 150 
3 136 150 149 
3 146 145 176 
3 146 176 171 
3 177 178 167 
3 177 167 170 
3 172 179 177 
3 172 177 170 
3 180 181 175 
3 180 175 174 
3 152 182 183 
3 152 183 153 
3 167 178 184 
3 167 184 168 
3 185 151 154 
3 185 154 186 
3 151 185 184 
3 151 184 178 
3 182 152 177 
3 182 177 179 
3 128 127 148 
3 128 148 147 
3 152 151 178 
3 152 178 177 
3 187 188 181 
3 187 181 180 
3 188 187 189 
3 188 189 190 
