ply
format ascii 1.0
comment VCGLIB generated
element vertex 426
property float x
property float y
property float z
property float nx
property float ny
property float nz
property uchar red
property uchar green
property uchar blue
property uchar alpha
property float texture_u
property float texture_v
element face 340
property list uchar int vertex_indices
end_header
-3.183789 4.428243 0.002240516 -0.8944272 -0.4472136 0 255 255 0 255 0.6507436 0.2995521
-3.183789 4.428243 1.476154 -0.4472136 -0.8944272 0 255 255 0 255 0.6507435 0.004835478
-3.183789 4.977601 1.476154 -1 0 0 255 255 0 255 0.7605904 0.004835446
-3.183789 4.9776 0.002240492 -1 0 0 255 255 0 255 0.7605904 0.2995522
-1.277319 4.9776 0.002240492 1 0 0 255 255 0 255 0.5652343 0.3273147
-1.277319 4.977601 1.476154 1 0 0 255 255 0 255 0.2705178 0.3273147
-1.277319 4.428243 1.476154 0.8944272 -0.4472136 0 255 255 0 255 0.2705179 0.2174679
-1.277319 4.428243 0.002240516 0.4472136 -0.8944272 0 255 255 0 255 0.5652343 0.217468
-1.330593 4.428243 0.1425342 -1 0 0 255 255 0 255 0.0971173 0.5763898
-1.330593 4.428243 1.42288 -1 0 0 255 255 0 255 0.0971173 0.8324012
-1.330593 4.889757 1.42288 -1 0 0 255 255 0 255 0.004835446 0.8324013
-1.330593 4.889757 0.1425342 -1 0 0 255 255 0 255 0.004835446 0.5763898
-3.183789 4.9776 0.002240492 0 -4.365387e-08 -1 255 255 0 255 0.5123085 0.3744095
-1.277319 4.9776 0.002240492 0 -4.365387e-08 -1 255 255 0 255 0.5123085 0.7556175
-1.277319 4.428243 0.002240516 0 -0.4472136 -0.8944272 255 255 0 255 0.4024618 0.7556174
-3.183789 4.428243 0.002240516 0 -0.8944272 -0.4472136 255 255 0 255 0.4024618 0.3744096
-1.277319 4.977601 1.476154 0 0 1 255 255 0 255 0.5219793 0.7556174
-3.183789 4.977601 1.476154 0 0 1 255 255 0 255 0.5219795 0.3744095
-3.183789 4.428243 1.476154 0 -0.4472136 0.8944272 255 255 0 255 0.631826 0.3744095
-1.277319 4.428243 1.476154 0 -0.8944272 0.4472136 255 255 0 255 0.6318261 0.7556174
-3.130515 4.428243 0.1425342 0 -1 0 255 255 0 255 0.6400917 0.271501
-3.130515 4.428243 1.42288 0 -1 0 255 255 0 255 0.6400915 0.01548754
-1.330593 4.428243 1.42288 0 -1 0 255 255 0 255 0.2811697 0.2068161
-1.330593 4.428243 0.1425342 0 -1 0 255 255 0 255 0.5371819 0.2068156
-1.330593 4.428243 0.1425342 0 -1 0 255 255 0 255 0.3744096 0.7449653
-3.130515 4.428243 0.1425342 0 -1 0 255 255 0 255 0.3744093 0.3850619
-3.130515 4.428243 1.42288 0 -1 0 255 255 0 255 0.6424785 0.3850619
-1.330593 4.428243 1.42288 0 -1 0 255 255 0 255 0.6424785 0.744965
-1.330593 4.889757 0.1425342 0 -1 0 255 255 0 255 0.004835446 0.004835518
-1.330593 4.889757 1.42288 0 -1 0 255 255 0 255 0.2608469 0.004835446
-3.130515 4.889757 1.42288 0 -1 0 255 255 0 255 0.2608469 0.3647386
-3.130515 4.889757 0.1425342 0 -1 0 255 255 0 255 0.004835485 0.3647386
-3.130515 4.428243 0.1425342 0 3.228759e-08 1 255 255 0 255 0.7444314 0.3744095
-1.330593 4.428243 0.1425342 0 3.228759e-08 1 255 255 0 255 0.7444314 0.7343125
-1.330593 4.889757 0.1425342 0 3.228759e-08 1 255 255 0 255 0.6521494 0.7343125
-3.130515 4.889757 0.1425342 0 3.228759e-08 1 255 255 0 255 0.6521494 0.3744096
-3.130515 4.428243 1.42288 1 0 0 255 255 0 255 0.1067882 0.5763898
-3.130515 4.428243 0.1425342 1 0 0 255 255 0 255 0.3627996 0.5763898
-3.130515 4.889757 0.1425342 1 0 0 255 255 0 255 0.3627996 0.6686716
-3.130515 4.889757 1.42288 1 0 0 255 255 0 255 0.1067882 0.6686716
-1.330593 4.428243 1.42288 0 0 -1 255 255 0 255 0.7541022 0.7343125
-3.130515 4.428243 1.42288 0 0 -1 255 255 0 255 0.7541024 0.3744095
-3.130515 4.889757 1.42288 0 0 -1 255 255 0 255 0.8463842 0.3744095
-1.330593 4.889757 1.42288 0 0 -1 255 255 0 255 0.8463842 0.7343125
-3.130515 4.428243 1.015466 5.923815e-08 -0.4472136 0.8944272 255 255 0 255 0.2705178 0.1048626
-1.330593 4.428243 1.015466 2.961908e-08 -0.8944272 0.4472136 255 255 0 255 0.6304206 0.1048629
-1.330593 4.889757 1.015466 6.623026e-08 0 1 255 255 0 255 0.6304206 0.1971447
-3.130515 4.889757 1.015466 6.623026e-08 0 1 255 255 0 255 0.2705178 0.1971446
-1.330593 4.428243 0.9767307 -2.961908e-08 -0.4472136 -0.8944272 255 255 0 255 0.6304206 0.09711731
-3.130515 4.428243 0.9767308 -1.480954e-08 -0.8944272 -0.4472136 255 255 0 255 0.2705178 0.09711739
-3.130515 4.889757 0.9767308 -3.311513e-08 0 -1 255 255 0 255 0.2705178 0.004835598
-1.330593 4.889757 0.9767307 -3.311513e-08 0 -1 255 255 0 255 0.6304206 0.004835446
-3.130515 4.428243 0.5886838 0 -0.4472136 0.8944272 255 255 0 255 0.004835538 0.4744368
-1.330593 4.428243 0.5886838 0 -0.8944272 0.4472136 255 255 0 255 0.3647384 0.4744371
-1.330593 4.889757 0.5886838 0 0 1 255 255 0 255 0.3647384 0.5667188
-3.130515 4.889757 0.5886838 0 0 1 255 255 0 255 0.004835507 0.5667187
-3.130515 4.428243 0.5499487 0 -0.8944272 -0.4472136 255 255 0 255 0.004835536 0.4666916
-1.330593 4.428243 0.5499487 0 -0.4472136 -0.8944272 255 255 0 255 0.3647384 0.4666915
-3.130515 4.889757 0.5499487 0 0 -1 255 255 0 255 0.004835446 0.3744097
-1.330593 4.889757 0.5499487 0 0 -1 255 255 0 255 0.3647384 0.3744095
-3.050719 4.531037 1.383473 0.9918929 -0.1240311 0.02765775 255 255 0 255 0.7541023 0.8524112
-3.040717 4.529258 1.016816 0.9668229 -0.2539518 0.02760405 255 255 0 255 0.8274453 0.8524111
-3.043143 4.958206 1.014669 0.9996122 0.005789056 0.02723866 255 255 0 255 0.8274453 0.9381837
-3.053144 4.959984 1.381326 0.9996122 0.005789056 0.02723866 255 255 0 255 0.7541024 0.9381838
-3.119433 4.528802 1.014671 -0.9904251 -0.1355115 -0.02635944 255 255 0 255 0.8274453 0.829756
-3.129435 4.530581 1.381328 -0.9638874 -0.2651335 -0.02500677 255 255 0 255 0.7541023 0.829756
-3.13186 4.959528 1.379181 -0.9996122 -0.005789059 -0.02723931 255 255 0 255 0.7541023 0.7439834
-3.121859 4.95775 1.012524 -0.9996122 -0.005789059 -0.02723931 255 255 0 255 0.8274453 0.7439835
-3.073074 4.496517 1.016092 0.13534 -0.9907628 0.008497564 255 255 0 255 0.8274453 0.8424473
-3.083076 4.498296 1.382749 0.2649124 -0.964199 0.01190289 255 255 0 255 0.7541023 0.8424473
-3.096709 4.498217 1.382378 -0.1241096 -0.9922675 0.001427892 255 255 0 255 0.7541023 0.8397201
-3.086708 4.496438 1.01572 -0.2539869 -0.9672051 -0.002236469 255 255 0 255 0.8274453 0.8397201
-3.060119 4.507963 1.383328 0.8002797 -0.5991165 0.02473533 255 255 0 255 0.7541022 0.8474292
-3.050118 4.506185 1.016671 0.6080195 -0.7936591 0.02043455 255 255 0 255 0.8274453 0.8474292
-3.109772 4.505839 1.015046 -0.7934529 -0.6083446 -0.01869279 255 255 0 255 0.8274453 0.834738
-3.119773 4.507618 1.381703 -0.5990084 -0.8006459 -0.01245591 255 255 0 255 0.7541023 0.8347379
-3.083076 4.498296 1.382749 -0.02726773 0.00484833 0.9996164 255 255 0 255 0.01407192 0.8420722
-3.060119 4.507963 1.383328 -0.02726771 0.004848333 0.9996164 255 255 0 255 0.01867472 0.8439788
-3.050719 4.531037 1.383473 -0.02726772 0.004848332 0.9996164 255 255 0 255 0.02058124 0.8485815
-3.053144 4.959984 1.381326 -0.02726773 0.004848329 0.9996164 255 255 0 255 0.02058124 0.9343541
-3.13186 4.959528 1.379181 -0.02726774 0.004848328 0.9996164 255 255 0 255 0.004835446 0.9343541
-3.129435 4.530581 1.381328 -0.02726774 0.004848328 0.9996164 255 255 0 255 0.004835446 0.8485815
-3.119773 4.507618 1.381703 -0.02726774 0.00484833 0.9996164 255 255 0 255 0.006741903 0.8439788
-3.096709 4.498217 1.382378 -0.02726774 0.00484833 0.9996164 255 255 0 255 0.0113447 0.8420722
-2.968792 4.531037 1.383473 0.9918929 -0.1240311 0.02765775 255 255 0 255 0.7254925 0.829756
-2.95879 4.529258 1.016816 0.9668229 -0.2539518 0.02760405 255 255 0 255 0.6521494 0.829756
-2.961216 4.958206 1.014669 0.9996122 0.005789056 0.02723866 255 255 0 255 0.6521494 0.7439835
-2.971217 4.959984 1.381326 0.9996122 0.005789056 0.02723866 255 255 0 255 0.7254924 0.7439834
-3.037506 4.528802 1.014671 -0.9904251 -0.1355115 -0.02635944 255 255 0 255 0.6521494 0.8524112
-3.047508 4.530581 1.381328 -0.9638874 -0.2651335 -0.02500677 255 255 0 255 0.7254925 0.8524112
-3.049933 4.959528 1.379181 -0.9996122 -0.005789059 -0.02723931 255 255 0 255 0.7254925 0.9381838
-3.039932 4.95775 1.012524 -0.9996122 -0.005789059 -0.02723931 255 255 0 255 0.6521494 0.9381838
-2.991147 4.496517 1.016092 0.13534 -0.9907628 0.008497564 255 255 0 255 0.6521494 0.83972
-3.001149 4.498296 1.382749 0.2649124 -0.964199 0.01190289 255 255 0 255 0.7254925 0.83972
-3.014783 4.498217 1.382378 -0.1241096 -0.9922675 0.001427892 255 255 0 255 0.7254925 0.8424472
-3.004781 4.496438 1.01572 -0.2539869 -0.9672051 -0.002236469 255 255 0 255 0.6521494 0.8424472
-2.978193 4.507963 1.383328 0.8002797 -0.5991165 0.02473533 255 255 0 255 0.7254925 0.8347379
-2.968191 4.506185 1.016671 0.6080195 -0.7936591 0.02043455 255 255 0 255 0.6521494 0.8347379
-3.027845 4.505839 1.015046 -0.7934529 -0.6083446 -0.01869279 255 255 0 255 0.6521494 0.8474292
-3.037847 4.507618 1.381703 -0.5990084 -0.8006459 -0.01245591 255 255 0 255 0.7254925 0.8474293
-3.001149 4.498296 1.382749 -0.02726773 0.00484833 0.9996164 255 255 0 255 0.9455785 0.5686439
-2.978193 4.507963 1.383328 -0.02726771 0.004848333 0.9996164 255 255 0 255 0.9409757 0.5667375
-2.968792 4.531037 1.383473 -0.02726772 0.004848332 0.9996164 255 255 0 255 0.9390692 0.5621347
-2.971217 4.959984 1.381326 -0.02726773 0.004848329 0.9996164 255 255 0 255 0.9390692 0.4763622
-3.049933 4.959528 1.379181 -0.02726774 0.004848328 0.9996164 255 255 0 255 0.954815 0.4763622
-3.047508 4.530581 1.381328 -0.02726774 0.004848328 0.9996164 255 255 0 255 0.954815 0.5621347
-3.037847 4.507618 1.381703 -0.02726774 0.00484833 0.9996164 255 255 0 255 0.9529084 0.5667375
-3.014783 4.498217 1.382378 -0.02726774 0.00484833 0.9996164 255 255 0 255 0.9483057 0.5686439
-2.884718 4.514994 1.322741 0.9918929 -0.12403 0.02765765 255 255 0 255 0.8786892 0.2799264
-2.876262 4.513491 1.012765 0.9668235 -0.2539495 0.02760397 255 255 0 255 0.8786892 0.2179217
-2.878688 4.942438 1.010618 0.9996122 0.005789056 0.02723856 255 255 0 255 0.9644617 0.2179216
-2.887143 4.943942 1.320594 0.9996122 0.005789056 0.02723856 255 255 0 255 0.9644616 0.2799266
-2.954978 4.513035 1.01062 -0.9904251 -0.1355115 -0.02635876 255 255 0 255 0.8560339 0.2179215
-2.963434 4.514538 1.320596 -0.9638874 -0.2651335 -0.02500619 255 255 0 255 0.8560338 0.2799264
-2.965859 4.943486 1.318449 -0.9996122 -0.005789056 -0.02723855 255 255 0 255 0.7702613 0.2799266
-2.957404 4.941982 1.008473 -0.9996122 -0.005789056 -0.02723855 255 255 0 255 0.7702613 0.2179216
-2.908619 4.48075 1.012041 0.1353372 -0.9907632 0.008497092 255 255 0 255 0.8687252 0.2179215
-2.917075 4.482253 1.322017 0.2649067 -0.9642006 0.01190255 255 255 0 255 0.8687252 0.2799264
-2.930709 4.482174 1.321646 -0.124109 -0.9922676 0.001427372 255 255 0 255 0.8659979 0.2799266
-2.922253 4.48067 1.01167 -0.2539857 -0.9672054 -0.002236909 255 255 0 255 0.8659979 0.2179215
-2.894119 4.49192 1.322596 0.8002796 -0.5991167 0.02473527 255 255 0 255 0.8737072 0.2799266
-2.885663 4.490417 1.01262 0.6080155 -0.7936621 0.02043444 255 255 0 255 0.8737072 0.2179215
-2.945317 4.490072 1.010995 -0.7934526 -0.608345 -0.01869259 255 255 0 255 0.8610159 0.2179215
-2.953773 4.491575 1.320971 -0.5990074 -0.8006467 -0.012456 255 255 0 255 0.8610159 0.2799266
-2.917075 4.482253 1.322017 -0.02726773 0.00484833 0.9996164 255 255 0 255 0.09060805 0.8420722
-2.894119 4.49192 1.322596 -0.02726771 0.004848333 0.9996164 255 255 0 255 0.09521078 0.8439788
-2.884718 4.514994 1.322741 -0.02726772 0.004848332 0.9996164 255 255 0 255 0.0971173 0.8485814
-2.887143 4.943942 1.320594 -0.02726773 0.004848329 0.9996164 255 255 0 255 0.0971173 0.934354
-2.965859 4.943486 1.318449 -0.02726774 0.004848328 0.9996164 255 255 0 255 0.08137158 0.934354
-2.963434 4.514538 1.320596 -0.02726774 0.004848328 0.9996164 255 255 0 255 0.08137152 0.8485814
-2.953773 4.491575 1.320971 -0.02726774 0.00484833 0.9996164 255 255 0 255 0.08327804 0.8439788
-2.930709 4.482174 1.321646 -0.02726774 0.00484833 0.9996164 255 255 0 255 0.0878807 0.8420722
-3.050719 4.531037 0.9614296 0.9918929 -0.1240311 0.02765775 255 255 0 255 0.1801312 0.8471291
-3.040717 4.529258 0.5947726 0.9668229 -0.2539518 0.02760405 255 255 0 255 0.1067882 0.8471292
-3.043143 4.958206 0.592626 0.9996122 0.005789056 0.02723866 255 255 0 255 0.1067882 0.7613565
-3.053144 4.959984 0.959283 0.9996122 0.005789056 0.02723866 255 255 0 255 0.1801312 0.7613565
-3.119433 4.528802 0.5926275 -0.9904251 -0.1355115 -0.02635944 255 255 0 255 0.1067882 0.8697841
-3.129435 4.530581 0.9592845 -0.9638874 -0.2651335 -0.02500677 255 255 0 255 0.1801312 0.8697842
-3.13186 4.959528 0.9571379 -0.9996122 -0.005789059 -0.02723931 255 255 0 255 0.1801312 0.9555569
-3.121859 4.95775 0.5904809 -0.9996122 -0.005789059 -0.02723931 255 255 0 255 0.1067882 0.9555568
-3.073074 4.496517 0.5940487 0.1353313 -0.990764 0.008496686 255 255 0 255 0.1067882 0.857093
-3.083076 4.498295 0.9607058 0.2649127 -0.964199 0.01190227 255 255 0 255 0.1801312 0.857093
-3.096709 4.498217 0.9603343 -0.1241213 -0.9922661 0.001427126 255 255 0 255 0.1801312 0.8598202
-3.086708 4.496438 0.5936772 -0.2539925 -0.9672036 -0.002236848 255 255 0 255 0.1067882 0.8598202
-3.060119 4.507963 0.9612851 0.8002813 -0.5991143 0.02473515 255 255 0 255 0.1801312 0.852111
-3.050118 4.506185 0.594628 0.6080244 -0.7936553 0.02043424 255 255 0 255 0.1067882 0.8521109
-3.109772 4.505839 0.5930024 -0.7934529 -0.6083446 -0.01869279 255 255 0 255 0.1067882 0.8648022
-3.119773 4.507618 0.9596595 -0.5990084 -0.8006459 -0.01245591 255 255 0 255 0.1801312 0.8648022
-3.083076 4.498295 0.9607058 -0.0272678 0.004848331 0.9996164 255 255 0 255 0.06490535 0.8420722
-3.060119 4.507963 0.9612851 -0.02726779 0.004848334 0.9996164 255 255 0 255 0.06950814 0.8439786
-3.050719 4.531037 0.9614296 -0.02726779 0.004848333 0.9996164 255 255 0 255 0.0714146 0.8485814
-3.053144 4.959984 0.959283 -0.0272678 0.00484833 0.9996164 255 255 0 255 0.0714146 0.934354
-3.13186 4.959528 0.9571379 -0.02726781 0.004848329 0.9996164 255 255 0 255 0.05566887 0.934354
-3.129435 4.530581 0.9592845 -0.02726781 0.00484833 0.9996164 255 255 0 255 0.05566881 0.8485814
-3.119773 4.507618 0.9596595 -0.02726781 0.004848332 0.9996164 255 255 0 255 0.05757539 0.8439788
-3.096709 4.498217 0.9603343 -0.02726781 0.004848332 0.9996164 255 255 0 255 0.06217806 0.8420722
-2.968792 4.531037 0.9614296 0.9918929 -0.1240311 0.02765775 255 255 0 255 0.9293983 0.4601822
-2.95879 4.529258 0.5947726 0.9668229 -0.2539518 0.02760405 255 255 0 255 0.8560553 0.4601822
-2.961216 4.958206 0.592626 0.9996122 0.005789056 0.02723866 255 255 0 255 0.8560551 0.3744096
-2.971217 4.959984 0.959283 0.9996122 0.005789056 0.02723866 255 255 0 255 0.9293983 0.3744095
-3.037506 4.528802 0.5926275 -0.9904251 -0.1355115 -0.02635944 255 255 0 255 0.8560553 0.4828373
-3.047508 4.530581 0.9592845 -0.9638874 -0.2651335 -0.02500677 255 255 0 255 0.9293983 0.4828374
-3.049933 4.959528 0.9571379 -0.9996122 -0.005789059 -0.02723931 255 255 0 255 0.9293983 0.56861
-3.039932 4.95775 0.5904809 -0.9996122 -0.005789059 -0.02723931 255 255 0 255 0.8560551 0.5686099
-2.991147 4.496517 0.5940487 0.1353313 -0.990764 0.008496686 255 255 0 255 0.8560553 0.4701461
-3.001149 4.498295 0.9607058 0.2649127 -0.964199 0.01190227 255 255 0 255 0.9293983 0.4701462
-3.014783 4.498217 0.9603343 -0.1241213 -0.9922661 0.001427126 255 255 0 255 0.9293983 0.4728734
-3.004781 4.496438 0.5936772 -0.2539925 -0.9672036 -0.002236848 255 255 0 255 0.8560553 0.4728734
-2.978193 4.507963 0.9612851 0.8002813 -0.5991143 0.02473515 255 255 0 255 0.9293983 0.4651642
-2.968191 4.506185 0.594628 0.6080244 -0.7936553 0.02043424 255 255 0 255 0.8560553 0.465164
-3.027845 4.505839 0.5930024 -0.7934529 -0.6083446 -0.01869279 255 255 0 255 0.8560551 0.4778553
-3.037847 4.507618 0.9596595 -0.5990084 -0.8006459 -0.01245591 255 255 0 255 0.9293983 0.4778555
-3.001149 4.498295 0.9607058 -0.0272678 0.004848331 0.9996164 255 255 0 255 0.6209431 0.2068156
-2.978193 4.507963 0.9612851 -0.02726779 0.004848334 0.9996164 255 255 0 255 0.6255459 0.2087221
-2.968792 4.531037 0.9614296 -0.02726779 0.004848333 0.9996164 255 255 0 255 0.6274524 0.2133249
-2.971217 4.959984 0.959283 -0.0272678 0.00484833 0.9996164 255 255 0 255 0.6274524 0.2990975
-3.049933 4.959528 0.9571379 -0.02726781 0.004848329 0.9996164 255 255 0 255 0.6117066 0.2990975
-3.047508 4.530581 0.9592845 -0.02726781 0.00484833 0.9996164 255 255 0 255 0.6117065 0.2133249
-3.037847 4.507618 0.9596595 -0.02726781 0.004848332 0.9996164 255 255 0 255 0.6136131 0.2087222
-3.014783 4.498217 0.9603343 -0.02726781 0.004848332 0.9996164 255 255 0 255 0.6182159 0.2068156
-2.884718 4.514994 0.9006977 0.9918929 -0.12403 0.02765765 255 255 0 255 0.9331596 0.8905799
-2.876262 4.513491 0.5907218 0.9668235 -0.2539495 0.02760397 255 255 0 255 0.9951644 0.89058
-2.878688 4.942438 0.5885752 0.9996122 0.005789056 0.02723856 255 255 0 255 0.9951646 0.9763526
-2.887143 4.943942 0.8985511 0.9996122 0.005789056 0.02723856 255 255 0 255 0.9331597 0.9763526
-2.954978 4.513035 0.5885768 -0.9904251 -0.1355115 -0.02635876 255 255 0 255 0.9951644 0.8679247
-2.963434 4.514538 0.8985527 -0.9638874 -0.2651335 -0.02500619 255 255 0 255 0.9331596 0.8679247
-2.965859 4.943486 0.8964061 -0.9996122 -0.005789056 -0.02723855 255 255 0 255 0.9331597 0.7821521
-2.957404 4.941982 0.5864302 -0.9996122 -0.005789056 -0.02723855 255 255 0 255 0.9951646 0.7821522
-2.908619 4.48075 0.589998 0.1353372 -0.9907632 0.008497092 255 255 0 255 0.9951644 0.8806159
-2.917075 4.482253 0.8999739 0.2649067 -0.9642006 0.01190255 255 255 0 255 0.9331596 0.8806161
-2.930709 4.482174 0.8996024 -0.124109 -0.9922676 0.001427372 255 255 0 255 0.9331596 0.8778887
-2.922253 4.48067 0.5896264 -0.2539857 -0.9672054 -0.002236909 255 255 0 255 0.9951644 0.8778887
-2.894119 4.49192 0.9005532 0.8002796 -0.5991167 0.02473527 255 255 0 255 0.9331596 0.8855981
-2.885663 4.490417 0.5905772 0.6080155 -0.7936621 0.02043444 255 255 0 255 0.9951644 0.8855981
-2.945317 4.490072 0.5889517 -0.7934526 -0.608345 -0.01869259 255 255 0 255 0.9951644 0.8729066
-2.953773 4.491575 0.8989276 -0.5990074 -0.8006467 -0.012456 255 255 0 255 0.9331596 0.8729066
-2.917075 4.482253 0.8999739 -0.02726773 0.00484833 0.9996164 255 255 0 255 0.9455258 0.1067882
-2.894119 4.49192 0.9005532 -0.02726771 0.004848333 0.9996164 255 255 0 255 0.9501284 0.1086947
-2.884718 4.514994 0.9006977 -0.02726772 0.004848332 0.9996164 255 255 0 255 0.952035 0.1132974
-2.887143 4.943942 0.8985511 -0.02726773 0.004848329 0.9996164 255 255 0 255 0.952035 0.19907
-2.965859 4.943486 0.8964061 -0.02726774 0.004848328 0.9996164 255 255 0 255 0.9362893 0.19907
-2.963434 4.514538 0.8985527 -0.02726774 0.004848328 0.9996164 255 255 0 255 0.9362893 0.1132974
-2.953773 4.491575 0.8989276 -0.02726774 0.00484833 0.9996164 255 255 0 255 0.9381957 0.1086947
-2.930709 4.482174 0.8996024 -0.02726774 0.00484833 0.9996164 255 255 0 255 0.9427986 0.1067883
-2.80865 4.531037 0.9614296 0.9918929 -0.1240311 0.02765775 255 255 0 255 0.9293982 0.6640535
-2.798649 4.529258 0.5947726 0.9668229 -0.2539518 0.02760405 255 255 0 255 0.8560551 0.6640535
-2.801074 4.958206 0.592626 0.9996122 0.005789056 0.02723866 255 255 0 255 0.8560551 0.5782809
-2.811076 4.959984 0.959283 0.9996122 0.005789056 0.02723866 255 255 0 255 0.9293982 0.5782808
-2.877365 4.528802 0.5926275 -0.9904251 -0.1355115 -0.02635944 255 255 0 255 0.8560551 0.6867086
-2.887366 4.530581 0.9592845 -0.9638874 -0.2651335 -0.02500677 255 255 0 255 0.9293982 0.6867086
-2.889792 4.959528 0.9571379 -0.9996122 -0.005789059 -0.02723931 255 255 0 255 0.9293982 0.7724812
-2.87979 4.95775 0.5904809 -0.9996122 -0.005789059 -0.02723931 255 255 0 255 0.8560551 0.7724811
-2.831006 4.496517 0.5940487 0.1353313 -0.990764 0.008496686 255 255 0 255 0.8560551 0.6740174
-2.841007 4.498295 0.9607058 0.2649127 -0.964199 0.01190227 255 255 0 255 0.9293982 0.6740174
-2.854641 4.498217 0.9603343 -0.1241201 -0.9922662 0.001427158 255 255 0 255 0.9293982 0.6767446
-2.844639 4.496438 0.5936772 -0.2539901 -0.9672043 -0.002236781 255 255 0 255 0.8560551 0.6767446
-2.818051 4.507963 0.9612851 0.8002813 -0.5991143 0.02473515 255 255 0 255 0.9293982 0.6690354
-2.808049 4.506185 0.594628 0.6080244 -0.7936553 0.02043424 255 255 0 255 0.8560551 0.6690354
-2.867703 4.505839 0.5930024 -0.7934522 -0.6083454 -0.01869277 255 255 0 255 0.8560551 0.6817265
-2.877705 4.507618 0.9596595 -0.5990064 -0.8006474 -0.01245585 255 255 0 255 0.9293982 0.6817268
-2.841007 4.498295 0.9607058 -0.0272678 0.004848331 0.9996164 255 255 0 255 0.4706102 0.3434949
-2.818051 4.507963 0.9612851 -0.02726779 0.004848334 0.9996164 255 255 0 255 0.4725167 0.3388922
-2.80865 4.531037 0.9614296 -0.02726779 0.004848333 0.9996164 255 255 0 255 0.4771195 0.3369856
-2.811076 4.959984 0.959283 -0.0272678 0.004848331 0.9996164 255 255 0 255 0.562892 0.3369856
-2.889792 4.959528 0.9571379 -0.02726781 0.00484833 0.9996164 255 255 0 255 0.562892 0.3527314
-2.887366 4.530581 0.9592845 -0.02726781 0.004848331 0.9996164 255 255 0 255 0.4771195 0.3527314
-2.877705 4.507618 0.9596595 -0.0272678 0.004848332 0.9996164 255 255 0 255 0.4725167 0.3508249
-2.854641 4.498217 0.9603343 -0.0272678 0.004848332 0.9996164 255 255 0 255 0.4706102 0.3462221
-2.718163 4.530893 0.9318873 0.9918926 -0.1240323 0.0276584 255 255 0 255 0.1898022 0.8697845
-2.708968 4.529258 0.5947726 0.9668223 -0.2539541 0.02760467 255 255 0 255 0.2572359 0.869784
-2.711393 4.958206 0.592626 0.9996122 0.005789058 0.02723931 255 255 0 255 0.2572362 0.9555569
-2.720589 4.959841 0.9297407 0.9996122 0.005789058 0.02723931 255 255 0 255 0.1898026 0.955557
-2.787684 4.528802 0.5926275 -0.9904251 -0.1355115 -0.02635953 255 255 0 255 0.2572358 0.8471294
-2.79688 4.530437 0.9297422 -0.9638874 -0.2651335 -0.02500694 255 255 0 255 0.1898022 0.8471292
-2.799305 4.959385 0.9275956 -0.9996122 -0.005789059 -0.02723932 255 255 0 255 0.1898025 0.7613565
-2.790109 4.95775 0.5904809 -0.9996122 -0.005789059 -0.02723932 255 255 0 255 0.2572362 0.7613568
-2.741325 4.496517 0.5940487 0.1353434 -0.9907624 0.008497244 255 255 0 255 0.2572358 0.8598204
-2.75052 4.498152 0.9311634 0.2649193 -0.9641971 0.01190292 255 255 0 255 0.1898021 0.8598204
-2.764154 4.498073 0.930792 -0.1241097 -0.9922675 0.001427236 255 255 0 255 0.1898021 0.8570932
-2.754959 4.496438 0.5936772 -0.2539869 -0.9672051 -0.002237108 255 255 0 255 0.2572358 0.8570934
-2.727564 4.50782 0.9317428 0.8002802 -0.5991159 0.0247358 255 255 0 255 0.1898021 0.8648024
-2.718369 4.506185 0.594628 0.6080244 -0.7936553 0.02043496 255 255 0 255 0.2572359 0.8648023
-2.778023 4.505839 0.5930024 -0.7934529 -0.6083446 -0.01869319 255 255 0 255 0.2572358 0.8521115
-2.787218 4.507474 0.9301171 -0.5990084 -0.8006459 -0.01245644 255 255 0 255 0.1898021 0.8521111
-2.75052 4.498152 0.9311634 -0.02726793 0.004848339 0.9996164 255 255 0 255 0.9455258 0.004835462
-2.727564 4.50782 0.9317428 -0.02726792 0.004848342 0.9996164 255 255 0 255 0.9501285 0.006741903
-2.718163 4.530893 0.9318873 -0.02726793 0.00484834 0.9996164 255 255 0 255 0.952035 0.01134467
-2.720589 4.959841 0.9297407 -0.02726793 0.004848338 0.9996164 255 255 0 255 0.952035 0.09711722
-2.799305 4.959385 0.9275956 -0.02726794 0.004848337 0.9996164 255 255 0 255 0.9362893 0.09711729
-2.79688 4.530437 0.9297422 -0.02726794 0.004848338 0.9996164 255 255 0 255 0.9362893 0.01134471
-2.787218 4.507474 0.9301171 -0.02726794 0.00484834 0.9996164 255 255 0 255 0.9381958 0.006741903
-2.764154 4.498073 0.930792 -0.02726794 0.00484834 0.9996164 255 255 0 255 0.9427986 0.004835446
-1.335162 4.52975 0.9224983 0.9828808 -0.1365307 -0.1237124 255 255 0 255 0.8560551 0.89058
-1.377144 4.530726 0.5878789 0.9563434 -0.2661281 -0.1207609 255 255 0 255 0.9234886 0.8905796
-1.374089 4.959674 0.5887462 0.9921958 -0.006814995 -0.1245029 255 255 0 255 0.9234888 0.9763525
-1.332106 4.958699 0.9233655 0.9921958 -0.006814995 -0.1245029 255 255 0 255 0.8560552 0.9763525
-1.455276 4.531263 0.597683 -0.9847296 -0.1230141 0.123187 255 255 0 255 0.9234886 0.867925
-1.413294 4.530287 0.9323024 -0.9600416 -0.2529617 0.1197106 255 255 0 255 0.8560551 0.8679246
-1.410239 4.959235 0.9331696 -0.9921959 0.006815135 0.1245023 255 255 0 255 0.8560552 0.7821521
-1.45222 4.960211 0.5985503 -0.9921959 0.006815135 0.1245023 255 255 0 255 0.9234888 0.7821522
-1.409675 4.498395 0.5918661 0.1217004 -0.9924008 -0.01816105 255 255 0 255 0.9234886 0.8806159
-1.367693 4.49742 0.9264854 0.2506487 -0.9674715 -0.03426677 255 255 0 255 0.8560551 0.8806159
-1.381226 4.497513 0.9281836 -0.1358272 -0.9906314 0.01415396 255 255 0 255 0.8560551 0.8778886
-1.423208 4.498488 0.5935642 -0.2644066 -0.9639332 0.03036323 255 255 0 255 0.9234886 0.8778887
-1.344786 4.506797 0.9236389 0.7866527 -0.609166 -0.1004711 255 255 0 255 0.8560551 0.8855979
-1.386768 4.507773 0.5890194 0.5933597 -0.8012673 -0.07677995 255 255 0 255 0.9234886 0.8855979
-1.445979 4.50818 0.5964493 -0.7952549 -0.5982974 0.09802949 255 255 0 255 0.9234886 0.8729069
-1.403997 4.507204 0.9310687 -0.6047165 -0.7930369 0.07355673 255 255 0 255 0.8560551 0.8729067
-1.367693 4.49742 0.9264854 0.1244831 -0.002892549 0.9922175 255 255 0 255 0.5561374 0.8575701
-1.344786 4.506797 0.9236389 0.1244831 -0.002892541 0.9922175 255 255 0 255 0.5515346 0.8556637
-1.335162 4.52975 0.9224983 0.1244831 -0.002892544 0.9922175 255 255 0 255 0.5496281 0.8510609
-1.332106 4.958699 0.9233655 0.1244831 -0.00289255 0.9922175 255 255 0 255 0.5496281 0.7652884
-1.410239 4.959235 0.9331696 0.1244832 -0.002892552 0.9922175 255 255 0 255 0.565374 0.7652883
-1.413294 4.530287 0.9323024 0.1244832 -0.002892551 0.9922175 255 255 0 255 0.565374 0.8510609
-1.403997 4.507204 0.9310687 0.1244832 -0.00289255 0.9922175 255 255 0 255 0.5634674 0.8556637
-1.381226 4.497513 0.9281836 0.1244832 -0.00289255 0.9922175 255 255 0 255 0.5588647 0.8575701
-1.422157 4.52975 0.9224983 0.9828808 -0.1365308 -0.1237123 255 255 0 255 0.4515139 0.8737162
-1.464139 4.530726 0.5878789 0.9563434 -0.2661281 -0.1207608 255 255 0 255 0.5189474 0.8737161
-1.461083 4.959674 0.5887462 0.9921959 -0.006815131 -0.1245027 255 255 0 255 0.5189477 0.9594887
-1.419101 4.958699 0.9233655 0.9921959 -0.006815131 -0.1245027 255 255 0 255 0.4515141 0.9594888
-1.54227 4.531263 0.597683 -0.9847297 -0.123014 0.1231869 255 255 0 255 0.5189474 0.8510612
-1.500289 4.530287 0.9323024 -0.9600416 -0.2529617 0.1197105 255 255 0 255 0.4515139 0.851061
-1.497233 4.959235 0.9331696 -0.992196 0.006815274 0.1245022 255 255 0 255 0.4515141 0.7652884
-1.539215 4.960211 0.5985503 -0.992196 0.006815274 0.1245022 255 255 0 255 0.5189477 0.7652885
-1.49667 4.498395 0.5918661 0.1217007 -0.9924007 -0.01816106 255 255 0 255 0.5189474 0.8637523
-1.454688 4.49742 0.9264854 0.2506493 -0.9674713 -0.0342668 255 255 0 255 0.4515139 0.8637523
-1.468221 4.497513 0.9281836 -0.1358272 -0.9906314 0.014154 255 255 0 255 0.4515139 0.8610249
-1.510203 4.498488 0.5935642 -0.2644066 -0.9639332 0.03036332 255 255 0 255 0.5189474 0.8610251
-1.431781 4.506797 0.9236389 0.7866528 -0.6091658 -0.1004711 255 255 0 255 0.4515139 0.8687342
-1.473763 4.507773 0.5890194 0.5933602 -0.8012669 -0.07677995 255 255 0 255 0.5189474 0.8687342
-1.532974 4.50818 0.5964493 -0.7952549 -0.5982975 0.09802952 255 255 0 255 0.5189474 0.8560432
-1.490992 4.507204 0.9310687 -0.6047165 -0.7930369 0.07355683 255 255 0 255 0.4515139 0.856043
-1.454688 4.49742 0.9264854 0.1244831 -0.002892549 0.9922175 255 255 0 255 0.03948867 0.8420722
-1.431781 4.506797 0.9236389 0.1244831 -0.002892541 0.9922175 255 255 0 255 0.04409146 0.8439786
-1.422157 4.52975 0.9224983 0.1244831 -0.002892545 0.9922175 255 255 0 255 0.04599792 0.8485814
-1.419101 4.958699 0.9233655 0.1244831 -0.002892551 0.9922175 255 255 0 255 0.04599792 0.934354
-1.497233 4.959235 0.9331696 0.1244832 -0.002892553 0.9922175 255 255 0 255 0.03025219 0.934354
-1.500289 4.530287 0.9323024 0.1244832 -0.002892551 0.9922175 255 255 0 255 0.03025213 0.8485814
-1.490992 4.507204 0.9310687 0.1244832 -0.00289255 0.9922175 255 255 0 255 0.03215871 0.8439786
-1.468221 4.497513 0.9281836 0.1244832 -0.00289255 0.9922175 255 255 0 255 0.03676144 0.8420722
-1.509151 4.52975 0.9224983 0.9828808 -0.1365301 -0.1237126 255 255 0 255 0.6424785 0.851061
-1.551134 4.530726 0.5878789 0.9563438 -0.2661267 -0.1207611 255 255 0 255 0.575045 0.8510611
-1.548078 4.959674 0.5887462 0.9921958 -0.00681513 -0.124503 255 255 0 255 0.5750448 0.7652884
-1.506096 4.958699 0.9233655 0.9921958 -0.00681513 -0.124503 255 255 0 255 0.6424783 0.7652883
-1.629265 4.531263 0.597683 -0.9847297 -0.1230141 0.123187 255 255 0 255 0.575045 0.873716
-1.587284 4.530287 0.9323024 -0.9600416 -0.2529617 0.1197107 255 255 0 255 0.6424785 0.8737161
-1.584228 4.959235 0.9331696 -0.992196 0.006815273 0.1245022 255 255 0 255 0.6424783 0.9594887
-1.62621 4.960211 0.5985503 -0.992196 0.006815273 0.1245022 255 255 0 255 0.5750448 0.9594886
-1.583665 4.498395 0.5918661 0.1217004 -0.9924008 -0.01816104 255 255 0 255 0.575045 0.8610249
-1.541683 4.49742 0.9264854 0.2506487 -0.9674715 -0.03426677 255 255 0 255 0.6424785 0.8610249
-1.555216 4.497513 0.9281836 -0.1358272 -0.9906315 0.01415405 255 255 0 255 0.6424785 0.8637521
-1.597198 4.498488 0.5935642 -0.2644066 -0.9639332 0.03036342 255 255 0 255 0.575045 0.863752
-1.518776 4.506797 0.9236389 0.7866535 -0.6091648 -0.1004713 255 255 0 255 0.6424785 0.8560429
-1.560758 4.507773 0.5890194 0.5933601 -0.8012668 -0.07678006 255 255 0 255 0.575045 0.8560429
-1.619969 4.50818 0.5964493 -0.7952549 -0.5982975 0.09802981 255 255 0 255 0.575045 0.8687341
-1.577987 4.507204 0.9310687 -0.6047164 -0.7930369 0.07355703 255 255 0 255 0.6424785 0.8687342
-1.541683 4.49742 0.9264854 0.1244831 -0.002892548 0.9922175 255 255 0 255 0.3562903 0.6783425
-1.518776 4.506797 0.9236389 0.1244831 -0.002892541 0.9922175 255 255 0 255 0.360893 0.680249
-1.509151 4.52975 0.9224983 0.1244831 -0.002892544 0.9922175 255 255 0 255 0.3627996 0.6848518
-1.506096 4.958699 0.9233655 0.1244831 -0.00289255 0.9922175 255 255 0 255 0.3627996 0.7706243
-1.584228 4.959235 0.9331696 0.1244832 -0.002892552 0.9922175 255 255 0 255 0.3470539 0.7706244
-1.587284 4.530287 0.9323024 0.1244832 -0.00289255 0.9922175 255 255 0 255 0.3470538 0.6848518
-1.577987 4.507204 0.9310687 0.1244832 -0.002892549 0.9922175 255 255 0 255 0.3489603 0.680249
-1.555216 4.497513 0.9281836 0.1244832 -0.002892549 0.9922175 255 255 0 255 0.3535631 0.6783426
-1.596146 4.52975 0.9224983 0.9828808 -0.13653 -0.1237127 255 255 0 255 0.3343408 0.847129
-1.638129 4.530726 0.5878789 0.9563438 -0.2661267 -0.1207612 255 255 0 255 0.2669072 0.8471293
-1.635073 4.959674 0.5887462 0.9921958 -0.006814991 -0.1245032 255 255 0 255 0.266907 0.7613567
-1.593091 4.958699 0.9233655 0.9921958 -0.006814991 -0.1245032 255 255 0 255 0.3343406 0.7613565
-1.71626 4.531263 0.597683 -0.9847296 -0.1230141 0.1231871 255 255 0 255 0.2669072 0.8697842
-1.674278 4.530287 0.9323024 -0.9600415 -0.2529617 0.1197108 255 255 0 255 0.3343408 0.8697844
-1.671223 4.959235 0.9331696 -0.9921959 0.006815134 0.1245023 255 255 0 255 0.3343406 0.9555569
-1.713205 4.960211 0.5985503 -0.9921959 0.006815134 0.1245023 255 255 0 255 0.266907 0.9555569
-1.67066 4.498395 0.5918661 0.1217001 -0.9924008 -0.01816103 255 255 0 255 0.2669072 0.8570931
-1.628678 4.49742 0.9264854 0.2506481 -0.9674716 -0.03426674 255 255 0 255 0.3343408 0.8570931
-1.642211 4.497513 0.9281836 -0.1358272 -0.9906314 0.014154 255 255 0 255 0.3343409 0.8598204
-1.684193 4.498488 0.5935642 -0.2644066 -0.9639332 0.03036332 255 255 0 255 0.2669072 0.8598202
-1.605771 4.506797 0.9236389 0.7866533 -0.6091651 -0.1004713 255 255 0 255 0.3343409 0.852111
-1.647753 4.507773 0.5890194 0.5933596 -0.8012672 -0.07678005 255 255 0 255 0.2669072 0.8521111
-1.706964 4.50818 0.5964493 -0.7952549 -0.5982975 0.09802976 255 255 0 255 0.2669072 0.8648022
-1.664982 4.507204 0.9310687 -0.6047164 -0.7930369 0.07355694 255 255 0 255 0.3343408 0.8648023
-1.628678 4.49742 0.9264854 0.1244831 -0.002892548 0.9922175 255 255 0 255 0.353563 0.8725772
-1.605771 4.506797 0.9236389 0.1244831 -0.002892541 0.9922175 255 255 0 255 0.3489603 0.8706706
-1.596146 4.52975 0.9224983 0.1244831 -0.002892544 0.9922175 255 255 0 255 0.3470538 0.866068
-1.593091 4.958699 0.9233655 0.1244831 -0.002892549 0.9922175 255 255 0 255 0.3470539 0.7802954
-1.671223 4.959235 0.9331696 0.1244831 -0.002892551 0.9922175 255 255 0 255 0.3627996 0.7802953
-1.674278 4.530287 0.9323024 0.1244831 -0.00289255 0.9922175 255 255 0 255 0.3627996 0.866068
-1.664982 4.507204 0.9310687 0.1244831 -0.002892549 0.9922175 255 255 0 255 0.360893 0.8706706
-1.642211 4.497513 0.9281836 0.1244831 -0.002892549 0.9922175 255 255 0 255 0.3562902 0.8725772
-1.683141 4.52975 0.9224983 0.9828808 -0.1365307 -0.1237124 255 255 0 255 0.3744093 0.8737161
-1.725123 4.530726 0.5878789 0.9563434 -0.2661281 -0.1207609 255 255 0 255 0.4418429 0.873716
-1.722068 4.959674 0.5887462 0.9921958 -0.006814995 -0.1245029 255 255 0 255 0.441843 0.9594887
-1.680086 4.958699 0.9233655 0.9921958 -0.006814995 -0.1245029 255 255 0 255 0.3744094 0.9594889
-1.803255 4.531263 0.597683 -0.9847296 -0.1230141 0.123187 255 255 0 255 0.4418429 0.8510612
-1.761274 4.530287 0.9323024 -0.9600416 -0.2529617 0.1197106 255 255 0 255 0.3744093 0.851061
-1.758218 4.959235 0.9331696 -0.9921959 0.006815135 0.1245023 255 255 0 255 0.3744094 0.7652884
-1.8002 4.960211 0.5985503 -0.9921959 0.006815135 0.1245023 255 255 0 255 0.441843 0.7652885
-1.757655 4.498395 0.5918661 0.1217004 -0.9924008 -0.01816105 255 255 0 255 0.4418429 0.8637523
-1.715673 4.49742 0.9264854 0.2506487 -0.9674715 -0.03426677 255 255 0 255 0.3744093 0.8637523
-1.729206 4.497513 0.9281836 -0.1358272 -0.9906314 0.01415396 255 255 0 255 0.3744093 0.861025
-1.771188 4.498488 0.5935642 -0.2644066 -0.9639332 0.03036323 255 255 0 255 0.4418429 0.861025
-1.692766 4.506797 0.9236389 0.7866527 -0.609166 -0.1004711 255 255 0 255 0.3744093 0.8687342
-1.734748 4.507773 0.5890194 0.5933597 -0.8012673 -0.07677995 255 255 0 255 0.4418429 0.8687342
-1.793959 4.50818 0.5964493 -0.7952549 -0.5982974 0.09802949 255 255 0 255 0.4418429 0.8560431
-1.751977 4.507204 0.9310687 -0.6047165 -0.7930369 0.07355673 255 255 0 255 0.3744093 0.856043
-1.715673 4.49742 0.9264854 0.1244831 -0.002892549 0.9922175 255 255 0 255 0.9483057 0.3744095
-1.692766 4.506797 0.9236389 0.1244831 -0.002892541 0.9922175 255 255 0 255 0.9529085 0.376316
-1.683141 4.52975 0.9224983 0.1244831 -0.002892544 0.9922175 255 255 0 255 0.954815 0.3809187
-1.680086 4.958699 0.9233655 0.1244831 -0.00289255 0.9922175 255 255 0 255 0.954815 0.4666913
-1.758218 4.959235 0.9331696 0.1244832 -0.002892552 0.9922175 255 255 0 255 0.9390692 0.4666913
-1.761274 4.530287 0.9323024 0.1244832 -0.002892551 0.9922175 255 255 0 255 0.9390692 0.3809187
-1.751977 4.507204 0.9310687 0.1244832 -0.00289255 0.9922175 255 255 0 255 0.9409757 0.376316
-1.729206 4.497513 0.9281836 0.1244832 -0.00289255 0.9922175 255 255 0 255 0.9455785 0.3744096
-2.991503 4.537957 0.5120891 0.9800799 -0.1984206 0.008522783 255 255 0 255 0.9266183 0.090608
-2.9885 4.537035 0.1453048 0.9161048 -0.4008487 0.008507563 255 255 0 255 0.8532754 0.0906081
-2.990138 4.965991 0.1442137 0.9999592 0.003838239 0.008177399 255 255 0 255 0.8532753 0.004835506
-2.993141 4.966913 0.510998 0.9999592 0.003838239 0.008177399 255 255 0 255 0.9266183 0.004835446
-3.124177 4.536515 0.1441953 -0.9785364 -0.2059379 -0.007495398 255 255 0 255 0.8532754 0.1224779
-3.127181 4.537436 0.5109796 -0.9130177 -0.407869 -0.006451435 255 255 0 255 0.9266183 0.1224779
-3.128818 4.966392 0.5098884 -0.9999592 -0.003837687 -0.0081787 255 255 0 255 0.9266183 0.2082506
-3.125814 4.96547 0.1431041 -0.9999592 -0.003837687 -0.0081787 255 255 0 255 0.8532754 0.2082504
-3.00484 4.513954 0.145229 0.3043983 -0.9525324 0.004885313 255 255 0 255 0.8532754 0.09626281
-3.007843 4.514875 0.5120134 0.6045655 -0.7965251 0.00695095 255 255 0 255 0.9266183 0.09626281
-3.110665 4.514481 0.5111725 -0.297118 -0.9548408 -3.397793e-05 255 255 0 255 0.9266183 0.1168233
-3.107661 4.513559 0.1443882 -0.5984671 -0.8011422 -0.00288763 255 255 0 255 0.8532754 0.1168231
-2.852342 4.513954 0.145229 0.3043993 -0.9525321 0.004885418 255 255 0 255 0.8436044 0.1168233
-2.855345 4.514875 0.5120134 0.6045674 -0.7965236 0.006951158 255 255 0 255 0.7702613 0.1168232
-2.958167 4.514481 0.5111725 -0.297119 -0.9548405 -3.408326e-05 255 255 0 255 0.7702613 0.0962628
-2.955163 4.513559 0.1443882 -0.598469 -0.8011408 -0.002887845 255 255 0 255 0.8436044 0.09626292
-2.839005 4.537957 0.5120891 0.9800801 -0.1984197 0.008523101 255 255 0 255 0.7702613 0.122478
-2.836002 4.537035 0.1453048 0.9161056 -0.4008467 0.008507863 255 255 0 255 0.8436044 0.122478
-2.83764 4.965991 0.1442137 0.9999592 0.003837961 0.008177725 255 255 0 255 0.8436044 0.2082506
-2.840643 4.966913 0.510998 0.9999592 0.003837961 0.008177725 255 255 0 255 0.7702613 0.2082506
-3.007843 4.514875 0.5120134 -0.008186587 0.002512512 0.9999633 255 255 0 255 0.2705178 0.3402706
-2.991503 4.537957 0.5120891 -0.008186555 0.002512516 0.9999633 255 255 0 255 0.2751205 0.3369856
-2.993141 4.966913 0.510998 -0.008186576 0.002512515 0.9999633 255 255 0 255 0.3608931 0.3369857
-3.128818 4.966392 0.5098884 -0.008186597 0.002512512 0.9999633 255 255 0 255 0.3608931 0.3641161
-3.127181 4.537436 0.5109796 -0.008186598 0.00251251 0.9999633 255 255 0 255 0.2751205 0.3641161
-3.110665 4.514481 0.5111725 -0.008186598 0.00251251 0.9999633 255 255 0 255 0.2705178 0.3608311
-1.47986 4.537436 0.5109796 -0.9130182 -0.4078679 -0.006451533 255 255 0 255 0.2244307 0.6783426
-1.476856 4.536515 0.1441953 -0.9785365 -0.2059376 -0.007495445 255 255 0 255 0.2244307 0.7516856
-1.46034 4.513559 0.1443882 -0.5984681 -0.8011415 -0.002887738 255 255 0 255 0.2187759 0.7516856
-1.463344 4.514481 0.5111725 -0.2971185 -0.9548406 -3.403042e-05 255 255 0 255 0.218776 0.6783427
-1.360523 4.514875 0.5120134 -0.008186587 0.002512512 0.9999633 255 255 0 255 0.4609393 0.3608311
-1.344182 4.537957 0.5120891 -0.008186555 0.002512516 0.9999633 255 255 0 255 0.4563366 0.364116
-1.34582 4.966913 0.510998 -0.008186576 0.002512514 0.9999633 255 255 0 255 0.370564 0.364116
-1.481497 4.966392 0.5098884 -0.008186597 0.002512512 0.9999633 255 255 0 255 0.370564 0.3369856
-1.47986 4.537436 0.5109796 -0.008186598 0.00251251 0.9999633 255 255 0 255 0.4563366 0.3369856
-1.463344 4.514481 0.5111725 -0.008186598 0.00251251 0.9999633 255 255 0 255 0.4609393 0.3402706
-1.344182 4.537957 0.5120891 0.9800801 -0.1984197 0.008523101 255 255 0 255 0.1925608 0.6783426
-1.341179 4.537035 0.1453048 0.9161056 -0.4008467 0.008507863 255 255 0 255 0.1925608 0.7516856
-1.342817 4.965991 0.1442137 0.9999592 0.003837961 0.008177725 255 255 0 255 0.1067883 0.7516856
-1.34582 4.966913 0.510998 0.9999592 0.003837961 0.008177725 255 255 0 255 0.1067882 0.6783426
-1.357519 4.513954 0.145229 0.3043993 -0.9525321 0.004885418 255 255 0 255 0.1982156 0.7516856
-1.360523 4.514875 0.5120134 0.6045674 -0.7965236 0.006951158 255 255 0 255 0.1982156 0.6783425
-2.855345 4.514875 0.5120134 -0.008186587 0.002512512 0.9999633 255 255 0 255 0.5781902 0.2971909
-2.839005 4.537957 0.5120891 -0.008186555 0.002512516 0.9999633 255 255 0 255 0.5749052 0.2925883
-2.840643 4.966913 0.510998 -0.008186576 0.002512514 0.9999633 255 255 0 255 0.5749052 0.2068157
-2.97632 4.966392 0.5098884 -0.008186597 0.002512512 0.9999633 255 255 0 255 0.6020356 0.2068156
-2.974682 4.537436 0.5109796 -0.008186598 0.00251251 0.9999633 255 255 0 255 0.6020356 0.2925883
-2.958167 4.514481 0.5111725 -0.008186598 0.00251251 0.9999633 255 255 0 255 0.5987507 0.297191
-2.974682 4.537436 0.5109796 -0.9130186 -0.4078669 -0.006451745 255 255 0 255 0.7702613 0.09060815
-2.971679 4.536515 0.1441953 -0.9785365 -0.205937 -0.007495719 255 255 0 255 0.8436044 0.09060815
-2.97632 4.966392 0.5098884 -0.9999592 -0.003837966 -0.008179024 255 255 0 255 0.7702615 0.004835446
-2.973316 4.96547 0.1431041 -0.9999592 -0.003837966 -0.008179024 255 255 0 255 0.8436044 0.004835573
-1.481497 4.966392 0.5098884 -0.9999592 -0.003837965 -0.008178698 255 255 0 255 0.3102033 0.6783427
-1.478494 4.96547 0.1431041 -0.9999592 -0.003837965 -0.008178698 255 255 0 255 0.3102033 0.7516856
3 0 1 2 
3 0 2 3 
3 4 5 6 
3 4 6 7 
3 8 9 10 
3 8 10 11 
3 12 13 14 
3 12 14 15 
3 16 17 18 
3 16 18 19 
3 20 21 1 
3 20 1 0 
3 22 23 7 
3 22 7 6 
3 24 25 15 
3 24 15 14 
3 26 27 19 
3 26 19 18 
3 28 29 30 
3 28 30 31 
3 32 33 34 
3 32 34 35 
3 36 37 38 
3 36 38 39 
3 40 41 42 
3 40 42 43 
3 44 45 46 
3 44 46 47 
3 48 49 50 
3 48 50 51 
3 52 53 54 
3 52 54 55 
3 53 52 56 
3 53 56 57 
3 45 44 49 
3 45 49 48 
3 57 56 58 
3 57 58 59 
3 60 61 62 
3 60 62 63 
3 64 65 66 
3 64 66 67 
3 68 69 70 
3 68 70 71 
3 61 60 72 
3 61 72 73 
3 73 72 69 
3 73 69 68 
3 65 64 74 
3 65 74 75 
3 75 74 71 
3 75 71 70 
3 76 77 78 
3 76 78 79 
3 76 79 80 
3 76 80 81 
3 76 81 82 
3 76 82 83 
3 84 85 86 
3 84 86 87 
3 88 89 90 
3 88 90 91 
3 92 93 94 
3 92 94 95 
3 85 84 96 
3 85 96 97 
3 97 96 93 
3 97 93 92 
3 89 88 98 
3 89 98 99 
3 99 98 95 
3 99 95 94 
3 100 101 102 
3 100 102 103 
3 100 103 104 
3 100 104 105 
3 100 105 106 
3 100 106 107 
3 108 109 110 
3 108 110 111 
3 112 113 114 
3 112 114 115 
3 116 117 118 
3 116 118 119 
3 109 108 120 
3 109 120 121 
3 121 120 117 
3 121 117 116 
3 113 112 122 
3 113 122 123 
3 123 122 119 
3 123 119 118 
3 124 125 126 
3 124 126 127 
3 124 127 128 
3 124 128 129 
3 124 129 130 
3 124 130 131 
3 132 133 134 
3 132 134 135 
3 136 137 138 
3 136 138 139 
3 140 141 142 
3 140 142 143 
3 133 132 144 
3 133 144 145 
3 145 144 141 
3 145 141 140 
3 137 136 146 
3 137 146 147 
3 147 146 143 
3 147 143 142 
3 148 149 150 
3 148 150 151 
3 148 151 152 
3 148 152 153 
3 148 153 154 
3 148 154 155 
3 156 157 158 
3 156 158 159 
3 160 161 162 
3 160 162 163 
3 164 165 166 
3 164 166 167 
3 157 156 168 
3 157 168 169 
3 169 168 165 
3 169 165 164 
3 161 160 170 
3 161 170 171 
3 171 170 167 
3 171 167 166 
3 172 173 174 
3 172 174 175 
3 172 175 176 
3 172 176 177 
3 172 177 178 
3 172 178 179 
3 180 181 182 
3 180 182 183 
3 184 185 186 
3 184 186 187 
3 188 189 190 
3 188 190 191 
3 181 180 192 
3 181 192 193 
3 193 192 189 
3 193 189 188 
3 185 184 194 
3 185 194 195 
3 195 194 191 
3 195 191 190 
3 196 197 198 
3 196 198 199 
3 196 199 200 
3 196 200 201 
3 196 201 202 
3 196 202 203 
3 204 205 206 
3 204 206 207 
3 208 209 210 
3 208 210 211 
3 212 213 214 
3 212 214 215 
3 205 204 216 
3 205 216 217 
3 217 216 213 
3 217 213 212 
3 209 208 218 
3 209 218 219 
3 219 218 215 
3 219 215 214 
3 220 221 222 
3 220 222 223 
3 220 223 224 
3 220 224 225 
3 220 225 226 
3 220 226 227 
3 228 229 230 
3 228 230 231 
3 232 233 234 
3 232 234 235 
3 236 237 238 
3 236 238 239 
3 229 228 240 
3 229 240 241 
3 241 240 237 
3 241 237 236 
3 233 232 242 
3 233 242 243 
3 243 242 239 
3 243 239 238 
3 244 245 246 
3 244 246 247 
3 244 247 248 
3 244 248 249 
3 244 249 250 
3 244 250 251 
3 252 253 254 
3 252 254 255 
3 256 257 258 
3 256 258 259 
3 260 261 262 
3 260 262 263 
3 253 252 264 
3 253 264 265 
3 265 264 261 
3 265 261 260 
3 257 256 266 
3 257 266 267 
3 267 266 263 
3 267 263 262 
3 268 269 270 
3 268 270 271 
3 268 271 272 
3 268 272 273 
3 268 273 274 
3 268 274 275 
3 276 277 278 
3 276 278 279 
3 280 281 282 
3 280 282 283 
3 284 285 286 
3 284 286 287 
3 277 276 288 
3 277 288 289 
3 289 288 285 
3 289 285 284 
3 281 280 290 
3 281 290 291 
3 291 290 287 
3 291 287 286 
3 292 293 294 
3 292 294 295 
3 292 295 296 
3 292 296 297 
3 292 297 298 
3 292 298 299 
3 300 301 302 
3 300 302 303 
3 304 305 306 
3 304 306 307 
3 308 309 310 
3 308 310 311 
3 301 300 312 
3 301 312 313 
3 313 312 309 
3 313 309 308 
3 305 304 314 
3 305 314 315 
3 315 314 311 
3 315 311 310 
3 316 317 318 
3 316 318 319 
3 316 319 320 
3 316 320 321 
3 316 321 322 
3 316 322 323 
3 324 325 326 
3 324 326 327 
3 328 329 330 
3 328 330 331 
3 332 333 334 
3 332 334 335 
3 325 324 336 
3 325 336 337 
3 337 336 333 
3 337 333 332 
3 329 328 338 
3 329 338 339 
3 339 338 335 
3 339 335 334 
3 340 341 342 
3 340 342 343 
3 340 343 344 
3 340 344 345 
3 340 345 346 
3 340 346 347 
3 348 349 350 
3 348 350 351 
3 352 353 354 
3 352 354 355 
3 356 357 358 
3 356 358 359 
3 349 348 360 
3 349 360 361 
3 361 360 357 
3 361 357 356 
3 353 352 362 
3 353 362 363 
3 363 362 359 
3 363 359 358 
3 364 365 366 
3 364 366 367 
3 364 367 368 
3 364 368 369 
3 364 369 370 
3 364 370 371 
3 372 373 374 
3 372 374 375 
3 376 377 378 
3 376 378 379 
3 380 381 382 
3 380 382 383 
3 373 372 381 
3 373 381 380 
3 384 385 386 
3 384 386 387 
3 377 376 383 
3 377 383 382 
3 388 389 390 
3 388 390 391 
3 392 393 394 
3 392 394 395 
3 392 395 396 
3 392 396 397 
3 398 399 400 
3 398 400 401 
3 402 403 404 
3 402 404 405 
3 402 405 406 
3 402 406 407 
3 408 409 410 
3 408 410 411 
3 412 413 401 
3 412 401 400 
3 414 415 416 
3 414 416 417 
3 414 417 418 
3 414 418 419 
3 420 421 387 
3 420 387 386 
3 389 388 385 
3 389 385 384 
3 421 420 422 
3 421 422 423 
3 409 408 413 
3 409 413 412 
3 399 398 424 
3 399 424 425 
