ply
format ascii 1.0
comment VCGLIB generated
element vertex 4
property float x
property float y
property float z
property float nx
property float ny
property float nz
property uchar red
property uchar green
property uchar blue
property uchar alpha
property float texture_u
property float texture_v
element face 2
property list uchar int vertex_indices
end_header
-4.02 -5.017001 2.193001e-07 0 4.371139e-08 1 255 255 0 255 -4.452707 4.36914
4.02 -5.017001 2.193001e-07 0 4.371139e-08 1 255 255 0 255 -4.452707 -3.567827
4.02 5.017001 -2.193001e-07 0 4.371139e-08 1 255 255 0 255 5.452707 -3.567829
-4.02 5.017001 -2.193001e-07 0 4.371139e-08 1 255 255 0 255 5.452707 4.36914
3 0 1 2 
3 0 2 3 
