ply
format ascii 1.0
comment VCGLIB generated
element vertex 240
property float x
property float y
property float z
property float nx
property float ny
property float nz
property uchar red
property uchar green
property uchar blue
property uchar alpha
property float texture_u
property float texture_v
element face 212
property list uchar int vertex_indices
end_header
-0.8498978 -2.903199 0.7462743 -3.77962e-07 0.9238796 -0.3826835 255 255 0 255 0.9300578 0.36916
-0.8498978 -2.903199 0.777567 -3.77962e-07 0.9238796 0.3826835 255 255 0 255 0.9235146 0.36916
0.8986619 -2.903199 0.777567 -3.77962e-07 0.9238796 0.3826835 255 255 0 255 0.9235146 0.003546806
0.8986619 -2.903199 0.7462743 -3.77962e-07 0.9238796 -0.3826835 255 255 0 255 0.9300578 0.003546806
-0.8583053 -3.956297 0.7462744 -0.9336426 -0.1602013 -0.320386 255 255 0 255 0.983326 0.6795477
-0.8583053 -3.956297 0.7775671 -0.892067 -0.4041905 0.2021053 255 255 0 255 0.9920126 0.6795988
-0.8583056 -2.911607 0.777567 -0.9336426 0.1602008 0.320386 255 255 0 255 0.9919096 0.9237642
-0.8583056 -2.911607 0.7462743 -0.8920671 0.4041902 -0.2021053 255 255 0 255 0.9832228 0.9237133
-0.8498974 -3.956297 0.785975 -4.667708e-14 1.141098e-07 1 255 255 0 255 0.2933266 0.476885
0.8986623 -3.956296 0.785975 -4.667708e-14 1.141098e-07 1 255 255 0 255 0.2933267 0.003499725
0.8986619 -2.911607 0.7859749 -4.667708e-14 1.141098e-07 1 255 255 0 255 0.5761542 0.00349965
-0.8498978 -2.911607 0.7859749 -4.667708e-14 1.141098e-07 1 255 255 0 255 0.5761542 0.476885
0.9070697 -2.911607 0.7462743 0.9336426 0.1602012 -0.320386 255 255 0 255 0.983326 0.4203096
0.9070697 -2.911607 0.777567 0.892067 0.4041906 0.2021053 255 255 0 255 0.9920126 0.4203605
0.9070701 -3.956296 0.7775671 0.9336427 -0.1602007 0.320386 255 255 0 255 0.9919096 0.6645261
0.9070701 -3.956296 0.7462744 0.8920671 -0.4041903 -0.2021053 255 255 0 255 0.9832228 0.6644751
0.8986623 -3.964704 0.7462744 3.77962e-07 -0.9238796 -0.3826835 255 255 0 255 0.956362 0.3691601
0.8986623 -3.964704 0.7775671 3.77962e-07 -0.9238796 0.3826835 255 255 0 255 0.949819 0.3691602
-0.8498974 -3.964705 0.7775671 3.77962e-07 -0.9238796 0.3826835 255 255 0 255 0.9498191 0.003546857
-0.8498974 -3.964705 0.7462744 3.77962e-07 -0.9238796 -0.3826835 255 255 0 255 0.9563621 0.003546857
-0.7967147 -3.918045 0.7378666 0.9675359 -0.2527336 0 255 255 0 255 0.8869759 0.7083812
-0.7967147 -3.918045 0.6611761 0.8249727 -0.4962381 0.2704958 255 255 0 255 0.9084185 0.7048889
-0.7967151 -2.994099 0.661176 0.9238795 4.069022e-07 0.3826835 255 255 0 255 0.9091498 0.9611195
-0.7967151 -2.994099 0.7378665 1 3.870656e-07 0 255 255 0 255 0.8898188 0.9612613
0.8454795 -3.918045 0.6611761 -0.8878252 -0.2810015 0.3644238 255 255 0 255 0.9907498 0.2551194
0.8454795 -3.918045 0.7378666 -0.8628668 -0.5054315 0 255 255 0 255 0.9698499 0.2518908
0.8454792 -2.994098 0.7378665 -1 -3.870657e-07 0 255 255 0 255 0.9703517 0.00349965
0.8454792 -2.994098 0.661176 -0.9238796 -3.081904e-07 0.3826835 255 255 0 255 0.9909689 0.003541341
0.831064 -2.979683 0.7378665 -0.3826851 -0.9238788 0 255 255 0 255 0.9720669 0.4225691
-0.7822999 -2.979684 0.7378665 0.3826817 -0.9238803 0 255 255 0 255 0.9720669 0.8307543
-0.7822999 -2.979684 0.661176 0.3204016 -0.9336331 0.1602249 255 255 0 255 0.9501859 0.8273528
0.831064 -2.979683 0.661176 -0.2021333 -0.8920536 0.4042061 255 255 0 255 0.9509888 0.4257689
-0.7986715 -3.920002 0.6600299 0.0648358 -0.9976557 0.02189791 255 255 0 255 0.9027047 0.6872744
-0.7986715 -3.920002 0.7378666 0.08583625 -0.9963093 0 255 255 0 255 0.9361634 0.6873174
-0.8163466 -3.921525 0.7378666 -0.1945375 -0.9808951 0 255 255 0 255 0.9361535 0.6949432
-0.8163466 -3.921525 0.6429856 -0.3579713 -0.9312258 -0.06837419 255 255 0 255 0.8961827 0.6947755
-0.8054113 -2.935444 0.7378665 -0.3826807 0.9238806 0 255 255 0 255 0.8798603 0.4225595
0.8541754 -2.935443 0.7378665 0.3826804 0.9238808 0 255 255 0 255 0.8798603 0.8433167
0.8541754 -2.935443 0.6380647 0.3204001 0.9336337 -0.1602241 255 255 0 255 0.8512242 0.8388361
-0.8054113 -2.935444 0.6380647 -0.2021313 0.8920552 -0.4042035 255 255 0 255 0.8522968 0.4267749
0.8541757 -3.918045 0.6236497 5.306553e-14 -1.231264e-07 -1 255 255 0 255 0.00349965 0.4838844
-0.8054109 -3.918045 0.6236497 5.306553e-14 -1.231264e-07 -1 255 255 0 255 0.4527974 0.4838844
-0.8054113 -2.949859 0.6236495 5.306553e-14 -1.231264e-07 -1 255 255 0 255 0.4527974 0.7460003
0.8541754 -2.949858 0.6236495 5.306553e-14 -1.231264e-07 -1 255 255 0 255 0.00349965 0.7460003
-0.7822996 -3.918045 0.646761 9.330454e-08 -0.2527247 0.9675382 255 255 0 255 0.8299063 0.4194354
0.8310644 -3.918045 0.646761 1.866091e-07 -0.5054495 0.8628563 255 255 0 255 0.8299544 0.8503065
0.831064 -2.994098 0.6467609 -4.766627e-14 1.290219e-07 1 255 255 0 255 0.5832017 0.850334
-0.7822999 -2.994099 0.6467609 -4.766627e-14 1.290219e-07 1 255 255 0 255 0.5831536 0.4194629
-0.8198261 -3.918045 0.7378666 -1 -3.693791e-07 0 255 255 0 255 0.5831536 0.857546
-0.8198265 -2.949859 0.7378665 -1 -3.693791e-07 0 255 255 0 255 0.8452703 0.8575463
-0.8198265 -2.949859 0.6380647 -0.9675381 -3.884587e-07 -0.2527254 255 255 0 255 0.8452703 0.8845656
-0.8198261 -3.918045 0.6380648 -0.8628555 -3.808614e-07 -0.5054507 255 255 0 255 0.5831536 0.8845655
0.8474364 -3.920002 0.7378666 -0.0858229 -0.9963104 0 255 255 0 255 0.9365535 0.426144
0.8474364 -3.920002 0.6600299 -0.06482569 -0.9976564 0.0218945 255 255 0 255 0.9027792 0.4261441
0.8651114 -3.921524 0.6429856 0.1432121 -0.9885278 -0.047991 255 255 0 255 0.8962223 0.4185708
0.8651114 -3.921524 0.7378666 0.4826394 -0.8758192 0 255 255 0 255 0.9365535 0.4184462
0.8322107 -3.920002 0.6448042 -0.02189427 -0.9976562 0.06482923 255 255 0 255 0.8951443 0.4316477
-0.7834458 -3.920002 0.6448042 0.02189805 -0.9976559 0.06483264 255 255 0 255 0.8951834 0.6817619
-0.8004901 -3.921525 0.6271292 -0.09567469 -0.979487 -0.1773459 255 255 0 255 0.889774 0.6877779
0.849255 -3.921524 0.6271292 0.1208942 -0.9250029 -0.3602141 255 255 0 255 0.8897858 0.425642
0.8986619 -2.911607 0.7378665 0.7071068 7.084577e-05 -0.7071068 255 255 0 255 0.9790666 0.4195766
0.8986619 -2.903199 0.7462743 0.7071068 0.7071068 -3.534405e-05 255 255 0 255 0.9825115 0.4164636
0.8986619 -2.903199 0.777567 0.7071068 0.7071068 7.068457e-05 255 255 0 255 0.992772 0.4162984
0.8986619 -2.911607 0.7859749 0.7071068 3.566678e-05 0.7071068 255 255 0 255 0.9961691 0.419528
0.8986623 -3.956296 0.7378666 0.7071068 -3.518283e-05 -0.7071068 255 255 0 255 0.9790662 0.6653076
0.8986623 -3.964704 0.7462744 0.7071068 -0.7071068 -7.068457e-05 255 255 0 255 0.9824637 0.6685373
0.8986623 -3.956296 0.785975 0.7071068 -7.036185e-05 0.7071068 255 255 0 255 0.9961691 0.6652591
0.8986623 -3.964704 0.7775671 0.7071068 -0.7071068 3.534405e-05 255 255 0 255 0.9927242 0.6683722
-0.8498978 -2.911607 0.7378665 -0.7071068 3.502132e-05 -0.7071068 255 255 0 255 0.9790662 0.9245458
-0.8498978 -2.903199 0.7462743 -0.7071068 0.7071068 -7.068457e-05 255 255 0 255 0.9824635 0.9277754
-0.8498978 -2.911607 0.7859749 -0.7071068 7.052335e-05 0.7071068 255 255 0 255 0.9961691 0.9244971
-0.8498978 -2.903199 0.777567 -0.7071068 0.7071068 3.534405e-05 255 255 0 255 0.9927242 0.9276102
-0.8498974 -3.956297 0.7378666 -0.7071068 -7.100728e-05 -0.7071068 255 255 0 255 0.9790665 0.6788149
-0.8498974 -3.964705 0.7462744 -0.7071068 -0.7071068 -3.534405e-05 255 255 0 255 0.9825115 0.6757019
-0.8498974 -3.956297 0.785975 -0.7071068 -3.550527e-05 0.7071068 255 255 0 255 0.9961691 0.6787662
-0.8498974 -3.964705 0.7775671 -0.7071068 -0.7071068 7.068457e-05 255 255 0 255 0.9927719 0.6755366
-0.8498974 -3.956297 0.7378666 2.893284e-07 -0.7071068 -0.7071068 255 255 0 255 0.962743 0.00349965
0.8986623 -3.956296 0.7378666 2.893284e-07 -0.7071068 -0.7071068 255 255 0 255 0.962743 0.369113
0.8986623 -3.956296 0.785975 2.893284e-07 -0.7071068 0.7071068 255 255 0 255 0.943438 0.3692074
-0.8498974 -3.956297 0.785975 2.893284e-07 -0.7071068 0.7071068 255 255 0 255 0.943438 0.003594125
0.8986619 -2.911607 0.7378665 -2.893284e-07 0.7071068 -0.7071068 255 255 0 255 0.9364387 0.00349965
-0.8498978 -2.911607 0.7378665 -2.893284e-07 0.7071068 -0.7071068 255 255 0 255 0.9364387 0.3691128
-0.8498978 -2.911607 0.7859749 -2.893284e-07 0.7071068 0.7071068 255 255 0 255 0.9171336 0.3692073
0.8986619 -2.911607 0.7859749 -2.893284e-07 0.7071068 0.7071068 255 255 0 255 0.9171336 0.003594078
0.8986623 -3.956296 0.7378666 4.667708e-14 -1.141098e-07 -1 255 255 0 255 0.00349965 0.4768851
-0.8498974 -3.956297 0.7378666 4.667708e-14 -1.141098e-07 -1 255 255 0 255 0.003499795 0.003499686
-0.8498978 -2.911607 0.7378665 4.667708e-14 -1.141098e-07 -1 255 255 0 255 0.2863273 0.00349965
0.8986619 -2.911607 0.7378665 4.667708e-14 -1.141098e-07 -1 255 255 0 255 0.2863273 0.4768851
0.8310644 -3.918045 0.646761 -0.595502 -0.5392168 0.595502 255 255 0 255 0.9962437 0.25426
0.8322107 -3.920002 0.6448042 -0.4706533 -0.7463049 0.4706533 255 255 0 255 0.9965004 0.2549518
0.8474364 -3.920002 0.6600299 -0.610567 -0.7534437 0.2439887 255 255 0 255 0.990844 0.2559157
0.8685906 -2.949858 0.6380647 0.7071024 0.7071112 -0.0002077345 255 255 0 255 0.8493748 0.8450024
0.8541754 -2.949858 0.6236495 0.0001035773 0.7071097 -0.7071038 255 255 0 255 0.8444788 0.8397
-0.7822996 -3.918045 0.646761 0.6452828 -0.4089258 0.6452828 255 255 0 255 0.9140505 0.7057591
-0.7986715 -3.920002 0.6600299 0.5673065 -0.7571135 0.3239484 255 255 0 255 0.908511 0.704071
-0.7834458 -3.920002 0.6448042 0.4706214 -0.7463452 0.4706214 255 255 0 255 0.9143125 0.7050492
-0.8198265 -2.949859 0.6380647 -0.7071024 0.7071112 -0.0001038825 255 255 0 255 0.8503973 0.4207271
-0.8054113 -2.949859 0.6236495 -0.0002080384 0.7071097 -0.7071038 255 255 0 255 0.8452857 0.4259922
-0.8198261 -3.918045 0.6380648 -0.4891089 -0.8368484 -0.2458805 255 255 0 255 0.8938817 0.6968548
-0.8054109 -3.918045 0.6236497 -0.1229395 -0.7832744 -0.6093989 255 255 0 255 0.886926 0.6903019
0.868591 -3.918045 0.6380648 0.5514957 -0.8133678 -0.1851631 255 255 0 255 0.8938955 0.4164685
0.8541757 -3.918045 0.6236497 0.1851625 -0.8133675 -0.5514962 255 255 0 255 0.8868595 0.4231108
-0.7822999 -2.994099 0.6467609 0.0001041434 -0.7071068 0.7071068 255 255 0 255 0.9435528 0.8282303
-0.7967151 -2.994099 0.661176 0.7071038 -0.7071097 0.0002077337 255 255 0 255 0.9483853 0.8334708
0.831064 -2.994098 0.6467609 -0.0002074758 -0.7071068 0.7071068 255 255 0 255 0.9440971 0.4249934
0.8454792 -2.994098 0.661176 -0.7071097 -0.7071039 0.0001038838 255 255 0 255 0.9491083 0.4197818
0.8541757 -3.918045 0.6236497 0.7071053 1.740609e-07 -0.7071083 255 255 0 255 0.5560866 0.8646379
0.8541754 -2.949858 0.6236495 0.7071053 1.740609e-07 -0.7071083 255 255 0 255 0.2939699 0.8646387
0.8685906 -2.949858 0.6380647 0.8628555 2.564398e-07 -0.5054507 255 255 0 255 0.2939699 0.8591196
0.868591 -3.918045 0.6380648 0.9675381 3.262479e-07 -0.2527254 255 255 0 255 0.5560866 0.8591194
-0.8054113 -2.949859 0.6236495 -0.7071053 -3.481224e-07 -0.7071083 255 255 0 255 0.8452703 0.890084
-0.8054109 -3.918045 0.6236497 -0.7071053 -3.481224e-07 -0.7071083 255 255 0 255 0.5831536 0.8900846
0.8685906 -2.949858 0.7378665 0.7071024 0.7071112 0 255 255 0 255 0.8789697 0.8493619
-0.8198265 -2.949859 0.7378665 -0.7071024 0.7071112 0 255 255 0 255 0.8790027 0.4162984
-0.8198261 -3.918045 0.7378666 -0.7071007 -0.7071128 0 255 255 0 255 0.9361448 0.6970717
0.868591 -3.918045 0.7378666 0.7071007 -0.7071128 0 255 255 0 255 0.936547 0.4162984
-0.7834458 -3.920002 0.6448042 2.610599e-07 -0.7071068 0.7071068 255 255 0 255 0.8374796 0.4162984
0.8322107 -3.920002 0.6448042 2.610599e-07 -0.7071068 0.7071068 255 255 0 255 0.8374796 0.8505467
-0.7986715 -3.920002 0.7378666 0.7070852 -0.7071283 0 255 255 0 255 0.8868595 0.7076756
0.8474364 -3.920002 0.7378666 -0.7071283 -0.7070853 0 255 255 0 255 0.9697424 0.2525785
-0.7967151 -2.994099 0.7378665 0.7071038 -0.7071097 0 255 255 0 255 0.9711784 0.8368131
0.8454792 -2.994098 0.7378665 -0.7071097 -0.7071039 0 255 255 0 255 0.9712159 0.4162984
-0.7822999 -2.994099 0.6467609 0.7071068 3.647917e-07 0.7071068 255 255 0 255 0.9143125 0.961109
0.831064 -2.994098 0.6467609 -0.7071068 -1.823959e-07 0.7071068 255 255 0 255 0.9965004 0.003546949
0.8685906 -2.949858 0.7378665 1 3.693792e-07 0 255 255 0 255 0.2939699 0.8321001
0.868591 -3.918045 0.7378666 1 3.693792e-07 0 255 255 0 255 0.5560865 0.8321001
0.7112328 -3.020638 -0.003810972 -0.2527263 0.9675378 -3.675098e-07 255 255 0 255 0.07280134 0.7530236
0.7112328 -3.020637 0.6236496 -0.5054526 0.8628544 -3.276036e-07 255 255 0 255 0.07280122 0.9200842
0.7906945 -3.020637 0.6236496 0.2527263 0.9675378 -3.676395e-07 255 255 0 255 0.05164457 0.9200842
0.7906945 -3.020638 -0.003810972 0.5054526 0.8628544 -3.278631e-07 255 255 0 255 0.05164463 0.7530236
-0.6568229 -3.105745 -0.003811025 0.9238787 -0.3826855 7.270599e-08 255 255 0 255 0.2001628 0.9200724
-0.656823 -3.026284 -0.003810971 0.9238784 0.3826862 -2.181175e-07 255 255 0 255 0.1790062 0.9200723
-0.656823 -3.026284 0.6236496 0.9238784 0.3826862 -2.181175e-07 255 255 0 255 0.1790062 0.7530115
-0.6568229 -3.105745 0.6236497 0.9238787 -0.3826855 7.270599e-08 255 255 0 255 0.2001628 0.7530116
0.7963402 -3.026283 -0.003810971 0.9675385 0.2527237 -9.602889e-08 255 255 0 255 0.04872879 0.7530355
0.7963402 -3.026283 0.6236496 0.862858 0.5054465 -1.920575e-07 255 255 0 255 0.04872873 0.9200962
0.7963403 -3.105745 0.6236497 0.9675388 -0.2527227 9.602849e-08 255 255 0 255 0.02757214 0.9200962
0.7963403 -3.105745 -0.003811025 0.8628582 -0.5054461 1.920573e-07 255 255 0 255 0.0275722 0.7530354
0.7906946 -3.111391 -0.003811024 0.2527263 -0.9675378 3.676395e-07 255 255 0 255 0.0246563 0.7530473
0.7906946 -3.11139 0.6236497 0.5054526 -0.8628544 3.27863e-07 255 255 0 255 0.0246563 0.9201081
0.7112328 -3.11139 0.6236497 0 -1 3.799738e-07 255 255 0 255 0.00349965 0.9201081
0.7112328 -3.111391 -0.003811024 0 -1 3.799738e-07 255 255 0 255 0.003499766 0.7530473
-0.6624687 -3.020638 -0.003810972 0.382681 0.9238806 -6.293973e-07 255 255 0 255 0.1760903 0.9200842
-0.7419304 -3.020638 -0.003810972 -0.3826859 0.9238786 -7.019044e-07 255 255 0 255 0.1549337 0.9200842
-0.7419304 -3.020638 0.6236496 -0.3826859 0.9238786 -7.019044e-07 255 255 0 255 0.1549338 0.7530234
-0.6624687 -3.020638 0.6236496 0.382681 0.9238806 -6.293972e-07 255 255 0 255 0.1760905 0.7530234
0.7055874 -3.762158 -0.003810975 -0.9238807 0.3826807 0 255 255 0 255 0.4809534 0.6509929
0.7055874 -3.84162 -0.00381091 -1 -7.501065e-07 0 255 255 0 255 0.4597968 0.6509929
0.7055874 -3.84162 0.6236497 -1 -7.501065e-07 0 255 255 0 255 0.4597968 0.4839321
0.7055874 -3.762158 0.6236497 -0.9238807 0.3826806 0 255 255 0 255 0.4809533 0.4839321
-0.7475761 -3.026284 -0.003810971 -0.9238807 0.3826807 -2.906224e-07 255 255 0 255 0.1520178 0.9200962
-0.7475761 -3.105746 -0.003811025 -0.9238784 -0.3826862 7.270551e-08 255 255 0 255 0.1308613 0.9200962
-0.7475761 -3.105745 0.6236497 -0.9238784 -0.3826862 7.270551e-08 255 255 0 255 0.1308613 0.7530353
-0.7475761 -3.026284 0.6236496 -0.9238807 0.3826806 -2.906224e-07 255 255 0 255 0.1520179 0.7530353
-0.7419304 -3.111391 -0.003811024 -0.3826803 -0.9238808 1.755252e-07 255 255 0 255 0.1279454 0.9201081
-0.6624686 -3.111391 -0.003811024 1.50021e-06 -1 1.899869e-07 255 255 0 255 0.1067888 0.9201081
-0.6624686 -3.111391 0.6236497 1.50021e-06 -1 1.899869e-07 255 255 0 255 0.1067889 0.7530472
-0.7419304 -3.111391 0.6236497 -0.3826803 -0.9238809 1.755252e-07 255 255 0 255 0.1279454 0.7530472
0.7112331 -3.847265 -0.003810909 -0.382681 -0.9238806 -2.78346e-07 255 255 0 255 0.5531708 0.6509571
0.7906949 -3.847265 -0.003810909 0.3826859 -0.9238786 -3.508539e-07 255 255 0 255 0.5320141 0.6509571
0.7906949 -3.847266 0.6236497 0.3826859 -0.9238786 -3.508539e-07 255 255 0 255 0.5320141 0.4838963
0.7112331 -3.847266 0.6236497 -0.382681 -0.9238806 -2.78346e-07 255 255 0 255 0.5531707 0.4838963
-0.6568227 -3.762159 -0.003810975 1 7.501054e-07 1.425102e-13 255 255 0 255 0.5560866 0.6579924
-0.6568227 -3.762159 0.6236497 1 7.501054e-07 1.425102e-13 255 255 0 255 0.5560866 0.8250532
-0.6568226 -3.841621 0.6236497 0.9675379 -0.2527258 -4.80151e-08 255 255 0 255 0.53493 0.8250532
-0.6568226 -3.84162 -0.00381091 0.8628545 -0.5054525 -9.603036e-08 255 255 0 255 0.5349302 0.6579923
0.7963406 -3.84162 -0.00381091 0.9238807 -0.3826807 -1.452129e-07 255 255 0 255 0.5290983 0.650969
0.7963405 -3.762158 -0.003810975 0.9238784 0.3826862 7.270543e-08 255 255 0 255 0.5079417 0.650969
0.7963405 -3.762158 0.6236497 0.9238784 0.3826862 7.270543e-08 255 255 0 255 0.5079415 0.4839083
0.7963406 -3.84162 0.6236497 0.9238807 -0.3826807 -1.452129e-07 255 255 0 255 0.5290983 0.4839081
0.7906948 -3.756513 -0.003810975 0.382681 0.9238806 7.270514e-08 255 255 0 255 0.5050259 0.6509809
0.7112331 -3.756513 -0.003810975 -0.3826859 0.9238786 0 255 255 0 255 0.4838692 0.650981
0.7112331 -3.756513 0.6236497 -0.3826859 0.9238786 0 255 255 0 255 0.4838691 0.4839201
0.7906948 -3.756513 0.6236497 0.382681 0.9238806 7.270513e-08 255 255 0 255 0.5050257 0.4839201
-0.6624683 -3.847266 -0.003810909 0.2527242 -0.9675384 -1.838201e-07 255 255 0 255 0.5320143 0.6580044
-0.6624683 -3.847266 0.6236497 0.5054467 -0.8628578 -1.639327e-07 255 255 0 255 0.5320142 0.8250651
-0.7419301 -3.847266 0.6236497 -0.2527253 -0.9675381 -2.318343e-07 255 255 0 255 0.5108575 0.8250651
-0.7419301 -3.847266 -0.003810909 -0.5054523 -0.8628546 -2.599605e-07 255 255 0 255 0.5108576 0.6580043
-0.7475758 -3.84162 -0.00381091 -0.9675385 -0.2527237 -9.602878e-08 255 255 0 255 0.5079418 0.6580162
-0.7475758 -3.841621 0.6236497 -0.862858 -0.5054465 -1.920574e-07 255 255 0 255 0.5079417 0.8250769
-0.7475758 -3.762159 0.6236497 -0.9675388 0.2527227 -1.018681e-13 255 255 0 255 0.4867851 0.8250769
-0.7475758 -3.762159 -0.003810975 -0.8628582 0.5054461 -5.093406e-14 255 255 0 255 0.4867851 0.6580161
-0.7419301 -3.756513 -0.003810975 -0.2527263 0.9675378 0 255 255 0 255 0.4838692 0.6580279
-0.7419301 -3.756513 0.6236497 -0.5054526 0.8628544 0 255 255 0 255 0.4838692 0.825089
-0.6624684 -3.756513 0.6236497 0.2527263 0.9675378 0 255 255 0 255 0.4627126 0.825089
-0.6624684 -3.756513 -0.003810975 0.5054526 0.8628544 0 255 255 0 255 0.4627127 0.6580279
-0.7157373 -3.035813 0.09103736 -4.83203e-07 1 -1.490613e-05 255 255 0 255 0.8813263 0.4050531
-0.7157373 -3.035813 0.107032 -0.4082499 0.4082536 0.8164932 255 255 0 255 0.8743939 0.4050071
0.7645014 -3.035812 0.107032 0.6666678 0.6666701 0.3333241 255 255 0 255 0.8743939 0.007791778
0.7645014 -3.035812 0.09103736 -4.83203e-07 1 -1.490613e-05 255 255 0 255 0.8813263 0.007837803
-0.715737 -3.565555 0.1070347 -0.6666682 -0.6666672 0.3333293 255 255 0 255 0.73224 0.405007
-0.715737 -3.565555 0.09104002 1.800804e-07 -0.4472158 -0.8944261 255 255 0 255 0.7253075 0.4049609
0.7645016 -3.565554 0.09104002 3.601575e-07 -0.894425 -0.4472181 255 255 0 255 0.7253076 0.007745724
0.7645016 -3.565554 0.1070347 0.4082501 -0.4082457 0.816497 255 255 0 255 0.73224 0.007791749
-0.7043778 -3.756513 0.06887969 -0.4472136 -4.689744e-06 -0.8944272 255 255 0 255 0.2692009 0.9276526
-0.704378 -3.111391 0.06887642 -0.8944272 -2.592788e-06 -0.4472136 255 255 0 255 0.2692012 0.7529997
-0.6697493 -3.111391 0.06887642 0 -5.058507e-06 -1 255 255 0 255 0.278576 0.7529997
-0.669749 -3.756513 0.06887969 0 -5.058507e-06 -1 255 255 0 255 0.278576 0.9276525
-0.6697493 -3.111391 0.09103773 0.7071068 3.838232e-06 0.7071068 255 255 0 255 0.2538262 0.7529997
-0.669749 -3.756513 0.09104099 0.7071068 3.838232e-06 0.7071068 255 255 0 255 0.2538264 0.9276525
-0.669749 -3.756513 0.06887969 1 3.695713e-07 -3.975969e-12 255 255 0 255 0.2478267 0.9276526
-0.6697493 -3.111391 0.06887642 1 3.695713e-07 -3.975969e-12 255 255 0 255 0.2478267 0.7529997
-0.7157373 -3.035813 0.09103736 2.445438e-12 -5.021043e-06 -1 255 255 0 255 0.5831536 0.4049608
0.7645014 -3.035812 0.09103736 2.445438e-12 -5.021043e-06 -1 255 255 0 255 0.5831537 0.007745666
0.7645016 -3.565554 0.09104002 1 4.500652e-07 0 255 255 0 255 0.7322401 0.00350023
0.7645014 -3.035812 0.09103736 1 4.500652e-07 0 255 255 0 255 0.8743939 0.00349965
-0.7043778 -3.756513 0.09104099 -0.7071068 3.315579e-06 0.7071068 255 255 0 255 0.2632013 0.9276525
-0.704378 -3.111391 0.09103773 -0.7071068 3.315579e-06 0.7071068 255 255 0 255 0.2632014 0.7529997
-0.7157373 -3.035813 0.09103736 -1 -4.500654e-07 3.354366e-12 255 255 0 255 0.8743939 0.4092991
-0.715737 -3.565555 0.09104002 -1 -4.500654e-07 3.354366e-12 255 255 0 255 0.73224 0.4092991
0.7531425 -3.756512 0.06887969 0.4472136 -4.359189e-06 -0.8944272 255 255 0 255 0.219453 0.9276525
0.7185137 -3.756512 0.06887969 0 -5.058507e-06 -1 255 255 0 255 0.210078 0.9276524
0.7185135 -3.11139 0.06887642 0 -5.058507e-06 -1 255 255 0 255 0.2100779 0.7529997
0.7531422 -3.11139 0.06887642 0.8944272 -1.931679e-06 -0.4472136 255 255 0 255 0.2194532 0.7529997
0.7185135 -3.11139 0.09103773 -0.7071068 3.315579e-06 0.7071068 255 255 0 255 0.2348277 0.7529997
0.7185135 -3.11139 0.06887642 -1 -3.695713e-07 0 255 255 0 255 0.2408274 0.7529997
0.7185137 -3.756512 0.06887969 -1 -3.695713e-07 0 255 255 0 255 0.2408274 0.9276525
0.7185137 -3.756512 0.09104099 -0.7071068 3.315579e-06 0.7071068 255 255 0 255 0.2348279 0.9276525
0.7531425 -3.756512 0.09104099 0.7071068 3.838232e-06 0.7071068 255 255 0 255 0.2254527 0.9276525
0.7531422 -3.11139 0.09103773 0.7071068 3.838232e-06 0.7071068 255 255 0 255 0.2254527 0.7529997
0.7055917 -3.076793 0.06887642 5.478275e-06 -0.4472136 -0.8944272 255 255 0 255 0.8946356 0.3650108
-0.6568231 -3.076793 0.06886831 2.973921e-06 -0.8944272 -0.4472136 255 255 0 255 0.8946359 0.003506842
-0.6568232 -3.042164 0.06886831 5.165231e-06 0.4472136 -0.8944272 255 255 0 255 0.9038243 0.003506842
0.7055916 -3.042164 0.06887642 2.347832e-06 0.8944272 -0.4472136 255 255 0 255 0.9038243 0.3650108
-0.6568233 -3.042164 0.09102961 -3.499941e-07 1 -9.413378e-13 255 255 0 255 0.9101343 0.00349965
0.7055915 -3.042164 0.09103772 -3.499941e-07 1 -9.413378e-13 255 255 0 255 0.9101343 0.3650035
0.7055916 -3.076793 0.09103772 3.499941e-07 -1 2.824014e-12 255 255 0 255 0.8883256 0.365018
-0.6568232 -3.076793 0.09102961 3.499941e-07 -1 2.824014e-12 255 255 0 255 0.8883259 0.003514065
0.7055871 -3.026283 -0.003810971 -0.8628582 0.5054461 -1.917978e-07 255 255 0 255 0.07571718 0.7530116
0.7055871 -3.026283 0.6236496 -0.9675388 0.2527227 -9.589874e-08 255 255 0 255 0.07571706 0.9200724
0.7112328 -3.111391 -0.003811024 -0.7071105 -0.7071031 2.68319e-07 255 255 0 255 0.09978949 0.7529997
0.7112328 -3.11139 0.6236497 -0.7071105 -0.7071031 2.68319e-07 255 255 0 255 0.09978949 0.9200605
0.7055871 -3.105745 0.6236497 -0.8628579 -0.5054465 1.917979e-07 255 255 0 255 0.09687364 0.9200724
0.7055871 -3.105745 -0.003811025 -0.9675385 -0.2527237 9.58991e-08 255 255 0 255 0.09687364 0.7530115
-0.6624686 -3.111391 0.6236497 0.7071031 -0.7071105 1.343431e-07 255 255 0 255 0.2030786 0.7529997
-0.6624686 -3.111391 -0.003811024 0.7071031 -0.7071105 1.343431e-07 255 255 0 255 0.2030786 0.9200605
0.7055874 -3.84162 0.6236497 -0.7071031 -0.7071105 -1.343432e-07 255 255 0 255 0.5560866 0.4838844
0.7055874 -3.84162 -0.00381091 -0.7071031 -0.7071105 -1.343432e-07 255 255 0 255 0.5560866 0.6509451
-0.6568227 -3.762159 0.6236497 0.7071105 0.707103 0 255 255 0 255 0.4597968 0.8251008
-0.6568227 -3.762159 -0.003810975 0.7071105 0.707103 0 255 255 0 255 0.4597968 0.65804
3 0 1 2 
3 0 2 3 
3 4 5 6 
3 4 6 7 
3 8 9 10 
3 8 10 11 
3 12 13 14 
3 12 14 15 
3 16 17 18 
3 16 18 19 
3 20 21 22 
3 20 22 23 
3 24 25 26 
3 24 26 27 
3 28 29 30 
3 28 30 31 
3 32 33 34 
3 32 34 35 
3 36 37 38 
3 36 38 39 
3 40 41 42 
3 40 42 43 
3 44 45 46 
3 44 46 47 
3 48 49 50 
3 48 50 51 
3 52 53 54 
3 52 54 55 
3 56 57 58 
3 56 58 59 
3 60 61 12 
3 62 63 13 
3 64 15 65 
3 66 67 14 
3 68 7 69 
3 70 71 6 
3 72 73 4 
3 74 5 75 
3 64 60 12 
3 64 12 15 
3 61 62 13 
3 61 13 12 
3 63 66 14 
3 63 14 13 
3 67 65 15 
3 67 15 14 
3 76 77 16 
3 76 16 19 
3 78 79 18 
3 78 18 17 
3 5 4 73 
3 5 73 75 
3 68 72 4 
3 68 4 7 
3 74 70 6 
3 74 6 5 
3 71 69 7 
3 71 7 6 
3 80 81 0 
3 80 0 3 
3 82 83 2 
3 82 2 1 
3 84 85 86 
3 84 86 87 
3 88 89 90 
3 88 90 24 
3 91 92 38 
3 93 21 94 
3 93 94 95 
3 96 39 97 
3 58 35 98 
3 58 98 99 
3 100 54 59 
3 100 59 101 
3 102 30 103 
3 104 105 31 
3 106 107 108 
3 106 108 109 
3 99 101 59 
3 99 59 58 
3 110 111 51 
3 110 51 50 
3 92 97 39 
3 92 39 38 
3 112 91 38 
3 112 38 37 
3 96 113 36 
3 96 36 39 
3 114 98 35 
3 114 35 34 
3 100 115 55 
3 100 55 54 
3 116 117 45 
3 116 45 44 
3 118 94 21 
3 118 21 20 
3 90 119 25 
3 90 25 24 
3 54 53 56 
3 54 56 59 
3 32 35 58 
3 32 58 57 
3 102 104 31 
3 102 31 30 
3 120 103 30 
3 120 30 29 
3 105 121 28 
3 105 28 31 
3 93 122 22 
3 93 22 21 
3 123 88 24 
3 123 24 27 
3 124 125 109 
3 124 109 108 
3 126 127 128 
3 126 128 129 
3 130 131 132 
3 130 132 133 
3 134 135 136 
3 134 136 137 
3 138 139 140 
3 138 140 141 
3 142 143 144 
3 142 144 145 
3 146 147 148 
3 146 148 149 
3 150 151 152 
3 150 152 153 
3 154 155 156 
3 154 156 157 
3 158 159 160 
3 158 160 161 
3 162 163 164 
3 162 164 165 
3 166 167 168 
3 166 168 169 
3 170 171 172 
3 170 172 173 
3 174 175 176 
3 174 176 177 
3 178 179 180 
3 178 180 181 
3 182 183 184 
3 182 184 185 
3 186 187 188 
3 186 188 189 
3 190 191 192 
3 190 192 193 
3 194 195 196 
3 194 196 197 
3 198 199 200 
3 198 200 201 
3 191 202 203 
3 191 203 192 
3 204 205 188 
3 204 188 193 
3 187 190 193 
3 187 193 188 
3 206 207 195 
3 206 195 194 
3 206 199 198 
3 206 198 207 
3 190 187 208 
3 190 208 209 
3 210 211 212 
3 210 212 213 
3 214 215 216 
3 214 216 217 
3 218 210 213 
3 218 213 219 
3 218 219 214 
3 218 214 217 
3 220 221 222 
3 220 222 223 
3 224 225 223 
3 224 223 222 
3 226 227 221 
3 226 221 220 
3 127 126 228 
3 127 228 229 
3 135 134 129 
3 135 129 128 
3 139 138 137 
3 139 137 136 
3 230 231 232 
3 230 232 233 
3 132 131 142 
3 132 142 145 
3 144 143 150 
3 144 150 153 
3 152 151 154 
3 152 154 157 
3 130 133 234 
3 130 234 235 
3 236 237 158 
3 236 158 161 
3 160 159 166 
3 160 166 169 
3 168 167 170 
3 168 170 173 
3 146 149 172 
3 146 172 171 
3 175 174 165 
3 175 165 164 
3 179 178 177 
3 179 177 176 
3 183 182 181 
3 183 181 180 
3 185 184 238 
3 185 238 239 
3 233 232 229 
3 233 229 228 
