ply
format ascii 1.0
comment VCGLIB generated
element vertex 161
property float x
property float y
property float z
property float nx
property float ny
property float nz
property uchar red
property uchar green
property uchar blue
property uchar alpha
property float texture_u
property float texture_v
element face 120
property list uchar int vertex_indices
end_header
3.861001 4.858001 3.07 0 -0.2527247 -0.9675382 255 255 0 255 0.8990554 3.109927
-3.861001 4.858001 3.07 0 -0.5054495 -0.8628563 255 255 0 255 0.899039 -3.926912
-4.02 5.017001 3.07 0 0 -1 255 255 0 255 1.04393 -4.071803
4.02 5.017001 3.07 0 0 -1 255 255 0 255 1.04393 3.254798
-3.861001 -4.858001 3.07 0 0.2527247 -0.9675382 255 255 0 255 0.4281907 3.109925
3.861001 -4.858001 3.07 0 0.5054495 -0.8628563 255 255 0 255 0.4281735 -3.926912
4.02 -5.017001 3.07 0 0 -1 255 255 0 255 0.5730646 -4.071803
-4.02 -5.017001 3.07 0 0 -1 255 255 0 255 0.5730649 3.254797
3.861001 -4.858001 3.07 -0.2527736 0.0002413764 -0.9675254 255 255 0 255 -0.04269326 4.926912
3.861001 4.858001 3.07 -0.5053133 -0.0002414691 -0.862936 255 255 0 255 -0.04269199 -3.926912
4.02 5.017001 3.07 7.240626e-14 -4.82873e-08 -1 255 255 0 255 0.1021989 -4.071803
4.02 -5.017001 3.07 7.240626e-14 -4.82873e-08 -1 255 255 0 255 0.1021993 5.071803
-3.835001 4.806001 3.096 0.9336477 -0.1601886 -0.3203773 255 255 0 255 -0.5609527 4.879525
-3.835001 4.806001 3.4 0.8628563 -0.5054495 0 255 255 0 255 -0.837977 4.879525
-3.835001 -4.806001 3.4 0.9675382 0.2527247 0 255 255 0 255 -0.8379598 -3.879528
-3.835001 -4.806001 3.096 0.8920739 0.4041824 -0.2020912 255 255 0 255 -0.5609491 -3.879527
-3.809 -4.832001 3.096 0 0.9238796 -0.3826835 255 255 0 255 0.3808074 3.062542
-3.809 -4.832001 3.4 0 1 0 255 255 0 255 0.1037805 3.062544
3.809 -4.832001 3.4 0 1 0 255 255 0 255 0.1037697 -3.879526
3.809 -4.832001 3.096 0 0.9238796 -0.3826835 255 255 0 255 0.3807882 -3.879526
3.835001 -4.806001 3.096 -0.9336477 0.1601886 -0.3203773 255 255 0 255 -0.09007931 4.879527
3.835001 -4.806001 3.4 -0.8628563 0.5054495 0 255 255 0 255 -0.3671036 4.879525
3.835001 4.806001 3.4 -0.9675382 -0.2527247 0 255 255 0 255 -0.3670871 -3.879528
3.835001 4.806001 3.096 -0.8920738 -0.4041825 -0.2020912 255 255 0 255 -0.0900766 -3.879527
3.809 4.832001 3.096 0 -0.9238796 -0.3826835 255 255 0 255 0.8516721 3.062544
3.809 4.832001 3.4 0 -1 0 255 255 0 255 0.5746455 3.062544
-3.809 4.832001 3.4 0 -1 0 255 255 0 255 0.5746353 -3.879525
-3.809 4.832001 3.096 0 -0.9238796 -0.3826835 255 255 0 255 0.8516537 -3.879526
-3.835001 -4.806001 3.096 0.3015113 0.3015113 -0.904534 255 255 0 255 -0.5372573 -3.879528
-3.809 -4.832001 3.096 0.3015113 0.3015113 -0.904534 255 255 0 255 -0.5372573 -3.90322
-3.861001 -4.858001 3.07 0.5053133 0.0002413847 -0.862936 255 255 0 255 -0.5135645 -3.926912
3.809 -4.832001 3.096 -0.3015113 0.3015113 -0.904534 255 255 0 255 -0.09007958 4.903219
3.835001 -4.806001 3.096 -0.3015113 0.3015113 -0.904534 255 255 0 255 -0.06638643 4.879526
-3.861001 4.858001 3.07 0.2527736 -0.0002414703 -0.9675254 255 255 0 255 -0.5135667 4.926911
-3.809 4.832001 3.096 0.3015113 -0.3015113 -0.904534 255 255 0 255 -0.5372598 4.903218
-3.835001 4.806001 3.096 0.3015113 -0.3015113 -0.904534 255 255 0 255 -0.5372598 4.879525
3.835001 4.806001 3.096 -0.3015113 -0.3015113 -0.904534 255 255 0 255 -0.06638487 -3.879528
3.809 4.832001 3.096 -0.3015113 -0.3015113 -0.904534 255 255 0 255 -0.06638487 -3.90322
3.809 4.832001 3.4 -0.7071068 -0.7071068 0 255 255 0 255 -0.3670871 -3.90322
3.809 4.832001 3.096 -0.7071068 -0.7071068 0 255 255 0 255 -0.09007659 -3.90322
3.809 -4.832001 3.096 -0.7071068 0.7071068 0 255 255 0 255 -0.09007932 4.903219
3.809 -4.832001 3.4 -0.7071068 0.7071068 0 255 255 0 255 -0.3671036 4.903218
-3.809 -4.832001 3.4 0.7071068 0.7071068 0 255 255 0 255 -0.8379598 -3.90322
-3.809 -4.832001 3.096 0.7071068 0.7071068 0 255 255 0 255 -0.560949 -3.90322
-3.809 4.832001 3.096 0.7071068 -0.7071068 0 255 255 0 255 -0.5609527 4.903217
-3.809 4.832001 3.4 0.7071068 -0.7071068 0 255 255 0 255 -0.8379771 4.903218
-4.02 -5.017001 3.07 7.240626e-14 -4.82873e-08 -1 255 255 0 255 -0.3686739 -4.071803
-4.02 5.017001 3.07 7.240626e-14 -4.82873e-08 -1 255 255 0 255 -0.3686743 5.071803
3.707 4.502183 3.4 -0.2527227 -0.9675388 0 255 255 0 255 2.727431 -2.768318
3.707 4.502183 1.12517e-08 -0.5054453 -0.8628587 0 255 255 0 255 2.727429 3.768317
4.02 4.502183 1.12517e-08 0 -1 0 255 255 0 255 2.125674 3.768318
4.02 4.502183 3.4 0 -1 0 255 255 0 255 2.125669 -2.768319
-3.707 4.502183 1.12517e-08 0.2527227 -0.9675388 0 255 255 0 255 -0.1055107 3.768318
-3.707 4.502183 3.4 0.5054453 -0.8628587 0 255 255 0 255 -0.1055032 -2.768319
-4.02 4.502183 3.4 0 -1 0 255 255 0 255 0.4962519 -2.768318
-4.02 4.502183 1.12517e-08 0 -1 0 255 255 0 255 0.4962511 3.768319
-3.690001 -4.519183 4.055881e-07 0.9675388 0.2527227 0 255 255 0 255 1.165986 3.768318
-3.690001 -4.519183 3.400001 0.8628587 0.5054453 0 255 255 0 255 1.165987 -2.768319
-3.690001 -5.017001 3.400001 1 0 0 255 255 0 255 2.123063 -2.768318
-3.690001 -5.017001 4.273485e-07 1 0 0 255 255 0 255 2.123063 3.768319
3.690001 4.519183 1.05086e-08 -0.9675377 -0.2527268 0 255 255 0 255 2.792795 3.768317
3.690001 4.519183 3.4 -0.8628538 -0.5054536 0 255 255 0 255 2.792798 -2.768318
3.690001 5.017001 3.4 -1 0 0 255 255 0 255 3.749873 -2.768318
3.690001 5.017001 -1.12517e-08 -1 0 0 255 255 0 255 3.749872 3.768317
3.707 -4.502183 4.048451e-07 -0.2527268 0.9675377 0 255 255 0 255 -2.153004 -2.768319
3.707 -4.502183 3.400001 -0.5054536 0.8628538 0 255 255 0 255 -2.153002 3.768318
4.02 -4.502183 3.400001 0 1 0 255 255 0 255 -2.754757 3.768319
4.02 -4.502183 4.048451e-07 0 1 0 255 255 0 255 -2.754766 -2.768319
-3.707 -4.502183 3.400001 0.2527268 0.9675377 0 255 255 0 255 1.10062 -2.768319
-3.707 -4.502183 4.048451e-07 0.5054536 0.8628538 0 255 255 0 255 1.100619 3.768318
-4.02 -4.502183 4.048451e-07 0 1 0 255 255 0 255 0.4988641 3.768319
-4.02 -4.502183 3.400001 0 1 0 255 255 0 255 0.4988585 -2.768319
3.690001 -5.017001 4.273485e-07 -1 0 0 255 255 0 255 -1.13056 -2.768319
3.690001 -5.017001 3.400001 -1 0 0 255 255 0 255 -1.13056 3.768318
3.690001 -4.519183 3.400001 -0.9675388 0.2527227 0 255 255 0 255 -2.087636 3.768318
3.690001 -4.519183 4.055881e-07 -0.8628587 0.5054453 0 255 255 0 255 -2.087637 -2.768319
-3.690001 4.519183 1.05086e-08 0.8628538 -0.5054536 0 255 255 0 255 -0.1708775 3.768317
-3.690001 4.519183 3.4 0.9675377 -0.2527268 0 255 255 0 255 -0.1708694 -2.768319
-3.690001 5.017001 -1.12517e-08 1 0 0 255 255 0 255 -1.127954 3.768316
-3.690001 5.017001 3.4 1 0 0 255 255 0 255 -1.127944 -2.768319
3.705001 0.257409 3.085 0 0.9675385 -0.2527239 255 255 0 255 -0.701434 -1.351576
-3.705001 0.257409 3.085 0 0.8628573 -0.5054477 255 255 0 255 -0.7014333 2.351577
-4.02 0.257409 3.4 0 1 0 255 255 0 255 -0.8588545 2.508998
4.02 0.257409 3.4 0 1 0 255 255 0 255 -0.8588523 -1.508995
3.705001 -0.2574087 3.085 -0.2527236 -0.9675385 4.447923e-08 255 255 0 255 -0.1136136 0.6205484
3.705001 -0.2574088 1.12517e-08 -0.5054473 -0.8628575 3.968379e-08 255 255 0 255 1.428111 0.6205483
4.02 -0.2574088 1.12517e-08 -2.297789e-08 -1 4.595578e-08 255 255 0 255 1.428111 0.7779689
4.02 -0.2574087 3.4 -2.297789e-08 -1 4.595578e-08 255 255 0 255 -0.2710351 0.7779699
-3.705001 -0.2574088 1.12517e-08 0.2527236 -0.9675385 4.451916e-08 255 255 0 255 0.1586588 0.1901485
-3.705001 -0.2574087 3.085 0.5054473 -0.8628575 3.976364e-08 255 255 0 255 0.1586585 -1.351576
-4.02 -0.2574087 3.4 2.297788e-08 -1 4.595578e-08 255 255 0 255 0.3160796 -1.508997
-4.02 -0.2574088 1.12517e-08 2.297788e-08 -1 4.595578e-08 255 255 0 255 0.3160796 0.1901484
-3.705001 -0.2574087 3.085 0 -0.9675385 -0.2527235 255 255 0 255 -0.4291601 2.351577
3.705001 -0.2574087 3.085 0 -0.8628576 -0.5054471 255 255 0 255 -0.4291632 -1.351577
4.02 -0.2574087 3.4 0 -1 0 255 255 0 255 -0.271742 -1.508998
-4.02 -0.2574087 3.4 0 -1 0 255 255 0 255 -0.2717417 2.508994
-3.675 -0.2424087 3.07 0.1601887 -0.3203788 -0.9336472 255 255 0 255 -0.4441525 2.336584
-3.675 0.242409 3.07 0.4041826 0.2020919 -0.8920736 255 255 0 255 -0.6864408 2.336584
3.675 0.242409 3.07 -0.1601887 0.3203784 -0.9336473 255 255 0 255 -0.6864416 -1.336584
3.675 -0.2424087 3.07 -0.4041975 -0.2022603 -0.8920286 255 255 0 255 -0.4441557 -1.336584
-3.705001 0.257409 3.085 0.2527238 0.9675385 -4.447924e-08 255 255 0 255 -0.1136136 -1.351576
-3.705001 0.2574088 -1.12517e-08 0.5054476 0.8628573 -3.968378e-08 255 255 0 255 -0.1136129 0.1901486
-4.02 0.2574088 -1.12517e-08 -2.297789e-08 1 -4.595578e-08 255 255 0 255 -0.2710335 0.1901487
-4.02 0.257409 3.4 -2.297789e-08 1 -4.595578e-08 255 255 0 255 -0.2710351 -1.508998
3.690001 -0.2424088 1.059603e-08 -0.967538 -0.2527259 1.162946e-08 255 255 0 255 1.428111 0.6055558
3.690001 -0.2424087 3.055 -0.862855 -0.5054517 2.325892e-08 255 255 0 255 -0.09862097 0.6055557
3.690001 0.242409 3.055 -0.967538 0.2527257 -1.166939e-08 255 255 0 255 -0.09862117 0.3632686
3.690001 0.2424088 -1.059603e-08 -0.8628551 0.5054514 -2.333877e-08 255 255 0 255 1.428111 0.3632689
3.705001 0.2574088 -1.12517e-08 -0.2527238 0.9675385 -4.451917e-08 255 255 0 255 1.428111 0.3482764
3.705001 0.257409 3.085 -0.5054476 0.8628573 -3.976364e-08 255 255 0 255 -0.1136137 0.3482761
4.02 0.257409 3.4 2.297788e-08 1 -4.595578e-08 255 255 0 255 -0.2710343 0.1908554
4.02 0.2574088 -1.12517e-08 2.297788e-08 1 -4.595578e-08 255 255 0 255 1.428111 0.1908559
-3.690001 0.242409 3.055 0.7071066 0.0006747946 -0.7071066 255 255 0 255 -0.6864407 2.34408
-3.705001 0.257409 3.085 0.3015099 0.904535 -0.3015099 255 255 0 255 -0.693937 2.34408
-3.675 0.242409 3.07 0.3015099 0.904535 -0.3015099 255 255 0 255 -0.693937 2.336584
-3.690001 -0.2424087 3.055 0.3015094 -0.9045354 -0.3015094 255 255 0 255 -0.4441525 2.34408
-3.675 -0.2424087 3.07 0.3015094 -0.9045354 -0.3015094 255 255 0 255 -0.4366562 2.336584
-3.705001 -0.2574087 3.085 0.3015094 -0.9045354 -0.3015094 255 255 0 255 -0.4366562 2.34408
3.690001 -0.2424087 3.055 -0.7071066 -0.0006747946 -0.7071066 255 255 0 255 -0.4441557 -1.34408
3.705001 -0.2574087 3.085 -0.3015094 -0.9045354 -0.3015094 255 255 0 255 -0.4366595 -1.34408
3.690001 0.242409 3.055 -0.3015099 0.904535 -0.3015099 255 255 0 255 -0.6864415 -1.34408
3.675 0.242409 3.07 -0.3015099 0.904535 -0.3015099 255 255 0 255 -0.6939378 -1.336584
3.705001 0.257409 3.085 -0.3015099 0.904535 -0.3015099 255 255 0 255 -0.6939378 -1.34408
-3.690001 -0.2424087 3.055 0.7071068 0 -0.7071068 255 255 0 255 -0.4441525 2.34408
3.690001 0.242409 3.055 -0.7071068 0 -0.7071068 255 255 0 255 -0.6864416 -1.34408
-3.690001 -0.2424088 1.059603e-08 0.862855 -0.5054517 2.333878e-08 255 255 0 255 0.1436663 0.1901486
-3.690001 -0.2424087 3.055 0.967538 -0.2527259 1.166939e-08 255 255 0 255 0.143666 -1.336584
-3.690001 0.242409 3.055 0.8628551 0.5054514 -2.325891e-08 255 255 0 255 -0.09862101 -1.336584
-3.690001 0.2424088 -1.059603e-08 0.967538 0.2527257 -1.162946e-08 255 255 0 255 -0.09862044 0.1901486
4.02 -5.017001 3.01376 -1 0 0 255 255 0 255 3.75793 -8.659236
4.02 -5.017001 3.4 -1 0 0 255 255 0 255 4.177918 -8.659236
4.02 5.017001 3.4 -1 0 0 255 255 0 255 4.177918 2.251523
4.02 5.017001 3.01376 -1 0 0 255 255 0 255 3.75793 2.251523
-4.02 5.017001 3.01376 1 0 0 255 255 0 255 -8.268465 2.67828
-4.02 5.017001 3.4 1 0 0 255 255 0 255 -8.268465 2.25829
-4.02 -5.017001 3.4 1 0 0 255 255 0 255 2.642298 2.258291
-4.02 -5.017001 3.01376 1 0 0 255 255 0 255 2.642298 2.67828
4.02 5.017001 3.01376 0 -1 0 255 255 0 255 0.4740625 9.239244
4.02 5.017001 3.4 0 -1 0 255 255 0 255 0.4740625 9.659236
-4.02 5.017001 3.4 0 -1 0 255 255 0 255 -8.268465 9.659236
-4.02 5.017001 3.01376 0 -1 0 255 255 0 255 -8.268465 9.239247
-4.02 -5.017001 3.01376 0 1 0 255 255 0 255 9.223356 9.239247
-4.02 -5.017001 3.4 0 1 0 255 255 0 255 9.223356 9.659236
4.02 -5.017001 3.4 0 1 0 255 255 0 255 0.4808302 9.659236
4.02 -5.017001 3.01376 0 1 0 255 255 0 255 0.4808303 9.239247
-4.02 -5.017001 2.193001e-07 0 1 0 255 255 0 255 9.223356 5.96215
-4.02 -5.017001 0.9860003 0 1 0 255 255 0 255 9.223356 7.034304
4.02 -5.017001 0.9860003 0 1 0 255 255 0 255 0.480831 7.034304
4.02 -5.017001 2.193001e-07 0 1 0 255 255 0 255 0.4808313 5.962148
4.02 5.017001 -2.193001e-07 0 -1 0 255 255 0 255 0.4740625 5.962148
4.02 5.017001 0.9859998 0 -1 0 255 255 0 255 0.4740625 7.034304
-4.02 5.017001 0.9859998 0 -1 0 255 255 0 255 -8.268465 7.034304
-4.02 5.017001 -2.193001e-07 0 -1 0 255 255 0 255 -8.268465 5.962148
-4.02 5.017001 -2.193001e-07 1 0 0 255 255 0 255 -8.268465 5.95538
-4.02 5.017001 0.9859998 1 0 0 255 255 0 255 -8.268465 4.883224
-4.02 -5.017001 0.9860003 1 0 0 255 255 0 255 2.642298 4.883224
-4.02 -5.017001 2.193001e-07 1 0 0 255 255 0 255 2.642298 5.95538
4.02 -5.017001 2.193001e-07 -1 0 0 255 255 0 255 0.4808291 -8.659236
4.02 -5.017001 0.9860003 -1 0 0 255 255 0 255 1.552985 -8.659236
4.02 5.017001 0.9859998 -1 0 0 255 255 0 255 1.552986 2.251522
4.02 5.017001 -2.193001e-07 -1 0 0 255 255 0 255 0.4808302 2.251521
3 0 1 2 
3 0 2 3 
3 4 5 6 
3 4 6 7 
3 8 9 10 
3 8 10 11 
3 12 13 14 
3 12 14 15 
3 16 17 18 
3 16 18 19 
3 20 21 22 
3 20 22 23 
3 24 25 26 
3 24 26 27 
3 28 29 30 
3 31 32 8 
3 33 34 35 
3 36 37 9 
3 12 15 30 
3 12 30 33 
3 16 19 5 
3 16 5 4 
3 20 23 9 
3 20 9 8 
3 24 27 1 
3 24 1 0 
3 23 22 38 
3 23 38 39 
3 21 20 40 
3 21 40 41 
3 15 14 42 
3 15 42 43 
3 13 12 44 
3 13 44 45 
3 33 30 46 
3 33 46 47 
3 48 49 50 
3 48 50 51 
3 52 53 54 
3 52 54 55 
3 56 57 58 
3 56 58 59 
3 60 61 62 
3 60 62 63 
3 64 65 66 
3 64 66 67 
3 68 69 70 
3 68 70 71 
3 72 73 74 
3 72 74 75 
3 61 60 49 
3 61 49 48 
3 76 77 53 
3 76 53 52 
3 75 74 65 
3 75 65 64 
3 57 56 69 
3 57 69 68 
3 78 79 77 
3 78 77 76 
3 80 81 82 
3 80 82 83 
3 84 85 86 
3 84 86 87 
3 88 89 90 
3 88 90 91 
3 92 93 94 
3 92 94 95 
3 96 97 98 
3 96 98 99 
3 100 101 102 
3 100 102 103 
3 104 105 106 
3 104 106 107 
3 108 109 110 
3 108 110 111 
3 112 113 114 
3 115 116 117 
3 99 118 119 
3 120 121 122 
3 97 96 123 
3 97 123 112 
3 96 99 93 
3 96 93 92 
3 99 98 124 
3 99 124 118 
3 98 97 81 
3 98 81 80 
3 107 106 109 
3 107 109 108 
3 105 104 85 
3 105 85 84 
3 125 126 89 
3 125 89 88 
3 127 128 101 
3 127 101 100 
3 128 127 126 
3 128 126 125 
3 129 130 131 
3 129 131 132 
3 133 134 135 
3 133 135 136 
3 137 138 139 
3 137 139 140 
3 141 142 143 
3 141 143 144 
3 145 146 147 
3 145 147 148 
3 149 150 151 
3 149 151 152 
3 153 154 155 
3 153 155 156 
3 157 158 159 
3 157 159 160 
3 146 141 144 
3 146 144 147 
3 150 137 140 
3 150 140 151 
3 154 133 136 
3 154 136 155 
