ply
format ascii 1.0
comment VCGLIB generated
element vertex 399
property float x
property float y
property float z
property float nx
property float ny
property float nz
property uchar red
property uchar green
property uchar blue
property uchar alpha
property float texture_u
property float texture_v
element face 133
property list uchar int vertex_indices
end_header
12.0033 -56.5565 -14.5075 0.008532 -0.013386 -0.999874 192 192 192 255 12.0033 -56.5565
11.9841 -67.9481 -14.3551 0.008532 -0.013386 -0.999874 192 192 192 255 11.9841 -67.9481
-4.64313 -67.922 -14.4974 0.008532 -0.013386 -0.999874 192 192 192 255 -4.64313 -67.922
12.0033 -56.5565 -14.5075 0.008572999 -0.013446 -0.9998729 192 192 192 255 12.0033 -56.5565
-4.64313 -67.922 -14.4974 0.008572999 -0.013446 -0.9998729 192 192 192 255 -4.64313 -67.922
-4.62331 -56.5303 -14.6504 0.008572999 -0.013446 -0.9998729 192 192 192 255 -4.62331 -56.5303
9.61281 -64.3947 -14.0061 -0.008554004 0.01333701 0.9998745 192 192 192 255 9.61281 -64.3947
-2.71952 -59.1989 -14.1809 -0.008554004 0.01333701 0.9998745 192 192 192 255 -2.71952 -59.1989
-2.72792 -64.3753 -14.1119 -0.008554004 0.01333701 0.9998745 192 192 192 255 -2.72792 -64.3753
-2.71952 -59.1989 -14.1809 -0.008561997 0.013318 0.9998747 192 192 192 255 -2.71952 -59.1989
9.61281 -64.3947 -14.0061 -0.008561997 0.013318 0.9998747 192 192 192 255 9.61281 -64.3947
9.62125 -59.2183 -14.075 -0.008561997 0.013318 0.9998747 192 192 192 255 9.62125 -59.2183
-2.72792 -64.3753 -14.1119 -0.008758998 0.013338 0.9998727 192 192 192 255 -2.72792 -64.3753
-2.71952 -59.1989 -14.1809 -0.008758998 0.013338 0.9998727 192 192 192 255 -2.71952 -59.1989
-4.62724 -56.5245 -14.2333 -0.008758998 0.013338 0.9998727 192 192 192 255 -4.62724 -56.5245
-4.62724 -56.5245 -14.2333 -0.008647997 0.013417 0.9998726 192 192 192 255 -4.62724 -56.5245
-2.71952 -59.1989 -14.1809 -0.008647997 0.013417 0.9998726 192 192 192 255 -2.71952 -59.1989
-2.71777 -58.3437 -14.1924 -0.008647997 0.013417 0.9998726 192 192 192 255 -2.71777 -58.3437
-2.72792 -64.3753 -14.1119 -0.008561998 0.013385 0.9998738 192 192 192 255 -2.72792 -64.3753
-4.62724 -56.5245 -14.2333 -0.008561998 0.013385 0.9998738 192 192 192 255 -4.62724 -56.5245
-4.64636 -67.916 -14.081 -0.008561998 0.013385 0.9998738 192 192 192 255 -4.64636 -67.916
-2.72792 -64.3753 -14.1119 -0.009030002 0.013638 0.9998662 192 192 192 255 -2.72792 -64.3753
-4.64636 -67.916 -14.081 -0.009030002 0.013638 0.9998662 192 192 192 255 -4.64636 -67.916
-2.72951 -65.2305 -14.1003 -0.009030002 0.013638 0.9998662 192 192 192 255 -2.72951 -65.2305
9.62125 -59.2183 -14.075 -0.008826002 0.013319 0.9998724 192 192 192 255 9.62125 -59.2183
9.61281 -64.3947 -14.0061 -0.008826002 0.013319 0.9998724 192 192 192 255 9.61281 -64.3947
11.9803 -67.9423 -13.9379 -0.008826002 0.013319 0.9998724 192 192 192 255 11.9803 -67.9423
11.9803 -67.9423 -13.9379 -0.008513002 0.013528 0.9998723 192 192 192 255 11.9803 -67.9423
9.61281 -64.3947 -14.0061 -0.008513002 0.013528 0.9998723 192 192 192 255 9.61281 -64.3947
9.61111 -65.2499 -13.9945 -0.008513002 0.013528 0.9998723 192 192 192 255 9.61111 -65.2499
9.62125 -59.2183 -14.075 -0.008045001 0.01353 0.9998761 192 192 192 255 9.62125 -59.2183
11.9803 -67.9423 -13.9379 -0.008045001 0.01353 0.9998761 192 192 192 255 11.9803 -67.9423
9.62285 -58.3632 -14.0865 -0.008045001 0.01353 0.9998761 192 192 192 255 9.62285 -58.3632
9.62285 -58.3632 -14.0865 -0.008667 0.013377 0.999873 192 192 192 255 9.62285 -58.3632
11.9803 -67.9423 -13.9379 -0.008667 0.013377 0.999873 192 192 192 255 11.9803 -67.9423
11.9995 -56.5507 -14.0902 -0.008667 0.013377 0.999873 192 192 192 255 11.9995 -56.5507
-2.72951 -65.2305 -14.1003 0.016148 -0.004332001 0.9998602 192 192 192 255 -2.72951 -65.2305
-4.64636 -67.916 -14.081 0.016148 -0.004332001 0.9998602 192 192 192 255 -4.64636 -67.916
-3.68005 -66.5742 -14.0908 0.016148 -0.004332001 0.9998602 192 192 192 255 -3.68005 -66.5742
-2.72951 -65.2305 -14.1003 -0.002127999 0.03670699 0.9993238 192 192 192 255 -2.72951 -65.2305
11.9809 -67.9426 -13.9693 -0.002127999 0.03670699 0.9993238 192 192 192 255 11.9809 -67.9426
-2.70235 -65.2325 -14.1001 -0.002127999 0.03670699 0.9993238 192 192 192 255 -2.70235 -65.2325
-2.71777 -58.3437 -14.1924 0.04792003 0.07270703 0.9962015 192 192 192 255 -2.71777 -58.3437
-3.66441 -57.434 -14.2132 0.04792003 0.07270703 0.9962015 192 192 192 255 -3.66441 -57.434
-4.62724 -56.5245 -14.2333 0.04792003 0.07270703 0.9962015 192 192 192 255 -4.62724 -56.5245
9.62325 -58.3637 -14.1168 -0.006324001 -0.211525 0.9773521 192 192 192 255 9.62325 -58.3637
-2.69105 -58.3428 -14.192 -0.006324001 -0.211525 0.9773521 192 192 192 255 -2.69105 -58.3428
-2.71777 -58.3437 -14.1924 -0.006324001 -0.211525 0.9773521 192 192 192 255 -2.71777 -58.3437
9.62285 -58.3632 -14.0865 0.02206001 -0.02691601 0.9993943 192 192 192 255 9.62285 -58.3632
11.9995 -56.5507 -14.0902 0.02206001 -0.02691601 0.9993943 192 192 192 255 11.9995 -56.5507
10.8044 -57.457 -14.0882 0.02206001 -0.02691601 0.9993943 192 192 192 255 10.8044 -57.457
-2.71737 -58.3446 -14.2267 -0.013145 0.031796 0.999408 192 192 192 255 -2.71737 -58.3446
11.9995 -56.5507 -14.0902 -0.013145 0.031796 0.999408 192 192 192 255 11.9995 -56.5507
11.9682 -56.5517 -14.0906 -0.013145 0.031796 0.999408 192 192 192 255 11.9682 -56.5517
-2.72879 -65.2311 -14.1357 -0.02283299 -0.05105898 0.9984347 192 192 192 255 -2.72879 -65.2311
11.9494 -67.9391 -13.9385 -0.02283299 -0.05105898 0.9984347 192 192 192 255 11.9494 -67.9391
11.9803 -67.9423 -13.9379 -0.02283299 -0.05105898 0.9984347 192 192 192 255 11.9803 -67.9423
10.7891 -66.595 -13.9665 -0.03403599 -0.008940998 0.9993806 192 192 192 255 10.7891 -66.595
11.9803 -67.9423 -13.9379 -0.03403599 -0.008940998 0.9993806 192 192 192 255 11.9803 -67.9423
9.61111 -65.2499 -13.9945 -0.03403599 -0.008940998 0.9993806 192 192 192 255 9.61111 -65.2499
-2.72951 -65.2305 -14.1003 -0.008578996 0.01331699 0.9998745 192 192 192 255 -2.72951 -65.2305
-4.64636 -67.916 -14.081 -0.008578996 0.01331699 0.9998745 192 192 192 255 -4.64636 -67.916
11.9803 -67.9423 -13.9379 -0.008578996 0.01331699 0.9998745 192 192 192 255 11.9803 -67.9423
-2.72951 -65.2305 -14.1003 -0.008546003 0.013499 0.9998724 192 192 192 255 -2.72951 -65.2305
11.9803 -67.9423 -13.9379 -0.008546003 0.013499 0.9998724 192 192 192 255 11.9803 -67.9423
9.61111 -65.2499 -13.9945 -0.008546003 0.013499 0.9998724 192 192 192 255 9.61111 -65.2499
10.7952 -66.595 -13.9665 0.3887411 0.3599001 0.8481464 192 192 192 255 10.7952 -66.595
9.61111 -65.2499 -13.9945 0.3887411 0.3599001 0.8481464 192 192 192 255 9.61111 -65.2499
11.9803 -67.9423 -13.9379 0.3887411 0.3599001 0.8481464 192 192 192 255 11.9803 -67.9423
11.9803 -67.9423 -13.9379 -0.134691 -0.018754 0.9907102 192 192 192 255 11.9803 -67.9423
9.62135 -59.219 -14.0935 -0.134691 -0.018754 0.9907102 192 192 192 255 9.62135 -59.219
11.9757 -67.93 -13.9383 -0.134691 -0.018754 0.9907102 192 192 192 255 11.9757 -67.93
11.9803 -67.9423 -13.9379 -0.09534804 0.01562601 0.9953214 192 192 192 255 11.9803 -67.9423
12 -56.5503 -14.1149 -0.09534804 0.01562601 0.9953214 192 192 192 255 12 -56.5503
11.9782 -67.9208 -13.9385 -0.09534804 0.01562601 0.9953214 192 192 192 255 11.9782 -67.9208
9.62307 -58.3636 -14.1063 -0.9589549 -0.238682 -0.15309 192 192 192 255 9.62307 -58.3636
11.9758 -67.9239 -13.9384 -0.9589549 -0.238682 -0.15309 192 192 192 255 11.9758 -67.9239
11.9803 -67.9423 -13.9379 -0.9589549 -0.238682 -0.15309 192 192 192 255 11.9803 -67.9423
-4.62685 -56.5242 -14.2568 -0.2327641 0.015412 0.9724112 192 192 192 255 -4.62685 -56.5242
-4.64636 -67.916 -14.081 -0.2327641 0.015412 0.9724112 192 192 192 255 -4.64636 -67.916
-4.64473 -67.9008 -14.0808 -0.2327641 0.015412 0.9724112 192 192 192 255 -4.64473 -67.9008
-3.6877 -66.5723 -14.0903 0.5479611 -0.385768 0.7422411 192 192 192 255 -3.6877 -66.5723
-4.64636 -67.916 -14.081 0.5479611 -0.385768 0.7422411 192 192 192 255 -4.64636 -67.916
-2.72951 -65.2305 -14.1003 0.5479611 -0.385768 0.7422411 192 192 192 255 -2.72951 -65.2305
4.15565 -56.6682 -14.3585 -0.008587004 0.006124002 0.9999444 192 192 192 255 4.15565 -56.6682
-4.56165 -56.6545 -14.4334 -0.008587004 0.006124002 0.9999444 192 192 192 255 -4.56165 -56.6545
-4.56847 -61.0129 -14.4068 -0.008587004 0.006124002 0.9999444 192 192 192 255 -4.56847 -61.0129
4.15565 -56.6682 -14.3585 -0.008543002 0.006035002 0.9999453 192 192 192 255 4.15565 -56.6682
-4.56847 -61.0129 -14.4068 -0.008543002 0.006035002 0.9999453 192 192 192 255 -4.56847 -61.0129
0.797501 -60.0157 -14.367 -0.008543002 0.006035002 0.9999453 192 192 192 255 0.797501 -60.0157
0.797501 -60.0157 -14.367 -0.008624999 0.006477999 0.9999419 192 192 192 255 0.797501 -60.0157
-4.56847 -61.0129 -14.4068 -0.008624999 0.006477999 0.9999419 192 192 192 255 -4.56847 -61.0129
0.795762 -61.0214 -14.3605 -0.008624999 0.006477999 0.9999419 192 192 192 255 0.795762 -61.0214
4.15565 -56.6682 -14.3585 -0.008554002 0.006046001 0.9999452 192 192 192 255 4.15565 -56.6682
0.797501 -60.0157 -14.367 -0.008554002 0.006046001 0.9999452 192 192 192 255 0.797501 -60.0157
4.15064 -60.021 -14.3383 -0.008554002 0.006046001 0.9999452 192 192 192 255 4.15064 -60.021
4.15797 -56.6697 -14.6329 0.008575997 -0.006100998 -0.9999446 192 192 192 255 4.15797 -56.6697
-4.56613 -61.0144 -14.6812 0.008575997 -0.006100998 -0.9999446 192 192 192 255 -4.56613 -61.0144
-4.55925 -56.656 -14.7077 0.008575997 -0.006100998 -0.9999446 192 192 192 255 -4.55925 -56.656
-4.56613 -61.0144 -14.6812 0.008601001 -0.006152001 -0.9999441 192 192 192 255 -4.56613 -61.0144
4.15797 -56.6697 -14.6329 0.008601001 -0.006152001 -0.9999441 192 192 192 255 4.15797 -56.6697
0.799983 -60.0172 -14.6412 0.008601001 -0.006152001 -0.9999441 192 192 192 255 0.799983 -60.0172
-4.56613 -61.0144 -14.6812 0.008626001 -0.006285001 -0.9999431 192 192 192 255 -4.56613 -61.0144
0.799983 -60.0172 -14.6412 0.008626001 -0.006285001 -0.9999431 192 192 192 255 0.799983 -60.0172
0.798167 -61.0229 -14.6349 0.008626001 -0.006285001 -0.9999431 192 192 192 255 0.798167 -61.0229
0.799983 -60.0172 -14.6412 0.008496997 -0.006046998 -0.9999456 192 192 192 255 0.799983 -60.0172
4.15797 -56.6697 -14.6329 0.008496997 -0.006046998 -0.9999456 192 192 192 255 4.15797 -56.6697
4.15297 -60.0225 -14.6126 0.008496997 -0.006046998 -0.9999456 192 192 192 255 4.15297 -60.0225
-2.71777 -58.3437 -14.1924 -0.008585002 0.013483 0.9998723 192 192 192 255 -2.71777 -58.3437
11.9995 -56.5507 -14.0902 -0.008585002 0.013483 0.9998723 192 192 192 255 11.9995 -56.5507
-4.62724 -56.5245 -14.2333 -0.008585002 0.013483 0.9998723 192 192 192 255 -4.62724 -56.5245
11.9995 -56.5507 -14.0902 -0.008553999 0.013229 0.9998759 192 192 192 255 11.9995 -56.5507
-2.71777 -58.3437 -14.1924 -0.008553999 0.013229 0.9998759 192 192 192 255 -2.71777 -58.3437
9.62285 -58.3632 -14.0865 -0.008553999 0.013229 0.9998759 192 192 192 255 9.62285 -58.3632
10.8116 -57.4621 -14.0882 -0.017288 0.024682 0.9995459 192 192 192 255 10.8116 -57.4621
11.9995 -56.5507 -14.0902 -0.017288 0.024682 0.9995459 192 192 192 255 11.9995 -56.5507
9.62285 -58.3632 -14.0865 -0.017288 0.024682 0.9995459 192 192 192 255 9.62285 -58.3632
9.62285 -58.3632 -14.0865 -0.07568399 -0.009488998 0.9970868 192 192 192 255 9.62285 -58.3632
9.62146 -59.2187 -14.0948 -0.07568399 -0.009488998 0.9970868 192 192 192 255 9.62146 -59.2187
9.62531 -58.3744 -14.0865 -0.07568399 -0.009488998 0.9970868 192 192 192 255 9.62531 -58.3744
-3.67177 -57.4351 -14.213 -0.4874511 -0.4954512 0.7189713 192 192 192 255 -3.67177 -57.4351
-2.71777 -58.3437 -14.1924 -0.4874511 -0.4954512 0.7189713 192 192 192 255 -2.71777 -58.3437
-4.62724 -56.5245 -14.2333 -0.4874511 -0.4954512 0.7189713 192 192 192 255 -4.62724 -56.5245
-2.71777 -59.2015 -14.3935 -0.008565996 0.01066 0.9999065 192 192 192 255 -2.71777 -59.2015
9.62456 -58.3663 -14.2966 -0.008565996 0.01066 0.9999065 192 192 192 255 9.62456 -58.3663
-2.71622 -58.3469 -14.4026 -0.008565996 0.01066 0.9999065 192 192 192 255 -2.71622 -58.3469
9.62456 -58.3663 -14.2966 -0.008558 0.01054 0.9999079 192 192 192 255 9.62456 -58.3663
-2.71777 -59.2015 -14.3935 -0.008558 0.01054 0.9999079 192 192 192 255 -2.71777 -59.2015
9.62293 -59.221 -14.2877 -0.008558 0.01054 0.9999079 192 192 192 255 9.62293 -59.221
9.61296 -65.2524 -14.2244 -0.008557998 0.010655 0.9999067 192 192 192 255 9.61296 -65.2524
9.61452 -64.3977 -14.2335 -0.008557998 0.010655 0.9999067 192 192 192 255 9.61452 -64.3977
-2.72775 -65.233 -14.3302 -0.008557998 0.010655 0.9999067 192 192 192 255 -2.72775 -65.233
-2.72775 -65.233 -14.3302 -0.00855 0.01054 0.999908 192 192 192 255 -2.72775 -65.233
9.61452 -64.3977 -14.2335 -0.00855 0.01054 0.999908 192 192 192 255 9.61452 -64.3977
-2.72612 -64.3783 -14.3392 -0.00855 0.01054 0.999908 192 192 192 255 -2.72612 -64.3783
11.9995 -56.5507 -14.0902 0.001696 0.9999029 -0.013832 192 192 192 255 11.9995 -56.5507
12.0033 -56.5565 -14.5075 0.001696 0.9999029 -0.013832 192 192 192 255 12.0033 -56.5565
-4.62331 -56.5303 -14.6504 0.001696 0.9999029 -0.013832 192 192 192 255 -4.62331 -56.5303
11.9995 -56.5507 -14.0902 0.001698999 0.9999015 -0.01392999 192 192 192 255 11.9995 -56.5507
-4.62331 -56.5303 -14.6504 0.001698999 0.9999015 -0.01392999 192 192 192 255 -4.62331 -56.5303
-4.62724 -56.5245 -14.2333 0.001698999 0.9999015 -0.01392999 192 192 192 255 -4.62724 -56.5245
-4.64636 -67.916 -14.081 -0.001697 -0.9999022 0.013881 192 192 192 255 -4.64636 -67.916
11.9841 -67.9481 -14.3551 -0.001697 -0.9999022 0.013881 192 192 192 255 11.9841 -67.9481
11.9803 -67.9423 -13.9379 -0.001697 -0.9999022 0.013881 192 192 192 255 11.9803 -67.9423
11.9841 -67.9481 -14.3551 -0.001691 -0.9998972 0.01424 192 192 192 255 11.9841 -67.9481
-4.64636 -67.916 -14.081 -0.001691 -0.9998972 0.01424 192 192 192 255 -4.64636 -67.916
-4.64313 -67.922 -14.4974 -0.001691 -0.9998972 0.01424 192 192 192 255 -4.64313 -67.922
11.9803 -67.9423 -13.9379 0.9999571 -0.001563 0.009126001 192 192 192 255 11.9803 -67.9423
12.0033 -56.5565 -14.5075 0.9999571 -0.001563 0.009126001 192 192 192 255 12.0033 -56.5565
11.9995 -56.5507 -14.0902 0.9999571 -0.001563 0.009126001 192 192 192 255 11.9995 -56.5507
12.0033 -56.5565 -14.5075 0.9999571 -0.001563 0.009131001 192 192 192 255 12.0033 -56.5565
11.9803 -67.9423 -13.9379 0.9999571 -0.001563 0.009131001 192 192 192 255 11.9803 -67.9423
11.9841 -67.9481 -14.3551 0.9999571 -0.001563 0.009131001 192 192 192 255 11.9841 -67.9481
-4.62724 -56.5245 -14.2333 -0.9999541 0.001613 -0.009444001 192 192 192 255 -4.62724 -56.5245
-4.62331 -56.5303 -14.6504 -0.9999541 0.001613 -0.009444001 192 192 192 255 -4.62331 -56.5303
-4.64313 -67.922 -14.4974 -0.9999541 0.001613 -0.009444001 192 192 192 255 -4.64313 -67.922
-4.62724 -56.5245 -14.2333 -0.9999685 0.001573999 -0.007778996 192 192 192 255 -4.62724 -56.5245
-4.64313 -67.922 -14.4974 -0.9999685 0.001573999 -0.007778996 192 192 192 255 -4.64313 -67.922
-4.64636 -67.916 -14.081 -0.9999685 0.001573999 -0.007778996 192 192 192 255 -4.64636 -67.916
8.99107 -57.6596 -13.9483 -0.008445997 0.010465 0.9999096 192 192 192 255 8.99107 -57.6596
8.99539 -55.0783 -13.9753 -0.008445997 0.010465 0.9999096 192 192 192 255 8.99539 -55.0783
7.31047 -55.0757 -13.9895 -0.008445997 0.010465 0.9999096 192 192 192 255 7.31047 -55.0757
8.99107 -57.6596 -13.9483 -0.008389997 0.010501 0.9999096 192 192 192 255 8.99107 -57.6596
7.31047 -55.0757 -13.9895 -0.008389997 0.010501 0.9999096 192 192 192 255 7.31047 -55.0757
7.30621 -57.657 -13.9624 -0.008389997 0.010501 0.9999096 192 192 192 255 7.30621 -57.657
-0.464518 -57.6447 -14.0291 -0.008742001 0.010463 0.9999071 192 192 192 255 -0.464518 -57.6447
-0.460259 -55.0635 -14.0561 -0.008742001 0.010463 0.9999071 192 192 192 255 -0.460259 -55.0635
-2.14432 -55.0608 -14.0709 -0.008742001 0.010463 0.9999071 192 192 192 255 -2.14432 -55.0608
-0.464518 -57.6447 -14.0291 -0.008802 0.010424 0.999907 192 192 192 255 -0.464518 -57.6447
-2.14432 -55.0608 -14.0709 -0.008802 0.010424 0.999907 192 192 192 255 -2.14432 -55.0608
-2.14873 -57.642 -14.044 -0.008802 0.010424 0.999907 192 192 192 255 -2.14873 -57.642
-0.46142 -57.6484 -14.3749 0.008328998 -0.010463 -0.9999107 192 192 192 255 -0.46142 -57.6484
-2.14186 -55.0645 -14.4159 0.008328998 -0.010463 -0.9999107 192 192 192 255 -2.14186 -55.0645
-0.457015 -55.0671 -14.4018 0.008328998 -0.010463 -0.9999107 192 192 192 255 -0.457015 -55.0671
-2.14186 -55.0645 -14.4159 0.008330997 -0.010462 -0.9999107 192 192 192 255 -2.14186 -55.0645
-0.46142 -57.6484 -14.3749 0.008330997 -0.010462 -0.9999107 192 192 192 255 -0.46142 -57.6484
-2.14627 -57.6458 -14.3889 0.008330997 -0.010462 -0.9999107 192 192 192 255 -2.14627 -57.6458
8.99353 -57.6634 -14.2932 0.008800001 -0.010502 -0.9999061 192 192 192 255 8.99353 -57.6634
7.30939 -57.6606 -14.3081 0.008800001 -0.010502 -0.9999061 192 192 192 255 7.30939 -57.6606
7.31364 -55.0794 -14.3352 0.008800001 -0.010502 -0.9999061 192 192 192 255 7.31364 -55.0794
8.99353 -57.6634 -14.2932 0.008798002 -0.010503 -0.9999062 192 192 192 255 8.99353 -57.6634
7.31364 -55.0794 -14.3352 0.008798002 -0.010503 -0.9999062 192 192 192 255 7.31364 -55.0794
8.99777 -55.0821 -14.3203 0.008798002 -0.010503 -0.9999062 192 192 192 255 8.99777 -55.0821
11.5637 -64.6445 -14.5456 0.008550996 -0.005814997 -0.9999465 192 192 192 255 11.5637 -64.6445
1.92395 -64.6293 -14.6282 0.008550996 -0.005814997 -0.9999465 192 192 192 255 1.92395 -64.6293
8.21102 -64.2626 -14.5765 0.008550996 -0.005814997 -0.9999465 192 192 192 255 8.21102 -64.2626
8.21102 -64.2626 -14.5765 0.008814 -0.010322 -0.999908 192 192 192 255 8.21102 -64.2626
1.92395 -64.6293 -14.6282 0.008814 -0.010322 -0.999908 192 192 192 255 1.92395 -64.6293
5.73894 -64.2586 -14.5984 0.008814 -0.010322 -0.999908 192 192 192 255 5.73894 -64.2586
5.73894 -64.2586 -14.5984 0.008321996 -0.005259998 -0.9999515 192 192 192 255 5.73894 -64.2586
1.92395 -64.6293 -14.6282 0.008321996 -0.005259998 -0.9999515 192 192 192 255 1.92395 -64.6293
5.73921 -63.9645 -14.5999 0.008321996 -0.005259998 -0.9999515 192 192 192 255 5.73921 -63.9645
5.73921 -63.9645 -14.5999 0.008551998 -0.006581998 -0.9999418 192 192 192 255 5.73921 -63.9645
1.92395 -64.6293 -14.6282 0.008551998 -0.006581998 -0.9999418 192 192 192 255 1.92395 -64.6293
1.92548 -63.9585 -14.6326 0.008551998 -0.006581998 -0.9999418 192 192 192 255 1.92548 -63.9585
11.5637 -64.6445 -14.5456 0.008565001 -0.005689 -0.9999471 192 192 192 255 11.5637 -64.6445
8.21102 -64.2626 -14.5765 0.008565001 -0.005689 -0.9999471 192 192 192 255 8.21102 -64.2626
11.5643 -63.9738 -14.5494 0.008565001 -0.005689 -0.9999471 192 192 192 255 11.5643 -63.9738
11.5643 -63.9738 -14.5494 0.008730999 -0.007612999 -0.9999329 192 192 192 255 11.5643 -63.9738
8.21102 -64.2626 -14.5765 0.008730999 -0.007612999 -0.9999329 192 192 192 255 8.21102 -64.2626
8.212 -63.9684 -14.5788 0.008730999 -0.007612999 -0.9999329 192 192 192 255 8.212 -63.9684
5.73622 -64.2562 -14.3069 -0.008632998 0.005839999 0.9999458 192 192 192 255 5.73622 -64.2562
1.92188 -64.6277 -14.3377 -0.008632998 0.005839999 0.9999458 192 192 192 255 1.92188 -64.6277
11.5609 -64.643 -14.2544 -0.008632998 0.005839999 0.9999458 192 192 192 255 11.5609 -64.643
5.73622 -64.2562 -14.3069 -0.008500001 0.007841001 0.9999331 192 192 192 255 5.73622 -64.2562
11.5609 -64.643 -14.2544 -0.008500001 0.007841001 0.9999331 192 192 192 255 11.5609 -64.643
8.20885 -64.26 -14.2859 -0.008500001 0.007841001 0.9999331 192 192 192 255 8.20885 -64.26
1.92188 -64.6277 -14.3377 -0.008604997 0.005548998 0.9999477 192 192 192 255 1.92188 -64.6277
5.73622 -64.2562 -14.3069 -0.008604997 0.005548998 0.9999477 192 192 192 255 5.73622 -64.2562
1.92262 -63.957 -14.3414 -0.008604997 0.005548998 0.9999477 192 192 192 255 1.92262 -63.957
1.92262 -63.957 -14.3414 -0.008577999 0.005889999 0.9999459 192 192 192 255 1.92262 -63.957
5.73622 -64.2562 -14.3069 -0.008577999 0.005889999 0.9999459 192 192 192 255 5.73622 -64.2562
5.73648 -63.963 -14.3087 -0.008577999 0.005889999 0.9999459 192 192 192 255 5.73648 -63.963
8.20885 -64.26 -14.2859 -0.008627002 0.006728001 0.9999402 192 192 192 255 8.20885 -64.26
11.5609 -64.643 -14.2544 -0.008627002 0.006728001 0.9999402 192 192 192 255 11.5609 -64.643
11.5623 -63.9722 -14.2589 -0.008627002 0.006728001 0.9999402 192 192 192 255 11.5623 -63.9722
8.20885 -64.26 -14.2859 -0.008528001 0.005570001 0.9999481 192 192 192 255 8.20885 -64.26
11.5623 -63.9722 -14.2589 -0.008528001 0.005570001 0.9999481 192 192 192 255 11.5623 -63.9722
8.20928 -63.9669 -14.2875 -0.008528001 0.005570001 0.9999481 192 192 192 255 8.20928 -63.9669
-2.72775 -65.233 -14.3302 0.001669 0.9999378 -0.011036 192 192 192 255 -2.72775 -65.233
-2.72951 -65.2305 -14.1003 0.001669 0.9999378 -0.011036 192 192 192 255 -2.72951 -65.2305
9.61296 -65.2524 -14.2244 0.001669 0.9999378 -0.011036 192 192 192 255 9.61296 -65.2524
9.61296 -65.2524 -14.2244 0.001667999 0.9999366 -0.011139 192 192 192 255 9.61296 -65.2524
-2.72951 -65.2305 -14.1003 0.001667999 0.9999366 -0.011139 192 192 192 255 -2.72951 -65.2305
9.61111 -65.2499 -13.9945 0.001667999 0.9999366 -0.011139 192 192 192 255 9.61111 -65.2499
9.61281 -64.3947 -14.0061 -0.001685001 -0.9999114 0.013207 192 192 192 255 9.61281 -64.3947
-2.72612 -64.3783 -14.3392 -0.001685001 -0.9999114 0.013207 192 192 192 255 -2.72612 -64.3783
9.61452 -64.3977 -14.2335 -0.001685001 -0.9999114 0.013207 192 192 192 255 9.61452 -64.3977
-2.72612 -64.3783 -14.3392 -0.001688001 -0.9999095 0.01334601 192 192 192 255 -2.72612 -64.3783
9.61281 -64.3947 -14.0061 -0.001688001 -0.9999095 0.01334601 192 192 192 255 9.61281 -64.3947
-2.72792 -64.3753 -14.1119 -0.001688001 -0.9999095 0.01334601 192 192 192 255 -2.72792 -64.3753
1.92188 -64.6277 -14.3377 -0.001618001 -0.9999834 0.005531002 192 192 192 255 1.92188 -64.6277
1.92395 -64.6293 -14.6282 -0.001618001 -0.9999834 0.005531002 192 192 192 255 1.92395 -64.6293
11.5637 -64.6445 -14.5456 -0.001618001 -0.9999834 0.005531002 192 192 192 255 11.5637 -64.6445
1.92188 -64.6277 -14.3377 -0.00163 -0.9999861 0.005014 192 192 192 255 1.92188 -64.6277
11.5637 -64.6445 -14.5456 -0.00163 -0.9999861 0.005014 192 192 192 255 11.5637 -64.6445
11.5609 -64.643 -14.2544 -0.00163 -0.9999861 0.005014 192 192 192 255 11.5609 -64.643
-2.71952 -59.1989 -14.1809 0.001682001 0.9999204 -0.01250601 192 192 192 255 -2.71952 -59.1989
9.62125 -59.2183 -14.075 0.001682001 0.9999204 -0.01250601 192 192 192 255 9.62125 -59.2183
9.62293 -59.221 -14.2877 0.001682001 0.9999204 -0.01250601 192 192 192 255 9.62293 -59.221
-2.71952 -59.1989 -14.1809 0.001681001 0.9999195 -0.01258301 192 192 192 255 -2.71952 -59.1989
9.62293 -59.221 -14.2877 0.001681001 0.9999195 -0.01258301 192 192 192 255 9.62293 -59.221
-2.71777 -59.2015 -14.3935 0.001681001 0.9999195 -0.01258301 192 192 192 255 -2.71777 -59.2015
-2.71622 -58.3469 -14.4026 -0.001702 -0.9998891 0.014794 192 192 192 255 -2.71622 -58.3469
9.62456 -58.3663 -14.2966 -0.001702 -0.9998891 0.014794 192 192 192 255 9.62456 -58.3663
-2.71777 -58.3437 -14.1924 -0.001702 -0.9998891 0.014794 192 192 192 255 -2.71777 -58.3437
-2.71777 -58.3437 -14.1924 -0.001701 -0.9998878 0.01489 192 192 192 255 -2.71777 -58.3437
9.62456 -58.3663 -14.2966 -0.001701 -0.9998878 0.01489 192 192 192 255 9.62456 -58.3663
9.62285 -58.3632 -14.0865 -0.001701 -0.9998878 0.01489 192 192 192 255 9.62285 -58.3632
4.15565 -56.6682 -14.3585 0.001622 0.9999838 -0.005463999 192 192 192 255 4.15565 -56.6682
4.15797 -56.6697 -14.6329 0.001622 0.9999838 -0.005463999 192 192 192 255 4.15797 -56.6697
-4.55925 -56.656 -14.7077 0.001622 0.9999838 -0.005463999 192 192 192 255 -4.55925 -56.656
4.15565 -56.6682 -14.3585 0.001625001 0.9999834 -0.005535002 192 192 192 255 4.15565 -56.6682
-4.55925 -56.656 -14.7077 0.001625001 0.9999834 -0.005535002 192 192 192 255 -4.55925 -56.656
-4.56165 -56.6545 -14.4334 0.001625001 0.9999834 -0.005535002 192 192 192 255 -4.56165 -56.6545
-4.56613 -61.0144 -14.6812 -0.001632 -0.9999838 0.005463999 192 192 192 255 -4.56613 -61.0144
0.798167 -61.0229 -14.6349 -0.001632 -0.9999838 0.005463999 192 192 192 255 0.798167 -61.0229
-4.56847 -61.0129 -14.4068 -0.001632 -0.9999838 0.005463999 192 192 192 255 -4.56847 -61.0129
-4.56847 -61.0129 -14.4068 -0.001632 -0.9999838 0.005462999 192 192 192 255 -4.56847 -61.0129
0.798167 -61.0229 -14.6349 -0.001632 -0.9999838 0.005462999 192 192 192 255 0.798167 -61.0229
0.795762 -61.0214 -14.3605 -0.001632 -0.9999838 0.005462999 192 192 192 255 0.795762 -61.0214
-4.56165 -56.6545 -14.4334 -0.9999605 0.001525001 -0.008758004 192 192 192 255 -4.56165 -56.6545
-4.55925 -56.656 -14.7077 -0.9999605 0.001525001 -0.008758004 192 192 192 255 -4.55925 -56.656
-4.56613 -61.0144 -14.6812 -0.9999605 0.001525001 -0.008758004 192 192 192 255 -4.56613 -61.0144
-4.56165 -56.6545 -14.4334 -0.9999624 0.001513001 -0.008536004 192 192 192 255 -4.56165 -56.6545
-4.56613 -61.0144 -14.6812 -0.9999624 0.001513001 -0.008536004 192 192 192 255 -4.56613 -61.0144
-4.56847 -61.0129 -14.4068 -0.9999624 0.001513001 -0.008536004 192 192 192 255 -4.56847 -61.0129
5.73921 -63.9645 -14.5999 0.001614 0.9999862 -0.005001001 192 192 192 255 5.73921 -63.9645
1.92548 -63.9585 -14.6326 0.001614 0.9999862 -0.005001001 192 192 192 255 1.92548 -63.9585
5.73648 -63.963 -14.3087 0.001614 0.9999862 -0.005001001 192 192 192 255 5.73648 -63.963
5.73648 -63.963 -14.3087 0.001619 0.999986 -0.005055 192 192 192 255 5.73648 -63.963
1.92548 -63.9585 -14.6326 0.001619 0.999986 -0.005055 192 192 192 255 1.92548 -63.9585
1.92262 -63.957 -14.3414 0.001619 0.999986 -0.005055 192 192 192 255 1.92262 -63.957
8.212 -63.9684 -14.5788 0.001609 0.9999862 -0.005001002 192 192 192 255 8.212 -63.9684
8.20928 -63.9669 -14.2875 0.001609 0.9999862 -0.005001002 192 192 192 255 8.20928 -63.9669
11.5623 -63.9722 -14.2589 0.001609 0.9999862 -0.005001002 192 192 192 255 11.5623 -63.9722
8.212 -63.9684 -14.5788 0.001652 0.9999838 -0.005449999 192 192 192 255 8.212 -63.9684
11.5623 -63.9722 -14.2589 0.001652 0.9999838 -0.005449999 192 192 192 255 11.5623 -63.9722
11.5643 -63.9738 -14.5494 0.001652 0.9999838 -0.005449999 192 192 192 255 11.5643 -63.9738
4.15297 -60.0225 -14.6126 0.9999629 -0.00144 0.008498999 192 192 192 255 4.15297 -60.0225
4.15797 -56.6697 -14.6329 0.9999629 -0.00144 0.008498999 192 192 192 255 4.15797 -56.6697
4.15064 -60.021 -14.3383 0.9999629 -0.00144 0.008498999 192 192 192 255 4.15064 -60.021
4.15064 -60.021 -14.3383 0.9999632 -0.001443 0.008462002 192 192 192 255 4.15064 -60.021
4.15797 -56.6697 -14.6329 0.9999632 -0.001443 0.008462002 192 192 192 255 4.15797 -56.6697
4.15565 -56.6682 -14.3585 0.9999632 -0.001443 0.008462002 192 192 192 255 4.15565 -56.6682
4.15064 -60.021 -14.3383 -0.001619 -0.9999831 0.005592001 192 192 192 255 4.15064 -60.021
0.797501 -60.0157 -14.367 -0.001619 -0.9999831 0.005592001 192 192 192 255 0.797501 -60.0157
0.799983 -60.0172 -14.6412 -0.001619 -0.9999831 0.005592001 192 192 192 255 0.799983 -60.0172
4.15064 -60.021 -14.3383 -0.001607 -0.9999838 0.005463999 192 192 192 255 4.15064 -60.021
0.799983 -60.0172 -14.6412 -0.001607 -0.9999838 0.005463999 192 192 192 255 0.799983 -60.0172
4.15297 -60.0225 -14.6126 -0.001607 -0.9999838 0.005463999 192 192 192 255 4.15297 -60.0225
-2.14432 -55.0608 -14.0709 -0.9999731 0.001634 -0.007149001 192 192 192 255 -2.14432 -55.0608
-2.14627 -57.6458 -14.3889 -0.9999731 0.001634 -0.007149001 192 192 192 255 -2.14627 -57.6458
-2.14873 -57.642 -14.044 -0.9999731 0.001634 -0.007149001 192 192 192 255 -2.14873 -57.642
-2.14627 -57.6458 -14.3889 -0.9999731 0.001634 -0.007147001 192 192 192 255 -2.14627 -57.6458
-2.14432 -55.0608 -14.0709 -0.9999731 0.001634 -0.007147001 192 192 192 255 -2.14432 -55.0608
-2.14186 -55.0645 -14.4159 -0.9999731 0.001634 -0.007147001 192 192 192 255 -2.14186 -55.0645
7.31047 -55.0757 -13.9895 -0.9999563 0.001554 -0.009217002 192 192 192 255 7.31047 -55.0757
7.30939 -57.6606 -14.3081 -0.9999563 0.001554 -0.009217002 192 192 192 255 7.30939 -57.6606
7.30621 -57.657 -13.9624 -0.9999563 0.001554 -0.009217002 192 192 192 255 7.30621 -57.657
7.30939 -57.6606 -14.3081 -0.9999567 0.001549999 -0.009187996 192 192 192 255 7.30939 -57.6606
7.31047 -55.0757 -13.9895 -0.9999567 0.001549999 -0.009187996 192 192 192 255 7.31047 -55.0757
7.31364 -55.0794 -14.3352 -0.9999567 0.001549999 -0.009187996 192 192 192 255 7.31364 -55.0794
-0.464518 -57.6447 -14.0291 0.9999584 -0.001613001 0.008977003 192 192 192 255 -0.464518 -57.6447
-0.46142 -57.6484 -14.3749 0.9999584 -0.001613001 0.008977003 192 192 192 255 -0.46142 -57.6484
-0.457015 -55.0671 -14.4018 0.9999584 -0.001613001 0.008977003 192 192 192 255 -0.457015 -55.0671
-0.464518 -57.6447 -14.0291 0.9999546 -0.001551999 0.009398996 192 192 192 255 -0.464518 -57.6447
-0.457015 -55.0671 -14.4018 0.9999546 -0.001551999 0.009398996 192 192 192 255 -0.457015 -55.0671
-0.460259 -55.0635 -14.0561 0.9999546 -0.001551999 0.009398996 192 192 192 255 -0.460259 -55.0635
8.99107 -57.6596 -13.9483 0.9999732 -0.001568 0.007150002 192 192 192 255 8.99107 -57.6596
8.99353 -57.6634 -14.2932 0.9999732 -0.001568 0.007150002 192 192 192 255 8.99353 -57.6634
8.99777 -55.0821 -14.3203 0.9999732 -0.001568 0.007150002 192 192 192 255 8.99777 -55.0821
8.99107 -57.6596 -13.9483 0.9999748 -0.001601 0.006915998 192 192 192 255 8.99107 -57.6596
8.99777 -55.0821 -14.3203 0.9999748 -0.001601 0.006915998 192 192 192 255 8.99777 -55.0821
8.99539 -55.0783 -13.9753 0.9999748 -0.001601 0.006915998 192 192 192 255 8.99539 -55.0783
5.73622 -64.2562 -14.3069 0.001693999 0.9999636 -0.008360997 192 192 192 255 5.73622 -64.2562
8.21102 -64.2626 -14.5765 0.001693999 0.9999636 -0.008360997 192 192 192 255 8.21102 -64.2626
5.73894 -64.2586 -14.5984 0.001693999 0.9999636 -0.008360997 192 192 192 255 5.73894 -64.2586
8.21102 -64.2626 -14.5765 0.001637 0.9999592 -0.008886002 192 192 192 255 8.21102 -64.2626
5.73622 -64.2562 -14.3069 0.001637 0.9999592 -0.008886002 192 192 192 255 5.73622 -64.2562
8.20885 -64.26 -14.2859 0.001637 0.9999592 -0.008886002 192 192 192 255 8.20885 -64.26
-2.14873 -57.642 -14.044 -0.001622 -0.999938 0.011024 192 192 192 255 -2.14873 -57.642
-2.14627 -57.6458 -14.3889 -0.001622 -0.999938 0.011024 192 192 192 255 -2.14627 -57.6458
-0.46142 -57.6484 -14.3749 -0.001622 -0.999938 0.011024 192 192 192 255 -0.46142 -57.6484
-2.14873 -57.642 -14.044 -0.001713 -0.9999428 0.010565 192 192 192 255 -2.14873 -57.642
-0.46142 -57.6484 -14.3749 -0.001713 -0.9999428 0.010565 192 192 192 255 -0.46142 -57.6484
-0.464518 -57.6447 -14.0291 -0.001713 -0.9999428 0.010565 192 192 192 255 -0.464518 -57.6447
7.30621 -57.657 -13.9624 -0.001713 -0.999942 0.010634 192 192 192 255 7.30621 -57.657
7.30939 -57.6606 -14.3081 -0.001713 -0.999942 0.010634 192 192 192 255 7.30939 -57.6606
8.99353 -57.6634 -14.2932 -0.001713 -0.999942 0.010634 192 192 192 255 8.99353 -57.6634
7.30621 -57.657 -13.9624 -0.001637 -0.9999379 0.011024 192 192 192 255 7.30621 -57.657
8.99353 -57.6634 -14.2932 -0.001637 -0.9999379 0.011024 192 192 192 255 8.99353 -57.6634
8.99107 -57.6596 -13.9483 -0.001637 -0.9999379 0.011024 192 192 192 255 8.99107 -57.6596
-0.460259 -55.0635 -14.0561 0.001704001 0.9999384 -0.010965 192 192 192 255 -0.460259 -55.0635
-2.14186 -55.0645 -14.4159 0.001704001 0.9999384 -0.010965 192 192 192 255 -2.14186 -55.0645
-2.14432 -55.0608 -14.0709 0.001704001 0.9999384 -0.010965 192 192 192 255 -2.14432 -55.0608
-2.14186 -55.0645 -14.4159 0.001619 0.9999429 -0.010565 192 192 192 255 -2.14186 -55.0645
-0.460259 -55.0635 -14.0561 0.001619 0.9999429 -0.010565 192 192 192 255 -0.460259 -55.0635
-0.457015 -55.0671 -14.4018 0.001619 0.9999429 -0.010565 192 192 192 255 -0.457015 -55.0671
8.99539 -55.0783 -13.9753 0.001643 0.9999422 -0.010624 192 192 192 255 8.99539 -55.0783
7.31364 -55.0794 -14.3352 0.001643 0.9999422 -0.010624 192 192 192 255 7.31364 -55.0794
7.31047 -55.0757 -13.9895 0.001643 0.9999422 -0.010624 192 192 192 255 7.31047 -55.0757
7.31364 -55.0794 -14.3352 0.001716001 0.9999384 -0.010966 192 192 192 255 7.31364 -55.0794
8.99539 -55.0783 -13.9753 0.001716001 0.9999384 -0.010966 192 192 192 255 8.99539 -55.0783
8.99777 -55.0821 -14.3203 0.001716001 0.9999384 -0.010966 192 192 192 255 8.99777 -55.0821
0.799983 -60.0172 -14.6412 0.9999574 -0.001749001 0.009062003 192 192 192 255 0.799983 -60.0172
0.797501 -60.0157 -14.367 0.9999574 -0.001749001 0.009062003 192 192 192 255 0.797501 -60.0157
0.798167 -61.0229 -14.6349 0.9999574 -0.001749001 0.009062003 192 192 192 255 0.798167 -61.0229
0.798167 -61.0229 -14.6349 0.9999601 -0.001672 0.008774001 192 192 192 255 0.798167 -61.0229
0.797501 -60.0157 -14.367 0.9999601 -0.001672 0.008774001 192 192 192 255 0.797501 -60.0157
0.795762 -61.0214 -14.3605 0.9999601 -0.001672 0.008774001 192 192 192 255 0.795762 -61.0214
-2.72951 -65.2305 -14.1003 0.999969 -0.001755 0.007674 192 192 192 255 -2.72951 -65.2305
-2.72775 -65.233 -14.3302 0.999969 -0.001755 0.007674 192 192 192 255 -2.72775 -65.233
-2.72792 -64.3753 -14.1119 0.999969 -0.001755 0.007674 192 192 192 255 -2.72792 -64.3753
-2.72792 -64.3753 -14.1119 0.9999669 -0.001824 0.007943999 192 192 192 255 -2.72792 -64.3753
-2.72775 -65.233 -14.3302 0.9999669 -0.001824 0.007943999 192 192 192 255 -2.72775 -65.233
-2.72612 -64.3783 -14.3392 0.9999669 -0.001824 0.007943999 192 192 192 255 -2.72612 -64.3783
9.61296 -65.2524 -14.2244 -0.9999659 0.00174 -0.008068999 192 192 192 255 9.61296 -65.2524
9.61111 -65.2499 -13.9945 -0.9999659 0.00174 -0.008068999 192 192 192 255 9.61111 -65.2499
9.61452 -64.3977 -14.2335 -0.9999659 0.00174 -0.008068999 192 192 192 255 9.61452 -64.3977
9.61452 -64.3977 -14.2335 -0.9999698 0.001886 -0.007544998 192 192 192 255 9.61452 -64.3977
9.61111 -65.2499 -13.9945 -0.9999698 0.001886 -0.007544998 192 192 192 255 9.61111 -65.2499
9.61281 -64.3947 -14.0061 -0.9999698 0.001886 -0.007544998 192 192 192 255 9.61281 -64.3947
1.92262 -63.957 -14.3414 -0.9999492 0.002216001 -0.009834003 192 192 192 255 1.92262 -63.957
1.92548 -63.9585 -14.6326 -0.9999492 0.002216001 -0.009834003 192 192 192 255 1.92548 -63.9585
1.92395 -64.6293 -14.6282 -0.9999492 0.002216001 -0.009834003 192 192 192 255 1.92395 -64.6293
1.92262 -63.957 -14.3414 -0.999974 0.001064 -0.007132 192 192 192 255 1.92262 -63.957
1.92395 -64.6293 -14.6282 -0.999974 0.001064 -0.007132 192 192 192 255 1.92395 -64.6293
1.92188 -64.6277 -14.3377 -0.999974 0.001064 -0.007132 192 192 192 255 1.92188 -64.6277
11.5609 -64.643 -14.2544 0.9999534 -0.0008400003 0.009618004 192 192 192 255 11.5609 -64.643
11.5637 -64.6445 -14.5456 0.9999534 -0.0008400003 0.009618004 192 192 192 255 11.5637 -64.6445
11.5643 -63.9738 -14.5494 0.9999534 -0.0008400003 0.009618004 192 192 192 255 11.5643 -63.9738
11.5609 -64.643 -14.2544 0.9999742 -0.002041 0.006894001 192 192 192 255 11.5609 -64.643
11.5643 -63.9738 -14.5494 0.9999742 -0.002041 0.006894001 192 192 192 255 11.5643 -63.9738
11.5623 -63.9722 -14.2589 0.9999742 -0.002041 0.006894001 192 192 192 255 11.5623 -63.9722
9.62293 -59.221 -14.2877 -0.999967 0.001825 -0.007919 192 192 192 255 9.62293 -59.221
9.62125 -59.2183 -14.075 -0.999967 0.001825 -0.007919 192 192 192 255 9.62125 -59.2183
9.62456 -58.3663 -14.2966 -0.999967 0.001825 -0.007919 192 192 192 255 9.62456 -58.3663
9.62456 -58.3663 -14.2966 -0.9999651 0.001761 -0.008164001 192 192 192 255 9.62456 -58.3663
9.62125 -59.2183 -14.075 -0.9999651 0.001761 -0.008164001 192 192 192 255 9.62125 -59.2183
9.62285 -58.3632 -14.0865 -0.9999651 0.001761 -0.008164001 192 192 192 255 9.62285 -58.3632
-2.71952 -59.1989 -14.1809 0.9999641 -0.001936 0.008256 192 192 192 255 -2.71952 -59.1989
-2.71777 -59.2015 -14.3935 0.9999641 -0.001936 0.008256 192 192 192 255 -2.71777 -59.2015
-2.71777 -58.3437 -14.1924 0.9999641 -0.001936 0.008256 192 192 192 255 -2.71777 -58.3437
-2.71777 -58.3437 -14.1924 0.9999711 -0.001735 0.007400001 192 192 192 255 -2.71777 -58.3437
-2.71777 -59.2015 -14.3935 0.9999711 -0.001735 0.007400001 192 192 192 255 -2.71777 -59.2015
-2.71622 -58.3469 -14.4026 0.9999711 -0.001735 0.007400001 192 192 192 255 -2.71622 -58.3469
5.73648 -63.963 -14.3087 0.9999557 -0.0008699997 0.009376996 192 192 192 255 5.73648 -63.963
5.73894 -64.2586 -14.5984 0.9999557 -0.0008699997 0.009376996 192 192 192 255 5.73894 -64.2586
5.73921 -63.9645 -14.5999 0.9999557 -0.0008699997 0.009376996 192 192 192 255 5.73921 -63.9645
5.73894 -64.2586 -14.5984 0.999956 -0.000833 0.00934 192 192 192 255 5.73894 -64.2586
5.73648 -63.963 -14.3087 0.999956 -0.000833 0.00934 192 192 192 255 5.73648 -63.963
5.73622 -64.2562 -14.3069 0.999956 -0.000833 0.00934 192 192 192 255 5.73622 -64.2562
8.212 -63.9684 -14.5788 -0.9999554 0.001415 -0.009346004 192 192 192 255 8.212 -63.9684
8.20885 -64.26 -14.2859 -0.9999554 0.001415 -0.009346004 192 192 192 255 8.20885 -64.26
8.20928 -63.9669 -14.2875 -0.9999554 0.001415 -0.009346004 192 192 192 255 8.20928 -63.9669
8.20885 -64.26 -14.2859 -0.9999666 0.003271999 -0.007496997 192 192 192 255 8.20885 -64.26
8.212 -63.9684 -14.5788 -0.9999666 0.003271999 -0.007496997 192 192 192 255 8.212 -63.9684
8.21102 -64.2626 -14.5765 -0.9999666 0.003271999 -0.007496997 192 192 192 255 8.21102 -64.2626
3 0 1 2 
3 3 4 5 
3 6 7 8 
3 9 10 11 
3 12 13 14 
3 15 16 17 
3 18 19 20 
3 21 22 23 
3 24 25 26 
3 27 28 29 
3 30 31 32 
3 33 34 35 
3 36 37 38 
3 39 40 41 
3 42 43 44 
3 45 46 47 
3 48 49 50 
3 51 52 53 
3 54 55 56 
3 57 58 59 
3 60 61 62 
3 63 64 65 
3 66 67 68 
3 69 70 71 
3 72 73 74 
3 75 76 77 
3 78 79 80 
3 81 82 83 
3 84 85 86 
3 87 88 89 
3 90 91 92 
3 93 94 95 
3 96 97 98 
3 99 100 101 
3 102 103 104 
3 105 106 107 
3 108 109 110 
3 111 112 113 
3 114 115 116 
3 117 118 119 
3 120 121 122 
3 123 124 125 
3 126 127 128 
3 129 130 131 
3 132 133 134 
3 135 136 137 
3 138 139 140 
3 141 142 143 
3 144 145 146 
3 147 148 149 
3 150 151 152 
3 153 154 155 
3 156 157 158 
3 159 160 161 
3 162 163 164 
3 165 166 167 
3 168 169 170 
3 171 172 173 
3 174 175 176 
3 177 178 179 
3 180 181 182 
3 183 184 185 
3 186 187 188 
3 189 190 191 
3 192 193 194 
3 195 196 197 
3 198 199 200 
3 201 202 203 
3 204 205 206 
3 207 208 209 
3 210 211 212 
3 213 214 215 
3 216 217 218 
3 219 220 221 
3 222 223 224 
3 225 226 227 
3 228 229 230 
3 231 232 233 
3 234 235 236 
3 237 238 239 
3 240 241 242 
3 243 244 245 
3 246 247 248 
3 249 250 251 
3 252 253 254 
3 255 256 257 
3 258 259 260 
3 261 262 263 
3 264 265 266 
3 267 268 269 
3 270 271 272 
3 273 274 275 
3 276 277 278 
3 279 280 281 
3 282 283 284 
3 285 286 287 
3 288 289 290 
3 291 292 293 
3 294 295 296 
3 297 298 299 
3 300 301 302 
3 303 304 305 
3 306 307 308 
3 309 310 311 
3 312 313 314 
3 315 316 317 
3 318 319 320 
3 321 322 323 
3 324 325 326 
3 327 328 329 
3 330 331 332 
3 333 334 335 
3 336 337 338 
3 339 340 341 
3 342 343 344 
3 345 346 347 
3 348 349 350 
3 351 352 353 
3 354 355 356 
3 357 358 359 
3 360 361 362 
3 363 364 365 
3 366 367 368 
3 369 370 371 
3 372 373 374 
3 375 376 377 
3 378 379 380 
3 381 382 383 
3 384 385 386 
3 387 388 389 
3 390 391 392 
3 393 394 395 
3 396 397 398 
