ply
format ascii 1.0
comment VCGLIB generated
element vertex 32
property float x
property float y
property float z
property float nx
property float ny
property float nz
property uchar red
property uchar green
property uchar blue
property uchar alpha
property float texture_u
property float texture_v
element face 12
property list uchar int vertex_indices
end_header
-65.2485 102.889 -7.116496 -0.575234 0.817989 0 192 192 192 255 -65.2485 102.889
-65.2485 102.889 1.045505 -0.575234 0.817989 0 192 192 192 255 -65.2485 102.889
-50.8293 113.029 1.045505 -0.575234 0.817989 0 192 192 192 255 -50.8293 113.029
5.03452 127.287 1.060506 -0.12023 0.9927461 0 192 192 192 255 5.03452 127.287
5.03452 127.287 -7.116494 -0.12023 0.9927461 0 192 192 192 255 5.03452 127.287
-23.8488 123.789 -7.116495 -0.12023 0.9927461 0 192 192 192 255 -23.8488 123.789
5.03452 127.287 1.060506 -0.120229 0.9927462 0 192 192 192 255 5.03452 127.287
-23.8488 123.789 -7.116495 -0.120229 0.9927462 0 192 192 192 255 -23.8488 123.789
-23.8488 123.789 1.045505 -0.120229 0.9927462 0 192 192 192 255 -23.8488 123.789
5.03452 127.287 -7.116494 0.137558 0.9904938 0 192 192 192 255 5.03452 127.287
5.03452 127.287 1.060506 0.137558 0.9904938 0 192 192 192 255 5.03452 127.287
33.8511 123.285 1.045505 0.137558 0.9904938 0 192 192 192 255 33.8511 123.285
5.03452 127.287 -7.116494 0.137558 0.9904938 2e-06 192 192 192 255 5.03452 127.287
33.8511 123.285 1.045505 0.137558 0.9904938 2e-06 192 192 192 255 33.8511 123.285
33.8512 123.285 -7.116495 0.137558 0.9904938 2e-06 192 192 192 255 33.8512 123.285
33.8512 123.285 -7.116495 0.386587 0.922253 5e-06 192 192 192 255 33.8512 123.285
33.8511 123.285 1.045505 0.386587 0.922253 5e-06 192 192 192 255 33.8511 123.285
60.6393 112.056 1.045505 0.386587 0.922253 5e-06 192 192 192 255 60.6393 112.056
33.8512 123.285 -7.116495 0.3865891 0.9222521 -0 192 192 192 255 33.8512 123.285
60.6393 112.056 1.045505 0.3865891 0.9222521 -0 192 192 192 255 60.6393 112.056
60.6393 112.056 -7.116495 0.3865891 0.9222521 -0 192 192 192 255 60.6393 112.056
-23.8488 123.789 1.045505 -0.3704351 0.9288583 0 192 192 192 255 -23.8488 123.789
-23.8488 123.789 -7.116495 -0.3704351 0.9288583 0 192 192 192 255 -23.8488 123.789
-50.8293 113.029 -7.116495 -0.3704351 0.9288583 0 192 192 192 255 -50.8293 113.029
-50.8293 113.029 1.045505 -0.3704351 0.9288583 0 192 192 192 255 -50.8293 113.029
60.6393 112.056 -7.116495 0.5893199 0.8078998 0 192 192 192 255 60.6393 112.056
60.6393 112.056 1.045505 0.5893199 0.8078998 0 192 192 192 255 60.6393 112.056
74.8199 101.712 1.045504 0.5893199 0.8078998 0 192 192 192 255 74.8199 101.712
74.8199 101.712 -7.116496 0.5893199 0.8078998 -0 192 192 192 255 74.8199 101.712
-50.8293 113.029 1.045505 -0.575234 0.817989 0 192 192 192 255 -50.8293 113.029
-50.8293 113.029 -7.116495 -0.575234 0.817989 0 192 192 192 255 -50.8293 113.029
-65.2485 102.889 -7.116496 -0.575234 0.817989 0 192 192 192 255 -65.2485 102.889
3 0 1 2 
3 3 4 5 
3 6 7 8 
3 9 10 11 
3 12 13 14 
3 15 16 17 
3 18 19 20 
3 21 22 23 
3 21 23 24 
3 25 26 27 
3 25 27 28 
3 29 30 31 
