ply
format ascii 1.0
comment VCGLIB generated
element vertex 262
property float x
property float y
property float z
property float nx
property float ny
property float nz
property float texture_u
property float texture_v
element face 292
property list uchar int vertex_indices
property uchar red
property uchar green
property uchar blue
property uchar alpha
end_header
863.9175 309.1739 60.90027 -0.001493689 -0.005699359 0.9999827 0.247216 0.354128
904.2169 272.8 60.90027 -0.3646853 -0.06909412 0.9285638 0.247216 0.354128
904.2169 92.46719 60.90027 -0.4457704 0.222182 0.8671355 0.247216 0.354128
852.4469 26.56166 60.90027 -0.3293774 0.0783073 0.9409456 0.247216 0.354128
863.9175 309.1739 -60.89874 -0.001565233 -0.008291031 -0.9999644 0.247216 0.354128
904.2169 272.8 -60.89874 -0.3646905 -0.06909519 -0.9285617 0.247216 0.354128
904.2169 92.46719 -60.89874 -0.3010166 0.1098755 -0.9472679 0.247216 0.354128
852.4469 26.56166 -60.89874 -0.4338998 0.1583786 -0.8869314 0.247216 0.354128
852.4469 -99.54407 60.90027 -0.0003091842 -0.9999997 0.0007156674 0.247216 0.354128
852.4469 -99.54407 -60.89874 -0.0001754479 -0.9999998 -0.0006470523 0.247216 0.354128
478.7167 394.5759 -60.89966 4.790471e-07 0.8344395 -0.5510996 0.244934 0.326199
478.7167 394.5759 60.89966 -4.695418e-07 0.8416688 0.5399941 0.244934 0.326199
887.0569 299.2609 -60.89874 -0.2481534 -0.2526725 -0.935188 0.247216 0.354128
887.0569 299.2609 60.90027 -0.2481496 -0.2526687 0.93519 0.247216 0.354128
851.6897 300 -34.91699 -0.1427831 -0.7736011 -0.617377 0.247216 0.354128
874.8289 290.0871 -34.91699 -0.5044115 -0.6931703 -0.5148631 0.247216 0.354128
891.9888 266.7695 -34.91699 -0.7868947 -0.3025278 -0.5378417 0.247216 0.354128
891.9888 92.46719 -34.91699 -0.8788766 0.2281061 -0.4189793 0.247216 0.354128
840.2191 26.56166 -34.91699 -0.7354893 0.3239709 -0.5950617 0.247216 0.354128
840.2191 -99.54407 -34.91699 -0.001299975 -0.999999 -0.0004761056 0.247216 0.354128
851.6897 300 34.92035 -0.183396 -0.9328484 0.3100964 0.23526 0.303967
874.8289 290.0871 34.92035 -0.5462701 -0.6592881 0.5166509 0.23526 0.303967
891.9888 266.7695 34.92035 -0.8118502 -0.2444255 0.5302409 0.23526 0.303967
891.9888 92.46719 34.92035 -0.7415715 0.2269594 0.631317 0.23526 0.303967
840.2191 26.56166 34.92035 -0.8346084 0.3256387 0.444284 0.23526 0.303967
840.2191 -99.54407 34.92035 -0.001413355 -0.9999981 0.001339196 0.23526 0.303967
838.5703 292.1397 28.39966 -0.1343358 -0.7758086 0.6165022 0.23526 0.303967
838.5703 292.1397 -28.3963 -0.1662565 -0.9363936 -0.3090725 0.23526 0.303967
865.1084 282.2268 28.39966 -0.4751476 -0.7138347 0.5144655 0.23526 0.303967
865.1084 282.2268 -28.3963 -0.511969 -0.6881006 -0.5142036 0.23526 0.303967
878.8694 266.7695 28.39966 -0.7702488 -0.3348015 0.5427936 0.23526 0.303967
878.8694 266.7695 -28.3963 -0.8047718 -0.2605072 -0.5333652 0.23526 0.303967
878.8694 92.46719 28.39966 -0.8346085 0.3256389 0.4442836 0.23526 0.303967
878.8694 92.46719 -28.3963 -0.6880905 0.2500051 -0.6811967 0.23526 0.303967
827.0996 26.56166 28.39966 -0.7415704 0.2269598 0.6313183 0.23526 0.303967
827.0996 26.56166 -28.3963 -0.8844754 0.3119925 -0.346935 0.23526 0.303967
827.0996 -99.54407 28.39966 -0.003281371 -0.9999939 0.001201777 0.23526 0.303967
827.0996 -99.54407 -28.3963 -0.0004289116 -0.9999998 -0.0004064067 0.23526 0.303967
851.6897 300 -47.90863 -0.1913603 -0.9536289 -0.2323212 0.247216 0.354128
874.8289 290.0871 -47.90863 -0.5811558 -0.7053909 -0.40581 0.247216 0.354128
891.9888 266.7695 -47.90863 -0.8756706 -0.255616 -0.409709 0.247216 0.354128
891.9888 92.46719 -47.90863 -0.8417649 0.3543831 -0.4072402 0.247216 0.354128
840.2191 26.56166 -47.90863 -0.9254704 0.2486792 -0.2857679 0.247216 0.354128
840.2191 -99.54407 -47.90863 -0.001136595 -0.9999992 -0.0006343222 0.247216 0.354128
851.6897 300 47.91046 -0.1442295 -0.904041 0.4023776 0.247216 0.354128
874.8289 290.0871 47.91046 -0.5025985 -0.7640303 0.4045399 0.247216 0.354128
891.9888 266.7695 47.91046 -0.836108 -0.3663085 0.4083399 0.247216 0.354128
891.9888 92.46719 47.91046 -0.9075232 0.2776439 0.3151439 0.247216 0.354128
840.2191 26.56166 47.91046 -0.8368189 0.3567058 0.4153253 0.247216 0.354128
840.2191 -99.54407 47.91046 -0.02175353 -0.9997262 0.008628026 0.247216 0.354128
882.8579 326.3963 60.90027 -1.03367e-06 2.045482e-06 1 0.244934 0.326197
903.6206 311.9006 60.90027 0 0 1 0.244934 0.326197
994.9753 394.5759 60.90027 2.561446e-05 0.8224288 0.5688681 0.244934 0.326199
923.9581 272.8 60.90027 0 0 1 0.244934 0.326197
923.9581 87.70596 60.90027 0 0 1 0.244934 0.326198
994.9753 61.96039 60.90027 0.0005283417 0 0.9999999 0.244934 0.326197
872.1881 26.56166 60.90027 0 0 1 0.244934 0.326197
872.1881 -99.54407 60.90027 0 -1 0.0001318723 0.244934 0.326198
994.9753 -99.54407 60.90027 3.343284e-05 -1 6.686568e-05 0.244934 0.326198
882.8579 326.3963 -60.89874 1.557476e-06 -3.042116e-06 -1 0.244934 0.326197
903.6206 311.9006 -60.89874 0 0 -1 0.244934 0.326197
994.9753 394.5759 -60.89874 7.984004e-06 0.9450735 -0.326858 0.244934 0.326199
923.9581 272.8 -60.89874 0 0 -1 0.244934 0.326197
923.9581 87.70596 -60.89874 0 0 -1 0.244934 0.326198
994.9753 61.96039 -60.89874 0.0005283417 0 -0.9999999 0.244934 0.326197
872.1881 26.56166 -60.89874 0 0 -1 0.244934 0.326197
872.1881 -99.54407 -60.89874 0 -1 -9.283565e-05 0.244934 0.326198
994.9753 -99.54407 -60.89874 0.0001337314 -1 -6.686568e-05 0.244934 0.326198
478.7167 309.1739 60.90027 0 -0.6043366 0.7967291 0.247216 0.354128
478.7167 300 47.91046 0 -0.9796669 0.2006312 0.247216 0.354128
478.7167 300 -34.91699 0 -0.9599913 -0.2800298 0.247216 0.354128
478.7167 300 -47.90863 0 -0.9159662 -0.4012555 0.247216 0.354128
478.7167 292.1397 28.39966 0 -0.9599913 0.2800298 0.23526 0.303967
478.7167 292.1397 -28.3963 0 -0.8284523 -0.5600595 0.23526 0.303967
478.7167 300 34.92035 0 -0.8284523 0.5600595 0.23526 0.303967
478.7167 309.1739 -60.89874 0 -0.4599646 -0.8879373 0.247216 0.354128
863.9175 327.4781 -60.89874 -3.749802e-08 -1.368448e-05 -1 0.243805 0.328476
478.7167 327.5037 -60.89874 -9.083172e-10 -1.364883e-05 -1 0.243805 0.328476
863.9175 328.3467 60.90027 2.531191e-08 9.237297e-06 1 0.247216 0.354128
478.7167 327.5037 60.90027 -1.991305e-08 9.099217e-06 1 0.247216 0.354128
136.3101 309.1739 -60.90027 0.001493693 -0.005699353 -0.9999827 0.247216 0.354128
96.01074 272.8 -60.90027 0.364686 -0.06909432 -0.9285635 0.247216 0.354128
96.01074 92.46719 -60.90027 0.4457712 0.2221824 -0.867135 0.247216 0.354128
147.7808 26.56166 -60.90027 0.3293775 0.07830741 -0.9409455 0.247216 0.354128
136.3101 309.1739 60.89874 0.001565237 -0.008291027 0.9999644 0.247216 0.354128
96.01074 272.8 60.89874 0.3646911 -0.06909539 0.9285614 0.247216 0.354128
96.01074 92.46719 60.89874 0.3010172 0.1098757 0.9472677 0.247216 0.354128
147.7808 26.56166 60.89874 0.4339 0.1583788 0.8869312 0.247216 0.354128
147.7808 -99.54407 -60.90027 0.0003091842 -0.9999997 -0.0007156674 0.247216 0.354128
147.7808 -99.54407 60.89874 0.0001754479 -0.9999998 0.0006470523 0.247216 0.354128
113.1708 299.2609 60.89874 0.2481533 -0.2526726 0.935188 0.247216 0.354128
113.1708 299.2609 -60.90027 0.2481495 -0.2526689 -0.93519 0.247216 0.354128
148.5379 300 34.91699 0.1427835 -0.7736007 0.6173774 0.247216 0.354128
125.3989 290.0871 34.91699 0.5044112 -0.6931703 0.5148635 0.247216 0.354128
108.2388 266.7695 34.91699 0.7868931 -0.3025293 0.5378432 0.247216 0.354128
108.2388 92.46719 34.91699 0.878876 0.2281062 0.4189804 0.247216 0.354128
160.0085 26.56166 34.91699 0.7354889 0.3239708 0.5950623 0.247216 0.354128
160.0085 -99.54407 34.91699 0.001299975 -0.999999 0.0004761056 0.247216 0.354128
148.5379 300 -34.92035 0.1833968 -0.9328482 -0.3100966 0.23526 0.303967
125.3989 290.0871 -34.92035 0.5462693 -0.6592886 -0.5166513 0.23526 0.303967
108.2388 266.7695 -34.92035 0.8118493 -0.2444263 -0.530242 0.23526 0.303967
108.2388 92.46719 -34.92035 0.7415702 0.2269594 -0.6313186 0.23526 0.303967
160.0085 26.56166 -34.92035 0.8346081 0.3256387 -0.4442846 0.23526 0.303967
160.0085 -99.54407 -34.92035 0.001413355 -0.9999981 -0.001339196 0.23526 0.303967
161.6574 292.1397 -28.39966 0.1343358 -0.7758084 -0.6165025 0.23526 0.303967
161.6574 292.1397 28.3963 0.1662565 -0.9363936 0.3090726 0.23526 0.303967
135.1193 282.2268 -28.39966 0.4751472 -0.7138346 -0.5144662 0.23526 0.303967
135.1193 282.2268 28.3963 0.5119689 -0.6881003 0.5142041 0.23526 0.303967
121.3583 266.7695 -28.39966 0.7702477 -0.3348017 -0.5427949 0.23526 0.303967
121.3583 266.7695 28.3963 0.8047711 -0.2605073 0.5333663 0.23526 0.303967
121.3583 92.46719 -28.39966 0.8346081 0.3256386 -0.4442846 0.23526 0.303967
121.3583 92.46719 28.3963 0.6880891 0.2500047 0.6811983 0.23526 0.303967
173.1281 26.56166 -28.39966 0.7415702 0.2269594 -0.6313186 0.23526 0.303967
173.1281 26.56166 28.3963 0.8844754 0.3119922 0.3469353 0.23526 0.303967
173.1281 -99.54407 -28.39966 0.003281371 -0.9999939 -0.001201777 0.23526 0.303967
173.1281 -99.54407 28.3963 0.0004289116 -0.9999998 0.0004064067 0.23526 0.303967
148.5379 300 47.90863 0.1913611 -0.9536287 0.2323214 0.247216 0.354128
125.3989 290.0871 47.90863 0.5811552 -0.7053912 0.4058101 0.247216 0.354128
108.2388 266.7695 47.90863 0.8756705 -0.2556169 0.4097087 0.247216 0.354128
108.2388 92.46719 47.90863 0.8417653 0.3543833 0.4072392 0.247216 0.354128
160.0085 26.56166 47.90863 0.9254704 0.2486794 0.2857677 0.247216 0.354128
160.0085 -99.54407 47.90863 0.001136595 -0.9999992 0.0006343222 0.247216 0.354128
148.5379 300 -47.91046 0.1442301 -0.9040408 -0.4023778 0.247216 0.354128
125.3989 290.0871 -47.91046 0.5025987 -0.7640301 -0.4045399 0.247216 0.354128
108.2388 266.7695 -47.91046 0.8361075 -0.36631 -0.4083397 0.247216 0.354128
108.2388 92.46719 -47.91046 0.9075234 0.2776441 -0.315143 0.247216 0.354128
160.0085 26.56166 -47.91046 0.8368191 0.3567062 -0.4153248 0.247216 0.354128
160.0085 -99.54407 -47.91046 0.02175353 -0.9997262 -0.008628026 0.247216 0.354128
117.3697 326.3963 -60.90027 1.113861e-06 2.207996e-06 -1 0.244934 0.326197
96.60706 311.9006 -60.90027 0 0 -1 0.244934 0.326197
5.024693 394.5759 -60.90027 -2.775858e-05 0.8177853 -0.5755235 0.244934 0.326199
76.26953 272.8 -60.90027 0 0 -1 0.244934 0.326197
76.26953 87.70596 -60.90027 0 0 -1 0.244934 0.326198
5.024693 61.96039 -60.90027 -0.0005270494 0 -0.9999999 0.244934 0.326197
128.0396 26.56166 -60.90027 0 0 -1 0.244934 0.326197
128.0396 -99.54407 -60.90027 0 -1 -0.0001317118 0.244934 0.326198
5.024693 -99.54407 -60.90027 -3.337096e-05 -1 -6.674192e-05 0.244934 0.326198
117.3697 326.3963 60.89874 -1.678899e-06 -3.284981e-06 1 0.244934 0.326197
96.60706 311.9006 60.89874 0 0 1 0.244934 0.326197
5.024693 394.5759 60.89874 -8.685142e-06 0.9433016 0.3319368 0.244934 0.326199
76.26953 272.8 60.89874 0 0 1 0.244934 0.326197
76.26953 87.70596 60.89874 0 0 1 0.244934 0.326198
5.024693 61.96039 60.89874 -0.0005270494 0 0.9999999 0.244934 0.326197
128.0396 26.56166 60.89874 0 0 1 0.244934 0.326197
128.0396 -99.54407 60.89874 0 -1 9.267659e-05 0.244934 0.326198
5.024693 -99.54407 60.89874 -0.0001334838 -1 6.674192e-05 0.244934 0.326198
478.7167 309.1739 -60.90027 0 -0.6043367 -0.7967291 0.247216 0.354128
478.7167 300 -47.91046 0 -0.9796669 -0.2006312 0.247216 0.354128
478.7167 300 34.91699 0 -0.9599913 0.2800298 0.247216 0.354128
478.7167 300 47.90863 0 -0.9159662 0.4012555 0.247216 0.354128
478.7167 292.1397 -28.39966 0 -0.9599913 -0.2800298 0.23526 0.303967
478.7167 292.1397 28.3963 0 -0.8284523 0.5600595 0.23526 0.303967
478.7167 300 -34.92035 0 -0.8284523 -0.5600595 0.23526 0.303967
478.7167 309.1739 60.89874 0 -0.4599646 0.8879373 0.247216 0.354128
136.3101 327.4781 60.89874 4.187127e-08 -1.366242e-05 1 0.243805 0.328476
478.7167 327.5037 60.89874 1.021829e-09 -1.364869e-05 1 0.243805 0.328476
136.3101 328.3467 -60.90027 -2.826132e-08 9.221547e-06 -1 0.247216 0.354128
478.7167 327.5037 -60.90027 2.240158e-08 9.09913e-06 -1 0.247216 0.354128
851.6897 300 -34.91699 -0.1427831 -0.7736011 -0.617377 0.23526 0.303967
874.8289 290.0871 -34.91699 -0.5044115 -0.6931703 -0.5148631 0.23526 0.303967
891.9888 266.7695 -34.91699 -0.7868947 -0.3025278 -0.5378417 0.23526 0.303967
891.9888 92.46719 -34.91699 -0.8788766 0.2281061 -0.4189793 0.23526 0.303967
840.2191 26.56166 -34.91699 -0.7354893 0.3239709 -0.5950617 0.23526 0.303967
840.2191 -99.54407 -34.91699 -0.001299975 -0.999999 -0.0004761056 0.23526 0.303967
851.6897 300 34.92035 -0.183396 -0.9328484 0.3100964 0.247216 0.354128
874.8289 290.0871 34.92035 -0.5462701 -0.6592881 0.5166509 0.247216 0.354128
891.9888 266.7695 34.92035 -0.8118502 -0.2444255 0.5302409 0.247216 0.354128
891.9888 92.46719 34.92035 -0.7415715 0.2269594 0.631317 0.247216 0.354128
840.2191 26.56166 34.92035 -0.8346084 0.3256387 0.444284 0.247216 0.354128
840.2191 -99.54407 34.92035 -0.001413355 -0.9999981 0.001339196 0.247216 0.354128
903.6206 311.9006 60.90027 0 0 1 0.247216 0.354128
882.8579 326.3963 60.90027 -1.03367e-06 2.045482e-06 1 0.247216 0.354128
923.9581 87.70596 60.90027 0 0 1 0.247216 0.354128
923.9581 272.8 60.90027 0 0 1 0.247216 0.354128
872.1881 26.56166 60.90027 0 0 1 0.247216 0.354128
872.1881 -99.54407 60.90027 0 -1 0.0001318723 0.247216 0.354128
882.8579 326.3963 -60.89874 1.557476e-06 -3.042116e-06 -1 0.247216 0.354128
903.6206 311.9006 -60.89874 0 0 -1 0.247216 0.354128
923.9581 272.8 -60.89874 0 0 -1 0.247216 0.354128
923.9581 87.70596 -60.89874 0 0 -1 0.247216 0.354128
872.1881 26.56166 -60.89874 0 0 -1 0.247216 0.354128
872.1881 -99.54407 -60.89874 0 -1 -9.283565e-05 0.247216 0.354128
882.8579 326.3963 -60.89874 1.557476e-06 -3.042116e-06 -1 0.243805 0.328476
478.7167 394.5759 -60.89966 4.790471e-07 0.8344395 -0.5510996 0.243805 0.328476
994.9753 61.96039 -60.89874 0.0005283417 0 -0.9999999 0.23468 0.306247
994.9753 394.5759 -60.89874 7.984004e-06 0.9450735 -0.326858 0.23468 0.306248
994.9753 394.5759 60.90027 2.561446e-05 0.8224288 0.5688681 0.23468 0.306248
994.9753 61.96039 60.90027 0.0005283417 0 0.9999999 0.23468 0.306247
994.9753 -99.54407 -60.89874 0.0001337314 -1 -6.686568e-05 0.23468 0.306248
994.9753 -99.54407 60.90027 3.343284e-05 -1 6.686568e-05 0.23468 0.306248
994.9753 394.5759 60.90027 2.561446e-05 0.8224288 0.5688681 0.23468 0.302258
994.9753 394.5759 -60.89874 7.984004e-06 0.9450735 -0.326858 0.23468 0.302258
478.7167 394.5759 60.89966 -4.695418e-07 0.8416688 0.5399941 0.23468 0.302258
478.7167 394.5759 -60.89966 4.790471e-07 0.8344395 -0.5510996 0.23468 0.302258
872.1881 -99.54407 -60.89874 0 -1 -9.283565e-05 0.23468 0.306248
872.1881 -99.54407 60.90027 0 -1 0.0001318723 0.23468 0.306248
852.4469 -99.54407 -60.89874 -0.0001754479 -0.9999998 -0.0006470523 0.23468 0.306248
840.2191 -99.54407 -47.90863 -0.001136595 -0.9999992 -0.0006343222 0.23468 0.306248
840.2191 -99.54407 -34.91699 -0.001299975 -0.999999 -0.0004761056 0.23468 0.306248
827.0996 -99.54407 -28.3963 -0.0004289116 -0.9999998 -0.0004064067 0.23468 0.306248
852.4469 -99.54407 60.90027 -0.0003091842 -0.9999997 0.0007156674 0.23468 0.306248
827.0996 -99.54407 28.39966 -0.003281371 -0.9999939 0.001201777 0.23468 0.306248
840.2191 -99.54407 34.92035 -0.001413355 -0.9999981 0.001339196 0.23468 0.306248
840.2191 -99.54407 47.91046 -0.02175353 -0.9997262 0.008628026 0.23468 0.306248
478.7167 300 -34.91699 0 -0.9599913 -0.2800298 0.23526 0.303967
478.7167 300 34.92035 0 -0.8284523 0.5600595 0.247216 0.354128
863.9175 327.4781 -60.89874 -3.749802e-08 -1.368448e-05 -1 0.247216 0.354128
478.7167 327.5037 -60.89874 -9.083172e-10 -1.364883e-05 -1 0.247216 0.354128
478.7167 394.5759 60.89966 -4.695418e-07 0.8416688 0.5399941 0.243805 0.328476
863.9175 328.3467 60.90027 2.531191e-08 9.237297e-06 1 0.243805 0.328476
882.8579 326.3963 60.90027 -1.03367e-06 2.045482e-06 1 0.243805 0.328476
478.7167 327.5037 60.90027 -1.991305e-08 9.099217e-06 1 0.243805 0.328476
148.5379 300 34.91699 0.1427835 -0.7736007 0.6173774 0.23526 0.303967
125.3989 290.0871 34.91699 0.5044112 -0.6931703 0.5148635 0.23526 0.303967
108.2388 266.7695 34.91699 0.7868931 -0.3025293 0.5378432 0.23526 0.303967
108.2388 92.46719 34.91699 0.878876 0.2281062 0.4189804 0.23526 0.303967
160.0085 26.56166 34.91699 0.7354889 0.3239708 0.5950623 0.23526 0.303967
160.0085 -99.54407 34.91699 0.001299975 -0.999999 0.0004761056 0.23526 0.303967
148.5379 300 -34.92035 0.1833968 -0.9328482 -0.3100966 0.247216 0.354128
125.3989 290.0871 -34.92035 0.5462693 -0.6592886 -0.5166513 0.247216 0.354128
108.2388 266.7695 -34.92035 0.8118493 -0.2444263 -0.530242 0.247216 0.354128
108.2388 92.46719 -34.92035 0.7415702 0.2269594 -0.6313186 0.247216 0.354128
160.0085 26.56166 -34.92035 0.8346081 0.3256387 -0.4442846 0.247216 0.354128
160.0085 -99.54407 -34.92035 0.001413355 -0.9999981 -0.001339196 0.247216 0.354128
96.60706 311.9006 -60.90027 0 0 -1 0.247216 0.354128
117.3697 326.3963 -60.90027 1.113861e-06 2.207996e-06 -1 0.247216 0.354128
76.26953 87.70596 -60.90027 0 0 -1 0.247216 0.354128
76.26953 272.8 -60.90027 0 0 -1 0.247216 0.354128
128.0396 26.56166 -60.90027 0 0 -1 0.247216 0.354128
128.0396 -99.54407 -60.90027 0 -1 -0.0001317118 0.247216 0.354128
117.3697 326.3963 60.89874 -1.678899e-06 -3.284981e-06 1 0.247216 0.354128
96.60706 311.9006 60.89874 0 0 1 0.247216 0.354128
76.26953 272.8 60.89874 0 0 1 0.247216 0.354128
76.26953 87.70596 60.89874 0 0 1 0.247216 0.354128
128.0396 26.56166 60.89874 0 0 1 0.247216 0.354128
128.0396 -99.54407 60.89874 0 -1 9.267659e-05 0.247216 0.354128
117.3697 326.3963 60.89874 -1.678899e-06 -3.284981e-06 1 0.243805 0.328476
5.024693 61.96039 60.89874 -0.0005270494 0 0.9999999 0.23468 0.306247
5.024693 394.5759 60.89874 -8.685142e-06 0.9433016 0.3319368 0.23468 0.306248
5.024693 394.5759 -60.90027 -2.775858e-05 0.8177853 -0.5755235 0.23468 0.306248
5.024693 61.96039 -60.90027 -0.0005270494 0 -0.9999999 0.23468 0.306247
5.024693 -99.54407 60.89874 -0.0001334838 -1 6.674192e-05 0.23468 0.306248
5.024693 -99.54407 -60.90027 -3.337096e-05 -1 -6.674192e-05 0.23468 0.306248
5.024693 394.5759 -60.90027 -2.775858e-05 0.8177853 -0.5755235 0.23468 0.302258
5.024693 394.5759 60.89874 -8.685142e-06 0.9433016 0.3319368 0.23468 0.302258
128.0396 -99.54407 60.89874 0 -1 9.267659e-05 0.23468 0.306248
128.0396 -99.54407 -60.90027 0 -1 -0.0001317118 0.23468 0.306248
147.7808 -99.54407 60.89874 0.0001754479 -0.9999998 0.0006470523 0.23468 0.306248
160.0085 -99.54407 47.90863 0.001136595 -0.9999992 0.0006343222 0.23468 0.306248
160.0085 -99.54407 34.91699 0.001299975 -0.999999 0.0004761056 0.23468 0.306248
173.1281 -99.54407 28.3963 0.0004289116 -0.9999998 0.0004064067 0.23468 0.306248
147.7808 -99.54407 -60.90027 0.0003091842 -0.9999997 -0.0007156674 0.23468 0.306248
173.1281 -99.54407 -28.39966 0.003281371 -0.9999939 -0.001201777 0.23468 0.306248
160.0085 -99.54407 -34.92035 0.001413355 -0.9999981 -0.001339196 0.23468 0.306248
160.0085 -99.54407 -47.91046 0.02175353 -0.9997262 -0.008628026 0.23468 0.306248
478.7167 300 34.91699 0 -0.9599913 0.2800298 0.23526 0.303967
478.7167 300 -34.92035 0 -0.8284523 -0.5600595 0.247216 0.354128
136.3101 327.4781 60.89874 4.187127e-08 -1.366242e-05 1 0.247216 0.354128
478.7167 327.5037 60.89874 1.021829e-09 -1.364869e-05 1 0.247216 0.354128
136.3101 328.3467 -60.90027 -2.826132e-08 9.221547e-06 -1 0.243805 0.328476
117.3697 326.3963 -60.90027 1.113861e-06 2.207996e-06 -1 0.243805 0.328476
478.7167 327.5037 -60.90027 2.240158e-08 9.09913e-06 -1 0.243805 0.328476
3 0 44 45 192 192 192 255 
3 0 45 13 192 192 192 255 
3 1 46 47 192 192 192 255 
3 1 47 2 192 192 192 255 
3 2 47 48 192 192 192 255 
3 2 48 3 192 192 192 255 
3 3 48 49 192 192 192 255 
3 3 49 8 192 192 192 255 
3 50 51 52 192 192 192 255 
3 53 54 55 192 192 192 255 
3 53 55 52 192 192 192 255 
3 55 54 56 192 192 192 255 
3 60 59 61 192 192 192 255 
3 63 62 61 192 192 192 255 
3 63 61 64 192 192 192 255 
3 63 64 65 192 192 192 255 
3 56 57 58 192 192 192 255 
3 56 58 55 192 192 192 255 
3 66 65 64 192 192 192 255 
3 66 64 67 192 192 192 255 
3 59 10 61 192 192 192 255 
3 11 50 52 192 192 192 255 
3 62 60 61 192 192 192 255 
3 13 45 46 192 192 192 255 
3 13 46 1 192 192 192 255 
3 52 51 53 192 192 192 255 
3 15 14 38 192 192 192 255 
3 15 38 39 192 192 192 255 
3 16 15 39 192 192 192 255 
3 16 39 40 192 192 192 255 
3 17 16 40 192 192 192 255 
3 17 40 41 192 192 192 255 
3 18 17 41 192 192 192 255 
3 18 41 42 192 192 192 255 
3 19 18 42 192 192 192 255 
3 19 42 43 192 192 192 255 
3 28 26 27 192 192 192 255 
3 28 27 29 192 192 192 255 
3 30 28 29 192 192 192 255 
3 30 29 31 192 192 192 255 
3 32 30 31 192 192 192 255 
3 32 31 33 192 192 192 255 
3 32 33 35 192 192 192 255 
3 32 35 34 192 192 192 255 
3 36 34 35 192 192 192 255 
3 36 35 37 192 192 192 255 
3 21 20 26 192 192 192 255 
3 21 26 28 192 192 192 255 
3 158 159 29 192 192 192 255 
3 158 29 27 192 192 192 255 
3 22 21 28 192 192 192 255 
3 22 28 30 192 192 192 255 
3 159 160 31 192 192 192 255 
3 159 31 29 192 192 192 255 
3 23 22 30 192 192 192 255 
3 23 30 32 192 192 192 255 
3 160 161 33 192 192 192 255 
3 160 33 31 192 192 192 255 
3 33 161 162 192 192 192 255 
3 33 162 35 192 192 192 255 
3 32 34 24 192 192 192 255 
3 32 24 23 192 192 192 255 
3 25 24 34 192 192 192 255 
3 25 34 36 192 192 192 255 
3 162 163 37 192 192 192 255 
3 162 37 35 192 192 192 255 
3 39 38 4 192 192 192 255 
3 39 4 12 192 192 192 255 
3 40 39 12 192 192 192 255 
3 40 12 5 192 192 192 255 
3 41 40 5 192 192 192 255 
3 41 5 6 192 192 192 255 
3 41 6 7 192 192 192 255 
3 41 7 42 192 192 192 255 
3 43 42 7 192 192 192 255 
3 43 7 9 192 192 192 255 
3 45 44 164 192 192 192 255 
3 45 164 165 192 192 192 255 
3 46 45 165 192 192 192 255 
3 46 165 166 192 192 192 255 
3 47 46 166 192 192 192 255 
3 47 166 167 192 192 192 255 
3 47 167 168 192 192 192 255 
3 47 168 48 192 192 192 255 
3 49 48 168 192 192 192 255 
3 49 168 169 192 192 192 255 
3 0 13 170 192 192 192 255 
3 0 170 171 192 192 192 255 
3 1 2 172 192 192 192 255 
3 1 172 173 192 192 192 255 
3 172 2 3 192 192 192 255 
3 172 3 174 192 192 192 255 
3 3 8 175 192 192 192 255 
3 3 175 174 192 192 192 255 
3 171 78 0 192 192 192 255 
3 13 1 173 192 192 192 255 
3 13 173 170 192 192 192 255 
3 12 4 176 192 192 192 255 
3 12 176 177 192 192 192 255 
3 6 5 178 192 192 192 255 
3 6 178 179 192 192 192 255 
3 9 7 180 192 192 192 255 
3 9 180 181 192 192 192 255 
3 182 76 183 192 192 192 255 
3 5 12 177 192 192 192 255 
3 5 177 178 192 192 192 255 
3 179 180 7 192 192 192 255 
3 179 7 6 192 192 192 255 
3 184 185 186 192 192 192 255 
3 184 186 187 192 192 192 255 
3 188 184 187 192 192 192 255 
3 188 187 189 192 192 192 255 
3 190 191 192 192 192 192 255 
3 191 193 192 192 192 192 255 
3 188 189 194 192 192 192 255 
3 189 195 194 192 192 192 255 
3 194 195 196 192 192 192 255 
3 196 195 197 192 192 192 255 
3 197 195 198 192 192 192 255 
3 198 195 199 192 192 192 255 
3 195 200 199 192 192 192 255 
3 201 199 202 192 192 192 255 
3 199 200 202 192 192 192 255 
3 203 202 200 192 192 192 255 
3 44 0 68 192 192 192 255 
3 44 68 69 192 192 192 255 
3 0 78 79 192 192 192 255 
3 0 79 68 192 192 192 255 
3 38 14 70 192 192 192 255 
3 38 70 71 192 192 192 255 
3 27 26 72 192 192 192 255 
3 27 72 73 192 192 192 255 
3 26 20 74 192 192 192 255 
3 26 74 72 192 192 192 255 
3 158 27 73 192 192 192 255 
3 158 73 204 192 192 192 255 
3 4 38 71 192 192 192 255 
3 4 71 75 192 192 192 255 
3 183 76 77 192 192 192 255 
3 164 44 69 192 192 192 255 
3 164 69 205 192 192 192 255 
3 4 206 176 192 192 192 255 
3 207 206 4 192 192 192 255 
3 207 4 75 192 192 192 255 
3 208 209 210 192 192 192 255 
3 211 209 208 192 192 192 255 
3 80 122 123 192 192 192 255 
3 80 123 91 192 192 192 255 
3 81 124 125 192 192 192 255 
3 81 125 82 192 192 192 255 
3 82 125 126 192 192 192 255 
3 82 126 83 192 192 192 255 
3 83 126 127 192 192 192 255 
3 83 127 88 192 192 192 255 
3 128 129 130 192 192 192 255 
3 131 132 133 192 192 192 255 
3 131 133 130 192 192 192 255 
3 133 132 134 192 192 192 255 
3 138 137 139 192 192 192 255 
3 141 140 139 192 192 192 255 
3 141 139 142 192 192 192 255 
3 141 142 143 192 192 192 255 
3 134 135 136 192 192 192 255 
3 134 136 133 192 192 192 255 
3 144 143 142 192 192 192 255 
3 144 142 145 192 192 192 255 
3 137 11 139 192 192 192 255 
3 10 128 130 192 192 192 255 
3 140 138 139 192 192 192 255 
3 91 123 124 192 192 192 255 
3 91 124 81 192 192 192 255 
3 130 129 131 192 192 192 255 
3 93 92 116 192 192 192 255 
3 93 116 117 192 192 192 255 
3 94 93 117 192 192 192 255 
3 94 117 118 192 192 192 255 
3 95 94 118 192 192 192 255 
3 95 118 119 192 192 192 255 
3 96 95 119 192 192 192 255 
3 96 119 120 192 192 192 255 
3 97 96 120 192 192 192 255 
3 97 120 121 192 192 192 255 
3 106 104 105 192 192 192 255 
3 106 105 107 192 192 192 255 
3 108 106 107 192 192 192 255 
3 108 107 109 192 192 192 255 
3 110 108 109 192 192 192 255 
3 110 109 111 192 192 192 255 
3 110 111 113 192 192 192 255 
3 110 113 112 192 192 192 255 
3 114 112 113 192 192 192 255 
3 114 113 115 192 192 192 255 
3 99 98 104 192 192 192 255 
3 99 104 106 192 192 192 255 
3 212 213 107 192 192 192 255 
3 212 107 105 192 192 192 255 
3 100 99 106 192 192 192 255 
3 100 106 108 192 192 192 255 
3 213 214 109 192 192 192 255 
3 213 109 107 192 192 192 255 
3 101 100 108 192 192 192 255 
3 101 108 110 192 192 192 255 
3 214 215 111 192 192 192 255 
3 214 111 109 192 192 192 255 
3 111 215 216 192 192 192 255 
3 111 216 113 192 192 192 255 
3 110 112 102 192 192 192 255 
3 110 102 101 192 192 192 255 
3 103 102 112 192 192 192 255 
3 103 112 114 192 192 192 255 
3 216 217 115 192 192 192 255 
3 216 115 113 192 192 192 255 
3 117 116 84 192 192 192 255 
3 117 84 90 192 192 192 255 
3 118 117 90 192 192 192 255 
3 118 90 85 192 192 192 255 
3 119 118 85 192 192 192 255 
3 119 85 86 192 192 192 255 
3 119 86 87 192 192 192 255 
3 119 87 120 192 192 192 255 
3 121 120 87 192 192 192 255 
3 121 87 89 192 192 192 255 
3 123 122 218 192 192 192 255 
3 123 218 219 192 192 192 255 
3 124 123 219 192 192 192 255 
3 124 219 220 192 192 192 255 
3 125 124 220 192 192 192 255 
3 125 220 221 192 192 192 255 
3 125 221 222 192 192 192 255 
3 125 222 126 192 192 192 255 
3 127 126 222 192 192 192 255 
3 127 222 223 192 192 192 255 
3 80 91 224 192 192 192 255 
3 80 224 225 192 192 192 255 
3 81 82 226 192 192 192 255 
3 81 226 227 192 192 192 255 
3 226 82 83 192 192 192 255 
3 226 83 228 192 192 192 255 
3 83 88 229 192 192 192 255 
3 83 229 228 192 192 192 255 
3 225 156 80 192 192 192 255 
3 91 81 227 192 192 192 255 
3 91 227 224 192 192 192 255 
3 90 84 230 192 192 192 255 
3 90 230 231 192 192 192 255 
3 86 85 232 192 192 192 255 
3 86 232 233 192 192 192 255 
3 89 87 234 192 192 192 255 
3 89 234 235 192 192 192 255 
3 236 154 208 192 192 192 255 
3 85 90 231 192 192 192 255 
3 85 231 232 192 192 192 255 
3 233 234 87 192 192 192 255 
3 233 87 86 192 192 192 255 
3 237 238 239 192 192 192 255 
3 237 239 240 192 192 192 255 
3 241 237 240 192 192 192 255 
3 241 240 242 192 192 192 255 
3 243 244 193 192 192 192 255 
3 244 192 193 192 192 192 255 
3 241 242 245 192 192 192 255 
3 242 246 245 192 192 192 255 
3 245 246 247 192 192 192 255 
3 247 246 248 192 192 192 255 
3 248 246 249 192 192 192 255 
3 249 246 250 192 192 192 255 
3 246 251 250 192 192 192 255 
3 252 250 253 192 192 192 255 
3 250 251 253 192 192 192 255 
3 254 253 251 192 192 192 255 
3 122 80 146 192 192 192 255 
3 122 146 147 192 192 192 255 
3 80 156 157 192 192 192 255 
3 80 157 146 192 192 192 255 
3 116 92 148 192 192 192 255 
3 116 148 149 192 192 192 255 
3 105 104 150 192 192 192 255 
3 105 150 151 192 192 192 255 
3 104 98 152 192 192 192 255 
3 104 152 150 192 192 192 255 
3 212 105 151 192 192 192 255 
3 212 151 255 192 192 192 255 
3 84 116 149 192 192 192 255 
3 84 149 153 192 192 192 255 
3 208 154 155 192 192 192 255 
3 218 122 147 192 192 192 255 
3 218 147 256 192 192 192 255 
3 84 257 230 192 192 192 255 
3 258 257 84 192 192 192 255 
3 258 84 153 192 192 192 255 
3 183 259 260 192 192 192 255 
3 261 259 183 192 192 192 255 
