ply
format ascii 1.0
comment VCGLIB generated
element vertex 144
property float x
property float y
property float z
property float nx
property float ny
property float nz
property uchar red
property uchar green
property uchar blue
property uchar alpha
property float texture_u
property float texture_v
element face 184
property list uchar int vertex_indices
end_header
2.421643 -6.821947 2.106492 -0.2939467 -0.04553166 -0.9547367 75 75 255 255 0.58 0.08500004
4.528175 -4.609333 2.305102 0.1149273 0.3839113 -0.9161898 75 75 255 255 0.58 0.08500004
7.198343 -4.28748 3.767701 0.6331862 0.4463784 -0.6323145 75 75 255 255 0.58 0.08500004
8.55908 -8.852182 6.81924 0.8973058 -0.4395924 -0.04001087 75 75 255 255 0.58 0.08500004
3.782381 -11.38665 5.158031 -0.02982868 -0.9315215 -0.362461 75 75 255 255 0.58 0.08500004
2.112725 -9.629203 3.288213 -0.3539073 -0.5904095 -0.7253732 75 75 255 255 0.58 0.08500004
8.867999 -6.044926 5.637518 0.9572607 0.1052823 -0.2693838 75 75 255 255 0.58 0.08500004
6.452549 -11.0648 6.62063 0.4884322 -0.869059 -0.07855344 75 75 255 255 0.58 0.08500004
-1.961475 -6.768217 14.62789 -0.4269966 -0.8873956 0.1737902 75 75 255 255 0.58 0.08500004
-3.631131 -5.010771 12.75807 -0.8444096 -0.4480334 -0.2936639 75 75 255 255 0.58 0.08500004
0.708693 -6.446364 16.09049 0.2405468 -0.8069329 0.539441 75 75 255 255 0.58 0.08500004
2.815225 -4.233751 16.2891 0.7671804 -0.253778 0.5890933 75 75 255 255 0.58 0.08500004
3.124143 -1.426495 15.10738 0.8444089 0.4480358 0.2936623 75 75 255 255 0.58 0.08500004
1.454487 0.3309503 13.23756 0.426994 0.8873965 -0.1737922 75 75 255 255 0.58 0.08500004
-3.322214 -2.203516 11.57635 -0.7671791 0.2537809 -0.5890939 75 75 255 255 0.58 0.08500004
-1.215681 0.00909853 11.77496 -0.2405468 0.8069329 -0.539441 75 75 255 255 0.58 0.08500004
-6.259474 -0.3945866 20.83531 -0.9572639 -0.105295 0.2693674 75 75 255 255 0.03999998 0.97
-5.51681 -1.176299 21.667 -0.6331833 -0.4463968 0.6323045 75 75 255 255 0.03999998 0.97
-6.122067 0.8540816 20.30968 -0.8973085 0.4395889 0.03999025 75 75 255 255 0.03999998 0.97
-3.392132 -0.04896784 22.40591 0.2939642 0.04552088 0.9547319 75 75 255 255 0.03999998 0.97
-3.997389 1.981412 21.04858 0.02984287 0.9315268 0.3624462 75 75 255 255 0.03999998 0.97
-4.329118 -1.033139 22.31757 -0.1149168 -0.3839284 0.9161841 75 75 255 255 0.03999998 0.97
-3.254725 1.199701 21.88028 0.3539265 0.5904085 0.7253647 75 75 255 255 0.03999998 0.97
-5.185081 1.838253 20.39802 -0.488427 0.8690639 0.07853132 75 75 255 255 0.03999998 0.97
-3.322214 -2.203516 11.57635 -0.7671791 0.2537809 -0.5890939 75 75 255 255 0.04 0.97
-4.886471 -0.9457507 14.15533 -0.767184 0.2537707 -0.5890918 75 75 255 255 0.04 0.97
-2.779938 1.266862 14.35394 -0.2405468 0.8069329 -0.539441 75 75 255 255 0.04 0.97
1.454487 0.3309503 13.23756 0.426994 0.8873965 -0.1737922 75 75 255 255 0.04 0.97
-1.215681 0.00909853 11.77496 -0.2405468 0.8069329 -0.539441 75 75 255 255 0.04 0.97
3.124143 -1.426495 15.10738 0.8444089 0.4480358 0.2936623 75 75 255 255 0.04 0.97
-0.1097708 1.588715 15.81654 0.427003 0.8873935 -0.1737853 75 75 255 255 0.04 0.97
2.815225 -4.233751 16.2891 0.7671804 -0.253778 0.5890933 75 75 255 255 0.04 0.97
1.559885 -0.1687307 17.68636 0.8444116 0.4480266 0.2936686 75 75 255 255 0.04 0.97
0.708693 -6.446364 16.09049 0.2405468 -0.8069329 0.539441 75 75 255 255 0.04 0.97
1.250967 -2.975987 18.86808 0.7671755 -0.2537883 0.5890953 75 75 255 255 0.04 0.97
-0.8555655 -5.188601 18.66947 0.2405467 -0.806933 0.5394409 75 75 255 255 0.04 0.97
-3.525733 -5.510452 17.20687 -0.4269877 -0.8873985 0.1737971 75 75 255 255 0.04 0.97
-1.961475 -6.768217 14.62789 -0.4269966 -0.8873956 0.1737902 75 75 255 255 0.04 0.97
-5.195389 -3.753006 15.33706 -0.844407 -0.4480425 -0.2936578 75 75 255 255 0.04 0.97
-3.631131 -5.010771 12.75807 -0.8444096 -0.4480334 -0.2936639 75 75 255 255 0.04 0.97
-4.886471 -0.9457507 14.15533 -0.767184 0.2537707 -0.5890918 75 75 255 255 0.58 0.08500004
-5.563633 -0.4012685 15.27177 -0.872484 0.3538179 -0.3370231 75 75 255 255 0.58 0.08500004
-3.4571 1.811346 15.47038 -0.3681402 0.8835623 -0.2894657 75 75 255 255 0.58 0.08500004
-0.1097708 1.588715 15.81654 0.427003 0.8873935 -0.1737853 75 75 255 255 0.58 0.08500004
-2.779938 1.266862 14.35394 -0.2405468 0.8069329 -0.539441 75 75 255 255 0.58 0.08500004
1.559885 -0.1687307 17.68636 0.8444116 0.4480266 0.2936686 75 75 255 255 0.58 0.08500004
-0.7869329 2.133197 16.93298 0.2711539 0.9606199 0.06070393 75 75 255 255 0.58 0.08500004
1.250967 -2.975987 18.86808 0.7671755 -0.2537883 0.5890953 75 75 255 255 0.58 0.08500004
0.8827233 0.375752 18.80279 0.6709043 0.5398526 0.5083765 75 75 255 255 0.58 0.08500004
-0.8555655 -5.188601 18.66947 0.2405467 -0.806933 0.5394409 75 75 255 255 0.58 0.08500004
0.5738049 -2.431505 19.98451 0.5969443 -0.1322619 0.7913055 75 75 255 255 0.58 0.08500004
-1.532728 -4.644118 19.7859 0.09259949 -0.6620123 0.7437507 75 75 255 255 0.58 0.08500004
-4.202895 -4.96597 18.32331 -0.5466977 -0.7390662 0.393577 75 75 255 255 0.58 0.08500004
-3.525733 -5.510452 17.20687 -0.4269877 -0.8873985 0.1737971 75 75 255 255 0.58 0.08500004
-5.872551 -3.208524 16.45349 -0.9464465 -0.3182965 -0.05409541 75 75 255 255 0.58 0.08500004
-5.195389 -3.753006 15.33706 -0.844407 -0.4480425 -0.2936578 75 75 255 255 0.58 0.08500004
-5.33078 0.2178349 19.00508 -0.8826414 0.367256 -0.2933721 75 75 255 255 0.58 0.08500004
-4.393794 1.202007 19.09343 -0.38594 0.8889714 -0.2465362 75 75 255 255 0.58 0.08500004
-3.206102 1.345167 19.74399 0.2436652 0.9648622 0.09832776 75 75 255 255 0.58 0.08500004
-2.463438 0.5634542 20.57569 0.6373592 0.5504713 0.5392168 75 75 255 255 0.58 0.08500004
-2.600845 -0.6852136 21.10132 0.5645208 -0.1114584 0.817859 75 75 255 255 0.58 0.08500004
-3.537831 -1.669385 21.01298 0.06781732 -0.6331822 0.771026 75 75 255 255 0.58 0.08500004
-4.725523 -1.812545 20.36241 -0.5617935 -0.7090688 0.4261567 75 75 255 255 0.58 0.08500004
-5.468186 -1.030832 19.53072 -0.9554842 -0.2946743 -0.01473197 75 75 255 255 0.58 0.08500004
-5.33078 0.2178349 19.00508 -0.8826414 0.367256 -0.2933721 75 75 255 255 0.04 0.97
-3.206102 1.345167 19.74399 0.2436652 0.9648622 0.09832776 75 75 255 255 0.04 0.97
-4.393794 1.202007 19.09343 -0.38594 0.8889714 -0.2465362 75 75 255 255 0.04 0.97
-2.463438 0.5634542 20.57569 0.6373592 0.5504713 0.5392168 75 75 255 255 0.04 0.97
-2.600845 -0.6852136 21.10132 0.5645208 -0.1114584 0.817859 75 75 255 255 0.04 0.97
-3.537831 -1.669385 21.01298 0.06781732 -0.6331822 0.771026 75 75 255 255 0.04 0.97
-4.725523 -1.812545 20.36241 -0.5617935 -0.7090688 0.4261567 75 75 255 255 0.04 0.97
-5.468186 -1.030832 19.53072 -0.9554842 -0.2946743 -0.01473197 75 75 255 255 0.04 0.97
-6.843935 -8.730614 0.7081561 -0.01022476 -0.371883 -0.9282233 75 75 255 255 0.58 0.08500004
-4.52135 -10.05999 2.19508 0.4405635 -0.6299162 -0.6396167 75 75 255 255 0.58 0.08500004
-4.118958 -11.1933 5.010442 0.5186629 -0.8498862 -0.09317967 75 75 255 255 0.58 0.08500004
-8.754716 -10.71997 8.217575 -0.3810999 -0.7580089 0.5293254 75 75 255 255 0.58 0.08500004
-11.47969 -8.257278 3.91529 -0.9100051 -0.2800236 -0.3057411 75 75 255 255 0.58 0.08500004
-9.726173 -7.983906 1.420691 -0.5696564 -0.2269519 -0.7899269 75 75 255 255 0.58 0.08500004
-5.872476 -11.46668 7.505041 0.1783288 -0.9029418 0.3910179 75 75 255 255 0.58 0.08500004
-11.0773 -9.390593 6.730652 -0.831912 -0.4999753 0.2407221 75 75 255 255 0.58 0.08500004
-7.754214 2.499114 7.712768 -0.9200913 0.3670037 -0.1368956 75 75 255 255 0.58 0.08500004
-6.000697 2.772487 5.218168 -0.481711 0.4353462 -0.7605447 75 75 255 255 0.58 0.08500004
-7.351824 1.3658 10.52813 -0.8194938 0.08367474 0.5669466 75 75 255 255 0.58 0.08500004
-5.029239 0.03642368 12.01505 -0.2388462 -0.2486699 0.9386777 75 75 255 255 0.58 0.08500004
-2.146999 -0.7102842 11.30252 0.4817135 -0.4353465 0.760543 75 75 255 255 0.58 0.08500004
-0.3934822 -0.4369116 8.80792 0.9200921 -0.3670029 0.1368924 75 75 255 255 0.58 0.08500004
-3.118458 2.025779 4.505634 0.2388492 0.2486688 -0.9386773 75 75 255 255 0.58 0.08500004
-0.7958727 0.6964025 5.992558 0.8194938 -0.08367471 -0.5669466 75 75 255 255 0.58 0.08500004
-2.009862 10.23947 9.884684 -0.1783407 0.902933 -0.3910328 75 75 255 255 0.03999998 0.97
-2.789828 10.11788 10.99428 -0.5186803 0.8498761 0.09317355 75 75 255 255 0.03999998 0.97
-0.7278419 9.907338 9.567749 0.3810975 0.7579978 -0.5293431 75 75 255 255 0.03999998 0.97
-1.577758 9.022473 12.90794 0.01021537 0.3718655 0.9282304 75 75 255 255 0.03999998 0.97
0.4842281 8.811933 11.48141 0.910012 0.2800038 0.3057385 75 75 255 255 0.03999998 0.97
-2.610845 9.61378 12.24656 -0.4405795 0.629903 0.6396186 75 75 255 255 0.03999998 0.97
-0.2957373 8.690337 12.59101 0.569657 0.2269316 0.7899322 75 75 255 255 0.03999998 0.97
0.3052444 9.316031 10.22913 0.8319185 0.4999579 -0.2407361 75 75 255 255 0.03999998 0.97
-3.118458 2.025779 4.505634 0.2388492 0.2486688 -0.9386773 75 75 255 255 0.04 0.97
-2.103876 4.955132 5.539824 0.2388386 0.248673 -0.9386788 75 75 255 255 0.04 0.97
0.218708 3.625755 7.026748 0.8194938 -0.08367473 -0.5669466 75 75 255 255 0.04 0.97
-0.3934822 -0.4369116 8.80792 0.9200921 -0.3670029 0.1368924 75 75 255 255 0.04 0.97
-0.7958727 0.6964025 5.992558 0.8194938 -0.08367471 -0.5669466 75 75 255 255 0.04 0.97
-2.146999 -0.7102842 11.30252 0.4817135 -0.4353465 0.760543 75 75 255 255 0.04 0.97
0.6210995 2.492441 9.842109 0.9200892 -0.3670058 0.1369034 75 75 255 255 0.04 0.97
-5.029239 0.03642368 12.01505 -0.2388462 -0.2486699 0.9386777 75 75 255 255 0.04 0.97
-1.132418 2.219069 12.33671 0.4817041 -0.4353454 0.7605495 75 75 255 255 0.04 0.97
-7.351824 1.3658 10.52813 -0.8194938 0.08367474 0.5669466 75 75 255 255 0.04 0.97
-4.014658 2.965776 13.04924 -0.2388568 -0.2486657 0.9386761 75 75 255 255 0.04 0.97
-6.337242 4.295153 11.56232 -0.8194939 0.08367477 0.5669465 75 75 255 255 0.04 0.97
-6.739634 5.428467 8.746958 -0.920094 0.3670008 -0.1368847 75 75 255 255 0.04 0.97
-7.754214 2.499114 7.712768 -0.9200913 0.3670037 -0.1368956 75 75 255 255 0.04 0.97
-4.986115 5.701839 6.252357 -0.4817203 0.4353472 -0.7605382 75 75 255 255 0.04 0.97
-6.000697 2.772487 5.218168 -0.481711 0.4353462 -0.7605447 75 75 255 255 0.04 0.97
-2.103876 4.955132 5.539824 0.2388386 0.248673 -0.9386788 75 75 255 255 0.58 0.08500004
-1.664668 6.223239 5.98752 0.3180999 0.4961454 -0.807869 75 75 255 255 0.58 0.08500004
0.657917 4.893862 7.474444 0.8741732 0.1778716 -0.4518663 75 75 255 255 0.58 0.08500004
0.6210995 2.492441 9.842109 0.9200892 -0.3670058 0.1369034 75 75 255 255 0.58 0.08500004
0.218708 3.625755 7.026748 0.8194938 -0.08367473 -0.5669466 75 75 255 255 0.58 0.08500004
-1.132418 2.219069 12.33671 0.4817041 -0.4353454 0.7605495 75 75 255 255 0.58 0.08500004
1.060308 3.760548 10.28981 0.9705138 -0.09347206 0.2221848 75 75 255 255 0.58 0.08500004
-4.014658 2.965776 13.04924 -0.2388568 -0.2486657 0.9386761 75 75 255 255 0.58 0.08500004
-0.6932101 3.487175 12.7844 0.5506869 -0.1589233 0.8194433 75 75 255 255 0.58 0.08500004
-6.337242 4.295153 11.56232 -0.8194939 0.08367477 0.5669465 75 75 255 255 0.58 0.08500004
-3.575449 4.233883 13.49694 -0.1393802 0.01985327 0.9900399 75 75 255 255 0.58 0.08500004
-5.898034 5.563259 12.01002 -0.6954595 0.338129 0.6340386 75 75 255 255 0.58 0.08500004
-6.300425 6.696574 9.194654 -0.7917963 0.6094729 -0.0400174 75 75 255 255 0.58 0.08500004
-6.739634 5.428467 8.746958 -0.920094 0.3670008 -0.1368847 75 75 255 255 0.58 0.08500004
-4.546907 6.969945 6.700054 -0.3719671 0.6749231 -0.6372749 75 75 255 255 0.58 0.08500004
-4.986115 5.701839 6.252357 -0.4817203 0.4353472 -0.7605382 75 75 255 255 0.58 0.08500004
-1.241072 8.425511 9.0446 0.3284448 0.5324077 -0.7801706 75 75 255 255 0.58 0.08500004
-0.2079859 7.834205 9.705984 0.87609 0.2189561 -0.4295631 75 75 255 255 0.58 0.08500004
-0.02900171 7.330106 10.95826 0.9709716 -0.04827435 0.2342732 75 75 255 255 0.58 0.08500004
-0.8089676 7.20851 12.06786 0.557507 -0.1127345 0.8224822 75 75 255 255 0.58 0.08500004
-2.090988 7.540647 12.38479 -0.1221032 0.0633327 0.9904947 75 75 255 255 0.58 0.08500004
-3.124075 8.131953 11.72341 -0.6697571 0.376787 0.6398882 75 75 255 255 0.58 0.08500004
-3.303059 8.636052 10.47113 -0.7646346 0.6440188 -0.0239558 75 75 255 255 0.58 0.08500004
-2.523093 8.757648 9.361534 -0.3511662 0.7084768 -0.6121625 75 75 255 255 0.58 0.08500004
-1.241072 8.425511 9.0446 0.3284448 0.5324077 -0.7801706 75 75 255 255 0.04 0.97
-0.02900171 7.330106 10.95826 0.9709716 -0.04827435 0.2342732 75 75 255 255 0.04 0.97
-0.2079859 7.834205 9.705984 0.87609 0.2189561 -0.4295631 75 75 255 255 0.04 0.97
-0.8089676 7.20851 12.06786 0.557507 -0.1127345 0.8224822 75 75 255 255 0.04 0.97
-2.090988 7.540647 12.38479 -0.1221032 0.0633327 0.9904947 75 75 255 255 0.04 0.97
-3.124075 8.131953 11.72341 -0.6697571 0.376787 0.6398882 75 75 255 255 0.04 0.97
-3.303059 8.636052 10.47113 -0.7646346 0.6440188 -0.0239558 75 75 255 255 0.04 0.97
-2.523093 8.757648 9.361534 -0.3511662 0.7084768 -0.6121625 75 75 255 255 0.04 0.97
3 0 1 2 
3 2 3 4 
3 0 4 5 
3 2 6 3 
3 3 7 4 
3 8 9 5 
3 10 8 4 
3 10 7 3 
3 11 3 6 
3 12 6 2 
3 13 2 1 
3 14 15 1 
3 9 14 0 
3 16 17 18 
3 17 19 20 
3 17 21 19 
3 19 22 20 
3 20 23 18 
3 24 25 26 
3 27 28 26 
3 29 27 30 
3 31 29 32 
3 33 31 34 
3 33 35 36 
3 37 36 38 
3 39 38 25 
3 40 41 42 
3 43 44 42 
3 45 43 46 
3 47 45 48 
3 49 47 50 
3 49 51 52 
3 53 52 54 
3 55 54 41 
3 41 56 57 
3 46 42 57 
3 48 46 58 
3 50 48 59 
3 51 50 60 
3 51 61 62 
3 52 62 63 
3 54 63 56 
3 64 18 23 
3 65 66 23 
3 67 65 20 
3 68 67 22 
3 69 68 19 
3 69 21 17 
3 70 17 16 
3 71 16 18 
3 0 2 4 
3 4 8 5 
3 7 10 4 
3 11 10 3 
3 12 11 6 
3 13 12 2 
3 15 13 1 
3 0 14 1 
3 5 9 0 
3 18 17 20 
3 28 24 26 
3 30 27 26 
3 32 29 30 
3 34 31 32 
3 35 33 34 
3 37 33 36 
3 39 37 38 
3 24 39 25 
3 44 40 42 
3 46 43 42 
3 48 45 46 
3 50 47 48 
3 51 49 50 
3 53 49 52 
3 55 53 54 
3 40 55 41 
3 42 41 57 
3 58 46 57 
3 59 48 58 
3 60 50 59 
3 61 51 60 
3 52 51 62 
3 54 52 63 
3 41 54 56 
3 66 64 23 
3 20 65 23 
3 22 67 20 
3 19 68 22 
3 21 69 19 
3 70 69 17 
3 71 70 16 
3 64 71 18 
3 72 73 74 
3 74 75 76 
3 72 76 77 
3 74 78 75 
3 75 79 76 
3 80 81 77 
3 82 80 76 
3 82 79 75 
3 83 75 78 
3 84 78 74 
3 85 74 73 
3 86 87 73 
3 81 86 72 
3 88 89 90 
3 89 91 92 
3 89 93 91 
3 91 94 92 
3 92 95 90 
3 96 97 98 
3 99 100 98 
3 101 99 102 
3 103 101 104 
3 105 103 106 
3 105 107 108 
3 109 108 110 
3 111 110 97 
3 112 113 114 
3 115 116 114 
3 117 115 118 
3 119 117 120 
3 121 119 122 
3 121 123 124 
3 125 124 126 
3 127 126 113 
3 113 128 129 
3 118 114 129 
3 120 118 130 
3 122 120 131 
3 123 122 132 
3 123 133 134 
3 124 134 135 
3 126 135 128 
3 136 90 95 
3 137 138 95 
3 139 137 92 
3 140 139 94 
3 141 140 91 
3 141 93 89 
3 142 89 88 
3 143 88 90 
3 72 74 76 
3 76 80 77 
3 79 82 76 
3 83 82 75 
3 84 83 78 
3 85 84 74 
3 87 85 73 
3 72 86 73 
3 77 81 72 
3 90 89 92 
3 100 96 98 
3 102 99 98 
3 104 101 102 
3 106 103 104 
3 107 105 106 
3 109 105 108 
3 111 109 110 
3 96 111 97 
3 116 112 114 
3 118 115 114 
3 120 117 118 
3 122 119 120 
3 123 121 122 
3 125 121 124 
3 127 125 126 
3 112 127 113 
3 114 113 129 
3 130 118 129 
3 131 120 130 
3 132 122 131 
3 133 123 132 
3 124 123 134 
3 126 124 135 
3 113 126 128 
3 138 136 95 
3 92 137 95 
3 94 139 92 
3 91 140 94 
3 93 141 91 
3 142 141 89 
3 143 142 88 
3 136 143 90 
