ply
format ascii 1.0
comment VCGLIB generated
element vertex 144
property float x
property float y
property float z
property float nx
property float ny
property float nz
property uchar red
property uchar green
property uchar blue
property uchar alpha
property float texture_u
property float texture_v
element face 184
property list uchar int vertex_indices
end_header
0.2421643 0.8178053 0.2106492 -0.2939467 -0.04553166 -0.9547367 75 75 255 255 0.58 0.08500004
0.4528175 1.039067 0.2305102 0.1149273 0.3839114 -0.9161898 75 75 255 255 0.58 0.08500004
0.7198343 1.071252 0.3767701 0.6331862 0.4463784 -0.6323145 75 75 255 255 0.58 0.08500004
0.855908 0.6147817 0.681924 0.8973058 -0.4395924 -0.04001087 75 75 255 255 0.58 0.08500004
0.3782381 0.3613349 0.5158031 -0.02982868 -0.9315215 -0.362461 75 75 255 255 0.58 0.08500004
0.2112725 0.5370797 0.3288213 -0.3539073 -0.5904095 -0.7253732 75 75 255 255 0.58 0.08500004
0.8867999 0.8955074 0.5637518 0.9572607 0.1052823 -0.2693838 75 75 255 255 0.58 0.08500004
0.6452549 0.39352 0.662063 0.4884321 -0.8690589 -0.07855343 75 75 255 255 0.58 0.08500004
-0.1961475 0.8231783 1.462789 -0.4269966 -0.8873956 0.1737902 75 75 255 255 0.58 0.08500004
-0.3631131 0.9989229 1.275807 -0.8444096 -0.4480334 -0.2936639 75 75 255 255 0.58 0.08500004
0.0708693 0.8553636 1.609049 0.2405468 -0.8069329 0.539441 75 75 255 255 0.58 0.08500004
0.2815225 1.076625 1.62891 0.7671804 -0.253778 0.5890933 75 75 255 255 0.58 0.08500004
0.3124143 1.35735 1.510738 0.844409 0.4480358 0.2936623 75 75 255 255 0.58 0.08500004
0.1454487 1.533095 1.323756 0.426994 0.8873965 -0.1737922 75 75 255 255 0.58 0.08500004
-0.3322214 1.279648 1.157635 -0.7671791 0.2537809 -0.5890939 75 75 255 255 0.58 0.08500004
-0.1215681 1.50091 1.177496 -0.2405468 0.8069329 -0.539441 75 75 255 255 0.58 0.08500004
-0.6259474 1.460541 2.083531 -0.9572639 -0.105295 0.2693674 75 75 255 255 0.03999998 0.97
-0.551681 1.38237 2.1667 -0.6331833 -0.4463967 0.6323045 75 75 255 255 0.03999998 0.97
-0.6122067 1.585408 2.030968 -0.8973085 0.4395889 0.03999025 75 75 255 255 0.03999998 0.97
-0.3392132 1.495103 2.240591 0.2939642 0.04552088 0.9547319 75 75 255 255 0.03999998 0.97
-0.3997389 1.698141 2.104858 0.02984287 0.9315268 0.3624462 75 75 255 255 0.03999998 0.97
-0.4329118 1.396686 2.231757 -0.1149168 -0.3839283 0.9161841 75 75 255 255 0.03999998 0.97
-0.3254725 1.61997 2.188028 0.3539265 0.5904085 0.7253647 75 75 255 255 0.03999998 0.97
-0.5185081 1.683825 2.039802 -0.488427 0.8690639 0.07853132 75 75 255 255 0.03999998 0.97
-0.3322214 1.279648 1.157635 -0.7671791 0.2537809 -0.5890939 75 75 255 255 0.04 0.97
-0.4886471 1.405425 1.415533 -0.767184 0.2537707 -0.5890918 75 75 255 255 0.04 0.97
-0.2779938 1.626686 1.435394 -0.2405468 0.8069329 -0.539441 75 75 255 255 0.04 0.97
0.1454487 1.533095 1.323756 0.426994 0.8873965 -0.1737922 75 75 255 255 0.04 0.97
-0.1215681 1.50091 1.177496 -0.2405468 0.8069329 -0.539441 75 75 255 255 0.04 0.97
0.3124143 1.35735 1.510738 0.844409 0.4480358 0.2936623 75 75 255 255 0.04 0.97
-0.01097708 1.658872 1.581654 0.427003 0.8873935 -0.1737853 75 75 255 255 0.04 0.97
0.2815225 1.076625 1.62891 0.7671804 -0.253778 0.5890933 75 75 255 255 0.04 0.97
0.1559885 1.483127 1.768636 0.8444116 0.4480266 0.2936686 75 75 255 255 0.04 0.97
0.0708693 0.8553636 1.609049 0.2405468 -0.8069329 0.539441 75 75 255 255 0.04 0.97
0.1250967 1.202401 1.886808 0.7671755 -0.2537883 0.5890953 75 75 255 255 0.04 0.97
-0.08555655 0.9811399 1.866947 0.2405467 -0.806933 0.5394409 75 75 255 255 0.04 0.97
-0.3525733 0.9489548 1.720687 -0.4269877 -0.8873985 0.1737971 75 75 255 255 0.04 0.97
-0.1961475 0.8231783 1.462789 -0.4269966 -0.8873956 0.1737902 75 75 255 255 0.04 0.97
-0.5195389 1.124699 1.533706 -0.844407 -0.4480425 -0.2936578 75 75 255 255 0.04 0.97
-0.3631131 0.9989229 1.275807 -0.8444096 -0.4480334 -0.2936639 75 75 255 255 0.04 0.97
-0.4886471 1.405425 1.415533 -0.767184 0.2537707 -0.5890918 75 75 255 255 0.58 0.08500004
-0.5563633 1.459873 1.527177 -0.872484 0.3538179 -0.3370231 75 75 255 255 0.58 0.08500004
-0.34571 1.681135 1.547038 -0.3681402 0.8835623 -0.2894657 75 75 255 255 0.58 0.08500004
-0.01097708 1.658872 1.581654 0.427003 0.8873935 -0.1737853 75 75 255 255 0.58 0.08500004
-0.2779938 1.626686 1.435394 -0.2405468 0.8069329 -0.539441 75 75 255 255 0.58 0.08500004
0.1559885 1.483127 1.768636 0.8444116 0.4480266 0.2936686 75 75 255 255 0.58 0.08500004
-0.07869329 1.71332 1.693298 0.2711539 0.9606199 0.06070393 75 75 255 255 0.58 0.08500004
0.1250967 1.202401 1.886808 0.7671755 -0.2537883 0.5890953 75 75 255 255 0.58 0.08500004
0.08827233 1.537575 1.880279 0.6709043 0.5398526 0.5083765 75 75 255 255 0.58 0.08500004
-0.08555655 0.9811399 1.866947 0.2405467 -0.806933 0.5394409 75 75 255 255 0.58 0.08500004
0.05738049 1.25685 1.998451 0.5969443 -0.1322619 0.7913055 75 75 255 255 0.58 0.08500004
-0.1532728 1.035588 1.97859 0.09259949 -0.6620123 0.7437507 75 75 255 255 0.58 0.08500004
-0.4202895 1.003403 1.832331 -0.5466977 -0.7390662 0.393577 75 75 255 255 0.58 0.08500004
-0.3525733 0.9489548 1.720687 -0.4269877 -0.8873985 0.1737971 75 75 255 255 0.58 0.08500004
-0.5872551 1.179148 1.645349 -0.9464465 -0.3182965 -0.05409541 75 75 255 255 0.58 0.08500004
-0.5195389 1.124699 1.533706 -0.844407 -0.4480425 -0.2936578 75 75 255 255 0.58 0.08500004
-0.533078 1.521783 1.900508 -0.8826414 0.367256 -0.2933721 75 75 255 255 0.58 0.08500004
-0.4393794 1.620201 1.909343 -0.38594 0.8889714 -0.2465362 75 75 255 255 0.58 0.08500004
-0.3206102 1.634517 1.974399 0.2436652 0.9648622 0.09832776 75 75 255 255 0.58 0.08500004
-0.2463438 1.556345 2.057569 0.6373591 0.5504712 0.5392168 75 75 255 255 0.58 0.08500004
-0.2600845 1.431479 2.110132 0.5645208 -0.1114584 0.817859 75 75 255 255 0.58 0.08500004
-0.3537831 1.333061 2.101298 0.06781732 -0.6331822 0.771026 75 75 255 255 0.58 0.08500004
-0.4725523 1.318745 2.036241 -0.5617935 -0.7090688 0.4261567 75 75 255 255 0.58 0.08500004
-0.5468186 1.396917 1.953072 -0.9554842 -0.2946743 -0.01473197 75 75 255 255 0.58 0.08500004
-0.533078 1.521783 1.900508 -0.8826414 0.367256 -0.2933721 75 75 255 255 0.04 0.97
-0.3206102 1.634517 1.974399 0.2436652 0.9648622 0.09832776 75 75 255 255 0.04 0.97
-0.4393794 1.620201 1.909343 -0.38594 0.8889714 -0.2465362 75 75 255 255 0.04 0.97
-0.2463438 1.556345 2.057569 0.6373591 0.5504712 0.5392168 75 75 255 255 0.04 0.97
-0.2600845 1.431479 2.110132 0.5645208 -0.1114584 0.817859 75 75 255 255 0.04 0.97
-0.3537831 1.333061 2.101298 0.06781732 -0.6331822 0.771026 75 75 255 255 0.04 0.97
-0.4725523 1.318745 2.036241 -0.5617935 -0.7090688 0.4261567 75 75 255 255 0.04 0.97
-0.5468186 1.396917 1.953072 -0.9554842 -0.2946743 -0.01473197 75 75 255 255 0.04 0.97
-0.6843935 0.6269386 0.07081562 -0.01022476 -0.371883 -0.9282233 75 75 255 255 0.58 0.08500004
-0.452135 0.494001 0.219508 0.4405635 -0.6299162 -0.6396167 75 75 255 255 0.58 0.08500004
-0.4118958 0.38067 0.5010442 0.5186629 -0.8498861 -0.09317967 75 75 255 255 0.58 0.08500004
-0.8754716 0.428003 0.8217575 -0.3810999 -0.7580089 0.5293254 75 75 255 255 0.58 0.08500004
-1.147969 0.6742721 0.391529 -0.9100051 -0.2800236 -0.3057411 75 75 255 255 0.58 0.08500004
-0.9726173 0.7016094 0.1420691 -0.5696564 -0.2269519 -0.7899269 75 75 255 255 0.58 0.08500004
-0.5872476 0.353332 0.7505041 0.1783288 -0.9029418 0.3910179 75 75 255 255 0.58 0.08500004
-1.10773 0.5609407 0.6730652 -0.831912 -0.4999753 0.2407221 75 75 255 255 0.58 0.08500004
-0.7754214 1.749911 0.7712768 -0.9200913 0.3670037 -0.1368956 75 75 255 255 0.58 0.08500004
-0.6000697 1.777249 0.5218168 -0.481711 0.4353462 -0.7605447 75 75 255 255 0.58 0.08500004
-0.7351824 1.63658 1.052813 -0.8194938 0.08367474 0.5669466 75 75 255 255 0.58 0.08500004
-0.5029239 1.503642 1.201505 -0.2388462 -0.2486699 0.9386777 75 75 255 255 0.58 0.08500004
-0.2146999 1.428972 1.130252 0.4817135 -0.4353465 0.760543 75 75 255 255 0.58 0.08500004
-0.03934822 1.456309 0.8807921 0.920092 -0.3670029 0.1368924 75 75 255 255 0.58 0.08500004
-0.3118458 1.702578 0.4505634 0.2388492 0.2486688 -0.9386773 75 75 255 255 0.58 0.08500004
-0.07958727 1.56964 0.5992558 0.8194938 -0.08367471 -0.5669466 75 75 255 255 0.58 0.08500004
-0.2009862 2.523947 0.9884683 -0.1783407 0.902933 -0.3910328 75 75 255 255 0.03999998 0.97
-0.2789828 2.511788 1.099428 -0.5186803 0.8498762 0.09317356 75 75 255 255 0.03999998 0.97
-0.07278419 2.490734 0.9567749 0.3810975 0.7579978 -0.5293431 75 75 255 255 0.03999998 0.97
-0.1577758 2.402247 1.290794 0.01021537 0.3718655 0.9282304 75 75 255 255 0.03999998 0.97
0.04842281 2.381193 1.148141 0.910012 0.2800038 0.3057385 75 75 255 255 0.03999998 0.97
-0.2610845 2.461378 1.224656 -0.4405795 0.629903 0.6396186 75 75 255 255 0.03999998 0.97
-0.02957373 2.369034 1.259101 0.5696571 0.2269316 0.7899323 75 75 255 255 0.03999998 0.97
0.03052444 2.431603 1.022913 0.8319184 0.4999579 -0.2407361 75 75 255 255 0.03999998 0.97
-0.3118458 1.702578 0.4505634 0.2388492 0.2486688 -0.9386773 75 75 255 255 0.04 0.97
-0.2103876 1.995513 0.5539824 0.2388386 0.248673 -0.9386789 75 75 255 255 0.04 0.97
0.0218708 1.862576 0.7026748 0.8194938 -0.08367473 -0.5669466 75 75 255 255 0.04 0.97
-0.03934822 1.456309 0.8807921 0.920092 -0.3670029 0.1368924 75 75 255 255 0.04 0.97
-0.07958727 1.56964 0.5992558 0.8194938 -0.08367471 -0.5669466 75 75 255 255 0.04 0.97
-0.2146999 1.428972 1.130252 0.4817135 -0.4353465 0.760543 75 75 255 255 0.04 0.97
0.06210995 1.749244 0.9842109 0.9200892 -0.3670058 0.1369034 75 75 255 255 0.04 0.97
-0.5029239 1.503642 1.201505 -0.2388462 -0.2486699 0.9386777 75 75 255 255 0.04 0.97
-0.1132418 1.721907 1.233671 0.4817041 -0.4353454 0.7605495 75 75 255 255 0.04 0.97
-0.7351824 1.63658 1.052813 -0.8194938 0.08367474 0.5669466 75 75 255 255 0.04 0.97
-0.4014658 1.796578 1.304924 -0.2388568 -0.2486657 0.9386761 75 75 255 255 0.04 0.97
-0.6337242 1.929515 1.156232 -0.8194939 0.08367478 0.5669466 75 75 255 255 0.04 0.97
-0.6739634 2.042847 0.8746958 -0.920094 0.3670008 -0.1368847 75 75 255 255 0.04 0.97
-0.7754214 1.749911 0.7712768 -0.9200913 0.3670037 -0.1368956 75 75 255 255 0.04 0.97
-0.4986115 2.070184 0.6252357 -0.4817203 0.4353472 -0.7605382 75 75 255 255 0.04 0.97
-0.6000697 1.777249 0.5218168 -0.481711 0.4353462 -0.7605447 75 75 255 255 0.04 0.97
-0.2103876 1.995513 0.5539824 0.2388386 0.248673 -0.9386789 75 75 255 255 0.58 0.08500004
-0.1664668 2.122324 0.598752 0.3180999 0.4961454 -0.807869 75 75 255 255 0.58 0.08500004
0.0657917 1.989386 0.7474444 0.8741731 0.1778716 -0.4518662 75 75 255 255 0.58 0.08500004
0.06210995 1.749244 0.9842109 0.9200892 -0.3670058 0.1369034 75 75 255 255 0.58 0.08500004
0.0218708 1.862576 0.7026748 0.8194938 -0.08367473 -0.5669466 75 75 255 255 0.58 0.08500004
-0.1132418 1.721907 1.233671 0.4817041 -0.4353454 0.7605495 75 75 255 255 0.58 0.08500004
0.1060308 1.876055 1.028981 0.9705138 -0.09347206 0.2221848 75 75 255 255 0.58 0.08500004
-0.4014658 1.796578 1.304924 -0.2388568 -0.2486657 0.9386761 75 75 255 255 0.58 0.08500004
-0.06932101 1.848717 1.27844 0.550687 -0.1589233 0.8194433 75 75 255 255 0.58 0.08500004
-0.6337242 1.929515 1.156232 -0.8194939 0.08367478 0.5669466 75 75 255 255 0.58 0.08500004
-0.3575449 1.923388 1.349694 -0.1393802 0.01985327 0.9900399 75 75 255 255 0.58 0.08500004
-0.5898034 2.056326 1.201002 -0.6954595 0.338129 0.6340386 75 75 255 255 0.58 0.08500004
-0.6300425 2.169657 0.9194655 -0.7917963 0.6094729 -0.0400174 75 75 255 255 0.58 0.08500004
-0.6739634 2.042847 0.8746958 -0.920094 0.3670008 -0.1368847 75 75 255 255 0.58 0.08500004
-0.4546907 2.196995 0.6700054 -0.3719671 0.6749231 -0.6372749 75 75 255 255 0.58 0.08500004
-0.4986115 2.070184 0.6252357 -0.4817203 0.4353472 -0.7605382 75 75 255 255 0.58 0.08500004
-0.1241072 2.342551 0.90446 0.3284448 0.5324077 -0.7801706 75 75 255 255 0.58 0.08500004
-0.02079859 2.283421 0.9705984 0.87609 0.2189561 -0.4295631 75 75 255 255 0.58 0.08500004
-0.002900171 2.233011 1.095826 0.9709715 -0.04827435 0.2342732 75 75 255 255 0.58 0.08500004
-0.08089676 2.220851 1.206786 0.557507 -0.1127345 0.8224822 75 75 255 255 0.58 0.08500004
-0.2090988 2.254065 1.238479 -0.1221032 0.0633327 0.9904947 75 75 255 255 0.58 0.08500004
-0.3124075 2.313195 1.172341 -0.6697571 0.376787 0.6398882 75 75 255 255 0.58 0.08500004
-0.3303059 2.363605 1.047113 -0.7646345 0.6440188 -0.0239558 75 75 255 255 0.58 0.08500004
-0.2523093 2.375765 0.9361534 -0.3511662 0.7084768 -0.6121625 75 75 255 255 0.58 0.08500004
-0.1241072 2.342551 0.90446 0.3284448 0.5324077 -0.7801706 75 75 255 255 0.04 0.97
-0.002900171 2.233011 1.095826 0.9709715 -0.04827435 0.2342732 75 75 255 255 0.04 0.97
-0.02079859 2.283421 0.9705984 0.87609 0.2189561 -0.4295631 75 75 255 255 0.04 0.97
-0.08089676 2.220851 1.206786 0.557507 -0.1127345 0.8224822 75 75 255 255 0.04 0.97
-0.2090988 2.254065 1.238479 -0.1221032 0.0633327 0.9904947 75 75 255 255 0.04 0.97
-0.3124075 2.313195 1.172341 -0.6697571 0.376787 0.6398882 75 75 255 255 0.04 0.97
-0.3303059 2.363605 1.047113 -0.7646345 0.6440188 -0.0239558 75 75 255 255 0.04 0.97
-0.2523093 2.375765 0.9361534 -0.3511662 0.7084768 -0.6121625 75 75 255 255 0.04 0.97
3 0 1 2 
3 2 3 4 
3 0 4 5 
3 2 6 3 
3 3 7 4 
3 8 9 5 
3 10 8 4 
3 10 7 3 
3 11 3 6 
3 12 6 2 
3 13 2 1 
3 14 15 1 
3 9 14 0 
3 16 17 18 
3 17 19 20 
3 17 21 19 
3 19 22 20 
3 20 23 18 
3 24 25 26 
3 27 28 26 
3 29 27 30 
3 31 29 32 
3 33 31 34 
3 33 35 36 
3 37 36 38 
3 39 38 25 
3 40 41 42 
3 43 44 42 
3 45 43 46 
3 47 45 48 
3 49 47 50 
3 49 51 52 
3 53 52 54 
3 55 54 41 
3 41 56 57 
3 46 42 57 
3 48 46 58 
3 50 48 59 
3 51 50 60 
3 51 61 62 
3 52 62 63 
3 54 63 56 
3 64 18 23 
3 65 66 23 
3 67 65 20 
3 68 67 22 
3 69 68 19 
3 69 21 17 
3 70 17 16 
3 71 16 18 
3 0 2 4 
3 4 8 5 
3 7 10 4 
3 11 10 3 
3 12 11 6 
3 13 12 2 
3 15 13 1 
3 0 14 1 
3 5 9 0 
3 18 17 20 
3 28 24 26 
3 30 27 26 
3 32 29 30 
3 34 31 32 
3 35 33 34 
3 37 33 36 
3 39 37 38 
3 24 39 25 
3 44 40 42 
3 46 43 42 
3 48 45 46 
3 50 47 48 
3 51 49 50 
3 53 49 52 
3 55 53 54 
3 40 55 41 
3 42 41 57 
3 58 46 57 
3 59 48 58 
3 60 50 59 
3 61 51 60 
3 52 51 62 
3 54 52 63 
3 41 54 56 
3 66 64 23 
3 20 65 23 
3 22 67 20 
3 19 68 22 
3 21 69 19 
3 70 69 17 
3 71 70 16 
3 64 71 18 
3 72 73 74 
3 74 75 76 
3 72 76 77 
3 74 78 75 
3 75 79 76 
3 80 81 77 
3 82 80 76 
3 82 79 75 
3 83 75 78 
3 84 78 74 
3 85 74 73 
3 86 87 73 
3 81 86 72 
3 88 89 90 
3 89 91 92 
3 89 93 91 
3 91 94 92 
3 92 95 90 
3 96 97 98 
3 99 100 98 
3 101 99 102 
3 103 101 104 
3 105 103 106 
3 105 107 108 
3 109 108 110 
3 111 110 97 
3 112 113 114 
3 115 116 114 
3 117 115 118 
3 119 117 120 
3 121 119 122 
3 121 123 124 
3 125 124 126 
3 127 126 113 
3 113 128 129 
3 118 114 129 
3 120 118 130 
3 122 120 131 
3 123 122 132 
3 123 133 134 
3 124 134 135 
3 126 135 128 
3 136 90 95 
3 137 138 95 
3 139 137 92 
3 140 139 94 
3 141 140 91 
3 141 93 89 
3 142 89 88 
3 143 88 90 
3 72 74 76 
3 76 80 77 
3 79 82 76 
3 83 82 75 
3 84 83 78 
3 85 84 74 
3 87 85 73 
3 72 86 73 
3 77 81 72 
3 90 89 92 
3 100 96 98 
3 102 99 98 
3 104 101 102 
3 106 103 104 
3 107 105 106 
3 109 105 108 
3 111 109 110 
3 96 111 97 
3 116 112 114 
3 118 115 114 
3 120 117 118 
3 122 119 120 
3 123 121 122 
3 125 121 124 
3 127 125 126 
3 112 127 113 
3 114 113 129 
3 130 118 129 
3 131 120 130 
3 132 122 131 
3 133 123 132 
3 124 123 134 
3 126 124 135 
3 113 126 128 
3 138 136 95 
3 92 137 95 
3 94 139 92 
3 91 140 94 
3 93 141 91 
3 142 141 89 
3 143 142 88 
3 136 143 90 
