ply
format ascii 1.0
comment VCGLIB generated
element vertex 160
property float x
property float y
property float z
property float nx
property float ny
property float nz
property uchar red
property uchar green
property uchar blue
property uchar alpha
property float texture_u
property float texture_v
element face 8
property list uchar int vertex_indices
end_header
-0.1997952 -6.497271 -0.9727647 -0 -0 -0 255 255 255 255 -0.1997952 -6.497271
-2.768134 -6.497271 -0.5415133 -0 -0 -0 255 255 255 255 -2.768134 -6.497271
1.265632 -6.497271 1.402833 -0 -0 -0 255 255 255 255 1.265632 -6.497271
1.265632 -6.497271 0.0791564 -0 -0 -0 255 255 255 255 1.265632 -6.497271
1.265632 -7.469932 0.0791564 -0 -0 -0 255 255 255 255 1.265632 -7.469932
1.265632 -7.469932 1.402833 -0 -0 -0 255 255 255 255 1.265632 -7.469932
-2.768134 -7.469932 -0.5415133 -0 -0 -0 255 255 255 255 -2.768134 -7.469932
-0.1997952 -7.469932 -0.9727647 -0 -0 -0 255 255 255 255 -0.1997952 -7.469932
1.265632 -7.469932 0.0791564 -0 -0 -0 255 255 255 255 1.265632 -7.469932
-0.1997952 -7.469932 -0.9727647 -0 -0 -0 255 255 255 255 -0.1997952 -7.469932
-0.1997952 -5.531164 -0.9727648 -0 -0 -0 255 255 255 255 -0.1997952 -5.531164
-2.768134 -5.531164 -0.5415134 -0 -0 -0 255 255 255 255 -2.768134 -5.531164
1.265632 -5.531164 1.402832 -0 -0 -0 255 255 255 255 1.265632 -5.531164
1.265632 -5.531164 0.07915628 -0 -0 -0 255 255 255 255 1.265632 -5.531164
1.265632 -6.426656 0.07915628 -0 -0 -0 255 255 255 255 1.265632 -6.426656
1.265632 -6.426656 1.402832 -0 -0 -0 255 255 255 255 1.265632 -6.426656
-2.768134 -6.426656 -0.5415133 -0 -0 -0 255 255 255 255 -2.768134 -6.426656
-0.1997952 -6.426656 -0.9727647 -0 -0 -0 255 255 255 255 -0.1997952 -6.426656
1.265632 -6.426656 0.07915628 -0 -0 -0 255 255 255 255 1.265632 -6.426656
-0.1997952 -6.426656 -0.9727647 -0 -0 -0 255 255 255 255 -0.1997952 -6.426656
-2.542764 -6.497271 -0.4640507 -0 -0 -0 255 255 255 255 -2.542764 -6.497271
-3.265632 -6.497271 -0.3250397 -0 -0 -0 255 255 255 255 -3.265632 -6.497271
1.265632 -6.497271 1.972765 -0 -0 -0 255 255 255 255 1.265632 -6.497271
1.265632 -6.497271 1.581216 -0 -0 -0 255 255 255 255 1.265632 -6.497271
1.265632 -7.469932 1.581216 -0 -0 -0 255 255 255 255 1.265632 -7.469932
1.265632 -7.469932 1.972765 -0 -0 -0 255 255 255 255 1.265632 -7.469932
-3.265632 -7.469932 -0.3250397 -0 -0 -0 255 255 255 255 -3.265632 -7.469932
-2.542764 -7.469932 -0.4640507 -0 -0 -0 255 255 255 255 -2.542764 -7.469932
1.265632 -7.469932 1.581216 -0 -0 -0 255 255 255 255 1.265632 -7.469932
-2.542764 -7.469932 -0.4640507 -0 -0 -0 255 255 255 255 -2.542764 -7.469932
-2.542764 -5.531164 -0.4640508 -0 -0 -0 255 255 255 255 -2.542764 -5.531164
-3.265632 -5.531164 -0.3250398 -0 -0 -0 255 255 255 255 -3.265632 -5.531164
1.265632 -5.531164 1.972765 -0 -0 -0 255 255 255 255 1.265632 -5.531164
1.265632 -5.531164 1.581216 -0 -0 -0 255 255 255 255 1.265632 -5.531164
1.265632 -6.426656 1.581216 -0 -0 -0 255 255 255 255 1.265632 -6.426656
1.265632 -6.426656 1.972765 -0 -0 -0 255 255 255 255 1.265632 -6.426656
-3.265632 -6.426656 -0.3250398 -0 -0 -0 255 255 255 255 -3.265632 -6.426656
-2.542764 -6.426656 -0.4640507 -0 -0 -0 255 255 255 255 -2.542764 -6.426656
1.265632 -6.426656 1.581216 -0 -0 -0 255 255 255 255 1.265632 -6.426656
-2.542764 -6.426656 -0.4640507 -0 -0 -0 255 255 255 255 -2.542764 -6.426656
-0.1997952 0.4652405 -0.9727647 -0.3238059 -0.831664 0.4510928 255 255 255 255 -0.1997952 0.4652405
-2.768134 0.4652405 -0.5415133 0.4042778 -0.3648403 -0.8387199 255 255 255 255 -2.768134 0.4652405
1.265632 0.4652405 1.402833 0.3533674 -0.5811148 -0.733101 255 255 255 255 1.265632 0.4652405
1.265632 0.4652402 0.0791564 -0.3395294 -0.8130153 0.4729968 255 255 255 255 1.265632 0.4652402
1.265632 -0.4688363 0.0791564 -0 1 -0 255 255 255 255 1.265632 -0.4688363
1.265632 -0.4688363 1.402833 0.3533675 0.5811149 -0.7331009 255 255 255 255 1.265632 -0.4688363
-2.768134 -0.4688363 -0.5415133 0.4042778 0.3648404 -0.8387199 255 255 255 255 -2.768134 -0.4688363
-0.1997952 -0.4688363 -0.9727647 -0 1 -0 255 255 255 255 -0.1997952 -0.4688363
1.265632 -0.4688363 0.0791564 -0.5831407 -0 0.8123711 255 255 255 255 1.265632 -0.4688363
-0.1997952 -0.4688363 -0.9727647 -0.5831408 -0 0.8123711 255 255 255 255 -0.1997952 -0.4688363
-0.1997952 1.469932 -0.9727648 -0 -0 -0 255 255 255 255 -0.1997952 1.469932
-2.768134 1.469932 -0.5415134 -0 -0 -0 255 255 255 255 -2.768134 1.469932
1.265632 1.469932 1.402832 -0 -0 -0 255 255 255 255 1.265632 1.469932
1.265632 1.469932 0.07915628 -0 -0 -0 255 255 255 255 1.265632 1.469932
1.265632 0.5358553 0.0791564 -0 -0 -0 255 255 255 255 1.265632 0.5358553
1.265632 0.5358555 1.402833 -0 -0 -0 255 255 255 255 1.265632 0.5358555
-2.768134 0.5358553 -0.5415133 -0 -0 -0 255 255 255 255 -2.768134 0.5358553
-0.1997952 0.5358553 -0.9727647 -0 -0 -0 255 255 255 255 -0.1997952 0.5358553
1.265632 0.5358553 0.0791564 -0 -0 -0 255 255 255 255 1.265632 0.5358553
-0.1997952 0.5358553 -0.9727647 -0 -0 -0 255 255 255 255 -0.1997952 0.5358553
-2.542764 0.4652405 -0.4640507 -0 -0 -0 255 255 255 255 -2.542764 0.4652405
-3.265632 0.4652405 -0.3250397 -0 -0 -0 255 255 255 255 -3.265632 0.4652405
1.265632 0.4652405 1.972765 -0 -0 -0 255 255 255 255 1.265632 0.4652405
1.265632 0.4652405 1.581216 -0 -0 -0 255 255 255 255 1.265632 0.4652405
1.265632 -0.4688363 1.581216 -0 -0 -0 255 255 255 255 1.265632 -0.4688363
1.265632 -0.4688363 1.972765 -0 -0 -0 255 255 255 255 1.265632 -0.4688363
-3.265632 -0.4688363 -0.3250397 -0 -0 -0 255 255 255 255 -3.265632 -0.4688363
-2.542764 -0.4688363 -0.4640507 -0 -0 -0 255 255 255 255 -2.542764 -0.4688363
1.265632 -0.4688363 1.581216 -0 -0 -0 255 255 255 255 1.265632 -0.4688363
-2.542764 -0.4688363 -0.4640507 -0 -0 -0 255 255 255 255 -2.542764 -0.4688363
-2.542764 1.469932 -0.4640508 -0 -0 -0 255 255 255 255 -2.542764 1.469932
-3.265632 1.469932 -0.3250398 -0 -0 -0 255 255 255 255 -3.265632 1.469932
1.265632 1.469932 1.972765 -0 -0 -0 255 255 255 255 1.265632 1.469932
1.265632 1.469932 1.581216 -0 -0 -0 255 255 255 255 1.265632 1.469932
1.265632 0.5358555 1.581216 -0 -0 -0 255 255 255 255 1.265632 0.5358555
1.265632 0.5358555 1.972765 -0 -0 -0 255 255 255 255 1.265632 0.5358555
-3.265632 0.5358553 -0.3250397 -0 -0 -0 255 255 255 255 -3.265632 0.5358553
-2.542764 0.5358553 -0.4640507 -0 -0 -0 255 255 255 255 -2.542764 0.5358553
1.265632 0.5358555 1.581216 -0 -0 -0 255 255 255 255 1.265632 0.5358555
-2.542764 0.5358553 -0.4640507 -0 -0 -0 255 255 255 255 -2.542764 0.5358553
-0.1997952 -4.45474 -0.9727647 -0 -0 -0 255 255 255 255 -0.1997952 -4.45474
-2.768134 -4.301601 -0.5415133 -0 -0 -0 255 255 255 255 -2.768134 -4.301601
1.265632 -4.301601 1.402832 -0 -0 -0 255 255 255 255 1.265632 -4.301601
1.265632 -4.301601 0.07915628 -0 -0 -0 255 255 255 255 1.265632 -4.301601
1.265632 -5.388817 0.0791564 -0 -0 -0 255 255 255 255 1.265632 -5.388817
1.265632 -5.388817 1.402833 -0 -0 -0 255 255 255 255 1.265632 -5.388817
-2.768134 -5.388817 -0.5415133 -0 -0 -0 255 255 255 255 -2.768134 -5.388817
-0.1997952 -5.388817 -0.9727647 -0 -0 -0 255 255 255 255 -0.1997952 -5.388817
1.265632 -5.388817 0.0791564 -0 -0 -0 255 255 255 255 1.265632 -5.388817
-0.1997952 -5.388817 -0.9727647 -0 -0 -0 255 255 255 255 -0.1997952 -5.388817
-0.1997952 -3.450048 -0.9727648 -0 -0 -0 255 255 255 255 -0.1997952 -3.450048
-2.768134 -3.450048 -0.5415134 -0 -0 -0 255 255 255 255 -2.768134 -3.450048
1.265632 -3.450048 1.402832 -0 -0 -0 255 255 255 255 1.265632 -3.450048
1.265632 -3.450048 0.07915628 -0 -0 -0 255 255 255 255 1.265632 -3.450048
1.265632 -4.230987 0.07915628 -0 -0 -0 255 255 255 255 1.265632 -4.230987
1.265632 -4.230987 1.402832 -0 -0 -0 255 255 255 255 1.265632 -4.230987
-2.768134 -4.230987 -0.5415133 -0 -0 -0 255 255 255 255 -2.768134 -4.230987
-0.1997952 -4.230987 -0.9727647 -0 -0 -0 255 255 255 255 -0.1997952 -4.230987
1.265632 -4.230987 0.07915628 -0 -0 -0 255 255 255 255 1.265632 -4.230987
-0.1997952 -4.230987 -0.9727647 -0 -0 -0 255 255 255 255 -0.1997952 -4.230987
-2.542764 -4.301601 -0.4640507 -0 -0 -0 255 255 255 255 -2.542764 -4.301601
-3.265632 -4.301601 -0.3250398 -0 -0 -0 255 255 255 255 -3.265632 -4.301601
1.265632 -4.301601 1.972765 -0 -0 -0 255 255 255 255 1.265632 -4.301601
1.265632 -4.301601 1.581216 -0 -0 -0 255 255 255 255 1.265632 -4.301601
1.265632 -5.388817 1.581216 -0 -0 -0 255 255 255 255 1.265632 -5.388817
1.265632 -5.388816 1.972765 -0 -0 -0 255 255 255 255 1.265632 -5.388816
-3.265632 -5.388817 -0.3250397 -0 -0 -0 255 255 255 255 -3.265632 -5.388817
-2.542764 -5.388817 -0.4640507 -0 -0 -0 255 255 255 255 -2.542764 -5.388817
1.265632 -5.388817 1.581216 -0 -0 -0 255 255 255 255 1.265632 -5.388817
-2.542764 -5.388817 -0.4640507 -0 -0 -0 255 255 255 255 -2.542764 -5.388817
-2.542764 -3.450048 -0.4640508 -0 -0 -0 255 255 255 255 -2.542764 -3.450048
-3.265632 -3.450048 -0.3250398 -0 -0 -0 255 255 255 255 -3.265632 -3.450048
1.265632 -3.450048 1.972765 -0 -0 -0 255 255 255 255 1.265632 -3.450048
1.265632 -3.450048 1.581216 -0 -0 -0 255 255 255 255 1.265632 -3.450048
1.265632 -4.230987 1.581216 -0 -0 -0 255 255 255 255 1.265632 -4.230987
1.265632 -4.230987 1.972765 -0 -0 -0 255 255 255 255 1.265632 -4.230987
-3.265632 -4.230987 -0.3250398 -0 -0 -0 255 255 255 255 -3.265632 -4.230987
-2.542764 -4.230987 -0.4640507 -0 -0 -0 255 255 255 255 -2.542764 -4.230987
1.265632 -4.230987 1.581216 -0 -0 -0 255 255 255 255 1.265632 -4.230987
-2.542764 -4.230987 -0.4640507 -0 -0 -0 255 255 255 255 -2.542764 -4.230987
-0.1997952 -1.718237 -0.9727647 -0 -0 -0 255 255 255 255 -0.1997952 -1.718237
-2.768134 -1.718237 -0.5415133 -0 -0 -0 255 255 255 255 -2.768134 -1.718237
1.265632 -1.718237 1.402833 -0 -0 -0 255 255 255 255 1.265632 -1.718237
1.265632 -1.718237 0.0791564 -0 -0 -0 255 255 255 255 1.265632 -1.718237
1.265632 -2.652314 0.0791564 -0 -0 -0 255 255 255 255 1.265632 -2.652314
1.265632 -2.652314 1.402833 -0 -0 -0 255 255 255 255 1.265632 -2.652314
-2.768134 -2.652314 -0.5415133 -0 -0 -0 255 255 255 255 -2.768134 -2.652314
-0.1997952 -2.652314 -0.9727647 -0 -0 -0 255 255 255 255 -0.1997952 -2.652314
1.265632 -2.652314 0.0791564 -0 -0 -0 255 255 255 255 1.265632 -2.652314
-0.1997952 -2.652314 -0.9727647 -0 -0 -0 255 255 255 255 -0.1997952 -2.652314
-0.1997952 -0.7135456 -0.9727648 -0 -0 -0 255 255 255 255 -0.1997952 -0.7135456
-2.768134 -0.7135456 -0.5415134 -0 -0 -0 255 255 255 255 -2.768134 -0.7135456
1.265632 -0.7135456 1.402832 -0 -0 -0 255 255 255 255 1.265632 -0.7135456
1.265632 -0.7135456 0.07915628 -0 -0 -0 255 255 255 255 1.265632 -0.7135456
1.265632 -1.647622 0.0791564 -0 -0 -0 255 255 255 255 1.265632 -1.647622
1.265632 -1.647622 1.402833 -0 -0 -0 255 255 255 255 1.265632 -1.647622
-2.768134 -1.647622 -0.5415133 -0 -0 -0 255 255 255 255 -2.768134 -1.647622
-0.1997952 -1.647622 -0.9727647 -0 -0 -0 255 255 255 255 -0.1997952 -1.647622
1.265632 -1.647622 0.0791564 -0 -0 -0 255 255 255 255 1.265632 -1.647622
-0.1997952 -1.647622 -0.9727647 -0 -0 -0 255 255 255 255 -0.1997952 -1.647622
-2.542764 -1.718237 -0.4640507 -0 -0 -0 255 255 255 255 -2.542764 -1.718237
-3.265632 -1.718237 -0.3250397 -0 -0 -0 255 255 255 255 -3.265632 -1.718237
1.265632 -1.718237 1.972765 -0 -0 -0 255 255 255 255 1.265632 -1.718237
1.265632 -1.718237 1.581216 -0 -0 -0 255 255 255 255 1.265632 -1.718237
1.265632 -2.652314 1.581216 -0 -0 -0 255 255 255 255 1.265632 -2.652314
1.265632 -2.652314 1.972765 -0 -0 -0 255 255 255 255 1.265632 -2.652314
-3.265632 -2.652314 -0.3250397 -0 -0 -0 255 255 255 255 -3.265632 -2.652314
-2.542764 -2.652314 -0.4640507 -0 -0 -0 255 255 255 255 -2.542764 -2.652314
1.265632 -2.652314 1.581216 -0 -0 -0 255 255 255 255 1.265632 -2.652314
-2.542764 -2.652314 -0.4640507 -0 -0 -0 255 255 255 255 -2.542764 -2.652314
-2.542764 -0.7135456 -0.4640508 -0 -0 -0 255 255 255 255 -2.542764 -0.7135456
-3.265632 -0.7135456 -0.3250398 -0 -0 -0 255 255 255 255 -3.265632 -0.7135456
1.265632 -0.7135456 1.972765 -0 -0 -0 255 255 255 255 1.265632 -0.7135456
1.265632 -0.7135456 1.581216 -0 -0 -0 255 255 255 255 1.265632 -0.7135456
1.265632 -1.647622 1.581216 -0 -0 -0 255 255 255 255 1.265632 -1.647622
1.265632 -1.647622 1.972765 -0 -0 -0 255 255 255 255 1.265632 -1.647622
-3.265632 -1.647622 -0.3250397 -0 -0 -0 255 255 255 255 -3.265632 -1.647622
-2.542764 -1.647622 -0.4640507 -0 -0 -0 255 255 255 255 -2.542764 -1.647622
1.265632 -1.647622 1.581216 -0 -0 -0 255 255 255 255 1.265632 -1.647622
-2.542764 -1.647622 -0.4640507 -0 -0 -0 255 255 255 255 -2.542764 -1.647622
3 40 41 42 
3 40 42 43 
3 44 45 46 
3 44 46 47 
3 40 43 48 
3 40 48 49 
3 42 41 46 
3 42 46 45 
