ply
format ascii 1.0
comment VCGLIB generated
element vertex 160
property float x
property float y
property float z
property float nx
property float ny
property float nz
property uchar red
property uchar green
property uchar blue
property uchar alpha
property float texture_u
property float texture_v
element face 8
property list uchar int vertex_indices
end_header
-0.1997952 -6.497271 -0.9727647 0.4123428 0.7071068 -0.5744331 255 255 0 255 0.3458754 0.01059386
-2.768134 -6.497271 -0.5415133 -0.3070311 0.7071068 0.6369709 255 255 0 255 0.5676406 0.01057658
1.265632 -6.497271 1.402833 -0.3070311 0.7071068 0.6369709 255 255 0 255 0.5676405 0.9953445
1.265632 -6.497271 0.0791564 0.4123428 0.7071068 -0.5744331 255 255 0 255 0.3458754 0.9983411
1.265632 -7.469932 0.0791564 0 -1 0 255 255 0 255 0.9659203 0.9983411
1.265632 -7.469932 1.402833 -0.3070311 -0.7071068 0.6369709 255 255 0 255 0.7441552 0.9953445
-2.768134 -7.469932 -0.5415133 -0.3070311 -0.7071068 0.6369709 255 255 0 255 0.7441552 0.01057658
-0.1997952 -7.469932 -0.9727647 0 -1 0 255 255 0 255 0.9659203 0.01059386
1.265632 -7.469932 0.0791564 0.5831409 0 -0.8123711 255 255 0 255 0.1693609 0.9983411
-0.1997952 -7.469932 -0.9727647 0.5831409 0 -0.8123711 255 255 0 255 0.1693608 0.01059386
-0.1997952 -5.531164 -0.9727648 0.4123428 0.7071068 -0.5744331 255 255 0 255 0.3458754 0.01059386
-2.768134 -5.531164 -0.5415134 -0.3070311 0.7071068 0.6369709 255 255 0 255 0.5676406 0.01057658
1.265632 -5.531164 1.402832 -0.3070311 0.7071068 0.6369709 255 255 0 255 0.5676405 0.9953445
1.265632 -5.531164 0.07915628 0.4123428 0.7071068 -0.5744331 255 255 0 255 0.3458754 0.9983411
1.265632 -6.426656 0.07915628 0 -1 0 255 255 0 255 0.9659203 0.9983411
1.265632 -6.426656 1.402832 -0.3070311 -0.7071068 0.6369709 255 255 0 255 0.7441552 0.9953445
-2.768134 -6.426656 -0.5415133 -0.3070311 -0.7071068 0.6369709 255 255 0 255 0.7441552 0.01057658
-0.1997952 -6.426656 -0.9727647 0 -1 0 255 255 0 255 0.9659203 0.01059386
1.265632 -6.426656 0.07915628 0.5831408 -5.407208e-08 -0.8123711 255 255 0 255 0.1693609 0.9983411
-0.1997952 -6.426656 -0.9727647 0.5831408 -5.407208e-08 -0.8123711 255 255 0 255 0.1693608 0.01059386
-2.542764 -6.497271 -0.4640507 0.3345533 0.7071068 -0.622956 255 255 0 255 0.3458754 0.006691396
-3.265632 -6.497271 -0.3250397 -0.3198048 0.7071068 0.6306543 255 255 0 255 0.5676406 0.01057658
1.265632 -6.497271 1.972765 -0.3198048 0.7071068 0.6306543 255 255 0 255 0.5676405 0.9953445
1.265632 -6.497271 1.581216 0.3345533 0.7071068 -0.622956 255 255 0 255 0.3458754 0.9983411
1.265632 -7.469932 1.581216 0 -1 0 255 255 0 255 0.9659203 0.9983411
1.265632 -7.469932 1.972765 -0.3198048 -0.7071068 0.6306543 255 255 0 255 0.7441552 0.9953445
-3.265632 -7.469932 -0.3250397 -0.3198048 -0.7071068 0.6306543 255 255 0 255 0.7441552 0.01057658
-2.542764 -7.469932 -0.4640507 0 -1 0 255 255 0 255 0.9659203 0.007851541
1.265632 -7.469932 1.581216 0.4731298 0 -0.8809928 255 255 0 255 0.1693609 0.9983411
-2.542764 -7.469932 -0.4640507 0.4731298 0 -0.8809928 255 255 0 255 0.1693608 0.004463643
-2.542764 -5.531164 -0.4640508 0.3345532 0.7071068 -0.622956 255 255 0 255 0.3458754 0.006691396
-3.265632 -5.531164 -0.3250398 -0.3198048 0.7071068 0.6306543 255 255 0 255 0.5676406 0.01057658
1.265632 -5.531164 1.972765 -0.3198048 0.7071068 0.6306543 255 255 0 255 0.5676405 0.9953445
1.265632 -5.531164 1.581216 0.3345532 0.7071068 -0.622956 255 255 0 255 0.3458754 0.9983411
1.265632 -6.426656 1.581216 0 -1 0 255 255 0 255 0.9659203 0.9983411
1.265632 -6.426656 1.972765 -0.3198049 -0.7071068 0.6306543 255 255 0 255 0.7441552 0.9953445
-3.265632 -6.426656 -0.3250398 -0.3198049 -0.7071068 0.6306543 255 255 0 255 0.7441552 0.01057658
-2.542764 -6.426656 -0.4640507 0 -1 0 255 255 0 255 0.9659203 0.007851541
1.265632 -6.426656 1.581216 0.4731297 -5.863959e-08 -0.8809928 255 255 0 255 0.1693609 0.9983411
-2.542764 -6.426656 -0.4640507 0.4731297 -5.863959e-08 -0.8809928 255 255 0 255 0.1693607 0.004463643
-0.1997952 0.4652405 -0.9727647 0.323806 0.831664 -0.4510928 255 255 0 255 0.3458754 0.01059386
-2.768134 0.4652405 -0.5415133 -0.4042777 0.3648402 0.83872 255 255 0 255 0.5676406 0.01057658
1.265632 0.4652405 1.402833 -0.3533674 0.5811148 0.733101 255 255 0 255 0.5676405 0.9953445
1.265632 0.4652402 0.0791564 0.3395294 0.8130153 -0.4729968 255 255 0 255 0.3458754 0.9983411
1.265632 -0.4688363 0.0791564 0 -1 0 255 255 0 255 0.9659203 0.9983411
1.265632 -0.4688363 1.402833 -0.3533674 -0.5811149 0.7331009 255 255 0 255 0.7441552 0.9953445
-2.768134 -0.4688363 -0.5415133 -0.4042777 -0.3648402 0.83872 255 255 0 255 0.7441552 0.01057658
-0.1997952 -0.4688363 -0.9727647 0 -1 0 255 255 0 255 0.9659203 0.01059386
1.265632 -0.4688363 0.0791564 0.5831409 0 -0.8123711 255 255 0 255 0.1693609 0.9983411
-0.1997952 -0.4688363 -0.9727647 0.5831408 0 -0.8123711 255 255 0 255 0.1693608 0.01059386
-0.1997952 1.469932 -0.9727648 0.323806 0.831664 -0.4510928 255 255 0 255 0.3458754 0.01059386
-2.768134 1.469932 -0.5415134 -0.4042777 0.3648403 0.83872 255 255 0 255 0.5676406 0.01057658
1.265632 1.469932 1.402832 -0.3533674 0.5811151 0.7331008 255 255 0 255 0.5676405 0.9953445
1.265632 1.469932 0.07915628 0.3395292 0.8130155 -0.4729967 255 255 0 255 0.3458754 0.9983411
1.265632 0.5358553 0.0791564 -2.177691e-08 -1 1.415293e-07 255 255 0 255 0.9659203 0.9983411
1.265632 0.5358555 1.402833 -0.3533675 -0.5811147 0.733101 255 255 0 255 0.7441552 0.9953445
-2.768134 0.5358553 -0.5415133 -0.4042777 -0.3648402 0.83872 255 255 0 255 0.7441552 0.01057658
-0.1997952 0.5358553 -0.9727647 0 -1 0 255 255 0 255 0.9659203 0.01059386
1.265632 0.5358553 0.0791564 0.5831407 -8.076454e-08 -0.8123711 255 255 0 255 0.1693609 0.9983411
-0.1997952 0.5358553 -0.9727647 0.5831408 -1.036769e-07 -0.8123711 255 255 0 255 0.1693608 0.01059386
-2.542764 0.4652405 -0.4640507 0.2547185 0.8427091 -0.4742995 255 255 0 255 0.3458754 0.006691396
-3.265632 0.4652405 -0.3250397 -0.4170285 0.3870142 0.8223791 255 255 0 255 0.5676406 0.01057658
1.265632 0.4652405 1.972765 -0.3703024 0.5741363 0.7302354 255 255 0 255 0.5676405 0.9953445
1.265632 0.4652405 1.581216 0.2865641 0.7957101 -0.5335976 255 255 0 255 0.3458754 0.9983411
1.265632 -0.4688363 1.581216 0 -1 0 255 255 0 255 0.9659203 0.9983411
1.265632 -0.4688363 1.972765 -0.3703024 -0.5741364 0.7302353 255 255 0 255 0.7441552 0.9953445
-3.265632 -0.4688363 -0.3250397 -0.4170285 -0.3870142 0.8223791 255 255 0 255 0.7441552 0.01057658
-2.542764 -0.4688363 -0.4640507 0 -1 0 255 255 0 255 0.9659203 0.007851541
1.265632 -0.4688363 1.581216 0.4731297 0 -0.8809928 255 255 0 255 0.1693609 0.9983411
-2.542764 -0.4688363 -0.4640507 0.4731298 0 -0.8809928 255 255 0 255 0.1693608 0.004463643
-2.542764 1.469932 -0.4640508 0.2547184 0.8427091 -0.4742993 255 255 0 255 0.3458754 0.006691396
-3.265632 1.469932 -0.3250398 -0.4170285 0.3870142 0.822379 255 255 0 255 0.5676406 0.01057658
1.265632 1.469932 1.972765 -0.3703024 0.5741363 0.7302353 255 255 0 255 0.5676405 0.9953445
1.265632 1.469932 1.581216 0.2865642 0.79571 -0.5335977 255 255 0 255 0.3458754 0.9983411
1.265632 0.5358555 1.581216 5.096057e-08 -1 3.93587e-09 255 255 0 255 0.9659203 0.9983411
1.265632 0.5358555 1.972765 -0.3703024 -0.5741363 0.7302353 255 255 0 255 0.7441552 0.9953445
-3.265632 0.5358553 -0.3250397 -0.4170285 -0.3870141 0.8223791 255 255 0 255 0.7441552 0.01057658
-2.542764 0.5358553 -0.4640507 1.650647e-08 -1 8.583494e-08 255 255 0 255 0.9659203 0.007851541
1.265632 0.5358555 1.581216 0.4731297 -1.52323e-08 -0.8809928 255 255 0 255 0.1693609 0.9983411
-2.542764 0.5358553 -0.4640507 0.4731297 -1.124346e-07 -0.8809928 255 255 0 255 0.1693607 0.004463643
-0.1997952 -4.45474 -0.9727647 0.4072262 0.6837105 -0.6055632 255 255 0 255 0.3458754 0.01059386
-2.768134 -4.301601 -0.5415133 -0.3101514 0.730844 0.6080075 255 255 0 255 0.5676406 0.01057658
1.265632 -4.301601 1.402832 -0.3101514 0.730844 0.6080076 255 255 0 255 0.5676405 0.9953445
1.265632 -4.301601 0.07915628 0.4072262 0.6837105 -0.6055632 255 255 0 255 0.3458754 0.9983411
1.265632 -5.388817 0.0791564 0 -1 0 255 255 0 255 0.9659203 0.9983411
1.265632 -5.388817 1.402833 -0.3070311 -0.7071068 0.6369709 255 255 0 255 0.7441552 0.9953445
-2.768134 -5.388817 -0.5415133 -0.3070311 -0.7071068 0.6369709 255 255 0 255 0.7441552 0.01057658
-0.1997952 -5.388817 -0.9727647 0 -1 0 255 255 0 255 0.9659203 0.01059386
1.265632 -5.388817 0.0791564 0.5831408 -6.538851e-08 -0.8123711 255 255 0 255 0.1693609 0.9983411
-0.1997952 -5.388817 -0.9727647 0.5831408 -6.538851e-08 -0.8123711 255 255 0 255 0.1693608 0.01059386
-0.1997952 -3.450048 -0.9727648 0.4123428 0.7071068 -0.5744332 255 255 0 255 0.3458754 0.01059386
-2.768134 -3.450048 -0.5415134 -0.3070311 0.7071069 0.6369709 255 255 0 255 0.5676406 0.01057658
1.265632 -3.450048 1.402832 -0.3070311 0.7071068 0.6369709 255 255 0 255 0.5676405 0.9953445
1.265632 -3.450048 0.07915628 0.4123428 0.7071068 -0.5744331 255 255 0 255 0.3458754 0.9983411
1.265632 -4.230987 0.07915628 1.559013e-08 -1 9.07445e-08 255 255 0 255 0.9659203 0.9983411
1.265632 -4.230987 1.402832 -0.3070311 -0.7071068 0.636971 255 255 0 255 0.7441552 0.9953445
-2.768134 -4.230987 -0.5415133 -0.3070311 -0.7071067 0.636971 255 255 0 255 0.7441552 0.01057658
-0.1997952 -4.230987 -0.9727647 1.559013e-08 -1 9.07445e-08 255 255 0 255 0.9659203 0.01059386
1.265632 -4.230987 0.07915628 0.5831408 -6.200376e-08 -0.8123711 255 255 0 255 0.1693609 0.9983411
-0.1997952 -4.230987 -0.9727647 0.5831408 -6.200376e-08 -0.8123711 255 255 0 255 0.1693608 0.01059386
-2.542764 -4.301601 -0.4640507 0.3345532 0.7071068 -0.622956 255 255 0 255 0.3458754 0.006691396
-3.265632 -4.301601 -0.3250398 -0.3198049 0.7071068 0.6306543 255 255 0 255 0.5676406 0.01057658
1.265632 -4.301601 1.972765 -0.3198049 0.7071068 0.6306543 255 255 0 255 0.5676405 0.9953445
1.265632 -4.301601 1.581216 0.3345532 0.7071068 -0.622956 255 255 0 255 0.3458754 0.9983411
1.265632 -5.388817 1.581216 -1.201687e-07 -1 2.856467e-07 255 255 0 255 0.9659203 0.9983411
1.265632 -5.388816 1.972765 -0.3198049 -0.7071066 0.6306544 255 255 0 255 0.7441552 0.9953445
-3.265632 -5.388817 -0.3250397 -0.3198049 -0.7071066 0.6306544 255 255 0 255 0.7441552 0.01057658
-2.542764 -5.388817 -0.4640507 -1.201687e-07 -1 2.856467e-07 255 255 0 255 0.9659203 0.007851541
1.265632 -5.388817 1.581216 0.4731297 -1.014577e-07 -0.8809928 255 255 0 255 0.1693609 0.9983411
-2.542764 -5.388817 -0.4640507 0.4731297 -1.014577e-07 -0.8809928 255 255 0 255 0.1693608 0.004463643
-2.542764 -3.450048 -0.4640508 0.3345533 0.7071068 -0.622956 255 255 0 255 0.3458754 0.006691396
-3.265632 -3.450048 -0.3250398 -0.3198048 0.7071068 0.6306543 255 255 0 255 0.5676406 0.01057658
1.265632 -3.450048 1.972765 -0.3198048 0.7071069 0.6306543 255 255 0 255 0.5676405 0.9953445
1.265632 -3.450048 1.581216 0.3345533 0.7071068 -0.622956 255 255 0 255 0.3458754 0.9983411
1.265632 -4.230987 1.581216 3.344598e-08 -1 4.556891e-08 255 255 0 255 0.9659203 0.9983411
1.265632 -4.230987 1.972765 -0.3198049 -0.7071068 0.6306544 255 255 0 255 0.7441552 0.9953445
-3.265632 -4.230987 -0.3250398 -0.3198049 -0.7071068 0.6306544 255 255 0 255 0.7441552 0.01057658
-2.542764 -4.230987 -0.4640507 3.344598e-08 -1 4.556891e-08 255 255 0 255 0.9659203 0.007851541
1.265632 -4.230987 1.581216 0.4731298 -6.724127e-08 -0.8809928 255 255 0 255 0.1693609 0.9983411
-2.542764 -4.230987 -0.4640507 0.4731298 -6.724127e-08 -0.8809928 255 255 0 255 0.1693607 0.004463643
-0.1997952 -1.718237 -0.9727647 0.4123428 0.7071068 -0.5744331 255 255 0 255 0.3458754 0.01059386
-2.768134 -1.718237 -0.5415133 -0.3070311 0.7071068 0.6369709 255 255 0 255 0.5676406 0.01057658
1.265632 -1.718237 1.402833 -0.3070311 0.7071068 0.6369709 255 255 0 255 0.5676405 0.9953445
1.265632 -1.718237 0.0791564 0.4123428 0.7071068 -0.5744331 255 255 0 255 0.3458754 0.9983411
1.265632 -2.652314 0.0791564 -4.265485e-09 -1 2.772162e-08 255 255 0 255 0.9659203 0.9983411
1.265632 -2.652314 1.402833 -0.3070311 -0.7071068 0.6369709 255 255 0 255 0.7441552 0.9953445
-2.768134 -2.652314 -0.5415133 -0.3070311 -0.7071068 0.6369709 255 255 0 255 0.7441552 0.01057658
-0.1997952 -2.652314 -0.9727647 -4.265485e-09 -1 2.772162e-08 255 255 0 255 0.9659203 0.01059386
1.265632 -2.652314 0.0791564 0.5831409 0 -0.8123711 255 255 0 255 0.1693609 0.9983411
-0.1997952 -2.652314 -0.9727647 0.5831409 0 -0.8123711 255 255 0 255 0.1693608 0.01059386
-0.1997952 -0.7135456 -0.9727648 0.4123428 0.7071068 -0.5744331 255 255 0 255 0.3458754 0.01059386
-2.768134 -0.7135456 -0.5415134 -0.3070311 0.7071068 0.6369708 255 255 0 255 0.5676406 0.01057658
1.265632 -0.7135456 1.402832 -0.3070311 0.7071068 0.6369708 255 255 0 255 0.5676405 0.9953445
1.265632 -0.7135456 0.07915628 0.4123428 0.7071068 -0.5744331 255 255 0 255 0.3458754 0.9983411
1.265632 -1.647622 0.0791564 -8.530971e-09 -1 5.544324e-08 255 255 0 255 0.9659203 0.9983411
1.265632 -1.647622 1.402833 -0.3070312 -0.7071067 0.636971 255 255 0 255 0.7441552 0.9953445
-2.768134 -1.647622 -0.5415133 -0.3070311 -0.7071067 0.6369709 255 255 0 255 0.7441552 0.01057658
-0.1997952 -1.647622 -0.9727647 -8.530971e-09 -1 5.544324e-08 255 255 0 255 0.9659203 0.01059386
1.265632 -1.647622 0.0791564 0.5831408 -8.721277e-08 -0.8123711 255 255 0 255 0.1693609 0.9983411
-0.1997952 -1.647622 -0.9727647 0.5831408 -8.721277e-08 -0.8123711 255 255 0 255 0.1693608 0.01059386
-2.542764 -1.718237 -0.4640507 0.3345533 0.7071068 -0.622956 255 255 0 255 0.3458754 0.006691396
-3.265632 -1.718237 -0.3250397 -0.3198049 0.7071068 0.6306543 255 255 0 255 0.5676406 0.01057658
1.265632 -1.718237 1.972765 -0.3198049 0.7071068 0.6306543 255 255 0 255 0.5676405 0.9953445
1.265632 -1.718237 1.581216 0.3345533 0.7071068 -0.622956 255 255 0 255 0.3458754 0.9983411
1.265632 -2.652314 1.581216 -2.586142e-08 -1 7.710779e-08 255 255 0 255 0.9659203 0.9983411
1.265632 -2.652314 1.972765 -0.3198049 -0.7071068 0.6306543 255 255 0 255 0.7441552 0.9953445
-3.265632 -2.652314 -0.3250397 -0.3198049 -0.7071068 0.6306543 255 255 0 255 0.7441552 0.01057658
-2.542764 -2.652314 -0.4640507 -2.586142e-08 -1 7.710779e-08 255 255 0 255 0.9659203 0.007851541
1.265632 -2.652314 1.581216 0.4731298 0 -0.8809928 255 255 0 255 0.1693609 0.9983411
-2.542764 -2.652314 -0.4640507 0.4731298 0 -0.8809928 255 255 0 255 0.1693608 0.004463643
-2.542764 -0.7135456 -0.4640508 0.3345533 0.7071068 -0.622956 255 255 0 255 0.3458754 0.006691396
-3.265632 -0.7135456 -0.3250398 -0.3198048 0.7071068 0.6306543 255 255 0 255 0.5676406 0.01057658
1.265632 -0.7135456 1.972765 -0.3198049 0.7071068 0.6306543 255 255 0 255 0.5676405 0.9953445
1.265632 -0.7135456 1.581216 0.3345533 0.7071068 -0.622956 255 255 0 255 0.3458754 0.9983411
1.265632 -1.647622 1.581216 1.672299e-08 -1 2.278446e-08 255 255 0 255 0.9659203 0.9983411
1.265632 -1.647622 1.972765 -0.3198049 -0.7071068 0.6306543 255 255 0 255 0.7441552 0.9953445
-3.265632 -1.647622 -0.3250397 -0.3198049 -0.7071068 0.6306544 255 255 0 255 0.7441552 0.01057658
-2.542764 -1.647622 -0.4640507 1.672299e-08 -1 2.278446e-08 255 255 0 255 0.9659203 0.007851541
1.265632 -1.647622 1.581216 0.4731298 -5.621731e-08 -0.8809928 255 255 0 255 0.1693609 0.9983411
-2.542764 -1.647622 -0.4640507 0.4731298 -5.621731e-08 -0.8809928 255 255 0 255 0.1693607 0.004463643
3 40 41 42 
3 40 42 43 
3 44 45 46 
3 44 46 47 
3 40 43 48 
3 40 48 49 
3 42 41 46 
3 42 46 45 
