ply
format ascii 1.0
comment VCGLIB generated
element vertex 407
property float x
property float y
property float z
property float nx
property float ny
property float nz
property uchar red
property uchar green
property uchar blue
property uchar alpha
property float texture_u
property float texture_v
element face 612
property list uchar int vertex_indices
end_header
0.010799 0.028136 0.016694 0.3826203 0.9237606 0.01637301 255 255 0 255 0.053636 0.783676
0 0.030285 0.016694 0.1951478 0.9806416 0.01610467 255 255 0 255 0.010751 0.783676
0 0.030082 0.029055 0.1951159 0.9806485 0.01607572 255 255 0 255 0.010751 0.735353
0.010722 0.027949 0.029055 0.382637 0.9237537 0.01637239 255 255 0 255 0.053636 0.735353
0.026641 0.002065002 0.030542 0.4822098 -1.187877e-05 0.8760558 255 255 0 255 0.84666 0.76933
0.024613 0.01226 0.030542 0.4454248 0.1845377 0.8760951 255 255 0 255 0.88745 0.769348
0.020224 0.010442 0.031048 -0.04609969 -0.01909542 0.9987543 255 255 0 255 0.883721 0.787782
0.02189 0.002065002 0.031048 -0.04991511 4.59201e-08 0.9987535 255 255 0 255 0.850269 0.787787
0.024613 -0.008129998 0.030542 0.4453893 -0.1844646 0.8761286 255 255 0 255 0.808968 0.784922
0.020224 -0.006311998 0.031048 -0.0461079 0.01909588 0.998754 255 255 0 255 0.819365 0.800594
0.018838 -0.016773 0.030542 0.3409024 -0.3408774 0.8761211 255 255 0 255 0.780112 0.813752
0.015479 -0.013414 0.031048 -0.03528256 0.03528551 0.9987543 255 255 0 255 0.795715 0.824252
0.010195 -0.022548 0.030542 0.1844785 -0.4453764 0.8761322 255 255 0 255 0.764486 0.85143
0.008377 -0.018159 0.031048 -0.01909871 0.04610953 0.9987538 255 255 0 255 0.782919 0.85516
0 -0.024576 0.030542 5.138099e-06 -0.4820533 0.876142 255 255 0 255 0.764467 0.89222
0 -0.019826 0.031048 6.618783e-07 0.04987902 0.9987553 255 255 0 255 0.782925 0.888612
-0.010195 -0.022548 0.030542 -0.184481 -0.4453742 0.8761328 255 255 0 255 0.78006 0.929912
-0.008377 -0.018159 0.031048 0.01909994 0.0461134 0.9987536 255 255 0 255 0.795731 0.919515
-0.018838 -0.016773 0.030542 -0.3409061 -0.3408778 0.8761195 255 255 0 255 0.808889 0.958768
-0.015479 -0.013414 0.031048 0.03528553 0.03528251 0.9987543 255 255 0 255 0.819389 0.943165
-0.024613 -0.008129998 0.030542 -0.4453762 -0.1844844 0.876131 255 255 0 255 0.846567 0.974395
-0.020224 -0.006311998 0.031048 0.04610915 0.01909601 0.9987539 255 255 0 255 0.850297 0.955962
-0.026641 0.002065002 0.030542 -0.4822083 1.578051e-05 0.8760567 255 255 0 255 0.887358 0.974414
-0.02189 0.002065002 0.031048 0.04991423 -5.876784e-07 0.9987535 255 255 0 255 0.883749 0.955956
-0.024613 0.01226 0.030542 -0.4454351 0.184533 0.8760908 255 255 0 255 0.92505 0.958821
-0.020224 0.010442 0.031048 0.04610006 -0.01909408 0.9987543 255 255 0 255 0.914653 0.943149
-0.018838 0.020902 0.030542 -0.3409013 0.3408801 0.8761204 255 255 0 255 0.953905 0.929991
-0.015479 0.017543 0.031048 0.03529145 -0.03528862 0.9987538 255 255 0 255 0.938303 0.919491
-0.010195 0.026677 0.030542 -0.1844828 0.4453821 0.8761284 255 255 0 255 0.969532 0.892313
-0.008377 0.022289 0.031048 0.01909149 -0.04609232 0.9987547 255 255 0 255 0.951099 0.888583
0.018838 0.020902 0.030542 0.3408948 0.3408844 0.8761213 255 255 0 255 0.925128 0.784975
0.010195 0.026677 0.030542 0.1844824 0.4453808 0.8761291 255 255 0 255 0.953958 0.813831
0.008377 0.022289 0.031048 -0.01909484 -0.04609056 0.9987547 255 255 0 255 0.938286 0.824228
0.015479 0.017543 0.031048 -0.03529177 -0.03528642 0.9987539 255 255 0 255 0.914628 0.800578
0.019955 0.022019 0.016694 0.7070047 0.7070187 0.01640133 255 255 0 255 0.096521 0.783676
0.019811 0.021876 0.029055 0.7070069 0.7070163 0.01640747 255 255 0 255 0.096521 0.735353
0.026072 0.012864 0.016694 0.9237521 0.3826399 0.01639719 255 255 0 255 0.139407 0.783676
0.025885 0.012786 0.029055 0.9237611 0.3826182 0.01639988 255 255 0 255 0.139407 0.735354
0.02822 0.002065001 0.016694 0.9998654 3.732515e-06 0.01641009 255 255 0 255 0.182292 0.783676
0.028017 0.002065002 0.029055 0.9998654 -6.702188e-06 0.01640995 255 255 0 255 0.182292 0.735354
0.026072 -0.008734999 0.016694 0.9237659 -0.3826063 0.01639987 255 255 0 255 0.225177 0.783676
0.025885 -0.008656998 0.029055 0.9237671 -0.3826037 0.01639724 255 255 0 255 0.225177 0.735354
0.019955 -0.01789 0.016694 0.706997 -0.7070262 0.01640755 255 255 0 255 0.268062 0.783676
0.019811 -0.017747 0.029055 0.7069843 -0.7070391 0.01640149 255 255 0 255 0.268062 0.735354
0.010799 -0.024007 0.016694 0.3826137 -0.9237634 0.01637249 255 255 0 255 0.310947 0.783676
0.010722 -0.02382 0.029055 0.3826332 -0.9237556 0.01635152 255 255 0 255 0.310948 0.735354
0 -0.026155 0.016694 1.169774e-05 -0.9998664 0.01634652 255 255 0 255 0.353833 0.783676
0 -0.025953 0.029055 9.362803e-07 -0.9998664 0.01634653 255 255 0 255 0.353833 0.735354
-0.010799 -0.024007 0.016694 -0.3825981 -0.9237702 0.0163515 255 255 0 255 0.396718 0.783676
-0.010722 -0.02382 0.029055 -0.3826371 -0.9237537 0.01637252 255 255 0 255 0.396718 0.735354
-0.019955 -0.01789 0.016694 -0.7070047 -0.7070186 0.01640144 255 255 0 255 0.439603 0.783676
-0.019811 -0.017747 0.029055 -0.7070069 -0.7070164 0.01640758 255 255 0 255 0.439603 0.735354
-0.026072 -0.008734999 0.016694 -0.9237555 -0.3826316 0.01639742 255 255 0 255 0.482488 0.783676
-0.025885 -0.008656998 0.029055 -0.9237644 -0.3826099 0.01639999 255 255 0 255 0.482488 0.735354
-0.02822 0.002065001 0.016694 -0.9998654 1.396687e-05 0.01640999 255 255 0 255 0.525373 0.783676
-0.028017 0.002065002 0.029055 -0.9998654 2.457565e-05 0.01640985 255 255 0 255 0.525373 0.735354
-0.026072 0.012864 0.016694 -0.9237626 0.3826144 0.01639974 255 255 0 255 0.568259 0.783676
-0.025885 0.012786 0.029055 -0.9237636 0.3826119 0.01639722 255 255 0 255 0.568259 0.735354
-0.019955 0.022019 0.016694 -0.706997 0.7070262 0.01640745 255 255 0 255 0.611144 0.783676
-0.019811 0.021876 0.029055 -0.7069843 0.7070391 0.01640138 255 255 0 255 0.611144 0.735354
-0.010799 0.028136 0.016694 -0.3826545 0.9237465 0.01637234 255 255 0 255 0.654029 0.783676
-0.010722 0.027949 0.029055 -0.3826523 0.9237473 0.0163731 255 255 0 255 0.654029 0.735354
0 0.030285 0.016694 -0.1951204 0.9806476 0.0160758 255 255 0 255 0.696914 0.783676
0 0.030082 0.029055 -0.1950886 0.9806533 0.01610485 255 255 0 255 0.696914 0.735354
-0.003902 -0.001836998 0.02859 0.03093711 0.03093785 0.9990425 255 255 0 255 0.855141 0.889599
-0.003902 0.002065002 0.02859 0 7.54979e-08 1 255 255 0 255 0.869938 0.88667
-0.005518 0.002065002 0.02859 0.04375296 -1.804796e-06 0.9990425 255 255 0 255 0.871152 0.8928
-0.005098 -4.699784e-05 0.02859 0.04042245 0.01674123 0.9990425 255 255 0 255 0.862828 0.892792
0 0.023955 0.031048 -7.070086e-09 -0.04990264 0.9987541 255 255 0 255 0.951093 0.855132
0 0.017304 0.029348 -4.65927e-07 -0.1737332 0.9847928 255 255 0 255 0.924885 0.860386
0.005832 0.016144 0.029348 -0.06649014 -0.1605079 0.9847925 255 255 0 255 0.916084 0.839112
0.010776 0.01284 0.029348 -0.122858 -0.1228401 0.9847925 255 255 0 255 0.899812 0.822826
0.014079 0.007896001 0.029348 -0.1605011 -0.06648079 0.9847943 255 255 0 255 0.878546 0.814006
0.015239 0.002065002 0.029348 -0.173733 -1.020072e-06 0.9847928 255 255 0 255 0.855523 0.813995
0.014079 -0.003766998 0.029348 -0.1605092 0.06647697 0.9847932 255 255 0 255 0.834249 0.822796
0.010776 -0.008710998 0.029348 -0.1228489 0.1228499 0.9847924 255 255 0 255 0.817963 0.839069
0.005832 -0.012014 0.029348 -0.06648117 0.1605088 0.984793 255 255 0 255 0.809143 0.860335
0 -0.013174 0.029348 -4.216005e-06 0.1737196 0.9847952 255 255 0 255 0.809133 0.883357
-0.005832 -0.012014 0.029348 0.06648003 0.1605032 0.984794 255 255 0 255 0.817934 0.904631
-0.010776 -0.008710998 0.029348 0.1228498 0.1228491 0.9847924 255 255 0 255 0.834206 0.920918
-0.014079 -0.003766998 0.029348 0.160508 0.06647988 0.9847932 255 255 0 255 0.855472 0.929738
-0.015239 0.002065002 0.029348 0.173734 -3.599078e-06 0.9847926 255 255 0 255 0.878495 0.929748
-0.014079 0.007896001 0.029348 0.1605039 -0.06647266 0.9847944 255 255 0 255 0.899768 0.920947
-0.010776 0.01284 0.029348 0.1228532 -0.1228397 0.9847931 255 255 0 255 0.916055 0.904675
-0.005832 0.016144 0.029348 0.06649096 -0.1605053 0.9847929 255 255 0 255 0.924875 0.883409
0 0.007583002 0.02859 3.041688e-07 -0.0437515 0.9990425 255 255 0 255 0.887935 0.867729
0.002112 0.007163002 0.02859 -0.01674231 -0.04042238 0.9990425 255 255 0 255 0.884757 0.860036
0.003902 0.005967002 0.02859 -0.03094587 -0.03093612 0.9990422 255 255 0 255 0.878877 0.854145
0.005098 0.004176002 0.02859 -0.04042128 -0.01673868 0.9990425 255 255 0 255 0.87119 0.850951
0.005518 0.002065002 0.02859 -0.04375247 -2.062081e-06 0.9990425 255 255 0 255 0.862866 0.850943
0.005098 -4.699784e-05 0.02859 -0.04042191 0.01674174 0.9990425 255 255 0 255 0.855173 0.854122
0.003902 -0.001836998 0.02859 -0.03093749 0.03093694 0.9990425 255 255 0 255 0.849282 0.860003
0.002112 -0.003032998 0.02859 -0.01674987 0.04041354 0.9990427 255 255 0 255 0.84609 0.86769
0 -0.003453998 0.02859 4.019187e-06 0.04376329 0.999042 255 255 0 255 0.846082 0.876014
-0.002112 -0.003032998 0.02859 0.01674836 0.04041837 0.9990425 255 255 0 255 0.849261 0.883707
-0.005098 0.004176002 0.02859 0.04042023 -0.01673574 0.9990427 255 255 0 255 0.878845 0.889622
-0.003902 0.005967002 0.02859 0.03094289 -0.03093712 0.9990423 255 255 0 255 0.884735 0.883741
-0.002112 0.007163002 0.02859 0.01674317 -0.04042363 0.9990424 255 255 0 255 0.887928 0.876053
0.002112 0.002065002 0.02859 0 7.54979e-08 1 255 255 0 255 0.865423 0.863863
0 0.002065002 0.02859 0 7.54979e-08 1 255 255 0 255 0.867009 0.871872
0.003902 0.002065002 0.02859 0 7.54979e-08 1 255 255 0 255 0.86408 0.857073
-0.002112 0.002065002 0.02859 0 7.54979e-08 1 255 255 0 255 0.868594 0.879881
0 0.028705 0.030542 -3.484385e-06 0.4820545 0.8761413 255 255 0 255 0.96955 0.851523
0.010722 0.027949 0.029055 0.2808029 0.6779051 0.6794074 255 255 0 255 0.960751 0.809235
0 0.030082 0.029055 -1.016462e-05 0.7337263 0.6794453 255 255 0 255 0.977586 0.849877
0.019811 0.021876 0.029055 0.5188345 0.5189066 0.6793723 255 255 0 255 0.929646 0.778129
0.025885 0.012786 0.029055 0.678011 0.28082 0.6792946 255 255 0 255 0.889004 0.761294
0.028017 0.002065002 0.029055 0.7339576 -1.012831e-05 0.6791953 255 255 0 255 0.845014 0.761294
0.025885 -0.008656998 0.029055 0.6779206 -0.2807769 0.6794027 255 255 0 255 0.804372 0.778129
0.019811 -0.017747 0.029055 0.5188454 -0.5188885 0.6793778 255 255 0 255 0.773266 0.809235
0.010722 -0.02382 0.029055 0.2808082 -0.6779001 0.6794102 255 255 0 255 0.756432 0.849877
0 -0.025953 0.029055 1.017509e-05 -0.7337266 0.6794449 255 255 0 255 0.756432 0.893867
-0.010722 -0.02382 0.029055 -0.2808028 -0.677905 0.6794076 255 255 0 255 0.773266 0.934508
-0.019811 -0.017747 0.029055 -0.5188393 -0.5188891 0.679382 255 255 0 255 0.804372 0.965614
-0.025885 -0.008656998 0.029055 -0.6779119 -0.2808182 0.6793944 255 255 0 255 0.845014 0.982449
-0.028017 0.002065002 0.029055 -0.7339611 1.707485e-05 0.6791916 255 255 0 255 0.889004 0.982449
-0.025885 0.012786 0.029055 -0.6780056 0.2807956 0.6793101 255 255 0 255 0.929646 0.965614
-0.019811 0.021876 0.029055 -0.5188454 0.5188887 0.6793777 255 255 0 255 0.960751 0.934508
-0.010722 0.027949 0.029055 -0.2808083 0.6779002 0.6794101 255 255 0 255 0.977586 0.893867
0.012423 0.06156 -0.0001000046 0.9299353 0.3677232 -2.420658e-05 255 255 0 255 0.906384 0.318654
0.011478 0.06156 -0.004881005 0.8596197 0.3680879 -0.3543521 255 255 0 255 0.880445 0.318654
0.009747 0.066297 -0.004160005 0.8163176 0.4695057 -0.3364376 255 255 0 255 0.885031 0.295918
0.01055 0.066297 -0.000100005 0.8831075 0.4691708 -1.467187e-05 255 255 0 255 0.90094 0.295247
0.004754 0.06156 0.011443 0.3570764 0.3693525 0.8579483 255 255 0 255 0.953465 0.265459
0.008785 0.06156 0.008733995 0.6588733 0.3686775 0.6557155 255 255 0 255 0.945899 0.288327
0.00746 0.066297 0.007401995 0.625692 0.4701407 0.6224767 255 255 0 255 0.926296 0.277227
0.004037 0.066297 0.009701995 0.3390755 0.4708597 0.8144439 255 255 0 255 0.931736 0.262559
0 0.06156 0.012394 -2.355992e-05 0.3697058 0.9291489 255 255 0 255 0.952107 0.242224
0 0.066297 0.010509 -3.708403e-05 0.4711128 0.882073 255 255 0 255 0.931352 0.247037
-0.004754 0.06156 0.011443 -0.3570572 0.3693959 0.8579375 255 255 0 255 0.943099 0.220751
-0.004037 0.066297 0.009701995 -0.339058 0.4708424 0.8144613 255 255 0 255 0.924867 0.232925
-0.008785 0.06156 0.008733995 -0.6588552 0.3686929 0.6557251 255 255 0 255 0.926229 0.203543
-0.00746 0.066297 0.007401995 -0.6257039 0.470127 0.6224752 255 255 0 255 0.913522 0.222145
-0.011478 0.06156 0.004680995 -0.8596389 0.3680613 0.354333 255 255 0 255 0.903314 0.193738
-0.009747 0.066297 0.003959995 -0.8163685 0.4694641 0.3363718 255 255 0 255 0.898724 0.216466
-0.012423 0.06156 -0.0001000046 -0.9299353 0.3677233 2.418136e-05 255 255 0 255 0.877382 0.193727
-0.01055 0.066297 -0.000100005 -0.8831047 0.4691759 8.766107e-06 255 255 0 255 0.882817 0.217132
-0.011478 0.06156 -0.004881005 -0.8596399 0.3680374 -0.3543554 255 255 0 255 0.854112 0.20515
-0.009747 0.066297 -0.004160005 -0.8163151 0.4695195 -0.3364242 255 255 0 255 0.868244 0.223534
-0.008785 0.06156 -0.008934004 -0.6587654 0.3687703 -0.6557717 255 255 0 255 0.837853 0.224034
-0.00746 0.066297 -0.007601005 -0.6256245 0.470184 -0.6225118 255 255 0 255 0.857455 0.235143
-0.004754 0.06156 -0.011642 -0.3570308 0.3693869 -0.8579524 255 255 0 255 0.830274 0.246906
-0.004037 0.066297 -0.009901005 -0.3391214 0.4708601 -0.8144246 255 255 0 255 0.852009 0.249813
0 0.06156 -0.012593 -2.10914e-05 0.3695839 -0.9291974 255 255 0 255 0.831627 0.270152
0 0.066297 -0.010709 -1.808177e-05 0.4711499 -0.8820531 255 255 0 255 0.85239 0.26534
0.004754 0.06156 -0.011642 0.3570359 0.3693479 -0.8579671 255 255 0 255 0.840637 0.291637
0.004037 0.066297 -0.009901005 0.3391296 0.4708644 -0.8144187 255 255 0 255 0.858877 0.279458
0.008785 0.06156 -0.008934004 0.6587898 0.368778 -0.6557429 255 255 0 255 0.857518 0.308852
0.00746 0.066297 -0.007601005 0.625668 0.4701864 -0.6224663 255 255 0 255 0.870227 0.290241
0.011478 0.06156 0.004680995 0.8596399 0.3680374 0.3543553 255 255 0 255 0.929651 0.307218
0.009747 0.066297 0.003959995 0.8163552 0.4694715 0.3363938 255 255 0 255 0.915512 0.288839
0.008328 0.068477 0.003368995 0.6069116 0.7544256 0.2500007 255 255 0 255 0.90969 0.280969
0.009014 0.068477 -0.0001000052 0.6565966 0.754242 -1.694047e-05 255 255 0 255 0.898724 0.285708
0.006495 0.06938 0.002605995 0.2188947 0.9715809 0.09008737 255 255 0 255 0.905406 0.275029
0.00703 0.06938 -0.0001000052 0.2368017 0.971558 -1.189626e-05 255 255 0 255 0.897094 0.27869
0.006374 0.068477 0.006309995 0.4650012 0.7549021 0.4624898 255 255 0 255 0.917944 0.272276
0.004971 0.06938 0.004898995 0.1676847 0.9716689 0.1665576 255 255 0 255 0.911688 0.268439
0.003449 0.068477 0.008274995 0.2519195 0.7553926 0.604912 255 255 0 255 0.922212 0.261139
0.00269 0.06938 0.006431995 0.09085657 0.9717297 0.217914 255 255 0 255 0.914954 0.259971
0 0.068477 0.008964994 -2.14201e-05 0.7555432 0.6550987 255 255 0 255 0.921994 0.249207
0 0.06938 0.006969995 4.214399e-06 0.9717647 0.235952 255 255 0 255 0.914731 0.250891
-0.003449 0.068477 0.008274995 -0.2518937 0.7553923 0.6049232 255 255 0 255 0.916939 0.238393
-0.00269 0.06938 0.006431995 -0.09088084 0.9717277 0.2179131 255 255 0 255 0.910935 0.242636
-0.006374 0.068477 0.006309995 -0.4649971 0.7549082 0.4624839 255 255 0 255 0.908204 0.230268
-0.004971 0.06938 0.004898995 -0.1676634 0.9716684 0.1665817 255 255 0 255 0.904276 0.236468
-0.008328 0.068477 0.003368995 -0.606925 0.7544165 0.2499956 255 255 0 255 0.896965 0.226096
-0.006495 0.06938 0.002605995 -0.2188978 0.9715821 0.09006719 255 255 0 255 0.895734 0.233316
-0.009014 0.068477 -0.0001000052 -0.6566009 0.7542382 -1.21123e-05 255 255 0 255 0.885031 0.226671
-0.00703 0.06938 -0.0001000052 -0.2368027 0.9715579 -5.72205e-06 255 255 0 255 0.886659 0.233688
-0.008328 0.068477 -0.003568005 -0.6068854 0.754458 -0.2499667 255 255 0 255 0.874063 0.231407
-0.006495 0.06938 -0.002805005 -0.2188877 0.9715847 -0.09006394 255 255 0 255 0.878346 0.237348
-0.006374 0.068477 -0.006509005 -0.4649949 0.7548836 -0.4625262 255 255 0 255 0.865806 0.240097
-0.004971 0.06938 -0.005099005 -0.1677202 0.9716465 -0.1666523 255 255 0 255 0.872062 0.243936
-0.003449 0.068477 -0.008474005 -0.25192 0.7553924 -0.6049122 255 255 0 255 0.861535 0.251235
-0.00269 0.06938 -0.006631005 -0.0908454 0.9717297 -0.2179188 255 255 0 255 0.868794 0.252404
0 0.068477 -0.009164006 -1.725804e-05 0.7556307 -0.6549978 255 255 0 255 0.861751 0.263171
0 0.06938 -0.007169005 -4.163139e-06 0.9717647 -0.2359521 255 255 0 255 0.869016 0.261487
0.003449 0.068477 -0.008474005 0.2519127 0.755401 -0.6049045 255 255 0 255 0.866807 0.273989
0.00269 0.06938 -0.006631005 0.0908374 0.9717321 -0.2179112 255 255 0 255 0.872812 0.269744
0.006374 0.068477 -0.006509005 0.4650354 0.7548754 -0.4624988 255 255 0 255 0.875546 0.282115
0.004971 0.06938 -0.005099005 0.1677279 0.9716474 -0.1666394 255 255 0 255 0.879474 0.275914
0.008328 0.068477 -0.003568005 0.606883 0.754449 -0.2499996 255 255 0 255 0.886788 0.286285
0.006495 0.06938 -0.002805005 0.2188917 0.9715835 -0.0900666 255 255 0 255 0.888018 0.279064
0.002352 0.067371 -0.002464005 -0.4840154 0.7312765 0.480587 255 255 0 255 0.886888 0.264071
0.00387 0.06938 -0.003992005 -0.2307653 0.9454945 0.2297555 255 255 0 255 0.88217 0.271533
0.002095 0.06938 -0.005185005 -0.1248368 0.9457132 0.3000705 255 255 0 255 0.876998 0.26672
0.001273 0.067371 -0.003189005 -0.2621837 0.731989 0.6288496 255 255 0 255 0.884216 0.261626
0.005474 0.06938 -0.0001000052 -0.3263971 0.9452328 -3.914399e-06 255 255 0 255 0.895952 0.273774
0.005057 0.06938 0.002006995 -0.3015437 0.9453058 -0.1243722 255 255 0 255 0.902452 0.27084
0.00387 0.06938 0.003792995 -0.2307665 0.9454846 -0.2297947 255 255 0 255 0.907339 0.265694
0.002095 0.06938 0.004985995 -0.1248575 0.9457105 -0.3000705 255 255 0 255 0.909866 0.259098
0 0.06938 0.005404995 7.91682e-06 0.9457827 -0.3248003 255 255 0 255 0.909642 0.252071
-0.002095 0.06938 0.004985995 0.1248369 0.9457132 -0.3000706 255 255 0 255 0.906751 0.24566
-0.00387 0.06938 0.003792995 0.2307699 0.9454935 -0.2297554 255 255 0 255 0.90158 0.240847
-0.005057 0.06938 0.002006995 0.3015139 0.9453097 -0.1244146 255 255 0 255 0.894928 0.238377
-0.005474 0.06938 -0.0001000052 0.3263935 0.9452341 3.324895e-05 255 255 0 255 0.8878 0.238604
-0.005057 0.06938 -0.002206005 0.3015468 0.9453026 0.1243884 255 255 0 255 0.881299 0.241537
-0.00387 0.06938 -0.003992005 0.2307663 0.9454848 0.2297945 255 255 0 255 0.876411 0.246682
-0.002095 0.06938 -0.005185005 0.1248584 0.9457104 0.3000702 255 255 0 255 0.873883 0.253278
0 0.06938 -0.005604005 -7.897338e-06 0.9457827 0.3248002 255 255 0 255 0.874106 0.260307
0.005057 0.06938 -0.002206005 -0.3015188 0.9453056 0.1244339 255 255 0 255 0.888824 0.274003
-0.003072 0.067371 0.001179995 0.6313225 0.7306432 -0.2599855 255 255 0 255 0.893448 0.247097
-0.002352 0.067371 0.002264995 0.4840167 0.7312756 -0.4805868 255 255 0 255 0.896861 0.248307
0.003072 0.067371 -0.001379005 -0.6312969 0.7306465 0.2600383 255 255 0 255 0.890306 0.265283
-0.003326 0.067371 -0.0001000051 0.6830235 0.7303964 0.0001354842 255 255 0 255 0.889821 0.247293
0.003072 0.067371 0.001179995 -0.6313767 0.7306641 -0.259795 255 255 0 255 0.897278 0.263658
0.003326 0.067371 -0.0001000051 -0.683016 0.7304034 -3.186334e-05 255 255 0 255 0.893932 0.265087
-0.003072 0.067371 -0.001379005 0.6313638 0.7306589 0.2598411 255 255 0 255 0.886472 0.248723
0.002352 0.067371 0.002264995 -0.483877 0.7313372 -0.4806339 255 255 0 255 0.899815 0.261068
-0.002352 0.067371 -0.002464005 0.4838771 0.7313372 0.4806339 255 255 0 255 0.883938 0.251309
0.001273 0.067371 0.002989995 -0.2622438 0.7320063 -0.6288044 255 255 0 255 0.901145 0.257705
-0.001273 0.067371 -0.003189005 0.262242 0.7320067 0.6288048 255 255 0 255 0.882606 0.254674
0 0.067371 0.003244995 4.556147e-05 0.7322697 -0.6810148 255 255 0 255 0.901045 0.254066
0 0.067371 -0.003444005 -4.645148e-05 0.7322699 0.6810146 255 255 0 255 0.882703 0.258312
-0.001273 0.067371 0.002989995 0.2621839 0.7319889 -0.6288497 255 255 0 255 0.899533 0.250752
0.00301 0.063979 0.001153995 0.9239309 -0.03884484 0.3805822 255 255 0 255 0.853879 0.172119
0.003258 0.063979 -0.0001000048 0.9992465 -0.03881328 -8.077076e-05 255 255 0 255 0.847659 0.172119
0.004856 0.105116 -0.0001000079 0.9992465 -0.03881357 -5.13117e-05 255 255 0 255 0.847659 0.011204
0.004486 0.105116 0.001768992 0.9238818 -0.03884064 0.3807019 255 255 0 255 0.853879 0.011204
0.002304 0.063979 0.002216995 0.7084338 -0.03892019 0.7047033 255 255 0 255 0.860091 0.172119
0.003434 0.105116 0.003352992 0.7084569 -0.03892302 0.7046799 255 255 0 255 0.860091 0.011204
0.001247 0.063979 0.002926995 0.38388 -0.03900118 0.922559 255 255 0 255 0.866289 0.172119
0.001858 0.105116 0.004411992 0.3841476 -0.03901287 0.9224471 255 255 0 255 0.866289 0.011204
0 0.063979 0.003175995 9.482065e-06 -0.03904728 0.9992374 255 255 0 255 0.872477 0.172119
0 0.105116 0.004783992 4.190054e-06 -0.03905105 0.9992373 255 255 0 255 0.872477 0.011204
-0.001247 0.063979 0.002926995 -0.383881 -0.0390167 0.922558 255 255 0 255 0.878666 0.172119
-0.001858 0.105116 0.004411992 -0.3841529 -0.03900236 0.9224453 255 255 0 255 0.878666 0.011204
-0.002304 0.063979 0.002216995 -0.7084324 -0.03892426 0.7047045 255 255 0 255 0.884864 0.172119
-0.003434 0.105116 0.003352992 -0.7084596 -0.03892028 0.7046774 255 255 0 255 0.884864 0.011204
-0.00301 0.063979 0.001153995 -0.9239304 -0.0388407 0.3805838 255 255 0 255 0.891075 0.172119
-0.004486 0.105116 0.001768992 -0.9238833 -0.03884345 0.3806978 255 255 0 255 0.891075 0.011204
-0.003258 0.063979 -0.0001000048 -0.9992466 -0.03881213 -7.104955e-05 255 255 0 255 0.897296 0.172119
-0.004856 0.105116 -0.0001000079 -0.9992464 -0.03881434 -5.060236e-05 255 255 0 255 0.897296 0.011204
-0.00301 0.063979 -0.001353005 -0.9239022 -0.03884375 -0.380652 255 255 0 255 0.903517 0.172119
-0.004486 0.105116 -0.001968008 -0.9239163 -0.03884519 -0.3806176 255 255 0 255 0.903517 0.011204
-0.002304 0.063979 -0.002416005 -0.7084381 -0.03893076 -0.7046985 255 255 0 255 0.909728 0.172119
-0.003434 0.105116 -0.003553008 -0.7084067 -0.0389335 -0.7047299 255 255 0 255 0.909728 0.011204
-0.001247 0.063979 -0.003126005 -0.3842314 -0.03901122 -0.9224123 255 255 0 255 0.915926 0.172119
-0.001858 0.105116 -0.004611008 -0.3839542 -0.03900115 -0.9225281 255 255 0 255 0.915926 0.011204
0 0.063979 -0.003376005 -0.1964185 -0.0382859 -0.9797724 255 255 0 255 0.922115 0.172119
0 0.105116 -0.004983008 -0.1961753 -0.03827638 -0.9798215 255 255 0 255 0.922115 0.011204
0.001247 0.063979 -0.003126005 0.3842282 -0.03899923 -0.9224141 255 255 0 255 0.829028 0.172119
0 0.063979 -0.003376005 0.1964262 -0.03827441 -0.9797713 255 255 0 255 0.82284 0.172119
0 0.105116 -0.004983008 0.19618 -0.03828409 -0.9798203 255 255 0 255 0.82284 0.011204
0.001858 0.105116 -0.004611008 0.3839561 -0.03900927 -0.922527 255 255 0 255 0.829028 0.011204
0.002304 0.063979 -0.002416005 0.7084291 -0.03893151 -0.7047074 255 255 0 255 0.835227 0.172119
0.003434 0.105116 -0.003553008 0.7084043 -0.038933 -0.7047322 255 255 0 255 0.835227 0.011204
0.00301 0.063979 -0.001353005 0.9239028 -0.03884741 -0.3806501 255 255 0 255 0.841438 0.172119
0.004486 0.105116 -0.001968008 0.923919 -0.03884271 -0.3806113 255 255 0 255 0.841438 0.011204
0.012692 0.132303 -0.00554201 0.6696205 0.6844862 -0.2882482 255 255 0 255 0.363376 0.883934
0.010824 0.130435 -0.01098401 0.5664246 0.6015128 -0.5633342 255 255 0 255 0.371693 0.902548
0.005412 0.132303 -0.01286301 0.2903135 0.6857304 -0.6674518 255 255 0 255 0.357426 0.916993
0.006346 0.13607 -0.00648101 0.348187 0.8710685 -0.3464182 255 255 0 255 0.345106 0.897654
0 0.132867 -0.01343001 -1.254352e-05 0.7088273 -0.7053821 255 255 0 255 0.343419 0.927624
0 0.137147 -0.00676501 0.002736833 0.9323511 -0.3615439 255 255 0 255 0.330139 0.908449
-0.005412 0.132303 -0.01286301 -0.2903985 0.670821 -0.6823988 255 255 0 255 0.328542 0.936998
-0.006346 0.13607 -0.00648101 -0.3407367 0.8769342 -0.3389468 255 255 0 255 0.31477 0.918663
-0.010824 0.130435 -0.01098401 -0.5899513 0.5545706 -0.5868636 255 255 0 255 0.310001 0.945273
-0.012692 0.132303 -0.00554201 -0.6844862 0.6696207 -0.2882479 255 255 0 255 0.295501 0.930941
0.013256 0.132867 -0.00010001 0.7071068 0.7071068 -1.263268e-05 255 255 0 255 0.353944 0.868969
0.006628 0.137147 -0.0001000104 0.3631311 0.9317341 -0.002746211 255 255 0 255 0.334836 0.882202
0 0.138358 -0.0001000104 -3.598665e-07 1 -1.313066e-05 255 255 0 255 0.319377 0.892909
-0.006628 0.137147 -0.0001000104 -0.3631317 0.9317339 0.002720007 255 255 0 255 0.303917 0.903616
-0.013256 0.132867 -0.00010001 -0.707107 0.7071066 -1.274285e-05 255 255 0 255 0.284809 0.916849
0.012692 0.132303 0.00534299 0.6844917 0.6696177 0.2882419 255 255 0 255 0.343253 0.854877
0.006346 0.13607 0.00628199 0.3407285 0.8769329 0.3389587 255 255 0 255 0.323984 0.867155
0 0.137147 0.00656599 -0.002727249 0.9323523 0.361541 255 255 0 255 0.308615 0.877369
-0.006346 0.13607 0.00628199 -0.3481944 0.8710623 0.3464265 255 255 0 255 0.293648 0.888165
-0.012692 0.132303 0.00534299 -0.6696172 0.6844921 0.288242 255 255 0 255 0.275378 0.901884
0.010824 0.130435 0.01078499 0.5899161 0.55451 0.5869563 255 255 0 255 0.328752 0.840545
0.005412 0.132303 0.01266299 0.290436 0.6708362 0.6823679 255 255 0 255 0.310212 0.84882
0 0.132867 0.01323099 6.660154e-06 0.7088199 0.7053896 255 255 0 255 0.295335 0.858194
-0.005412 0.132303 0.01266299 -0.2903294 0.6857401 0.667435 255 255 0 255 0.281328 0.868825
-0.010824 0.130435 0.01078499 -0.566401 0.601514 0.5633568 255 255 0 255 0.26706 0.88327
-0.012692 0.125023 -0.01286301 -0.6769526 0.2965772 -0.6736299 255 255 0 255 0.305902 0.968084
-0.016459 0.125957 -0.006481009 -0.8710684 0.3481869 -0.3464184 255 255 0 255 0.279071 0.952602
-0.013256 0.119611 -0.01343001 -0.7000935 0.1564495 -0.6967012 255 255 0 255 0.301305 0.99352
-0.017536 0.119611 -0.006765009 -0.9176685 0.1729958 -0.3577107 255 255 0 255 0.261459 0.97855
-0.017536 0.119611 -0.006765009 -0.919821 -0.1674168 -0.3548255 255 255 0 255 0.209664 0.868809
-0.013256 0.119611 -0.01343001 -0.7012182 -0.1461823 -0.6977993 255 255 0 255 0.209664 0.911374
-0.012692 0.114199 -0.01286301 -0.6796285 -0.2842376 -0.67625 255 255 0 255 0.184236 0.906732
-0.016459 0.113265 -0.006481008 -0.8769274 -0.3407456 -0.3389554 255 255 0 255 0.179179 0.876171
-0.010824 0.108788 -0.01098401 -0.5664605 -0.601445 -0.5633706 255 255 0 255 0.161441 0.902548
-0.012692 0.106919 -0.005542008 -0.66962 -0.6844743 -0.2882776 255 255 0 255 0.153124 0.883934
-0.017536 0.126239 -0.0001000095 -0.9317341 0.3631309 -0.002746115 255 255 0 255 0.26144 0.933034
-0.018747 0.119611 -0.000100009 -0.9839249 0.1785794 -0.001130684 255 255 0 255 0.233297 0.952525
-0.018747 0.119611 -0.000100009 -0.983925 -0.1785793 0.001104797 255 255 0 255 0.195205 0.833293
-0.017536 0.112983 -0.0001000085 -0.9317343 -0.3631306 0.002719978 255 255 0 255 0.167062 0.852784
-0.013256 0.106355 -0.000100008 -0.7071072 -0.7071063 -1.247083e-05 255 255 0 255 0.143692 0.868969
-0.016459 0.125957 0.006281991 -0.8769326 0.3407284 0.3389595 255 255 0 255 0.249322 0.909647
-0.017536 0.119611 0.006565991 -0.9198153 0.167436 0.3548311 255 255 0 255 0.218838 0.917009
-0.017536 0.119611 0.006565991 -0.9176729 -0.1729965 0.3576991 255 255 0 255 0.167043 0.807268
-0.016459 0.113265 0.006281991 -0.8710619 -0.3481948 0.3464269 255 255 0 255 0.149431 0.833216
-0.012692 0.106919 0.005342992 -0.6844759 -0.6696198 0.2882743 255 255 0 255 0.133001 0.854877
-0.012692 0.125023 0.01266299 -0.6796542 0.2842024 0.676239 255 255 0 255 0.244266 0.879086
-0.013256 0.119611 0.01323099 -0.7011937 0.1463088 0.6977974 255 255 0 255 0.218838 0.874444
-0.013256 0.119611 0.01323099 -0.7000831 -0.1565173 0.6966965 255 255 0 255 0.127197 0.792298
-0.012692 0.114199 0.01266299 -0.676955 -0.2966479 0.6735964 255 255 0 255 0.1226 0.817735
-0.010824 0.108788 0.01078499 -0.5899157 -0.5545113 0.5869555 255 255 0 255 0.1185 0.840545
-0.005412 0.106919 -0.01286301 -0.2903438 -0.6857187 -0.6674508 255 255 0 255 0.147174 0.916993
-0.006346 0.103152 -0.006481008 -0.3481869 -0.8710685 -0.3464182 255 255 0 255 0.134853 0.897654
0 0.106355 -0.01343001 1.253852e-05 -0.7088275 -0.7053819 255 255 0 255 0.133167 0.927624
0 0.102075 -0.006765008 -0.002736282 -0.9323513 -0.3615434 255 255 0 255 0.119887 0.908449
0.005412 0.106919 -0.01286301 0.2904311 -0.6708236 -0.6823823 255 255 0 255 0.118289 0.936998
0.006346 0.103152 -0.006481008 0.3407497 -0.8769238 -0.3389606 255 255 0 255 0.104518 0.918663
0.010824 0.108788 -0.01098401 0.5899513 -0.5545719 -0.5868624 255 255 0 255 0.099749 0.945273
0.012692 0.106919 -0.005542008 0.6844701 -0.6696232 -0.2882802 255 255 0 255 0.085249 0.930941
-0.006628 0.102075 -0.0001000077 -0.3631299 -0.9317344 -0.002746026 255 255 0 255 0.124584 0.882202
0 0.100864 -0.0001000076 5.497958e-08 -1 -1.294966e-05 255 255 0 255 0.109125 0.892909
0.006628 0.102075 -0.0001000077 0.36313 -0.9317346 0.002720085 255 255 0 255 0.093665 0.903616
0.013256 0.106355 -0.000100008 0.7071068 -0.7071068 -1.255346e-05 255 255 0 255 0.074557 0.916849
-0.006346 0.103152 0.006281992 -0.3407415 -0.8769224 0.3389726 255 255 0 255 0.113732 0.867155
0 0.102075 0.006565992 0.002726778 -0.9323524 0.3615408 255 255 0 255 0.098363 0.877369
0.006346 0.103152 0.006281992 0.3481946 -0.8710621 0.3464265 255 255 0 255 0.083396 0.888164
0.012692 0.106919 0.005342992 0.6696169 -0.68448 0.2882716 255 255 0 255 0.065125 0.901884
-0.005412 0.106919 0.01266299 -0.2904689 -0.6708385 0.6823515 255 255 0 255 0.09996 0.84882
0 0.106355 0.01323099 -7.326425e-06 -0.7088198 0.7053897 255 255 0 255 0.085082 0.858194
0.005412 0.106919 0.01266299 0.2903593 -0.6857281 0.6674343 255 255 0 255 0.071076 0.868825
0.010824 0.108788 0.01078499 0.566437 -0.6014459 0.5633934 255 255 0 255 0.056808 0.88327
0.012692 0.114199 -0.01286301 0.6769508 -0.2965893 -0.6736264 255 255 0 255 0.095649 0.968084
0.016459 0.113265 -0.006481008 0.8710683 -0.3481871 -0.3464186 255 255 0 255 0.068819 0.952602
0.013256 0.119611 -0.01343001 0.7000942 -0.1564492 -0.6967007 255 255 0 255 0.091053 0.99352
0.017536 0.119611 -0.006765009 0.9176682 -0.172996 -0.3577113 255 255 0 255 0.051207 0.97855
0.017536 0.119611 -0.006765009 0.9198208 0.1674169 -0.3548255 255 255 0 255 0.419916 0.868809
0.013256 0.119611 -0.01343001 0.7012181 0.1461826 -0.6977993 255 255 0 255 0.419916 0.911374
0.012692 0.125023 -0.01286301 0.6796346 0.284207 -0.6762568 255 255 0 255 0.394488 0.906732
0.016459 0.125957 -0.006481009 0.876934 0.3407366 -0.3389474 255 255 0 255 0.389431 0.876171
0.017536 0.112983 -0.0001000085 0.9317344 -0.3631304 -0.002746039 255 255 0 255 0.051188 0.933034
0.018747 0.119611 -0.000100009 0.9839249 -0.1785793 -0.001130741 255 255 0 255 0.023045 0.952525
0.018747 0.119611 -0.000100009 0.9839249 0.1785795 0.001105026 255 255 0 255 0.405457 0.833293
0.017536 0.126239 -0.0001000095 0.9317341 0.3631311 0.002719998 255 255 0 255 0.377314 0.852784
0.016459 0.113265 0.006281991 0.8769261 -0.340737 0.3389674 255 255 0 255 0.03907 0.909647
0.017536 0.119611 0.006565991 0.9198154 -0.1674357 0.3548312 255 255 0 255 0.008586 0.917009
0.017536 0.119611 0.006565991 0.9176732 0.1729965 0.3576985 255 255 0 255 0.377295 0.807268
0.016459 0.125957 0.006281991 0.871062 0.3481948 0.3464267 255 255 0 255 0.359682 0.833216
0.012692 0.114199 0.01266299 0.6796482 -0.2842327 0.6762323 255 255 0 255 0.034013 0.879086
0.013256 0.119611 0.01323099 0.7011932 -0.1463085 0.697798 255 255 0 255 0.008586 0.874444
0.013256 0.119611 0.01323099 0.7000828 0.1565178 0.6966968 255 255 0 255 0.337449 0.792298
0.012692 0.125023 0.01266299 0.6769572 0.2966359 0.6735994 255 255 0 255 0.332852 0.817735
0.006346 0.113265 -0.01665101 0.3492637 -0.3492635 -0.8694999 255 255 0 255 0.126119 0.963048
0 0.112983 -0.01773401 0.00275016 -0.3646783 -0.9311295 255 255 0 255 0.149359 0.951004
-0.006346 0.113265 -0.01665101 -0.3418434 -0.3418444 -0.8753774 255 255 0 255 0.168807 0.933484
0.006628 0.119611 -0.01773401 0.3607452 -0.1736849 -0.9163495 255 255 0 255 0.133515 0.993517
0 0.119611 -0.01895201 0.001135532 -0.1795629 -0.9837458 255 255 0 255 0.168842 0.979135
-0.006628 0.119611 -0.01773401 -0.3578854 -0.1680763 -0.9185143 255 255 0 255 0.194728 0.951123
0.006628 0.119611 -0.01773401 0.357885 0.1680764 -0.9185144 255 255 0 255 0.40498 0.951123
0.006346 0.125957 -0.01665101 0.3418355 0.3418354 -0.875384 255 255 0 255 0.379059 0.933484
0 0.119611 -0.01895201 -0.00113563 0.1795629 -0.9837459 255 255 0 255 0.379094 0.979135
0 0.126239 -0.01773401 -0.002750146 0.3646787 -0.9311294 255 255 0 255 0.359611 0.951004
-0.006628 0.119611 -0.01773401 -0.3607453 0.1736849 -0.9163495 255 255 0 255 0.343767 0.993517
-0.006346 0.125957 -0.01665101 -0.3492636 0.3492635 -0.8694998 255 255 0 255 0.336371 0.963048
0.006346 0.125957 0.01645199 0.3493044 0.3493044 0.869467 255 255 0 255 0.302383 0.82277
0 0.126239 0.01753499 0.00273559 0.3646939 0.9311235 255 255 0 255 0.279142 0.834814
-0.006346 0.125957 0.01645199 -0.3418586 0.3418589 0.8753658 255 255 0 255 0.259695 0.852334
0.006628 0.119611 0.01753499 0.3607455 0.1736852 0.9163494 255 255 0 255 0.294987 0.792302
0 0.119611 0.01875299 0.001135778 0.1795635 0.9837458 255 255 0 255 0.25966 0.806683
-0.006628 0.119611 0.01753499 -0.3579125 0.1681068 0.9184981 255 255 0 255 0.233774 0.834695
0.006628 0.119611 0.01753499 0.3579133 -0.1681064 0.9184979 255 255 0 255 0.023522 0.834695
0.006346 0.113265 0.01645199 0.3418672 -0.3418676 0.8753591 255 255 0 255 0.049443 0.852334
0 0.119611 0.01875299 -0.00113567 -0.1795633 0.9837458 255 255 0 255 0.049408 0.806683
0 0.112983 0.01753499 -0.002735222 -0.3646933 0.9311237 255 255 0 255 0.068891 0.834814
-0.006628 0.119611 0.01753499 -0.3607453 -0.173685 0.9163495 255 255 0 255 0.084735 0.792302
-0.006346 0.113265 0.01645199 -0.3493043 -0.3493041 0.8694672 255 255 0 255 0.092131 0.82277
-0.046835 -0.06156 -0.013658 -0.3733725 -0.9276816 7.003801e-08 255 255 0 255 0.479281 0.620748
0.046835 -0.06156 -0.013658 0.3733626 -0.9276856 7.003831e-08 255 255 0 255 0.845425 0.620748
0.046835 -0.06156 0.013658 0.3733725 -0.9276816 7.003801e-08 255 255 0 255 0.845425 0.727522
-0.046835 -0.06156 0.013658 -0.3733626 -0.9276856 7.003831e-08 255 255 0 255 0.479281 0.727522
0.049976 -0.058543 -0.013658 1 0 0 255 255 0 255 0.004587 0.5048
0.049976 0.058543 -0.013658 0.927682 0.3733712 -2.818874e-08 255 255 0 255 0.462261 0.5048
0.049976 0.058543 0.013658 0.9276793 0.3733781 -2.818926e-08 255 255 0 255 0.462261 0.611574
0.049976 -0.058543 0.013658 1 0 0 255 255 0 255 0.004587 0.611574
0.046954 -0.058541 0.016694 0.3438567 -0.3449574 0.8733653 255 255 0 255 0.388326 0.021325
0.046954 0.058541 0.016694 0.3406889 0.3401274 0.8764956 255 255 0 255 0.388326 0.478887
-0.046954 0.058541 0.016694 -0.3406885 0.3401191 0.8764989 255 255 0 255 0.021325 0.478887
-0.046954 -0.058541 0.016694 -0.3438588 -0.3449633 0.8733622 255 255 0 255 0.021325 0.021325
-0.049976 0.058543 -0.013658 -1 0 0 255 255 0 255 0.004587 0.620748
-0.049976 -0.058543 -0.013658 -0.9199811 -0.3919629 2.959237e-08 255 255 0 255 0.46226 0.620748
-0.049976 -0.058543 0.013658 -0.9199778 -0.3919706 2.959296e-08 255 255 0 255 0.46226 0.727522
-0.049976 0.058543 0.013658 -1 0 0 255 255 0 255 0.004587 0.727522
0.047078 0.06156 -0.013658 0.3919652 0.9199802 -6.945657e-08 255 255 0 255 0.478611 0.5048
-0.047078 0.06156 -0.013658 -0.3919553 0.9199843 -6.945688e-08 255 255 0 255 0.84665 0.5048
-0.047078 0.06156 0.013658 -0.3919652 0.9199802 -6.945657e-08 255 255 0 255 0.84665 0.611574
0.047078 0.06156 0.013658 0.3919553 0.9199843 -6.945688e-08 255 255 0 255 0.478611 0.611574
-0.046954 -0.058541 -0.016694 -0.3438567 -0.3449575 -0.8733653 255 255 0 255 0.797977 0.021325
-0.046835 -0.06156 -0.013658 -0.23464 -0.6938756 -0.6807943 255 255 0 255 0.797977 0.004587
-0.049976 -0.058543 -0.013658 -0.686511 -0.2480279 -0.6835092 255 255 0 255 0.814715 0.021325
-0.046835 -0.06156 0.013658 -0.2346434 -0.693875 0.6807936 255 255 0 255 0.021325 0.004587
-0.049976 -0.058543 0.013658 -0.6865122 -0.2480258 0.6835089 255 255 0 255 0.004587 0.021325
-0.046954 0.058541 -0.016694 -0.3406889 0.3401273 -0.8764957 255 255 0 255 0.797976 0.478887
-0.049976 0.058543 -0.013658 -0.6884871 0.2368964 -0.6854675 255 255 0 255 0.814715 0.478887
-0.047078 0.06156 -0.013658 -0.250466 0.681353 -0.6877681 255 255 0 255 0.797976 0.495626
-0.047078 0.06156 0.013658 -0.2504656 0.6813532 0.687768 255 255 0 255 0.021325 0.495626
-0.049976 0.058543 0.013658 -0.6884862 0.2368985 0.6854677 255 255 0 255 0.004587 0.478887
0.046954 -0.058541 -0.016694 0.3438587 -0.3449633 -0.8733622 255 255 0 255 0.430977 0.021325
0.049976 -0.058543 -0.013658 0.686512 -0.2480257 -0.683509 255 255 0 255 0.414238 0.021325
0.046835 -0.06156 -0.013658 0.2346433 -0.693875 -0.6807937 255 255 0 255 0.430977 0.004587
0.046835 -0.06156 0.013658 0.23464 -0.6938754 0.6807944 255 255 0 255 0.388326 0.004587
0.049976 -0.058543 0.013658 0.686511 -0.2480278 0.6835092 255 255 0 255 0.405064 0.021325
0.046954 0.058541 -0.016694 0.3406885 0.340119 -0.8764989 255 255 0 255 0.430976 0.478887
0.047078 0.06156 -0.013658 0.2504656 0.681353 -0.6877682 255 255 0 255 0.430976 0.495626
0.049976 0.058543 -0.013658 0.6884862 0.2368985 -0.6854677 255 255 0 255 0.414238 0.478887
0.049976 0.058543 0.013658 0.6884871 0.2368965 0.6854675 255 255 0 255 0.405064 0.478887
0.047078 0.06156 0.013658 0.250466 0.6813532 0.687768 255 255 0 255 0.388326 0.495626
-0.049976 0.058543 0.013658 -0.7211863 0.6927412 -5.23005e-08 255 255 0 255 0.863001 0.611574
-0.049976 0.058543 -0.013658 -0.7211872 0.6927402 -5.230043e-08 255 255 0 255 0.863001 0.5048
0.049976 -0.058543 0.013658 0.6927277 -0.7211993 5.444903e-08 255 255 0 255 0.862445 0.727522
0.049976 -0.058543 -0.013658 0.6927286 -0.7211984 5.444896e-08 255 255 0 255 0.862445 0.620748
3 0 1 2 
3 2 3 0 
3 4 5 6 
3 6 7 4 
3 8 4 7 
3 7 9 8 
3 10 8 9 
3 9 11 10 
3 12 10 11 
3 11 13 12 
3 14 12 13 
3 13 15 14 
3 16 14 15 
3 15 17 16 
3 18 16 17 
3 17 19 18 
3 20 18 19 
3 19 21 20 
3 22 20 21 
3 21 23 22 
3 24 22 23 
3 23 25 24 
3 26 24 25 
3 25 27 26 
3 28 26 27 
3 27 29 28 
3 30 31 32 
3 32 33 30 
3 5 30 33 
3 33 6 5 
3 34 0 3 
3 3 35 34 
3 36 34 35 
3 35 37 36 
3 38 36 37 
3 37 39 38 
3 40 38 39 
3 39 41 40 
3 42 40 41 
3 41 43 42 
3 44 42 43 
3 43 45 44 
3 46 44 45 
3 45 47 46 
3 48 46 47 
3 47 49 48 
3 50 48 49 
3 49 51 50 
3 52 50 51 
3 51 53 52 
3 54 52 53 
3 53 55 54 
3 56 54 55 
3 55 57 56 
3 58 56 57 
3 57 59 58 
3 60 58 59 
3 59 61 60 
3 62 60 61 
3 61 63 62 
3 64 65 66 
3 66 67 64 
3 68 69 70 
3 70 32 68 
3 32 70 71 
3 71 33 32 
3 33 71 72 
3 72 6 33 
3 6 72 73 
3 73 7 6 
3 7 73 74 
3 74 9 7 
3 9 74 75 
3 75 11 9 
3 11 75 76 
3 76 13 11 
3 13 76 77 
3 77 15 13 
3 15 77 78 
3 78 17 15 
3 17 78 79 
3 79 19 17 
3 19 79 80 
3 80 21 19 
3 21 80 81 
3 81 23 21 
3 23 81 82 
3 82 25 23 
3 25 82 83 
3 83 27 25 
3 27 83 84 
3 84 29 27 
3 29 84 69 
3 69 68 29 
3 69 85 86 
3 86 70 69 
3 70 86 87 
3 87 71 70 
3 71 87 88 
3 88 72 71 
3 72 88 89 
3 89 73 72 
3 73 89 90 
3 90 74 73 
3 74 90 91 
3 91 75 74 
3 75 91 92 
3 92 76 75 
3 76 92 93 
3 93 77 76 
3 77 93 94 
3 94 78 77 
3 78 94 64 
3 64 79 78 
3 79 64 67 
3 67 80 79 
3 80 67 66 
3 66 81 80 
3 81 66 95 
3 95 82 81 
3 82 95 96 
3 96 83 82 
3 83 96 97 
3 97 84 83 
3 84 97 85 
3 85 69 84 
3 92 98 99 
3 99 93 92 
3 91 100 98 
3 98 92 91 
3 90 89 100 
3 100 91 90 
3 100 87 86 
3 86 98 100 
3 98 86 85 
3 85 99 98 
3 65 96 95 
3 95 66 65 
3 89 88 87 
3 87 100 89 
3 99 85 97 
3 97 101 99 
3 93 99 101 
3 101 94 93 
3 101 97 96 
3 96 65 101 
3 94 101 65 
3 65 64 94 
3 102 28 29 
3 29 68 102 
3 31 103 104 
3 104 102 31 
3 30 105 103 
3 103 31 30 
3 5 106 105 
3 105 30 5 
3 4 107 106 
3 106 5 4 
3 8 108 107 
3 107 4 8 
3 10 109 108 
3 108 8 10 
3 12 110 109 
3 109 10 12 
3 14 111 110 
3 110 12 14 
3 16 112 111 
3 111 14 16 
3 18 113 112 
3 112 16 18 
3 20 114 113 
3 113 18 20 
3 22 115 114 
3 114 20 22 
3 24 116 115 
3 115 22 24 
3 26 117 116 
3 116 24 26 
3 28 118 117 
3 117 26 28 
3 102 104 118 
3 118 28 102 
3 31 102 68 
3 68 32 31 
3 119 120 121 
3 121 122 119 
3 123 124 125 
3 125 126 123 
3 127 123 126 
3 126 128 127 
3 129 127 128 
3 128 130 129 
3 131 129 130 
3 130 132 131 
3 133 131 132 
3 132 134 133 
3 135 133 134 
3 134 136 135 
3 137 135 136 
3 136 138 137 
3 139 137 138 
3 138 140 139 
3 141 139 140 
3 140 142 141 
3 143 141 142 
3 142 144 143 
3 145 143 144 
3 144 146 145 
3 147 145 146 
3 146 148 147 
3 120 147 148 
3 148 121 120 
3 149 119 122 
3 122 150 149 
3 124 149 150 
3 150 125 124 
3 151 150 122 
3 122 152 151 
3 153 151 152 
3 152 154 153 
3 155 125 150 
3 150 151 155 
3 156 155 151 
3 151 153 156 
3 157 126 125 
3 125 155 157 
3 158 157 155 
3 155 156 158 
3 159 128 126 
3 126 157 159 
3 160 159 157 
3 157 158 160 
3 161 130 128 
3 128 159 161 
3 162 161 159 
3 159 160 162 
3 163 132 130 
3 130 161 163 
3 164 163 161 
3 161 162 164 
3 165 134 132 
3 132 163 165 
3 166 165 163 
3 163 164 166 
3 167 136 134 
3 134 165 167 
3 168 167 165 
3 165 166 168 
3 169 138 136 
3 136 167 169 
3 170 169 167 
3 167 168 170 
3 171 140 138 
3 138 169 171 
3 172 171 169 
3 169 170 172 
3 173 142 140 
3 140 171 173 
3 174 173 171 
3 171 172 174 
3 175 144 142 
3 142 173 175 
3 176 175 173 
3 173 174 176 
3 177 146 144 
3 144 175 177 
3 178 177 175 
3 175 176 178 
3 179 148 146 
3 146 177 179 
3 180 179 177 
3 177 178 180 
3 181 121 148 
3 148 179 181 
3 182 181 179 
3 179 180 182 
3 152 122 121 
3 121 181 152 
3 154 152 181 
3 181 182 154 
3 183 184 185 
3 185 186 183 
3 154 187 188 
3 188 153 154 
3 153 188 189 
3 189 156 153 
3 156 189 190 
3 190 158 156 
3 158 190 191 
3 191 160 158 
3 160 191 192 
3 192 162 160 
3 162 192 193 
3 193 164 162 
3 164 193 194 
3 194 166 164 
3 166 194 195 
3 195 168 166 
3 168 195 196 
3 196 170 168 
3 170 196 197 
3 197 172 170 
3 172 197 198 
3 198 174 172 
3 174 198 199 
3 199 176 174 
3 176 199 185 
3 185 178 176 
3 178 185 184 
3 184 180 178 
3 180 184 200 
3 200 182 180 
3 182 200 187 
3 187 154 182 
3 201 194 193 
3 193 202 201 
3 203 200 184 
3 184 183 203 
3 204 195 194 
3 194 201 204 
3 205 188 187 
3 187 206 205 
3 206 187 200 
3 200 203 206 
3 207 196 195 
3 195 204 207 
3 208 189 188 
3 188 205 208 
3 209 197 196 
3 196 207 209 
3 210 190 189 
3 189 208 210 
3 211 198 197 
3 197 209 211 
3 212 191 190 
3 190 210 212 
3 213 199 198 
3 198 211 213 
3 214 192 191 
3 191 212 214 
3 186 185 199 
3 199 213 186 
3 202 193 192 
3 192 214 202 
3 215 216 217 
3 217 218 215 
3 219 215 218 
3 218 220 219 
3 221 219 220 
3 220 222 221 
3 223 221 222 
3 222 224 223 
3 225 223 224 
3 224 226 225 
3 227 225 226 
3 226 228 227 
3 229 227 228 
3 228 230 229 
3 231 229 230 
3 230 232 231 
3 233 231 232 
3 232 234 233 
3 235 233 234 
3 234 236 235 
3 237 235 236 
3 236 238 237 
3 239 237 238 
3 238 240 239 
3 241 242 243 
3 243 244 241 
3 245 241 244 
3 244 246 245 
3 247 245 246 
3 246 248 247 
3 216 247 248 
3 248 217 216 
3 249 250 251 
3 251 252 249 
3 252 251 253 
3 253 254 252 
3 254 253 255 
3 255 256 254 
3 256 255 257 
3 257 258 256 
3 259 249 252 
3 252 260 259 
3 260 252 254 
3 254 261 260 
3 261 254 256 
3 256 262 261 
3 262 256 258 
3 258 263 262 
3 264 259 260 
3 260 265 264 
3 265 260 261 
3 261 266 265 
3 266 261 262 
3 262 267 266 
3 267 262 263 
3 263 268 267 
3 269 264 265 
3 265 270 269 
3 270 265 266 
3 266 271 270 
3 271 266 267 
3 267 272 271 
3 272 267 268 
3 268 273 272 
3 258 257 274 
3 274 275 258 
3 275 274 276 
3 276 277 275 
3 278 279 280 
3 280 281 278 
3 281 280 282 
3 282 283 281 
3 263 258 275 
3 275 284 263 
3 284 275 277 
3 277 285 284 
3 286 278 281 
3 281 287 286 
3 287 281 283 
3 283 288 287 
3 268 263 284 
3 284 289 268 
3 289 284 285 
3 285 290 289 
3 291 286 287 
3 287 292 291 
3 292 287 288 
3 288 293 292 
3 273 268 289 
3 289 294 273 
3 294 289 290 
3 290 295 294 
3 296 291 292 
3 292 297 296 
3 297 292 293 
3 293 298 297 
3 283 282 299 
3 299 300 283 
3 300 299 301 
3 301 302 300 
3 302 301 303 
3 303 304 302 
3 304 303 305 
3 305 306 304 
3 288 283 300 
3 300 307 288 
3 307 300 302 
3 302 308 307 
3 308 302 304 
3 304 309 308 
3 309 304 306 
3 306 310 309 
3 293 288 307 
3 307 311 293 
3 311 307 308 
3 308 312 311 
3 312 308 309 
3 309 313 312 
3 313 309 310 
3 310 314 313 
3 298 293 311 
3 311 315 298 
3 315 311 312 
3 312 316 315 
3 316 312 313 
3 313 317 316 
3 317 313 314 
3 314 318 317 
3 306 305 319 
3 319 320 306 
3 320 319 321 
3 321 322 320 
3 323 324 325 
3 325 326 323 
3 326 325 250 
3 250 249 326 
3 310 306 320 
3 320 327 310 
3 327 320 322 
3 322 328 327 
3 329 323 326 
3 326 330 329 
3 330 326 249 
3 249 259 330 
3 314 310 327 
3 327 331 314 
3 331 327 328 
3 328 332 331 
3 333 329 330 
3 330 334 333 
3 334 330 259 
3 259 264 334 
3 318 314 331 
3 331 335 318 
3 335 331 332 
3 332 336 335 
3 337 333 334 
3 334 338 337 
3 338 334 264 
3 264 269 338 
3 319 305 303 
3 303 339 319 
3 339 303 301 
3 301 340 339 
3 340 301 299 
3 299 341 340 
3 341 299 282 
3 282 280 341 
3 321 319 339 
3 339 342 321 
3 342 339 340 
3 340 343 342 
3 343 340 341 
3 341 344 343 
3 344 341 280 
3 280 279 344 
3 325 324 345 
3 345 346 325 
3 346 345 347 
3 347 348 346 
3 348 347 349 
3 349 350 348 
3 350 349 276 
3 276 274 350 
3 250 325 346 
3 346 251 250 
3 251 346 348 
3 348 253 251 
3 253 348 350 
3 350 255 253 
3 255 350 274 
3 274 257 255 
3 338 269 270 
3 270 351 338 
3 351 270 271 
3 271 352 351 
3 352 271 272 
3 272 353 352 
3 353 272 273 
3 273 294 353 
3 337 338 351 
3 351 354 337 
3 354 351 352 
3 352 355 354 
3 355 352 353 
3 353 356 355 
3 356 353 294 
3 294 295 356 
3 335 336 357 
3 357 358 335 
3 358 357 359 
3 359 360 358 
3 360 359 361 
3 361 362 360 
3 362 361 296 
3 296 297 362 
3 318 335 358 
3 358 317 318 
3 317 358 360 
3 360 316 317 
3 316 360 362 
3 362 315 316 
3 315 362 297 
3 297 298 315 
3 363 364 365 
3 365 366 363 
3 367 368 369 
3 369 370 367 
3 371 372 373 
3 373 374 371 
3 375 376 377 
3 377 378 375 
3 379 380 381 
3 381 382 379 
3 383 384 385 
3 386 374 387 
3 388 389 390 
3 373 391 392 
3 393 394 395 
3 371 396 397 
3 398 399 400 
3 372 401 402 
3 389 388 383 
3 383 385 389 
3 376 363 366 
3 366 377 376 
3 387 374 373 
3 373 392 387 
3 403 381 380 
3 380 404 403 
3 399 398 388 
3 388 390 399 
3 391 373 372 
3 372 402 391 
3 382 369 368 
3 368 379 382 
3 394 393 398 
3 398 400 394 
3 401 372 371 
3 371 397 401 
3 405 365 364 
3 364 406 405 
3 384 383 393 
3 393 395 384 
3 396 371 374 
3 374 386 396 
3 383 388 398 
3 398 393 383 
