ply
format ascii 1.0
comment VCGLIB generated
element vertex 492
property float x
property float y
property float z
property float nx
property float ny
property float nz
property uchar red
property uchar green
property uchar blue
property uchar alpha
property float texture_u
property float texture_v
element face 480
property list uchar int vertex_indices
end_header
-5 5 20 0 -1 -5.020945e-08 190 190 190 255 0.327371 0.062481
0 5 20 0 -1 -1.430554e-06 190 190 190 255 0.327371 0.062481
-5 5 25 0 -1 0 190 190 190 255 0.327371 0.062481
0 5 25 0 -1 5.020779e-08 190 190 190 255 0.327371 0.062481
-2.5 5 25 0 -1 5.722238e-07 190 190 190 255 0.327371 0.062481
-2.5 5 20 0 -1 -6.036115e-07 190 190 190 255 0.327371 0.062481
-5 5 22.5 0 -1 -2.51048e-08 190 190 190 255 0.327371 0.062481
-2.5 5 22.5 0 -1 -1.56905e-08 190 190 190 255 0.327371 0.062481
0 5 22.5 0 -1 -6.90173e-07 190 190 190 255 0.327371 0.062481
-2.41667 5 22.58333 0 -1 0 190 190 190 255 0.364026 0.063229
-0.083332 5 22.58333 0 -1 0 190 190 190 255 0.364026 0.063229
-0.083332 5 24.91667 0 -1 0 190 190 190 255 0.364026 0.063229
-2.41667 5 24.91667 0 -1 0 190 190 190 255 0.364026 0.063229
-4.91667 5 22.58333 0 -1 0 190 190 190 255 0.364026 0.063229
-2.58333 5 22.58333 0 -1 0 190 190 190 255 0.364026 0.063229
-2.58333 5 24.91667 0 -1 0 190 190 190 255 0.364026 0.063229
-4.91667 5 24.91667 0 -1 0 190 190 190 255 0.364026 0.063229
-4.91667 5 20.08333 0 -1 0 190 190 190 255 0.364026 0.063229
-2.58333 5 20.08333 0 -1 0 190 190 190 255 0.364026 0.063229
-2.58333 5 22.41667 0 -1 0 190 190 190 255 0.364026 0.063229
-4.91667 5 22.41667 0 -1 0 190 190 190 255 0.364026 0.063229
-2.41667 5 20.08333 0 -1 0 190 190 190 255 0.364026 0.063229
-0.083332 5 20.08333 0 -1 0 190 190 190 255 0.364026 0.063229
-0.083332 5 22.41667 0 -1 0 190 190 190 255 0.364026 0.063229
-2.41667 5 22.41667 0 -1 0 190 190 190 255 0.364026 0.063229
-0.083332 5 22.58333 0 -1 -1.409654e-06 190 190 190 255 0.327371 0.062481
-2.41667 5 22.58333 0 -1 0 190 190 190 255 0.327371 0.062481
-0.083332 5 24.91667 0 -1 0 190 190 190 255 0.327371 0.062481
-2.41667 5 24.91667 0 -1 1.127666e-06 190 190 190 255 0.327371 0.062481
-2.58333 5 22.58333 0 -1 -1.127717e-06 190 190 190 255 0.327371 0.062481
-4.91667 5 22.58333 0 -1 0 190 190 190 255 0.327371 0.062481
-2.58333 5 24.91667 0 -1 0 190 190 190 255 0.327371 0.062481
-4.91667 5 24.91667 0 -1 0 190 190 190 255 0.327371 0.062481
-2.58333 5 20.08333 0 -1 -1.127713e-06 190 190 190 255 0.327371 0.062481
-4.91667 5 20.08333 0 -1 0 190 190 190 255 0.327371 0.062481
-2.58333 5 22.41667 0 -1 0 190 190 190 255 0.327371 0.062481
-4.91667 5 22.41667 0 -1 0 190 190 190 255 0.327371 0.062481
-0.083332 5 20.08333 0 -1 -1.409649e-06 190 190 190 255 0.327371 0.062481
-2.41667 5 20.08333 0 -1 0 190 190 190 255 0.327371 0.062481
-0.083332 5 22.41667 0 -1 0 190 190 190 255 0.327371 0.062481
-2.41667 5 22.41667 0 -1 1.127717e-06 190 190 190 255 0.327371 0.062481
0 5 20 0 -1 -5.020947e-08 190 190 190 255 0.327371 0.062481
5 5 20 0 -1 0 190 190 190 255 0.327371 0.062481
0 5 25 0 -1 1.430556e-07 190 190 190 255 0.327371 0.062481
5 5 25 0 -1 5.020778e-08 190 190 190 255 0.327371 0.062481
2.5 5 25 0 -1 5.753617e-07 190 190 190 255 0.327371 0.062481
2.5 5 20 0 -1 -5.722308e-07 190 190 190 255 0.327371 0.062481
0 5 22.5 0 -1 4.642397e-08 190 190 190 255 0.327371 0.062481
2.5 5 22.5 0 -1 1.569052e-09 190 190 190 255 0.327371 0.062481
5 5 22.5 0 -1 2.510481e-08 190 190 190 255 0.327371 0.062481
2.58333 5 22.58333 0 -1 0 190 190 190 255 0.364026 0.063229
4.916668 5 22.58333 0 -1 0 190 190 190 255 0.364026 0.063229
4.916668 5 24.91667 0 -1 0 190 190 190 255 0.364026 0.063229
2.58333 5 24.91667 0 -1 0 190 190 190 255 0.364026 0.063229
0.08333015 5 22.58333 0 -1 0 190 190 190 255 0.364026 0.063229
2.41667 5 22.58333 0 -1 0 190 190 190 255 0.364026 0.063229
2.41667 5 24.91667 0 -1 0 190 190 190 255 0.364026 0.063229
0.08333015 5 24.91667 0 -1 0 190 190 190 255 0.364026 0.063229
0.08333015 5 20.08333 0 -1 0 190 190 190 255 0.364026 0.063229
2.41667 5 20.08333 0 -1 0 190 190 190 255 0.364026 0.063229
2.41667 5 22.41667 0 -1 0 190 190 190 255 0.364026 0.063229
0.08333015 5 22.41667 0 -1 0 190 190 190 255 0.364026 0.063229
2.58333 5 20.08333 0 -1 0 190 190 190 255 0.364026 0.063229
4.916668 5 20.08333 0 -1 0 190 190 190 255 0.364026 0.063229
4.916668 5 22.41667 0 -1 0 190 190 190 255 0.364026 0.063229
2.58333 5 22.41667 0 -1 0 190 190 190 255 0.364026 0.063229
4.916668 5 22.58333 0 -1 0 190 190 190 255 0.327371 0.062481
2.58333 5 22.58333 0 -1 0 190 190 190 255 0.327371 0.062481
4.916668 5 24.91667 0 -1 0 190 190 190 255 0.327371 0.062481
2.58333 5 24.91667 0 -1 1.127666e-06 190 190 190 255 0.327371 0.062481
2.41667 5 22.58333 0 -1 -1.127717e-06 190 190 190 255 0.327371 0.062481
0.08333015 5 22.58333 0 -1 0 190 190 190 255 0.327371 0.062481
2.41667 5 24.91667 0 -1 0 190 190 190 255 0.327371 0.062481
0.08333015 5 24.91667 0 -1 1.409583e-07 190 190 190 255 0.327371 0.062481
2.41667 5 20.08333 0 -1 -1.127713e-06 190 190 190 255 0.327371 0.062481
0.08333015 5 20.08333 0 -1 0 190 190 190 255 0.327371 0.062481
2.41667 5 22.41667 0 -1 0 190 190 190 255 0.327371 0.062481
0.08333015 5 22.41667 0 -1 1.409647e-07 190 190 190 255 0.327371 0.062481
4.916668 5 20.08333 0 -1 0 190 190 190 255 0.327371 0.062481
2.58333 5 20.08333 0 -1 0 190 190 190 255 0.327371 0.062481
4.916668 5 22.41667 0 -1 0 190 190 190 255 0.327371 0.062481
2.58333 5 22.41667 0 -1 1.127717e-06 190 190 190 255 0.327371 0.062481
-10 5 20.00434 0 -1 0 190 190 190 255 0.327371 0.062481
-5 5 20.00434 0 -1 0 190 190 190 255 0.327371 0.062481
-10 5 25.00434 0 -1 0 190 190 190 255 0.327371 0.062481
-5 5 25.00434 0 -1 0 190 190 190 255 0.327371 0.062481
-7.5 5 25.00434 0 -1 0 190 190 190 255 0.327371 0.062481
-7.5 5 20.00434 0 -1 0 190 190 190 255 0.327371 0.062481
-10 5 22.50434 0 -1 0 190 190 190 255 0.327371 0.062481
-7.5 5 22.50434 0 -1 0 190 190 190 255 0.327371 0.062481
-5 5 22.50434 0 -1 0 190 190 190 255 0.327371 0.062481
-7.41667 5 22.58767 0 -1 0 190 190 190 255 0.364026 0.063229
-5.083332 5 22.58767 0 -1 0 190 190 190 255 0.364026 0.063229
-5.083332 5 24.921 0 -1 0 190 190 190 255 0.364026 0.063229
-7.41667 5 24.921 0 -1 0 190 190 190 255 0.364026 0.063229
-9.91667 5 22.58767 0 -1 0 190 190 190 255 0.364026 0.063229
-7.58333 5 22.58767 0 -1 0 190 190 190 255 0.364026 0.063229
-7.58333 5 24.921 0 -1 0 190 190 190 255 0.364026 0.063229
-9.91667 5 24.921 0 -1 0 190 190 190 255 0.364026 0.063229
-9.91667 5 20.08767 0 -1 0 190 190 190 255 0.364026 0.063229
-7.58333 5 20.08767 0 -1 0 190 190 190 255 0.364026 0.063229
-7.58333 5 22.42101 0 -1 0 190 190 190 255 0.364026 0.063229
-9.91667 5 22.42101 0 -1 0 190 190 190 255 0.364026 0.063229
-7.41667 5 20.08767 0 -1 0 190 190 190 255 0.364026 0.063229
-5.083332 5 20.08767 0 -1 0 190 190 190 255 0.364026 0.063229
-5.083332 5 22.42101 0 -1 0 190 190 190 255 0.364026 0.063229
-7.41667 5 22.42101 0 -1 0 190 190 190 255 0.364026 0.063229
-5.083332 5 22.58767 0 -1 0 190 190 190 255 0.327371 0.062481
-7.41667 5 22.58767 0 -1 0 190 190 190 255 0.327371 0.062481
-5.083332 5 24.921 0 -1 0 190 190 190 255 0.327371 0.062481
-7.41667 5 24.921 0 -1 0 190 190 190 255 0.327371 0.062481
-7.58333 5 22.58767 0 -1 0 190 190 190 255 0.327371 0.062481
-9.91667 5 22.58767 0 -1 0 190 190 190 255 0.327371 0.062481
-7.58333 5 24.921 0 -1 0 190 190 190 255 0.327371 0.062481
-9.91667 5 24.921 0 -1 0 190 190 190 255 0.327371 0.062481
-7.58333 5 20.08767 0 -1 0 190 190 190 255 0.327371 0.062481
-9.91667 5 20.08767 0 -1 0 190 190 190 255 0.327371 0.062481
-7.58333 5 22.42101 0 -1 0 190 190 190 255 0.327371 0.062481
-9.91667 5 22.42101 0 -1 0 190 190 190 255 0.327371 0.062481
-5.083332 5 20.08767 0 -1 0 190 190 190 255 0.327371 0.062481
-7.41667 5 20.08767 0 -1 0 190 190 190 255 0.327371 0.062481
-5.083332 5 22.42101 0 -1 0 190 190 190 255 0.327371 0.062481
-7.41667 5 22.42101 0 -1 0 190 190 190 255 0.327371 0.062481
-10 5 15 0 -1 0 190 190 190 255 0.327371 0.062481
-5 5 15 0 -1 0 190 190 190 255 0.327371 0.062481
-10 5 20 0 -1 0 190 190 190 255 0.327371 0.062481
-5 5 20 0 -1 0 190 190 190 255 0.327371 0.062481
-7.5 5 20 0 -1 0 190 190 190 255 0.327371 0.062481
-7.5 5 15 0 -1 0 190 190 190 255 0.327371 0.062481
-10 5 17.5 0 -1 0 190 190 190 255 0.327371 0.062481
-7.5 5 17.5 0 -1 0 190 190 190 255 0.327371 0.062481
-5 5 17.5 0 -1 0 190 190 190 255 0.327371 0.062481
-7.41667 5 17.58333 0 -1 0 190 190 190 255 0.364026 0.063229
-5.083332 5 17.58333 0 -1 0 190 190 190 255 0.364026 0.063229
-5.083332 5 19.91667 0 -1 0 190 190 190 255 0.364026 0.063229
-7.41667 5 19.91667 0 -1 0 190 190 190 255 0.364026 0.063229
-9.91667 5 17.58333 0 -1 0 190 190 190 255 0.364026 0.063229
-7.58333 5 17.58333 0 -1 0 190 190 190 255 0.364026 0.063229
-7.58333 5 19.91667 0 -1 0 190 190 190 255 0.364026 0.063229
-9.91667 5 19.91667 0 -1 0 190 190 190 255 0.364026 0.063229
-9.91667 5 15.08333 0 -1 0 190 190 190 255 0.364026 0.063229
-7.58333 5 15.08333 0 -1 0 190 190 190 255 0.364026 0.063229
-7.58333 5 17.41667 0 -1 0 190 190 190 255 0.364026 0.063229
-9.91667 5 17.41667 0 -1 0 190 190 190 255 0.364026 0.063229
-7.41667 5 15.08333 0 -1 0 190 190 190 255 0.364026 0.063229
-5.083332 5 15.08333 0 -1 0 190 190 190 255 0.364026 0.063229
-5.083332 5 17.41667 0 -1 0 190 190 190 255 0.364026 0.063229
-7.41667 5 17.41667 0 -1 0 190 190 190 255 0.364026 0.063229
-5.083332 5 17.58333 0 -1 0 190 190 190 255 0.327371 0.062481
-7.41667 5 17.58333 0 -1 0 190 190 190 255 0.327371 0.062481
-5.083332 5 19.91667 0 -1 0 190 190 190 255 0.327371 0.062481
-7.41667 5 19.91667 0 -1 0 190 190 190 255 0.327371 0.062481
-7.58333 5 17.58333 0 -1 0 190 190 190 255 0.327371 0.062481
-9.91667 5 17.58333 0 -1 0 190 190 190 255 0.327371 0.062481
-7.58333 5 19.91667 0 -1 0 190 190 190 255 0.327371 0.062481
-9.91667 5 19.91667 0 -1 0 190 190 190 255 0.327371 0.062481
-7.58333 5 15.08333 0 -1 0 190 190 190 255 0.327371 0.062481
-9.91667 5 15.08333 0 -1 0 190 190 190 255 0.327371 0.062481
-7.58333 5 17.41667 0 -1 0 190 190 190 255 0.327371 0.062481
-9.91667 5 17.41667 0 -1 0 190 190 190 255 0.327371 0.062481
-5.083332 5 15.08333 0 -1 0 190 190 190 255 0.327371 0.062481
-7.41667 5 15.08333 0 -1 0 190 190 190 255 0.327371 0.062481
-5.083332 5 17.41667 0 -1 0 190 190 190 255 0.327371 0.062481
-7.41667 5 17.41667 0 -1 0 190 190 190 255 0.327371 0.062481
0 5 15 0 -1 -5.020947e-08 190 190 190 255 0.327371 0.062481
5 5 15 0 -1 0 190 190 190 255 0.327371 0.062481
0 5 20 0 -1 1.430556e-07 190 190 190 255 0.327371 0.062481
5 5 20 0 -1 5.020777e-08 190 190 190 255 0.327371 0.062481
2.5 5 20 0 -1 5.753616e-07 190 190 190 255 0.327371 0.062481
2.5 5 15 0 -1 -5.722308e-07 190 190 190 255 0.327371 0.062481
0 5 17.5 0 -1 4.642398e-08 190 190 190 255 0.327371 0.062481
2.5 5 17.5 0 -1 1.568998e-09 190 190 190 255 0.327371 0.062481
5 5 17.5 0 -1 2.510473e-08 190 190 190 255 0.327371 0.062481
2.58333 5 17.58333 0 -1 0 190 190 190 255 0.364026 0.063229
4.916668 5 17.58333 0 -1 0 190 190 190 255 0.364026 0.063229
4.916668 5 19.91667 0 -1 0 190 190 190 255 0.364026 0.063229
2.58333 5 19.91667 0 -1 0 190 190 190 255 0.364026 0.063229
0.08333015 5 17.58333 0 -1 0 190 190 190 255 0.364026 0.063229
2.41667 5 17.58333 0 -1 0 190 190 190 255 0.364026 0.063229
2.41667 5 19.91667 0 -1 0 190 190 190 255 0.364026 0.063229
0.08333015 5 19.91667 0 -1 0 190 190 190 255 0.364026 0.063229
0.08333015 5 15.08333 0 -1 0 190 190 190 255 0.364026 0.063229
2.41667 5 15.08333 0 -1 0 190 190 190 255 0.364026 0.063229
2.41667 5 17.41667 0 -1 0 190 190 190 255 0.364026 0.063229
0.08333015 5 17.41667 0 -1 0 190 190 190 255 0.364026 0.063229
2.58333 5 15.08333 0 -1 0 190 190 190 255 0.364026 0.063229
4.916668 5 15.08333 0 -1 0 190 190 190 255 0.364026 0.063229
4.916668 5 17.41667 0 -1 0 190 190 190 255 0.364026 0.063229
2.58333 5 17.41667 0 -1 0 190 190 190 255 0.364026 0.063229
4.916668 5 17.58333 0 -1 0 190 190 190 255 0.327371 0.062481
2.58333 5 17.58333 0 -1 0 190 190 190 255 0.327371 0.062481
4.916668 5 19.91667 0 -1 0 190 190 190 255 0.327371 0.062481
2.58333 5 19.91667 0 -1 1.127665e-06 190 190 190 255 0.327371 0.062481
2.41667 5 17.58333 0 -1 -1.127713e-06 190 190 190 255 0.327371 0.062481
0.08333015 5 17.58333 0 -1 0 190 190 190 255 0.327371 0.062481
2.41667 5 19.91667 0 -1 0 190 190 190 255 0.327371 0.062481
0.08333015 5 19.91667 0 -1 1.409583e-07 190 190 190 255 0.327371 0.062481
2.41667 5 15.08333 0 -1 -1.127713e-06 190 190 190 255 0.327371 0.062481
0.08333015 5 15.08333 0 -1 0 190 190 190 255 0.327371 0.062481
2.41667 5 17.41667 0 -1 0 190 190 190 255 0.327371 0.062481
0.08333015 5 17.41667 0 -1 1.409642e-07 190 190 190 255 0.327371 0.062481
4.916668 5 15.08333 0 -1 0 190 190 190 255 0.327371 0.062481
2.58333 5 15.08333 0 -1 0 190 190 190 255 0.327371 0.062481
4.916668 5 17.41667 0 -1 0 190 190 190 255 0.327371 0.062481
2.58333 5 17.41667 0 -1 1.127713e-06 190 190 190 255 0.327371 0.062481
-5 5 15 0 -1 -5.020945e-08 190 190 190 255 0.327371 0.062481
0 5 15 0 -1 -1.430554e-06 190 190 190 255 0.327371 0.062481
-5 5 20 0 -1 0 190 190 190 255 0.327371 0.062481
0 5 20 0 -1 5.020777e-08 190 190 190 255 0.327371 0.062481
-2.5 5 20 0 -1 5.722237e-07 190 190 190 255 0.327371 0.062481
-2.5 5 15 0 -1 -6.036115e-07 190 190 190 255 0.327371 0.062481
-5 5 17.5 0 -1 -2.510473e-08 190 190 190 255 0.327371 0.062481
-2.5 5 17.5 0 -1 -1.56904e-08 190 190 190 255 0.327371 0.062481
0 5 17.5 0 -1 -6.901723e-07 190 190 190 255 0.327371 0.062481
-2.41667 5 17.58333 0 -1 0 190 190 190 255 0.364026 0.063229
-0.083332 5 17.58333 0 -1 0 190 190 190 255 0.364026 0.063229
-0.083332 5 19.91667 0 -1 0 190 190 190 255 0.364026 0.063229
-2.41667 5 19.91667 0 -1 0 190 190 190 255 0.364026 0.063229
-4.91667 5 17.58333 0 -1 0 190 190 190 255 0.364026 0.063229
-2.58333 5 17.58333 0 -1 0 190 190 190 255 0.364026 0.063229
-2.58333 5 19.91667 0 -1 0 190 190 190 255 0.364026 0.063229
-4.91667 5 19.91667 0 -1 0 190 190 190 255 0.364026 0.063229
-4.91667 5 15.08333 0 -1 0 190 190 190 255 0.364026 0.063229
-2.58333 5 15.08333 0 -1 0 190 190 190 255 0.364026 0.063229
-2.58333 5 17.41667 0 -1 0 190 190 190 255 0.364026 0.063229
-4.91667 5 17.41667 0 -1 0 190 190 190 255 0.364026 0.063229
-2.41667 5 15.08333 0 -1 0 190 190 190 255 0.364026 0.063229
-0.083332 5 15.08333 0 -1 0 190 190 190 255 0.364026 0.063229
-0.083332 5 17.41667 0 -1 0 190 190 190 255 0.364026 0.063229
-2.41667 5 17.41667 0 -1 0 190 190 190 255 0.364026 0.063229
-0.083332 5 17.58333 0 -1 -1.409649e-06 190 190 190 255 0.327371 0.062481
-2.41667 5 17.58333 0 -1 0 190 190 190 255 0.327371 0.062481
-0.083332 5 19.91667 0 -1 0 190 190 190 255 0.327371 0.062481
-2.41667 5 19.91667 0 -1 1.127666e-06 190 190 190 255 0.327371 0.062481
-2.58333 5 17.58333 0 -1 -1.127713e-06 190 190 190 255 0.327371 0.062481
-4.91667 5 17.58333 0 -1 0 190 190 190 255 0.327371 0.062481
-2.58333 5 19.91667 0 -1 0 190 190 190 255 0.327371 0.062481
-4.91667 5 19.91667 0 -1 0 190 190 190 255 0.327371 0.062481
-2.58333 5 15.08333 0 -1 -1.127713e-06 190 190 190 255 0.327371 0.062481
-4.91667 5 15.08333 0 -1 0 190 190 190 255 0.327371 0.062481
-2.58333 5 17.41667 0 -1 0 190 190 190 255 0.327371 0.062481
-4.91667 5 17.41667 0 -1 0 190 190 190 255 0.327371 0.062481
-0.083332 5 15.08333 0 -1 -1.409649e-06 190 190 190 255 0.327371 0.062481
-2.41667 5 15.08333 0 -1 0 190 190 190 255 0.327371 0.062481
-0.083332 5 17.41667 0 -1 0 190 190 190 255 0.327371 0.062481
-2.41667 5 17.41667 0 -1 1.127713e-06 190 190 190 255 0.327371 0.062481
-5 5 10 0 -1 -5.020945e-08 190 190 190 255 0.327371 0.062481
0 5 10 0 -1 -1.430554e-06 190 190 190 255 0.327371 0.062481
-5 5 15 0 -1 0 190 190 190 255 0.327371 0.062481
0 5 15 0 -1 5.020946e-08 190 190 190 255 0.327371 0.062481
-2.5 5 15 0 -1 5.722307e-07 190 190 190 255 0.327371 0.062481
-2.5 5 10 0 -1 -6.036115e-07 190 190 190 255 0.327371 0.062481
-5 5 12.5 0 -1 -2.510473e-08 190 190 190 255 0.327371 0.062481
-2.5 5 12.5 0 -1 -1.56904e-08 190 190 190 255 0.327371 0.062481
0 5 12.5 0 -1 -6.901723e-07 190 190 190 255 0.327371 0.062481
-2.41667 5 12.58333 0 -1 0 190 190 190 255 0.364026 0.063229
-0.083332 5 12.58333 0 -1 0 190 190 190 255 0.364026 0.063229
-0.083332 5 14.91667 0 -1 0 190 190 190 255 0.364026 0.063229
-2.41667 5 14.91667 0 -1 0 190 190 190 255 0.364026 0.063229
-4.91667 5 12.58333 0 -1 0 190 190 190 255 0.364026 0.063229
-2.58333 5 12.58333 0 -1 0 190 190 190 255 0.364026 0.063229
-2.58333 5 14.91667 0 -1 0 190 190 190 255 0.364026 0.063229
-4.91667 5 14.91667 0 -1 0 190 190 190 255 0.364026 0.063229
-4.91667 5 10.08333 0 -1 0 190 190 190 255 0.364026 0.063229
-2.58333 5 10.08333 0 -1 0 190 190 190 255 0.364026 0.063229
-2.58333 5 12.41667 0 -1 0 190 190 190 255 0.364026 0.063229
-4.91667 5 12.41667 0 -1 0 190 190 190 255 0.364026 0.063229
-2.41667 5 10.08333 0 -1 0 190 190 190 255 0.364026 0.063229
-0.083332 5 10.08333 0 -1 0 190 190 190 255 0.364026 0.063229
-0.083332 5 12.41667 0 -1 0 190 190 190 255 0.364026 0.063229
-2.41667 5 12.41667 0 -1 0 190 190 190 255 0.364026 0.063229
-0.083332 5 12.58333 0 -1 -1.409649e-06 190 190 190 255 0.327371 0.062481
-2.41667 5 12.58333 0 -1 0 190 190 190 255 0.327371 0.062481
-0.083332 5 14.91667 0 -1 0 190 190 190 255 0.327371 0.062481
-2.41667 5 14.91667 0 -1 1.127713e-06 190 190 190 255 0.327371 0.062481
-2.58333 5 12.58333 0 -1 -1.127713e-06 190 190 190 255 0.327371 0.062481
-4.91667 5 12.58333 0 -1 0 190 190 190 255 0.327371 0.062481
-2.58333 5 14.91667 0 -1 0 190 190 190 255 0.327371 0.062481
-4.91667 5 14.91667 0 -1 0 190 190 190 255 0.327371 0.062481
-2.58333 5 10.08333 0 -1 -1.127713e-06 190 190 190 255 0.327371 0.062481
-4.91667 5 10.08333 0 -1 0 190 190 190 255 0.327371 0.062481
-2.58333 5 12.41667 0 -1 0 190 190 190 255 0.327371 0.062481
-4.91667 5 12.41667 0 -1 0 190 190 190 255 0.327371 0.062481
-0.083332 5 10.08333 0 -1 -1.409649e-06 190 190 190 255 0.327371 0.062481
-2.41667 5 10.08333 0 -1 0 190 190 190 255 0.327371 0.062481
-0.083332 5 12.41667 0 -1 0 190 190 190 255 0.327371 0.062481
-2.41667 5 12.41667 0 -1 1.127713e-06 190 190 190 255 0.327371 0.062481
0 5 10 0 -1 -5.020947e-08 190 190 190 255 0.327371 0.062481
5 5 10 0 -1 0 190 190 190 255 0.327371 0.062481
0 5 15 0 -1 1.430574e-07 190 190 190 255 0.327371 0.062481
5 5 15 0 -1 5.020945e-08 190 190 190 255 0.327371 0.062481
2.5 5 15 0 -1 5.753687e-07 190 190 190 255 0.327371 0.062481
2.5 5 10 0 -1 -5.722308e-07 190 190 190 255 0.327371 0.062481
0 5 12.5 0 -1 4.642398e-08 190 190 190 255 0.327371 0.062481
2.5 5 12.5 0 -1 1.568998e-09 190 190 190 255 0.327371 0.062481
5 5 12.5 0 -1 2.510473e-08 190 190 190 255 0.327371 0.062481
2.58333 5 12.58333 0 -1 0 190 190 190 255 0.364026 0.063229
4.916668 5 12.58333 0 -1 0 190 190 190 255 0.364026 0.063229
4.916668 5 14.91667 0 -1 0 190 190 190 255 0.364026 0.063229
2.58333 5 14.91667 0 -1 0 190 190 190 255 0.364026 0.063229
0.08333015 5 12.58333 0 -1 0 190 190 190 255 0.364026 0.063229
2.41667 5 12.58333 0 -1 0 190 190 190 255 0.364026 0.063229
2.41667 5 14.91667 0 -1 0 190 190 190 255 0.364026 0.063229
0.08333015 5 14.91667 0 -1 0 190 190 190 255 0.364026 0.063229
0.08333015 5 10.08333 0 -1 0 190 190 190 255 0.364026 0.063229
2.41667 5 10.08333 0 -1 0 190 190 190 255 0.364026 0.063229
2.41667 5 12.41667 0 -1 0 190 190 190 255 0.364026 0.063229
0.08333015 5 12.41667 0 -1 0 190 190 190 255 0.364026 0.063229
2.58333 5 10.08333 0 -1 0 190 190 190 255 0.364026 0.063229
4.916668 5 10.08333 0 -1 0 190 190 190 255 0.364026 0.063229
4.916668 5 12.41667 0 -1 0 190 190 190 255 0.364026 0.063229
2.58333 5 12.41667 0 -1 0 190 190 190 255 0.364026 0.063229
4.916668 5 12.58333 0 -1 0 190 190 190 255 0.327371 0.062481
2.58333 5 12.58333 0 -1 0 190 190 190 255 0.327371 0.062481
4.916668 5 14.91667 0 -1 0 190 190 190 255 0.327371 0.062481
2.58333 5 14.91667 0 -1 1.127713e-06 190 190 190 255 0.327371 0.062481
2.41667 5 12.58333 0 -1 -1.127713e-06 190 190 190 255 0.327371 0.062481
0.08333015 5 12.58333 0 -1 0 190 190 190 255 0.327371 0.062481
2.41667 5 14.91667 0 -1 0 190 190 190 255 0.327371 0.062481
0.08333015 5 14.91667 0 -1 1.409642e-07 190 190 190 255 0.327371 0.062481
2.41667 5 10.08333 0 -1 -1.127713e-06 190 190 190 255 0.327371 0.062481
0.08333015 5 10.08333 0 -1 0 190 190 190 255 0.327371 0.062481
2.41667 5 12.41667 0 -1 0 190 190 190 255 0.327371 0.062481
0.08333015 5 12.41667 0 -1 1.409642e-07 190 190 190 255 0.327371 0.062481
4.916668 5 10.08333 0 -1 0 190 190 190 255 0.327371 0.062481
2.58333 5 10.08333 0 -1 0 190 190 190 255 0.327371 0.062481
4.916668 5 12.41667 0 -1 0 190 190 190 255 0.327371 0.062481
2.58333 5 12.41667 0 -1 1.127713e-06 190 190 190 255 0.327371 0.062481
-10 5 10 0 -1 0 190 190 190 255 0.327371 0.062481
-5 5 10 0 -1 0 190 190 190 255 0.327371 0.062481
-10 5 15 0 -1 0 190 190 190 255 0.327371 0.062481
-5 5 15 0 -1 0 190 190 190 255 0.327371 0.062481
-7.5 5 15 0 -1 0 190 190 190 255 0.327371 0.062481
-7.5 5 10 0 -1 0 190 190 190 255 0.327371 0.062481
-10 5 12.5 0 -1 0 190 190 190 255 0.327371 0.062481
-7.5 5 12.5 0 -1 0 190 190 190 255 0.327371 0.062481
-5 5 12.5 0 -1 0 190 190 190 255 0.327371 0.062481
-7.41667 5 12.58333 0 -1 0 190 190 190 255 0.364026 0.063229
-5.083332 5 12.58333 0 -1 0 190 190 190 255 0.364026 0.063229
-5.083332 5 14.91667 0 -1 0 190 190 190 255 0.364026 0.063229
-7.41667 5 14.91667 0 -1 0 190 190 190 255 0.364026 0.063229
-9.91667 5 12.58333 0 -1 0 190 190 190 255 0.364026 0.063229
-7.58333 5 12.58333 0 -1 0 190 190 190 255 0.364026 0.063229
-7.58333 5 14.91667 0 -1 0 190 190 190 255 0.364026 0.063229
-9.91667 5 14.91667 0 -1 0 190 190 190 255 0.364026 0.063229
-9.91667 5 10.08333 0 -1 0 190 190 190 255 0.364026 0.063229
-7.58333 5 10.08333 0 -1 0 190 190 190 255 0.364026 0.063229
-7.58333 5 12.41667 0 -1 0 190 190 190 255 0.364026 0.063229
-9.91667 5 12.41667 0 -1 0 190 190 190 255 0.364026 0.063229
-7.41667 5 10.08333 0 -1 0 190 190 190 255 0.364026 0.063229
-5.083332 5 10.08333 0 -1 0 190 190 190 255 0.364026 0.063229
-5.083332 5 12.41667 0 -1 0 190 190 190 255 0.364026 0.063229
-7.41667 5 12.41667 0 -1 0 190 190 190 255 0.364026 0.063229
-5.083332 5 12.58333 0 -1 0 190 190 190 255 0.327371 0.062481
-7.41667 5 12.58333 0 -1 0 190 190 190 255 0.327371 0.062481
-5.083332 5 14.91667 0 -1 0 190 190 190 255 0.327371 0.062481
-7.41667 5 14.91667 0 -1 0 190 190 190 255 0.327371 0.062481
-7.58333 5 12.58333 0 -1 0 190 190 190 255 0.327371 0.062481
-9.91667 5 12.58333 0 -1 0 190 190 190 255 0.327371 0.062481
-7.58333 5 14.91667 0 -1 0 190 190 190 255 0.327371 0.062481
-9.91667 5 14.91667 0 -1 0 190 190 190 255 0.327371 0.062481
-7.58333 5 10.08333 0 -1 0 190 190 190 255 0.327371 0.062481
-9.91667 5 10.08333 0 -1 0 190 190 190 255 0.327371 0.062481
-7.58333 5 12.41667 0 -1 0 190 190 190 255 0.327371 0.062481
-9.91667 5 12.41667 0 -1 0 190 190 190 255 0.327371 0.062481
-5.083332 5 10.08333 0 -1 0 190 190 190 255 0.327371 0.062481
-7.41667 5 10.08333 0 -1 0 190 190 190 255 0.327371 0.062481
-5.083332 5 12.41667 0 -1 0 190 190 190 255 0.327371 0.062481
-7.41667 5 12.41667 0 -1 0 190 190 190 255 0.327371 0.062481
-10 5 5 0 -1 0 190 190 190 255 0.327371 0.062481
-5 5 5 0 -1 0 190 190 190 255 0.327371 0.062481
-10 5 10 0 -1 0 190 190 190 255 0.327371 0.062481
-5 5 10 0 -1 0 190 190 190 255 0.327371 0.062481
-7.5 5 10 0 -1 0 190 190 190 255 0.327371 0.062481
-7.5 5 5 0 -1 0 190 190 190 255 0.327371 0.062481
-10 5 7.5 0 -1 0 190 190 190 255 0.327371 0.062481
-7.5 5 7.5 0 -1 0 190 190 190 255 0.327371 0.062481
-5 5 7.5 0 -1 0 190 190 190 255 0.327371 0.062481
-7.41667 5 7.58333 0 -1 0 190 190 190 255 0.364026 0.063229
-5.083332 5 7.58333 0 -1 0 190 190 190 255 0.364026 0.063229
-5.083332 5 9.91667 0 -1 0 190 190 190 255 0.364026 0.063229
-7.41667 5 9.91667 0 -1 0 190 190 190 255 0.364026 0.063229
-9.91667 5 7.58333 0 -1 0 190 190 190 255 0.364026 0.063229
-7.58333 5 7.58333 0 -1 0 190 190 190 255 0.364026 0.063229
-7.58333 5 9.91667 0 -1 0 190 190 190 255 0.364026 0.063229
-9.91667 5 9.91667 0 -1 0 190 190 190 255 0.364026 0.063229
-9.91667 5 5.08333 0 -1 0 190 190 190 255 0.364026 0.063229
-7.58333 5 5.08333 0 -1 0 190 190 190 255 0.364026 0.063229
-7.58333 5 7.41667 0 -1 0 190 190 190 255 0.364026 0.063229
-9.91667 5 7.41667 0 -1 0 190 190 190 255 0.364026 0.063229
-7.41667 5 5.08333 0 -1 0 190 190 190 255 0.364026 0.063229
-5.083332 5 5.08333 0 -1 0 190 190 190 255 0.364026 0.063229
-5.083332 5 7.41667 0 -1 0 190 190 190 255 0.364026 0.063229
-7.41667 5 7.41667 0 -1 0 190 190 190 255 0.364026 0.063229
-5.083332 5 7.58333 0 -1 0 190 190 190 255 0.327371 0.062481
-7.41667 5 7.58333 0 -1 0 190 190 190 255 0.327371 0.062481
-5.083332 5 9.91667 0 -1 0 190 190 190 255 0.327371 0.062481
-7.41667 5 9.91667 0 -1 0 190 190 190 255 0.327371 0.062481
-7.58333 5 7.58333 0 -1 0 190 190 190 255 0.327371 0.062481
-9.91667 5 7.58333 0 -1 0 190 190 190 255 0.327371 0.062481
-7.58333 5 9.91667 0 -1 0 190 190 190 255 0.327371 0.062481
-9.91667 5 9.91667 0 -1 0 190 190 190 255 0.327371 0.062481
-7.58333 5 5.08333 0 -1 0 190 190 190 255 0.327371 0.062481
-9.91667 5 5.08333 0 -1 0 190 190 190 255 0.327371 0.062481
-7.58333 5 7.41667 0 -1 0 190 190 190 255 0.327371 0.062481
-9.91667 5 7.41667 0 -1 0 190 190 190 255 0.327371 0.062481
-5.083332 5 5.08333 0 -1 0 190 190 190 255 0.327371 0.062481
-7.41667 5 5.08333 0 -1 0 190 190 190 255 0.327371 0.062481
-5.083332 5 7.41667 0 -1 0 190 190 190 255 0.327371 0.062481
-7.41667 5 7.41667 0 -1 0 190 190 190 255 0.327371 0.062481
0 5 5 0 -1 -5.020947e-08 190 190 190 255 0.327371 0.062481
5 5 5 0 -1 0 190 190 190 255 0.327371 0.062481
0 5 10 0 -1 1.430574e-07 190 190 190 255 0.327371 0.062481
5 5 10 0 -1 5.020945e-08 190 190 190 255 0.327371 0.062481
2.5 5 10 0 -1 5.753687e-07 190 190 190 255 0.327371 0.062481
2.5 5 5 0 -1 -5.722308e-07 190 190 190 255 0.327371 0.062481
0 5 7.5 0 -1 4.642398e-08 190 190 190 255 0.327371 0.062481
2.5 5 7.5 0 -1 1.568998e-09 190 190 190 255 0.327371 0.062481
5 5 7.5 0 -1 2.510473e-08 190 190 190 255 0.327371 0.062481
2.58333 5 7.58333 0 -1 0 190 190 190 255 0.364026 0.063229
4.916668 5 7.58333 0 -1 0 190 190 190 255 0.364026 0.063229
4.916668 5 9.91667 0 -1 0 190 190 190 255 0.364026 0.063229
2.58333 5 9.91667 0 -1 0 190 190 190 255 0.364026 0.063229
0.08333015 5 7.58333 0 -1 0 190 190 190 255 0.364026 0.063229
2.41667 5 7.58333 0 -1 0 190 190 190 255 0.364026 0.063229
2.41667 5 9.91667 0 -1 0 190 190 190 255 0.364026 0.063229
0.08333015 5 9.91667 0 -1 0 190 190 190 255 0.364026 0.063229
0.08333015 5 5.08333 0 -1 0 190 190 190 255 0.364026 0.063229
2.41667 5 5.08333 0 -1 0 190 190 190 255 0.364026 0.063229
2.41667 5 7.41667 0 -1 0 190 190 190 255 0.364026 0.063229
0.08333015 5 7.41667 0 -1 0 190 190 190 255 0.364026 0.063229
2.58333 5 5.08333 0 -1 0 190 190 190 255 0.364026 0.063229
4.916668 5 5.08333 0 -1 0 190 190 190 255 0.364026 0.063229
4.916668 5 7.41667 0 -1 0 190 190 190 255 0.364026 0.063229
2.58333 5 7.41667 0 -1 0 190 190 190 255 0.364026 0.063229
4.916668 5 7.58333 0 -1 0 190 190 190 255 0.327371 0.062481
2.58333 5 7.58333 0 -1 0 190 190 190 255 0.327371 0.062481
4.916668 5 9.91667 0 -1 0 190 190 190 255 0.327371 0.062481
2.58333 5 9.91667 0 -1 1.127713e-06 190 190 190 255 0.327371 0.062481
2.41667 5 7.58333 0 -1 -1.127713e-06 190 190 190 255 0.327371 0.062481
0.08333015 5 7.58333 0 -1 0 190 190 190 255 0.327371 0.062481
2.41667 5 9.91667 0 -1 0 190 190 190 255 0.327371 0.062481
0.08333015 5 9.91667 0 -1 1.409642e-07 190 190 190 255 0.327371 0.062481
2.41667 5 5.08333 0 -1 -1.127713e-06 190 190 190 255 0.327371 0.062481
0.08333015 5 5.08333 0 -1 0 190 190 190 255 0.327371 0.062481
2.41667 5 7.41667 0 -1 0 190 190 190 255 0.327371 0.062481
0.08333015 5 7.41667 0 -1 1.409642e-07 190 190 190 255 0.327371 0.062481
4.916668 5 5.08333 0 -1 0 190 190 190 255 0.327371 0.062481
2.58333 5 5.08333 0 -1 0 190 190 190 255 0.327371 0.062481
4.916668 5 7.41667 0 -1 0 190 190 190 255 0.327371 0.062481
2.58333 5 7.41667 0 -1 1.127713e-06 190 190 190 255 0.327371 0.062481
-5 5 5 0 -1 -5.020945e-08 190 190 190 255 0.327371 0.062481
0 5 5 0 -1 -1.430554e-06 190 190 190 255 0.327371 0.062481
-5 5 10 0 -1 0 190 190 190 255 0.327371 0.062481
0 5 10 0 -1 5.020946e-08 190 190 190 255 0.327371 0.062481
-2.5 5 10 0 -1 5.722307e-07 190 190 190 255 0.327371 0.062481
-2.5 5 5 0 -1 -6.036115e-07 190 190 190 255 0.327371 0.062481
-5 5 7.5 0 -1 -2.510473e-08 190 190 190 255 0.327371 0.062481
-2.5 5 7.5 0 -1 -1.56904e-08 190 190 190 255 0.327371 0.062481
0 5 7.5 0 -1 -6.901723e-07 190 190 190 255 0.327371 0.062481
-2.41667 5 7.58333 0 -1 0 190 190 190 255 0.364026 0.063229
-0.083332 5 7.58333 0 -1 0 190 190 190 255 0.364026 0.063229
-0.083332 5 9.91667 0 -1 0 190 190 190 255 0.364026 0.063229
-2.41667 5 9.91667 0 -1 0 190 190 190 255 0.364026 0.063229
-4.91667 5 7.58333 0 -1 0 190 190 190 255 0.364026 0.063229
-2.58333 5 7.58333 0 -1 0 190 190 190 255 0.364026 0.063229
-2.58333 5 9.91667 0 -1 0 190 190 190 255 0.364026 0.063229
-4.91667 5 9.91667 0 -1 0 190 190 190 255 0.364026 0.063229
-4.91667 5 5.08333 0 -1 0 190 190 190 255 0.364026 0.063229
-2.58333 5 5.08333 0 -1 0 190 190 190 255 0.364026 0.063229
-2.58333 5 7.41667 0 -1 0 190 190 190 255 0.364026 0.063229
-4.91667 5 7.41667 0 -1 0 190 190 190 255 0.364026 0.063229
-2.41667 5 5.08333 0 -1 0 190 190 190 255 0.364026 0.063229
-0.083332 5 5.08333 0 -1 0 190 190 190 255 0.364026 0.063229
-0.083332 5 7.41667 0 -1 0 190 190 190 255 0.364026 0.063229
-2.41667 5 7.41667 0 -1 0 190 190 190 255 0.364026 0.063229
-0.083332 5 7.58333 0 -1 -1.409649e-06 190 190 190 255 0.327371 0.062481
-2.41667 5 7.58333 0 -1 0 190 190 190 255 0.327371 0.062481
-0.083332 5 9.91667 0 -1 0 190 190 190 255 0.327371 0.062481
-2.41667 5 9.91667 0 -1 1.127713e-06 190 190 190 255 0.327371 0.062481
-2.58333 5 7.58333 0 -1 -1.127713e-06 190 190 190 255 0.327371 0.062481
-4.91667 5 7.58333 0 -1 0 190 190 190 255 0.327371 0.062481
-2.58333 5 9.91667 0 -1 0 190 190 190 255 0.327371 0.062481
-4.91667 5 9.91667 0 -1 0 190 190 190 255 0.327371 0.062481
-2.58333 5 5.08333 0 -1 -1.127713e-06 190 190 190 255 0.327371 0.062481
-4.91667 5 5.08333 0 -1 0 190 190 190 255 0.327371 0.062481
-2.58333 5 7.41667 0 -1 0 190 190 190 255 0.327371 0.062481
-4.91667 5 7.41667 0 -1 0 190 190 190 255 0.327371 0.062481
-0.083332 5 5.08333 0 -1 -1.409649e-06 190 190 190 255 0.327371 0.062481
-2.41667 5 5.08333 0 -1 0 190 190 190 255 0.327371 0.062481
-0.083332 5 7.41667 0 -1 0 190 190 190 255 0.327371 0.062481
-2.41667 5 7.41667 0 -1 1.127713e-06 190 190 190 255 0.327371 0.062481
3 9 10 11 
3 9 11 12 
3 13 14 15 
3 13 15 16 
3 17 18 19 
3 17 19 20 
3 21 22 23 
3 21 23 24 
3 7 8 25 
3 7 25 26 
3 8 3 27 
3 8 27 25 
3 3 4 28 
3 3 28 27 
3 4 7 26 
3 4 26 28 
3 6 7 29 
3 6 29 30 
3 7 4 31 
3 7 31 29 
3 4 2 32 
3 4 32 31 
3 2 6 30 
3 2 30 32 
3 0 5 33 
3 0 33 34 
3 5 7 35 
3 5 35 33 
3 7 6 36 
3 7 36 35 
3 6 0 34 
3 6 34 36 
3 5 1 37 
3 5 37 38 
3 1 8 39 
3 1 39 37 
3 8 7 40 
3 8 40 39 
3 7 5 38 
3 7 38 40 
3 50 51 52 
3 50 52 53 
3 54 55 56 
3 54 56 57 
3 58 59 60 
3 58 60 61 
3 62 63 64 
3 62 64 65 
3 48 49 66 
3 48 66 67 
3 49 44 68 
3 49 68 66 
3 44 45 69 
3 44 69 68 
3 45 48 67 
3 45 67 69 
3 47 48 70 
3 47 70 71 
3 48 45 72 
3 48 72 70 
3 45 43 73 
3 45 73 72 
3 43 47 71 
3 43 71 73 
3 41 46 74 
3 41 74 75 
3 46 48 76 
3 46 76 74 
3 48 47 77 
3 48 77 76 
3 47 41 75 
3 47 75 77 
3 46 42 78 
3 46 78 79 
3 42 49 80 
3 42 80 78 
3 49 48 81 
3 49 81 80 
3 48 46 79 
3 48 79 81 
3 91 92 93 
3 91 93 94 
3 95 96 97 
3 95 97 98 
3 99 100 101 
3 99 101 102 
3 103 104 105 
3 103 105 106 
3 89 90 107 
3 89 107 108 
3 90 85 109 
3 90 109 107 
3 85 86 110 
3 85 110 109 
3 86 89 108 
3 86 108 110 
3 88 89 111 
3 88 111 112 
3 89 86 113 
3 89 113 111 
3 86 84 114 
3 86 114 113 
3 84 88 112 
3 84 112 114 
3 82 87 115 
3 82 115 116 
3 87 89 117 
3 87 117 115 
3 89 88 118 
3 89 118 117 
3 88 82 116 
3 88 116 118 
3 87 83 119 
3 87 119 120 
3 83 90 121 
3 83 121 119 
3 90 89 122 
3 90 122 121 
3 89 87 120 
3 89 120 122 
3 132 133 134 
3 132 134 135 
3 136 137 138 
3 136 138 139 
3 140 141 142 
3 140 142 143 
3 144 145 146 
3 144 146 147 
3 130 131 148 
3 130 148 149 
3 131 126 150 
3 131 150 148 
3 126 127 151 
3 126 151 150 
3 127 130 149 
3 127 149 151 
3 129 130 152 
3 129 152 153 
3 130 127 154 
3 130 154 152 
3 127 125 155 
3 127 155 154 
3 125 129 153 
3 125 153 155 
3 123 128 156 
3 123 156 157 
3 128 130 158 
3 128 158 156 
3 130 129 159 
3 130 159 158 
3 129 123 157 
3 129 157 159 
3 128 124 160 
3 128 160 161 
3 124 131 162 
3 124 162 160 
3 131 130 163 
3 131 163 162 
3 130 128 161 
3 130 161 163 
3 173 174 175 
3 173 175 176 
3 177 178 179 
3 177 179 180 
3 181 182 183 
3 181 183 184 
3 185 186 187 
3 185 187 188 
3 171 172 189 
3 171 189 190 
3 172 167 191 
3 172 191 189 
3 167 168 192 
3 167 192 191 
3 168 171 190 
3 168 190 192 
3 170 171 193 
3 170 193 194 
3 171 168 195 
3 171 195 193 
3 168 166 196 
3 168 196 195 
3 166 170 194 
3 166 194 196 
3 164 169 197 
3 164 197 198 
3 169 171 199 
3 169 199 197 
3 171 170 200 
3 171 200 199 
3 170 164 198 
3 170 198 200 
3 169 165 201 
3 169 201 202 
3 165 172 203 
3 165 203 201 
3 172 171 204 
3 172 204 203 
3 171 169 202 
3 171 202 204 
3 214 215 216 
3 214 216 217 
3 218 219 220 
3 218 220 221 
3 222 223 224 
3 222 224 225 
3 226 227 228 
3 226 228 229 
3 212 213 230 
3 212 230 231 
3 213 208 232 
3 213 232 230 
3 208 209 233 
3 208 233 232 
3 209 212 231 
3 209 231 233 
3 211 212 234 
3 211 234 235 
3 212 209 236 
3 212 236 234 
3 209 207 237 
3 209 237 236 
3 207 211 235 
3 207 235 237 
3 205 210 238 
3 205 238 239 
3 210 212 240 
3 210 240 238 
3 212 211 241 
3 212 241 240 
3 211 205 239 
3 211 239 241 
3 210 206 242 
3 210 242 243 
3 206 213 244 
3 206 244 242 
3 213 212 245 
3 213 245 244 
3 212 210 243 
3 212 243 245 
3 255 256 257 
3 255 257 258 
3 259 260 261 
3 259 261 262 
3 263 264 265 
3 263 265 266 
3 267 268 269 
3 267 269 270 
3 253 254 271 
3 253 271 272 
3 254 249 273 
3 254 273 271 
3 249 250 274 
3 249 274 273 
3 250 253 272 
3 250 272 274 
3 252 253 275 
3 252 275 276 
3 253 250 277 
3 253 277 275 
3 250 248 278 
3 250 278 277 
3 248 252 276 
3 248 276 278 
3 246 251 279 
3 246 279 280 
3 251 253 281 
3 251 281 279 
3 253 252 282 
3 253 282 281 
3 252 246 280 
3 252 280 282 
3 251 247 283 
3 251 283 284 
3 247 254 285 
3 247 285 283 
3 254 253 286 
3 254 286 285 
3 253 251 284 
3 253 284 286 
3 296 297 298 
3 296 298 299 
3 300 301 302 
3 300 302 303 
3 304 305 306 
3 304 306 307 
3 308 309 310 
3 308 310 311 
3 294 295 312 
3 294 312 313 
3 295 290 314 
3 295 314 312 
3 290 291 315 
3 290 315 314 
3 291 294 313 
3 291 313 315 
3 293 294 316 
3 293 316 317 
3 294 291 318 
3 294 318 316 
3 291 289 319 
3 291 319 318 
3 289 293 317 
3 289 317 319 
3 287 292 320 
3 287 320 321 
3 292 294 322 
3 292 322 320 
3 294 293 323 
3 294 323 322 
3 293 287 321 
3 293 321 323 
3 292 288 324 
3 292 324 325 
3 288 295 326 
3 288 326 324 
3 295 294 327 
3 295 327 326 
3 294 292 325 
3 294 325 327 
3 337 338 339 
3 337 339 340 
3 341 342 343 
3 341 343 344 
3 345 346 347 
3 345 347 348 
3 349 350 351 
3 349 351 352 
3 335 336 353 
3 335 353 354 
3 336 331 355 
3 336 355 353 
3 331 332 356 
3 331 356 355 
3 332 335 354 
3 332 354 356 
3 334 335 357 
3 334 357 358 
3 335 332 359 
3 335 359 357 
3 332 330 360 
3 332 360 359 
3 330 334 358 
3 330 358 360 
3 328 333 361 
3 328 361 362 
3 333 335 363 
3 333 363 361 
3 335 334 364 
3 335 364 363 
3 334 328 362 
3 334 362 364 
3 333 329 365 
3 333 365 366 
3 329 336 367 
3 329 367 365 
3 336 335 368 
3 336 368 367 
3 335 333 366 
3 335 366 368 
3 378 379 380 
3 378 380 381 
3 382 383 384 
3 382 384 385 
3 386 387 388 
3 386 388 389 
3 390 391 392 
3 390 392 393 
3 376 377 394 
3 376 394 395 
3 377 372 396 
3 377 396 394 
3 372 373 397 
3 372 397 396 
3 373 376 395 
3 373 395 397 
3 375 376 398 
3 375 398 399 
3 376 373 400 
3 376 400 398 
3 373 371 401 
3 373 401 400 
3 371 375 399 
3 371 399 401 
3 369 374 402 
3 369 402 403 
3 374 376 404 
3 374 404 402 
3 376 375 405 
3 376 405 404 
3 375 369 403 
3 375 403 405 
3 374 370 406 
3 374 406 407 
3 370 377 408 
3 370 408 406 
3 377 376 409 
3 377 409 408 
3 376 374 407 
3 376 407 409 
3 419 420 421 
3 419 421 422 
3 423 424 425 
3 423 425 426 
3 427 428 429 
3 427 429 430 
3 431 432 433 
3 431 433 434 
3 417 418 435 
3 417 435 436 
3 418 413 437 
3 418 437 435 
3 413 414 438 
3 413 438 437 
3 414 417 436 
3 414 436 438 
3 416 417 439 
3 416 439 440 
3 417 414 441 
3 417 441 439 
3 414 412 442 
3 414 442 441 
3 412 416 440 
3 412 440 442 
3 410 415 443 
3 410 443 444 
3 415 417 445 
3 415 445 443 
3 417 416 446 
3 417 446 445 
3 416 410 444 
3 416 444 446 
3 415 411 447 
3 415 447 448 
3 411 418 449 
3 411 449 447 
3 418 417 450 
3 418 450 449 
3 417 415 448 
3 417 448 450 
3 460 461 462 
3 460 462 463 
3 464 465 466 
3 464 466 467 
3 468 469 470 
3 468 470 471 
3 472 473 474 
3 472 474 475 
3 458 459 476 
3 458 476 477 
3 459 454 478 
3 459 478 476 
3 454 455 479 
3 454 479 478 
3 455 458 477 
3 455 477 479 
3 457 458 480 
3 457 480 481 
3 458 455 482 
3 458 482 480 
3 455 453 483 
3 455 483 482 
3 453 457 481 
3 453 481 483 
3 451 456 484 
3 451 484 485 
3 456 458 486 
3 456 486 484 
3 458 457 487 
3 458 487 486 
3 457 451 485 
3 457 485 487 
3 456 452 488 
3 456 488 489 
3 452 459 490 
3 452 490 488 
3 459 458 491 
3 459 491 490 
3 458 456 489 
3 458 489 491 
