ply
format ascii 1.0
comment VCGLIB generated
element vertex 84
property float x
property float y
property float z
property float nx
property float ny
property float nz
property uchar red
property uchar green
property uchar blue
property uchar alpha
property float texture_u
property float texture_v
element face 42
property list uchar int vertex_indices
end_header
-15 0 15 -0 -1 -0 191 191 191 255 -15 0
-10 0 15 -0 -1 -0 191 191 191 255 -10 0
-15 0 20 -0 -1 -0 191 191 191 255 -15 0
-10 0 20 -0 -1 -0 191 191 191 255 -10 0
-15 0 20 -0 -1 -0 191 191 191 255 -15 0
-10 0 20 -0 -1 -0 191 191 191 255 -10 0
-15 0 25 -0 -1 -0 191 191 191 255 -15 0
-10 0 25 -0 -1 -0 191 191 191 255 -10 0
-15 0 10 -0 -1 -0 191 191 191 255 -15 0
-10 0 10 -0 -1 -0 191 191 191 255 -10 0
-15 0 15 -0 -1 -0 191 191 191 255 -15 0
-10 0 15 -0 -1 -0 191 191 191 255 -10 0
5 0 10 -0 -1 -0 191 191 191 255 5 0
10 0 10 -0 -1 -0 191 191 191 255 10 0
5 0 15 -0 -1 -0 191 191 191 255 5 0
10 0 15 -0 -1 -0 191 191 191 255 10 0
5 0 20 -0 -1 -0 191 191 191 255 5 0
10 0 20 -0 -1 -0 191 191 191 255 10 0
5 0 25 -0 -1 -0 191 191 191 255 5 0
10 0 25 -0 -1 -0 191 191 191 255 10 0
5 0 15 -0 -1 -0 191 191 191 255 5 0
10 0 15 -0 -1 -0 191 191 191 255 10 0
5 0 20 -0 -1 -0 191 191 191 255 5 0
10 0 20 -0 -1 -0 191 191 191 255 10 0
-5 0 15 -0 -1 -0 191 191 191 255 -5 0
0 0 15 -0 -1 -0 191 191 191 255 0 0
-5 0 20 -0 -1 -0 191 191 191 255 -5 0
0 0 20 -0 -1 -0 191 191 191 255 0 0
0 0 15 -0 -1 -0 191 191 191 255 0 0
5 0 15 -0 -1 -0 191 191 191 255 5 0
0 0 20 -0 -1 -0 191 191 191 255 0 0
5 0 20 -0 -1 -0 191 191 191 255 5 0
-10 0 15 -0 -1 -0 191 191 191 255 -10 0
-5 0 15 -0 -1 -0 191 191 191 255 -5 0
-10 0 20 -0 -1 -0 191 191 191 255 -10 0
-5 0 20 -0 -1 -0 191 191 191 255 -5 0
-5 0 20 -0 -1 -0 191 191 191 255 -5 0
0 0 20 -0 -1 -0 191 191 191 255 0 0
-5 0 25 -0 -1 -0 191 191 191 255 -5 0
0 0 25 -0 -1 -0 191 191 191 255 0 0
0 0 20 -0 -1 -0 191 191 191 255 0 0
5 0 20 -0 -1 -0 191 191 191 255 5 0
0 0 25 -0 -1 -0 191 191 191 255 0 0
5 0 25 -0 -1 -0 191 191 191 255 5 0
-10 0 20 -0 -1 -0 191 191 191 255 -10 0
-5 0 20 -0 -1 -0 191 191 191 255 -5 0
-10 0 25 -0 -1 -0 191 191 191 255 -10 0
-5 0 25 -0 -1 -0 191 191 191 255 -5 0
-10 0 10 -0 -1 -0 191 191 191 255 -10 0
-5 0 10 -0 -1 -0 191 191 191 255 -5 0
-10 0 15 -0 -1 -0 191 191 191 255 -10 0
-5 0 15 -0 -1 -0 191 191 191 255 -5 0
0 0 10 -0 -1 -0 191 191 191 255 0 0
5 0 10 -0 -1 -0 191 191 191 255 5 0
0 0 15 -0 -1 -0 191 191 191 255 0 0
5 0 15 -0 -1 -0 191 191 191 255 5 0
-5 0 10 -0 -1 -0 191 191 191 255 -5 0
0 0 10 -0 -1 -0 191 191 191 255 0 0
-5 0 15 -0 -1 -0 191 191 191 255 -5 0
0 0 15 -0 -1 -0 191 191 191 255 0 0
-5 0 5 -0 -1 -0 191 191 191 255 -5 0
0 0 5 -0 -1 -0 191 191 191 255 0 0
-5 0 10 -0 -1 -0 191 191 191 255 -5 0
0 0 10 -0 -1 -0 191 191 191 255 0 0
0 0 5 -0 -1 -0 191 191 191 255 0 0
5 0 5 -0 -1 -0 191 191 191 255 5 0
0 0 10 -0 -1 -0 191 191 191 255 0 0
5 0 10 -0 -1 -0 191 191 191 255 5 0
-10 0 5 -0 -1 -0 191 191 191 255 -10 0
-5 0 5 -0 -1 -0 191 191 191 255 -5 0
-10 0 10 -0 -1 -0 191 191 191 255 -10 0
-5 0 10 -0 -1 -0 191 191 191 255 -5 0
-10 0 0 -0 -1 -0 191 191 191 255 -10 0
-5 0 0 -0 -1 -0 191 191 191 255 -5 0
-10 0 5 -0 -1 -0 191 191 191 255 -10 0
-5 0 5 -0 -1 -0 191 191 191 255 -5 0
0 0 0 -0 -1 -0 191 191 191 255 0 0
5 0 0 -0 -1 -0 191 191 191 255 5 0
0 0 5 -0 -1 -0 191 191 191 255 0 0
5 0 5 -0 -1 -0 191 191 191 255 5 0
-5 0 0 -0 -1 -0 191 191 191 255 -5 0
0 0 0 -0 -1 -0 191 191 191 255 0 0
-5 0 5 -0 -1 -0 191 191 191 255 -5 0
0 0 5 -0 -1 -0 191 191 191 255 0 0
3 3 1 0 
3 3 0 2 
3 7 5 4 
3 7 4 6 
3 11 9 8 
3 11 8 10 
3 15 13 12 
3 15 12 14 
3 19 17 16 
3 19 16 18 
3 23 21 20 
3 23 20 22 
3 27 25 24 
3 27 24 26 
3 31 29 28 
3 31 28 30 
3 35 33 32 
3 35 32 34 
3 39 37 36 
3 39 36 38 
3 43 41 40 
3 43 40 42 
3 47 45 44 
3 47 44 46 
3 51 49 48 
3 51 48 50 
3 55 53 52 
3 55 52 54 
3 59 57 56 
3 59 56 58 
3 63 61 60 
3 63 60 62 
3 67 65 64 
3 67 64 66 
3 71 69 68 
3 71 68 70 
3 75 73 72 
3 75 72 74 
3 79 77 76 
3 79 76 78 
3 83 81 80 
3 83 80 82 
