ply
format ascii 1.0
comment VCGLIB generated
element vertex 60
property float x
property float y
property float z
property float nx
property float ny
property float nz
property uchar red
property uchar green
property uchar blue
property uchar alpha
property float texture_u
property float texture_v
element face 30
property list uchar int vertex_indices
end_header
0.072999 0 5.006986 0 1 0 191 191 191 255 0.275592 0.060173
-4.926998 0 5.006987 0 1 0 191 191 191 255 0.275592 0.060173
0.07299805 0 0.006985664 0 1 0 191 191 191 255 0.275592 0.060173
-4.926999 0 0.006986618 0 1 0 191 191 191 255 0.275592 0.060173
-4.927002 0 5.006986 0 1 0 191 191 191 255 0.275592 0.060173
-9.926999 0 5.006987 0 1 0 191 191 191 255 0.275592 0.060173
-4.927003 0 0.006985664 0 1 0 191 191 191 255 0.275592 0.060173
-9.927 0 0.006986618 0 1 0 191 191 191 255 0.275592 0.060173
5.072999 0 5.006986 0 1 0 191 191 191 255 0.275592 0.060173
0.073002 0 5.006987 0 1 0 191 191 191 255 0.275592 0.060173
5.072998 0 0.006985664 0 1 0 191 191 191 255 0.275592 0.060173
0.07300124 0 0.006986618 0 1 0 191 191 191 255 0.275592 0.060173
0.07300091 0 25.00699 0 1 0 191 191 191 255 0.275592 0.060173
-4.926996 0 25.00699 0 1 0 191 191 191 255 0.275592 0.060173
0.07299995 0 20.00698 0 1 0 191 191 191 255 0.275592 0.060173
-4.926997 0 20.00699 0 1 0 191 191 191 255 0.275592 0.060173
-4.926998 0 25.00699 0 1 0 191 191 191 255 0.275592 0.060173
-9.926995 0 25.00699 0 1 0 191 191 191 255 0.275592 0.060173
-4.926999 0 20.00698 0 1 0 191 191 191 255 0.275592 0.060173
-9.926996 0 20.00699 0 1 0 191 191 191 255 0.275592 0.060173
5.073001 0 25.00699 0 1 0 191 191 191 255 0.275592 0.060173
0.07300439 0 25.00699 0 1 0 191 191 191 255 0.275592 0.060173
5.073 0 20.00698 0 1 0 191 191 191 255 0.275592 0.060173
0.07300363 0 20.00699 0 1 0 191 191 191 255 0.275592 0.060173
5.073 0 20.00698 0 1 0 191 191 191 255 0.275592 0.060173
0.07300343 0 20.00698 0 1 0 191 191 191 255 0.275592 0.060173
5.072999 0 15.00698 0 1 0 191 191 191 255 0.275592 0.060173
0.07300267 0 15.00698 0 1 0 191 191 191 255 0.275592 0.060173
-4.927 0 20.00699 0 1 0 191 191 191 255 0.275592 0.060173
-9.926997 0 20.00699 0 1 0 191 191 191 255 0.275592 0.060173
-4.927001 0 15.00699 0 1 0 191 191 191 255 0.275592 0.060173
-9.926998 0 15.00699 0 1 0 191 191 191 255 0.275592 0.060173
0.07300043 0 20.00699 0 1 0 191 191 191 255 0.275592 0.060173
-4.926997 0 20.00699 0 1 0 191 191 191 255 0.275592 0.060173
0.07299948 0 15.00699 0 1 0 191 191 191 255 0.275592 0.060173
-4.926997 0 15.00699 0 1 0 191 191 191 255 0.275592 0.060173
0.07299995 0 15.00699 0 1 0 191 191 191 255 0.275592 0.060173
-4.926997 0 15.00699 0 1 0 191 191 191 255 0.275592 0.060173
0.072999 0 10.00699 0 1 0 191 191 191 255 0.275592 0.060173
-4.926998 0 10.00699 0 1 0 191 191 191 255 0.275592 0.060173
-4.927 0 15.00699 0 1 0 191 191 191 255 0.275592 0.060173
-9.926997 0 15.00699 0 1 0 191 191 191 255 0.275592 0.060173
-4.927001 0 10.00699 0 1 0 191 191 191 255 0.275592 0.060173
-9.926998 0 10.00699 0 1 0 191 191 191 255 0.275592 0.060173
5.072999 0 15.00698 0 1 0 191 191 191 255 0.275592 0.060173
0.07300248 0 15.00699 0 1 0 191 191 191 255 0.275592 0.060173
5.072999 0 10.00698 0 1 0 191 191 191 255 0.275592 0.060173
0.07300172 0 10.00699 0 1 0 191 191 191 255 0.275592 0.060173
5.072999 0 10.00699 0 1 0 191 191 191 255 0.275592 0.060173
0.073002 0 10.00699 0 1 0 191 191 191 255 0.275592 0.060173
5.072998 0 5.006986 0 1 0 191 191 191 255 0.275592 0.060173
0.07300124 0 5.006987 0 1 0 191 191 191 255 0.275592 0.060173
-4.927002 0 10.00699 0 1 0 191 191 191 255 0.275592 0.060173
-9.926999 0 10.00699 0 1 0 191 191 191 255 0.275592 0.060173
-4.927003 0 5.006986 0 1 0 191 191 191 255 0.275592 0.060173
-9.927 0 5.006987 0 1 0 191 191 191 255 0.275592 0.060173
0.072999 0 10.00699 0 1 0 191 191 191 255 0.275592 0.060173
-4.926998 0 10.00699 0 1 0 191 191 191 255 0.275592 0.060173
0.07299805 0 5.006986 0 1 0 191 191 191 255 0.275592 0.060173
-4.926999 0 5.006987 0 1 0 191 191 191 255 0.275592 0.060173
3 3 1 0 
3 3 0 2 
3 7 5 4 
3 7 4 6 
3 11 9 8 
3 11 8 10 
3 15 13 12 
3 15 12 14 
3 19 17 16 
3 19 16 18 
3 23 21 20 
3 23 20 22 
3 27 25 24 
3 27 24 26 
3 31 29 28 
3 31 28 30 
3 35 33 32 
3 35 32 34 
3 39 37 36 
3 39 36 38 
3 43 41 40 
3 43 40 42 
3 47 45 44 
3 47 44 46 
3 51 49 48 
3 51 48 50 
3 55 53 52 
3 55 52 54 
3 59 57 56 
3 59 56 58 
