ply
format ascii 1.0
comment VCGLIB generated
element vertex 48
property float x
property float y
property float z
property float nx
property float ny
property float nz
property uchar red
property uchar green
property uchar blue
property uchar alpha
property float texture_u
property float texture_v
element face 24
property list uchar int vertex_indices
end_header
-5 0 -20 0 1 0 191 191 191 255 0.275592 0.060173
-3e-06 0 -20 0 1 0 191 191 191 255 0.275592 0.060173
-5 0 -15 0 1 0 191 191 191 255 0.275592 0.060173
-3e-06 0 -15 0 1 0 191 191 191 255 0.275592 0.060173
0 0 -20 0 1 0 191 191 191 255 0.275592 0.060173
4.999997 0 -20 0 1 0 191 191 191 255 0.275592 0.060173
0 0 -15 0 1 0 191 191 191 255 0.275592 0.060173
4.999997 0 -15 0 1 0 191 191 191 255 0.275592 0.060173
-10 0 -20 0 1 0 191 191 191 255 0.275592 0.060173
-5.000003 0 -20 0 1 0 191 191 191 255 0.275592 0.060173
-10 0 -15 0 1 0 191 191 191 255 0.275592 0.060173
-5.000003 0 -15 0 1 0 191 191 191 255 0.275592 0.060173
-10 0 -15 0 1 0 191 191 191 255 0.275592 0.060173
-5.000003 0 -15 0 1 0 191 191 191 255 0.275592 0.060173
-10 0 -10 0 1 0 191 191 191 255 0.275592 0.060173
-5.000003 0 -10 0 1 0 191 191 191 255 0.275592 0.060173
0 0 -15 0 1 0 191 191 191 255 0.275592 0.060173
4.999997 0 -15 0 1 0 191 191 191 255 0.275592 0.060173
0 0 -10 0 1 0 191 191 191 255 0.275592 0.060173
4.999997 0 -10 0 1 0 191 191 191 255 0.275592 0.060173
-5 0 -15 0 1 0 191 191 191 255 0.275592 0.060173
-3e-06 0 -15 0 1 0 191 191 191 255 0.275592 0.060173
-5 0 -10 0 1 0 191 191 191 255 0.275592 0.060173
-3e-06 0 -10 0 1 0 191 191 191 255 0.275592 0.060173
-5 0 -10 0 1 0 191 191 191 255 0.275592 0.060173
-3e-06 0 -10 0 1 0 191 191 191 255 0.275592 0.060173
-5 0 -5 0 1 0 191 191 191 255 0.275592 0.060173
-3e-06 0 -5 0 1 0 191 191 191 255 0.275592 0.060173
0 0 -10 0 1 0 191 191 191 255 0.275592 0.060173
4.999997 0 -10 0 1 0 191 191 191 255 0.275592 0.060173
0 0 -5 0 1 0 191 191 191 255 0.275592 0.060173
4.999997 0 -5 0 1 0 191 191 191 255 0.275592 0.060173
-10 0 -10 0 1 0 191 191 191 255 0.275592 0.060173
-5.000003 0 -10 0 1 0 191 191 191 255 0.275592 0.060173
-10 0 -5 0 1 0 191 191 191 255 0.275592 0.060173
-5.000003 0 -5 0 1 0 191 191 191 255 0.275592 0.060173
-10 0 -5 0 1 0 191 191 191 255 0.275592 0.060173
-5.000003 0 -5 0 1 0 191 191 191 255 0.275592 0.060173
-10 0 0 0 1 0 191 191 191 255 0.275592 0.060173
-5.000003 0 0 0 1 0 191 191 191 255 0.275592 0.060173
0 0 -5 0 1 0 191 191 191 255 0.275592 0.060173
4.999997 0 -5 0 1 0 191 191 191 255 0.275592 0.060173
0 0 0 0 1 0 191 191 191 255 0.275592 0.060173
4.999997 0 0 0 1 0 191 191 191 255 0.275592 0.060173
-5 0 -5 0 1 0 191 191 191 255 0.275592 0.060173
-3e-06 0 -5 0 1 0 191 191 191 255 0.275592 0.060173
-5 0 0 0 1 0 191 191 191 255 0.275592 0.060173
-3e-06 0 0 0 1 0 191 191 191 255 0.275592 0.060173
3 3 1 0 
3 3 0 2 
3 7 5 4 
3 7 4 6 
3 11 9 8 
3 11 8 10 
3 15 13 12 
3 15 12 14 
3 19 17 16 
3 19 16 18 
3 23 21 20 
3 23 20 22 
3 27 25 24 
3 27 24 26 
3 31 29 28 
3 31 28 30 
3 35 33 32 
3 35 32 34 
3 39 37 36 
3 39 36 38 
3 43 41 40 
3 43 40 42 
3 47 45 44 
3 47 44 46 
