ply
format ascii 1.0
comment VCGLIB generated
element vertex 330
property float x
property float y
property float z
property float nx
property float ny
property float nz
property uchar red
property uchar green
property uchar blue
property uchar alpha
property float texture_u
property float texture_v
element face 190
property list uchar int vertex_indices
end_header
4.981117 4.756485 -10.34759 6.095503e-08 0.9073896 -0.4202906 191 191 191 255 0.1736 0.088437
4.981117 4.592341 -10.26348 -6.095505e-08 -0.9073898 0.4202904 191 191 191 255 0.1736 0.088437
4.981116 0.40766 -19.73652 6.095504e-08 0.9073896 -0.4202905 191 191 191 255 0.1736 0.088437
4.981116 0.2435198 -19.65241 -6.095505e-08 -0.9073897 0.4202904 191 191 191 255 0.1736 0.088437
4.786849 0.40766 -19.73652 -1 8.742278e-08 4.343901e-08 191 191 191 255 0.205638 0.088437
4.786849 0.2435198 -19.65241 -1 8.742278e-08 4.371139e-08 191 191 191 255 0.205638 0.088437
4.78685 4.756485 -10.34759 -1 8.742278e-08 2.026839e-08 191 191 191 255 0.205638 0.088437
4.78685 4.592341 -10.26348 -1 8.742278e-08 2.054077e-08 191 191 191 255 0.205638 0.088437
4.786841 4.756485 -19.65241 -1 8.742278e-08 -1.802461e-08 191 191 191 255 0.205638 0.088437
4.786841 4.592341 -19.73652 -1 8.742278e-08 -1.880274e-08 191 191 191 255 0.205638 0.088437
4.786841 0.40766 -10.26348 -1 8.742278e-08 5.152585e-08 191 191 191 255 0.205638 0.088437
4.786841 0.2435198 -10.34759 -1 8.742278e-08 5.074786e-08 191 191 191 255 0.205638 0.088437
4.98111 0.40766 -10.26348 9.769801e-08 0.9073895 0.4202907 191 191 191 255 0.1736 0.088437
4.98111 0.2435198 -10.34759 -9.769801e-08 -0.9073898 -0.4202903 191 191 191 255 0.1736 0.088437
4.98111 4.756485 -19.65241 9.769801e-08 0.9073896 0.4202907 191 191 191 255 0.1736 0.088437
4.98111 4.592341 -19.73652 -9.7698e-08 -0.9073897 -0.4202903 191 191 191 255 0.1736 0.088437
5 5 -20 -1 8.742278e-08 4.371139e-08 191 191 191 255 0.391929 0.062464
5 5 -10 -1 8.742278e-08 4.371139e-08 191 191 191 255 0.391929 0.062464
4.999999 0 -20 -1 8.742278e-08 4.371139e-08 191 191 191 255 0.391929 0.062464
5 0 -10 -1 8.742278e-08 4.371139e-08 191 191 191 255 0.391929 0.062464
4.678177 5 -10 8.742278e-08 1 -3.821371e-15 191 191 191 255 0.140619 0.088437
4.678176 5 -20 8.742278e-08 1 -3.821371e-15 191 191 191 255 0.140619 0.088437
4.678176 0 -10 -8.742278e-08 -1 3.821371e-15 191 191 191 255 0.240504 0.088437
4.678176 0 -20 -8.742278e-08 -1 3.821371e-15 191 191 191 255 0.240504 0.088437
5 0 -10 -8.742278e-08 -1 3.821371e-15 191 191 191 255 0.240504 0.088437
4.999999 0 -20 -8.742278e-08 -1 3.821371e-15 191 191 191 255 0.240504 0.088437
5 5 -10 8.742278e-08 1 -3.821371e-15 191 191 191 255 0.140619 0.088437
5 5 -20 8.742278e-08 1 -3.821371e-15 191 191 191 255 0.140619 0.088437
4.678177 4.674413 -10.30554 -1 8.742278e-08 1.181497e-07 191 191 191 255 0.205638 0.088437
4.678176 4.674413 -19.69446 -1 8.742278e-08 4.371139e-08 191 191 191 255 0.205638 0.088437
4.678176 0.3255901 -19.69446 -0.9486798 0.3162384 9.541751e-09 191 191 191 255 0.205638 0.088437
4.678176 0.3255901 -10.30554 -0.9486814 0.3162335 -4.479211e-08 191 191 191 255 0.205638 0.088437
5 0.3255901 -10.30554 8.742278e-08 1 -3.821371e-15 191 191 191 255 0.205638 0.088437
4.999999 0.3255901 -19.69446 4.371139e-08 4.235165e-22 1 191 191 191 255 0.17592 0.088437
5 4.674413 -19.69446 -8.742278e-08 -1 3.821371e-15 191 191 191 255 0.237214 0.088437
5 4.674413 -10.30554 -8.742278e-08 -1 3.821371e-15 191 191 191 255 0.237214 0.088437
4.78685 4.592341 -10.26348 -6.095505e-08 -0.9073897 0.4202904 191 191 191 255 0.1736 0.088437
4.786849 0.2435198 -19.65241 -6.095505e-08 -0.9073898 0.4202904 191 191 191 255 0.1736 0.088437
4.78685 4.756485 -10.34759 6.095504e-08 0.9073896 -0.4202905 191 191 191 255 0.1736 0.088437
4.786849 0.40766 -19.73652 6.095504e-08 0.9073896 -0.4202906 191 191 191 255 0.1736 0.088437
4.786841 4.592341 -19.73652 -9.769801e-08 -0.9073898 -0.4202903 191 191 191 255 0.1736 0.088437
4.786841 0.2435198 -10.34759 -9.769799e-08 -0.9073897 -0.4202902 191 191 191 255 0.1736 0.088437
4.786841 4.756485 -19.65241 9.769799e-08 0.9073895 0.4202906 191 191 191 255 0.1736 0.088437
4.786841 0.40766 -10.26348 9.769801e-08 0.9073895 0.4202907 191 191 191 255 0.1736 0.088437
4.678176 5 -20 -4.371139e-08 -4.235165e-22 -1 191 191 191 255 0.1736 0.088437
5 5 -20 -4.371139e-08 -4.235165e-22 -1 191 191 191 255 0.1736 0.088437
4.999999 0 -20 -4.371139e-08 -4.235165e-22 -1 191 191 191 255 0.1736 0.088437
4.678176 0 -20 -4.371139e-08 -4.235165e-22 -1 191 191 191 255 0.1736 0.088437
5 5 -10 4.371139e-08 4.235165e-22 1 191 191 191 255 0.1736 0.088437
4.678177 5 -10 4.371139e-08 4.235165e-22 1 191 191 191 255 0.1736 0.088437
4.678176 0 -10 4.371139e-08 4.235165e-22 1 191 191 191 255 0.1736 0.088437
5 0 -10 4.371139e-08 4.235165e-22 1 191 191 191 255 0.1736 0.088437
4.678177 5 -10 -1 8.742278e-08 1.185894e-07 191 191 191 255 0.205638 0.088437
4.678176 5 -20 -1 8.742278e-08 4.087508e-08 191 191 191 255 0.205638 0.088437
4.678176 0 -20 -1 8.742278e-08 1.095256e-08 191 191 191 255 0.205638 0.088437
4.678176 0 -10 -1 8.742278e-08 -2.843962e-08 191 191 191 255 0.205638 0.088437
4.678177 4.674413 -10.30554 -8.742278e-08 -1 3.821371e-15 191 191 191 255 0.237214 0.088437
4.678176 4.674413 -19.69446 -8.742278e-08 -1 3.821371e-15 191 191 191 255 0.237214 0.088437
4.678176 4.674413 -19.69446 4.371139e-08 4.235165e-22 1 191 191 191 255 0.17592 0.088437
4.678176 0.3255901 -19.69446 4.371139e-08 4.235165e-22 1 191 191 191 255 0.17592 0.088437
5 4.674413 -19.69446 4.371139e-08 4.235165e-22 1 191 191 191 255 0.17592 0.088437
4.999999 0.3255901 -19.69446 8.742278e-08 1 -3.821371e-15 191 191 191 255 0.205638 0.088437
4.678176 0.3255901 -10.30554 -4.371139e-08 -4.235165e-22 -1 191 191 191 255 0.17592 0.088437
4.678177 4.674413 -10.30554 -4.371139e-08 -4.235165e-22 -1 191 191 191 255 0.17592 0.088437
5 4.674413 -10.30554 -4.371139e-08 -4.235165e-22 -1 191 191 191 255 0.17592 0.088437
5 0.3255901 -10.30554 -4.371139e-08 -4.235165e-22 -1 191 191 191 255 0.17592 0.088437
-9.479115 0.243515 -19.98112 0.295302 -0.955404 0 191 191 191 255 0.1736 0.088437
-9.605154 0.407659 -19.98112 -0.2953018 0.955404 0 191 191 191 255 0.1736 0.088437
4.590841 4.59234 -19.98112 0.2953019 -0.955404 0 191 191 191 255 0.1736 0.088437
4.464796 4.75648 -19.98112 -0.2953018 0.955404 0 191 191 191 255 0.1736 0.088437
4.590841 4.59234 -19.78685 1.817625e-10 0 1 191 191 191 255 0.205638 0.088437
4.464796 4.75648 -19.78685 0 0 1 191 191 191 255 0.205638 0.088437
-9.479115 0.243515 -19.78685 1.564359e-08 0 1 191 191 191 255 0.205638 0.088437
-9.605154 0.407659 -19.78685 1.546183e-08 0 1 191 191 191 255 0.205638 0.088437
4.464796 0.243515 -19.78684 4.119665e-08 0 1 191 191 191 255 0.205638 0.088437
4.590841 0.407659 -19.78684 4.17159e-08 0 1 191 191 191 255 0.205638 0.088437
-9.605154 4.59234 -19.78684 -5.214618e-09 0 1 191 191 191 255 0.205638 0.088437
-9.479113 4.75648 -19.78684 -4.695461e-09 0 1 191 191 191 255 0.205638 0.088437
-9.605154 4.59234 -19.98111 -0.2953021 -0.955404 0 191 191 191 255 0.1736 0.088437
-9.479113 4.75648 -19.98111 0.2953018 0.955404 0 191 191 191 255 0.1736 0.088437
4.464796 0.243515 -19.98111 -0.295302 -0.955404 0 191 191 191 255 0.1736 0.088437
4.590841 0.407659 -19.98111 0.2953018 0.9554041 0 191 191 191 255 0.1736 0.088437
4.985684 0 -20 0 0 1 191 191 191 255 0.391929 0.062464
-10 0 -20 0 0 1 191 191 191 255 0.391929 0.062464
4.985684 5 -20 0 0 1 191 191 191 255 0.391929 0.062464
-10 5 -20 0 0 1 191 191 191 255 0.391929 0.062464
-10 0 -19.67818 0 -1 0 191 191 191 255 0.140619 0.088437
4.985684 0 -19.67818 0 -1 0 191 191 191 255 0.140619 0.088437
-10 5 -19.67818 0 1 0 191 191 191 255 0.240504 0.088437
4.985684 5 -19.67818 0 1 0 191 191 191 255 0.240504 0.088437
-10 5 -20 0 1 0 191 191 191 255 0.240504 0.088437
4.985684 5 -20 0 1 0 191 191 191 255 0.240504 0.088437
-10 0 -20 0 -1 0 191 191 191 255 0.140619 0.088437
4.985684 0 -20 0 -1 0 191 191 191 255 0.140619 0.088437
-9.542132 0.325587 -19.67818 -4.967296e-08 0 1 191 191 191 255 0.205638 0.088437
4.527811 0.325587 -19.67818 0 0 1 191 191 191 255 0.205638 0.088437
4.527811 4.67441 -19.67818 2.130458e-08 -0.3162383 0.9486798 191 191 191 255 0.205638 0.088437
-9.542132 4.67441 -19.67818 5.75618e-08 -0.3162334 0.9486814 191 191 191 255 0.205638 0.088437
-9.542132 4.67441 -20 0 -1 0 191 191 191 255 0.205638 0.088437
4.527811 4.67441 -20 -0.9999999 0 0 191 191 191 255 0.17592 0.088437
4.527811 0.325587 -20 0 1 0 191 191 191 255 0.237214 0.088437
-9.542132 0.325587 -20 0 1 0 191 191 191 255 0.237214 0.088437
-9.605154 0.407659 -19.78685 -0.2953018 0.955404 0 191 191 191 255 0.1736 0.088437
4.464796 4.75648 -19.78685 -0.2953018 0.955404 0 191 191 191 255 0.1736 0.088437
-9.479115 0.243515 -19.78685 0.2953019 -0.955404 0 191 191 191 255 0.1736 0.088437
4.590841 4.59234 -19.78685 0.2953019 -0.955404 0 191 191 191 255 0.1736 0.088437
4.590841 0.407659 -19.78684 0.2953018 0.955404 0 191 191 191 255 0.1736 0.088437
-9.479113 4.75648 -19.78684 0.2953017 0.9554041 0 191 191 191 255 0.1736 0.088437
4.464796 0.243515 -19.78684 -0.295302 -0.9554039 0 191 191 191 255 0.1736 0.088437
-9.605154 4.59234 -19.78684 -0.2953021 -0.955404 0 191 191 191 255 0.1736 0.088437
4.985684 0 -19.67818 0.9999999 0 0 191 191 191 255 0.1736 0.088437
4.985684 0 -20 0.9999999 0 0 191 191 191 255 0.1736 0.088437
4.985684 5 -20 0.9999999 0 0 191 191 191 255 0.1736 0.088437
4.985684 5 -19.67818 0.9999999 0 0 191 191 191 255 0.1736 0.088437
-10 0 -20 -0.9999999 0 0 191 191 191 255 0.1736 0.088437
-10 0 -19.67818 -0.9999999 0 0 191 191 191 255 0.1736 0.088437
-10 5 -19.67818 -0.9999999 0 0 191 191 191 255 0.1736 0.088437
-10 5 -20 -0.9999999 0 0 191 191 191 255 0.1736 0.088437
-10 0 -19.67818 -4.996637e-08 0 1 191 191 191 255 0.205638 0.088437
4.985684 0 -19.67818 1.892678e-09 0 1 191 191 191 255 0.205638 0.088437
4.985684 5 -19.67818 2.186008e-08 0 1 191 191 191 255 0.205638 0.088437
-10 5 -19.67818 4.814663e-08 0 1 191 191 191 255 0.205638 0.088437
-9.542132 0.325587 -19.67818 0 1 0 191 191 191 255 0.237214 0.088437
4.527811 0.325587 -19.67818 0 1 0 191 191 191 255 0.237214 0.088437
4.527811 0.325587 -19.67818 -0.9999999 0 0 191 191 191 255 0.17592 0.088437
4.527811 4.67441 -19.67818 -0.9999999 0 0 191 191 191 255 0.17592 0.088437
4.527811 0.325587 -20 -0.9999999 0 0 191 191 191 255 0.17592 0.088437
4.527811 4.67441 -20 0 -1 0 191 191 191 255 0.205638 0.088437
-9.542132 4.67441 -19.67818 0.9999999 0 0 191 191 191 255 0.17592 0.088437
-9.542132 0.325587 -19.67818 0.9999999 0 0 191 191 191 255 0.17592 0.088437
-9.542132 0.325587 -20 0.9999999 0 0 191 191 191 255 0.17592 0.088437
-9.542132 4.67441 -20 0.9999999 0 0 191 191 191 255 0.17592 0.088437
-9.981117 0.243515 -0.347589 -1.837148e-08 -0.9073896 -0.4202906 191 191 191 255 0.1736 0.088437
-9.981117 0.407659 -0.263482 1.837147e-08 0.9073898 0.4202904 191 191 191 255 0.1736 0.088437
-9.981117 4.59234 -9.73652 -1.837148e-08 -0.9073896 -0.4202905 191 191 191 255 0.1736 0.088437
-9.981117 4.75648 -9.65241 1.837148e-08 0.9073897 0.4202904 191 191 191 255 0.1736 0.088437
-9.78685 4.59234 -9.73652 1 0 -4.398377e-08 191 191 191 255 0.205638 0.088437
-9.78685 4.75648 -9.65241 1 0 -4.371139e-08 191 191 191 255 0.205638 0.088437
-9.78685 0.243515 -0.347589 1 0 -6.715438e-08 191 191 191 255 0.205638 0.088437
-9.78685 0.407659 -0.263482 1 0 -6.6882e-08 191 191 191 255 0.205638 0.088437
-9.786842 0.243515 -9.65241 1 0 -1.054474e-07 191 191 191 255 0.205638 0.088437
-9.786842 0.407659 -9.73652 1 0 -1.062255e-07 191 191 191 255 0.205638 0.088437
-9.786842 4.59234 -0.263482 1 0 -3.589693e-08 191 191 191 255 0.205638 0.088437
-9.786842 4.75648 -0.34759 1 0 -3.667492e-08 191 191 191 255 0.205638 0.088437
-9.98111 4.59234 -0.263482 1.837149e-08 -0.9073895 0.4202907 191 191 191 255 0.1736 0.088437
-9.98111 4.75648 -0.34759 -1.837147e-08 0.9073898 -0.4202903 191 191 191 255 0.1736 0.088437
-9.981111 0.243515 -9.65241 1.837149e-08 -0.9073896 0.4202907 191 191 191 255 0.1736 0.088437
-9.981111 0.407659 -9.73652 -1.837147e-08 0.9073897 -0.4202903 191 191 191 255 0.1736 0.088437
-10 0 -10 1 0 -4.371139e-08 191 191 191 255 0.391929 0.062464
-10 0 0 1 0 -4.371139e-08 191 191 191 255 0.391929 0.062464
-10 5 -10 1 0 -4.371139e-08 191 191 191 255 0.391929 0.062464
-10 5 0 1 0 -4.371139e-08 191 191 191 255 0.391929 0.062464
-9.678177 0 -1.406733e-08 0 -1 -0 191 191 191 255 0.140619 0.088437
-9.678178 0 -10 0 -1 -0 191 191 191 255 0.140619 0.088437
-9.678177 5 -1.406733e-08 0 1 0 191 191 191 255 0.240504 0.088437
-9.678178 5 -10 0 1 0 191 191 191 255 0.240504 0.088437
-10 5 0 0 1 0 191 191 191 255 0.240504 0.088437
-10 5 -10 0 1 0 191 191 191 255 0.240504 0.088437
-10 0 0 0 -1 -0 191 191 191 255 0.140619 0.088437
-10 0 -10 0 -1 -0 191 191 191 255 0.140619 0.088437
-9.678177 0.325587 -0.305537 1 0 3.072693e-08 191 191 191 255 0.205638 0.088437
-9.678178 0.325587 -9.69446 1 0 -4.371139e-08 191 191 191 255 0.205638 0.088437
-9.678178 4.67441 -9.69446 0.9486798 -0.3162383 -7.339447e-08 191 191 191 255 0.205638 0.088437
-9.678177 4.67441 -0.305537 0.9486814 -0.3162334 -1.277285e-07 191 191 191 255 0.205638 0.088437
-10 4.67441 -0.305537 0 -1 -0 191 191 191 255 0.205638 0.088437
-10 4.67441 -9.69446 4.371139e-08 0 1 191 191 191 255 0.17592 0.088437
-10 0.325587 -9.69446 0 1 0 191 191 191 255 0.237214 0.088437
-10 0.325587 -0.305537 0 1 0 191 191 191 255 0.237214 0.088437
-9.78685 0.407659 -0.263482 1.837148e-08 0.9073897 0.4202904 191 191 191 255 0.1736 0.088437
-9.78685 4.75648 -9.65241 1.837148e-08 0.9073898 0.4202904 191 191 191 255 0.1736 0.088437
-9.78685 0.243515 -0.347589 -1.837148e-08 -0.9073896 -0.4202905 191 191 191 255 0.1736 0.088437
-9.78685 4.59234 -9.73652 -1.837148e-08 -0.9073896 -0.4202906 191 191 191 255 0.1736 0.088437
-9.786842 0.407659 -9.73652 -1.837147e-08 0.9073898 -0.4202903 191 191 191 255 0.1736 0.088437
-9.786842 4.75648 -0.34759 -1.837147e-08 0.9073897 -0.4202902 191 191 191 255 0.1736 0.088437
-9.786842 0.243515 -9.65241 1.837149e-08 -0.9073895 0.4202906 191 191 191 255 0.1736 0.088437
-9.786842 4.59234 -0.263482 1.837149e-08 -0.9073895 0.4202907 191 191 191 255 0.1736 0.088437
-9.678178 0 -10 -4.371139e-08 0 -1 191 191 191 255 0.1736 0.088437
-10 0 -10 -4.371139e-08 0 -1 191 191 191 255 0.1736 0.088437
-10 5 -10 -4.371139e-08 0 -1 191 191 191 255 0.1736 0.088437
-9.678178 5 -10 -4.371139e-08 0 -1 191 191 191 255 0.1736 0.088437
-10 0 0 4.371139e-08 0 1 191 191 191 255 0.1736 0.088437
-9.678177 0 -1.406733e-08 4.371139e-08 0 1 191 191 191 255 0.1736 0.088437
-9.678177 5 -1.406733e-08 4.371139e-08 0 1 191 191 191 255 0.1736 0.088437
-10 5 0 4.371139e-08 0 1 191 191 191 255 0.1736 0.088437
-9.678177 0 -1.406733e-08 1 0 3.116664e-08 191 191 191 255 0.205638 0.088437
-9.678178 0 -10 1 0 -4.654769e-08 191 191 191 255 0.205638 0.088437
-9.678178 5 -10 1 0 -7.647022e-08 191 191 191 255 0.205638 0.088437
-9.678177 5 -1.406733e-08 1 0 -1.158624e-07 191 191 191 255 0.205638 0.088437
-9.678177 0.325587 -0.305537 0 1 0 191 191 191 255 0.237214 0.088437
-9.678178 0.325587 -9.69446 0 1 0 191 191 191 255 0.237214 0.088437
-9.678178 0.325587 -9.69446 4.371139e-08 0 1 191 191 191 255 0.17592 0.088437
-9.678178 4.67441 -9.69446 4.371139e-08 0 1 191 191 191 255 0.17592 0.088437
-10 0.325587 -9.69446 4.371139e-08 0 1 191 191 191 255 0.17592 0.088437
-10 4.67441 -9.69446 0 -1 -0 191 191 191 255 0.205638 0.088437
-9.678177 4.67441 -0.305537 -4.371139e-08 0 -1 191 191 191 255 0.17592 0.088437
-9.678177 0.325587 -0.305537 -4.371139e-08 0 -1 191 191 191 255 0.17592 0.088437
-10 0.325587 -0.305537 -4.371139e-08 0 -1 191 191 191 255 0.17592 0.088437
-10 4.67441 -0.305537 -4.371139e-08 0 -1 191 191 191 255 0.17592 0.088437
-9.981117 0.243515 -10.34759 -1.837148e-08 -0.9073896 -0.4202906 191 191 191 255 0.1736 0.088437
-9.981117 0.407659 -10.26348 1.837147e-08 0.9073898 0.4202904 191 191 191 255 0.1736 0.088437
-9.981117 4.59234 -19.73652 -1.837148e-08 -0.9073896 -0.4202905 191 191 191 255 0.1736 0.088437
-9.981117 4.75648 -19.65241 1.837148e-08 0.9073897 0.4202904 191 191 191 255 0.1736 0.088437
-9.78685 4.59234 -19.73652 1 0 -4.398377e-08 191 191 191 255 0.205638 0.088437
-9.78685 4.75648 -19.65241 1 0 -4.371139e-08 191 191 191 255 0.205638 0.088437
-9.78685 0.243515 -10.34759 1 0 -6.715438e-08 191 191 191 255 0.205638 0.088437
-9.78685 0.407659 -10.26348 1 0 -6.6882e-08 191 191 191 255 0.205638 0.088437
-9.786842 0.243515 -19.65241 1 0 -1.054474e-07 191 191 191 255 0.205638 0.088437
-9.786842 0.407659 -19.73652 1 0 -1.062255e-07 191 191 191 255 0.205638 0.088437
-9.786842 4.59234 -10.26348 1 0 -3.589693e-08 191 191 191 255 0.205638 0.088437
-9.786842 4.75648 -10.34759 1 0 -3.667492e-08 191 191 191 255 0.205638 0.088437
-9.98111 4.59234 -10.26348 1.837149e-08 -0.9073895 0.4202907 191 191 191 255 0.1736 0.088437
-9.98111 4.75648 -10.34759 -1.837147e-08 0.9073898 -0.4202903 191 191 191 255 0.1736 0.088437
-9.981111 0.243515 -19.65241 1.837149e-08 -0.9073896 0.4202907 191 191 191 255 0.1736 0.088437
-9.981111 0.407659 -19.73652 -1.837147e-08 0.9073897 -0.4202903 191 191 191 255 0.1736 0.088437
-10 0 -20 1 0 -4.371139e-08 191 191 191 255 0.391929 0.062464
-10 0 -10 1 0 -4.371139e-08 191 191 191 255 0.391929 0.062464
-10 5 -20 1 0 -4.371139e-08 191 191 191 255 0.391929 0.062464
-10 5 -10 1 0 -4.371139e-08 191 191 191 255 0.391929 0.062464
-9.678177 0 -10 0 -1 -0 191 191 191 255 0.140619 0.088437
-9.678178 0 -20 0 -1 -0 191 191 191 255 0.140619 0.088437
-9.678177 5 -10 0 1 0 191 191 191 255 0.240504 0.088437
-9.678178 5 -20 0 1 0 191 191 191 255 0.240504 0.088437
-10 5 -10 0 1 0 191 191 191 255 0.240504 0.088437
-10 5 -20 0 1 0 191 191 191 255 0.240504 0.088437
-10 0 -10 0 -1 -0 191 191 191 255 0.140619 0.088437
-10 0 -20 0 -1 -0 191 191 191 255 0.140619 0.088437
-9.678177 0.325587 -10.30554 1 0 3.072693e-08 191 191 191 255 0.205638 0.088437
-9.678178 0.325587 -19.69446 1 0 -4.371139e-08 191 191 191 255 0.205638 0.088437
-9.678178 4.67441 -19.69446 0.9486798 -0.3162383 -7.339447e-08 191 191 191 255 0.205638 0.088437
-9.678177 4.67441 -10.30554 0.9486814 -0.3162334 -1.277285e-07 191 191 191 255 0.205638 0.088437
-10 4.67441 -10.30554 0 -1 -0 191 191 191 255 0.205638 0.088437
-10 4.67441 -19.69446 4.371139e-08 0 1 191 191 191 255 0.17592 0.088437
-10 0.325587 -19.69446 0 1 0 191 191 191 255 0.237214 0.088437
-10 0.325587 -10.30554 0 1 0 191 191 191 255 0.237214 0.088437
-9.78685 0.407659 -10.26348 1.837148e-08 0.9073897 0.4202904 191 191 191 255 0.1736 0.088437
-9.78685 4.75648 -19.65241 1.837148e-08 0.9073898 0.4202904 191 191 191 255 0.1736 0.088437
-9.78685 0.243515 -10.34759 -1.837148e-08 -0.9073896 -0.4202905 191 191 191 255 0.1736 0.088437
-9.78685 4.59234 -19.73652 -1.837148e-08 -0.9073896 -0.4202906 191 191 191 255 0.1736 0.088437
-9.786842 0.407659 -19.73652 -1.837147e-08 0.9073898 -0.4202903 191 191 191 255 0.1736 0.088437
-9.786842 4.75648 -10.34759 -1.837147e-08 0.9073897 -0.4202902 191 191 191 255 0.1736 0.088437
-9.786842 0.243515 -19.65241 1.837149e-08 -0.9073895 0.4202906 191 191 191 255 0.1736 0.088437
-9.786842 4.59234 -10.26348 1.837149e-08 -0.9073895 0.4202907 191 191 191 255 0.1736 0.088437
-9.678178 0 -20 -4.371139e-08 0 -1 191 191 191 255 0.1736 0.088437
-10 0 -20 -4.371139e-08 0 -1 191 191 191 255 0.1736 0.088437
-10 5 -20 -4.371139e-08 0 -1 191 191 191 255 0.1736 0.088437
-9.678178 5 -20 -4.371139e-08 0 -1 191 191 191 255 0.1736 0.088437
-10 0 -10 4.371139e-08 0 1 191 191 191 255 0.1736 0.088437
-9.678177 0 -10 4.371139e-08 0 1 191 191 191 255 0.1736 0.088437
-9.678177 5 -10 4.371139e-08 0 1 191 191 191 255 0.1736 0.088437
-10 5 -10 4.371139e-08 0 1 191 191 191 255 0.1736 0.088437
-9.678177 0 -10 1 0 3.116664e-08 191 191 191 255 0.205638 0.088437
-9.678178 0 -20 1 0 -4.654769e-08 191 191 191 255 0.205638 0.088437
-9.678178 5 -20 1 0 -7.647022e-08 191 191 191 255 0.205638 0.088437
-9.678177 5 -10 1 0 -1.158624e-07 191 191 191 255 0.205638 0.088437
-9.678177 0.325587 -10.30554 0 1 0 191 191 191 255 0.237214 0.088437
-9.678178 0.325587 -19.69446 0 1 0 191 191 191 255 0.237214 0.088437
-9.678178 0.325587 -19.69446 4.371139e-08 0 1 191 191 191 255 0.17592 0.088437
-9.678178 4.67441 -19.69446 4.371139e-08 0 1 191 191 191 255 0.17592 0.088437
-10 0.325587 -19.69446 4.371139e-08 0 1 191 191 191 255 0.17592 0.088437
-10 4.67441 -19.69446 0 -1 -0 191 191 191 255 0.205638 0.088437
-9.678177 4.67441 -10.30554 -4.371139e-08 0 -1 191 191 191 255 0.17592 0.088437
-9.678177 0.325587 -10.30554 -4.371139e-08 0 -1 191 191 191 255 0.17592 0.088437
-10 0.325587 -10.30554 -4.371139e-08 0 -1 191 191 191 255 0.17592 0.088437
-10 4.67441 -10.30554 -4.371139e-08 0 -1 191 191 191 255 0.17592 0.088437
4.981117 4.756485 -0.347589 6.095503e-08 0.9073896 -0.4202906 191 191 191 255 0.1736 0.088437
4.981117 4.592341 -0.263482 -6.095505e-08 -0.9073898 0.4202904 191 191 191 255 0.1736 0.088437
4.981116 0.40766 -9.73652 6.095504e-08 0.9073896 -0.4202905 191 191 191 255 0.1736 0.088437
4.981116 0.2435198 -9.65241 -6.095505e-08 -0.9073897 0.4202904 191 191 191 255 0.1736 0.088437
4.786849 0.40766 -9.73652 -1 8.742278e-08 4.343901e-08 191 191 191 255 0.205638 0.088437
4.786849 0.2435198 -9.65241 -1 8.742278e-08 4.371139e-08 191 191 191 255 0.205638 0.088437
4.78685 4.756485 -0.347589 -1 8.742278e-08 2.026839e-08 191 191 191 255 0.205638 0.088437
4.78685 4.592341 -0.263482 -1 8.742278e-08 2.054077e-08 191 191 191 255 0.205638 0.088437
4.786841 4.756485 -9.65241 -1 8.742278e-08 -1.802461e-08 191 191 191 255 0.205638 0.088437
4.786841 4.592341 -9.73652 -1 8.742278e-08 -1.880274e-08 191 191 191 255 0.205638 0.088437
4.786841 0.40766 -0.263482 -1 8.742278e-08 5.152585e-08 191 191 191 255 0.205638 0.088437
4.786841 0.2435198 -0.34759 -1 8.742278e-08 5.074786e-08 191 191 191 255 0.205638 0.088437
4.98111 0.40766 -0.263482 9.769801e-08 0.9073895 0.4202907 191 191 191 255 0.1736 0.088437
4.98111 0.2435198 -0.34759 -9.769801e-08 -0.9073898 -0.4202903 191 191 191 255 0.1736 0.088437
4.98111 4.756485 -9.65241 9.769801e-08 0.9073896 0.4202907 191 191 191 255 0.1736 0.088437
4.98111 4.592341 -9.73652 -9.7698e-08 -0.9073897 -0.4202903 191 191 191 255 0.1736 0.088437
5 5 -10 -1 8.742278e-08 4.371139e-08 191 191 191 255 0.391929 0.062464
5 5 0 -1 8.742278e-08 4.371139e-08 191 191 191 255 0.391929 0.062464
4.999999 0 -10 -1 8.742278e-08 4.371139e-08 191 191 191 255 0.391929 0.062464
5 0 1.910686e-14 -1 8.742278e-08 4.371139e-08 191 191 191 255 0.391929 0.062464
4.678177 5 1.406733e-08 8.742278e-08 1 -3.821371e-15 191 191 191 255 0.140619 0.088437
4.678176 5 -10 8.742278e-08 1 -3.821371e-15 191 191 191 255 0.140619 0.088437
4.678176 0 1.406735e-08 -8.742278e-08 -1 3.821371e-15 191 191 191 255 0.240504 0.088437
4.678176 0 -10 -8.742278e-08 -1 3.821371e-15 191 191 191 255 0.240504 0.088437
5 0 1.910686e-14 -8.742278e-08 -1 3.821371e-15 191 191 191 255 0.240504 0.088437
4.999999 0 -10 -8.742278e-08 -1 3.821371e-15 191 191 191 255 0.240504 0.088437
5 5 0 8.742278e-08 1 -3.821371e-15 191 191 191 255 0.140619 0.088437
5 5 -10 8.742278e-08 1 -3.821371e-15 191 191 191 255 0.140619 0.088437
4.678177 4.674413 -0.305537 -1 8.742278e-08 1.181497e-07 191 191 191 255 0.205638 0.088437
4.678176 4.674413 -9.69446 -1 8.742278e-08 4.371139e-08 191 191 191 255 0.205638 0.088437
4.678176 0.3255901 -9.69446 -0.9486798 0.3162384 9.541751e-09 191 191 191 255 0.205638 0.088437
4.678176 0.3255901 -0.305537 -0.9486814 0.3162335 -4.479211e-08 191 191 191 255 0.205638 0.088437
5 0.3255901 -0.305537 8.742278e-08 1 -3.821371e-15 191 191 191 255 0.205638 0.088437
4.999999 0.3255901 -9.69446 4.371139e-08 4.235165e-22 1 191 191 191 255 0.17592 0.088437
5 4.674413 -9.69446 -8.742278e-08 -1 3.821371e-15 191 191 191 255 0.237214 0.088437
5 4.674413 -0.305537 -8.742278e-08 -1 3.821371e-15 191 191 191 255 0.237214 0.088437
4.78685 4.592341 -0.263482 -6.095505e-08 -0.9073897 0.4202904 191 191 191 255 0.1736 0.088437
4.786849 0.2435198 -9.65241 -6.095505e-08 -0.9073898 0.4202904 191 191 191 255 0.1736 0.088437
4.78685 4.756485 -0.347589 6.095504e-08 0.9073896 -0.4202905 191 191 191 255 0.1736 0.088437
4.786849 0.40766 -9.73652 6.095504e-08 0.9073896 -0.4202906 191 191 191 255 0.1736 0.088437
4.786841 4.592341 -9.73652 -9.769801e-08 -0.9073898 -0.4202903 191 191 191 255 0.1736 0.088437
4.786841 0.2435198 -0.34759 -9.769799e-08 -0.9073897 -0.4202902 191 191 191 255 0.1736 0.088437
4.786841 4.756485 -9.65241 9.769799e-08 0.9073895 0.4202906 191 191 191 255 0.1736 0.088437
4.786841 0.40766 -0.263482 9.769801e-08 0.9073895 0.4202907 191 191 191 255 0.1736 0.088437
4.678176 5 -10 -4.371139e-08 -4.235165e-22 -1 191 191 191 255 0.1736 0.088437
5 5 -10 -4.371139e-08 -4.235165e-22 -1 191 191 191 255 0.1736 0.088437
4.999999 0 -10 -4.371139e-08 -4.235165e-22 -1 191 191 191 255 0.1736 0.088437
4.678176 0 -10 -4.371139e-08 -4.235165e-22 -1 191 191 191 255 0.1736 0.088437
5 5 0 4.371139e-08 4.235165e-22 1 191 191 191 255 0.1736 0.088437
4.678177 5 1.406733e-08 4.371139e-08 4.235165e-22 1 191 191 191 255 0.1736 0.088437
4.678176 0 1.406735e-08 4.371139e-08 4.235165e-22 1 191 191 191 255 0.1736 0.088437
5 0 1.910686e-14 4.371139e-08 4.235165e-22 1 191 191 191 255 0.1736 0.088437
4.678177 5 1.406733e-08 -1 8.742278e-08 1.185894e-07 191 191 191 255 0.205638 0.088437
4.678176 5 -10 -1 8.742278e-08 4.087508e-08 191 191 191 255 0.205638 0.088437
4.678176 0 -10 -1 8.742278e-08 1.095256e-08 191 191 191 255 0.205638 0.088437
4.678176 0 1.406735e-08 -1 8.742278e-08 -2.843962e-08 191 191 191 255 0.205638 0.088437
4.678177 4.674413 -0.305537 -8.742278e-08 -1 3.821371e-15 191 191 191 255 0.237214 0.088437
4.678176 4.674413 -9.69446 -8.742278e-08 -1 3.821371e-15 191 191 191 255 0.237214 0.088437
4.678176 4.674413 -9.69446 4.371139e-08 4.235165e-22 1 191 191 191 255 0.17592 0.088437
4.678176 0.3255901 -9.69446 4.371139e-08 4.235165e-22 1 191 191 191 255 0.17592 0.088437
5 4.674413 -9.69446 4.371139e-08 4.235165e-22 1 191 191 191 255 0.17592 0.088437
4.999999 0.3255901 -9.69446 8.742278e-08 1 -3.821371e-15 191 191 191 255 0.205638 0.088437
4.678176 0.3255901 -0.305537 -4.371139e-08 -4.235165e-22 -1 191 191 191 255 0.17592 0.088437
4.678177 4.674413 -0.305537 -4.371139e-08 -4.235165e-22 -1 191 191 191 255 0.17592 0.088437
5 4.674413 -0.305537 -4.371139e-08 -4.235165e-22 -1 191 191 191 255 0.17592 0.088437
5 0.3255901 -0.305537 -4.371139e-08 -4.235165e-22 -1 191 191 191 255 0.17592 0.088437
3 4 5 7 
3 4 7 6 
3 1 36 37 
3 1 37 3 
3 38 0 2 
3 38 2 39 
3 8 9 11 
3 8 11 10 
3 40 15 13 
3 40 13 41 
3 14 42 43 
3 14 43 12 
3 19 17 16 
3 19 16 18 
3 22 23 25 
3 22 25 24 
3 26 27 21 
3 26 21 20 
3 44 45 46 
3 44 46 47 
3 48 49 50 
3 48 50 51 
3 52 53 29 
3 52 29 28 
3 53 54 30 
3 53 30 29 
3 54 55 31 
3 54 31 30 
3 55 52 28 
3 55 28 31 
3 56 57 34 
3 56 34 35 
3 58 59 33 
3 58 33 60 
3 30 31 32 
3 30 32 61 
3 62 63 64 
3 62 64 65 
3 70 71 73 
3 70 73 72 
3 67 102 103 
3 67 103 69 
3 104 66 68 
3 104 68 105 
3 74 75 77 
3 74 77 76 
3 106 81 79 
3 106 79 107 
3 80 108 109 
3 80 109 78 
3 85 83 82 
3 85 82 84 
3 88 89 91 
3 88 91 90 
3 92 93 87 
3 92 87 86 
3 110 111 112 
3 110 112 113 
3 114 115 116 
3 114 116 117 
3 118 119 95 
3 118 95 94 
3 119 120 96 
3 119 96 95 
3 120 121 97 
3 120 97 96 
3 121 118 94 
3 121 94 97 
3 122 123 100 
3 122 100 101 
3 124 125 99 
3 124 99 126 
3 96 97 98 
3 96 98 127 
3 128 129 130 
3 128 130 131 
3 136 137 139 
3 136 139 138 
3 133 168 169 
3 133 169 135 
3 170 132 134 
3 170 134 171 
3 140 141 143 
3 140 143 142 
3 172 147 145 
3 172 145 173 
3 146 174 175 
3 146 175 144 
3 151 149 148 
3 151 148 150 
3 154 155 157 
3 154 157 156 
3 158 159 153 
3 158 153 152 
3 176 177 178 
3 176 178 179 
3 180 181 182 
3 180 182 183 
3 184 185 161 
3 184 161 160 
3 185 186 162 
3 185 162 161 
3 186 187 163 
3 186 163 162 
3 187 184 160 
3 187 160 163 
3 188 189 166 
3 188 166 167 
3 190 191 165 
3 190 165 192 
3 162 163 164 
3 162 164 193 
3 194 195 196 
3 194 196 197 
3 202 203 205 
3 202 205 204 
3 199 234 235 
3 199 235 201 
3 236 198 200 
3 236 200 237 
3 206 207 209 
3 206 209 208 
3 238 213 211 
3 238 211 239 
3 212 240 241 
3 212 241 210 
3 217 215 214 
3 217 214 216 
3 220 221 223 
3 220 223 222 
3 224 225 219 
3 224 219 218 
3 242 243 244 
3 242 244 245 
3 246 247 248 
3 246 248 249 
3 250 251 227 
3 250 227 226 
3 251 252 228 
3 251 228 227 
3 252 253 229 
3 252 229 228 
3 253 250 226 
3 253 226 229 
3 254 255 232 
3 254 232 233 
3 256 257 231 
3 256 231 258 
3 228 229 230 
3 228 230 259 
3 260 261 262 
3 260 262 263 
3 268 269 271 
3 268 271 270 
3 265 300 301 
3 265 301 267 
3 302 264 266 
3 302 266 303 
3 272 273 275 
3 272 275 274 
3 304 279 277 
3 304 277 305 
3 278 306 307 
3 278 307 276 
3 283 281 280 
3 283 280 282 
3 286 287 289 
3 286 289 288 
3 290 291 285 
3 290 285 284 
3 308 309 310 
3 308 310 311 
3 312 313 314 
3 312 314 315 
3 316 317 293 
3 316 293 292 
3 317 318 294 
3 317 294 293 
3 318 319 295 
3 318 295 294 
3 319 316 292 
3 319 292 295 
3 320 321 298 
3 320 298 299 
3 322 323 297 
3 322 297 324 
3 294 295 296 
3 294 296 325 
3 326 327 328 
3 326 328 329 
