ply
format ascii 1.0
comment VCGLIB generated
element vertex 330
property float x
property float y
property float z
property float nx
property float ny
property float nz
property uchar red
property uchar green
property uchar blue
property uchar alpha
property float texture_u
property float texture_v
element face 190
property list uchar int vertex_indices
end_header
-9.908119 4.756485 5.354576 -2.138315e-07 0.9073896 0.4202906 191 191 191 255 0.1736 0.088437
-9.908119 4.592341 5.270469 2.138316e-07 -0.9073898 -0.4202904 191 191 191 255 0.1736 0.088437
-9.908115 0.40766 14.74351 -2.138315e-07 0.9073896 0.4202905 191 191 191 255 0.1736 0.088437
-9.908115 0.2435198 14.6594 2.138315e-07 -0.9073897 -0.4202904 191 191 191 255 0.1736 0.088437
-9.713848 0.40766 14.74351 1 3.258414e-07 -1.944348e-07 191 191 191 255 0.205638 0.088437
-9.713848 0.2435198 14.6594 1 3.258414e-07 -1.947072e-07 191 191 191 255 0.205638 0.088437
-9.713852 4.756485 5.354576 1 3.258414e-07 -1.712642e-07 191 191 191 255 0.205638 0.088437
-9.713852 4.592341 5.270469 1 3.258414e-07 -1.715366e-07 191 191 191 255 0.205638 0.088437
-9.713842 4.756485 14.6594 1 3.258414e-07 -1.329712e-07 191 191 191 255 0.205638 0.088437
-9.713842 4.592341 14.74351 1 3.258414e-07 -1.321931e-07 191 191 191 255 0.205638 0.088437
-9.713842 0.40766 5.270469 1 3.258414e-07 -2.025216e-07 191 191 191 255 0.205638 0.088437
-9.713842 0.2435198 5.354577 1 3.258414e-07 -2.017437e-07 191 191 191 255 0.205638 0.088437
-9.908111 0.40766 5.270469 -3.774987e-07 0.9073895 -0.4202907 191 191 191 255 0.1736 0.088437
-9.908111 0.2435198 5.354577 3.774987e-07 -0.9073898 0.4202903 191 191 191 255 0.1736 0.088437
-9.90811 4.756485 14.6594 -3.774987e-07 0.9073896 -0.4202907 191 191 191 255 0.1736 0.088437
-9.90811 4.592341 14.74351 3.774986e-07 -0.9073897 0.4202903 191 191 191 255 0.1736 0.088437
-9.927 5 15.00699 1 3.258414e-07 -1.947072e-07 191 191 191 255 0.391929 0.062464
-9.927002 5 5.006987 1 3.258414e-07 -1.947072e-07 191 191 191 255 0.391929 0.062464
-9.926998 0 15.00699 1 3.258414e-07 -1.947072e-07 191 191 191 255 0.391929 0.062464
-9.927 0 5.006987 1 3.258414e-07 -1.947072e-07 191 191 191 255 0.391929 0.062464
-9.605179 5 5.006987 -3.258414e-07 1 6.344366e-14 191 191 191 255 0.140619 0.088437
-9.605177 5 15.00699 -3.258414e-07 1 6.344366e-14 191 191 191 255 0.140619 0.088437
-9.605177 0 5.006987 3.258414e-07 -1 -6.344366e-14 191 191 191 255 0.240504 0.088437
-9.605175 0 15.00699 3.258414e-07 -1 -6.344366e-14 191 191 191 255 0.240504 0.088437
-9.927 0 5.006987 3.258414e-07 -1 -6.344366e-14 191 191 191 255 0.240504 0.088437
-9.926998 0 15.00699 3.258414e-07 -1 -6.344366e-14 191 191 191 255 0.240504 0.088437
-9.927002 5 5.006987 -3.258414e-07 1 6.344366e-14 191 191 191 255 0.140619 0.088437
-9.927 5 15.00699 -3.258414e-07 1 6.344366e-14 191 191 191 255 0.140619 0.088437
-9.605179 4.674413 5.312523 1 3.258414e-07 -2.691455e-07 191 191 191 255 0.205638 0.088437
-9.605177 4.674413 14.70145 1 3.258414e-07 -1.947072e-07 191 191 191 255 0.205638 0.088437
-9.605176 0.3255901 14.70145 0.9486797 0.3162386 -1.527884e-07 191 191 191 255 0.205638 0.088437
-9.605177 0.3255901 5.312523 0.9486813 0.3162337 -9.845478e-08 191 191 191 255 0.205638 0.088437
-9.927 0.3255901 5.312524 -3.258414e-07 1 6.344366e-14 191 191 191 255 0.205638 0.088437
-9.926998 0.3255901 14.70145 -1.947072e-07 0 -1 191 191 191 255 0.17592 0.088437
-9.927 4.674413 14.70145 3.258414e-07 -1 -6.344366e-14 191 191 191 255 0.237214 0.088437
-9.927002 4.674413 5.312524 3.258414e-07 -1 -6.344366e-14 191 191 191 255 0.237214 0.088437
-9.713852 4.592341 5.270469 2.138316e-07 -0.9073897 -0.4202904 191 191 191 255 0.1736 0.088437
-9.713848 0.2435198 14.6594 2.138316e-07 -0.9073898 -0.4202904 191 191 191 255 0.1736 0.088437
-9.713852 4.756485 5.354576 -2.138315e-07 0.9073896 0.4202905 191 191 191 255 0.1736 0.088437
-9.713848 0.40766 14.74351 -2.138315e-07 0.9073896 0.4202906 191 191 191 255 0.1736 0.088437
-9.713842 4.592341 14.74351 3.774987e-07 -0.9073898 0.4202903 191 191 191 255 0.1736 0.088437
-9.713842 0.2435198 5.354577 3.774986e-07 -0.9073897 0.4202902 191 191 191 255 0.1736 0.088437
-9.713842 4.756485 14.6594 -3.774986e-07 0.9073895 -0.4202906 191 191 191 255 0.1736 0.088437
-9.713842 0.40766 5.270469 -3.774987e-07 0.9073895 -0.4202907 191 191 191 255 0.1736 0.088437
-9.605177 5 15.00699 1.947072e-07 0 1 191 191 191 255 0.1736 0.088437
-9.927 5 15.00699 1.947072e-07 0 1 191 191 191 255 0.1736 0.088437
-9.926998 0 15.00699 1.947072e-07 0 1 191 191 191 255 0.1736 0.088437
-9.605175 0 15.00699 1.947072e-07 0 1 191 191 191 255 0.1736 0.088437
-9.927002 5 5.006987 -1.947072e-07 0 -1 191 191 191 255 0.1736 0.088437
-9.605179 5 5.006987 -1.947072e-07 0 -1 191 191 191 255 0.1736 0.088437
-9.605177 0 5.006987 -1.947072e-07 0 -1 191 191 191 255 0.1736 0.088437
-9.927 0 5.006987 -1.947072e-07 0 -1 191 191 191 255 0.1736 0.088437
-9.605179 5 5.006987 1 3.258414e-07 -2.695852e-07 191 191 191 255 0.205638 0.088437
-9.605177 5 15.00699 1 3.258414e-07 -1.918709e-07 191 191 191 255 0.205638 0.088437
-9.605175 0 15.00699 1 3.258414e-07 -1.619483e-07 191 191 191 255 0.205638 0.088437
-9.605177 0 5.006987 1 3.258414e-07 -1.225562e-07 191 191 191 255 0.205638 0.088437
-9.605179 4.674413 5.312523 3.258414e-07 -1 -6.344366e-14 191 191 191 255 0.237214 0.088437
-9.605177 4.674413 14.70145 3.258414e-07 -1 -6.344366e-14 191 191 191 255 0.237214 0.088437
-9.605177 4.674413 14.70145 -1.947072e-07 0 -1 191 191 191 255 0.17592 0.088437
-9.605176 0.3255901 14.70145 -1.947072e-07 0 -1 191 191 191 255 0.17592 0.088437
-9.927 4.674413 14.70145 -1.947072e-07 0 -1 191 191 191 255 0.17592 0.088437
-9.926998 0.3255901 14.70145 -3.258414e-07 1 6.344366e-14 191 191 191 255 0.205638 0.088437
-9.605177 0.3255901 5.312523 1.947072e-07 0 1 191 191 191 255 0.17592 0.088437
-9.605179 4.674413 5.312523 1.947072e-07 0 1 191 191 191 255 0.17592 0.088437
-9.927002 4.674413 5.312524 1.947072e-07 0 1 191 191 191 255 0.17592 0.088437
-9.927 0.3255901 5.312524 1.947072e-07 0 1 191 191 191 255 0.17592 0.088437
5.054117 0.243515 15.35457 8.183359e-08 -0.9073896 0.4202906 191 191 191 255 0.1736 0.088437
5.054117 0.407659 15.27047 -8.183355e-08 0.9073898 -0.4202904 191 191 191 255 0.1736 0.088437
5.054118 4.59234 24.74351 8.183358e-08 -0.9073896 0.4202905 191 191 191 255 0.1736 0.088437
5.054118 4.75648 24.6594 -8.183356e-08 0.9073897 -0.4202904 191 191 191 255 0.1736 0.088437
4.859851 4.59234 24.74351 -1 0 1.949796e-07 191 191 191 255 0.205638 0.088437
4.859851 4.75648 24.6594 -1 0 1.947072e-07 191 191 191 255 0.205638 0.088437
4.859849 0.243515 15.35457 -1 0 2.181502e-07 191 191 191 255 0.205638 0.088437
4.859849 0.407659 15.27047 -1 0 2.178778e-07 191 191 191 255 0.205638 0.088437
4.859843 0.243515 24.6594 -1 0 2.564432e-07 191 191 191 255 0.205638 0.088437
4.859843 0.407659 24.74351 -1 0 2.572213e-07 191 191 191 255 0.205638 0.088437
4.859841 4.59234 15.27047 -1 0 1.868927e-07 191 191 191 255 0.205638 0.088437
4.859841 4.75648 15.35458 -1 0 1.876707e-07 191 191 191 255 0.205638 0.088437
5.05411 4.59234 15.27047 -8.183362e-08 -0.9073895 -0.4202907 191 191 191 255 0.1736 0.088437
5.05411 4.75648 15.35458 8.183354e-08 0.9073898 0.4202903 191 191 191 255 0.1736 0.088437
5.054111 0.243515 24.6594 -8.183361e-08 -0.9073896 -0.4202907 191 191 191 255 0.1736 0.088437
5.054111 0.407659 24.74351 8.183353e-08 0.9073897 0.4202903 191 191 191 255 0.1736 0.088437
5.073001 0 25.00698 -1 0 1.947072e-07 191 191 191 255 0.391929 0.062464
5.072999 0 15.00699 -1 0 1.947072e-07 191 191 191 255 0.391929 0.062464
5.073001 5 25.00698 -1 0 1.947072e-07 191 191 191 255 0.391929 0.062464
5.072999 5 15.00699 -1 0 1.947072e-07 191 191 191 255 0.391929 0.062464
4.751176 0 15.00699 0 -1 0 191 191 191 255 0.140619 0.088437
4.751178 0 25.00698 0 -1 0 191 191 191 255 0.140619 0.088437
4.751176 5 15.00699 0 1 0 191 191 191 255 0.240504 0.088437
4.751178 5 25.00698 0 1 0 191 191 191 255 0.240504 0.088437
5.072999 5 15.00699 0 1 0 191 191 191 255 0.240504 0.088437
5.073001 5 25.00698 0 1 0 191 191 191 255 0.240504 0.088437
5.072999 0 15.00699 0 -1 0 191 191 191 255 0.140619 0.088437
5.073001 0 25.00698 0 -1 0 191 191 191 255 0.140619 0.088437
4.751176 0.325587 15.31252 -1 0 1.202689e-07 191 191 191 255 0.205638 0.088437
4.751178 0.325587 24.70145 -1 0 1.947072e-07 191 191 191 255 0.205638 0.088437
4.751178 4.67441 24.70145 -0.9486798 -0.3162383 2.166411e-07 191 191 191 255 0.205638 0.088437
4.751176 4.67441 15.31252 -0.9486814 -0.3162334 2.709754e-07 191 191 191 255 0.205638 0.088437
5.072999 4.67441 15.31252 0 -1 0 191 191 191 255 0.205638 0.088437
5.073001 4.67441 24.70145 -1.947072e-07 0 -1 191 191 191 255 0.17592 0.088437
5.073001 0.325587 24.70145 0 1 0 191 191 191 255 0.237214 0.088437
5.072999 0.325587 15.31252 0 1 0 191 191 191 255 0.237214 0.088437
4.859849 0.407659 15.27047 -8.183355e-08 0.9073897 -0.4202904 191 191 191 255 0.1736 0.088437
4.859851 4.75648 24.6594 -8.183356e-08 0.9073898 -0.4202904 191 191 191 255 0.1736 0.088437
4.859849 0.243515 15.35457 8.183358e-08 -0.9073896 0.4202905 191 191 191 255 0.1736 0.088437
4.859851 4.59234 24.74351 8.183358e-08 -0.9073896 0.4202906 191 191 191 255 0.1736 0.088437
4.859843 0.407659 24.74351 8.183354e-08 0.9073898 0.4202903 191 191 191 255 0.1736 0.088437
4.859841 4.75648 15.35458 8.183353e-08 0.9073897 0.4202902 191 191 191 255 0.1736 0.088437
4.859843 0.243515 24.6594 -8.18336e-08 -0.9073895 -0.4202906 191 191 191 255 0.1736 0.088437
4.859841 4.59234 15.27047 -8.183362e-08 -0.9073895 -0.4202907 191 191 191 255 0.1736 0.088437
4.751178 0 25.00698 1.947072e-07 0 1 191 191 191 255 0.1736 0.088437
5.073001 0 25.00698 1.947072e-07 0 1 191 191 191 255 0.1736 0.088437
5.073001 5 25.00698 1.947072e-07 0 1 191 191 191 255 0.1736 0.088437
4.751178 5 25.00698 1.947072e-07 0 1 191 191 191 255 0.1736 0.088437
5.072999 0 15.00699 -1.947072e-07 0 -1 191 191 191 255 0.1736 0.088437
4.751176 0 15.00699 -1.947072e-07 0 -1 191 191 191 255 0.1736 0.088437
4.751176 5 15.00699 -1.947072e-07 0 -1 191 191 191 255 0.1736 0.088437
5.072999 5 15.00699 -1.947072e-07 0 -1 191 191 191 255 0.1736 0.088437
4.751176 0 15.00699 -1 0 1.198292e-07 191 191 191 255 0.205638 0.088437
4.751178 0 25.00698 -1 0 1.975435e-07 191 191 191 255 0.205638 0.088437
4.751178 5 25.00698 -1 0 2.27466e-07 191 191 191 255 0.205638 0.088437
4.751176 5 15.00699 -1 0 2.668582e-07 191 191 191 255 0.205638 0.088437
4.751176 0.325587 15.31252 0 1 0 191 191 191 255 0.237214 0.088437
4.751178 0.325587 24.70145 0 1 0 191 191 191 255 0.237214 0.088437
4.751178 0.325587 24.70145 -1.947072e-07 0 -1 191 191 191 255 0.17592 0.088437
4.751178 4.67441 24.70145 -1.947072e-07 0 -1 191 191 191 255 0.17592 0.088437
5.073001 0.325587 24.70145 -1.947072e-07 0 -1 191 191 191 255 0.17592 0.088437
5.073001 4.67441 24.70145 0 -1 0 191 191 191 255 0.205638 0.088437
4.751176 4.67441 15.31252 1.947072e-07 0 1 191 191 191 255 0.17592 0.088437
4.751176 0.325587 15.31252 1.947072e-07 0 1 191 191 191 255 0.17592 0.088437
5.072999 0.325587 15.31252 1.947072e-07 0 1 191 191 191 255 0.17592 0.088437
5.072999 4.67441 15.31252 1.947072e-07 0 1 191 191 191 255 0.17592 0.088437
5.054115 0.243515 5.354576 8.183359e-08 -0.9073896 0.4202906 191 191 191 255 0.1736 0.088437
5.054115 0.407659 5.270469 -8.183355e-08 0.9073898 -0.4202904 191 191 191 255 0.1736 0.088437
5.054116 4.59234 14.74351 8.183358e-08 -0.9073896 0.4202905 191 191 191 255 0.1736 0.088437
5.054116 4.75648 14.6594 -8.183356e-08 0.9073897 -0.4202904 191 191 191 255 0.1736 0.088437
4.859849 4.59234 14.74351 -1 0 1.949796e-07 191 191 191 255 0.205638 0.088437
4.859849 4.75648 14.6594 -1 0 1.947072e-07 191 191 191 255 0.205638 0.088437
4.859848 0.243515 5.354576 -1 0 2.181502e-07 191 191 191 255 0.205638 0.088437
4.859848 0.407659 5.270469 -1 0 2.178778e-07 191 191 191 255 0.205638 0.088437
4.859841 0.243515 14.6594 -1 0 2.564432e-07 191 191 191 255 0.205638 0.088437
4.859841 0.407659 14.74351 -1 0 2.572213e-07 191 191 191 255 0.205638 0.088437
4.859839 4.59234 5.270469 -1 0 1.868927e-07 191 191 191 255 0.205638 0.088437
4.859839 4.75648 5.354577 -1 0 1.876707e-07 191 191 191 255 0.205638 0.088437
5.054108 4.59234 5.270469 -8.183362e-08 -0.9073895 -0.4202907 191 191 191 255 0.1736 0.088437
5.054108 4.75648 5.354577 8.183354e-08 0.9073898 0.4202903 191 191 191 255 0.1736 0.088437
5.05411 0.243515 14.6594 -8.183361e-08 -0.9073896 -0.4202907 191 191 191 255 0.1736 0.088437
5.05411 0.407659 14.74351 8.183353e-08 0.9073897 0.4202903 191 191 191 255 0.1736 0.088437
5.072999 0 15.00699 -1 0 1.947072e-07 191 191 191 255 0.391929 0.062464
5.072998 0 5.006987 -1 0 1.947072e-07 191 191 191 255 0.391929 0.062464
5.072999 5 15.00699 -1 0 1.947072e-07 191 191 191 255 0.391929 0.062464
5.072998 5 5.006987 -1 0 1.947072e-07 191 191 191 255 0.391929 0.062464
4.751174 0 5.006987 0 -1 0 191 191 191 255 0.140619 0.088437
4.751176 0 15.00699 0 -1 0 191 191 191 255 0.140619 0.088437
4.751174 5 5.006987 0 1 0 191 191 191 255 0.240504 0.088437
4.751176 5 15.00699 0 1 0 191 191 191 255 0.240504 0.088437
5.072998 5 5.006987 0 1 0 191 191 191 255 0.240504 0.088437
5.072999 5 15.00699 0 1 0 191 191 191 255 0.240504 0.088437
5.072998 0 5.006987 0 -1 0 191 191 191 255 0.140619 0.088437
5.072999 0 15.00699 0 -1 0 191 191 191 255 0.140619 0.088437
4.751174 0.325587 5.312524 -1 0 1.202689e-07 191 191 191 255 0.205638 0.088437
4.751176 0.325587 14.70145 -1 0 1.947072e-07 191 191 191 255 0.205638 0.088437
4.751176 4.67441 14.70145 -0.9486798 -0.3162383 2.166411e-07 191 191 191 255 0.205638 0.088437
4.751174 4.67441 5.312524 -0.9486814 -0.3162334 2.709754e-07 191 191 191 255 0.205638 0.088437
5.072998 4.67441 5.312524 0 -1 0 191 191 191 255 0.205638 0.088437
5.072999 4.67441 14.70145 -1.947072e-07 0 -1 191 191 191 255 0.17592 0.088437
5.072999 0.325587 14.70145 0 1 0 191 191 191 255 0.237214 0.088437
5.072998 0.325587 5.312524 0 1 0 191 191 191 255 0.237214 0.088437
4.859848 0.407659 5.270469 -8.183355e-08 0.9073897 -0.4202904 191 191 191 255 0.1736 0.088437
4.859849 4.75648 14.6594 -8.183356e-08 0.9073898 -0.4202904 191 191 191 255 0.1736 0.088437
4.859848 0.243515 5.354576 8.183358e-08 -0.9073896 0.4202905 191 191 191 255 0.1736 0.088437
4.859849 4.59234 14.74351 8.183358e-08 -0.9073896 0.4202906 191 191 191 255 0.1736 0.088437
4.859841 0.407659 14.74351 8.183354e-08 0.9073898 0.4202903 191 191 191 255 0.1736 0.088437
4.859839 4.75648 5.354577 8.183353e-08 0.9073897 0.4202902 191 191 191 255 0.1736 0.088437
4.859841 0.243515 14.6594 -8.18336e-08 -0.9073895 -0.4202906 191 191 191 255 0.1736 0.088437
4.859839 4.59234 5.270469 -8.183362e-08 -0.9073895 -0.4202907 191 191 191 255 0.1736 0.088437
4.751176 0 15.00699 1.947072e-07 0 1 191 191 191 255 0.1736 0.088437
5.072999 0 15.00699 1.947072e-07 0 1 191 191 191 255 0.1736 0.088437
5.072999 5 15.00699 1.947072e-07 0 1 191 191 191 255 0.1736 0.088437
4.751176 5 15.00699 1.947072e-07 0 1 191 191 191 255 0.1736 0.088437
5.072998 0 5.006987 -1.947072e-07 0 -1 191 191 191 255 0.1736 0.088437
4.751174 0 5.006987 -1.947072e-07 0 -1 191 191 191 255 0.1736 0.088437
4.751174 5 5.006987 -1.947072e-07 0 -1 191 191 191 255 0.1736 0.088437
5.072998 5 5.006987 -1.947072e-07 0 -1 191 191 191 255 0.1736 0.088437
4.751174 0 5.006987 -1 0 1.198292e-07 191 191 191 255 0.205638 0.088437
4.751176 0 15.00699 -1 0 1.975435e-07 191 191 191 255 0.205638 0.088437
4.751176 5 15.00699 -1 0 2.27466e-07 191 191 191 255 0.205638 0.088437
4.751174 5 5.006987 -1 0 2.668582e-07 191 191 191 255 0.205638 0.088437
4.751174 0.325587 5.312524 0 1 0 191 191 191 255 0.237214 0.088437
4.751176 0.325587 14.70145 0 1 0 191 191 191 255 0.237214 0.088437
4.751176 0.325587 14.70145 -1.947072e-07 0 -1 191 191 191 255 0.17592 0.088437
4.751176 4.67441 14.70145 -1.947072e-07 0 -1 191 191 191 255 0.17592 0.088437
5.072999 0.325587 14.70145 -1.947072e-07 0 -1 191 191 191 255 0.17592 0.088437
5.072999 4.67441 14.70145 0 -1 0 191 191 191 255 0.205638 0.088437
4.751174 4.67441 5.312524 1.947072e-07 0 1 191 191 191 255 0.17592 0.088437
4.751174 0.325587 5.312524 1.947072e-07 0 1 191 191 191 255 0.17592 0.088437
5.072998 0.325587 5.312524 1.947072e-07 0 1 191 191 191 255 0.17592 0.088437
5.072998 4.67441 5.312524 1.947072e-07 0 1 191 191 191 255 0.17592 0.088437
4.552115 0.243515 24.9881 -0.295302 -0.955404 4.458936e-08 191 191 191 255 0.1736 0.088437
4.678155 0.407659 24.9881 0.2953018 0.955404 -4.458933e-08 191 191 191 255 0.1736 0.088437
-9.517839 4.59234 24.98811 -0.2953019 -0.955404 4.458935e-08 191 191 191 255 0.1736 0.088437
-9.391794 4.75648 24.98811 0.2953018 0.955404 -4.458934e-08 191 191 191 255 0.1736 0.088437
-9.517839 4.59234 24.79384 -1.511776e-07 0 -1 191 191 191 255 0.205638 0.088437
-9.391794 4.75648 24.79384 -1.509958e-07 0 -1 191 191 191 255 0.205638 0.088437
4.552115 0.243515 24.79384 -1.666394e-07 0 -1 191 191 191 255 0.205638 0.088437
4.678155 0.407659 24.79384 -1.664576e-07 0 -1 191 191 191 255 0.205638 0.088437
-9.391794 0.243515 24.79383 -1.921925e-07 0 -1 191 191 191 255 0.205638 0.088437
-9.517839 0.407659 24.79383 -1.927117e-07 0 -1 191 191 191 255 0.205638 0.088437
4.678155 4.59234 24.79383 -1.457812e-07 0 -1 191 191 191 255 0.205638 0.088437
4.552114 4.75648 24.79383 -1.463003e-07 0 -1 191 191 191 255 0.205638 0.088437
4.678155 4.59234 24.9881 0.2953021 -0.955404 -4.458938e-08 191 191 191 255 0.1736 0.088437
4.552114 4.75648 24.9881 -0.2953018 0.955404 4.458932e-08 191 191 191 255 0.1736 0.088437
-9.391794 0.243515 24.9881 0.295302 -0.955404 -4.458937e-08 191 191 191 255 0.1736 0.088437
-9.517839 0.407659 24.9881 -0.2953018 0.9554041 4.458933e-08 191 191 191 255 0.1736 0.088437
-9.912683 0 25.00699 -1.509958e-07 0 -1 191 191 191 255 0.391929 0.062464
5.073001 0 25.00699 -1.509958e-07 0 -1 191 191 191 255 0.391929 0.062464
-9.912683 5 25.00699 -1.509958e-07 0 -1 191 191 191 255 0.391929 0.062464
5.073001 5 25.00699 -1.509958e-07 0 -1 191 191 191 255 0.391929 0.062464
5.073001 0 24.68516 -0 -1 0 191 191 191 255 0.140619 0.088437
-9.912683 0 24.68517 -0 -1 0 191 191 191 255 0.140619 0.088437
5.073001 5 24.68516 0 1 0 191 191 191 255 0.240504 0.088437
-9.912683 5 24.68517 0 1 0 191 191 191 255 0.240504 0.088437
5.073001 5 25.00699 0 1 0 191 191 191 255 0.240504 0.088437
-9.912683 5 25.00699 0 1 0 191 191 191 255 0.240504 0.088437
5.073001 0 25.00699 -0 -1 0 191 191 191 255 0.140619 0.088437
-9.912683 0 25.00699 -0 -1 0 191 191 191 255 0.140619 0.088437
4.615133 0.325587 24.68516 -1.013228e-07 0 -1 191 191 191 255 0.205638 0.088437
-9.454809 0.325587 24.68517 -1.509958e-07 0 -1 191 191 191 255 0.205638 0.088437
-9.454809 4.67441 24.68517 -1.645512e-07 -0.3162383 -0.9486798 191 191 191 255 0.205638 0.088437
4.615133 4.67441 24.68516 -2.008087e-07 -0.3162334 -0.9486814 191 191 191 255 0.205638 0.088437
4.615133 4.67441 25.00699 -0 -1 0 191 191 191 255 0.205638 0.088437
-9.454809 4.67441 25.00699 0.9999999 0 -1.509958e-07 191 191 191 255 0.17592 0.088437
-9.454809 0.325587 25.00699 0 1 0 191 191 191 255 0.237214 0.088437
4.615133 0.325587 25.00699 0 1 0 191 191 191 255 0.237214 0.088437
4.678155 0.407659 24.79384 0.2953018 0.955404 -4.458933e-08 191 191 191 255 0.1736 0.088437
-9.391794 4.75648 24.79384 0.2953018 0.955404 -4.458933e-08 191 191 191 255 0.1736 0.088437
4.552115 0.243515 24.79384 -0.2953019 -0.955404 4.458935e-08 191 191 191 255 0.1736 0.088437
-9.517839 4.59234 24.79384 -0.2953019 -0.955404 4.458936e-08 191 191 191 255 0.1736 0.088437
-9.517839 0.407659 24.79383 -0.2953018 0.955404 4.458932e-08 191 191 191 255 0.1736 0.088437
4.552114 4.75648 24.79383 -0.2953017 0.9554041 4.458932e-08 191 191 191 255 0.1736 0.088437
-9.391794 0.243515 24.79383 0.295302 -0.9554039 -4.458937e-08 191 191 191 255 0.1736 0.088437
4.678155 4.59234 24.79383 0.2953021 -0.955404 -4.458938e-08 191 191 191 255 0.1736 0.088437
-9.912683 0 24.68517 -0.9999999 0 1.509958e-07 191 191 191 255 0.1736 0.088437
-9.912683 0 25.00699 -0.9999999 0 1.509958e-07 191 191 191 255 0.1736 0.088437
-9.912683 5 25.00699 -0.9999999 0 1.509958e-07 191 191 191 255 0.1736 0.088437
-9.912683 5 24.68517 -0.9999999 0 1.509958e-07 191 191 191 255 0.1736 0.088437
5.073001 0 25.00699 0.9999999 0 -1.509958e-07 191 191 191 255 0.1736 0.088437
5.073001 0 24.68516 0.9999999 0 -1.509958e-07 191 191 191 255 0.1736 0.088437
5.073001 5 24.68516 0.9999999 0 -1.509958e-07 191 191 191 255 0.1736 0.088437
5.073001 5 25.00699 0.9999999 0 -1.509958e-07 191 191 191 255 0.1736 0.088437
5.073001 0 24.68516 -1.010294e-07 0 -1 191 191 191 255 0.205638 0.088437
-9.912683 0 24.68517 -1.528885e-07 0 -1 191 191 191 255 0.205638 0.088437
-9.912683 5 24.68517 -1.728559e-07 0 -1 191 191 191 255 0.205638 0.088437
5.073001 5 24.68516 -1.991424e-07 0 -1 191 191 191 255 0.205638 0.088437
4.615133 0.325587 24.68516 0 1 0 191 191 191 255 0.237214 0.088437
-9.454809 0.325587 24.68517 0 1 0 191 191 191 255 0.237214 0.088437
-9.454809 0.325587 24.68517 0.9999999 0 -1.509958e-07 191 191 191 255 0.17592 0.088437
-9.454809 4.67441 24.68517 0.9999999 0 -1.509958e-07 191 191 191 255 0.17592 0.088437
-9.454809 0.325587 25.00699 0.9999999 0 -1.509958e-07 191 191 191 255 0.17592 0.088437
-9.454809 4.67441 25.00699 -0 -1 0 191 191 191 255 0.205638 0.088437
4.615133 4.67441 24.68516 -0.9999999 0 1.509958e-07 191 191 191 255 0.17592 0.088437
4.615133 0.325587 24.68516 -0.9999999 0 1.509958e-07 191 191 191 255 0.17592 0.088437
4.615133 0.325587 25.00699 -0.9999999 0 1.509958e-07 191 191 191 255 0.17592 0.088437
4.615133 4.67441 25.00699 -0.9999999 0 1.509958e-07 191 191 191 255 0.17592 0.088437
-9.908117 4.756485 15.35458 -2.138315e-07 0.9073896 0.4202906 191 191 191 255 0.1736 0.088437
-9.908117 4.592341 15.27047 2.138316e-07 -0.9073898 -0.4202904 191 191 191 255 0.1736 0.088437
-9.908113 0.40766 24.74351 -2.138315e-07 0.9073896 0.4202905 191 191 191 255 0.1736 0.088437
-9.908113 0.2435198 24.6594 2.138315e-07 -0.9073897 -0.4202904 191 191 191 255 0.1736 0.088437
-9.713846 0.40766 24.74351 1 3.258414e-07 -1.944348e-07 191 191 191 255 0.205638 0.088437
-9.713846 0.2435198 24.6594 1 3.258414e-07 -1.947072e-07 191 191 191 255 0.205638 0.088437
-9.71385 4.756485 15.35458 1 3.258414e-07 -1.712642e-07 191 191 191 255 0.205638 0.088437
-9.71385 4.592341 15.27047 1 3.258414e-07 -1.715366e-07 191 191 191 255 0.205638 0.088437
-9.71384 4.756485 24.6594 1 3.258414e-07 -1.329712e-07 191 191 191 255 0.205638 0.088437
-9.71384 4.592341 24.74351 1 3.258414e-07 -1.321931e-07 191 191 191 255 0.205638 0.088437
-9.71384 0.40766 15.27047 1 3.258414e-07 -2.025216e-07 191 191 191 255 0.205638 0.088437
-9.71384 0.2435198 15.35458 1 3.258414e-07 -2.017437e-07 191 191 191 255 0.205638 0.088437
-9.908109 0.40766 15.27047 -3.774987e-07 0.9073895 -0.4202907 191 191 191 255 0.1736 0.088437
-9.908109 0.2435198 15.35458 3.774987e-07 -0.9073898 0.4202903 191 191 191 255 0.1736 0.088437
-9.908108 4.756485 24.6594 -3.774987e-07 0.9073896 -0.4202907 191 191 191 255 0.1736 0.088437
-9.908108 4.592341 24.74351 3.774986e-07 -0.9073897 0.4202903 191 191 191 255 0.1736 0.088437
-9.926998 5 25.00699 1 3.258414e-07 -1.947072e-07 191 191 191 255 0.391929 0.062464
-9.927 5 15.00699 1 3.258414e-07 -1.947072e-07 191 191 191 255 0.391929 0.062464
-9.926996 0 25.00699 1 3.258414e-07 -1.947072e-07 191 191 191 255 0.391929 0.062464
-9.926998 0 15.00699 1 3.258414e-07 -1.947072e-07 191 191 191 255 0.391929 0.062464
-9.605177 5 15.00699 -3.258414e-07 1 6.344366e-14 191 191 191 255 0.140619 0.088437
-9.605175 5 25.00699 -3.258414e-07 1 6.344366e-14 191 191 191 255 0.140619 0.088437
-9.605175 0 15.00699 3.258414e-07 -1 -6.344366e-14 191 191 191 255 0.240504 0.088437
-9.605173 0 25.00699 3.258414e-07 -1 -6.344366e-14 191 191 191 255 0.240504 0.088437
-9.926998 0 15.00699 3.258414e-07 -1 -6.344366e-14 191 191 191 255 0.240504 0.088437
-9.926996 0 25.00699 3.258414e-07 -1 -6.344366e-14 191 191 191 255 0.240504 0.088437
-9.927 5 15.00699 -3.258414e-07 1 6.344366e-14 191 191 191 255 0.140619 0.088437
-9.926998 5 25.00699 -3.258414e-07 1 6.344366e-14 191 191 191 255 0.140619 0.088437
-9.605177 4.674413 15.31252 1 3.258414e-07 -2.691455e-07 191 191 191 255 0.205638 0.088437
-9.605175 4.674413 24.70145 1 3.258414e-07 -1.947072e-07 191 191 191 255 0.205638 0.088437
-9.605174 0.3255901 24.70145 0.9486797 0.3162386 -1.527884e-07 191 191 191 255 0.205638 0.088437
-9.605175 0.3255901 15.31252 0.9486813 0.3162337 -9.845478e-08 191 191 191 255 0.205638 0.088437
-9.926998 0.3255901 15.31252 -3.258414e-07 1 6.344366e-14 191 191 191 255 0.205638 0.088437
-9.926996 0.3255901 24.70145 -1.947072e-07 0 -1 191 191 191 255 0.17592 0.088437
-9.926998 4.674413 24.70145 3.258414e-07 -1 -6.344366e-14 191 191 191 255 0.237214 0.088437
-9.927 4.674413 15.31252 3.258414e-07 -1 -6.344366e-14 191 191 191 255 0.237214 0.088437
-9.71385 4.592341 15.27047 2.138316e-07 -0.9073897 -0.4202904 191 191 191 255 0.1736 0.088437
-9.713846 0.2435198 24.6594 2.138316e-07 -0.9073898 -0.4202904 191 191 191 255 0.1736 0.088437
-9.71385 4.756485 15.35458 -2.138315e-07 0.9073896 0.4202905 191 191 191 255 0.1736 0.088437
-9.713846 0.40766 24.74351 -2.138315e-07 0.9073896 0.4202906 191 191 191 255 0.1736 0.088437
-9.71384 4.592341 24.74351 3.774987e-07 -0.9073898 0.4202903 191 191 191 255 0.1736 0.088437
-9.71384 0.2435198 15.35458 3.774986e-07 -0.9073897 0.4202902 191 191 191 255 0.1736 0.088437
-9.71384 4.756485 24.6594 -3.774986e-07 0.9073895 -0.4202906 191 191 191 255 0.1736 0.088437
-9.71384 0.40766 15.27047 -3.774987e-07 0.9073895 -0.4202907 191 191 191 255 0.1736 0.088437
-9.605175 5 25.00699 1.947072e-07 0 1 191 191 191 255 0.1736 0.088437
-9.926998 5 25.00699 1.947072e-07 0 1 191 191 191 255 0.1736 0.088437
-9.926996 0 25.00699 1.947072e-07 0 1 191 191 191 255 0.1736 0.088437
-9.605173 0 25.00699 1.947072e-07 0 1 191 191 191 255 0.1736 0.088437
-9.927 5 15.00699 -1.947072e-07 0 -1 191 191 191 255 0.1736 0.088437
-9.605177 5 15.00699 -1.947072e-07 0 -1 191 191 191 255 0.1736 0.088437
-9.605175 0 15.00699 -1.947072e-07 0 -1 191 191 191 255 0.1736 0.088437
-9.926998 0 15.00699 -1.947072e-07 0 -1 191 191 191 255 0.1736 0.088437
-9.605177 5 15.00699 1 3.258414e-07 -2.695852e-07 191 191 191 255 0.205638 0.088437
-9.605175 5 25.00699 1 3.258414e-07 -1.918709e-07 191 191 191 255 0.205638 0.088437
-9.605173 0 25.00699 1 3.258414e-07 -1.619483e-07 191 191 191 255 0.205638 0.088437
-9.605175 0 15.00699 1 3.258414e-07 -1.225562e-07 191 191 191 255 0.205638 0.088437
-9.605177 4.674413 15.31252 3.258414e-07 -1 -6.344366e-14 191 191 191 255 0.237214 0.088437
-9.605175 4.674413 24.70145 3.258414e-07 -1 -6.344366e-14 191 191 191 255 0.237214 0.088437
-9.605175 4.674413 24.70145 -1.947072e-07 0 -1 191 191 191 255 0.17592 0.088437
-9.605174 0.3255901 24.70145 -1.947072e-07 0 -1 191 191 191 255 0.17592 0.088437
-9.926998 4.674413 24.70145 -1.947072e-07 0 -1 191 191 191 255 0.17592 0.088437
-9.926996 0.3255901 24.70145 -3.258414e-07 1 6.344366e-14 191 191 191 255 0.205638 0.088437
-9.605175 0.3255901 15.31252 1.947072e-07 0 1 191 191 191 255 0.17592 0.088437
-9.605177 4.674413 15.31252 1.947072e-07 0 1 191 191 191 255 0.17592 0.088437
-9.927 4.674413 15.31252 1.947072e-07 0 1 191 191 191 255 0.17592 0.088437
-9.926998 0.3255901 15.31252 1.947072e-07 0 1 191 191 191 255 0.17592 0.088437
3 4 5 7 
3 4 7 6 
3 1 36 37 
3 1 37 3 
3 38 0 2 
3 38 2 39 
3 8 9 11 
3 8 11 10 
3 40 15 13 
3 40 13 41 
3 14 42 43 
3 14 43 12 
3 19 17 16 
3 19 16 18 
3 22 23 25 
3 22 25 24 
3 26 27 21 
3 26 21 20 
3 44 45 46 
3 44 46 47 
3 48 49 50 
3 48 50 51 
3 52 53 29 
3 52 29 28 
3 53 54 30 
3 53 30 29 
3 54 55 31 
3 54 31 30 
3 55 52 28 
3 55 28 31 
3 56 57 34 
3 56 34 35 
3 58 59 33 
3 58 33 60 
3 30 31 32 
3 30 32 61 
3 62 63 64 
3 62 64 65 
3 70 71 73 
3 70 73 72 
3 67 102 103 
3 67 103 69 
3 104 66 68 
3 104 68 105 
3 74 75 77 
3 74 77 76 
3 106 81 79 
3 106 79 107 
3 80 108 109 
3 80 109 78 
3 85 83 82 
3 85 82 84 
3 88 89 91 
3 88 91 90 
3 92 93 87 
3 92 87 86 
3 110 111 112 
3 110 112 113 
3 114 115 116 
3 114 116 117 
3 118 119 95 
3 118 95 94 
3 119 120 96 
3 119 96 95 
3 120 121 97 
3 120 97 96 
3 121 118 94 
3 121 94 97 
3 122 123 100 
3 122 100 101 
3 124 125 99 
3 124 99 126 
3 96 97 98 
3 96 98 127 
3 128 129 130 
3 128 130 131 
3 136 137 139 
3 136 139 138 
3 133 168 169 
3 133 169 135 
3 170 132 134 
3 170 134 171 
3 140 141 143 
3 140 143 142 
3 172 147 145 
3 172 145 173 
3 146 174 175 
3 146 175 144 
3 151 149 148 
3 151 148 150 
3 154 155 157 
3 154 157 156 
3 158 159 153 
3 158 153 152 
3 176 177 178 
3 176 178 179 
3 180 181 182 
3 180 182 183 
3 184 185 161 
3 184 161 160 
3 185 186 162 
3 185 162 161 
3 186 187 163 
3 186 163 162 
3 187 184 160 
3 187 160 163 
3 188 189 166 
3 188 166 167 
3 190 191 165 
3 190 165 192 
3 162 163 164 
3 162 164 193 
3 194 195 196 
3 194 196 197 
3 202 203 205 
3 202 205 204 
3 199 234 235 
3 199 235 201 
3 236 198 200 
3 236 200 237 
3 206 207 209 
3 206 209 208 
3 238 213 211 
3 238 211 239 
3 212 240 241 
3 212 241 210 
3 217 215 214 
3 217 214 216 
3 220 221 223 
3 220 223 222 
3 224 225 219 
3 224 219 218 
3 242 243 244 
3 242 244 245 
3 246 247 248 
3 246 248 249 
3 250 251 227 
3 250 227 226 
3 251 252 228 
3 251 228 227 
3 252 253 229 
3 252 229 228 
3 253 250 226 
3 253 226 229 
3 254 255 232 
3 254 232 233 
3 256 257 231 
3 256 231 258 
3 228 229 230 
3 228 230 259 
3 260 261 262 
3 260 262 263 
3 268 269 271 
3 268 271 270 
3 265 300 301 
3 265 301 267 
3 302 264 266 
3 302 266 303 
3 272 273 275 
3 272 275 274 
3 304 279 277 
3 304 277 305 
3 278 306 307 
3 278 307 276 
3 283 281 280 
3 283 280 282 
3 286 287 289 
3 286 289 288 
3 290 291 285 
3 290 285 284 
3 308 309 310 
3 308 310 311 
3 312 313 314 
3 312 314 315 
3 316 317 293 
3 316 293 292 
3 317 318 294 
3 317 294 293 
3 318 319 295 
3 318 295 294 
3 319 316 292 
3 319 292 295 
3 320 321 298 
3 320 298 299 
3 322 323 297 
3 322 297 324 
3 294 295 296 
3 294 296 325 
3 326 327 328 
3 326 328 329 
