ply
format ascii 1.0
comment VCGLIB generated
element vertex 672
property float x
property float y
property float z
property float nx
property float ny
property float nz
property uchar red
property uchar green
property uchar blue
property uchar alpha
property float texture_u
property float texture_v
element face 352
property list uchar int vertex_indices
end_header
-1.20689 2.24611 24.71688 0 0 -1 191 191 191 255 -1.20689 2.24611
-1.29311 2.24611 24.71688 0 0 -1 191 191 191 255 -1.29311 2.24611
-1.20689 4.03249 24.71688 0 0 -1 191 191 191 255 -1.20689 4.03249
-1.29311 4.03249 24.71688 0 0 -1 191 191 191 255 -1.29311 4.03249
-1.20689 3.94408 24.8031 0 0 1 191 191 191 255 -1.20689 3.94408
-1.29311 3.94408 24.8031 0 0 1 191 191 191 255 -1.29311 3.94408
-1.20689 2.33452 24.8031 0 0 1 191 191 191 255 -1.20689 2.33452
-1.29311 2.33452 24.8031 0 0 1 191 191 191 255 -1.29311 2.33452
-1.20689 4.03249 24.94123 0 1 0 191 191 191 255 -1.20689 4.03249
-1.29311 4.03249 24.94123 0 1 0 191 191 191 255 -1.29311 4.03249
-1.29311 3.94408 24.94123 -1 0 0 191 191 191 255 -1.29311 3.94408
-1.20689 3.94408 24.94123 0 -1 0 191 191 191 255 -1.20689 3.94408
-1.20689 2.33452 24.94123 0 1 0 191 191 191 255 -1.20689 2.33452
-1.29311 2.33452 24.94123 0 1 0 191 191 191 255 -1.29311 2.33452
-1.29311 2.24611 24.94123 -1 0 0 191 191 191 255 -1.29311 2.24611
-1.20689 2.24611 24.94123 0 -1 0 191 191 191 255 -1.20689 2.24611
-1.17904 4.06104 24.94123 0 0 -1 191 191 191 255 -1.17904 4.06104
-1.32095 4.06104 24.94123 0 0 -1 191 191 191 255 -1.32095 4.06104
-1.32095 3.91553 24.94123 0 0 -1 191 191 191 255 -1.32095 3.91553
-1.17904 3.91553 24.94123 0 0 -1 191 191 191 255 -1.17904 3.91553
-1.17904 2.36308 24.94123 0 0 -1 191 191 191 255 -1.17904 2.36308
-1.32096 2.36308 24.94123 0 0 -1 191 191 191 255 -1.32096 2.36308
-1.32096 2.21756 24.94123 0 0 -1 191 191 191 255 -1.32096 2.21756
-1.17904 2.21756 24.94123 0 0 -1 191 191 191 255 -1.17904 2.21756
-1.17904 4.06104 25 0 1 0 191 191 191 255 -1.17904 4.06104
-1.32095 4.06104 25 0 1 0 191 191 191 255 -1.32095 4.06104
-1.32095 3.91553 25 -1 0 0 191 191 191 255 -1.32095 3.91553
-1.17904 3.91553 25 0 -1 0 191 191 191 255 -1.17904 3.91553
-1.17904 2.36308 25 0 1 0 191 191 191 255 -1.17904 2.36308
-1.32096 2.36308 25 0 1 0 191 191 191 255 -1.32096 2.36308
-1.32096 2.21756 25 -1 0 0 191 191 191 255 -1.32096 2.21756
-1.17904 2.21756 25 0 -1 0 191 191 191 255 -1.17904 2.21756
-3.70689 2.24611 24.71688 0 0 -1 191 191 191 255 -3.70689 2.24611
-3.79311 2.24611 24.71688 0 0 -1 191 191 191 255 -3.79311 2.24611
-3.70689 4.03249 24.71688 0 0 -1 191 191 191 255 -3.70689 4.03249
-3.79311 4.03249 24.71688 0 0 -1 191 191 191 255 -3.79311 4.03249
-3.70689 3.94408 24.8031 0 0 1 191 191 191 255 -3.70689 3.94408
-3.79311 3.94408 24.8031 0 0 1 191 191 191 255 -3.79311 3.94408
-3.70689 2.33452 24.8031 0 0 1 191 191 191 255 -3.70689 2.33452
-3.79311 2.33452 24.8031 0 0 1 191 191 191 255 -3.79311 2.33452
-3.70689 4.03249 24.94123 0 1 0 191 191 191 255 -3.70689 4.03249
-3.79311 4.03249 24.94123 0 1 0 191 191 191 255 -3.79311 4.03249
-3.79311 3.94408 24.94123 -1 0 0 191 191 191 255 -3.79311 3.94408
-3.70689 3.94408 24.94123 0 -1 0 191 191 191 255 -3.70689 3.94408
-3.70689 2.33452 24.94123 0 1 0 191 191 191 255 -3.70689 2.33452
-3.79311 2.33452 24.94123 0 1 0 191 191 191 255 -3.79311 2.33452
-3.79311 2.24611 24.94123 -1 0 0 191 191 191 255 -3.79311 2.24611
-3.70689 2.24611 24.94123 0 -1 0 191 191 191 255 -3.70689 2.24611
-3.67904 4.06104 24.94123 0 0 -1 191 191 191 255 -3.67904 4.06104
-3.82095 4.06104 24.94123 0 0 -1 191 191 191 255 -3.82095 4.06104
-3.82095 3.91553 24.94123 0 0 -1 191 191 191 255 -3.82095 3.91553
-3.67904 3.91553 24.94123 0 0 -1 191 191 191 255 -3.67904 3.91553
-3.67904 2.36308 24.94123 0 0 -1 191 191 191 255 -3.67904 2.36308
-3.82096 2.36308 24.94123 0 0 -1 191 191 191 255 -3.82096 2.36308
-3.82096 2.21756 24.94123 0 0 -1 191 191 191 255 -3.82096 2.21756
-3.67904 2.21756 24.94123 0 0 -1 191 191 191 255 -3.67904 2.21756
-3.67904 4.06104 25 0 1 0 191 191 191 255 -3.67904 4.06104
-3.82095 4.06104 25 0 1 0 191 191 191 255 -3.82095 4.06104
-3.82095 3.91553 25 -1 0 0 191 191 191 255 -3.82095 3.91553
-3.67904 3.91553 25 0 -1 0 191 191 191 255 -3.67904 3.91553
-3.67904 2.36308 25 0 1 0 191 191 191 255 -3.67904 2.36308
-3.82096 2.36308 25 0 1 0 191 191 191 255 -3.82096 2.36308
-3.82096 2.21756 25 -1 0 0 191 191 191 255 -3.82096 2.21756
-3.67904 2.21756 25 0 -1 0 191 191 191 255 -3.67904 2.21756
0 0 25 0 0 -1 191 191 191 255 0 0
-5 0 25 0 0 -1 191 191 191 255 -5 0
0 5 25 0 0 -1 191 191 191 255 0 5
-5 5 25 0 0 -1 191 191 191 255 -5 5
-2.5 0 25 0 0 -1 191 191 191 255 -2.5 0
-2.5 5 25 0 0 -1 191 191 191 255 -2.5 5
-1.25 0 25 0 0 -1 191 191 191 255 -1.25 0
-1.25 5 25 0 0 -1 191 191 191 255 -1.25 5
-3.75 0 25 0 0 -1 191 191 191 255 -3.75 0
-3.75 5 25 0 0 -1 191 191 191 255 -3.75 5
0 4 25 0 0 -1 191 191 191 255 0 4
-1.25 4 25 0 0 -1 191 191 191 255 -1.25 4
-2.5 4 25 0 0 -1 191 191 191 255 -2.5 4
-3.75 4 25 0 0 -1 191 191 191 255 -3.75 4
-5 4 25 0 0 -1 191 191 191 255 -5 4
-1.29311 2.24611 24.71688 -1 0 0 191 191 191 255 -1.29311 2.24611
-1.29311 2.33452 24.8031 -1 0 0 191 191 191 255 -1.29311 2.33452
-1.29311 3.94408 24.8031 -1 0 0 191 191 191 255 -1.29311 3.94408
-1.29311 4.03249 24.71688 -1 0 0 191 191 191 255 -1.29311 4.03249
-1.20689 2.33452 24.8031 1 0 0 191 191 191 255 -1.20689 2.33452
-1.20689 2.24611 24.71688 1 0 0 191 191 191 255 -1.20689 2.24611
-1.20689 4.03249 24.71688 1 0 0 191 191 191 255 -1.20689 4.03249
-1.20689 3.94408 24.8031 1 0 0 191 191 191 255 -1.20689 3.94408
-1.20689 4.03249 24.71688 0 1 0 191 191 191 255 -1.20689 4.03249
-1.29311 4.03249 24.71688 0 1 0 191 191 191 255 -1.29311 4.03249
-1.29311 4.03249 24.71688 -1 0 0 191 191 191 255 -1.29311 4.03249
-1.29311 3.94408 24.8031 -1 0 0 191 191 191 255 -1.29311 3.94408
-1.29311 4.03249 24.94123 -1 0 0 191 191 191 255 -1.29311 4.03249
-1.29311 3.94408 24.8031 0 -1 0 191 191 191 255 -1.29311 3.94408
-1.20689 3.94408 24.8031 0 -1 0 191 191 191 255 -1.20689 3.94408
-1.29311 3.94408 24.94123 0 -1 0 191 191 191 255 -1.29311 3.94408
-1.20689 3.94408 24.8031 1 0 0 191 191 191 255 -1.20689 3.94408
-1.20689 4.03249 24.71688 1 0 0 191 191 191 255 -1.20689 4.03249
-1.20689 4.03249 24.94123 1 0 0 191 191 191 255 -1.20689 4.03249
-1.20689 3.94408 24.94123 1 0 0 191 191 191 255 -1.20689 3.94408
-1.20689 2.33452 24.8031 0 1 0 191 191 191 255 -1.20689 2.33452
-1.29311 2.33452 24.8031 0 1 0 191 191 191 255 -1.29311 2.33452
-1.29311 2.33452 24.8031 -1 0 0 191 191 191 255 -1.29311 2.33452
-1.29311 2.24611 24.71688 -1 0 0 191 191 191 255 -1.29311 2.24611
-1.29311 2.33452 24.94123 -1 0 0 191 191 191 255 -1.29311 2.33452
-1.29311 2.24611 24.71688 0 -1 0 191 191 191 255 -1.29311 2.24611
-1.20689 2.24611 24.71688 0 -1 0 191 191 191 255 -1.20689 2.24611
-1.29311 2.24611 24.94123 0 -1 0 191 191 191 255 -1.29311 2.24611
-1.20689 2.24611 24.71688 1 0 0 191 191 191 255 -1.20689 2.24611
-1.20689 2.33452 24.8031 1 0 0 191 191 191 255 -1.20689 2.33452
-1.20689 2.33452 24.94123 1 0 0 191 191 191 255 -1.20689 2.33452
-1.20689 2.24611 24.94123 1 0 0 191 191 191 255 -1.20689 2.24611
-1.20689 4.03249 24.94123 0 0 -1 191 191 191 255 -1.20689 4.03249
-1.29311 4.03249 24.94123 0 0 -1 191 191 191 255 -1.29311 4.03249
-1.29311 3.94408 24.94123 0 0 -1 191 191 191 255 -1.29311 3.94408
-1.20689 3.94408 24.94123 0 0 -1 191 191 191 255 -1.20689 3.94408
-1.20689 2.33452 24.94123 0 0 -1 191 191 191 255 -1.20689 2.33452
-1.29311 2.33452 24.94123 0 0 -1 191 191 191 255 -1.29311 2.33452
-1.29311 2.24611 24.94123 0 0 -1 191 191 191 255 -1.29311 2.24611
-1.20689 2.24611 24.94123 0 0 -1 191 191 191 255 -1.20689 2.24611
-1.17904 4.06104 24.94123 0 1 0 191 191 191 255 -1.17904 4.06104
-1.32095 4.06104 24.94123 0 1 0 191 191 191 255 -1.32095 4.06104
-1.32095 4.06104 24.94123 -1 0 0 191 191 191 255 -1.32095 4.06104
-1.32095 3.91553 24.94123 -1 0 0 191 191 191 255 -1.32095 3.91553
-1.32095 4.06104 25 -1 0 0 191 191 191 255 -1.32095 4.06104
-1.32095 3.91553 24.94123 0 -1 0 191 191 191 255 -1.32095 3.91553
-1.17904 3.91553 24.94123 0 -1 0 191 191 191 255 -1.17904 3.91553
-1.32095 3.91553 25 0 -1 0 191 191 191 255 -1.32095 3.91553
-1.17904 3.91553 24.94123 1 0 0 191 191 191 255 -1.17904 3.91553
-1.17904 4.06104 24.94123 1 0 0 191 191 191 255 -1.17904 4.06104
-1.17904 4.06104 25 1 0 0 191 191 191 255 -1.17904 4.06104
-1.17904 3.91553 25 1 0 0 191 191 191 255 -1.17904 3.91553
-1.17904 2.36308 24.94123 0 1 0 191 191 191 255 -1.17904 2.36308
-1.32096 2.36308 24.94123 0 1 0 191 191 191 255 -1.32096 2.36308
-1.32096 2.36308 24.94123 -1 0 0 191 191 191 255 -1.32096 2.36308
-1.32096 2.21756 24.94123 -1 0 0 191 191 191 255 -1.32096 2.21756
-1.32096 2.36308 25 -1 0 0 191 191 191 255 -1.32096 2.36308
-1.32096 2.21756 24.94123 0 -1 0 191 191 191 255 -1.32096 2.21756
-1.17904 2.21756 24.94123 0 -1 0 191 191 191 255 -1.17904 2.21756
-1.32096 2.21756 25 0 -1 0 191 191 191 255 -1.32096 2.21756
-1.17904 2.21756 24.94123 1 0 0 191 191 191 255 -1.17904 2.21756
-1.17904 2.36308 24.94123 1 0 0 191 191 191 255 -1.17904 2.36308
-1.17904 2.36308 25 1 0 0 191 191 191 255 -1.17904 2.36308
-1.17904 2.21756 25 1 0 0 191 191 191 255 -1.17904 2.21756
-3.79311 2.24611 24.71688 -1 0 0 191 191 191 255 -3.79311 2.24611
-3.79311 2.33452 24.8031 -1 0 0 191 191 191 255 -3.79311 2.33452
-3.79311 3.94408 24.8031 -1 0 0 191 191 191 255 -3.79311 3.94408
-3.79311 4.03249 24.71688 -1 0 0 191 191 191 255 -3.79311 4.03249
-3.70689 2.33452 24.8031 1 0 0 191 191 191 255 -3.70689 2.33452
-3.70689 2.24611 24.71688 1 0 0 191 191 191 255 -3.70689 2.24611
-3.70689 4.03249 24.71688 1 0 0 191 191 191 255 -3.70689 4.03249
-3.70689 3.94408 24.8031 1 0 0 191 191 191 255 -3.70689 3.94408
-3.70689 4.03249 24.71688 0 1 0 191 191 191 255 -3.70689 4.03249
-3.79311 4.03249 24.71688 0 1 0 191 191 191 255 -3.79311 4.03249
-3.79311 4.03249 24.71688 -1 0 0 191 191 191 255 -3.79311 4.03249
-3.79311 3.94408 24.8031 -1 0 0 191 191 191 255 -3.79311 3.94408
-3.79311 4.03249 24.94123 -1 0 0 191 191 191 255 -3.79311 4.03249
-3.79311 3.94408 24.8031 0 -1 0 191 191 191 255 -3.79311 3.94408
-3.70689 3.94408 24.8031 0 -1 0 191 191 191 255 -3.70689 3.94408
-3.79311 3.94408 24.94123 0 -1 0 191 191 191 255 -3.79311 3.94408
-3.70689 3.94408 24.8031 1 0 0 191 191 191 255 -3.70689 3.94408
-3.70689 4.03249 24.71688 1 0 0 191 191 191 255 -3.70689 4.03249
-3.70689 4.03249 24.94123 1 0 0 191 191 191 255 -3.70689 4.03249
-3.70689 3.94408 24.94123 1 0 0 191 191 191 255 -3.70689 3.94408
-3.70689 2.33452 24.8031 0 1 0 191 191 191 255 -3.70689 2.33452
-3.79311 2.33452 24.8031 0 1 0 191 191 191 255 -3.79311 2.33452
-3.79311 2.33452 24.8031 -1 0 0 191 191 191 255 -3.79311 2.33452
-3.79311 2.24611 24.71688 -1 0 0 191 191 191 255 -3.79311 2.24611
-3.79311 2.33452 24.94123 -1 0 0 191 191 191 255 -3.79311 2.33452
-3.79311 2.24611 24.71688 0 -1 0 191 191 191 255 -3.79311 2.24611
-3.70689 2.24611 24.71688 0 -1 0 191 191 191 255 -3.70689 2.24611
-3.79311 2.24611 24.94123 0 -1 0 191 191 191 255 -3.79311 2.24611
-3.70689 2.24611 24.71688 1 0 0 191 191 191 255 -3.70689 2.24611
-3.70689 2.33452 24.8031 1 0 0 191 191 191 255 -3.70689 2.33452
-3.70689 2.33452 24.94123 1 0 0 191 191 191 255 -3.70689 2.33452
-3.70689 2.24611 24.94123 1 0 0 191 191 191 255 -3.70689 2.24611
-3.70689 4.03249 24.94123 0 0 -1 191 191 191 255 -3.70689 4.03249
-3.79311 4.03249 24.94123 0 0 -1 191 191 191 255 -3.79311 4.03249
-3.79311 3.94408 24.94123 0 0 -1 191 191 191 255 -3.79311 3.94408
-3.70689 3.94408 24.94123 0 0 -1 191 191 191 255 -3.70689 3.94408
-3.70689 2.33452 24.94123 0 0 -1 191 191 191 255 -3.70689 2.33452
-3.79311 2.33452 24.94123 0 0 -1 191 191 191 255 -3.79311 2.33452
-3.79311 2.24611 24.94123 0 0 -1 191 191 191 255 -3.79311 2.24611
-3.70689 2.24611 24.94123 0 0 -1 191 191 191 255 -3.70689 2.24611
-3.67904 4.06104 24.94123 0 1 0 191 191 191 255 -3.67904 4.06104
-3.82095 4.06104 24.94123 0 1 0 191 191 191 255 -3.82095 4.06104
-3.82095 4.06104 24.94123 -1 0 0 191 191 191 255 -3.82095 4.06104
-3.82095 3.91553 24.94123 -1 0 0 191 191 191 255 -3.82095 3.91553
-3.82095 4.06104 25 -1 0 0 191 191 191 255 -3.82095 4.06104
-3.82095 3.91553 24.94123 0 -1 0 191 191 191 255 -3.82095 3.91553
-3.67904 3.91553 24.94123 0 -1 0 191 191 191 255 -3.67904 3.91553
-3.82095 3.91553 25 0 -1 0 191 191 191 255 -3.82095 3.91553
-3.67904 3.91553 24.94123 1 0 0 191 191 191 255 -3.67904 3.91553
-3.67904 4.06104 24.94123 1 0 0 191 191 191 255 -3.67904 4.06104
-3.67904 4.06104 25 1 0 0 191 191 191 255 -3.67904 4.06104
-3.67904 3.91553 25 1 0 0 191 191 191 255 -3.67904 3.91553
-3.67904 2.36308 24.94123 0 1 0 191 191 191 255 -3.67904 2.36308
-3.82096 2.36308 24.94123 0 1 0 191 191 191 255 -3.82096 2.36308
-3.82096 2.36308 24.94123 -1 0 0 191 191 191 255 -3.82096 2.36308
-3.82096 2.21756 24.94123 -1 0 0 191 191 191 255 -3.82096 2.21756
-3.82096 2.36308 25 -1 0 0 191 191 191 255 -3.82096 2.36308
-3.82096 2.21756 24.94123 0 -1 0 191 191 191 255 -3.82096 2.21756
-3.67904 2.21756 24.94123 0 -1 0 191 191 191 255 -3.67904 2.21756
-3.82096 2.21756 25 0 -1 0 191 191 191 255 -3.82096 2.21756
-3.67904 2.21756 24.94123 1 0 0 191 191 191 255 -3.67904 2.21756
-3.67904 2.36308 24.94123 1 0 0 191 191 191 255 -3.67904 2.36308
-3.67904 2.36308 25 1 0 0 191 191 191 255 -3.67904 2.36308
-3.67904 2.21756 25 1 0 0 191 191 191 255 -3.67904 2.21756
-1.25 4 25 0 0 -1 191 191 191 255 -1.25 4
-2.5 4 25 0 0 -1 191 191 191 255 -2.5 4
-2.5 5 25 0 0 -1 191 191 191 255 -2.5 5
-1.25 5 25 0 0 -1 191 191 191 255 -1.25 5
-3.75 5 25 0 0 -1 191 191 191 255 -3.75 5
-3.75 4 25 0 0 -1 191 191 191 255 -3.75 4
-1.25 4 25 0 0 -1 191 191 191 255 -1.25 4
0 4 25 0 0 -1 191 191 191 255 0 4
-2.5 4 25 0 0 -1 191 191 191 255 -2.5 4
-1.25 4 25 0 0 -1 191 191 191 255 -1.25 4
-1.25 0 25 0 0 -1 191 191 191 255 -1.25 0
-3.75 4 25 0 0 -1 191 191 191 255 -3.75 4
-2.5 4 25 0 0 -1 191 191 191 255 -2.5 4
-2.5 0 25 0 0 -1 191 191 191 255 -2.5 0
-5 4 25 0 0 -1 191 191 191 255 -5 4
-3.75 4 25 0 0 -1 191 191 191 255 -3.75 4
-3.75 0 25 0 0 -1 191 191 191 255 -3.75 0
-15 0 15 1 0 0 191 191 191 255 -15 0
-15 0 9.999999 1 0 0 191 191 191 255 -15 0
-15 5 15 1 0 0 191 191 191 255 -15 5
-15 5 9.999999 1 0 0 191 191 191 255 -15 5
-15 0 12.5 1 0 7.629395e-07 191 191 191 255 -15 0
-15 5 12.5 1 0 0 191 191 191 255 -15 5
-15 0 13.75 1 0 0 191 191 191 255 -15 0
-15 5 13.75 1 0 0 191 191 191 255 -15 5
-15 0 11.25 1 0 0 191 191 191 255 -15 0
-15 5 11.25 1 0 0 191 191 191 255 -15 5
-15 4 15 1 0 0 191 191 191 255 -15 4
-15 4 13.75 1 0 0 191 191 191 255 -15 4
-15 4 12.5 1 0 0 191 191 191 255 -15 4
-15 4 11.25 1 0 0 191 191 191 255 -15 4
-15 4 9.999999 1 0 0 191 191 191 255 -15 4
-15 4 13.75 1 0 7.629395e-07 191 191 191 255 -15 4
-15 4 12.5 1 0 7.629395e-07 191 191 191 255 -15 4
-15 5 12.5 1 0 7.629395e-07 191 191 191 255 -15 5
-15 5 13.75 1 0 7.629395e-07 191 191 191 255 -15 5
-15 5 11.25 1 0 0 191 191 191 255 -15 5
-15 4 11.25 1 0 0 191 191 191 255 -15 4
-15 4 13.75 1 0 0 191 191 191 255 -15 4
-15 4 15 1 0 0 191 191 191 255 -15 4
-15 4 12.5 1 0 7.629395e-07 191 191 191 255 -15 4
-15 4 13.75 1 0 7.629395e-07 191 191 191 255 -15 4
-15 0 13.75 1 0 7.629395e-07 191 191 191 255 -15 0
-15 4 11.25 1 0 0 191 191 191 255 -15 4
-15 4 12.5 1 0 0 191 191 191 255 -15 4
-15 0 12.5 1 0 0 191 191 191 255 -15 0
-15 4 9.999999 1 0 0 191 191 191 255 -15 4
-15 4 11.25 1 0 0 191 191 191 255 -15 4
-15 0 11.25 1 0 0 191 191 191 255 -15 0
-15 0 20 1 0 0 191 191 191 255 -15 0
-15 0 15 1 0 0 191 191 191 255 -15 0
-15 5 20 1 0 0 191 191 191 255 -15 5
-15 5 15 1 0 0 191 191 191 255 -15 5
-15 0 17.5 1 0 7.629395e-07 191 191 191 255 -15 0
-15 5 17.5 1 0 0 191 191 191 255 -15 5
-15 0 18.75 1 0 0 191 191 191 255 -15 0
-15 5 18.75 1 0 0 191 191 191 255 -15 5
-15 0 16.25 1 0 0 191 191 191 255 -15 0
-15 5 16.25 1 0 0 191 191 191 255 -15 5
-15 4 20 1 0 0 191 191 191 255 -15 4
-15 4 18.75 1 0 0 191 191 191 255 -15 4
-15 4 17.5 1 0 0 191 191 191 255 -15 4
-15 4 16.25 1 0 0 191 191 191 255 -15 4
-15 4 15 1 0 0 191 191 191 255 -15 4
-15 4 18.75 1 0 7.629395e-07 191 191 191 255 -15 4
-15 4 17.5 1 0 7.629395e-07 191 191 191 255 -15 4
-15 5 17.5 1 0 7.629395e-07 191 191 191 255 -15 5
-15 5 18.75 1 0 7.629395e-07 191 191 191 255 -15 5
-15 5 16.25 1 0 0 191 191 191 255 -15 5
-15 4 16.25 1 0 0 191 191 191 255 -15 4
-15 4 18.75 1 0 0 191 191 191 255 -15 4
-15 4 20 1 0 0 191 191 191 255 -15 4
-15 4 17.5 1 0 7.629395e-07 191 191 191 255 -15 4
-15 4 18.75 1 0 7.629395e-07 191 191 191 255 -15 4
-15 0 18.75 1 0 7.629395e-07 191 191 191 255 -15 0
-15 4 16.25 1 0 0 191 191 191 255 -15 4
-15 4 17.5 1 0 0 191 191 191 255 -15 4
-15 0 17.5 1 0 0 191 191 191 255 -15 0
-15 4 15 1 0 0 191 191 191 255 -15 4
-15 4 16.25 1 0 0 191 191 191 255 -15 4
-15 0 16.25 1 0 0 191 191 191 255 -15 0
-15 0 25 1 0 0 191 191 191 255 -15 0
-15 0 20 1 0 0 191 191 191 255 -15 0
-15 5 25 1 0 0 191 191 191 255 -15 5
-15 5 20 1 0 0 191 191 191 255 -15 5
-15 0 22.5 1 0 7.629395e-07 191 191 191 255 -15 0
-15 5 22.5 1 0 0 191 191 191 255 -15 5
-15 0 23.75 1 0 0 191 191 191 255 -15 0
-15 5 23.75 1 0 0 191 191 191 255 -15 5
-15 0 21.25 1 0 0 191 191 191 255 -15 0
-15 5 21.25 1 0 0 191 191 191 255 -15 5
-15 4 25 1 0 0 191 191 191 255 -15 4
-15 4 23.75 1 0 0 191 191 191 255 -15 4
-15 4 22.5 1 0 0 191 191 191 255 -15 4
-15 4 21.25 1 0 0 191 191 191 255 -15 4
-15 4 20 1 0 0 191 191 191 255 -15 4
-15 4 23.75 1 0 7.629395e-07 191 191 191 255 -15 4
-15 4 22.5 1 0 7.629395e-07 191 191 191 255 -15 4
-15 5 22.5 1 0 7.629395e-07 191 191 191 255 -15 5
-15 5 23.75 1 0 7.629395e-07 191 191 191 255 -15 5
-15 5 21.25 1 0 0 191 191 191 255 -15 5
-15 4 21.25 1 0 0 191 191 191 255 -15 4
-15 4 23.75 1 0 0 191 191 191 255 -15 4
-15 4 25 1 0 0 191 191 191 255 -15 4
-15 4 22.5 1 0 7.629395e-07 191 191 191 255 -15 4
-15 4 23.75 1 0 7.629395e-07 191 191 191 255 -15 4
-15 0 23.75 1 0 7.629395e-07 191 191 191 255 -15 0
-15 4 21.25 1 0 0 191 191 191 255 -15 4
-15 4 22.5 1 0 0 191 191 191 255 -15 4
-15 0 22.5 1 0 0 191 191 191 255 -15 0
-15 4 20 1 0 0 191 191 191 255 -15 4
-15 4 21.25 1 0 0 191 191 191 255 -15 4
-15 0 21.25 1 0 0 191 191 191 255 -15 0
-10 0 10 1 0 0 191 191 191 255 -10 0
-10 0 5 1 0 0 191 191 191 255 -10 0
-10 5 10 1 0 0 191 191 191 255 -10 5
-10 5 5 1 0 0 191 191 191 255 -10 5
-10 0 7.5 1 0 7.629395e-07 191 191 191 255 -10 0
-10 5 7.5 1 0 0 191 191 191 255 -10 5
-10 0 8.75 1 0 0 191 191 191 255 -10 0
-10 5 8.75 1 0 0 191 191 191 255 -10 5
-10 0 6.25 1 0 0 191 191 191 255 -10 0
-10 5 6.25 1 0 0 191 191 191 255 -10 5
-10 4 10 1 0 0 191 191 191 255 -10 4
-10 4 8.75 1 0 0 191 191 191 255 -10 4
-10 4 7.5 1 0 0 191 191 191 255 -10 4
-10 4 6.25 1 0 0 191 191 191 255 -10 4
-10 4 5 1 0 0 191 191 191 255 -10 4
-10 4 8.75 1 0 7.629395e-07 191 191 191 255 -10 4
-10 4 7.5 1 0 7.629395e-07 191 191 191 255 -10 4
-10 5 7.5 1 0 7.629395e-07 191 191 191 255 -10 5
-10 5 8.75 1 0 7.629395e-07 191 191 191 255 -10 5
-10 5 6.25 1 0 0 191 191 191 255 -10 5
-10 4 6.25 1 0 0 191 191 191 255 -10 4
-10 4 8.75 1 0 0 191 191 191 255 -10 4
-10 4 10 1 0 0 191 191 191 255 -10 4
-10 4 7.5 1 0 7.629395e-07 191 191 191 255 -10 4
-10 4 8.75 1 0 7.629395e-07 191 191 191 255 -10 4
-10 0 8.75 1 0 7.629395e-07 191 191 191 255 -10 0
-10 4 6.25 1 0 0 191 191 191 255 -10 4
-10 4 7.5 1 0 0 191 191 191 255 -10 4
-10 0 7.5 1 0 0 191 191 191 255 -10 0
-10 4 5 1 0 0 191 191 191 255 -10 4
-10 4 6.25 1 0 0 191 191 191 255 -10 4
-10 0 6.25 1 0 0 191 191 191 255 -10 0
5 0 5 -1 0 0 191 191 191 255 5 0
5 0 10 -1 0 0 191 191 191 255 5 0
5 5 5 -1 0 0 191 191 191 255 5 5
5 5 10 -1 0 0 191 191 191 255 5 5
5 0 7.5 -1 0 0 191 191 191 255 5 0
5 5 7.5 -1 0 0 191 191 191 255 5 5
5 0 6.25 -1 0 0 191 191 191 255 5 0
5 5 6.25 -1 0 0 191 191 191 255 5 5
5 0 8.75 -1 0 0 191 191 191 255 5 0
5 5 8.75 -1 0 0 191 191 191 255 5 5
5 4 5 -1 0 0 191 191 191 255 5 4
5 4 6.25 -1 0 0 191 191 191 255 5 4
5 4 7.5 -1 0 0 191 191 191 255 5 4
5 4 8.75 -1 0 0 191 191 191 255 5 4
5 4 10 -1 0 0 191 191 191 255 5 4
5 4 6.25 -1 0 0 191 191 191 255 5 4
5 4 7.5 -1 0 0 191 191 191 255 5 4
5 5 7.5 -1 0 0 191 191 191 255 5 5
5 5 6.25 -1 0 0 191 191 191 255 5 5
5 5 8.75 -1 0 0 191 191 191 255 5 5
5 4 8.75 -1 0 0 191 191 191 255 5 4
5 4 6.25 -1 0 0 191 191 191 255 5 4
5 4 5 -1 0 0 191 191 191 255 5 4
5 4 7.5 -1 0 0 191 191 191 255 5 4
5 4 6.25 -1 0 0 191 191 191 255 5 4
5 0 6.25 -1 0 0 191 191 191 255 5 0
5 4 8.75 -1 0 0 191 191 191 255 5 4
5 4 7.5 -1 0 0 191 191 191 255 5 4
5 0 7.5 -1 0 0 191 191 191 255 5 0
5 4 10 -1 0 0 191 191 191 255 5 4
5 4 8.75 -1 0 0 191 191 191 255 5 4
5 0 8.75 -1 0 0 191 191 191 255 5 0
10 0 10 -1 0 0 191 191 191 255 10 0
10 0 15 -1 0 0 191 191 191 255 10 0
10 5 10 -1 0 0 191 191 191 255 10 5
10 5 15 -1 0 0 191 191 191 255 10 5
10 0 12.5 -1 0 0 191 191 191 255 10 0
10 5 12.5 -1 0 0 191 191 191 255 10 5
10 0 11.25 -1 0 0 191 191 191 255 10 0
10 5 11.25 -1 0 0 191 191 191 255 10 5
10 0 13.75 -1 0 0 191 191 191 255 10 0
10 5 13.75 -1 0 0 191 191 191 255 10 5
10 4 10 -1 0 0 191 191 191 255 10 4
10 4 11.25 -1 0 0 191 191 191 255 10 4
10 4 12.5 -1 0 0 191 191 191 255 10 4
10 4 13.75 -1 0 0 191 191 191 255 10 4
10 4 15 -1 0 0 191 191 191 255 10 4
10 4 11.25 -1 0 0 191 191 191 255 10 4
10 4 12.5 -1 0 0 191 191 191 255 10 4
10 5 12.5 -1 0 0 191 191 191 255 10 5
10 5 11.25 -1 0 0 191 191 191 255 10 5
10 5 13.75 -1 0 0 191 191 191 255 10 5
10 4 13.75 -1 0 0 191 191 191 255 10 4
10 4 11.25 -1 0 0 191 191 191 255 10 4
10 4 10 -1 0 0 191 191 191 255 10 4
10 4 12.5 -1 0 0 191 191 191 255 10 4
10 4 11.25 -1 0 0 191 191 191 255 10 4
10 0 11.25 -1 0 0 191 191 191 255 10 0
10 4 13.75 -1 0 0 191 191 191 255 10 4
10 4 12.5 -1 0 0 191 191 191 255 10 4
10 0 12.5 -1 0 0 191 191 191 255 10 0
10 4 15 -1 0 0 191 191 191 255 10 4
10 4 13.75 -1 0 0 191 191 191 255 10 4
10 0 13.75 -1 0 0 191 191 191 255 10 0
10 0 15 -1 0 0 191 191 191 255 10 0
10 0 20 -1 0 0 191 191 191 255 10 0
10 5 15 -1 0 0 191 191 191 255 10 5
10 5 20 -1 0 0 191 191 191 255 10 5
10 0 17.5 -1 0 0 191 191 191 255 10 0
10 5 17.5 -1 0 0 191 191 191 255 10 5
10 0 16.25 -1 0 0 191 191 191 255 10 0
10 5 16.25 -1 0 0 191 191 191 255 10 5
10 0 18.75 -1 0 0 191 191 191 255 10 0
10 5 18.75 -1 0 0 191 191 191 255 10 5
10 4 15 -1 0 0 191 191 191 255 10 4
10 4 16.25 -1 0 0 191 191 191 255 10 4
10 4 17.5 -1 0 0 191 191 191 255 10 4
10 4 18.75 -1 0 0 191 191 191 255 10 4
10 4 20 -1 0 0 191 191 191 255 10 4
10 4 16.25 -1 0 0 191 191 191 255 10 4
10 4 17.5 -1 0 0 191 191 191 255 10 4
10 5 17.5 -1 0 0 191 191 191 255 10 5
10 5 16.25 -1 0 0 191 191 191 255 10 5
10 5 18.75 -1 0 0 191 191 191 255 10 5
10 4 18.75 -1 0 0 191 191 191 255 10 4
10 4 16.25 -1 0 0 191 191 191 255 10 4
10 4 15 -1 0 0 191 191 191 255 10 4
10 4 17.5 -1 0 0 191 191 191 255 10 4
10 4 16.25 -1 0 0 191 191 191 255 10 4
10 0 16.25 -1 0 0 191 191 191 255 10 0
10 4 18.75 -1 0 0 191 191 191 255 10 4
10 4 17.5 -1 0 0 191 191 191 255 10 4
10 0 17.5 -1 0 0 191 191 191 255 10 0
10 4 20 -1 0 0 191 191 191 255 10 4
10 4 18.75 -1 0 0 191 191 191 255 10 4
10 0 18.75 -1 0 0 191 191 191 255 10 0
10 0 20 -1 0 0 191 191 191 255 10 0
10 0 25 -1 0 0 191 191 191 255 10 0
10 5 20 -1 0 0 191 191 191 255 10 5
10 5 25 -1 0 0 191 191 191 255 10 5
10 0 22.5 -1 0 0 191 191 191 255 10 0
10 5 22.5 -1 0 0 191 191 191 255 10 5
10 0 21.25 -1 0 0 191 191 191 255 10 0
10 5 21.25 -1 0 0 191 191 191 255 10 5
10 0 23.75 -1 0 0 191 191 191 255 10 0
10 5 23.75 -1 0 0 191 191 191 255 10 5
10 4 20 -1 0 0 191 191 191 255 10 4
10 4 21.25 -1 0 0 191 191 191 255 10 4
10 4 22.5 -1 0 0 191 191 191 255 10 4
10 4 23.75 -1 0 0 191 191 191 255 10 4
10 4 25 -1 0 0 191 191 191 255 10 4
10 4 21.25 -1 0 0 191 191 191 255 10 4
10 4 22.5 -1 0 0 191 191 191 255 10 4
10 5 22.5 -1 0 0 191 191 191 255 10 5
10 5 21.25 -1 0 0 191 191 191 255 10 5
10 5 23.75 -1 0 0 191 191 191 255 10 5
10 4 23.75 -1 0 0 191 191 191 255 10 4
10 4 21.25 -1 0 0 191 191 191 255 10 4
10 4 20 -1 0 0 191 191 191 255 10 4
10 4 22.5 -1 0 0 191 191 191 255 10 4
10 4 21.25 -1 0 0 191 191 191 255 10 4
10 0 21.25 -1 0 0 191 191 191 255 10 0
10 4 23.75 -1 0 0 191 191 191 255 10 4
10 4 22.5 -1 0 0 191 191 191 255 10 4
10 0 22.5 -1 0 0 191 191 191 255 10 0
10 4 25 -1 0 0 191 191 191 255 10 4
10 4 23.75 -1 0 0 191 191 191 255 10 4
10 0 23.75 -1 0 0 191 191 191 255 10 0
5 0 10 0 0 1 191 191 191 255 5 0
10 0 10 0 0 1 191 191 191 255 10 0
5 5 10 0 0 1 191 191 191 255 5 5
10 5 10 0 0 1 191 191 191 255 10 5
7.5 0 10 7.629395e-07 0 1 191 191 191 255 7.5 0
7.5 5 10 0 0 1 191 191 191 255 7.5 5
6.25 0 10 0 0 1 191 191 191 255 6.25 0
6.25 5 10 0 0 1 191 191 191 255 6.25 5
8.75 0 10 0 0 1 191 191 191 255 8.75 0
8.75 5 10 0 0 1 191 191 191 255 8.75 5
5 4 10 0 0 1 191 191 191 255 5 4
6.25 4 10 0 0 1 191 191 191 255 6.25 4
7.5 4 10 0 0 1 191 191 191 255 7.5 4
8.75 4 10 0 0 1 191 191 191 255 8.75 4
10 4 10 0 0 1 191 191 191 255 10 4
6.25 4 10 7.629395e-07 0 1 191 191 191 255 6.25 4
7.5 4 10 7.629395e-07 0 1 191 191 191 255 7.5 4
7.5 5 10 7.629395e-07 0 1 191 191 191 255 7.5 5
6.25 5 10 7.629395e-07 0 1 191 191 191 255 6.25 5
8.75 5 10 0 0 1 191 191 191 255 8.75 5
8.75 4 10 0 0 1 191 191 191 255 8.75 4
6.25 4 10 0 0 1 191 191 191 255 6.25 4
5 4 10 0 0 1 191 191 191 255 5 4
7.5 4 10 7.629395e-07 0 1 191 191 191 255 7.5 4
6.25 4 10 7.629395e-07 0 1 191 191 191 255 6.25 4
6.25 0 10 7.629395e-07 0 1 191 191 191 255 6.25 0
8.75 4 10 0 0 1 191 191 191 255 8.75 4
7.5 4 10 0 0 1 191 191 191 255 7.5 4
7.5 0 10 0 0 1 191 191 191 255 7.5 0
10 4 10 0 0 1 191 191 191 255 10 4
8.75 4 10 0 0 1 191 191 191 255 8.75 4
8.75 0 10 0 0 1 191 191 191 255 8.75 0
-15 0 10 0 0 1 191 191 191 255 -15 0
-10 0 10 0 0 1 191 191 191 255 -10 0
-15 5 10 0 0 1 191 191 191 255 -15 5
-10 5 10 0 0 1 191 191 191 255 -10 5
-12.5 0 10 0 0 1 191 191 191 255 -12.5 0
-12.5 5 10 7.629395e-07 0 1 191 191 191 255 -12.5 5
-13.75 0 10 0 0 1 191 191 191 255 -13.75 0
-13.75 5 10 0 0 1 191 191 191 255 -13.75 5
-11.25 0 10 7.629395e-07 0 1 191 191 191 255 -11.25 0
-11.25 5 10 7.629395e-07 0 1 191 191 191 255 -11.25 5
-15 4 10 0 0 1 191 191 191 255 -15 4
-13.75 4 10 0 0 1 191 191 191 255 -13.75 4
-12.5 4 10 7.629395e-07 0 1 191 191 191 255 -12.5 4
-11.25 4 10 7.629395e-07 0 1 191 191 191 255 -11.25 4
-10 4 10 0 0 1 191 191 191 255 -10 4
-13.75 4 10 0 0 1 191 191 191 255 -13.75 4
-12.5 4 10 0 0 1 191 191 191 255 -12.5 4
-12.5 5 10 0 0 1 191 191 191 255 -12.5 5
-13.75 5 10 0 0 1 191 191 191 255 -13.75 5
-11.25 5 10 0 0 1 191 191 191 255 -11.25 5
-11.25 4 10 0 0 1 191 191 191 255 -11.25 4
-13.75 4 10 0 0 1 191 191 191 255 -13.75 4
-15 4 10 0 0 1 191 191 191 255 -15 4
-12.5 4 10 0 0 1 191 191 191 255 -12.5 4
-13.75 4 10 0 0 1 191 191 191 255 -13.75 4
-13.75 0 10 0 0 1 191 191 191 255 -13.75 0
-11.25 4 10 7.629395e-07 0 1 191 191 191 255 -11.25 4
-12.5 4 10 7.629395e-07 0 1 191 191 191 255 -12.5 4
-12.5 0 10 7.629395e-07 0 1 191 191 191 255 -12.5 0
-10 4 10 0 0 1 191 191 191 255 -10 4
-11.25 4 10 0 0 1 191 191 191 255 -11.25 4
-11.25 0 10 0 0 1 191 191 191 255 -11.25 0
-10 0 25 0 0 -1 191 191 191 255 -10 0
-15 0 25 0 0 -1 191 191 191 255 -15 0
-10 5 25 0 0 -1 191 191 191 255 -10 5
-15 5 25 0 0 -1 191 191 191 255 -15 5
-12.5 0 25 0 0 -1 191 191 191 255 -12.5 0
-12.5 5 25 0 0 -1 191 191 191 255 -12.5 5
-11.25 0 25 0 0 -1 191 191 191 255 -11.25 0
-11.25 5 25 0 0 -1 191 191 191 255 -11.25 5
-13.75 0 25 0 0 -1 191 191 191 255 -13.75 0
-13.75 5 25 0 0 -1 191 191 191 255 -13.75 5
-10 4 25 0 0 -1 191 191 191 255 -10 4
-11.25 4 25 0 0 -1 191 191 191 255 -11.25 4
-12.5 4 25 0 0 -1 191 191 191 255 -12.5 4
-13.75 4 25 0 0 -1 191 191 191 255 -13.75 4
-15 4 25 0 0 -1 191 191 191 255 -15 4
-11.25 4 25 0 0 -1 191 191 191 255 -11.25 4
-12.5 4 25 0 0 -1 191 191 191 255 -12.5 4
-12.5 5 25 0 0 -1 191 191 191 255 -12.5 5
-11.25 5 25 0 0 -1 191 191 191 255 -11.25 5
-13.75 5 25 0 0 -1 191 191 191 255 -13.75 5
-13.75 4 25 0 0 -1 191 191 191 255 -13.75 4
-11.25 4 25 0 0 -1 191 191 191 255 -11.25 4
-10 4 25 0 0 -1 191 191 191 255 -10 4
-12.5 4 25 0 0 -1 191 191 191 255 -12.5 4
-11.25 4 25 0 0 -1 191 191 191 255 -11.25 4
-11.25 0 25 0 0 -1 191 191 191 255 -11.25 0
-13.75 4 25 0 0 -1 191 191 191 255 -13.75 4
-12.5 4 25 0 0 -1 191 191 191 255 -12.5 4
-12.5 0 25 0 0 -1 191 191 191 255 -12.5 0
-15 4 25 0 0 -1 191 191 191 255 -15 4
-13.75 4 25 0 0 -1 191 191 191 255 -13.75 4
-13.75 0 25 0 0 -1 191 191 191 255 -13.75 0
10 0 25 0 0 -1 191 191 191 255 10 0
5 0 25 0 0 -1 191 191 191 255 5 0
10 5 25 0 0 -1 191 191 191 255 10 5
5 5 25 0 0 -1 191 191 191 255 5 5
7.5 0 25 0 0 -1 191 191 191 255 7.5 0
7.5 5 25 0 0 -1 191 191 191 255 7.5 5
8.75 0 25 0 0 -1 191 191 191 255 8.75 0
8.75 5 25 0 0 -1 191 191 191 255 8.75 5
6.25 0 25 0 0 -1 191 191 191 255 6.25 0
6.25 5 25 0 0 -1 191 191 191 255 6.25 5
10 4 25 0 0 -1 191 191 191 255 10 4
8.75 4 25 0 0 -1 191 191 191 255 8.75 4
7.5 4 25 0 0 -1 191 191 191 255 7.5 4
6.25 4 25 0 0 -1 191 191 191 255 6.25 4
5 4 25 0 0 -1 191 191 191 255 5 4
8.75 4 25 0 0 -1 191 191 191 255 8.75 4
7.5 4 25 0 0 -1 191 191 191 255 7.5 4
7.5 5 25 0 0 -1 191 191 191 255 7.5 5
8.75 5 25 0 0 -1 191 191 191 255 8.75 5
6.25 5 25 0 0 -1 191 191 191 255 6.25 5
6.25 4 25 0 0 -1 191 191 191 255 6.25 4
8.75 4 25 0 0 -1 191 191 191 255 8.75 4
10 4 25 0 0 -1 191 191 191 255 10 4
7.5 4 25 0 0 -1 191 191 191 255 7.5 4
8.75 4 25 0 0 -1 191 191 191 255 8.75 4
8.75 0 25 0 0 -1 191 191 191 255 8.75 0
6.25 4 25 0 0 -1 191 191 191 255 6.25 4
7.5 4 25 0 0 -1 191 191 191 255 7.5 4
7.5 0 25 0 0 -1 191 191 191 255 7.5 0
5 4 25 0 0 -1 191 191 191 255 5 4
6.25 4 25 0 0 -1 191 191 191 255 6.25 4
6.25 0 25 0 0 -1 191 191 191 255 6.25 0
-5 0 25 0 0 -1 191 191 191 255 -5 0
-10 0 25 0 0 -1 191 191 191 255 -10 0
-5 5 25 0 0 -1 191 191 191 255 -5 5
-10 5 25 0 0 -1 191 191 191 255 -10 5
-7.5 0 25 0 0 -1 191 191 191 255 -7.5 0
-7.5 5 25 0 0 -1 191 191 191 255 -7.5 5
-6.25 0 25 0 0 -1 191 191 191 255 -6.25 0
-6.25 5 25 0 0 -1 191 191 191 255 -6.25 5
-8.75 0 25 0 0 -1 191 191 191 255 -8.75 0
-8.75 5 25 0 0 -1 191 191 191 255 -8.75 5
-5 4 25 0 0 -1 191 191 191 255 -5 4
-6.25 4 25 0 0 -1 191 191 191 255 -6.25 4
-7.5 4 25 0 0 -1 191 191 191 255 -7.5 4
-8.75 4 25 0 0 -1 191 191 191 255 -8.75 4
-10 4 25 0 0 -1 191 191 191 255 -10 4
-6.25 4 25 0 0 -1 191 191 191 255 -6.25 4
-7.5 4 25 0 0 -1 191 191 191 255 -7.5 4
-7.5 5 25 0 0 -1 191 191 191 255 -7.5 5
-6.25 5 25 0 0 -1 191 191 191 255 -6.25 5
-8.75 5 25 0 0 -1 191 191 191 255 -8.75 5
-8.75 4 25 0 0 -1 191 191 191 255 -8.75 4
-6.25 4 25 0 0 -1 191 191 191 255 -6.25 4
-5 4 25 0 0 -1 191 191 191 255 -5 4
-7.5 4 25 0 0 -1 191 191 191 255 -7.5 4
-6.25 4 25 0 0 -1 191 191 191 255 -6.25 4
-6.25 0 25 0 0 -1 191 191 191 255 -6.25 0
-8.75 4 25 0 0 -1 191 191 191 255 -8.75 4
-7.5 4 25 0 0 -1 191 191 191 255 -7.5 4
-7.5 0 25 0 0 -1 191 191 191 255 -7.5 0
-10 4 25 0 0 -1 191 191 191 255 -10 4
-8.75 4 25 0 0 -1 191 191 191 255 -8.75 4
-8.75 0 25 0 0 -1 191 191 191 255 -8.75 0
5 0 25 0 0 -1 191 191 191 255 5 0
0 0 25 0 0 -1 191 191 191 255 0 0
5 5 25 0 0 -1 191 191 191 255 5 5
0 5 25 0 0 -1 191 191 191 255 0 5
2.5 0 25 0 0 -1 191 191 191 255 2.5 0
2.5 5 25 0 0 -1 191 191 191 255 2.5 5
3.75 0 25 0 0 -1 191 191 191 255 3.75 0
3.75 5 25 0 0 -1 191 191 191 255 3.75 5
1.25 0 25 0 0 -1 191 191 191 255 1.25 0
1.25 5 25 0 0 -1 191 191 191 255 1.25 5
5 4 25 0 0 -1 191 191 191 255 5 4
3.75 4 25 0 0 -1 191 191 191 255 3.75 4
2.5 4 25 0 0 -1 191 191 191 255 2.5 4
1.25 4 25 0 0 -1 191 191 191 255 1.25 4
0 4 25 0 0 -1 191 191 191 255 0 4
3.75 4 25 0 0 -1 191 191 191 255 3.75 4
2.5 4 25 0 0 -1 191 191 191 255 2.5 4
2.5 5 25 0 0 -1 191 191 191 255 2.5 5
3.75 5 25 0 0 -1 191 191 191 255 3.75 5
1.25 5 25 0 0 -1 191 191 191 255 1.25 5
1.25 4 25 0 0 -1 191 191 191 255 1.25 4
3.75 4 25 0 0 -1 191 191 191 255 3.75 4
5 4 25 0 0 -1 191 191 191 255 5 4
2.5 4 25 0 0 -1 191 191 191 255 2.5 4
3.75 4 25 0 0 -1 191 191 191 255 3.75 4
3.75 0 25 0 0 -1 191 191 191 255 3.75 0
1.25 4 25 0 0 -1 191 191 191 255 1.25 4
2.5 4 25 0 0 -1 191 191 191 255 2.5 4
2.5 0 25 0 0 -1 191 191 191 255 2.5 0
0 4 25 0 0 -1 191 191 191 255 0 4
1.25 4 25 0 0 -1 191 191 191 255 1.25 4
1.25 0 25 0 0 -1 191 191 191 255 1.25 0
3 0 1 3 
3 0 3 2 
3 4 5 7 
3 4 7 6 
3 79 80 81 
3 79 81 82 
3 83 84 85 
3 83 85 86 
3 87 88 9 
3 87 9 8 
3 89 90 10 
3 89 10 91 
3 92 93 11 
3 92 11 94 
3 95 96 97 
3 95 97 98 
3 99 100 13 
3 99 13 12 
3 101 102 14 
3 101 14 103 
3 104 105 15 
3 104 15 106 
3 107 108 109 
3 107 109 110 
3 111 112 17 
3 111 17 16 
3 112 113 18 
3 112 18 17 
3 113 114 19 
3 113 19 18 
3 114 111 16 
3 114 16 19 
3 115 116 21 
3 115 21 20 
3 116 117 22 
3 116 22 21 
3 117 118 23 
3 117 23 22 
3 118 115 20 
3 118 20 23 
3 119 120 25 
3 119 25 24 
3 121 122 26 
3 121 26 123 
3 124 125 27 
3 124 27 126 
3 127 128 129 
3 127 129 130 
3 131 132 29 
3 131 29 28 
3 133 134 30 
3 133 30 135 
3 136 137 31 
3 136 31 138 
3 139 140 141 
3 139 141 142 
3 32 33 35 
3 32 35 34 
3 36 37 39 
3 36 39 38 
3 143 144 145 
3 143 145 146 
3 147 148 149 
3 147 149 150 
3 151 152 41 
3 151 41 40 
3 153 154 42 
3 153 42 155 
3 156 157 43 
3 156 43 158 
3 159 160 161 
3 159 161 162 
3 163 164 45 
3 163 45 44 
3 165 166 46 
3 165 46 167 
3 168 169 47 
3 168 47 170 
3 171 172 173 
3 171 173 174 
3 175 176 49 
3 175 49 48 
3 176 177 50 
3 176 50 49 
3 177 178 51 
3 177 51 50 
3 178 175 48 
3 178 48 51 
3 179 180 53 
3 179 53 52 
3 180 181 54 
3 180 54 53 
3 181 182 55 
3 181 55 54 
3 182 179 52 
3 182 52 55 
3 183 184 57 
3 183 57 56 
3 185 186 58 
3 185 58 187 
3 188 189 59 
3 188 59 190 
3 191 192 193 
3 191 193 194 
3 195 196 61 
3 195 61 60 
3 197 198 62 
3 197 62 199 
3 200 201 63 
3 200 63 202 
3 203 204 205 
3 203 205 206 
3 74 75 71 
3 74 71 66 
3 76 77 73 
3 76 73 69 
3 207 208 209 
3 207 209 210 
3 67 211 212 
3 67 212 78 
3 70 213 214 
3 70 214 64 
3 68 215 216 
3 68 216 217 
3 72 218 219 
3 72 219 220 
3 221 222 223 
3 221 223 65 
3 234 235 231 
3 234 231 226 
3 236 237 233 
3 236 233 229 
3 239 240 241 
3 239 241 242 
3 227 243 244 
3 227 244 238 
3 230 245 246 
3 230 246 224 
3 228 247 248 
3 228 248 249 
3 232 250 251 
3 232 251 252 
3 253 254 255 
3 253 255 225 
3 266 267 263 
3 266 263 258 
3 268 269 265 
3 268 265 261 
3 271 272 273 
3 271 273 274 
3 259 275 276 
3 259 276 270 
3 262 277 278 
3 262 278 256 
3 260 279 280 
3 260 280 281 
3 264 282 283 
3 264 283 284 
3 285 286 287 
3 285 287 257 
3 298 299 295 
3 298 295 290 
3 300 301 297 
3 300 297 293 
3 303 304 305 
3 303 305 306 
3 291 307 308 
3 291 308 302 
3 294 309 310 
3 294 310 288 
3 292 311 312 
3 292 312 313 
3 296 314 315 
3 296 315 316 
3 317 318 319 
3 317 319 289 
3 330 331 327 
3 330 327 322 
3 332 333 329 
3 332 329 325 
3 335 336 337 
3 335 337 338 
3 323 339 340 
3 323 340 334 
3 326 341 342 
3 326 342 320 
3 324 343 344 
3 324 344 345 
3 328 346 347 
3 328 347 348 
3 349 350 351 
3 349 351 321 
3 362 363 359 
3 362 359 354 
3 364 365 361 
3 364 361 357 
3 367 368 369 
3 367 369 370 
3 355 371 372 
3 355 372 366 
3 358 373 374 
3 358 374 352 
3 356 375 376 
3 356 376 377 
3 360 378 379 
3 360 379 380 
3 381 382 383 
3 381 383 353 
3 394 395 391 
3 394 391 386 
3 396 397 393 
3 396 393 389 
3 399 400 401 
3 399 401 402 
3 387 403 404 
3 387 404 398 
3 390 405 406 
3 390 406 384 
3 388 407 408 
3 388 408 409 
3 392 410 411 
3 392 411 412 
3 413 414 415 
3 413 415 385 
3 426 427 423 
3 426 423 418 
3 428 429 425 
3 428 425 421 
3 431 432 433 
3 431 433 434 
3 419 435 436 
3 419 436 430 
3 422 437 438 
3 422 438 416 
3 420 439 440 
3 420 440 441 
3 424 442 443 
3 424 443 444 
3 445 446 447 
3 445 447 417 
3 458 459 455 
3 458 455 450 
3 460 461 457 
3 460 457 453 
3 463 464 465 
3 463 465 466 
3 451 467 468 
3 451 468 462 
3 454 469 470 
3 454 470 448 
3 452 471 472 
3 452 472 473 
3 456 474 475 
3 456 475 476 
3 477 478 479 
3 477 479 449 
3 490 491 487 
3 490 487 482 
3 492 493 489 
3 492 489 485 
3 495 496 497 
3 495 497 498 
3 483 499 500 
3 483 500 494 
3 486 501 502 
3 486 502 480 
3 484 503 504 
3 484 504 505 
3 488 506 507 
3 488 507 508 
3 509 510 511 
3 509 511 481 
3 522 523 519 
3 522 519 514 
3 524 525 521 
3 524 521 517 
3 527 528 529 
3 527 529 530 
3 515 531 532 
3 515 532 526 
3 518 533 534 
3 518 534 512 
3 516 535 536 
3 516 536 537 
3 520 538 539 
3 520 539 540 
3 541 542 543 
3 541 543 513 
3 554 555 551 
3 554 551 546 
3 556 557 553 
3 556 553 549 
3 559 560 561 
3 559 561 562 
3 547 563 564 
3 547 564 558 
3 550 565 566 
3 550 566 544 
3 548 567 568 
3 548 568 569 
3 552 570 571 
3 552 571 572 
3 573 574 575 
3 573 575 545 
3 586 587 583 
3 586 583 578 
3 588 589 585 
3 588 585 581 
3 591 592 593 
3 591 593 594 
3 579 595 596 
3 579 596 590 
3 582 597 598 
3 582 598 576 
3 580 599 600 
3 580 600 601 
3 584 602 603 
3 584 603 604 
3 605 606 607 
3 605 607 577 
3 618 619 615 
3 618 615 610 
3 620 621 617 
3 620 617 613 
3 623 624 625 
3 623 625 626 
3 611 627 628 
3 611 628 622 
3 614 629 630 
3 614 630 608 
3 612 631 632 
3 612 632 633 
3 616 634 635 
3 616 635 636 
3 637 638 639 
3 637 639 609 
3 650 651 647 
3 650 647 642 
3 652 653 649 
3 652 649 645 
3 655 656 657 
3 655 657 658 
3 643 659 660 
3 643 660 654 
3 646 661 662 
3 646 662 640 
3 644 663 664 
3 644 664 665 
3 648 666 667 
3 648 667 668 
3 669 670 671 
3 669 671 641 
