ply
format ascii 1.0
comment VCGLIB generated
element vertex 261
property float x
property float y
property float z
property float nx
property float ny
property float nz
property uchar red
property uchar green
property uchar blue
property uchar alpha
property float texture_u
property float texture_v
element face 87
property list uchar int vertex_indices
end_header
-92.9789 -72.5952 7.64262 0.1194107 0.3550808 -0.9271778 192 192 192 255 -92.9789 -72.5952
-94.0253 -60.6304 12.09 0.1194105 0.3550805 -0.927178 192 192 192 255 -94.0253 -60.6304
-91.5461 -60.6518 12.4011 0.1194102 0.3550804 -0.9271781 192 192 192 255 -91.5461 -60.6518
-92.9789 -72.5952 7.64262 0.1189227 0.355152 -0.9272133 192 192 192 255 -92.9789 -72.5952
-91.5461 -60.6518 12.4011 0.1189225 0.3551531 -0.9272129 192 192 192 255 -91.5461 -60.6518
-91.6781 -72.6065 7.80513 0.1189233 0.3551537 -0.9272125 192 192 192 255 -91.6781 -72.6065
-94.0253 -60.6304 12.09 0.3554298 0.3528173 -0.8655574 192 192 192 255 -94.0253 -60.6304
-92.9789 -72.5952 7.64262 0.3554298 0.352817 -0.8655576 192 192 192 255 -92.9789 -72.5952
-94.1935 -72.5847 7.14814 0.3554309 0.3528182 -0.8655567 192 192 192 255 -94.1935 -72.5847
-94.0253 -60.6304 12.09 0.3555628 0.3527951 -0.8655118 192 192 192 255 -94.0253 -60.6304
-94.1935 -72.5847 7.14814 0.3555643 0.3527966 -0.8655106 192 192 192 255 -94.1935 -72.5847
-96.339 -60.6098 11.1479 0.355564 0.3527967 -0.8655107 192 192 192 255 -96.339 -60.6098
-96.339 -60.6098 11.1479 0.5678425 0.350505 -0.7447827 192 192 192 255 -96.339 -60.6098
-94.1935 -72.5847 7.14814 0.5678418 0.3505037 -0.7447838 192 192 192 255 -94.1935 -72.5847
-95.2386 -72.5757 6.35556 0.5678438 0.350505 -0.7447816 192 192 192 255 -95.2386 -72.5757
-96.339 -60.6098 11.1479 0.5675638 0.3505539 -0.7449719 192 192 192 255 -96.339 -60.6098
-95.2386 -72.5757 6.35556 0.5675636 0.3505543 -0.7449719 192 192 192 255 -95.2386 -72.5757
-98.3307 -60.5927 9.63854 0.5675647 0.3505543 -0.7449712 192 192 192 255 -98.3307 -60.5927
-98.3307 -60.5927 9.63854 0.7412698 0.3484478 -0.5736751 192 192 192 255 -98.3307 -60.5927
-95.2386 -72.5757 6.35556 0.7412695 0.3484479 -0.5736756 192 192 192 255 -95.2386 -72.5757
-96.0428 -72.5686 5.32073 0.7412701 0.3484473 -0.5736751 192 192 192 255 -96.0428 -72.5686
-98.3307 -60.5927 9.63854 0.7413387 0.3484322 -0.5735955 192 192 192 255 -98.3307 -60.5927
-96.0428 -72.5686 5.32073 0.7413382 0.3484326 -0.5735961 192 192 192 255 -96.0428 -72.5686
-99.8636 -60.5792 7.66556 0.7413375 0.3484325 -0.573597 192 192 192 255 -99.8636 -60.5792
-99.8636 -60.5792 7.66556 0.8647963 0.3466418 -0.3632722 192 192 192 255 -99.8636 -60.5792
-96.0428 -72.5686 5.32073 0.8647965 0.3466418 -0.3632719 192 192 192 255 -96.0428 -72.5686
-96.5521 -72.5643 4.11241 0.8647968 0.3466415 -0.3632716 192 192 192 255 -96.5521 -72.5643
-99.8636 -60.5792 7.66556 0.8647947 0.346642 -0.3632762 192 192 192 255 -99.8636 -60.5792
-96.5521 -72.5643 4.11241 0.864794 0.3466426 -0.363277 192 192 192 255 -96.5521 -72.5643
-100.834 -60.5707 5.3636 0.864795 0.3466413 -0.363276 192 192 192 255 -100.834 -60.5707
-100.834 -60.5707 5.3636 0.9297957 0.3452602 -0.1275747 192 192 192 255 -100.834 -60.5707
-96.5521 -72.5643 4.11241 0.929796 0.3452596 -0.1275742 192 192 192 255 -96.5521 -72.5643
-96.731 -72.5625 2.8134 0.9297956 0.3452607 -0.1275743 192 192 192 255 -96.731 -72.5625
-100.834 -60.5707 5.3636 0.9297708 0.3452797 -0.1277037 192 192 192 255 -100.834 -60.5707
-96.731 -72.5625 2.8134 0.9297708 0.3452795 -0.127704 192 192 192 255 -96.731 -72.5625
-101.175 -60.568 2.88816 0.9297711 0.3452789 -0.1277034 192 192 192 255 -101.175 -60.568
-91.6781 -72.6065 7.80513 -0.124407 0.3572526 -0.9256854 192 192 192 255 -91.6781 -72.6065
-91.5461 -60.6518 12.4011 -0.1244064 0.3572524 -0.9256855 192 192 192 255 -91.5461 -60.6518
-89.0711 -60.6735 12.0601 -0.1244066 0.3572517 -0.9256858 192 192 192 255 -89.0711 -60.6735
-91.6781 -72.6065 7.80513 -0.1240487 0.3571978 -0.9257547 192 192 192 255 -91.6781 -72.6065
-89.0711 -60.6735 12.0601 -0.1240489 0.3571987 -0.9257542 192 192 192 255 -89.0711 -60.6735
-90.3789 -72.6178 7.62668 -0.1240493 0.3571989 -0.9257541 192 192 192 255 -90.3789 -72.6178
-90.3789 -72.6178 7.62668 -0.3596698 0.3590478 -0.8612331 192 192 192 255 -90.3789 -72.6178
-89.0711 -60.6735 12.0601 -0.3596701 0.3590476 -0.861233 192 192 192 255 -89.0711 -60.6735
-86.7687 -60.6938 11.0901 -0.3596711 0.3590491 -0.861232 192 192 192 255 -86.7687 -60.6938
-90.3789 -72.6178 7.62668 -0.3599352 0.3590913 -0.861104 192 192 192 255 -90.3789 -72.6178
-86.7687 -60.6938 11.0901 -0.3599351 0.3590916 -0.861104 192 192 192 255 -86.7687 -60.6938
-89.1706 -72.6283 7.11724 -0.3599346 0.359091 -0.8611044 192 192 192 255 -89.1706 -72.6283
-89.1706 -72.6283 7.11724 -0.5704221 0.3604799 -0.7380195 192 192 192 255 -89.1706 -72.6283
-86.7687 -60.6938 11.0901 -0.5704189 0.3604793 -0.7380223 192 192 192 255 -86.7687 -60.6938
-84.7956 -60.7108 9.55678 -0.5704211 0.3604808 -0.7380198 192 192 192 255 -84.7956 -60.7108
-89.1706 -72.6283 7.11724 -0.5704519 0.3604851 -0.737994 192 192 192 255 -89.1706 -72.6283
-84.7956 -60.7108 9.55678 -0.5704523 0.3604865 -0.7379931 192 192 192 255 -84.7956 -60.7108
-88.1357 -72.6377 6.31269 -0.5704536 0.3604871 -0.7379916 192 192 192 255 -88.1357 -72.6377
-88.1357 -72.6377 6.31269 -0.7420743 0.3613765 -0.5645642 192 192 192 255 -88.1357 -72.6377
-84.7956 -60.7108 9.55678 -0.7420737 0.361376 -0.5645654 192 192 192 255 -84.7956 -60.7108
-83.2865 -60.7238 7.56487 -0.7420746 0.3613756 -0.5645645 192 192 192 255 -83.2865 -60.7238
-88.1357 -72.6377 6.31269 -0.7419883 0.3613539 -0.5646917 192 192 192 255 -88.1357 -72.6377
-83.2865 -60.7238 7.56487 -0.7419872 0.3613539 -0.5646931 192 192 192 255 -83.2865 -60.7238
-87.344 -72.6448 5.26789 -0.7419858 0.3613552 -0.5646941 192 192 192 255 -87.344 -72.6448
-87.344 -72.6448 5.26789 -0.8630127 0.361696 -0.3526827 192 192 192 255 -87.344 -72.6448
-83.2865 -60.7238 7.56487 -0.8630124 0.3616964 -0.352683 192 192 192 255 -83.2865 -60.7238
-82.3444 -60.7322 5.25094 -0.8630121 0.361697 -0.3526832 192 192 192 255 -82.3444 -60.7322
-87.344 -72.6448 5.26789 -0.8629909 0.3616866 -0.3527457 192 192 192 255 -87.344 -72.6448
-82.3444 -60.7322 5.25094 -0.8629906 0.3616868 -0.3527464 192 192 192 255 -82.3444 -60.7322
-86.8493 -72.6487 4.0536 -0.8629903 0.3616872 -0.3527466 192 192 192 255 -86.8493 -72.6487
-86.8493 -72.6487 4.0536 -0.9251182 0.3614196 -0.1163283 192 192 192 255 -86.8493 -72.6487
-82.3444 -60.7322 5.25094 -0.9251187 0.3614185 -0.1163279 192 192 192 255 -82.3444 -60.7322
-82.0338 -60.7352 2.77152 -0.9251185 0.3614188 -0.1163282 192 192 192 255 -82.0338 -60.7352
-86.8493 -72.6487 4.0536 -0.9251083 0.3614014 -0.116463 192 192 192 255 -86.8493 -72.6487
-82.0338 -60.7352 2.77152 -0.9251087 0.3614006 -0.1164624 192 192 192 255 -82.0338 -60.7352
-86.6861 -72.6502 2.75257 -0.9251085 0.3614009 -0.1164625 192 192 192 255 -86.6861 -72.6502
-95.9291 -72.5899 0.036875 0.00870237 0.9999622 -0.0001123963 192 192 192 255 -95.9291 -72.5899
-86.7984 -72.6692 1.47947 0.008702402 0.9999621 -0.0001123965 192 192 192 255 -86.7984 -72.6692
-87.4833 -72.6634 0.036875 0.008702445 0.9999621 -0.0001123965 192 192 192 255 -87.4833 -72.6634
-86.7984 -72.6692 1.47947 0.008587928 0.9999629 0.0006123383 192 192 192 255 -86.7984 -72.6692
-95.9291 -72.5899 0.036875 0.008587897 0.999963 0.0006123353 192 192 192 255 -95.9291 -72.5899
-96.1341 -72.5883 0.308049 0.00858789 0.9999629 0.000612335 192 192 192 255 -96.1341 -72.5883
-86.7984 -72.6692 1.47947 0.008729355 0.9999619 -0.0005148394 192 192 192 255 -86.7984 -72.6692
-96.1341 -72.5883 0.308049 0.008729363 0.9999617 -0.0005148409 192 192 192 255 -96.1341 -72.5883
-96.6348 -72.5833 1.53929 0.008729395 0.9999617 -0.0005148427 192 192 192 255 -96.6348 -72.5833
-86.7984 -72.6692 1.47947 0.008736967 0.9999616 0.0007407446 192 192 192 255 -86.7984 -72.6692
-96.6348 -72.5833 1.53929 0.008736944 0.9999616 0.0007407473 192 192 192 255 -96.6348 -72.5833
-96.7391 -72.583 2.36775 0.008736983 0.9999616 0.0007407412 192 192 192 255 -96.7391 -72.583
-86.7984 -72.6692 1.47947 0.008685197 0.9999623 0.0001612189 192 192 192 255 -86.7984 -72.6692
-96.7391 -72.583 2.36775 0.008685191 0.9999623 0.0001612182 192 192 192 255 -96.7391 -72.583
-86.6761 -72.6704 2.36775 0.008685163 0.9999623 0.0001612177 192 192 192 255 -86.6761 -72.6704
-91.7089 -72.6068 2.78248 0.008815437 0.9999611 5.500295e-06 192 192 192 255 -91.7089 -72.6068
-96.0428 -72.5686 5.32073 0.008815462 0.9999612 5.5003e-06 192 192 192 255 -96.0428 -72.5686
-95.2386 -72.5757 6.35556 0.008815486 0.9999612 5.500311e-06 192 192 192 255 -95.2386 -72.5757
-91.7089 -72.6068 2.78248 0.0086978 0.9999622 -0.0001107268 192 192 192 255 -91.7089 -72.6068
-95.2386 -72.5757 6.35556 0.008697813 0.9999622 -0.0001107266 192 192 192 255 -95.2386 -72.5757
-94.1935 -72.5847 7.14814 0.008697825 0.9999622 -0.0001107271 192 192 192 255 -94.1935 -72.5847
-96.0428 -72.5686 5.32073 0.00874023 0.9999619 -0.0001229602 192 192 192 255 -96.0428 -72.5686
-91.7089 -72.6068 2.78248 0.008740203 0.9999617 -0.00012296 192 192 192 255 -91.7089 -72.6068
-96.5521 -72.5643 4.11241 0.008740195 0.9999619 -0.0001229601 192 192 192 255 -96.5521 -72.5643
-96.5521 -72.5643 4.11241 0.008820952 0.9999611 0.0001711915 192 192 192 255 -96.5521 -72.5643
-91.7089 -72.6068 2.78248 0.008820961 0.9999611 0.0001711921 192 192 192 255 -91.7089 -72.6068
-96.731 -72.5625 2.8134 0.008821 0.9999611 0.0001711919 192 192 192 255 -96.731 -72.5625
-96.731 -72.5625 2.8134 0.008822686 0.999961 0.0004450803 192 192 192 255 -96.731 -72.5625
-91.7089 -72.6068 2.78248 0.008822659 0.999961 0.0004450793 192 192 192 255 -91.7089 -72.6068
-96.6748 -72.5628 2.36775 0.008822686 0.999961 0.0004450799 192 192 192 255 -96.6748 -72.5628
-91.7089 -72.6068 2.78248 0.00868979 0.9999622 -0.0001152651 192 192 192 255 -91.7089 -72.6068
-94.1935 -72.5847 7.14814 0.008689817 0.9999623 -0.0001152651 192 192 192 255 -94.1935 -72.5847
-92.9789 -72.5952 7.64262 0.008689843 0.9999623 -0.0001152659 192 192 192 255 -92.9789 -72.5952
-91.7089 -72.6068 2.78248 0.008700062 0.9999621 -0.0001125891 192 192 192 255 -91.7089 -72.6068
-92.9789 -72.5952 7.64262 0.00870005 0.9999622 -0.000112589 192 192 192 255 -92.9789 -72.5952
-91.6781 -72.6065 7.80513 0.008700037 0.9999621 -0.0001125887 192 192 192 255 -91.6781 -72.6065
-91.7089 -72.6068 2.78248 0.008681211 0.9999623 -0.0001124734 192 192 192 255 -91.7089 -72.6068
-91.6781 -72.6065 7.80513 0.008681201 0.9999623 -0.0001124737 192 192 192 255 -91.6781 -72.6065
-90.3789 -72.6178 7.62668 0.008681227 0.9999623 -0.0001124736 192 192 192 255 -90.3789 -72.6178
-91.7089 -72.6068 2.78248 0.008650401 0.9999626 -0.0001040227 192 192 192 255 -91.7089 -72.6068
-90.3789 -72.6178 7.62668 0.008650386 0.9999626 -0.0001040226 192 192 192 255 -90.3789 -72.6178
-89.1706 -72.6283 7.11724 0.008650421 0.9999626 -0.0001040226 192 192 192 255 -89.1706 -72.6283
-91.7089 -72.6068 2.78248 0.008891445 0.9999604 -0.0002451652 192 192 192 255 -91.7089 -72.6068
-89.1706 -72.6283 7.11724 0.008891431 0.9999604 -0.000245165 192 192 192 255 -89.1706 -72.6283
-88.1357 -72.6377 6.31269 0.008891437 0.9999604 -0.0002451645 192 192 192 255 -88.1357 -72.6377
-91.7089 -72.6068 2.78248 0.00878309 0.9999614 -0.0001354744 192 192 192 255 -91.7089 -72.6068
-88.1357 -72.6377 6.31269 0.008783093 0.9999614 -0.0001354751 192 192 192 255 -88.1357 -72.6377
-87.344 -72.6448 5.26789 0.008783041 0.9999614 -0.0001354739 192 192 192 255 -87.344 -72.6448
-91.7089 -72.6068 2.78248 0.008550503 0.9999635 0.0002730024 192 192 192 255 -91.7089 -72.6068
-87.344 -72.6448 5.26789 0.008550541 0.9999634 0.0002730022 192 192 192 255 -87.344 -72.6448
-86.8493 -72.6487 4.0536 0.008550487 0.9999634 0.0002730023 192 192 192 255 -86.8493 -72.6487
-96.6748 -72.5628 2.36775 0.008655529 0.9999595 0.00244611 192 192 192 255 -96.6748 -72.5628
-91.7089 -72.6068 2.78248 0.008655504 0.9999595 0.002446101 192 192 192 255 -91.7089 -72.6068
-86.6861 -72.6502 2.75257 0.008655514 0.9999595 0.002446103 192 192 192 255 -86.6861 -72.6502
-91.7089 -72.6068 2.78248 0.008640555 0.9999627 -7.132276e-05 192 192 192 255 -91.7089 -72.6068
-86.8493 -72.6487 4.0536 0.008640585 0.9999627 -7.132281e-05 192 192 192 255 -86.8493 -72.6487
-86.6861 -72.6502 2.75257 0.008640511 0.9999627 -7.132234e-05 192 192 192 255 -86.6861 -72.6502
-96.6748 -72.5628 2.36775 0.008766701 0.9999615 -0.0004389531 192 192 192 255 -96.6748 -72.5628
-86.6861 -72.6502 2.75257 0.008766689 0.9999616 -0.0004389539 192 192 192 255 -86.6861 -72.6502
-86.7393 -72.6499 2.36775 0.008766676 0.9999615 -0.000438952 192 192 192 255 -86.7393 -72.6499
-92.9551 -72.5953 7.53349 -0.119301 -0.3597918 0.925374 192 192 192 255 -92.9551 -72.5953
-91.5297 -60.2595 12.5135 -0.119301 -0.3597915 0.9253742 192 192 192 255 -91.5297 -60.2595
-94.0543 -60.2377 12.1965 -0.1193012 -0.3597922 0.9253739 192 192 192 255 -94.0543 -60.2377
-91.5297 -60.2595 12.5135 -0.1197081 -0.359733 0.9253444 192 192 192 255 -91.5297 -60.2595
-92.9551 -72.5953 7.53349 -0.1197081 -0.3597321 0.9253447 192 192 192 255 -92.9551 -72.5953
-91.667 -72.6072 7.6955 -0.1197084 -0.3597334 0.9253441 192 192 192 255 -91.667 -72.6072
-92.9551 -72.5953 7.53349 -0.3546265 -0.3575451 0.8639454 192 192 192 255 -92.9551 -72.5953
-94.0543 -60.2377 12.1965 -0.3546267 -0.3575445 0.8639455 192 192 192 255 -94.0543 -60.2377
-94.1587 -72.5855 7.0435 -0.3546265 -0.3575448 0.8639455 192 192 192 255 -94.1587 -72.5855
-94.1587 -72.5855 7.0435 -0.3546919 -0.3575336 0.8639233 192 192 192 255 -94.1587 -72.5855
-94.0543 -60.2377 12.1965 -0.3546928 -0.3575349 0.8639223 192 192 192 255 -94.0543 -60.2377
-96.4109 -60.2171 11.2375 -0.3546925 -0.3575342 0.8639228 192 192 192 255 -96.4109 -60.2171
-94.1587 -72.5855 7.0435 -0.566578 -0.3552777 0.7434831 192 192 192 255 -94.1587 -72.5855
-96.4109 -60.2171 11.2375 -0.5665781 -0.3552772 0.7434832 192 192 192 255 -96.4109 -60.2171
-95.1934 -72.5761 6.25949 -0.566579 -0.3552777 0.7434823 192 192 192 255 -95.1934 -72.5761
-95.1934 -72.5761 6.25949 -0.5665973 -0.3552749 0.7434697 192 192 192 255 -95.1934 -72.5761
-96.4109 -60.2171 11.2375 -0.5665973 -0.3552743 0.74347 192 192 192 255 -96.4109 -60.2171
-98.4388 -60.1994 9.7005 -0.5665963 -0.3552736 0.743471 192 192 192 255 -98.4388 -60.1994
-95.1934 -72.5761 6.25949 -0.7399725 -0.3531884 0.5724498 192 192 192 255 -95.1934 -72.5761
-98.4388 -60.1994 9.7005 -0.7399719 -0.3531887 0.5724502 192 192 192 255 -98.4388 -60.1994
-95.9904 -72.5692 5.23351 -0.7399703 -0.3531895 0.5724519 192 192 192 255 -95.9904 -72.5692
-95.9904 -72.5692 5.23351 -0.7398912 -0.3532071 0.5725433 192 192 192 255 -95.9904 -72.5692
-98.4388 -60.1994 9.7005 -0.739891 -0.3532063 0.5725441 192 192 192 255 -98.4388 -60.1994
-99.9999 -60.1858 7.6915 -0.7398891 -0.3532071 0.5725458 192 192 192 255 -99.9999 -60.1858
-95.9904 -72.5692 5.23351 -0.8630561 -0.3514511 0.3627895 192 192 192 255 -95.9904 -72.5692
-99.9999 -60.1858 7.6915 -0.8630561 -0.351451 0.3627895 192 192 192 255 -99.9999 -60.1858
-96.4949 -72.5649 4.03749 -0.8630561 -0.3514509 0.3627896 192 192 192 255 -96.4949 -72.5649
-96.4949 -72.5649 4.03749 -0.8632002 -0.3514036 0.3624925 192 192 192 255 -96.4949 -72.5649
-99.9999 -60.1858 7.6915 -0.8632006 -0.3514029 0.3624924 192 192 192 255 -99.9999 -60.1858
-100.988 -60.1776 5.3465 -0.8631995 -0.3514045 0.3624934 192 192 192 255 -100.988 -60.1776
-96.4949 -72.5649 4.03749 -0.9279941 -0.3500793 0.1275597 192 192 192 255 -96.4949 -72.5649
-100.988 -60.1776 5.3465 -0.9279938 -0.3500796 0.1275602 192 192 192 255 -100.988 -60.1776
-96.6723 -72.5636 2.7505 -0.9279944 -0.3500786 0.1275594 192 192 192 255 -96.6723 -72.5636
-96.6723 -72.5636 2.7505 -0.9279639 -0.3501023 0.127716 192 192 192 255 -96.6723 -72.5636
-100.988 -60.1776 5.3465 -0.927964 -0.3501023 0.127716 192 192 192 255 -100.988 -60.1776
-101.336 -60.1745 2.82649 -0.9279644 -0.3501012 0.1277153 192 192 192 255 -101.336 -60.1745
-91.5297 -60.2595 12.5135 0.1240071 -0.3618927 0.9239351 192 192 192 255 -91.5297 -60.2595
-91.667 -72.6072 7.6955 0.1240069 -0.3618922 0.9239352 192 192 192 255 -91.667 -72.6072
-89.0094 -60.2818 12.1665 0.1240072 -0.361893 0.9239349 192 192 192 255 -89.0094 -60.2818
-89.0094 -60.2818 12.1665 0.1240678 -0.3619018 0.9239232 192 192 192 255 -89.0094 -60.2818
-91.667 -72.6072 7.6955 0.1240678 -0.3619022 0.9239231 192 192 192 255 -91.667 -72.6072
-90.3801 -72.6179 7.5185 0.1240677 -0.3619016 0.9239234 192 192 192 255 -90.3801 -72.6179
-89.0094 -60.2818 12.1665 0.3590199 -0.3637464 0.8595309 192 192 192 255 -89.0094 -60.2818
-90.3801 -72.6179 7.5185 0.3590206 -0.3637464 0.8595305 192 192 192 255 -90.3801 -72.6179
-86.6651 -60.3026 11.1785 0.3590206 -0.363747 0.8595303 192 192 192 255 -86.6651 -60.3026
-86.6651 -60.3026 11.1785 0.3593888 -0.3638045 0.8593521 192 192 192 255 -86.6651 -60.3026
-90.3801 -72.6179 7.5185 0.3593881 -0.3638036 0.8593527 192 192 192 255 -90.3801 -72.6179
-89.1834 -72.6286 7.0135 0.3593891 -0.3638042 0.8593521 192 192 192 255 -89.1834 -72.6286
-86.6651 -60.3026 11.1785 0.5694072 -0.3651949 0.7364838 192 192 192 255 -86.6651 -60.3026
-89.1834 -72.6286 7.0135 0.5694059 -0.3651957 0.7364842 192 192 192 255 -89.1834 -72.6286
-84.656 -60.3201 9.6165 0.5694085 -0.3651959 0.7364821 192 192 192 255 -84.656 -60.3201
-84.656 -60.3201 9.6165 0.569241 -0.3651646 0.7366271 192 192 192 255 -84.656 -60.3201
-89.1834 -72.6286 7.0135 0.5692418 -0.3651644 0.7366267 192 192 192 255 -89.1834 -72.6286
-88.158 -72.6379 6.21649 0.5692406 -0.3651636 0.7366279 192 192 192 255 -88.158 -72.6379
-84.656 -60.3201 9.6165 0.7405323 -0.3660903 0.5635509 192 192 192 255 -84.656 -60.3201
-88.158 -72.6379 6.21649 0.7405322 -0.3660898 0.5635516 192 192 192 255 -88.158 -72.6379
-83.1191 -60.3331 7.5885 0.7405317 -0.3660907 0.5635515 192 192 192 255 -83.1191 -60.3331
-83.1191 -60.3331 7.5885 0.7405078 -0.3660836 0.5635877 192 192 192 255 -83.1191 -60.3331
-88.158 -72.6379 6.21649 0.7405068 -0.3660845 0.5635883 192 192 192 255 -88.158 -72.6379
-87.3736 -72.6446 5.1815 0.7405092 -0.366083 0.5635862 192 192 192 255 -87.3736 -72.6446
-83.1191 -60.3331 7.5885 0.8612718 -0.366454 0.3520262 192 192 192 255 -83.1191 -60.3331
-87.3736 -72.6446 5.1815 0.8612709 -0.3664552 0.352027 192 192 192 255 -87.3736 -72.6446
-82.1598 -60.3417 5.2325 0.8612706 -0.3664556 0.3520273 192 192 192 255 -82.1598 -60.3417
-82.1598 -60.3417 5.2325 0.8612594 -0.3664498 0.3520607 192 192 192 255 -82.1598 -60.3417
-87.3736 -72.6446 5.1815 0.8612589 -0.3664497 0.352062 192 192 192 255 -87.3736 -72.6446
-86.8835 -72.6485 3.9785 0.8612603 -0.3664483 0.35206 192 192 192 255 -86.8835 -72.6485
-82.1598 -60.3417 5.2325 0.9232528 -0.3662072 0.1161745 192 192 192 255 -82.1598 -60.3417
-86.8835 -72.6485 3.9785 0.9232525 -0.3662077 0.1161748 192 192 192 255 -86.8835 -72.6485
-81.8433 -60.3448 2.7075 0.9232519 -0.3662094 0.1161753 192 192 192 255 -81.8433 -60.3448
-81.8433 -60.3448 2.7075 0.9232513 -0.3662069 0.1161873 192 192 192 255 -81.8433 -60.3448
-86.8835 -72.6485 3.9785 0.9232517 -0.366206 0.1161868 192 192 192 255 -86.8835 -72.6485
-86.7218 -72.6498 2.6895 0.9232517 -0.366206 0.1161872 192 192 192 255 -86.7218 -72.6498
-91.697 -72.6067 2.7205 -0.008758771 -0.9999617 8.432412e-05 192 192 192 255 -91.697 -72.6067
-95.7655 -72.5713 -0.07851 -0.008758754 -0.9999616 8.432379e-05 192 192 192 255 -95.7655 -72.5713
-87.6249 -72.6426 -0.07851 -0.008758768 -0.9999617 8.432384e-05 192 192 192 255 -87.6249 -72.6426
-91.697 -72.6067 2.7205 -0.008267934 -0.9999655 0.0007984407 192 192 192 255 -91.697 -72.6067
-87.6249 -72.6426 -0.07851 -0.008267897 -0.9999654 0.0007984387 192 192 192 255 -87.6249 -72.6426
-87.4036 -72.6442 0.206494 -0.008267896 -0.9999655 0.0007984407 192 192 192 255 -87.4036 -72.6442
-95.7655 -72.5713 -0.07851 -0.009203247 -0.9999574 0.0007304559 192 192 192 255 -95.7655 -72.5713
-91.697 -72.6067 2.7205 -0.00920325 -0.9999574 0.0007304583 192 192 192 255 -91.697 -72.6067
-96.0206 -72.5687 0.258496 -0.009203232 -0.9999574 0.0007304604 192 192 192 255 -96.0206 -72.5687
-96.0206 -72.5687 0.258496 -0.008633769 -0.9999627 -0.0002696827 192 192 192 255 -96.0206 -72.5687
-91.697 -72.6067 2.7205 -0.00863377 -0.9999627 -0.0002696821 192 192 192 255 -91.697 -72.6067
-96.5106 -72.5648 1.4615 -0.008633746 -0.9999627 -0.0002696819 192 192 192 255 -96.5106 -72.5648
-96.5106 -72.5648 1.4615 -0.008663105 -0.9999625 -0.0001575618 192 192 192 255 -96.5106 -72.5648
-91.697 -72.6067 2.7205 -0.008663088 -0.9999624 -0.0001575614 192 192 192 255 -91.697 -72.6067
-96.6723 -72.5636 2.7505 -0.008663133 -0.9999625 -0.0001575616 192 192 192 255 -96.6723 -72.5636
-91.697 -72.6067 2.7205 -0.008652974 -0.9999626 0.000140827 192 192 192 255 -91.697 -72.6067
-87.4036 -72.6442 0.206494 -0.008653008 -0.9999626 0.0001408275 192 192 192 255 -87.4036 -72.6442
-86.8992 -72.6484 1.4035 -0.00865298 -0.9999626 0.0001408269 192 192 192 255 -86.8992 -72.6484
-96.6723 -72.5636 2.7505 -0.008661077 -0.9999625 0.0001801758 192 192 192 255 -96.6723 -72.5636
-91.697 -72.6067 2.7205 -0.00866106 -0.9999626 0.0001801758 192 192 192 255 -91.697 -72.6067
-96.4949 -72.5649 4.03749 -0.008661054 -0.9999625 0.0001801751 192 192 192 255 -96.4949 -72.5649
-96.4949 -72.5649 4.03749 -0.008690135 -0.9999622 7.439626e-05 192 192 192 255 -96.4949 -72.5649
-91.697 -72.6067 2.7205 -0.008690102 -0.9999623 7.439629e-05 192 192 192 255 -91.697 -72.6067
-95.9904 -72.5692 5.23351 -0.008690096 -0.9999623 7.439648e-05 192 192 192 255 -95.9904 -72.5692
-91.697 -72.6067 2.7205 -0.00866321 -0.9999624 0.0001034893 192 192 192 255 -91.697 -72.6067
-86.8992 -72.6484 1.4035 -0.008663221 -0.9999624 0.0001034893 192 192 192 255 -86.8992 -72.6484
-86.7218 -72.6498 2.6895 -0.008663184 -0.9999625 0.0001034894 192 192 192 255 -86.7218 -72.6498
-91.697 -72.6067 2.7205 -0.008664327 -0.9999624 -7.48049e-05 192 192 192 255 -91.697 -72.6067
-86.7218 -72.6498 2.6895 -0.008664276 -0.9999625 -7.480479e-05 192 192 192 255 -86.7218 -72.6498
-86.8835 -72.6485 3.9785 -0.008664322 -0.9999624 -7.480482e-05 192 192 192 255 -86.8835 -72.6485
-95.9904 -72.5692 5.23351 -0.008711513 -0.9999621 3.779876e-05 192 192 192 255 -95.9904 -72.5692
-91.697 -72.6067 2.7205 -0.008711508 -0.999962 3.779863e-05 192 192 192 255 -91.697 -72.6067
-95.1934 -72.5761 6.25949 -0.008711548 -0.9999621 3.779877e-05 192 192 192 255 -95.1934 -72.5761
-95.1934 -72.5761 6.25949 -0.008940801 -0.9999601 -0.0001887581 192 192 192 255 -95.1934 -72.5761
-91.697 -72.6067 2.7205 -0.008940828 -0.99996 -0.0001887585 192 192 192 255 -91.697 -72.6067
-94.1587 -72.5855 7.0435 -0.008940823 -0.9999601 -0.0001887584 192 192 192 255 -94.1587 -72.5855
-94.1587 -72.5855 7.0435 -0.008227327 -0.9999662 0.0002175555 192 192 192 255 -94.1587 -72.5855
-91.697 -72.6067 2.7205 -0.008227336 -0.9999661 0.0002175554 192 192 192 255 -91.697 -72.6067
-92.9551 -72.5953 7.53349 -0.00822736 -0.9999661 0.0002175551 192 192 192 255 -92.9551 -72.5953
-92.9551 -72.5953 7.53349 -0.009233719 -0.9999574 -4.553126e-05 192 192 192 255 -92.9551 -72.5953
-91.697 -72.6067 2.7205 -0.009233747 -0.9999573 -4.553121e-05 192 192 192 255 -91.697 -72.6067
-91.667 -72.6072 7.6955 -0.009233763 -0.9999574 -4.55313e-05 192 192 192 255 -91.667 -72.6072
-91.667 -72.6072 7.6955 -0.00831851 -0.9999654 -5.105094e-05 192 192 192 255 -91.667 -72.6072
-91.697 -72.6067 2.7205 -0.008318507 -0.9999654 -5.105116e-05 192 192 192 255 -91.697 -72.6067
-90.3801 -72.6179 7.5185 -0.008318481 -0.9999655 -5.1051e-05 192 192 192 255 -90.3801 -72.6179
-90.3801 -72.6179 7.5185 -0.008898703 -0.9999604 0.0001082045 192 192 192 255 -90.3801 -72.6179
-91.697 -72.6067 2.7205 -0.008898671 -0.9999604 0.000108204 192 192 192 255 -91.697 -72.6067
-89.1834 -72.6286 7.0135 -0.008898719 -0.9999604 0.0001082043 192 192 192 255 -89.1834 -72.6286
-89.1834 -72.6286 7.0135 -0.008958209 -0.9999598 0.0001430823 192 192 192 255 -89.1834 -72.6286
-91.697 -72.6067 2.7205 -0.008958224 -0.9999598 0.0001430825 192 192 192 255 -91.697 -72.6067
-88.158 -72.6379 6.21649 -0.008958256 -0.9999598 0.0001430824 192 192 192 255 -88.158 -72.6379
-91.697 -72.6067 2.7205 -0.008613703 -0.9999628 -0.0002685571 192 192 192 255 -91.697 -72.6067
-86.8835 -72.6485 3.9785 -0.008613703 -0.9999628 -0.0002685566 192 192 192 255 -86.8835 -72.6485
-87.3736 -72.6446 5.1815 -0.008613713 -0.9999628 -0.0002685572 192 192 192 255 -87.3736 -72.6446
-88.158 -72.6379 6.21649 -0.008698162 -0.9999622 -0.00012025 192 192 192 255 -88.158 -72.6379
-91.697 -72.6067 2.7205 -0.008698111 -0.9999622 -0.0001202498 192 192 192 255 -91.697 -72.6067
-87.3736 -72.6446 5.1815 -0.008698123 -0.9999622 -0.0001202494 192 192 192 255 -87.3736 -72.6446
3 0 1 2 
3 3 4 5 
3 6 7 8 
3 9 10 11 
3 12 13 14 
3 15 16 17 
3 18 19 20 
3 21 22 23 
3 24 25 26 
3 27 28 29 
3 30 31 32 
3 33 34 35 
3 36 37 38 
3 39 40 41 
3 42 43 44 
3 45 46 47 
3 48 49 50 
3 51 52 53 
3 54 55 56 
3 57 58 59 
3 60 61 62 
3 63 64 65 
3 66 67 68 
3 69 70 71 
3 72 73 74 
3 75 76 77 
3 78 79 80 
3 81 82 83 
3 84 85 86 
3 87 88 89 
3 90 91 92 
3 93 94 95 
3 96 97 98 
3 99 100 101 
3 102 103 104 
3 105 106 107 
3 108 109 110 
3 111 112 113 
3 114 115 116 
3 117 118 119 
3 120 121 122 
3 123 124 125 
3 126 127 128 
3 129 130 131 
3 132 133 134 
3 135 136 137 
3 138 139 140 
3 141 142 143 
3 144 145 146 
3 147 148 149 
3 150 151 152 
3 153 154 155 
3 156 157 158 
3 159 160 161 
3 162 163 164 
3 165 166 167 
3 168 169 170 
3 171 172 173 
3 174 175 176 
3 177 178 179 
3 180 181 182 
3 183 184 185 
3 186 187 188 
3 189 190 191 
3 192 193 194 
3 195 196 197 
3 198 199 200 
3 201 202 203 
3 204 205 206 
3 207 208 209 
3 210 211 212 
3 213 214 215 
3 216 217 218 
3 219 220 221 
3 222 223 224 
3 225 226 227 
3 228 229 230 
3 231 232 233 
3 234 235 236 
3 237 238 239 
3 240 241 242 
3 243 244 245 
3 246 247 248 
3 249 250 251 
3 252 253 254 
3 255 256 257 
3 258 259 260 
