ply
format ascii 1.0
comment VCGLIB generated
element vertex 129
property float x
property float y
property float z
property float nx
property float ny
property float nz
property uchar red
property uchar green
property uchar blue
property uchar alpha
property float texture_u
property float texture_v
element face 43
property list uchar int vertex_indices
end_header
-92.9551 -72.5953 7.53349 -0.119301 -0.359792 0.925374 192 192 192 255 -92.9551 -72.5953
-91.5297 -60.2595 12.5135 -0.119301 -0.359792 0.925374 192 192 192 255 -91.5297 -60.2595
-94.0543 -60.2377 12.1965 -0.119301 -0.359792 0.925374 192 192 192 255 -94.0543 -60.2377
-91.5297 -60.2595 12.5135 -0.119706 -0.3597329 0.9253446 192 192 192 255 -91.5297 -60.2595
-92.9551 -72.5953 7.53349 -0.119706 -0.3597329 0.9253446 192 192 192 255 -92.9551 -72.5953
-91.667 -72.6072 7.6955 -0.119706 -0.3597329 0.9253446 192 192 192 255 -91.667 -72.6072
-92.9551 -72.5953 7.53349 -0.3546281 -0.3575441 0.8639452 192 192 192 255 -92.9551 -72.5953
-94.0543 -60.2377 12.1965 -0.3546281 -0.3575441 0.8639452 192 192 192 255 -94.0543 -60.2377
-94.1587 -72.5855 7.0435 -0.3546281 -0.3575441 0.8639452 192 192 192 255 -94.1587 -72.5855
-94.1587 -72.5855 7.0435 -0.3546929 -0.3575339 0.8639227 192 192 192 255 -94.1587 -72.5855
-94.0543 -60.2377 12.1965 -0.3546929 -0.3575339 0.8639227 192 192 192 255 -94.0543 -60.2377
-96.4109 -60.2171 11.2375 -0.3546929 -0.3575339 0.8639227 192 192 192 255 -96.4109 -60.2171
-94.1587 -72.5855 7.0435 -0.5665781 -0.3552771 0.7434832 192 192 192 255 -94.1587 -72.5855
-96.4109 -60.2171 11.2375 -0.5665781 -0.3552771 0.7434832 192 192 192 255 -96.4109 -60.2171
-95.1934 -72.5761 6.25949 -0.5665781 -0.3552771 0.7434832 192 192 192 255 -95.1934 -72.5761
-95.1934 -72.5761 6.25949 -0.5665972 -0.3552741 0.7434703 192 192 192 255 -95.1934 -72.5761
-96.4109 -60.2171 11.2375 -0.5665972 -0.3552741 0.7434703 192 192 192 255 -96.4109 -60.2171
-98.4388 -60.1994 9.7005 -0.5665972 -0.3552741 0.7434703 192 192 192 255 -98.4388 -60.1994
-95.1934 -72.5761 6.25949 -0.7399707 -0.3531889 0.5724518 192 192 192 255 -95.1934 -72.5761
-98.4388 -60.1994 9.7005 -0.7399707 -0.3531889 0.5724518 192 192 192 255 -98.4388 -60.1994
-95.9904 -72.5692 5.23351 -0.7399707 -0.3531889 0.5724518 192 192 192 255 -95.9904 -72.5692
-95.9904 -72.5692 5.23351 -0.7398902 -0.3532061 0.5725452 192 192 192 255 -95.9904 -72.5692
-98.4388 -60.1994 9.7005 -0.7398902 -0.3532061 0.5725452 192 192 192 255 -98.4388 -60.1994
-99.9999 -60.1858 7.6915 -0.7398902 -0.3532061 0.5725452 192 192 192 255 -99.9999 -60.1858
-95.9904 -72.5692 5.23351 -0.8630569 -0.351451 0.362788 192 192 192 255 -95.9904 -72.5692
-99.9999 -60.1858 7.6915 -0.8630569 -0.351451 0.362788 192 192 192 255 -99.9999 -60.1858
-96.4949 -72.5649 4.03749 -0.8630569 -0.351451 0.362788 192 192 192 255 -96.4949 -72.5649
-96.4949 -72.5649 4.03749 -0.8631999 -0.351404 0.362493 192 192 192 255 -96.4949 -72.5649
-99.9999 -60.1858 7.6915 -0.8631999 -0.351404 0.362493 192 192 192 255 -99.9999 -60.1858
-100.988 -60.1776 5.3465 -0.8631999 -0.351404 0.362493 192 192 192 255 -100.988 -60.1776
-96.4949 -72.5649 4.03749 -0.9279936 -0.3500798 0.1275619 192 192 192 255 -96.4949 -72.5649
-100.988 -60.1776 5.3465 -0.9279936 -0.3500798 0.1275619 192 192 192 255 -100.988 -60.1776
-96.6723 -72.5636 2.7505 -0.9279936 -0.3500798 0.1275619 192 192 192 255 -96.6723 -72.5636
-96.6723 -72.5636 2.7505 -0.927964 -0.350102 0.127716 192 192 192 255 -96.6723 -72.5636
-100.988 -60.1776 5.3465 -0.927964 -0.350102 0.127716 192 192 192 255 -100.988 -60.1776
-101.336 -60.1745 2.82649 -0.927964 -0.350102 0.127716 192 192 192 255 -101.336 -60.1745
-91.5297 -60.2595 12.5135 0.124007 -0.361893 0.923935 192 192 192 255 -91.5297 -60.2595
-91.667 -72.6072 7.6955 0.124007 -0.361893 0.923935 192 192 192 255 -91.667 -72.6072
-89.0094 -60.2818 12.1665 0.124007 -0.361893 0.923935 192 192 192 255 -89.0094 -60.2818
-89.0094 -60.2818 12.1665 0.1240659 -0.3619018 0.9239236 192 192 192 255 -89.0094 -60.2818
-91.667 -72.6072 7.6955 0.1240659 -0.3619018 0.9239236 192 192 192 255 -91.667 -72.6072
-90.3801 -72.6179 7.5185 0.1240659 -0.3619018 0.9239236 192 192 192 255 -90.3801 -72.6179
-89.0094 -60.2818 12.1665 0.35902 -0.363746 0.859531 192 192 192 255 -89.0094 -60.2818
-90.3801 -72.6179 7.5185 0.35902 -0.363746 0.859531 192 192 192 255 -90.3801 -72.6179
-86.6651 -60.3026 11.1785 0.35902 -0.363746 0.859531 192 192 192 255 -86.6651 -60.3026
-86.6651 -60.3026 11.1785 0.3593911 -0.3638041 0.8593513 192 192 192 255 -86.6651 -60.3026
-90.3801 -72.6179 7.5185 0.3593911 -0.3638041 0.8593513 192 192 192 255 -90.3801 -72.6179
-89.1834 -72.6286 7.0135 0.3593911 -0.3638041 0.8593513 192 192 192 255 -89.1834 -72.6286
-86.6651 -60.3026 11.1785 0.5694069 -0.365195 0.7364839 192 192 192 255 -86.6651 -60.3026
-89.1834 -72.6286 7.0135 0.5694069 -0.365195 0.7364839 192 192 192 255 -89.1834 -72.6286
-84.656 -60.3201 9.6165 0.5694069 -0.365195 0.7364839 192 192 192 255 -84.656 -60.3201
-84.656 -60.3201 9.6165 0.5692412 -0.3651641 0.7366272 192 192 192 255 -84.656 -60.3201
-89.1834 -72.6286 7.0135 0.5692412 -0.3651641 0.7366272 192 192 192 255 -89.1834 -72.6286
-88.158 -72.6379 6.21649 0.5692412 -0.3651641 0.7366272 192 192 192 255 -88.158 -72.6379
-84.656 -60.3201 9.6165 0.7405328 -0.3660899 0.5635508 192 192 192 255 -84.656 -60.3201
-88.158 -72.6379 6.21649 0.7405328 -0.3660899 0.5635508 192 192 192 255 -88.158 -72.6379
-83.1191 -60.3331 7.5885 0.7405328 -0.3660899 0.5635508 192 192 192 255 -83.1191 -60.3331
-83.1191 -60.3331 7.5885 0.7405081 -0.366084 0.5635871 192 192 192 255 -83.1191 -60.3331
-88.158 -72.6379 6.21649 0.7405081 -0.366084 0.5635871 192 192 192 255 -88.158 -72.6379
-87.3736 -72.6446 5.1815 0.7405081 -0.366084 0.5635871 192 192 192 255 -87.3736 -72.6446
-83.1191 -60.3331 7.5885 0.8612713 -0.3664541 0.3520271 192 192 192 255 -83.1191 -60.3331
-87.3736 -72.6446 5.1815 0.8612713 -0.3664541 0.3520271 192 192 192 255 -87.3736 -72.6446
-82.1598 -60.3417 5.2325 0.8612713 -0.3664541 0.3520271 192 192 192 255 -82.1598 -60.3417
-82.1598 -60.3417 5.2325 0.8612589 -0.366449 0.352063 192 192 192 255 -82.1598 -60.3417
-87.3736 -72.6446 5.1815 0.8612589 -0.366449 0.352063 192 192 192 255 -87.3736 -72.6446
-86.8835 -72.6485 3.9785 0.8612589 -0.366449 0.352063 192 192 192 255 -86.8835 -72.6485
-82.1598 -60.3417 5.2325 0.9232523 -0.3662081 0.1161751 192 192 192 255 -82.1598 -60.3417
-86.8835 -72.6485 3.9785 0.9232523 -0.3662081 0.1161751 192 192 192 255 -86.8835 -72.6485
-81.8433 -60.3448 2.7075 0.9232523 -0.3662081 0.1161751 192 192 192 255 -81.8433 -60.3448
-81.8433 -60.3448 2.7075 0.9232516 -0.3662069 0.116185 192 192 192 255 -81.8433 -60.3448
-86.8835 -72.6485 3.9785 0.9232516 -0.3662069 0.116185 192 192 192 255 -86.8835 -72.6485
-86.7218 -72.6498 2.6895 0.9232516 -0.3662069 0.116185 192 192 192 255 -86.7218 -72.6498
-91.697 -72.6067 2.7205 -0.008757998 -0.9999617 8.299998e-05 192 192 192 255 -91.697 -72.6067
-95.7655 -72.5713 -0.07851 -0.008757998 -0.9999617 8.299998e-05 192 192 192 255 -95.7655 -72.5713
-87.6249 -72.6426 -0.07851 -0.008757998 -0.9999617 8.299998e-05 192 192 192 255 -87.6249 -72.6426
-91.697 -72.6067 2.7205 -0.008267004 -0.9999655 0.0007980004 192 192 192 255 -91.697 -72.6067
-87.6249 -72.6426 -0.07851 -0.008267004 -0.9999655 0.0007980004 192 192 192 255 -87.6249 -72.6426
-87.4036 -72.6442 0.206494 -0.008267004 -0.9999655 0.0007980004 192 192 192 255 -87.4036 -72.6442
-95.7655 -72.5713 -0.07851 -0.009213002 -0.9999573 0.0007450003 192 192 192 255 -95.7655 -72.5713
-91.697 -72.6067 2.7205 -0.009213002 -0.9999573 0.0007450003 192 192 192 255 -91.697 -72.6067
-96.0206 -72.5687 0.258496 -0.009213002 -0.9999573 0.0007450003 192 192 192 255 -96.0206 -72.5687
-96.0206 -72.5687 0.258496 -0.008631998 -0.9999627 -0.0002749999 192 192 192 255 -96.0206 -72.5687
-91.697 -72.6067 2.7205 -0.008631998 -0.9999627 -0.0002749999 192 192 192 255 -91.697 -72.6067
-96.5106 -72.5648 1.4615 -0.008631998 -0.9999627 -0.0002749999 192 192 192 255 -96.5106 -72.5648
-96.5106 -72.5648 1.4615 -0.008662996 -0.9999625 -0.0001579999 192 192 192 255 -96.5106 -72.5648
-91.697 -72.6067 2.7205 -0.008662996 -0.9999625 -0.0001579999 192 192 192 255 -91.697 -72.6067
-96.6723 -72.5636 2.7505 -0.008662996 -0.9999625 -0.0001579999 192 192 192 255 -96.6723 -72.5636
-91.697 -72.6067 2.7205 -0.008654997 -0.9999626 0.000135 192 192 192 255 -91.697 -72.6067
-87.4036 -72.6442 0.206494 -0.008654997 -0.9999626 0.000135 192 192 192 255 -87.4036 -72.6442
-86.8992 -72.6484 1.4035 -0.008654997 -0.9999626 0.000135 192 192 192 255 -86.8992 -72.6484
-96.6723 -72.5636 2.7505 -0.008660996 -0.9999625 0.0001859999 192 192 192 255 -96.6723 -72.5636
-91.697 -72.6067 2.7205 -0.008660996 -0.9999625 0.0001859999 192 192 192 255 -91.697 -72.6067
-96.4949 -72.5649 4.03749 -0.008660996 -0.9999625 0.0001859999 192 192 192 255 -96.4949 -72.5649
-96.4949 -72.5649 4.03749 -0.008693002 -0.9999622 6.900002e-05 192 192 192 255 -96.4949 -72.5649
-91.697 -72.6067 2.7205 -0.008693002 -0.9999622 6.900002e-05 192 192 192 255 -91.697 -72.6067
-95.9904 -72.5692 5.23351 -0.008693002 -0.9999622 6.900002e-05 192 192 192 255 -95.9904 -72.5692
-91.697 -72.6067 2.7205 -0.008661997 -0.9999625 0.0001089999 192 192 192 255 -91.697 -72.6067
-86.8992 -72.6484 1.4035 -0.008661997 -0.9999625 0.0001089999 192 192 192 255 -86.8992 -72.6484
-86.7218 -72.6498 2.6895 -0.008661997 -0.9999625 0.0001089999 192 192 192 255 -86.7218 -72.6498
-91.697 -72.6067 2.7205 -0.008663004 -0.9999625 -8.100004e-05 192 192 192 255 -91.697 -72.6067
-86.7218 -72.6498 2.6895 -0.008663004 -0.9999625 -8.100004e-05 192 192 192 255 -86.7218 -72.6498
-86.8835 -72.6485 3.9785 -0.008663004 -0.9999625 -8.100004e-05 192 192 192 255 -86.8835 -72.6485
-95.9904 -72.5692 5.23351 -0.008709001 -0.9999621 4.3e-05 192 192 192 255 -95.9904 -72.5692
-91.697 -72.6067 2.7205 -0.008709001 -0.9999621 4.3e-05 192 192 192 255 -91.697 -72.6067
-95.1934 -72.5761 6.25949 -0.008709001 -0.9999621 4.3e-05 192 192 192 255 -95.1934 -72.5761
-95.1934 -72.5761 6.25949 -0.008942 -0.99996 -0.000188 192 192 192 255 -95.1934 -72.5761
-91.697 -72.6067 2.7205 -0.008942 -0.99996 -0.000188 192 192 192 255 -91.697 -72.6067
-94.1587 -72.5855 7.0435 -0.008942 -0.99996 -0.000188 192 192 192 255 -94.1587 -72.5855
-94.1587 -72.5855 7.0435 -0.008233001 -0.9999661 0.000216 192 192 192 255 -94.1587 -72.5855
-91.697 -72.6067 2.7205 -0.008233001 -0.9999661 0.000216 192 192 192 255 -91.697 -72.6067
-92.9551 -72.5953 7.53349 -0.008233001 -0.9999661 0.000216 192 192 192 255 -92.9551 -72.5953
-92.9551 -72.5953 7.53349 -0.009227996 -0.9999575 -4.399998e-05 192 192 192 255 -92.9551 -72.5953
-91.697 -72.6067 2.7205 -0.009227996 -0.9999575 -4.399998e-05 192 192 192 255 -91.697 -72.6067
-91.667 -72.6072 7.6955 -0.009227996 -0.9999575 -4.399998e-05 192 192 192 255 -91.667 -72.6072
-91.667 -72.6072 7.6955 -0.008324003 -0.9999654 -4.900002e-05 192 192 192 255 -91.667 -72.6072
-91.697 -72.6067 2.7205 -0.008324003 -0.9999654 -4.900002e-05 192 192 192 255 -91.697 -72.6067
-90.3801 -72.6179 7.5185 -0.008324003 -0.9999654 -4.900002e-05 192 192 192 255 -90.3801 -72.6179
-90.3801 -72.6179 7.5185 -0.008893005 -0.9999605 0.0001070001 192 192 192 255 -90.3801 -72.6179
-91.697 -72.6067 2.7205 -0.008893005 -0.9999605 0.0001070001 192 192 192 255 -91.697 -72.6067
-89.1834 -72.6286 7.0135 -0.008893005 -0.9999605 0.0001070001 192 192 192 255 -89.1834 -72.6286
-89.1834 -72.6286 7.0135 -0.008957 -0.9999599 0.000144 192 192 192 255 -89.1834 -72.6286
-91.697 -72.6067 2.7205 -0.008957 -0.9999599 0.000144 192 192 192 255 -91.697 -72.6067
-88.158 -72.6379 6.21649 -0.008957 -0.9999599 0.000144 192 192 192 255 -88.158 -72.6379
-91.697 -72.6067 2.7205 -0.008614999 -0.9999629 -0.000263 192 192 192 255 -91.697 -72.6067
-86.8835 -72.6485 3.9785 -0.008614999 -0.9999629 -0.000263 192 192 192 255 -86.8835 -72.6485
-87.3736 -72.6446 5.1815 -0.008614999 -0.9999629 -0.000263 192 192 192 255 -87.3736 -72.6446
-88.158 -72.6379 6.21649 -0.008697002 -0.9999622 -0.000119 192 192 192 255 -88.158 -72.6379
-91.697 -72.6067 2.7205 -0.008697002 -0.9999622 -0.000119 192 192 192 255 -91.697 -72.6067
-87.3736 -72.6446 5.1815 -0.008697002 -0.9999622 -0.000119 192 192 192 255 -87.3736 -72.6446
3 0 1 2 
3 3 4 5 
3 6 7 8 
3 9 10 11 
3 12 13 14 
3 15 16 17 
3 18 19 20 
3 21 22 23 
3 24 25 26 
3 27 28 29 
3 30 31 32 
3 33 34 35 
3 36 37 38 
3 39 40 41 
3 42 43 44 
3 45 46 47 
3 48 49 50 
3 51 52 53 
3 54 55 56 
3 57 58 59 
3 60 61 62 
3 63 64 65 
3 66 67 68 
3 69 70 71 
3 72 73 74 
3 75 76 77 
3 78 79 80 
3 81 82 83 
3 84 85 86 
3 87 88 89 
3 90 91 92 
3 93 94 95 
3 96 97 98 
3 99 100 101 
3 102 103 104 
3 105 106 107 
3 108 109 110 
3 111 112 113 
3 114 115 116 
3 117 118 119 
3 120 121 122 
3 123 124 125 
3 126 127 128 
