ply
format ascii 1.0
comment VCGLIB generated
element vertex 132
property float x
property float y
property float z
property float nx
property float ny
property float nz
property uchar red
property uchar green
property uchar blue
property uchar alpha
property float texture_u
property float texture_v
element face 44
property list uchar int vertex_indices
end_header
-92.9789 -72.5952 7.64262 0.119396 0.3550809 -0.9271798 192 192 192 255 -92.9789 -72.5952
-94.0253 -60.6304 12.09 0.119396 0.3550809 -0.9271798 192 192 192 255 -94.0253 -60.6304
-91.5461 -60.6518 12.4011 0.119396 0.3550809 -0.9271798 192 192 192 255 -91.5461 -60.6518
-92.9789 -72.5952 7.64262 0.118939 0.3551491 -0.9272123 192 192 192 255 -92.9789 -72.5952
-91.5461 -60.6518 12.4011 0.118939 0.3551491 -0.9272123 192 192 192 255 -91.5461 -60.6518
-91.6781 -72.6065 7.80513 0.118939 0.3551491 -0.9272123 192 192 192 255 -91.6781 -72.6065
-94.0253 -60.6304 12.09 0.3554261 0.3528191 -0.8655582 192 192 192 255 -94.0253 -60.6304
-92.9789 -72.5952 7.64262 0.3554261 0.3528191 -0.8655582 192 192 192 255 -92.9789 -72.5952
-94.1935 -72.5847 7.14814 0.3554261 0.3528191 -0.8655582 192 192 192 255 -94.1935 -72.5847
-94.0253 -60.6304 12.09 0.355557 0.352798 -0.865513 192 192 192 255 -94.0253 -60.6304
-94.1935 -72.5847 7.14814 0.355557 0.352798 -0.865513 192 192 192 255 -94.1935 -72.5847
-96.339 -60.6098 11.1479 0.355557 0.352798 -0.865513 192 192 192 255 -96.339 -60.6098
-96.339 -60.6098 11.1479 0.5678391 0.3505071 -0.7447842 192 192 192 255 -96.339 -60.6098
-94.1935 -72.5847 7.14814 0.5678391 0.3505071 -0.7447842 192 192 192 255 -94.1935 -72.5847
-95.2386 -72.5757 6.35556 0.5678391 0.3505071 -0.7447842 192 192 192 255 -95.2386 -72.5757
-96.339 -60.6098 11.1479 0.5675721 0.3505551 -0.7449651 192 192 192 255 -96.339 -60.6098
-95.2386 -72.5757 6.35556 0.5675721 0.3505551 -0.7449651 192 192 192 255 -95.2386 -72.5757
-98.3307 -60.5927 9.63854 0.5675721 0.3505551 -0.7449651 192 192 192 255 -98.3307 -60.5927
-98.3307 -60.5927 9.63854 0.7412524 0.3484502 -0.5736963 192 192 192 255 -98.3307 -60.5927
-95.2386 -72.5757 6.35556 0.7412524 0.3484502 -0.5736963 192 192 192 255 -95.2386 -72.5757
-96.0428 -72.5686 5.32073 0.7412524 0.3484502 -0.5736963 192 192 192 255 -96.0428 -72.5686
-98.3307 -60.5927 9.63854 0.7413322 0.3484321 -0.5736041 192 192 192 255 -98.3307 -60.5927
-96.0428 -72.5686 5.32073 0.7413322 0.3484321 -0.5736041 192 192 192 255 -96.0428 -72.5686
-99.8636 -60.5792 7.66556 0.7413322 0.3484321 -0.5736041 192 192 192 255 -99.8636 -60.5792
-99.8636 -60.5792 7.66556 0.864819 0.346639 -0.363221 192 192 192 255 -99.8636 -60.5792
-96.0428 -72.5686 5.32073 0.864819 0.346639 -0.363221 192 192 192 255 -96.0428 -72.5686
-96.5521 -72.5643 4.11241 0.864819 0.346639 -0.363221 192 192 192 255 -96.5521 -72.5643
-99.8636 -60.5792 7.66556 0.8648314 0.3466352 -0.3631952 192 192 192 255 -99.8636 -60.5792
-96.5521 -72.5643 4.11241 0.8648314 0.3466352 -0.3631952 192 192 192 255 -96.5521 -72.5643
-100.834 -60.5707 5.3636 0.8648314 0.3466352 -0.3631952 192 192 192 255 -100.834 -60.5707
-100.834 -60.5707 5.3636 0.929795 0.34525 -0.127608 192 192 192 255 -100.834 -60.5707
-96.5521 -72.5643 4.11241 0.929795 0.34525 -0.127608 192 192 192 255 -96.5521 -72.5643
-96.731 -72.5625 2.8134 0.929795 0.34525 -0.127608 192 192 192 255 -96.731 -72.5625
-100.834 -60.5707 5.3636 0.9297794 0.3452621 -0.127689 192 192 192 255 -100.834 -60.5707
-96.731 -72.5625 2.8134 0.9297794 0.3452621 -0.127689 192 192 192 255 -96.731 -72.5625
-101.175 -60.568 2.88816 0.9297794 0.3452621 -0.127689 192 192 192 255 -101.175 -60.568
-91.6781 -72.6065 7.80513 -0.124389 0.35725 -0.9256889 192 192 192 255 -91.6781 -72.6065
-91.5461 -60.6518 12.4011 -0.124389 0.35725 -0.9256889 192 192 192 255 -91.5461 -60.6518
-89.0711 -60.6735 12.0601 -0.124389 0.35725 -0.9256889 192 192 192 255 -89.0711 -60.6735
-91.6781 -72.6065 7.80513 -0.124066 0.3572019 -0.9257507 192 192 192 255 -91.6781 -72.6065
-89.0711 -60.6735 12.0601 -0.124066 0.3572019 -0.9257507 192 192 192 255 -89.0711 -60.6735
-90.3789 -72.6178 7.62668 -0.124066 0.3572019 -0.9257507 192 192 192 255 -90.3789 -72.6178
-90.3789 -72.6178 7.62668 -0.359682 0.35905 -0.861227 192 192 192 255 -90.3789 -72.6178
-89.0711 -60.6735 12.0601 -0.359682 0.35905 -0.861227 192 192 192 255 -89.0711 -60.6735
-86.7687 -60.6938 11.0901 -0.359682 0.35905 -0.861227 192 192 192 255 -86.7687 -60.6938
-90.3789 -72.6178 7.62668 -0.359948 0.359093 -0.861098 192 192 192 255 -90.3789 -72.6178
-86.7687 -60.6938 11.0901 -0.359948 0.359093 -0.861098 192 192 192 255 -86.7687 -60.6938
-89.1706 -72.6283 7.11724 -0.359948 0.359093 -0.861098 192 192 192 255 -89.1706 -72.6283
-89.1706 -72.6283 7.11724 -0.570419 0.360482 -0.738021 192 192 192 255 -89.1706 -72.6283
-86.7687 -60.6938 11.0901 -0.570419 0.360482 -0.738021 192 192 192 255 -86.7687 -60.6938
-84.7956 -60.7108 9.55678 -0.570419 0.360482 -0.738021 192 192 192 255 -84.7956 -60.7108
-89.1706 -72.6283 7.11724 -0.5704238 0.3604829 -0.7380168 192 192 192 255 -89.1706 -72.6283
-84.7956 -60.7108 9.55678 -0.5704238 0.3604829 -0.7380168 192 192 192 255 -84.7956 -60.7108
-88.1357 -72.6377 6.31269 -0.5704238 0.3604829 -0.7380168 192 192 192 255 -88.1357 -72.6377
-88.1357 -72.6377 6.31269 -0.742081 0.361374 -0.564557 192 192 192 255 -88.1357 -72.6377
-84.7956 -60.7108 9.55678 -0.742081 0.361374 -0.564557 192 192 192 255 -84.7956 -60.7108
-83.2865 -60.7238 7.56487 -0.742081 0.361374 -0.564557 192 192 192 255 -83.2865 -60.7238
-88.1357 -72.6377 6.31269 -0.7419969 0.361353 -0.5646809 192 192 192 255 -88.1357 -72.6377
-83.2865 -60.7238 7.56487 -0.7419969 0.361353 -0.5646809 192 192 192 255 -83.2865 -60.7238
-87.344 -72.6448 5.26789 -0.7419969 0.361353 -0.5646809 192 192 192 255 -87.344 -72.6448
-87.344 -72.6448 5.26789 -0.8630061 0.361695 -0.3527 192 192 192 255 -87.344 -72.6448
-83.2865 -60.7238 7.56487 -0.8630061 0.361695 -0.3527 192 192 192 255 -83.2865 -60.7238
-82.3444 -60.7322 5.25094 -0.8630061 0.361695 -0.3527 192 192 192 255 -82.3444 -60.7322
-87.344 -72.6448 5.26789 -0.8629945 0.3616902 -0.3527332 192 192 192 255 -87.344 -72.6448
-82.3444 -60.7322 5.25094 -0.8629945 0.3616902 -0.3527332 192 192 192 255 -82.3444 -60.7322
-86.8493 -72.6487 4.0536 -0.8629945 0.3616902 -0.3527332 192 192 192 255 -86.8493 -72.6487
-86.8493 -72.6487 4.0536 -0.925115 0.361423 -0.116343 192 192 192 255 -86.8493 -72.6487
-82.3444 -60.7322 5.25094 -0.925115 0.361423 -0.116343 192 192 192 255 -82.3444 -60.7322
-82.0338 -60.7352 2.77152 -0.925115 0.361423 -0.116343 192 192 192 255 -82.0338 -60.7352
-86.8493 -72.6487 4.0536 -0.925106 0.361406 -0.116467 192 192 192 255 -86.8493 -72.6487
-82.0338 -60.7352 2.77152 -0.925106 0.361406 -0.116467 192 192 192 255 -82.0338 -60.7352
-86.6861 -72.6502 2.75257 -0.925106 0.361406 -0.116467 192 192 192 255 -86.6861 -72.6502
-95.9291 -72.5899 0.036875 0.008699002 0.9999622 -5.300001e-05 192 192 192 255 -95.9291 -72.5899
-86.7984 -72.6692 1.47947 0.008699002 0.9999622 -5.300001e-05 192 192 192 255 -86.7984 -72.6692
-87.4833 -72.6634 0.036875 0.008699002 0.9999622 -5.300001e-05 192 192 192 255 -87.4833 -72.6634
-86.7984 -72.6692 1.47947 0.008596999 0.9999629 0.0005929999 192 192 192 255 -86.7984 -72.6692
-95.9291 -72.5899 0.036875 0.008596999 0.9999629 0.0005929999 192 192 192 255 -95.9291 -72.5899
-96.1341 -72.5883 0.308049 0.008596999 0.9999629 0.0005929999 192 192 192 255 -96.1341 -72.5883
-86.7984 -72.6692 1.47947 0.008732998 0.9999617 -0.0004949999 192 192 192 255 -86.7984 -72.6692
-96.1341 -72.5883 0.308049 0.008732998 0.9999617 -0.0004949999 192 192 192 255 -96.1341 -72.5883
-96.6348 -72.5833 1.53929 0.008732998 0.9999617 -0.0004949999 192 192 192 255 -96.6348 -72.5833
-86.7984 -72.6692 1.47947 0.008741004 0.9999616 0.0007320004 192 192 192 255 -86.7984 -72.6692
-96.6348 -72.5833 1.53929 0.008741004 0.9999616 0.0007320004 192 192 192 255 -96.6348 -72.5833
-96.7391 -72.583 2.36775 0.008741004 0.9999616 0.0007320004 192 192 192 255 -96.7391 -72.583
-86.7984 -72.6692 1.47947 0.008688003 0.9999623 0.000143 192 192 192 255 -86.7984 -72.6692
-96.7391 -72.583 2.36775 0.008688003 0.9999623 0.000143 192 192 192 255 -96.7391 -72.583
-86.6761 -72.6704 2.36775 0.008688003 0.9999623 0.000143 192 192 192 255 -86.6761 -72.6704
-91.7089 -72.6068 2.78248 0.008808002 0.9999612 -4.000001e-06 192 192 192 255 -91.7089 -72.6068
-96.0428 -72.5686 5.32073 0.008808002 0.9999612 -4.000001e-06 192 192 192 255 -96.0428 -72.5686
-95.2386 -72.5757 6.35556 0.008808002 0.9999612 -4.000001e-06 192 192 192 255 -95.2386 -72.5757
-91.7089 -72.6068 2.78248 0.008682003 0.9999623 -0.000128 192 192 192 255 -91.7089 -72.6068
-95.2386 -72.5757 6.35556 0.008682003 0.9999623 -0.000128 192 192 192 255 -95.2386 -72.5757
-94.1935 -72.5847 7.14814 0.008682003 0.9999623 -0.000128 192 192 192 255 -94.1935 -72.5847
-96.0428 -72.5686 5.32073 0.008772004 0.9999616 -6.600004e-05 192 192 192 255 -96.0428 -72.5686
-91.7089 -72.6068 2.78248 0.008772004 0.9999616 -6.600004e-05 192 192 192 255 -91.7089 -72.6068
-96.5521 -72.5643 4.11241 0.008772004 0.9999616 -6.600004e-05 192 192 192 255 -96.5521 -72.5643
-96.5521 -72.5643 4.11241 0.008835 0.999961 0.000163 192 192 192 255 -96.5521 -72.5643
-91.7089 -72.6068 2.78248 0.008835 0.999961 0.000163 192 192 192 255 -91.7089 -72.6068
-96.731 -72.5625 2.8134 0.008835 0.999961 0.000163 192 192 192 255 -96.731 -72.5625
-96.731 -72.5625 2.8134 0.008835999 0.9999609 0.0004299999 192 192 192 255 -96.731 -72.5625
-91.7089 -72.6068 2.78248 0.008835999 0.9999609 0.0004299999 192 192 192 255 -91.7089 -72.6068
-96.6748 -72.5628 2.36775 0.008835999 0.9999609 0.0004299999 192 192 192 255 -96.6748 -72.5628
-91.7089 -72.6068 2.78248 0.008677004 0.9999624 -0.0001310001 192 192 192 255 -91.7089 -72.6068
-94.1935 -72.5847 7.14814 0.008677004 0.9999624 -0.0001310001 192 192 192 255 -94.1935 -72.5847
-92.9789 -72.5952 7.64262 0.008677004 0.9999624 -0.0001310001 192 192 192 255 -92.9789 -72.5952
-91.7089 -72.6068 2.78248 0.008746998 0.9999617 -0.000113 192 192 192 255 -91.7089 -72.6068
-92.9789 -72.5952 7.64262 0.008746998 0.9999617 -0.000113 192 192 192 255 -92.9789 -72.5952
-91.6781 -72.6065 7.80513 0.008746998 0.9999617 -0.000113 192 192 192 255 -91.6781 -72.6065
-91.7089 -72.6068 2.78248 0.008657997 0.9999625 -0.000112 192 192 192 255 -91.7089 -72.6068
-91.6781 -72.6065 7.80513 0.008657997 0.9999625 -0.000112 192 192 192 255 -91.6781 -72.6065
-90.3789 -72.6178 7.62668 0.008657997 0.9999625 -0.000112 192 192 192 255 -90.3789 -72.6178
-91.7089 -72.6068 2.78248 0.008614 0.999963 -0.0001 192 192 192 255 -91.7089 -72.6068
-90.3789 -72.6178 7.62668 0.008614 0.999963 -0.0001 192 192 192 255 -90.3789 -72.6178
-89.1706 -72.6283 7.11724 0.008614 0.999963 -0.0001 192 192 192 255 -89.1706 -72.6283
-91.7089 -72.6068 2.78248 0.008933001 0.9999601 -0.000287 192 192 192 255 -91.7089 -72.6068
-89.1706 -72.6283 7.11724 0.008933001 0.9999601 -0.000287 192 192 192 255 -89.1706 -72.6283
-88.1357 -72.6377 6.31269 0.008933001 0.9999601 -0.000287 192 192 192 255 -88.1357 -72.6377
-91.7089 -72.6068 2.78248 0.008775004 0.9999615 -0.0001270001 192 192 192 255 -91.7089 -72.6068
-88.1357 -72.6377 6.31269 0.008775004 0.9999615 -0.0001270001 192 192 192 255 -88.1357 -72.6377
-87.344 -72.6448 5.26789 0.008775004 0.9999615 -0.0001270001 192 192 192 255 -87.344 -72.6448
-91.7089 -72.6068 2.78248 0.008542005 0.9999635 0.0002820001 192 192 192 255 -91.7089 -72.6068
-87.344 -72.6448 5.26789 0.008542005 0.9999635 0.0002820001 192 192 192 255 -87.344 -72.6448
-86.8493 -72.6487 4.0536 0.008542005 0.9999635 0.0002820001 192 192 192 255 -86.8493 -72.6487
-96.6748 -72.5628 2.36775 0.008651001 0.9999591 0.00265 192 192 192 255 -96.6748 -72.5628
-91.7089 -72.6068 2.78248 0.008651001 0.9999591 0.00265 192 192 192 255 -91.7089 -72.6068
-86.6861 -72.6502 2.75257 0.008651001 0.9999591 0.00265 192 192 192 255 -86.6861 -72.6502
-91.7089 -72.6068 2.78248 0.008634998 0.9999627 -7.199999e-05 192 192 192 255 -91.7089 -72.6068
-86.8493 -72.6487 4.0536 0.008634998 0.9999627 -7.199999e-05 192 192 192 255 -86.8493 -72.6487
-86.6861 -72.6502 2.75257 0.008634998 0.9999627 -7.199999e-05 192 192 192 255 -86.6861 -72.6502
-96.6748 -72.5628 2.36775 0.008769004 0.9999615 -0.0004180002 192 192 192 255 -96.6748 -72.5628
-86.6861 -72.6502 2.75257 0.008769004 0.9999615 -0.0004180002 192 192 192 255 -86.6861 -72.6502
-86.7393 -72.6499 2.36775 0.008769004 0.9999615 -0.0004180002 192 192 192 255 -86.7393 -72.6499
3 0 1 2 
3 3 4 5 
3 6 7 8 
3 9 10 11 
3 12 13 14 
3 15 16 17 
3 18 19 20 
3 21 22 23 
3 24 25 26 
3 27 28 29 
3 30 31 32 
3 33 34 35 
3 36 37 38 
3 39 40 41 
3 42 43 44 
3 45 46 47 
3 48 49 50 
3 51 52 53 
3 54 55 56 
3 57 58 59 
3 60 61 62 
3 63 64 65 
3 66 67 68 
3 69 70 71 
3 72 73 74 
3 75 76 77 
3 78 79 80 
3 81 82 83 
3 84 85 86 
3 87 88 89 
3 90 91 92 
3 93 94 95 
3 96 97 98 
3 99 100 101 
3 102 103 104 
3 105 106 107 
3 108 109 110 
3 111 112 113 
3 114 115 116 
3 117 118 119 
3 120 121 122 
3 123 124 125 
3 126 127 128 
3 129 130 131 
