ply
format ascii 1.0
comment VCGLIB generated
element vertex 68
property float x
property float y
property float z
property float nx
property float ny
property float nz
property uchar red
property uchar green
property uchar blue
property uchar alpha
property float texture_u
property float texture_v
element face 24
property list uchar int vertex_indices
end_header
-65.2485 102.889 -7.1165 -0.5752336 0.8179892 0 192 192 192 255 -65.2485 102.889
-65.2485 102.889 1.04551 -0.5752349 0.8179882 0 192 192 192 255 -65.2485 102.889
-50.8293 113.029 1.04551 -0.5752329 0.8179897 0 192 192 192 255 -50.8293 113.029
5.03452 127.287 1.06051 -0.120229 0.9927461 0 192 192 192 255 5.03452 127.287
5.03452 127.287 -7.11649 -0.1202296 0.9927461 0 192 192 192 255 5.03452 127.287
-23.8488 123.789 -7.1165 -0.1202296 0.9927462 0 192 192 192 255 -23.8488 123.789
5.03452 127.287 1.06051 -0.1202291 0.9927462 0 192 192 192 255 5.03452 127.287
-23.8488 123.789 -7.1165 -0.120229 0.9927461 0 192 192 192 255 -23.8488 123.789
-23.8488 123.789 1.04551 -0.1202298 0.9927461 0 192 192 192 255 -23.8488 123.789
5.03452 127.287 -7.11649 0.1375576 0.9904937 0 192 192 192 255 5.03452 127.287
5.03452 127.287 1.06051 0.1375585 0.9904937 0 192 192 192 255 5.03452 127.287
33.8511 123.285 1.04551 0.137558 0.9904937 0 192 192 192 255 33.8511 123.285
5.03452 127.287 -7.11649 0.1375579 0.9904938 1.670724e-06 192 192 192 255 5.03452 127.287
33.8511 123.285 1.04551 0.137558 0.9904937 1.670718e-06 192 192 192 255 33.8511 123.285
33.8512 123.285 -7.1165 0.1375576 0.9904937 1.670722e-06 192 192 192 255 33.8512 123.285
33.8512 123.285 -7.1165 0.3865888 0.9222521 4.697699e-06 192 192 192 255 33.8512 123.285
33.8511 123.285 1.04551 0.3865877 0.9222527 4.697685e-06 192 192 192 255 33.8511 123.285
60.6393 112.056 1.04551 0.3865884 0.9222524 4.697687e-06 192 192 192 255 60.6393 112.056
33.8512 123.285 -7.1165 0.3865884 0.9222524 0 192 192 192 255 33.8512 123.285
60.6393 112.056 1.04551 0.3865896 0.9222519 0 192 192 192 255 60.6393 112.056
60.6393 112.056 -7.1165 0.3865887 0.9222522 0 192 192 192 255 60.6393 112.056
-23.8488 123.789 1.04551 -0.3704344 0.9288586 0 192 192 192 255 -23.8488 123.789
-23.8488 123.789 -7.1165 -0.3704344 0.9288586 0 192 192 192 255 -23.8488 123.789
-50.8293 113.029 -7.1165 -0.3704344 0.9288586 0 192 192 192 255 -50.8293 113.029
-50.8293 113.029 1.04551 -0.3704344 0.9288586 0 192 192 192 255 -50.8293 113.029
60.6393 112.056 -7.1165 0.5893204 0.8078995 0 192 192 192 255 60.6393 112.056
60.6393 112.056 1.04551 0.5893189 0.8079005 0 192 192 192 255 60.6393 112.056
74.8199 101.712 1.0455 0.5893199 0.8078998 0 192 192 192 255 74.8199 101.712
60.6393 112.056 -7.1165 0.5893211 0.8078989 0 192 192 192 255 60.6393 112.056
74.8199 101.712 1.0455 0.5893204 0.8078995 0 192 192 192 255 74.8199 101.712
74.8199 101.712 -7.1165 0.5893189 0.8079005 0 192 192 192 255 74.8199 101.712
-50.8293 113.029 1.04551 -0.5752336 0.8179892 0 192 192 192 255 -50.8293 113.029
-50.8293 113.029 -7.1165 -0.5752349 0.8179882 0 192 192 192 255 -50.8293 113.029
-65.2485 102.889 -7.1165 -0.5752329 0.8179897 0 192 192 192 255 -65.2485 102.889
-65.2485 102.889 -7.1165 0.5752336 -0.8179892 0 192 192 192 255 -65.2485 102.889
-65.2485 102.889 1.04551 0.5752349 -0.8179882 0 192 192 192 255 -65.2485 102.889
-50.8293 113.029 1.04551 0.5752329 -0.8179897 0 192 192 192 255 -50.8293 113.029
5.03452 127.287 1.06051 0.120229 -0.9927461 0 192 192 192 255 5.03452 127.287
5.03452 127.287 -7.11649 0.1202296 -0.9927461 0 192 192 192 255 5.03452 127.287
-23.8488 123.789 -7.1165 0.1202296 -0.9927462 0 192 192 192 255 -23.8488 123.789
5.03452 127.287 1.06051 0.1202291 -0.9927462 0 192 192 192 255 5.03452 127.287
-23.8488 123.789 -7.1165 0.120229 -0.9927461 0 192 192 192 255 -23.8488 123.789
-23.8488 123.789 1.04551 0.1202298 -0.9927461 0 192 192 192 255 -23.8488 123.789
5.03452 127.287 -7.11649 -0.1375576 -0.9904937 0 192 192 192 255 5.03452 127.287
5.03452 127.287 1.06051 -0.1375585 -0.9904937 0 192 192 192 255 5.03452 127.287
33.8511 123.285 1.04551 -0.137558 -0.9904937 0 192 192 192 255 33.8511 123.285
5.03452 127.287 -7.11649 -0.1375579 -0.9904938 -1.671558e-06 192 192 192 255 5.03452 127.287
33.8511 123.285 1.04551 -0.1375573 -0.9904938 -1.671558e-06 192 192 192 255 33.8511 123.285
33.8512 123.285 -7.1165 -0.1375576 -0.9904937 -1.671556e-06 192 192 192 255 33.8512 123.285
33.8512 123.285 -7.1165 -0.3865888 -0.9222521 -4.697699e-06 192 192 192 255 33.8512 123.285
33.8511 123.285 1.04551 -0.3865877 -0.9222527 -4.697685e-06 192 192 192 255 33.8511 123.285
60.6393 112.056 1.04551 -0.3865884 -0.9222524 -4.697687e-06 192 192 192 255 60.6393 112.056
33.8512 123.285 -7.1165 -0.3865884 -0.9222524 0 192 192 192 255 33.8512 123.285
60.6393 112.056 1.04551 -0.3865896 -0.9222519 0 192 192 192 255 60.6393 112.056
60.6393 112.056 -7.1165 -0.3865887 -0.9222522 0 192 192 192 255 60.6393 112.056
-23.8488 123.789 1.04551 0.3704344 -0.9288586 0 192 192 192 255 -23.8488 123.789
-23.8488 123.789 -7.1165 0.3704344 -0.9288586 0 192 192 192 255 -23.8488 123.789
-50.8293 113.029 -7.1165 0.3704344 -0.9288586 0 192 192 192 255 -50.8293 113.029
-50.8293 113.029 1.04551 0.3704344 -0.9288586 0 192 192 192 255 -50.8293 113.029
60.6393 112.056 -7.1165 -0.5893204 -0.8078995 0 192 192 192 255 60.6393 112.056
60.6393 112.056 1.04551 -0.5893189 -0.8079005 0 192 192 192 255 60.6393 112.056
74.8199 101.712 1.0455 -0.5893199 -0.8078998 0 192 192 192 255 74.8199 101.712
60.6393 112.056 -7.1165 -0.5893211 -0.8078989 0 192 192 192 255 60.6393 112.056
74.8199 101.712 1.0455 -0.5893204 -0.8078995 0 192 192 192 255 74.8199 101.712
74.8199 101.712 -7.1165 -0.5893189 -0.8079005 0 192 192 192 255 74.8199 101.712
-50.8293 113.029 1.04551 0.5752336 -0.8179892 0 192 192 192 255 -50.8293 113.029
-50.8293 113.029 -7.1165 0.5752349 -0.8179882 0 192 192 192 255 -50.8293 113.029
-65.2485 102.889 -7.1165 0.5752329 -0.8179897 0 192 192 192 255 -65.2485 102.889
3 0 1 2 
3 3 4 5 
3 6 7 8 
3 9 10 11 
3 12 13 14 
3 15 16 17 
3 18 19 20 
3 21 22 23 
3 21 23 24 
3 25 26 27 
3 28 29 30 
3 31 32 33 
3 35 34 36 
3 38 37 39 
3 41 40 42 
3 44 43 45 
3 47 46 48 
3 50 49 51 
3 53 52 54 
3 56 55 57 
3 57 55 58 
3 60 59 61 
3 63 62 64 
3 66 65 67 
