ply
format ascii 1.0
comment VCGLIB generated
element vertex 24
property float x
property float y
property float z
property float nx
property float ny
property float nz
property uchar red
property uchar green
property uchar blue
property uchar alpha
property float texture_u
property float texture_v
element face 12
property list uchar int vertex_indices
end_header
-3.997139 0.119919 -0.003805839 -8.742278e-08 0 -1 255 255 0 255 0.9963543 0.9963543
0.002861274 0.119919 -0.003806189 -8.742278e-08 0 -1 255 255 0 255 0.5036457 0.9963543
0.002861274 -0.06998702 -0.003806189 -8.742278e-08 0 -1 255 255 0 255 0.5036457 0.9729623
-3.997139 -0.06998702 -0.003805839 -8.742278e-08 0 -1 255 255 0 255 0.9963543 0.9729623
-3.997138 0.119919 3.996194 0 1 0 255 255 0 255 0.4963544 0.9963543
0.002861625 0.119919 3.996194 0 1 0 255 255 0 255 0.003645634 0.9963543
0.002861274 0.119919 -0.003806189 0 1 0 255 255 0 255 0.003645634 0.5036457
-3.997139 0.119919 -0.003805839 0 1 0 255 255 0 255 0.4963544 0.5036457
-3.997138 -0.06998702 3.996194 8.742278e-08 0 1 255 255 0 255 0.5036457 0.9422789
0.002861625 -0.06998702 3.996194 8.742278e-08 0 1 255 255 0 255 0.9963543 0.9422789
0.002861625 0.119919 3.996194 8.742278e-08 0 1 255 255 0 255 0.9963543 0.965671
-3.997138 0.119919 3.996194 8.742278e-08 0 1 255 255 0 255 0.5036457 0.965671
-3.997139 -0.06998702 -0.003805839 0 -1 0 255 255 0 255 0.4963544 0.4963543
0.002861274 -0.06998702 -0.003806189 0 -1 0 255 255 0 255 0.003645634 0.4963543
0.002861625 -0.06998702 3.996194 0 -1 0 255 255 0 255 0.003645634 0.003645658
-3.997138 -0.06998702 3.996194 0 -1 0 255 255 0 255 0.4963544 0.003645658
0.002861274 0.119919 -0.003806189 1 0 -8.742278e-08 255 255 0 255 0.9963543 0.9349877
0.002861625 0.119919 3.996194 1 0 -8.742278e-08 255 255 0 255 0.5036457 0.9349877
0.002861625 -0.06998702 3.996194 1 0 -8.742278e-08 255 255 0 255 0.5036457 0.9115956
0.002861274 -0.06998702 -0.003806189 1 0 -8.742278e-08 255 255 0 255 0.9963543 0.9115956
-3.997138 0.119919 3.996194 -1 0 8.742278e-08 255 255 0 255 0.9963543 0.9043043
-3.997139 0.119919 -0.003805839 -1 0 8.742278e-08 255 255 0 255 0.5036457 0.9043043
-3.997139 -0.06998702 -0.003805839 -1 0 8.742278e-08 255 255 0 255 0.5036457 0.8809122
-3.997138 -0.06998702 3.996194 -1 0 8.742278e-08 255 255 0 255 0.9963543 0.8809122
3 0 1 2 
3 0 2 3 
3 4 5 6 
3 4 6 7 
3 8 9 10 
3 8 10 11 
3 12 13 14 
3 12 14 15 
3 16 17 18 
3 16 18 19 
3 20 21 22 
3 20 22 23 
