ply
format ascii 1.0
comment VCGLIB generated
element vertex 4
property float x
property float y
property float z
property float nx
property float ny
property float nz
property uchar red
property uchar green
property uchar blue
property uchar alpha
property float texture_u
property float texture_v
element face 2
property list uchar int vertex_indices
end_header
-3.997138 0.119919 3.996194 0 1 7.688922e-10 254 254 0 255 0.4963544 0.9963543
0.002861625 0.119919 3.996194 0 1 -2.187506e-09 254 254 0 255 0.003645634 0.9963543
0.002861274 0.119919 -0.003806189 0 1 7.68892e-10 254 254 0 255 0.003645634 0.5036457
-3.997139 0.119919 -0.003805839 0 1 3.72529e-09 254 254 0 255 0.4963544 0.5036457
3 0 1 2 
3 0 2 3 
