ply
format ascii 1.0
comment VCGLIB generated
element vertex 45
property float x
property float y
property float z
property float nx
property float ny
property float nz
property uchar red
property uchar green
property uchar blue
property uchar alpha
property float texture_u
property float texture_v
element face 64
property list uchar int vertex_indices
end_header
-0.4341015 2.114193 0.5190983 0.1042028 0.1081326 0.9886603 255 255 0 255 0.875 0.75
-0.1779863 2.114193 0.4371406 0.2565514 0.05432325 0.9650028 255 255 0 255 1 0.75
-0.1779863 2.360545 0.4371406 0.1559029 0.1620816 0.9743838 255 255 0 255 1 1
-0.4341015 2.360545 0.4371406 0.05225025 0.265915 0.9625794 255 255 0 255 0.875 1
-0.4341015 1.622697 0.5190983 0.1301443 -0.1342937 0.9823582 255 255 0 255 0.8750001 0.2512255
-0.1779863 1.622697 0.4371406 0.2066619 -0.1081273 0.9724193 255 255 0 255 1 0.2512255
-0.1779863 1.867841 0.4371406 0.3047784 0 0.9524233 255 255 0 255 1 0.5
-0.4341015 1.867841 0.5190983 0.1542347 0 0.9880342 255 255 0 255 0.875 0.5
-1.458562 1.622697 0.5190983 0 -0.1591728 0.9872508 255 255 0 255 0.375 0.2512255
-1.202447 1.622697 0.5190983 0 -0.1591728 0.9872508 255 255 0 255 0.5 0.2512255
-1.202447 1.867841 0.5190983 0 0 1 255 255 0 255 0.5 0.5
-1.458562 1.867841 0.5190983 0 0 1 255 255 0 255 0.375 0.5
-1.458562 2.114193 0.5190983 0 0.1598943 0.9871342 255 255 0 255 0.375 0.75
-1.202447 2.114193 0.5190983 0 0.1598943 0.9871342 255 255 0 255 0.5 0.75
-1.202447 2.360545 0.4371406 0 0.3156743 0.9488677 255 255 0 255 0.5 1
-1.458562 2.360545 0.4371406 0 0.3156743 0.9488676 255 255 0 255 0.375 1
-0.946332 1.622697 0.5190983 0 -0.1591728 0.9872508 255 255 0 255 0.6249999 0.2512254
-0.6902168 1.622697 0.5190983 0 -0.1591728 0.9872508 255 255 0 255 0.75 0.2512255
-0.6902168 1.867841 0.5190983 0 0 1 255 255 0 255 0.7500001 0.5
-0.946332 1.867841 0.5190983 0 0 1 255 255 0 255 0.625 0.5
-0.946332 2.114193 0.5190983 0 0.1598943 0.9871342 255 255 0 255 0.625 0.75
-0.6902168 2.114193 0.5190983 0 0.1598943 0.9871342 255 255 0 255 0.75 0.75
-0.6902168 2.360545 0.4371406 0 0.3156743 0.9488676 255 255 0 255 0.75 1
-0.946332 2.360545 0.4371406 0 0.3156743 0.9488676 255 255 0 255 0.625 1
-1.970793 2.114193 0.5190983 -0.1301531 0.134909 0.9822727 255 255 0 255 0.125 0.75
-1.714678 2.114193 0.5190983 0 0.1598943 0.9871342 255 255 0 255 0.25 0.75
-1.714678 2.360545 0.4371406 0 0.3156743 0.9488677 255 255 0 255 0.25 1
-1.970793 2.360545 0.4371406 -0.1045005 0.214439 0.9711311 255 255 0 255 0.125 1
-1.970793 1.622697 0.5190983 -0.1042027 -0.1076307 0.9887151 255 255 0 255 0.125 0.2512255
-1.714678 1.622697 0.5190983 0 -0.1591728 0.9872508 255 255 0 255 0.25 0.2512255
-1.714678 1.867841 0.5190983 0 0 1 255 255 0 255 0.25 0.5
-1.970793 1.867841 0.5190983 -0.1542348 0 0.9880342 255 255 0 255 0.125 0.5000001
-1.970793 1.375137 0.4371406 -0.05225576 -0.264721 0.9629082 255 255 0 255 0.125 0
-1.714678 1.375137 0.4371406 0 -0.3142869 0.9493281 255 255 0 255 0.25 0
-0.946332 1.375137 0.4371406 0 -0.3142869 0.9493281 255 255 0 255 0.625 0
-0.6902167 1.375137 0.4371406 0 -0.3142869 0.9493281 255 255 0 255 0.75 0
-1.458562 1.375137 0.4371406 0 -0.3142869 0.9493281 255 255 0 255 0.375 0
-1.202447 1.375137 0.4371406 0 -0.3142869 0.9493281 255 255 0 255 0.5 0
-0.4341015 1.375137 0.4371406 0.1045115 -0.2134531 0.9713471 255 255 0 255 0.875 0
-0.1779863 1.375137 0.4371406 0.1559229 -0.1613116 0.9745085 255 255 0 255 1 0
-2.226908 1.375137 0.4371406 -0.1559229 -0.1613116 0.9745085 255 255 0 255 0 0
-2.226908 1.622697 0.4371406 -0.256551 -0.05406367 0.9650175 255 255 0 255 0 0.2512255
-2.226908 1.867841 0.4371406 -0.3047784 0 0.9524233 255 255 0 255 0 0.5
-2.226908 2.114193 0.4371406 -0.2066544 0.1086465 0.9723631 255 255 0 255 0 0.75
-2.226908 2.360545 0.4371406 -0.1559029 0.1620816 0.9743838 255 255 0 255 0 1
3 0 1 2 
3 0 2 3 
3 4 5 6 
3 4 6 7 
3 8 9 10 
3 8 10 11 
3 12 13 14 
3 12 14 15 
3 16 17 18 
3 16 18 19 
3 20 21 22 
3 20 22 23 
3 24 25 26 
3 24 26 27 
3 28 29 30 
3 28 30 31 
3 31 30 25 
3 31 25 24 
3 19 18 21 
3 19 21 20 
3 11 10 13 
3 11 13 12 
3 7 6 1 
3 7 1 0 
3 32 33 29 
3 32 29 28 
3 34 35 17 
3 34 17 16 
3 36 37 9 
3 36 9 8 
3 38 39 5 
3 38 5 4 
3 33 36 8 
3 33 8 29 
3 30 11 12 
3 30 12 25 
3 25 12 15 
3 25 15 26 
3 29 8 11 
3 29 11 30 
3 37 34 16 
3 37 16 9 
3 10 19 20 
3 10 20 13 
3 13 20 23 
3 13 23 14 
3 9 16 19 
3 9 19 10 
3 35 38 4 
3 35 4 17 
3 18 7 0 
3 18 0 21 
3 17 4 7 
3 17 7 18 
3 21 0 3 
3 21 3 22 
3 40 32 28 
3 40 28 41 
3 42 31 24 
3 42 24 43 
3 41 28 31 
3 41 31 42 
3 43 24 27 
3 43 27 44 
