ply
format ascii 1.0
comment VCGLIB generated
element vertex 100
property float x
property float y
property float z
property float nx
property float ny
property float nz
property uchar red
property uchar green
property uchar blue
property uchar alpha
property float texture_u
property float texture_v
element face 162
property list uchar int vertex_indices
end_header
-0.15 1.334786 0.4243667 0.2048122 -0.1722218 0.9635308 254 254 254 255 -0.15 1.334786
-0.3833333 1.334786 0.4243667 0 -0.5169282 0.8560288 254 254 254 255 -0.3833333 1.334786
-0.6166667 1.334786 0.4243667 0 -0.5169284 0.8560287 254 254 254 255 -0.6166667 1.334786
-0.85 1.334786 0.4243667 0 -0.5169277 0.856029 254 254 254 255 -0.85 1.334786
-1.083333 1.334786 0.4243667 0 -0.5169283 0.8560287 254 254 254 255 -1.083333 1.334786
-1.316667 1.334786 0.4243667 0 -0.5169278 0.8560291 254 254 254 255 -1.316667 1.334786
-1.55 1.334786 0.4243667 0 -0.5169281 0.8560289 254 254 254 255 -1.55 1.334786
-1.783333 1.334786 0.4243667 0 -0.516928 0.8560289 254 254 254 255 -1.783333 1.334786
-2.016667 1.334786 0.4243667 -0.09413508 -0.4475889 0.8892709 254 254 254 255 -2.016667 1.334786
-2.25 1.334786 0.4243667 0 0 1 254 254 254 255 -2.25 1.334786
-0.15 1.451453 0.4243667 0.2890466 0 0.957315 254 254 254 255 -0.15 1.451453
-0.3833333 1.451453 0.4948181 0.09842161 -0.227998 0.9686744 254 254 254 255 -0.3833333 1.451453
-0.6166667 1.451453 0.4948181 0 -0.2683032 0.9633346 254 254 254 255 -0.6166667 1.451453
-0.85 1.451453 0.4948181 0 -0.2683029 0.9633347 254 254 254 255 -0.85 1.451453
-1.083333 1.451453 0.4948181 0 -0.2683032 0.9633346 254 254 254 255 -1.083333 1.451453
-1.316667 1.451453 0.4948181 0 -0.2683029 0.9633347 254 254 254 255 -1.316667 1.451453
-1.55 1.451453 0.4948181 0 -0.2683029 0.9633347 254 254 254 255 -1.55 1.451453
-1.783333 1.451453 0.4948181 0 -0.268303 0.9633346 254 254 254 255 -1.783333 1.451453
-2.016667 1.451453 0.4948181 -0.1382352 -0.260069 0.9556439 254 254 254 255 -2.016667 1.451453
-2.25 1.451453 0.4243667 -0.1885246 -0.08682976 0.9782224 254 254 254 255 -2.25 1.451453
-0.15 1.56812 0.4243667 0.2890465 0 0.9573151 254 254 254 255 -0.15 1.56812
-0.3833333 1.56812 0.4948181 0.1460906 0 0.9892713 254 254 254 255 -0.3833333 1.56812
-0.6166667 1.56812 0.4948181 0 0 1 254 254 254 255 -0.6166667 1.56812
-0.85 1.56812 0.4948181 0 0 1 254 254 254 255 -0.85 1.56812
-1.083333 1.56812 0.4948181 0 0 1 254 254 254 255 -1.083333 1.56812
-1.316667 1.56812 0.4948181 0 0 1 254 254 254 255 -1.316667 1.56812
-1.55 1.56812 0.4948181 0 0 1 254 254 254 255 -1.55 1.56812
-1.783333 1.56812 0.4948181 0 0 1 254 254 254 255 -1.783333 1.56812
-2.016667 1.56812 0.4948181 -0.1460905 0 0.9892712 254 254 254 255 -2.016667 1.56812
-2.25 1.56812 0.4243667 -0.289047 0 0.957315 254 254 254 255 -2.25 1.56812
-0.15 1.684786 0.4243667 0.2890462 0 0.9573151 254 254 254 255 -0.15 1.684786
-0.3833333 1.684786 0.4948181 0.1460905 0 0.9892713 254 254 254 255 -0.3833333 1.684786
-0.6166667 1.684786 0.4948181 0 0 1 254 254 254 255 -0.6166667 1.684786
-0.85 1.684786 0.4948181 0 0 1 254 254 254 255 -0.85 1.684786
-1.083333 1.684786 0.4948181 0 0 1 254 254 254 255 -1.083333 1.684786
-1.316667 1.684786 0.4948181 0 0 1 254 254 254 255 -1.316667 1.684786
-1.55 1.684786 0.4948181 0 0 1 254 254 254 255 -1.55 1.684786
-1.783333 1.684786 0.4948181 0 0 1 254 254 254 255 -1.783333 1.684786
-2.016667 1.684786 0.4948181 -0.1460904 0 0.9892713 254 254 254 255 -2.016667 1.684786
-2.25 1.684786 0.4243667 -0.2890469 0 0.957315 254 254 254 255 -2.25 1.684786
-0.15 1.801453 0.4243667 0.2890463 0 0.9573152 254 254 254 255 -0.15 1.801453
-0.3833333 1.801453 0.4948181 0.1460906 0 0.9892713 254 254 254 255 -0.3833333 1.801453
-0.6166667 1.801453 0.4948181 0 0 1 254 254 254 255 -0.6166667 1.801453
-0.85 1.801453 0.4948181 0 0 1 254 254 254 255 -0.85 1.801453
-1.083333 1.801453 0.4948181 0 0 1 254 254 254 255 -1.083333 1.801453
-1.316667 1.801453 0.4948181 0 0 1 254 254 254 255 -1.316667 1.801453
-1.55 1.801453 0.4948181 0 0 1 254 254 254 255 -1.55 1.801453
-1.783333 1.801453 0.4948181 0 0 1 254 254 254 255 -1.783333 1.801453
-2.016667 1.801453 0.4948181 -0.1460906 0 0.9892713 254 254 254 255 -2.016667 1.801453
-2.25 1.801453 0.4243667 -0.2890468 0 0.9573151 254 254 254 255 -2.25 1.801453
-0.15 1.91812 0.4243667 0.2890464 0 0.9573151 254 254 254 255 -0.15 1.91812
-0.3833333 1.91812 0.4948181 0.1460905 0 0.9892713 254 254 254 255 -0.3833333 1.91812
-0.6166667 1.91812 0.4948181 0 0 1 254 254 254 255 -0.6166667 1.91812
-0.85 1.91812 0.4948181 0 0 1 254 254 254 255 -0.85 1.91812
-1.083333 1.91812 0.4948181 0 0 1 254 254 254 255 -1.083333 1.91812
-1.316667 1.91812 0.4948181 0 0 1 254 254 254 255 -1.316667 1.91812
-1.55 1.91812 0.4948181 0 0 1 254 254 254 255 -1.55 1.91812
-1.783333 1.91812 0.4948181 0 0 1 254 254 254 255 -1.783333 1.91812
-2.016667 1.91812 0.4948181 -0.1460906 0 0.9892713 254 254 254 255 -2.016667 1.91812
-2.25 1.91812 0.4243667 -0.2890464 0 0.9573151 254 254 254 255 -2.25 1.91812
-0.15 2.034786 0.4243667 0.2890466 0 0.9573151 254 254 254 255 -0.15 2.034786
-0.3833333 2.034786 0.4948181 0.1460903 0 0.9892713 254 254 254 255 -0.3833333 2.034786
-0.6166667 2.034786 0.4948181 0 0 1 254 254 254 255 -0.6166667 2.034786
-0.85 2.034786 0.4948181 0 0 1 254 254 254 255 -0.85 2.034786
-1.083333 2.034786 0.4948181 0 0 1 254 254 254 255 -1.083333 2.034786
-1.316667 2.034786 0.4948181 0 0 1 254 254 254 255 -1.316667 2.034786
-1.55 2.034786 0.4948181 0 0 1 254 254 254 255 -1.55 2.034786
-1.783333 2.034786 0.4948181 0 0 1 254 254 254 255 -1.783333 2.034786
-2.016667 2.034786 0.4948181 -0.1460908 0 0.9892712 254 254 254 255 -2.016667 2.034786
-2.25 2.034786 0.4243667 -0.2890463 0 0.9573152 254 254 254 255 -2.25 2.034786
-0.15 2.151453 0.4243667 0.2890465 0 0.9573151 254 254 254 255 -0.15 2.151453
-0.3833333 2.151453 0.4948181 0.1460907 0 0.9892712 254 254 254 255 -0.3833333 2.151453
-0.6166667 2.151453 0.4948181 0 0 1 254 254 254 255 -0.6166667 2.151453
-0.85 2.151453 0.4948181 0 0 1 254 254 254 255 -0.85 2.151453
-1.083333 2.151453 0.4948181 0 0 1 254 254 254 255 -1.083333 2.151453
-1.316667 2.151453 0.4948181 0 0 1 254 254 254 255 -1.316667 2.151453
-1.55 2.151453 0.4948181 0 0 1 254 254 254 255 -1.55 2.151453
-1.783333 2.151453 0.4948181 0 0 1 254 254 254 255 -1.783333 2.151453
-2.016667 2.151453 0.4948181 -0.1460907 0 0.9892712 254 254 254 255 -2.016667 2.151453
-2.25 2.151453 0.4243667 -0.2890467 0 0.957315 254 254 254 255 -2.25 2.151453
-0.15 2.26812 0.4243667 0.1885235 0.08682972 0.9782226 254 254 254 255 -0.15 2.26812
-0.3833333 2.26812 0.4948181 0.1382352 0.2600707 0.9556434 254 254 254 255 -0.3833333 2.26812
-0.6166667 2.26812 0.4948181 0 0.2683048 0.9633341 254 254 254 255 -0.6166667 2.26812
-0.85 2.26812 0.4948181 0 0.2683047 0.9633342 254 254 254 255 -0.85 2.26812
-1.083333 2.26812 0.4948181 0 0.2683051 0.963334 254 254 254 255 -1.083333 2.26812
-1.316667 2.26812 0.4948181 0 0.268305 0.963334 254 254 254 255 -1.316667 2.26812
-1.55 2.26812 0.4948181 0 0.2683052 0.963334 254 254 254 255 -1.55 2.26812
-1.783333 2.26812 0.4948181 0 0.268305 0.9633341 254 254 254 255 -1.783333 2.26812
-2.016667 2.26812 0.4948181 -0.09842151 0.2280002 0.9686739 254 254 254 255 -2.016667 2.26812
-2.25 2.26812 0.4243667 -0.2890466 0 0.957315 254 254 254 255 -2.25 2.26812
-0.15 2.384786 0.4243667 0 0 1 254 254 254 255 -0.15 2.384786
-0.3833333 2.384786 0.4243667 0.09413504 0.4475925 0.8892691 254 254 254 255 -0.3833333 2.384786
-0.6166667 2.384786 0.4243667 0 0.5169316 0.8560268 254 254 254 255 -0.6166667 2.384786
-0.85 2.384786 0.4243667 0 0.5169312 0.8560269 254 254 254 255 -0.85 2.384786
-1.083333 2.384786 0.4243667 0 0.5169316 0.8560268 254 254 254 255 -1.083333 2.384786
-1.316667 2.384786 0.4243667 0 0.5169313 0.8560269 254 254 254 255 -1.316667 2.384786
-1.55 2.384786 0.4243667 0 0.5169317 0.8560268 254 254 254 255 -1.55 2.384786
-1.783333 2.384786 0.4243667 0 0.5169313 0.8560269 254 254 254 255 -1.783333 2.384786
-2.016667 2.384786 0.4243667 0 0.5169317 0.8560266 254 254 254 255 -2.016667 2.384786
-2.25 2.384786 0.4243667 -0.2048127 0.1722219 0.9635307 254 254 254 255 -2.25 2.384786
3 11 1 0 
3 0 10 11 
3 12 2 1 
3 1 11 12 
3 13 3 2 
3 2 12 13 
3 14 4 3 
3 3 13 14 
3 15 5 4 
3 4 14 15 
3 16 6 5 
3 5 15 16 
3 17 7 6 
3 6 16 17 
3 18 8 7 
3 7 17 18 
3 19 9 8 
3 8 18 19 
3 21 11 10 
3 10 20 21 
3 22 12 11 
3 11 21 22 
3 23 13 12 
3 12 22 23 
3 24 14 13 
3 13 23 24 
3 25 15 14 
3 14 24 25 
3 26 16 15 
3 15 25 26 
3 27 17 16 
3 16 26 27 
3 28 18 17 
3 17 27 28 
3 29 19 18 
3 18 28 29 
3 31 21 20 
3 20 30 31 
3 32 22 21 
3 21 31 32 
3 33 23 22 
3 22 32 33 
3 34 24 23 
3 23 33 34 
3 35 25 24 
3 24 34 35 
3 36 26 25 
3 25 35 36 
3 37 27 26 
3 26 36 37 
3 38 28 27 
3 27 37 38 
3 39 29 28 
3 28 38 39 
3 41 31 30 
3 30 40 41 
3 42 32 31 
3 31 41 42 
3 43 33 32 
3 32 42 43 
3 44 34 33 
3 33 43 44 
3 45 35 34 
3 34 44 45 
3 46 36 35 
3 35 45 46 
3 47 37 36 
3 36 46 47 
3 48 38 37 
3 37 47 48 
3 49 39 38 
3 38 48 49 
3 51 41 40 
3 40 50 51 
3 52 42 41 
3 41 51 52 
3 53 43 42 
3 42 52 53 
3 54 44 43 
3 43 53 54 
3 55 45 44 
3 44 54 55 
3 56 46 45 
3 45 55 56 
3 57 47 46 
3 46 56 57 
3 58 48 47 
3 47 57 58 
3 59 49 48 
3 48 58 59 
3 61 51 50 
3 50 60 61 
3 62 52 51 
3 51 61 62 
3 63 53 52 
3 52 62 63 
3 64 54 53 
3 53 63 64 
3 65 55 54 
3 54 64 65 
3 66 56 55 
3 55 65 66 
3 67 57 56 
3 56 66 67 
3 68 58 57 
3 57 67 68 
3 69 59 58 
3 58 68 69 
3 71 61 60 
3 60 70 71 
3 72 62 61 
3 61 71 72 
3 73 63 62 
3 62 72 73 
3 74 64 63 
3 63 73 74 
3 75 65 64 
3 64 74 75 
3 76 66 65 
3 65 75 76 
3 77 67 66 
3 66 76 77 
3 78 68 67 
3 67 77 78 
3 79 69 68 
3 68 78 79 
3 81 71 70 
3 70 80 81 
3 82 72 71 
3 71 81 82 
3 83 73 72 
3 72 82 83 
3 84 74 73 
3 73 83 84 
3 85 75 74 
3 74 84 85 
3 86 76 75 
3 75 85 86 
3 87 77 76 
3 76 86 87 
3 88 78 77 
3 77 87 88 
3 89 79 78 
3 78 88 89 
3 91 81 80 
3 80 90 91 
3 92 82 81 
3 81 91 92 
3 93 83 82 
3 82 92 93 
3 94 84 83 
3 83 93 94 
3 95 85 84 
3 84 94 95 
3 96 86 85 
3 85 95 96 
3 97 87 86 
3 86 96 97 
3 98 88 87 
3 87 97 98 
3 99 89 88 
3 88 98 99 
