ply
format ascii 1.0
comment VCGLIB generated
element vertex 304
property float x
property float y
property float z
property float nx
property float ny
property float nz
property uchar red
property uchar green
property uchar blue
property uchar alpha
property float texture_u
property float texture_v
element face 288
property list uchar int vertex_indices
end_header
-0.5426934 0.278511 0.9213884 0 -1 0 255 255 0 255 0.1689246 0.2784985
-0.5229972 0.278511 0.9179155 0 -1 0 255 255 0 255 0.1731211 0.2777586
-0.5169203 0.278511 0.9873747 0 -1 0 255 255 0 255 0.1744158 0.2925576
-0.5369203 0.278511 0.9873747 0 -1 0 255 255 0 255 0.1701546 0.2925576
-0.5229972 0.278511 0.9179155 0.9894512 0 -0.1448667 255 255 0 255 0.08405206 0.3857169
-0.5229972 3.143032 0.9179155 0.9793273 0 -0.2022822 255 255 0 255 0.08405206 0.9960324
-0.5169203 3.143032 0.9873747 0.9995751 0 -0.02915038 255 255 0 255 0.06925306 0.9960324
-0.5169203 0.278511 0.9873747 0.9995751 0 0.02915038 255 255 0 255 0.06925306 0.3857169
-0.5229972 3.143032 0.9179155 0 1 0 255 255 0 255 0.3515045 0.3073566
-0.5426934 3.143032 0.9213884 0 1 0 255 255 0 255 0.347308 0.3066167
-0.5369203 3.143032 0.9873747 0 1 0 255 255 0 255 0.348538 0.2925576
-0.5169203 3.143032 0.9873747 0 1 0 255 255 0 255 0.3527992 0.2925576
-0.5426934 3.143032 0.9213884 -0.9894512 0 0.1448668 255 255 0 255 0.3224134 0.9960324
-0.5426934 0.278511 0.9213884 -0.9793273 0 0.202282 255 255 0 255 0.3224134 0.3857169
-0.5369203 0.278511 0.9873747 -0.9995751 0 0.02915055 255 255 0 255 0.3364725 0.3857169
-0.5369203 3.143032 0.9873747 -0.9995751 0 -0.02915055 255 255 0 255 0.3364725 0.9960324
-0.5598371 0.278511 0.8574071 0 -1 0 255 255 0 255 0.1652719 0.2648666
-0.5410433 0.278511 0.8505667 0 -1 0 255 255 0 255 0.1692762 0.2634091
-0.5410433 0.278511 0.8505667 0.9492633 0 -0.3144825 255 255 0 255 0.09840141 0.3857169
-0.5410433 3.143032 0.8505667 0.9293233 0 -0.3692672 255 255 0 255 0.09840141 0.9960324
-0.5410433 3.143032 0.8505667 0 1 0 255 255 0 255 0.3476596 0.3217059
-0.5598371 3.143032 0.8574071 0 1 0 255 255 0 255 0.3436553 0.3202485
-0.5598371 3.143032 0.8574071 -0.9492634 0 0.3144822 255 255 0 255 0.3087815 0.9960324
-0.5598371 0.278511 0.8574071 -0.9293232 0 0.3692674 255 255 0 255 0.3087815 0.3857169
-0.5878307 0.278511 0.7973747 0 -1 0 255 255 0 255 0.1593076 0.2520761
-0.5705101 0.278511 0.7873747 0 -1 0 255 255 0 255 0.1629979 0.2499455
-0.5705101 0.278511 0.7873747 0.8802328 0 -0.4745422 255 255 0 255 0.1118651 0.3857169
-0.5705101 3.143032 0.7873747 0.8510823 0 -0.5250324 255 255 0 255 0.1118651 0.9960324
-0.5705101 3.143032 0.7873747 0 1 0 255 255 0 255 0.3413814 0.3351696
-0.5878307 3.143032 0.7973747 0 1 0 255 255 0 255 0.337691 0.333039
-0.5878307 3.143032 0.7973747 -0.8802327 0 0.4745423 255 255 0 255 0.295991 0.9960324
-0.5878307 0.278511 0.7973747 -0.8510823 0 0.5250323 255 255 0 255 0.295991 0.3857169
-0.6258234 0.278511 0.7431154 0 -1 0 255 255 0 255 0.1512129 0.2405156
-0.6105025 0.278511 0.7302597 0 -1 0 255 255 0 255 0.1544771 0.2377765
-0.6105025 0.278511 0.7302597 0.7844565 0 -0.6201839 255 255 0 255 0.1240341 0.3857169
-0.6105025 3.143032 0.7302597 0.7469811 0 -0.6648453 255 255 0 255 0.1240341 0.9960324
-0.6105025 3.143032 0.7302597 0 1 0 255 255 0 255 0.3328606 0.3473386
-0.6258234 3.143032 0.7431154 0 1 0 255 255 0 255 0.3295963 0.3445995
-0.6258234 3.143032 0.7431154 -0.7844566 0 0.6201838 255 255 0 255 0.2844305 0.9960324
-0.6258234 0.278511 0.7431154 -0.7469812 0 0.6648452 255 255 0 255 0.2844305 0.3857169
-0.672661 0.278511 0.6962779 0 -1 0 255 255 0 255 0.1412337 0.2305363
-0.6598053 0.278511 0.680957 0 -1 0 255 255 0 255 0.1439727 0.2272722
-0.6598053 0.278511 0.680957 0.7071064 0 -0.7071072 255 255 0 255 0.1345385 0.3857169
-0.6598053 3.143032 0.680957 0.7071064 0 -0.7071072 255 255 0 255 0.1345385 0.9960324
-0.6598053 3.143032 0.680957 0 1 0 255 255 0 255 0.3223561 0.357843
-0.672661 3.143032 0.6962779 0 1 0 255 255 0 255 0.3196171 0.3545787
-0.672661 3.143032 0.6962779 -0.7071064 0 0.7071072 255 255 0 255 0.2744513 0.9960324
-0.672661 0.278511 0.6962779 -0.7071064 0 0.7071072 255 255 0 255 0.2744513 0.3857169
-0.7269203 0.278511 0.6582851 0 -1 0 255 255 0 255 0.1296732 0.2224417
-0.7169203 0.278511 0.6409645 0 -1 0 255 255 0 255 0.1318038 0.2187513
-0.7169203 0.278511 0.6409645 0.5250329 0 -0.8510819 255 255 0 255 0.6746011 0.3857169
-0.7169203 3.143032 0.6409645 0.4745421 0 -0.8802328 255 255 0 255 0.6746011 0.9960324
-0.6598053 3.143032 0.680957 0.5735773 0 -0.8191515 255 255 0 255 0.6624322 0.9960324
-0.6598053 0.278511 0.680957 0.5735773 0 -0.8191515 255 255 0 255 0.6624322 0.3857169
-0.7169203 3.143032 0.6409645 0 1 0 255 255 0 255 0.3101872 0.3663638
-0.7269203 3.143032 0.6582851 0 1 0 255 255 0 255 0.3080566 0.3626735
-0.7269203 3.143032 0.6582851 -0.5250326 0 0.8510821 255 255 0 255 0.8724528 0.9960324
-0.7269203 0.278511 0.6582851 -0.4745426 0 0.8802326 255 255 0 255 0.8724528 0.3857169
-0.672661 0.278511 0.6962779 -0.5735765 0 0.819152 255 255 0 255 0.8840133 0.3857169
-0.672661 3.143032 0.6962779 -0.5735765 0 0.819152 255 255 0 255 0.8840133 0.9960324
-0.7869527 0.278511 0.6302915 0 -1 0 255 255 0 255 0.1168827 0.2164773
-0.7801123 0.278511 0.6114977 0 -1 0 255 255 0 255 0.1183401 0.212473
-0.7801123 0.278511 0.6114977 0.3692668 0 -0.9293235 255 255 0 255 0.6880648 0.3857169
-0.7801123 3.143032 0.6114977 0.3144822 0 -0.9492634 255 255 0 255 0.6880648 0.9960324
-0.7801123 3.143032 0.6114977 0 1 0 255 255 0 255 0.2967235 0.372642
-0.7869527 3.143032 0.6302915 0 1 0 255 255 0 255 0.2952661 0.3686378
-0.7869527 3.143032 0.6302915 -0.3692675 0 0.9293231 255 255 0 255 0.8596623 0.9960324
-0.7869527 0.278511 0.6302915 -0.3144826 0 0.9492633 255 255 0 255 0.8596623 0.3857169
-0.850934 0.278511 0.6131477 0 -1 0 255 255 0 255 0.1032508 0.2128247
-0.847461 0.278511 0.5934516 0 -1 0 255 255 0 255 0.1039907 0.2086282
-0.847461 0.278511 0.5934516 0.2022822 0 -0.9793273 255 255 0 255 0.7024142 0.3857169
-0.847461 3.143032 0.5934516 0.1448667 0 -0.9894512 255 255 0 255 0.7024142 0.9960324
-0.847461 3.143032 0.5934516 0 1 0 255 255 0 255 0.2823741 0.3764869
-0.850934 3.143032 0.6131477 0 1 0 255 255 0 255 0.2816342 0.3722905
-0.850934 3.143032 0.6131477 -0.2022821 0 0.9793273 255 255 0 255 0.8460304 0.9960324
-0.850934 0.278511 0.6131477 -0.1448665 0 0.9894512 255 255 0 255 0.8460304 0.3857169
-0.9169203 0.278511 0.6073747 0 -1 0 255 255 0 255 0.0891917 0.2115947
-0.9169203 0.278511 0.5873747 0 -1 0 255 255 0 255 0.0891917 0.2073334
-0.9169203 0.278511 0.5873747 0.02915038 0 -0.9995751 255 255 0 255 0.7172132 0.3857169
-0.9169203 3.143032 0.5873747 -0.02915038 0 -0.9995751 255 255 0 255 0.7172132 0.9960324
-0.9169203 3.143032 0.5873747 0 1 0 255 255 0 255 0.2675751 0.3777816
-0.9169203 3.143032 0.6073747 0 1 0 255 255 0 255 0.2675751 0.3735205
-0.9169203 3.143032 0.6073747 -0.02915028 0 0.9995751 255 255 0 255 0.8319713 0.9960324
-0.9169203 0.278511 0.6073747 0.02915028 0 0.9995751 255 255 0 255 0.8319713 0.3857169
-0.9829066 0.278511 0.6131477 0 -1 0 255 255 0 255 0.07513265 0.2128247
-0.9863796 0.278511 0.5934516 0 -1 0 255 255 0 255 0.0743927 0.2086282
-0.9863796 0.278511 0.5934516 -0.1448667 0 -0.9894512 255 255 0 255 0.7320122 0.3857169
-0.9863796 3.143032 0.5934516 -0.2022822 0 -0.9793273 255 255 0 255 0.7320122 0.9960324
-0.9863796 3.143032 0.5934516 0 1 0 255 255 0 255 0.2527761 0.3764869
-0.9829066 3.143032 0.6131477 0 1 0 255 255 0 255 0.2535161 0.3722905
-0.9829066 3.143032 0.6131477 0.1448664 0 0.9894512 255 255 0 255 0.8179123 0.9960324
-0.9829066 0.278511 0.6131477 0.202282 0 0.9793273 255 255 0 255 0.8179123 0.3857169
-1.046888 0.278511 0.6302915 0 -1 0 255 255 0 255 0.06150077 0.2164773
-1.053728 0.278511 0.6114977 0 -1 0 255 255 0 255 0.06004335 0.212473
-1.053728 0.278511 0.6114977 -0.3144823 0 -0.9492633 255 255 0 255 0.7463616 0.3857169
-1.053728 3.143032 0.6114977 -0.369267 0 -0.9293234 255 255 0 255 0.7463616 0.9960324
-1.053728 3.143032 0.6114977 0 1 0 255 255 0 255 0.2384268 0.372642
-1.046888 3.143032 0.6302915 0 1 0 255 255 0 255 0.2398842 0.3686378
-1.046888 3.143032 0.6302915 0.3144827 0 0.9492632 255 255 0 255 0.8042804 0.9960324
-1.046888 0.278511 0.6302915 0.3692679 0 0.929323 255 255 0 255 0.8042804 0.3857169
-1.10692 0.278511 0.6582851 0 -1 0 255 255 0 255 0.04871026 0.2224417
-1.11692 0.278511 0.6409645 0 -1 0 255 255 0 255 0.04657966 0.2187513
-1.11692 0.278511 0.6409645 -0.4745422 0 -0.8802328 255 255 0 255 0.7598252 0.3857169
-1.11692 3.143032 0.6409645 -0.5250327 0 -0.8510821 255 255 0 255 0.7598252 0.9960324
-1.11692 3.143032 0.6409645 0 1 0 255 255 0 255 0.2249631 0.3663638
-1.10692 3.143032 0.6582851 0 1 0 255 255 0 255 0.2270937 0.3626735
-1.10692 3.143032 0.6582851 0.474543 0 0.8802324 255 255 0 255 0.7914899 0.9960324
-1.10692 0.278511 0.6582851 0.5250329 0 0.851082 255 255 0 255 0.7914899 0.3857169
-1.16118 0.278511 0.6962779 0 -1 0 255 255 0 255 0.03714976 0.2305363
-1.174035 0.278511 0.680957 0 -1 0 255 255 0 255 0.03441072 0.2272722
-1.174035 0.278511 0.680957 -0.5735769 0 -0.8191518 255 255 0 255 0.7719942 0.3857169
-1.174035 3.143032 0.680957 -0.5735769 0 -0.8191518 255 255 0 255 0.7719942 0.9960324
-1.174035 3.143032 0.680957 0 1 0 255 255 0 255 0.2127941 0.357843
-1.16118 3.143032 0.6962779 0 1 0 255 255 0 255 0.2155332 0.3545787
-1.16118 3.143032 0.6962779 0.5735765 0 0.819152 255 255 0 255 0.7799294 0.9960324
-1.16118 0.278511 0.6962779 0.5735765 0 0.819152 255 255 0 255 0.7799294 0.3857169
-1.208017 0.278511 0.7431154 0 -1 0 255 255 0 255 0.02717053 0.2405156
-1.223338 0.278511 0.7302597 0 -1 0 255 255 0 255 0.02390626 0.2377765
-1.223338 0.278511 0.7302597 -0.746981 0 -0.6648455 255 255 0 255 0.544935 0.3857169
-1.223338 3.143032 0.7302597 -0.7844566 0 -0.6201838 255 255 0 255 0.544935 0.9960324
-1.174035 3.143032 0.680957 -0.7071059 0 -0.7071077 255 255 0 255 0.5344305 0.9960324
-1.174035 0.278511 0.680957 -0.7071059 0 -0.7071077 255 255 0 255 0.5344305 0.3857169
-1.223338 3.143032 0.7302597 0 1 0 255 255 0 255 0.2022897 0.3473386
-1.208017 3.143032 0.7431154 0 1 0 255 255 0 255 0.2055539 0.3445995
-1.208017 3.143032 0.7431154 0.7469809 0 0.6648455 255 255 0 255 0.2565368 0.9960324
-1.208017 0.278511 0.7431154 0.7844565 0 0.6201838 255 255 0 255 0.2565368 0.3857169
-1.16118 0.278511 0.6962779 0.7071059 0 0.7071077 255 255 0 255 0.2665161 0.3857169
-1.16118 3.143032 0.6962779 0.7071059 0 0.7071077 255 255 0 255 0.2665161 0.9960324
-1.24601 0.278511 0.7973747 0 -1 0 255 255 0 255 0.01907578 0.2520761
-1.26333 0.278511 0.7873747 0 -1 0 255 255 0 255 0.01538547 0.2499455
-1.26333 0.278511 0.7873747 -0.8510825 0 -0.525032 255 255 0 255 0.5571039 0.3857169
-1.26333 3.143032 0.7873747 -0.8802329 0 -0.474542 255 255 0 255 0.5571039 0.9960324
-1.26333 3.143032 0.7873747 0 1 0 255 255 0 255 0.1937689 0.3351696
-1.24601 3.143032 0.7973747 0 1 0 255 255 0 255 0.1974592 0.333039
-1.24601 3.143032 0.7973747 0.8510823 0 0.5250323 255 255 0 255 0.2449763 0.9960324
-1.24601 0.278511 0.7973747 0.8802327 0 0.4745423 255 255 0 255 0.2449763 0.3857169
-1.274004 0.278511 0.8574071 0 -1 0 255 255 0 255 0.01311147 0.2648666
-1.292797 0.278511 0.8505667 0 -1 0 255 255 0 255 0.009107251 0.2634091
-1.292797 0.278511 0.8505667 -0.9293232 0 -0.3692675 255 255 0 255 0.5705676 0.3857169
-1.292797 3.143032 0.8505667 -0.9492632 0 -0.314483 255 255 0 255 0.5705676 0.9960324
-1.292797 3.143032 0.8505667 0 1 0 255 255 0 255 0.1874907 0.3217059
-1.274004 3.143032 0.8574071 0 1 0 255 255 0 255 0.1914949 0.3202485
-1.274004 3.143032 0.8574071 0.9293233 0 0.3692673 255 255 0 255 0.2321858 0.9960324
-1.274004 0.278511 0.8574071 0.9492634 0 0.3144822 255 255 0 255 0.2321858 0.3857169
-1.291147 0.278511 0.9213884 0 -1 0 255 255 0 255 0.009458822 0.2784985
-1.310843 0.278511 0.9179155 0 -1 0 255 255 0 255 0.005262354 0.2777586
-1.310843 0.278511 0.9179155 -0.9793273 0 -0.2022824 255 255 0 255 0.5849169 0.3857169
-1.310843 3.143032 0.9179155 -0.9894512 0 -0.1448664 255 255 0 255 0.5849169 0.9960324
-1.310843 3.143032 0.9179155 0 1 0 255 255 0 255 0.1836458 0.3073566
-1.291147 3.143032 0.9213884 0 1 0 255 255 0 255 0.1878422 0.3066167
-1.291147 3.143032 0.9213884 0.9793273 0 0.202282 255 255 0 255 0.218554 0.9960324
-1.291147 0.278511 0.9213884 0.9894512 0 0.1448668 255 255 0 255 0.218554 0.3857169
-1.29692 0.278511 0.9873747 0 -1 0 255 255 0 255 0.008228814 0.2925576
-1.31692 0.278511 0.9873747 0 -1 0 255 255 0 255 0.003967609 0.2925576
-1.31692 0.278511 0.9873747 -0.9995751 0 -0.02915009 255 255 0 255 0.5997159 0.3857169
-1.31692 3.143032 0.9873747 -0.9995751 0 0.02915009 255 255 0 255 0.5997159 0.9960324
-1.31692 3.143032 0.9873747 0 1 0 255 255 0 255 0.182351 0.2925576
-1.29692 3.143032 0.9873747 0 1 0 255 255 0 255 0.1866122 0.2925576
-1.29692 3.143032 0.9873747 0.9995751 0 0.02915055 255 255 0 255 0.2044949 0.9960324
-1.29692 0.278511 0.9873747 0.9995751 0 -0.02915055 255 255 0 255 0.2044949 0.3857169
-1.291147 0.278511 1.053361 0 -1 0 255 255 0 255 0.009458822 0.3066167
-1.310843 0.278511 1.056834 0 -1 0 255 255 0 255 0.005262354 0.3073566
-1.310843 0.278511 1.056834 -0.9894512 0 0.1448663 255 255 0 255 0.614515 0.3857169
-1.310843 3.143032 1.056834 -0.9793273 0 0.2022823 255 255 0 255 0.614515 0.9960324
-1.310843 3.143032 1.056834 0 1 0 255 255 0 255 0.1836458 0.2777586
-1.291147 3.143032 1.053361 0 1 0 255 255 0 255 0.1878422 0.2784985
-1.291147 3.143032 1.053361 0.9894512 0 -0.1448668 255 255 0 255 0.1904358 0.9960324
-1.291147 0.278511 1.053361 0.9793273 0 -0.202282 255 255 0 255 0.1904358 0.3857169
-1.274004 0.278511 1.117342 0 -1 0 255 255 0 255 0.01311147 0.3202485
-1.292797 0.278511 1.124183 0 -1 0 255 255 0 255 0.009107251 0.3217059
-1.292797 0.278511 1.124183 -0.9492632 0 0.314483 255 255 0 255 0.6288643 0.3857169
-1.292797 3.143032 1.124183 -0.9293231 0 0.3692676 255 255 0 255 0.6288643 0.9960324
-1.292797 3.143032 1.124183 0 1 0 255 255 0 255 0.1874907 0.2634091
-1.274004 3.143032 1.117342 0 1 0 255 255 0 255 0.1914949 0.2648666
-1.274004 3.143032 1.117342 0.9492634 0 -0.3144822 255 255 0 255 0.176804 0.9960324
-1.274004 0.278511 1.117342 0.9293232 0 -0.3692674 255 255 0 255 0.176804 0.3857169
-1.24601 0.278511 1.177375 0 -1 0 255 255 0 255 0.01907578 0.333039
-1.26333 0.278511 1.187375 0 -1 0 255 255 0 255 0.01538547 0.3351696
-1.26333 0.278511 1.187375 -0.8802328 0 0.4745422 255 255 0 255 0.642328 0.3857169
-1.26333 3.143032 1.187375 -0.8510824 0 0.525032 255 255 0 255 0.642328 0.9960324
-1.26333 3.143032 1.187375 0 1 0 255 255 0 255 0.1937689 0.2499455
-1.24601 3.143032 1.177375 0 1 0 255 255 0 255 0.1974592 0.2520761
-1.24601 3.143032 1.177375 0.8802327 0 -0.4745423 255 255 0 255 0.1640134 0.9960324
-1.24601 0.278511 1.177375 0.8510823 0 -0.5250323 255 255 0 255 0.1640134 0.3857169
-1.208017 0.278511 1.231634 0 -1 0 255 255 0 255 0.02717053 0.3445995
-1.223338 0.278511 1.24449 0 -1 0 255 255 0 255 0.02390626 0.3473386
-1.223338 0.278511 1.24449 -0.8191526 0 0.5735757 255 255 0 255 0.654497 0.3857169
-1.223338 3.143032 1.24449 -0.8191526 0 0.5735757 255 255 0 255 0.654497 0.9960324
-1.223338 3.143032 1.24449 0 1 0 255 255 0 255 0.2022897 0.2377765
-1.208017 3.143032 1.231634 0 1 0 255 255 0 255 0.2055539 0.2405156
-1.208017 3.143032 1.231634 0.7844565 0 -0.6201838 255 255 0 255 0.1524529 0.9960324
-1.208017 0.278511 1.231634 0.7469809 0 -0.6648455 255 255 0 255 0.1524529 0.3857169
-1.16118 0.278511 1.278472 0 -1 0 255 255 0 255 0.03714976 0.3545787
-1.174035 0.278511 1.293792 0 -1 0 255 255 0 255 0.03441072 0.357843
-1.174035 0.278511 1.293792 -0.6648446 0 0.7469817 255 255 0 255 0.4169333 0.3857169
-1.174035 3.143032 1.293792 -0.6201838 0 0.7844566 255 255 0 255 0.4169333 0.9960324
-1.223338 3.143032 1.24449 -0.7071059 0 0.7071077 255 255 0 255 0.4064289 0.9960324
-1.223338 0.278511 1.24449 -0.7071059 0 0.7071077 255 255 0 255 0.4064289 0.3857169
-1.174035 3.143032 1.293792 0 1 0 255 255 0 255 0.2127941 0.2272722
-1.16118 3.143032 1.278472 0 1 0 255 255 0 255 0.2155332 0.2305363
-1.16118 3.143032 1.278472 0.7071059 0 -0.7071077 255 255 0 255 0.1424737 0.9960324
-1.16118 0.278511 1.278472 0.7071059 0 -0.7071077 255 255 0 255 0.1424737 0.3857169
-1.10692 0.278511 1.316464 0 -1 0 255 255 0 255 0.04871026 0.3626735
-1.11692 0.278511 1.333785 0 -1 0 255 255 0 255 0.04657966 0.3663638
-1.11692 0.278511 1.333785 -0.5250325 0 0.8510822 255 255 0 255 0.4291023 0.3857169
-1.11692 3.143032 1.333785 -0.4745417 0 0.880233 255 255 0 255 0.4291023 0.9960324
-1.11692 3.143032 1.333785 0 1 0 255 255 0 255 0.2249631 0.2187513
-1.10692 3.143032 1.316464 0 1 0 255 255 0 255 0.2270937 0.2224417
-1.10692 3.143032 1.316464 0.5250328 0 -0.851082 255 255 0 255 0.9844719 0.9960324
-1.10692 0.278511 1.316464 0.4745422 0 -0.8802328 255 255 0 255 0.9844719 0.3857169
-1.16118 0.278511 1.278472 0.5735771 0 -0.8191516 255 255 0 255 0.9960324 0.3857169
-1.16118 3.143032 1.278472 0.5735771 0 -0.8191516 255 255 0 255 0.9960324 0.9960324
-1.046888 0.278511 1.344458 0 -1 0 255 255 0 255 0.06150077 0.3686378
-1.053728 0.278511 1.363252 0 -1 0 255 255 0 255 0.06004335 0.372642
-1.053728 0.278511 1.363252 -0.3692667 0 0.9293234 255 255 0 255 0.4425659 0.3857169
-1.053728 3.143032 1.363252 -0.3144826 0 0.9492633 255 255 0 255 0.4425659 0.9960324
-1.053728 3.143032 1.363252 0 1 0 255 255 0 255 0.2384268 0.212473
-1.046888 3.143032 1.344458 0 1 0 255 255 0 255 0.2398842 0.2164773
-1.046888 3.143032 1.344458 0.3692671 0 -0.9293233 255 255 0 255 0.9716814 0.9960324
-1.046888 0.278511 1.344458 0.3144828 0 -0.9492632 255 255 0 255 0.9716814 0.3857169
-0.9829066 0.278511 1.361602 0 -1 0 255 255 0 255 0.07513265 0.3722905
-0.9863796 0.278511 1.381298 0 -1 0 255 255 0 255 0.0743927 0.3764869
-0.9863796 0.278511 1.381298 -0.2022824 0 0.9793273 255 255 0 255 0.4569153 0.3857169
-0.9863796 3.143032 1.381298 -0.1448664 0 0.9894512 255 255 0 255 0.4569153 0.9960324
-0.9863796 3.143032 1.381298 0 1 0 255 255 0 255 0.2527761 0.2086282
-0.9829066 3.143032 1.361602 0 1 0 255 255 0 255 0.2535161 0.2128247
-0.9829066 3.143032 1.361602 0.2022823 0 -0.9793273 255 255 0 255 0.9580495 0.9960324
-0.9829066 0.278511 1.361602 0.1448661 0 -0.9894513 255 255 0 255 0.9580495 0.3857169
-0.9169203 0.278511 1.367375 0 -1 0 255 255 0 255 0.0891917 0.3735205
-0.9169203 0.278511 1.387375 0 -1 0 255 255 0 255 0.0891917 0.3777816
-0.9169203 0.278511 1.387375 -0.02915009 0 0.9995751 255 255 0 255 0.4717143 0.3857169
-0.9169203 3.143032 1.387375 0.02915009 0 0.9995751 255 255 0 255 0.4717143 0.9960324
-0.9169203 3.143032 1.387375 0 1 0 255 255 0 255 0.2675751 0.2073334
-0.9169203 3.143032 1.367375 0 1 0 255 255 0 255 0.2675751 0.2115947
-0.9169203 3.143032 1.367375 0.02914998 0 -0.9995751 255 255 0 255 0.9439905 0.9960324
-0.9169203 0.278511 1.367375 -0.02914998 0 -0.9995751 255 255 0 255 0.9439905 0.3857169
-0.850934 0.278511 1.361602 0 -1 0 255 255 0 255 0.1032508 0.3722905
-0.847461 0.278511 1.381298 0 -1 0 255 255 0 255 0.1039907 0.3764869
-0.847461 0.278511 1.381298 0.1448664 0 0.9894512 255 255 0 255 0.4865133 0.3857169
-0.847461 3.143032 1.381298 0.2022824 0 0.9793273 255 255 0 255 0.4865133 0.9960324
-0.847461 3.143032 1.381298 0 1 0 255 255 0 255 0.2823741 0.2086282
-0.850934 3.143032 1.361602 0 1 0 255 255 0 255 0.2816342 0.2128247
-0.850934 3.143032 1.361602 -0.1448662 0 -0.9894513 255 255 0 255 0.9299314 0.9960324
-0.850934 0.278511 1.361602 -0.2022824 0 -0.9793273 255 255 0 255 0.9299314 0.3857169
-0.7869527 0.278511 1.344458 0 -1 0 255 255 0 255 0.1168827 0.3686378
-0.7801123 0.278511 1.363252 0 -1 0 255 255 0 255 0.1183401 0.372642
-0.7801123 0.278511 1.363252 0.3144825 0 0.9492633 255 255 0 255 0.5008627 0.3857169
-0.7801123 3.143032 1.363252 0.3692665 0 0.9293236 255 255 0 255 0.5008627 0.9960324
-0.7801123 3.143032 1.363252 0 1 0 255 255 0 255 0.2967235 0.212473
-0.7869527 3.143032 1.344458 0 1 0 255 255 0 255 0.2952661 0.2164773
-0.7869527 3.143032 1.344458 -0.3144827 0 -0.9492632 255 255 0 255 0.9162995 0.9960324
-0.7869527 0.278511 1.344458 -0.3692667 0 -0.9293234 255 255 0 255 0.9162995 0.3857169
-0.7269203 0.278511 1.316464 0 -1 0 255 255 0 255 0.1296732 0.3626735
-0.7169203 0.278511 1.333785 0 -1 0 255 255 0 255 0.1318038 0.3663638
-0.7169203 0.278511 1.333785 0.4745417 0 0.8802331 255 255 0 255 0.5143263 0.3857169
-0.7169203 3.143032 1.333785 0.5250326 0 0.8510821 255 255 0 255 0.5143263 0.9960324
-0.7169203 3.143032 1.333785 0 1 0 255 255 0 255 0.3101872 0.2187513
-0.7269203 3.143032 1.316464 0 1 0 255 255 0 255 0.3080566 0.2224417
-0.7269203 3.143032 1.316464 -0.4745418 0 -0.880233 255 255 0 255 0.903509 0.9960324
-0.7269203 0.278511 1.316464 -0.5250326 0 -0.8510821 255 255 0 255 0.903509 0.3857169
-0.672661 0.278511 1.278472 0 -1 0 255 255 0 255 0.1412337 0.3545787
-0.6598053 0.278511 1.293792 0 -1 0 255 255 0 255 0.1439727 0.357843
-0.6598053 0.278511 1.293792 0.5735773 0 0.8191515 255 255 0 255 0.5264953 0.3857169
-0.6598053 3.143032 1.293792 0.5735773 0 0.8191515 255 255 0 255 0.5264953 0.9960324
-0.6598053 3.143032 1.293792 0 1 0 255 255 0 255 0.3223561 0.2272722
-0.672661 3.143032 1.278472 0 1 0 255 255 0 255 0.3196171 0.2305363
-0.672661 3.143032 1.278472 -0.5735771 0 -0.8191516 255 255 0 255 0.8919485 0.9960324
-0.672661 0.278511 1.278472 -0.5735771 0 -0.8191516 255 255 0 255 0.8919485 0.3857169
-0.6258234 0.278511 1.231634 0 -1 0 255 255 0 255 0.1512129 0.3445995
-0.6105025 0.278511 1.24449 0 -1 0 255 255 0 255 0.1544771 0.3473386
-0.6105025 0.278511 1.24449 0.7469811 0 0.6648453 255 255 0 255 0.01447206 0.3857169
-0.6105025 3.143032 1.24449 0.7844565 0 0.6201839 255 255 0 255 0.01447206 0.9960324
-0.6598053 3.143032 1.293792 0.7071064 0 0.7071072 255 255 0 255 0.003967609 0.9960324
-0.6598053 0.278511 1.293792 0.7071064 0 0.7071072 255 255 0 255 0.003967609 0.3857169
-0.6105025 3.143032 1.24449 0 1 0 255 255 0 255 0.3328606 0.2377765
-0.6258234 3.143032 1.231634 0 1 0 255 255 0 255 0.3295963 0.2405156
-0.6258234 3.143032 1.231634 -0.7469812 0 -0.6648452 255 255 0 255 0.3885144 0.9960324
-0.6258234 0.278511 1.231634 -0.7844566 0 -0.6201837 255 255 0 255 0.3885144 0.3857169
-0.672661 0.278511 1.278472 -0.7071064 0 -0.7071072 255 255 0 255 0.3984936 0.3857169
-0.672661 3.143032 1.278472 -0.7071064 0 -0.7071072 255 255 0 255 0.3984936 0.9960324
-0.5878307 0.278511 1.177375 0 -1 0 255 255 0 255 0.1593076 0.333039
-0.5705101 0.278511 1.187375 0 -1 0 255 255 0 255 0.1629979 0.3351696
-0.5705101 0.278511 1.187375 0.8510822 0 0.5250325 255 255 0 255 0.02664101 0.3857169
-0.5705101 3.143032 1.187375 0.8802326 0 0.4745424 255 255 0 255 0.02664101 0.9960324
-0.5705101 3.143032 1.187375 0 1 0 255 255 0 255 0.3413814 0.2499455
-0.5878307 3.143032 1.177375 0 1 0 255 255 0 255 0.337691 0.2520761
-0.5878307 3.143032 1.177375 -0.8510823 0 -0.5250323 255 255 0 255 0.3769539 0.9960324
-0.5878307 0.278511 1.177375 -0.8802327 0 -0.4745423 255 255 0 255 0.3769539 0.3857169
-0.5598371 0.278511 1.117342 0 -1 0 255 255 0 255 0.1652719 0.3202485
-0.5410433 0.278511 1.124183 0 -1 0 255 255 0 255 0.1692762 0.3217059
-0.5410433 0.278511 1.124183 0.9293232 0 0.3692674 255 255 0 255 0.0401047 0.3857169
-0.5410433 3.143032 1.124183 0.9492633 0 0.3144825 255 255 0 255 0.0401047 0.9960324
-0.5410433 3.143032 1.124183 0 1 0 255 255 0 255 0.3476596 0.2634091
-0.5598371 3.143032 1.117342 0 1 0 255 255 0 255 0.3436553 0.2648666
-0.5598371 3.143032 1.117342 -0.9293233 0 -0.3692673 255 255 0 255 0.3641634 0.9960324
-0.5598371 0.278511 1.117342 -0.9492634 0 -0.3144822 255 255 0 255 0.3641634 0.3857169
-0.5426934 0.278511 1.053361 0 -1 0 255 255 0 255 0.1689246 0.3066167
-0.5229972 0.278511 1.056834 0 -1 0 255 255 0 255 0.1731211 0.3073566
-0.5229972 0.278511 1.056834 0.9793273 0 0.202282 255 255 0 255 0.05445405 0.3857169
-0.5229972 3.143032 1.056834 0.9894512 0 0.1448666 255 255 0 255 0.05445405 0.9960324
-0.5229972 3.143032 1.056834 0 1 0 255 255 0 255 0.3515045 0.2777586
-0.5426934 3.143032 1.053361 0 1 0 255 255 0 255 0.347308 0.2784985
-0.5426934 3.143032 1.053361 -0.9793273 0 -0.202282 255 255 0 255 0.3505315 0.9960324
-0.5426934 0.278511 1.053361 -0.9894512 0 -0.1448668 255 255 0 255 0.3505315 0.3857169
3 0 1 2 
3 0 2 3 
3 4 5 6 
3 4 6 7 
3 8 9 10 
3 8 10 11 
3 12 13 14 
3 12 14 15 
3 16 17 1 
3 16 1 0 
3 18 19 5 
3 18 5 4 
3 20 21 9 
3 20 9 8 
3 22 23 13 
3 22 13 12 
3 24 25 17 
3 24 17 16 
3 26 27 19 
3 26 19 18 
3 28 29 21 
3 28 21 20 
3 30 31 23 
3 30 23 22 
3 32 33 25 
3 32 25 24 
3 34 35 27 
3 34 27 26 
3 36 37 29 
3 36 29 28 
3 38 39 31 
3 38 31 30 
3 40 41 33 
3 40 33 32 
3 42 43 35 
3 42 35 34 
3 44 45 37 
3 44 37 36 
3 46 47 39 
3 46 39 38 
3 48 49 41 
3 48 41 40 
3 50 51 52 
3 50 52 53 
3 54 55 45 
3 54 45 44 
3 56 57 58 
3 56 58 59 
3 60 61 49 
3 60 49 48 
3 62 63 51 
3 62 51 50 
3 64 65 55 
3 64 55 54 
3 66 67 57 
3 66 57 56 
3 68 69 61 
3 68 61 60 
3 70 71 63 
3 70 63 62 
3 72 73 65 
3 72 65 64 
3 74 75 67 
3 74 67 66 
3 76 77 69 
3 76 69 68 
3 78 79 71 
3 78 71 70 
3 80 81 73 
3 80 73 72 
3 82 83 75 
3 82 75 74 
3 84 85 77 
3 84 77 76 
3 86 87 79 
3 86 79 78 
3 88 89 81 
3 88 81 80 
3 90 91 83 
3 90 83 82 
3 92 93 85 
3 92 85 84 
3 94 95 87 
3 94 87 86 
3 96 97 89 
3 96 89 88 
3 98 99 91 
3 98 91 90 
3 100 101 93 
3 100 93 92 
3 102 103 95 
3 102 95 94 
3 104 105 97 
3 104 97 96 
3 106 107 99 
3 106 99 98 
3 108 109 101 
3 108 101 100 
3 110 111 103 
3 110 103 102 
3 112 113 105 
3 112 105 104 
3 114 115 107 
3 114 107 106 
3 116 117 109 
3 116 109 108 
3 118 119 120 
3 118 120 121 
3 122 123 113 
3 122 113 112 
3 124 125 126 
3 124 126 127 
3 128 129 117 
3 128 117 116 
3 130 131 119 
3 130 119 118 
3 132 133 123 
3 132 123 122 
3 134 135 125 
3 134 125 124 
3 136 137 129 
3 136 129 128 
3 138 139 131 
3 138 131 130 
3 140 141 133 
3 140 133 132 
3 142 143 135 
3 142 135 134 
3 144 145 137 
3 144 137 136 
3 146 147 139 
3 146 139 138 
3 148 149 141 
3 148 141 140 
3 150 151 143 
3 150 143 142 
3 152 153 145 
3 152 145 144 
3 154 155 147 
3 154 147 146 
3 156 157 149 
3 156 149 148 
3 158 159 151 
3 158 151 150 
3 160 161 153 
3 160 153 152 
3 162 163 155 
3 162 155 154 
3 164 165 157 
3 164 157 156 
3 166 167 159 
3 166 159 158 
3 168 169 161 
3 168 161 160 
3 170 171 163 
3 170 163 162 
3 172 173 165 
3 172 165 164 
3 174 175 167 
3 174 167 166 
3 176 177 169 
3 176 169 168 
3 178 179 171 
3 178 171 170 
3 180 181 173 
3 180 173 172 
3 182 183 175 
3 182 175 174 
3 184 185 177 
3 184 177 176 
3 186 187 179 
3 186 179 178 
3 188 189 181 
3 188 181 180 
3 190 191 183 
3 190 183 182 
3 192 193 185 
3 192 185 184 
3 194 195 196 
3 194 196 197 
3 198 199 189 
3 198 189 188 
3 200 201 191 
3 200 191 190 
3 202 203 193 
3 202 193 192 
3 204 205 195 
3 204 195 194 
3 206 207 199 
3 206 199 198 
3 208 209 210 
3 208 210 211 
3 212 213 203 
3 212 203 202 
3 214 215 205 
3 214 205 204 
3 216 217 207 
3 216 207 206 
3 218 219 209 
3 218 209 208 
3 220 221 213 
3 220 213 212 
3 222 223 215 
3 222 215 214 
3 224 225 217 
3 224 217 216 
3 226 227 219 
3 226 219 218 
3 228 229 221 
3 228 221 220 
3 230 231 223 
3 230 223 222 
3 232 233 225 
3 232 225 224 
3 234 235 227 
3 234 227 226 
3 236 237 229 
3 236 229 228 
3 238 239 231 
3 238 231 230 
3 240 241 233 
3 240 233 232 
3 242 243 235 
3 242 235 234 
3 244 245 237 
3 244 237 236 
3 246 247 239 
3 246 239 238 
3 248 249 241 
3 248 241 240 
3 250 251 243 
3 250 243 242 
3 252 253 245 
3 252 245 244 
3 254 255 247 
3 254 247 246 
3 256 257 249 
3 256 249 248 
3 258 259 251 
3 258 251 250 
3 260 261 253 
3 260 253 252 
3 262 263 255 
3 262 255 254 
3 264 265 257 
3 264 257 256 
3 266 267 259 
3 266 259 258 
3 268 269 261 
3 268 261 260 
3 270 271 272 
3 270 272 273 
3 274 275 265 
3 274 265 264 
3 276 277 278 
3 276 278 279 
3 280 281 269 
3 280 269 268 
3 282 283 271 
3 282 271 270 
3 284 285 275 
3 284 275 274 
3 286 287 277 
3 286 277 276 
3 288 289 281 
3 288 281 280 
3 290 291 283 
3 290 283 282 
3 292 293 285 
3 292 285 284 
3 294 295 287 
3 294 287 286 
3 296 297 289 
3 296 289 288 
3 298 299 291 
3 298 291 290 
3 300 301 293 
3 300 293 292 
3 302 303 295 
3 302 295 294 
3 3 2 297 
3 3 297 296 
3 7 6 299 
3 7 299 298 
3 11 10 301 
3 11 301 300 
3 15 14 303 
3 15 303 302 
