ply
format ascii 1.0
comment VCGLIB generated
element vertex 24
property float x
property float y
property float z
property float nx
property float ny
property float nz
property uchar red
property uchar green
property uchar blue
property uchar alpha
property float texture_u
property float texture_v
element face 12
property list uchar int vertex_indices
end_header
0.4552624 0.1100002 4 0 8.34478e-08 1 255 255 0 255 0.9093522 0.5045091
0.4552624 3.11 4 0 8.34478e-08 1 255 255 0 255 0.9093522 0.995491
0.000772465 3.11 4 0 8.34478e-08 1 255 255 0 255 0.8349701 0.995491
0.000772465 0.1100002 4 0 8.34478e-08 1 255 255 0 255 0.8349701 0.5045091
0.4552622 0.1099998 -1.771457e-08 1 0 0 255 255 0 255 0.6591516 0.5045091
0.4552622 3.11 -2.561332e-07 1 0 0 255 255 0 255 0.6591516 0.995491
0.4552624 3.11 4 1 0 0 255 255 0 255 0.004509055 0.995491
0.4552624 0.1100002 4 1 0 0 255 255 0 255 0.004509055 0.5045091
0.0007722899 0.1099998 -2.362668e-07 0 -8.34478e-08 -1 255 255 0 255 0.9093522 0.004509091
0.0007722899 3.11 -4.746854e-07 0 -8.34478e-08 -1 255 255 0 255 0.9093522 0.495491
0.4552622 3.11 -2.561332e-07 0 -8.34478e-08 -1 255 255 0 255 0.8349701 0.495491
0.4552622 0.1099998 -1.771457e-08 0 -8.34478e-08 -1 255 255 0 255 0.8349701 0.004509091
0.000772465 0.1100002 4 -1 0 0 255 255 0 255 0.6591516 0.004509091
0.000772465 3.11 4 -1 0 0 255 255 0 255 0.6591516 0.495491
0.0007722899 3.11 -4.746854e-07 -1 0 0 255 255 0 255 0.004509055 0.495491
0.0007722899 0.1099998 -2.362668e-07 -1 0 0 255 255 0 255 0.004509055 0.004509091
0.4552624 3.11 4 6.352748e-22 1 -4.371139e-08 255 255 0 255 0.7425518 0.3408484
0.4552622 3.11 -2.561332e-07 6.352748e-22 1 -4.371139e-08 255 255 0 255 0.7425518 0.995491
0.0007722899 3.11 -4.746854e-07 6.352748e-22 1 -4.371139e-08 255 255 0 255 0.6681697 0.995491
0.000772465 3.11 4 6.352748e-22 1 -4.371139e-08 255 255 0 255 0.6681697 0.3408484
0.4552622 0.1099998 -1.771457e-08 -1.27055e-21 -1 1.03316e-07 255 255 0 255 0.825952 0.3408484
0.4552624 0.1100002 4 -1.27055e-21 -1 1.03316e-07 255 255 0 255 0.825952 0.995491
0.000772465 0.1100002 4 -1.27055e-21 -1 1.03316e-07 255 255 0 255 0.7515699 0.995491
0.0007722899 0.1099998 -2.362668e-07 -1.27055e-21 -1 1.03316e-07 255 255 0 255 0.7515699 0.3408484
3 0 1 2 
3 0 2 3 
3 4 5 6 
3 4 6 7 
3 8 9 10 
3 8 10 11 
3 12 13 14 
3 12 14 15 
3 16 17 18 
3 16 18 19 
3 20 21 22 
3 20 22 23 
