ply
format ascii 1.0
comment VCGLIB generated
element vertex 159
property float x
property float y
property float z
property float nx
property float ny
property float nz
property uchar red
property uchar green
property uchar blue
property uchar alpha
property float texture_u
property float texture_v
element face 154
property list uchar int vertex_indices
end_header
-2.286361 7.986154 2.28636 -0.3813603 0.8622796 0.333224 255 255 0 255 0.622867 0.825069
2.286361 7.986154 2.28636 0.3585498 0.8384867 0.410344 255 255 0 255 0.622867 0.746599
2.286361 7.986154 -2.286361 0.3813603 0.8622796 -0.3332241 255 255 0 255 0.703988 0.746599
-2.286361 7.986154 -2.286361 -0.3585497 0.8384867 -0.410344 255 255 0 255 0.703988 0.825069
-4.792158 6.202844 2.866492 0 -1 0 255 255 0 255 0.135866 0.893059
-4.792158 6.202844 -2.866492 0 -1 0 255 255 0 255 0.034162 0.893059
-2.866492 6.202844 -4.792158 0 -1 0 255 255 0 255 0 0.860013
2.866492 6.202844 -4.792158 0 -1 0 255 255 0 255 0 0.761632
4.792158 6.202844 -2.866492 0 -1 0 255 255 0 255 0.034162 0.728586
4.792158 6.202844 2.866492 0 -1 0 255 255 0 255 0.135866 0.728586
2.866492 6.202844 4.792159 0 -1 0 255 255 0 255 0.170028 0.761632
-2.866492 6.202844 4.792159 0 -1 0 255 255 0 255 0.170028 0.860013
-4.792158 6.202844 2.866492 -0.4679862 0.7878342 0.4003828 255 255 0 255 0.612576 0.86807
-2.866492 6.202844 4.792159 -0.3615215 0.7971381 0.4836043 255 255 0 255 0.578414 0.835025
2.866492 6.202844 4.792159 0.400383 0.7878342 0.4679859 255 255 0 255 0.578414 0.736644
4.792158 6.202844 2.866492 0.4836046 0.797138 0.3615213 255 255 0 255 0.612576 0.703598
4.792158 6.202844 -2.866492 0.4679862 0.7878341 -0.4003828 255 255 0 255 0.71428 0.703598
2.866492 6.202844 -4.792158 0.3615215 0.797138 -0.4836044 255 255 0 255 0.748442 0.736644
-2.866492 6.202844 -4.792158 -0.400383 0.7878341 -0.467986 255 255 0 255 0.748442 0.835025
-4.792158 6.202844 -2.866492 -0.4836046 0.797138 -0.3615213 255 255 0 255 0.71428 0.86807
-1.786274 6.376793 1.786275 0 0 1 255 255 0 255 0.692637 0.872079
1.786274 6.376793 1.786275 0 0 1 255 255 0 255 0.692637 0.932721
1.786274 13.4223 1.786275 0 0 1 255 255 0 255 0.585561 0.932721
-1.786274 13.4223 1.786275 0 0 1 255 255 0 255 0.585561 0.872079
-1.786274 13.4223 -0.8932266 -0.7071068 0 -0.7071068 255 255 0 255 0.31652 0.913851
-0.8932266 13.4223 -1.786274 -0.3826835 0 -0.9238796 255 255 0 255 0.31652 0.89775
-0.8932266 10.82298 -1.786274 -0.589177 0 -0.808004 255 255 0 255 0.364966 0.897751
-1.786274 6.376793 -0.8932266 -0.7071068 0 -0.7071068 255 255 0 255 0.447834 0.913851
-0.8932266 6.376793 -1.786274 -0.7071068 0 -0.7071068 255 255 0 255 0.447834 0.89775
0.8932266 13.4223 -1.786274 0.3826835 0 -0.9238796 255 255 0 255 0.31652 0.865542
1.786274 13.4223 -0.8932266 0.7071068 0 -0.7071068 255 255 0 255 0.31652 0.849442
1.786274 6.376793 -0.8932266 0.7071068 0 -0.7071068 255 255 0 255 0.447834 0.849442
0.8932266 10.82298 -1.786274 0.6358658 0 -0.7717996 255 255 0 255 0.364966 0.865543
0.8932266 6.376793 -1.786274 0.7071068 0 -0.7071068 255 255 0 255 0.447834 0.865543
1.786274 13.4223 -0.0893761 0.2165923 0.04375555 -0.9752811 255 255 0 255 0.84341 0.474828
1.786274 6.376793 -0.0893761 0.04819883 0 -0.9988378 255 255 0 255 0.814449 0.583359
1.786274 6.376793 -0.8932266 1 0 0 255 255 0 255 0.801509 0.580574
1.786274 13.4223 -0.8932266 1 0 0 255 255 0 255 0.826748 0.470868
-1.786274 13.4223 0.8484489 -0.2165923 0.04375555 0.9752811 255 255 0 255 0.579021 0.872877
-1.786274 6.376793 0.8484489 -0.04819883 0 0.9988378 255 255 0 255 0.483078 0.817889
-1.786274 6.376793 1.786275 -1 0 0 255 255 0 255 0.488999 0.803221
-1.786274 13.4223 1.786275 -1 0 0 255 255 0 255 0.58766 0.852906
-0.9104137 10.82298 -3.872949 0 0.4450966 -0.8954826 255 255 0 255 0.801509 0.624156
0.8760394 10.82298 -3.872949 0 0.8941632 -0.4477413 255 255 0 255 0.830712 0.624156
0.8932266 6.376793 -3.859808 0 -0.002955538 -0.9999956 255 255 0 255 0.830712 0.694463
-0.8932266 6.376793 -3.859808 0 -0.002955538 -0.9999956 255 255 0 255 0.801509 0.694463
-0.8932266 10.82298 -1.786274 0 1 0 255 255 0 255 0.801509 0.591368
0.8932266 10.82298 -1.786274 0 1 0 255 255 0 255 0.830712 0.591368
0.8932266 10.82298 -1.786274 0.9999896 0.00192667 -0.004131269 255 255 0 255 0.383108 0.593728
0.8932266 6.376793 -1.786274 0.9999896 0.00192667 -0.004131269 255 255 0 255 0.383108 0.664076
0.8932266 6.376793 -3.859808 0.9999896 0.00192667 -0.004131269 255 255 0 255 0.349193 0.664076
0.8760394 10.82298 -3.872949 0.9999896 0.00192667 -0.004131269 255 255 0 255 0.349193 0.593728
-0.8932266 6.376793 -1.786274 -0.9999896 -0.00192667 0.004131269 255 255 0 255 0.891652 0.225091
-0.8932266 10.82298 -1.786274 -0.9999896 -0.00192667 0.004131269 255 255 0 255 0.823972 0.225091
-0.9104137 10.82298 -3.872949 -0.9999896 -0.00192667 0.004131269 255 255 0 255 0.823972 0.189838
-0.8932266 6.376793 -3.859808 -0.9999896 -0.00192667 0.004131269 255 255 0 255 0.891652 0.189839
-1.786274 6.376793 -0.8932266 -1 0 0 255 255 0 255 0.466101 0.919866
-1.786274 6.376793 -0.0893761 -0.04819883 0 -0.9988378 255 255 0 255 0.466101 0.906075
-1.786274 13.4223 -0.0893761 -0.2746218 0.08593398 -0.9577047 255 255 0 255 0.573801 0.899993
-1.786274 13.4223 -0.8932266 -1 0 0 255 255 0 255 0.574326 0.919866
-3.589602 10.82298 -0.0893761 -0.1348626 0.02724468 -0.9904897 255 255 0 255 0.534319 0.879836
-3.589602 10.82298 0.8484489 -0.1263373 0.05448936 0.9904897 255 255 0 255 0.535611 0.873127
-3.589602 6.376793 -0.0893761 -0.1237618 0 -0.992312 255 255 0 255 0.466784 0.871818
-3.589602 6.376793 0.8484489 -0.2420253 0 0.97027 255 255 0 255 0.471094 0.849432
1.786274 13.4223 0.8484489 0.2746218 0.08593398 0.9577047 255 255 0 255 0.8738 0.475039
3.589602 10.82298 0.8484489 0.1348626 0.02724468 0.9904897 255 255 0 255 0.861572 0.519554
3.589602 10.82298 -0.0893761 0.1263373 0.05448936 -0.9904897 255 255 0 255 0.854976 0.519508
3.589602 6.376793 0.8484489 0.1237618 0 0.992312 255 255 0 255 0.868758 0.589738
3.589602 6.376793 -0.0893761 0.2420253 0 -0.97027 255 255 0 255 0.846749 0.589585
1.786274 6.376793 1.786275 1 0 0 255 255 0 255 0.91629 0.580922
1.786274 6.376793 0.8484489 0.04819883 0 0.9988378 255 255 0 255 0.901147 0.583961
1.786274 13.4223 1.786275 1 0 0 255 255 0 255 0.892682 0.470877
-4.031381 3.384804 8.061955 -0.05785681 0.6976708 0.7140785 255 255 0 255 0.084034 0.293244
-4.427001 0.605899 8.853116 0.3089145 0.1762636 0.9346138 255 255 0 255 0.037281 0.301527
4.427001 0.605899 8.853116 -0.1544573 0.2287323 0.9611579 255 255 0 255 0.020844 0.159341
4.031381 3.384804 8.061955 0.03982712 0.6353619 0.7711868 255 255 0 255 0.069053 0.157675
-4.427001 0.605899 -8.853117 0.1544572 0.2287326 -0.9611579 255 255 0 255 0.415125 0.262482
-4.031381 3.384804 -8.061955 -0.03982714 0.635362 -0.7711868 255 255 0 255 0.366913 0.264097
4.031381 3.384804 -8.061955 0.05785681 0.6976709 -0.7140784 255 255 0 255 0.35199 0.12855
4.427001 0.605899 -8.853117 -0.3089145 0.1762638 -0.9346138 255 255 0 255 0.398753 0.120304
8.061955 3.384804 4.031381 0.7140784 0.6976709 0.05785681 255 255 0 255 0.132889 0.081312
8.853117 0.605899 4.427001 0.9346138 0.1762639 -0.3089145 255 255 0 255 0.124321 0.036083
8.853117 0.605899 -4.427001 0.9611579 0.2287326 0.1544572 255 255 0 255 0.271297 0.020152
8.061955 3.384804 -4.031381 0.7711868 0.635362 -0.03982714 255 255 0 255 0.273017 0.066783
-8.061955 3.384804 -4.031381 -0.7140784 0.6976709 -0.0578568 255 255 0 255 0.303067 0.340419
-8.853117 0.605899 -4.427001 -0.9346138 0.1762638 0.3089145 255 255 0 255 0.311621 0.38565
-8.853117 0.605899 4.427001 -0.9611579 0.2287326 -0.1544572 255 255 0 255 0.164757 0.401578
-8.061955 3.384804 4.031381 -0.7711868 0.635362 0.03982714 255 255 0 255 0.163024 0.354945
-10.42252 0.605899 7.914966 -0.7071068 0 0.7071068 255 255 0 255 0.082467 0.417466
-7.914966 0.605899 10.42252 -0.7071068 0 0.7071068 255 255 0 255 0.03803 0.381416
-7.914966 2.149548 10.42252 -0.1924181 0.3299053 0.9241957 255 255 0 255 0.054298 0.362665
-10.42252 2.149548 7.914966 -0.6771368 0.7026187 0.2186613 255 255 0 255 0.09869 0.398694
7.914966 0.605899 10.42252 0.7071068 0 0.7071068 255 255 0 255 0.004459 0.079733
10.42252 0.605899 7.914966 0.7071068 0 0.7071068 255 255 0 255 0.041749 0.036772
10.42252 2.149548 7.914966 0.9241957 0.3299055 0.1924182 255 255 0 255 0.061124 0.05252
7.914966 2.149548 10.42252 0.2186613 0.7026186 0.6771369 255 255 0 255 0.023856 0.095435
-10.42252 2.149548 -7.914966 -0.9241957 0.3299055 -0.1924181 255 255 0 255 0.374791 0.369257
-7.914966 2.149548 -10.42252 -0.2186613 0.7026186 -0.6771368 255 255 0 255 0.412076 0.326378
-7.914966 0.605899 -10.42252 -0.7071068 0 -0.7071068 255 255 0 255 0.431461 0.342098
-10.42252 0.605899 -7.914966 -0.7071068 0 -0.7071068 255 255 0 255 0.394148 0.385022
7.914966 2.149548 -10.42252 0.1924181 0.3299055 -0.9241957 255 255 0 255 0.381767 0.059142
10.42252 2.149548 -7.914966 0.6771369 0.7026187 -0.2186614 255 255 0 255 0.337386 0.023078
10.42252 0.605899 -7.914966 0.7071068 0 -0.7071068 255 255 0 255 0.353625 0.004318
7.914966 0.605899 -10.42252 0.7071068 0 -0.7071068 255 255 0 255 0.398046 0.040401
-7.914966 0.605899 10.42252 0.451211 0.120546 0.8842383 255 255 0 255 0.029273 0.360051
-10.42252 0.605899 7.914966 -0.8842383 0.1205462 -0.4512109 255 255 0 255 0.106825 0.421767
10.42252 0.605899 7.914966 0.8842383 0.1205462 -0.4512109 255 255 0 255 0.063832 0.028315
7.914966 0.605899 10.42252 -0.4512111 0.120546 0.8842382 255 255 0 255 0 0.103293
-7.914966 0.605899 -10.42252 0.4512109 0.1205462 -0.8842383 255 255 0 255 0.435936 0.318545
-10.42252 0.605899 -7.914966 -0.8842383 0.1205462 0.4512109 255 255 0 255 0.372072 0.393459
10.42252 0.605899 -7.914966 0.8842383 0.1205462 0.4512109 255 255 0 255 0.329261 0
7.914966 0.605899 -10.42252 -0.4512109 0.1205462 -0.8842383 255 255 0 255 0.406792 0.061779
-2.866492 6.202844 4.792159 -0.324461 0.770601 0.5485427 255 255 0 255 0.146954 0.261072
-4.792158 6.202844 2.866492 -0.6103939 0.7753068 0.1622304 255 255 0 255 0.179808 0.287498
2.866492 6.202844 4.792159 0.1622305 0.7753067 0.6103941 255 255 0 255 0.138771 0.173937
4.792158 6.202844 2.866492 0.5485427 0.770601 0.324461 255 255 0 255 0.166145 0.142202
4.792158 6.202844 -2.866492 0.6103939 0.7753068 -0.1622305 255 255 0 255 0.256222 0.13421
2.866492 6.202844 -4.792158 0.324461 0.7706011 -0.5485427 255 255 0 255 0.289054 0.16072
-2.866492 6.202844 -4.792158 -0.1622305 0.7753067 -0.610394 255 255 0 255 0.297189 0.247775
-4.792158 6.202844 -2.866492 -0.5485427 0.7706012 -0.3244609 255 255 0 255 0.269833 0.279516
3.176831 13.34274 -1.834144 0.8181105 0 -0.5750611 255 255 0 255 0.891871 0.681043
1.834144 13.34274 -3.176831 0.420974 0 -0.9070727 255 255 0 255 0.891871 0.656742
1.834144 14.84635 -3.176831 0.5750611 0 -0.8181105 255 255 0 255 0.916236 0.656742
3.176831 14.84635 -1.834144 0.9070727 0 -0.420974 255 255 0 255 0.916236 0.681043
0 13.34274 -3.668289 -0.08896229 0 -0.996035 255 255 0 255 0.891871 0.623548
0 14.84635 -3.668289 0.08896229 0 -0.996035 255 255 0 255 0.916236 0.623548
-1.834144 13.34274 -3.176831 -0.2588191 0 -0.9659258 255 255 0 255 0.891871 0.590353
-1.834144 14.84635 -3.176831 -0.2588191 0 -0.9659258 255 255 0 255 0.916236 0.590353
-1.834144 13.34274 -3.176831 -0.7071068 0 -0.7071068 255 255 0 255 0.89187 0.953112
-3.176831 13.34274 -1.834144 -0.9070727 0 -0.420974 255 255 0 255 0.891871 0.928812
-3.176831 14.84635 -1.834144 -0.8181105 0 -0.5750611 255 255 0 255 0.916235 0.928812
-1.834144 14.84635 -3.176831 -0.7071068 0 -0.7071068 255 255 0 255 0.916235 0.953112
-3.668289 13.34274 0 -0.996035 0 0.08896229 255 255 0 255 0.891871 0.895617
-3.668289 14.84635 0 -0.996035 0 -0.08896229 255 255 0 255 0.916235 0.895617
-3.176831 13.34274 1.834145 -0.8181105 0 0.5750611 255 255 0 255 0.891871 0.862422
-3.176831 14.84635 1.834145 -0.9070727 0 0.420974 255 255 0 255 0.916236 0.862422
-1.834144 13.34274 3.176831 -0.4209741 0 0.9070727 255 255 0 255 0.891871 0.838122
-1.834144 14.84635 3.176831 -0.5750611 0 0.8181105 255 255 0 255 0.916236 0.838122
0 13.34274 3.668289 0.08896238 0 0.996035 255 255 0 255 0.891871 0.804927
0 14.84635 3.668289 -0.08896238 0 0.996035 255 255 0 255 0.916236 0.804927
1.834144 13.34274 3.176831 0.5750611 0 0.8181105 255 255 0 255 0.891871 0.771733
1.834144 14.84635 3.176831 0.4209741 0 0.9070727 255 255 0 255 0.916236 0.771732
3.176831 13.34274 1.834145 0.9070727 0 0.420974 255 255 0 255 0.891871 0.747432
3.176831 14.84635 1.834145 0.8181104 0 0.5750612 255 255 0 255 0.916236 0.747432
3.668289 13.34274 0 0.996035 0 -0.08896229 255 255 0 255 0.891871 0.714237
3.668289 14.84635 0 0.996035 0 0.08896229 255 255 0 255 0.916236 0.714237
1.834144 13.34274 -3.176831 0 -1 0 255 255 0 255 0.023812 0.336288
3.176831 13.34274 -1.834144 0 -1 0 255 255 0 255 0.025522 0.34246
0 13.34274 0 0 -1 0 255 255 0 255 0.012761 0.34246
0 13.34274 -3.668289 0 -1 0 255 255 0 255 0.019141 0.33177
-1.834144 13.34274 -3.176831 0 -1 0 255 255 0 255 0.012761 0.330116
-3.176831 13.34274 -1.834144 0 -1 0 255 255 0 255 0.00638 0.33177
-3.668289 13.34274 0 0 -1 0 255 255 0 255 0.00171 0.336288
-3.176831 13.34274 1.834145 0 -1 0 255 255 0 255 0 0.34246
-1.834144 13.34274 3.176831 0 -1 0 255 255 0 255 0.00171 0.348632
0 13.34274 3.668289 0 -1 0 255 255 0 255 0.006381 0.35315
1.834144 13.34274 3.176831 0 -1 0 255 255 0 255 0.012761 0.354804
3.176831 13.34274 1.834145 0 -1 0 255 255 0 255 0.019141 0.35315
3.668289 13.34274 0 0 -1 0 255 255 0 255 0.023812 0.348632
3 0 1 2 
3 0 2 3 
3 4 5 6 
3 4 6 7 
3 4 7 8 
3 4 8 9 
3 4 9 10 
3 4 10 11 
3 12 13 0 
3 13 14 1 
3 13 1 0 
3 14 15 1 
3 15 16 2 
3 15 2 1 
3 16 17 2 
3 17 18 3 
3 17 3 2 
3 18 19 3 
3 19 12 0 
3 19 0 3 
3 20 21 22 
3 20 22 23 
3 24 25 26 
3 24 26 27 
3 27 26 28 
3 29 30 31 
3 29 31 32 
3 32 31 33 
3 26 25 29 
3 26 29 32 
3 34 35 36 
3 34 36 37 
3 38 39 40 
3 38 40 41 
3 42 43 44 
3 42 44 45 
3 46 47 43 
3 46 43 42 
3 48 49 50 
3 48 50 51 
3 52 53 54 
3 52 54 55 
3 56 57 58 
3 56 58 59 
3 58 60 61 
3 58 61 38 
3 60 62 63 
3 60 63 61 
3 64 65 66 
3 64 66 34 
3 65 67 68 
3 65 68 66 
3 69 70 64 
3 69 64 71 
3 58 57 60 
3 57 62 60 
3 39 38 61 
3 39 61 63 
3 64 70 65 
3 70 67 65 
3 35 34 66 
3 35 66 68 
3 72 73 74 
3 72 74 75 
3 76 77 78 
3 76 78 79 
3 80 81 82 
3 80 82 83 
3 84 85 86 
3 84 86 87 
3 88 89 90 
3 88 90 91 
3 92 93 94 
3 92 94 95 
3 96 97 98 
3 96 98 99 
3 100 101 102 
3 100 102 103 
3 73 72 90 
3 73 90 104 
3 72 87 91 
3 72 91 90 
3 87 86 105 
3 87 105 91 
3 81 80 94 
3 81 94 106 
3 80 75 95 
3 80 95 94 
3 75 74 107 
3 75 107 95 
3 84 77 97 
3 84 97 96 
3 77 76 108 
3 77 108 97 
3 85 84 96 
3 85 96 109 
3 78 83 101 
3 78 101 100 
3 83 82 110 
3 83 110 101 
3 79 78 100 
3 79 100 111 
3 87 72 112 
3 87 112 113 
3 72 75 114 
3 72 114 112 
3 75 80 115 
3 75 115 114 
3 80 83 116 
3 80 116 115 
3 83 78 117 
3 83 117 116 
3 78 77 118 
3 78 118 117 
3 77 84 119 
3 77 119 118 
3 84 87 113 
3 84 113 119 
3 120 121 122 
3 120 122 123 
3 121 124 125 
3 121 125 122 
3 124 126 127 
3 124 127 125 
3 128 129 130 
3 128 130 131 
3 129 132 133 
3 129 133 130 
3 132 134 135 
3 132 135 133 
3 134 136 137 
3 134 137 135 
3 136 138 139 
3 136 139 137 
3 138 140 141 
3 138 141 139 
3 140 142 143 
3 140 143 141 
3 142 144 145 
3 142 145 143 
3 144 120 123 
3 144 123 145 
3 146 147 148 
3 149 146 148 
3 150 149 148 
3 151 150 148 
3 152 151 148 
3 153 152 148 
3 154 153 148 
3 155 154 148 
3 156 155 148 
3 157 156 148 
3 158 157 148 
3 147 158 148 
