ply
format ascii 1.0
comment VCGLIB generated
element vertex 68
property float x
property float y
property float z
property float nx
property float ny
property float nz
property uchar red
property uchar green
property uchar blue
property uchar alpha
property float texture_u
property float texture_v
element face 76
property list uchar int vertex_indices
end_header
-2.286361 7.986154 2.28636 -0.2579675 0.9310769 0.2579703 254 254 0 255 0.622867 0.825069
2.286361 7.986154 2.28636 0.2579744 0.9310748 0.2579712 254 254 0 255 0.622867 0.746599
2.286361 7.986154 -2.286361 0.2579675 0.9310768 -0.2579705 254 254 0 255 0.703988 0.746599
-2.286361 7.986154 -2.286361 -0.2579744 0.9310746 -0.2579714 254 254 0 255 0.703988 0.825069
-4.792158 6.202844 2.866492 0 -1 0 254 254 0 255 0.135866 0.893059
-4.792158 6.202844 -2.866492 0 -1 0 254 254 0 255 0.034162 0.893059
-2.866492 6.202844 -4.792158 0 -1 0 254 254 0 255 0 0.860013
2.866492 6.202844 -4.792158 0 -1 0 254 254 0 255 0 0.761632
4.792158 6.202844 -2.866492 0 -1 0 254 254 0 255 0.034162 0.728586
4.792158 6.202844 2.866492 0 -1 0 254 254 0 255 0.135866 0.728586
2.866492 6.202844 4.792159 0 -1 0 254 254 0 255 0.170028 0.761632
-2.866492 6.202844 4.792159 0 -1 0 254 254 0 255 0.170028 0.860013
-4.792158 6.202844 2.866492 -0.5353319 0.8191769 0.2058375 254 254 0 255 0.612576 0.86807
-2.866492 6.202844 4.792159 -0.2058346 0.8191772 0.5353325 254 254 0 255 0.578414 0.835025
2.866492 6.202844 4.792159 0.2058374 0.819177 0.5353318 254 254 0 255 0.578414 0.736644
4.792158 6.202844 2.866492 0.5353327 0.819177 0.2058347 254 254 0 255 0.612576 0.703598
4.792158 6.202844 -2.866492 0.535332 0.8191768 -0.2058375 254 254 0 255 0.71428 0.703598
2.866492 6.202844 -4.792158 0.2058347 0.819177 -0.5353328 254 254 0 255 0.748442 0.736644
-2.866492 6.202844 -4.792158 -0.2058375 0.8191769 -0.535332 254 254 0 255 0.748442 0.835025
-4.792158 6.202844 -2.866492 -0.5353328 0.819177 -0.2058348 254 254 0 255 0.71428 0.86807
-4.031381 3.384804 8.061955 -0.06017192 0.6712345 0.7387988 254 254 0 255 0.084034 0.293244
-4.427001 0.605899 8.853116 0.2630258 0.2063676 0.9424595 254 254 0 255 0.037281 0.301527
4.427001 0.605899 8.853116 -0.2292159 0.2362066 0.9442809 254 254 0 255 0.020844 0.159341
4.031381 3.384804 8.061955 0.06614637 0.6653599 0.7435865 254 254 0 255 0.069053 0.157675
-4.427001 0.605899 -8.853117 0.2292158 0.2362069 -0.9442809 254 254 0 255 0.415125 0.262482
-4.031381 3.384804 -8.061955 -0.06614639 0.6653601 -0.7435864 254 254 0 255 0.366913 0.264097
4.031381 3.384804 -8.061955 0.0601719 0.6712346 -0.7387987 254 254 0 255 0.35199 0.12855
4.427001 0.605899 -8.853117 -0.2630257 0.2063679 -0.9424595 254 254 0 255 0.398753 0.120304
8.061955 3.384804 4.031381 0.7387987 0.6712346 0.06017192 254 254 0 255 0.132889 0.081312
8.853117 0.605899 4.427001 0.9424595 0.2063681 -0.2630257 254 254 0 255 0.124321 0.036083
8.853117 0.605899 -4.427001 0.9442809 0.2362071 0.229216 254 254 0 255 0.271297 0.020152
8.061955 3.384804 -4.031381 0.7435864 0.6653601 -0.06614639 254 254 0 255 0.273017 0.066783
-8.061955 3.384804 -4.031381 -0.7387987 0.6712346 -0.06017192 254 254 0 255 0.303067 0.340419
-8.853117 0.605899 -4.427001 -0.9424595 0.2063681 0.2630257 254 254 0 255 0.311621 0.38565
-8.853117 0.605899 4.427001 -0.9442809 0.2362071 -0.229216 254 254 0 255 0.164757 0.401578
-8.061955 3.384804 4.031381 -0.7435864 0.6653601 0.06614641 254 254 0 255 0.163024 0.354945
-10.42252 0.605899 7.914966 -0.7071069 0 0.7071067 254 254 0 255 0.082467 0.417466
-7.914966 0.605899 10.42252 -0.7071066 0 0.707107 254 254 0 255 0.03803 0.381416
-7.914966 2.149548 10.42252 -0.1787541 0.5039909 0.8450091 254 254 0 255 0.054298 0.362665
-10.42252 2.149548 7.914966 -0.8585217 0.4927086 0.1420518 254 254 0 255 0.09869 0.398694
7.914966 0.605899 10.42252 0.7071068 0 0.7071068 254 254 0 255 0.004459 0.079733
10.42252 0.605899 7.914966 0.7071069 0 0.7071066 254 254 0 255 0.041749 0.036772
10.42252 2.149548 7.914966 0.845009 0.5039909 0.1787541 254 254 0 255 0.061124 0.05252
7.914966 2.149548 10.42252 0.1420515 0.4927087 0.8585217 254 254 0 255 0.023856 0.095435
-10.42252 2.149548 -7.914966 -0.845009 0.5039909 -0.178754 254 254 0 255 0.374791 0.369257
-7.914966 2.149548 -10.42252 -0.1420515 0.4927087 -0.8585217 254 254 0 255 0.412076 0.326378
-7.914966 0.605899 -10.42252 -0.7071068 0 -0.7071068 254 254 0 255 0.431461 0.342098
-10.42252 0.605899 -7.914966 -0.7071069 0 -0.7071066 254 254 0 255 0.394148 0.385022
7.914966 2.149548 -10.42252 0.1787541 0.5039909 -0.845009 254 254 0 255 0.381767 0.059142
10.42252 2.149548 -7.914966 0.8585217 0.4927086 -0.1420518 254 254 0 255 0.337386 0.023078
10.42252 0.605899 -7.914966 0.7071069 0 -0.7071067 254 254 0 255 0.353625 0.004318
7.914966 0.605899 -10.42252 0.7071066 0 -0.707107 254 254 0 255 0.398046 0.040401
-7.914966 0.605899 10.42252 0.4103256 0 0.9119391 254 254 0 255 0.029273 0.360051
-10.42252 0.605899 7.914966 -0.8739605 0.07035539 -0.4808775 254 254 0 255 0.106825 0.421767
10.42252 0.605899 7.914966 0.9119393 0 -0.4103252 254 254 0 255 0.063832 0.028315
7.914966 0.605899 10.42252 -0.480878 0.07035507 0.8739603 254 254 0 255 0 0.103293
-7.914966 0.605899 -10.42252 0.4808779 0.07035521 -0.8739603 254 254 0 255 0.435936 0.318545
-10.42252 0.605899 -7.914966 -0.9119393 0 0.4103252 254 254 0 255 0.372072 0.393459
10.42252 0.605899 -7.914966 0.8739605 0.07035539 0.4808775 254 254 0 255 0.329261 0
7.914966 0.605899 -10.42252 -0.4103253 0 -0.9119393 254 254 0 255 0.406792 0.061779
-2.866492 6.202844 4.792159 -0.2492081 0.7757308 0.5797734 254 254 0 255 0.146954 0.261072
-4.792158 6.202844 2.866492 -0.5797712 0.7757307 0.2492134 254 254 0 255 0.179808 0.287498
2.866492 6.202844 4.792159 0.2492136 0.7757306 0.5797712 254 254 0 255 0.138771 0.173937
4.792158 6.202844 2.866492 0.5797734 0.7757308 0.2492081 254 254 0 255 0.166145 0.142202
4.792158 6.202844 -2.866492 0.5797712 0.7757307 -0.2492135 254 254 0 255 0.256222 0.13421
2.866492 6.202844 -4.792158 0.2492081 0.7757308 -0.5797733 254 254 0 255 0.289054 0.16072
-2.866492 6.202844 -4.792158 -0.2492134 0.7757307 -0.5797711 254 254 0 255 0.297189 0.247775
-4.792158 6.202844 -2.866492 -0.5797734 0.7757309 -0.2492081 254 254 0 255 0.269833 0.279516
3 0 1 2 
3 0 2 3 
3 4 5 6 
3 4 6 7 
3 4 7 8 
3 4 8 9 
3 4 9 10 
3 4 10 11 
3 12 13 0 
3 13 14 1 
3 13 1 0 
3 14 15 1 
3 15 16 2 
3 15 2 1 
3 16 17 2 
3 17 18 3 
3 17 3 2 
3 18 19 3 
3 19 12 0 
3 19 0 3 
3 20 21 22 
3 20 22 23 
3 24 25 26 
3 24 26 27 
3 28 29 30 
3 28 30 31 
3 32 33 34 
3 32 34 35 
3 36 37 38 
3 36 38 39 
3 40 41 42 
3 40 42 43 
3 44 45 46 
3 44 46 47 
3 48 49 50 
3 48 50 51 
3 21 20 38 
3 21 38 52 
3 20 35 39 
3 20 39 38 
3 35 34 53 
3 35 53 39 
3 29 28 42 
3 29 42 54 
3 28 23 43 
3 28 43 42 
3 23 22 55 
3 23 55 43 
3 32 25 45 
3 32 45 44 
3 25 24 56 
3 25 56 45 
3 33 32 44 
3 33 44 57 
3 26 31 49 
3 26 49 48 
3 31 30 58 
3 31 58 49 
3 27 26 48 
3 27 48 59 
3 35 20 60 
3 35 60 61 
3 20 23 62 
3 20 62 60 
3 23 28 63 
3 23 63 62 
3 28 31 64 
3 28 64 63 
3 31 26 65 
3 31 65 64 
3 26 25 66 
3 26 66 65 
3 25 32 67 
3 25 67 66 
3 32 35 61 
3 32 61 67 
