ply
format ascii 1.0
comment VCGLIB generated
element vertex 280
property float x
property float y
property float z
property float nx
property float ny
property float nz
property uchar red
property uchar green
property uchar blue
property uchar alpha
property float texture_u
property float texture_v
element face 330
property list uchar int vertex_indices
end_header
-10.9037 9.810684 -2.557986 -0.4597008 0 -0.8880739 255 255 0 255 0.371487 0.466761
10.9037 9.810684 -2.557986 0.7192546 0 -0.6947466 255 255 0 255 0.02253 0.466761
10.9037 8.958133 -2.329546 0.7192547 -0.3473737 -0.6016678 255 255 0 255 0.02253 0.453099
-10.9037 8.958133 -2.329546 -0.9004797 -0.2174494 -0.3766327 255 255 0 255 0.371487 0.453099
-10.9037 8.334024 -1.705435 -0.4597007 -0.7690946 -0.444037 255 255 0 255 0.371487 0.439437
10.9037 8.334024 -1.705435 0.7192545 -0.6016684 -0.3473734 255 255 0 255 0.02253 0.439437
-10.9037 8.334024 -0.0003333786 -0.4597006 -0.7690945 0.4440371 255 255 0 255 0.371487 0.576057
10.9037 8.334024 -0.0003333786 0.7192544 -0.6016684 0.3473735 255 255 0 255 0.02253 0.576057
10.9037 8.958133 0.6237774 0.7192547 -0.3473738 0.6016678 255 255 0 255 0.02253 0.562395
-10.9037 8.958133 0.6237774 -0.9004797 -0.2174494 0.3766327 255 255 0 255 0.371487 0.562395
-10.9037 9.810684 0.8522177 -0.4597008 0 0.8880739 255 255 0 255 0.371487 0.548733
10.9037 9.810684 0.8522177 0.7192546 0 0.6947466 255 255 0 255 0.02253 0.548733
-10.9037 11.28735 -0.0003333786 -0.4597007 0.7690934 0.444039 255 255 0 255 0.371487 0.521409
-10.9037 10.66324 0.6237774 -0.9004796 0.2174489 0.3766331 255 255 0 255 0.371487 0.535071
10.9037 10.66324 0.6237774 0.7192546 0.3473729 0.6016685 255 255 0 255 0.02253 0.535071
10.9037 11.28735 -0.0003333786 0.7192545 0.6016675 0.347375 255 255 0 255 0.02253 0.521409
-10.9037 11.28735 -1.705435 -0.4597007 0.7690935 -0.4440389 255 255 0 255 0.371487 0.494085
-10.9037 11.51579 -0.852884 -0.9004799 0.4348979 1.34182e-08 255 255 0 255 0.371487 0.507747
10.9037 11.51579 -0.852884 0.719255 0.6947462 2.143547e-08 255 255 0 255 0.02253 0.507747
10.9037 11.28735 -1.705435 0.7192545 0.6016675 -0.3473749 255 255 0 255 0.02253 0.494085
10.9037 11.06517 -1.577163 0.9004796 0.3766333 -0.2174489 255 255 0 255 0.01824 0.494085
10.9037 11.25924 -0.852884 0.459701 0.8880738 4.110047e-08 255 255 0 255 0.01824 0.507747
10.9037 9.810684 -2.301441 0.9004796 -6.709096e-08 -0.4348983 255 255 0 255 0.01824 0.466761
10.9037 10.66324 -2.329546 0.7192546 0.3473729 -0.6016685 255 255 0 255 0.02253 0.480423
10.9037 10.53496 -2.107371 0.459701 0.4440376 -0.769094 255 255 0 255 0.01824 0.480423
10.9037 8.556198 -1.577163 0.9004796 -0.3766332 -0.2174488 255 255 0 255 0.01824 0.439437
10.9037 9.086405 -2.107371 0.459701 -0.4440374 -0.7690942 255 255 0 255 0.01824 0.453099
10.9037 8.556198 -0.1286056 0.9004796 -0.3766332 0.2174489 255 255 0 255 0.01824 0.576057
10.9037 9.086405 0.4016026 0.4597009 -0.4440375 0.7690942 255 255 0 255 0.01824 0.562395
10.9037 9.810684 0.5956727 0.9004796 -7.380006e-08 0.4348983 255 255 0 255 0.01824 0.548733
10.9037 11.06517 -0.1286056 0.9004796 0.3766332 0.217449 255 255 0 255 0.01824 0.521409
10.9037 10.53496 0.4016026 0.459701 0.4440377 0.769094 255 255 0 255 0.01824 0.535071
-10.9037 9.810684 -2.301441 -0.9004796 -6.709096e-08 -0.4348983 255 255 0 255 0.375774 0.466761
-10.9037 10.53496 -2.107371 -0.459701 0.4440376 -0.769094 255 255 0 255 0.375774 0.480423
-10.9037 10.66324 -2.329546 -0.9004796 0.2174489 -0.3766331 255 255 0 255 0.371487 0.480423
-10.9037 8.556198 -1.577163 -0.9004796 -0.3766332 -0.2174488 255 255 0 255 0.375774 0.439437
-10.9037 9.086405 -2.107371 -0.459701 -0.4440374 -0.7690942 255 255 0 255 0.375774 0.453099
-10.9037 8.556198 -0.1286056 -0.9004796 -0.3766332 0.2174489 255 255 0 255 0.375774 0.576058
-10.9037 9.086405 0.4016026 -0.4597009 -0.4440375 0.7690941 255 255 0 255 0.375774 0.562395
-10.9037 9.810684 0.5956727 -0.9004796 -7.380006e-08 0.4348983 255 255 0 255 0.375774 0.548733
-10.9037 11.06517 -0.1286056 -0.9004796 0.3766332 0.217449 255 255 0 255 0.375774 0.521409
-10.9037 10.53496 0.4016026 -0.459701 0.4440377 0.769094 255 255 0 255 0.375774 0.535071
-10.9037 11.06517 -1.577163 -0.9004796 0.3766333 -0.2174489 255 255 0 255 0.375774 0.494085
-10.9037 11.25924 -0.852884 -0.459701 0.8880738 4.110047e-08 255 255 0 255 0.375774 0.507747
11.33582 11.06517 -1.577163 0.4597006 0.7690949 -0.4440364 255 255 0 255 0.010095 0.494085
11.33582 11.25924 -0.852884 0.9004797 0.4348982 2.012729e-08 255 255 0 255 0.010095 0.507747
11.33582 9.810684 -2.301441 0.4597008 -1.370015e-07 -0.8880739 255 255 0 255 0.010095 0.466761
11.33582 10.53496 -2.107371 0.9004797 0.2174494 -0.3766326 255 255 0 255 0.010095 0.480423
11.33582 8.556198 -1.577163 0.4597008 -0.769095 -0.4440362 255 255 0 255 0.010095 0.439437
11.33582 9.086405 -2.107371 0.9004797 -0.2174493 -0.3766327 255 255 0 255 0.010095 0.453099
11.33582 8.556198 -0.1286056 0.4597008 -0.7690949 0.4440364 255 255 0 255 0.010095 0.576057
10.9037 8.362128 -0.852884 0.4472136 -0.8639503 0.2314948 255 255 0 255 0.01824 0.589719
11.33582 8.362128 -0.852884 0.8944272 -0.4319752 0.1157474 255 255 0 255 0.010095 0.589719
11.33582 9.810684 0.5956727 0.4597009 -1.507017e-07 0.8880739 255 255 0 255 0.010095 0.548733
11.33582 9.086405 0.4016026 0.9004796 -0.2174494 0.3766327 255 255 0 255 0.010095 0.562395
11.33582 11.06517 -0.1286056 0.4597007 0.7690948 0.4440366 255 255 0 255 0.010095 0.521409
11.33582 10.53496 0.4016026 0.9004797 0.2174495 0.3766326 255 255 0 255 0.010095 0.535071
-11.33582 9.810684 -2.301441 -0.4597008 -1.370015e-07 -0.8880739 255 255 0 255 0.383911 0.466761
-11.33582 10.53496 -2.107371 -0.9004797 0.2174494 -0.3766326 255 255 0 255 0.383911 0.480423
-11.33582 8.556198 -1.577163 -0.4597008 -0.769095 -0.4440362 255 255 0 255 0.38391 0.439437
-11.33582 9.086405 -2.107371 -0.9004797 -0.2174493 -0.3766327 255 255 0 255 0.38391 0.453099
-11.33582 8.556198 -0.1286056 -0.4597008 -0.7690948 0.4440364 255 255 0 255 0.383911 0.576057
-11.33582 9.086405 0.4016026 -0.9004796 -0.2174494 0.3766327 255 255 0 255 0.383911 0.562396
-11.33582 9.810684 0.5956727 -0.4597009 -1.507017e-07 0.8880739 255 255 0 255 0.383911 0.548733
-11.33582 11.06517 -0.1286056 -0.4597007 0.7690948 0.4440366 255 255 0 255 0.38391 0.521409
-11.33582 10.53496 0.4016026 -0.9004797 0.2174495 0.3766326 255 255 0 255 0.38391 0.535071
-11.33582 11.06517 -1.577163 -0.4597006 0.7690949 -0.4440364 255 255 0 255 0.383911 0.494085
-11.33582 11.25924 -0.852884 -0.9004797 0.4348982 2.012729e-08 255 255 0 255 0.383911 0.507747
11.33582 10.66197 -1.344372 1 0 0 255 255 0 255 0 0.494085
11.33582 10.79366 -0.852884 1 0 0 255 255 0 255 0 0.507747
11.33582 9.810684 -1.835859 1 0 0 255 255 0 255 0 0.466761
11.33582 10.30217 -1.704165 1 0 0 255 255 0 255 0 0.480423
11.33582 8.959406 -1.344372 1 0 0 255 255 0 255 0 0.439437
11.33582 9.319196 -1.704165 1 0 0 255 255 0 255 0 0.453099
11.33582 8.959406 -0.3613964 1 0 0 255 255 0 255 0 0.576057
11.33582 8.82771 -0.852884 1 0 0 255 255 0 255 0 0.589719
11.33582 9.810684 0.1300908 1 0 0 255 255 0 255 0 0.548733
11.33582 9.319196 -0.001602879 1 0 0 255 255 0 255 0 0.562395
11.33582 10.66197 -0.3613967 1 0 0 255 255 0 255 0 0.521409
11.33582 10.30217 -0.001602879 1 0 0 255 255 0 255 0 0.535071
-11.33582 9.810684 -1.835859 -1 0 0 255 255 0 255 0.394007 0.466761
-11.33582 10.30217 -1.704165 -1 0 0 255 255 0 255 0.394007 0.480423
-11.33582 8.959406 -1.344372 -1 0 0 255 255 0 255 0.394007 0.439437
-11.33582 9.319196 -1.704165 -1 0 0 255 255 0 255 0.394007 0.453099
-11.33582 8.959406 -0.3613967 -1 0 0 255 255 0 255 0.394007 0.576058
-11.33582 9.319196 -0.001602879 -1 0 0 255 255 0 255 0.394007 0.562396
-11.33582 9.810684 0.1300908 -1 0 0 255 255 0 255 0.394007 0.548733
-11.33582 10.66197 -0.3613964 -1 0 0 255 255 0 255 0.394007 0.521409
-11.33582 10.30217 -0.001602879 -1 0 0 255 255 0 255 0.394007 0.535071
-11.33582 10.66197 -1.344372 -1 0 0 255 255 0 255 0.394007 0.494085
-11.33582 10.79366 -0.852884 -1 0 0 255 255 0 255 0.394007 0.507747
11.60509 10.66197 -1.344371 0.3177549 0.8211424 -0.4740855 255 255 0 255 0.900628 0.037859
11.60509 10.79366 -0.852884 0.2535851 0.9656907 0.05599963 255 255 0 255 0.900628 0.04543
11.87431 10.5921 -0.852884 0.5993315 0.800501 1.524009e-08 255 255 0 255 0.894933 0.04543
11.87431 10.48741 -1.24359 0.5993327 0.6932536 -0.4002497 255 255 0 255 0.894933 0.037859
11.60509 9.810684 -1.835859 0.4201522 -5.341915e-09 -0.9074537 255 255 0 255 0.900628 0.022715
11.60509 10.30217 -1.704165 0.2535861 0.434347 -0.8643129 255 255 0 255 0.900628 0.030287
11.87431 10.20139 -1.529607 0.5993325 0.4002496 -0.6932538 255 255 0 255 0.894933 0.030287
11.87431 9.810684 -1.634296 0.5993311 0 -0.8005012 255 255 0 255 0.894933 0.022715
11.60509 8.959406 -1.344371 0.4201525 -0.7858784 -0.4537258 255 255 0 255 0.900628 0.007572
11.60509 9.319196 -1.704165 0.2110145 -0.4887432 -0.8465241 255 255 0 255 0.900628 0.015143
11.87431 9.41998 -1.529607 0.5993317 -0.4002514 -0.6932535 255 255 0 255 0.894933 0.015143
11.87431 9.133964 -1.24359 0.5993319 -0.6932545 -0.4002494 255 255 0 255 0.894933 0.007572
11.60509 8.959406 -0.3613967 0.4201527 -0.7858782 0.4537259 255 255 0 255 0.900628 0.083289
11.60509 8.82771 -0.852884 0.204129 -0.9455866 0.2533722 255 255 0 255 0.900628 0.090861
11.87431 9.029276 -0.852884 0.5860039 -0.7826976 0.2097237 255 255 0 255 0.894933 0.090861
11.87431 9.133964 -0.4621784 0.5993321 -0.6932543 0.4002493 255 255 0 255 0.894933 0.083289
11.60509 9.810684 0.1300908 0.4201524 5.341916e-09 0.9074536 255 255 0 255 0.900628 0.068145
11.60509 9.319196 -0.001602879 0.2110144 -0.4887433 0.846524 255 255 0 255 0.900628 0.075717
11.87431 9.41998 -0.1761615 0.5993321 -0.4002513 0.6932531 255 255 0 255 0.894933 0.075717
11.87431 9.810684 -0.07147247 0.5993317 0 0.8005008 255 255 0 255 0.894933 0.068145
11.60509 10.66197 -0.3613967 0.4201533 0.7858779 0.4537259 255 255 0 255 0.900628 0.053002
11.60509 10.30217 -0.001602879 0.2110145 0.4887412 0.8465252 255 255 0 255 0.900628 0.060574
11.87431 10.20139 -0.1761615 0.5993329 0.4002496 0.6932534 255 255 0 255 0.894933 0.060574
11.87431 10.48741 -0.4621784 0.5993329 0.6932535 0.4002497 255 255 0 255 0.894933 0.053002
-11.87431 10.48741 -1.24359 -0.5993327 0.6932536 -0.4002497 255 255 0 255 0.163541 0
-11.87431 10.5921 -0.852884 -0.5993314 0.800501 2.286013e-08 255 255 0 255 0.170825 0
-11.60509 10.79366 -0.852884 -0.3620983 0.9312821 -0.03998134 255 255 0 255 0.170825 0.005921
-11.60509 10.66197 -1.344371 -0.3177549 0.8211424 -0.4740855 255 255 0 255 0.163541 0.005921
-11.87431 9.810684 -1.634296 -0.5993311 0 -0.8005012 255 255 0 255 0.148972 0
-11.87431 10.20139 -1.529607 -0.5993325 0.4002496 -0.6932538 255 255 0 255 0.156256 0
-11.60509 10.30217 -1.704165 -0.3620993 0.5002659 -0.7865229 255 255 0 255 0.156256 0.005921
-11.60509 9.810684 -1.835859 -0.2110142 5.365761e-09 -0.977483 255 255 0 255 0.148972 0.005921
-11.87431 9.133964 -1.24359 -0.5993319 -0.6932545 -0.4002494 255 255 0 255 0.134403 1.4e-05
-11.87431 9.41998 -1.529607 -0.5993317 -0.4002514 -0.6932535 255 255 0 255 0.141687 1.4e-05
-11.60509 9.319196 -1.704165 -0.4201526 -0.4537281 -0.7858769 255 255 0 255 0.141687 0.005921
-11.60509 8.959406 -1.344371 -0.2110142 -0.8465256 -0.4887407 255 255 0 255 0.134403 0.005921
-11.87431 9.133964 -0.4621784 -0.5993321 -0.6932543 0.4002493 255 255 0 255 0.207247 0
-11.60509 8.959406 -0.3613967 -0.211014 -0.8465255 0.4887408 255 255 0 255 0.207247 0.005921
-11.60509 9.319196 -0.001602879 -0.4204333 -0.4526957 0.7863221 255 255 0 255 0.199963 0.005921
-11.87431 9.41998 -0.1761615 -0.5993321 -0.4002514 0.6932531 255 255 0 255 0.199963 0
-11.87431 9.810684 -0.07147247 -0.5865585 -0.2053555 0.7834401 255 255 0 255 0.192678 0
-11.60509 9.810684 0.1300908 -0.2723373 -0.03042969 0.9617206 255 255 0 255 0.192229 0.005921
-11.87431 9.858881 -0.08438677 -0.5977108 0.07349783 0.7983357 255 255 0 255 0.192229 0
-11.87431 10.48741 -0.4621784 -0.5993329 0.6932535 0.4002497 255 255 0 255 0.178109 0
-11.87431 10.20139 -0.1761615 -0.5993329 0.4002496 0.6932534 255 255 0 255 0.185394 0
-11.60509 10.30217 -0.001602879 -0.4201534 0.4537263 0.7858776 255 255 0 255 0.185394 0.005921
-11.60509 10.66197 -0.3613967 -0.2110147 0.8465257 0.4887404 255 255 0 255 0.178109 0.005921
11.87431 9.810684 -0.852884 1 -2.906203e-07 1.677905e-07 255 255 0 255 0.012761 0.256637
11.87431 10.20139 -1.529607 1 -8.86217e-07 7.529547e-07 255 255 0 255 0.019141 0.245947
11.87431 10.48741 -1.24359 1 -1.056941e-06 6.102279e-07 255 255 0 255 0.023812 0.250465
11.87431 10.5921 -0.852884 1 -1.095184e-06 3.910108e-07 255 255 0 255 0.025522 0.256637
11.87431 9.810684 -1.634296 1 0 1.22045e-06 255 255 0 255 0.012761 0.244293
11.87431 9.133964 -1.24359 1 1.056944e-06 6.102241e-07 255 255 0 255 0.00171 0.250465
11.87431 9.41998 -1.529607 1 6.102267e-07 1.056941e-06 255 255 0 255 0.00638 0.245947
11.87431 9.133964 -0.4621784 1 1.056944e-06 -6.102244e-07 255 255 0 255 0.00171 0.262809
11.87431 9.029276 -0.852884 1 1.220456e-06 0 255 255 0 255 0 0.256637
11.87431 9.810684 -0.07147247 1 0 -1.220451e-06 255 255 0 255 0.012761 0.268981
11.87431 9.41998 -0.1761615 1 6.102271e-07 -1.056941e-06 255 255 0 255 0.00638 0.267327
11.87431 10.48741 -0.4621784 1 -1.056941e-06 -6.102283e-07 255 255 0 255 0.023812 0.262809
-11.87431 10.48741 -1.24359 -1 -1.056941e-06 6.102279e-07 255 255 0 255 0.006815 0.279028
-11.87431 9.810684 -0.852884 -1 7.947746e-08 -3.80091e-07 255 255 0 255 0.017866 0.2852
-11.87431 10.5921 -0.852884 -1 -1.22045e-06 0 255 255 0 255 0.005105 0.2852
-11.87431 10.20139 -1.529607 -1 -6.102259e-07 1.056941e-06 255 255 0 255 0.011486 0.27451
-11.87431 9.810684 -1.634296 -1 0 1.22045e-06 255 255 0 255 0.017866 0.272856
-11.87431 9.41998 -1.529607 -1 6.102267e-07 1.056941e-06 255 255 0 255 0.024246 0.27451
-11.87431 9.133964 -1.24359 -1 1.056944e-06 6.102241e-07 255 255 0 255 0.028917 0.279028
-11.87431 9.133964 -0.4621784 -1 1.056945e-06 -6.102245e-07 255 255 0 255 0.028917 0.291372
-11.87431 9.41998 -0.1761615 -1 4.04477e-07 -1.143963e-06 255 255 0 255 0.024246 0.29589
-11.87431 9.810684 -0.07147247 -1 2.551977e-07 -1.220451e-06 255 255 0 255 0.017866 0.297544
-11.87431 9.858881 -0.08438677 -1 1.322731e-07 -1.220451e-06 255 255 0 255 0.017079 0.29734
-11.87431 10.20139 -0.1761615 -1 -6.288427e-07 -1.046194e-06 255 255 0 255 0.011486 0.29589
-11.87431 10.48741 -0.4621784 -1 -1.056941e-06 -6.102283e-07 255 255 0 255 0.006815 0.291372
11.33582 10.66197 -1.344372 4.427037e-07 0.8660263 -0.4999984 255 255 0 255 0.904771 0.037859
11.33582 10.79366 -0.852884 1.575341e-07 0.9960351 -0.08896108 255 255 0 255 0.904771 0.04543
11.33582 9.810684 -1.835859 6.640577e-07 0 -1 255 255 0 255 0.904771 0.022715
11.33582 10.30217 -1.704165 6.508718e-07 0.575061 -0.8181105 255 255 0 255 0.904771 0.030287
11.33582 8.959406 -1.344372 4.427044e-07 -0.8660258 -0.4999993 255 255 0 255 0.904771 0.007572
11.33582 9.319196 -1.704165 6.561103e-07 -0.5000021 -0.8660243 255 255 0 255 0.904771 0.015143
11.33582 8.959406 -0.3613964 2.490213e-07 -0.8660257 0.4999994 255 255 0 255 0.904771 0.083289
11.33582 9.319196 -0.001602879 1.822957e-07 -0.5000021 0.8660242 255 255 0 255 0.904771 0.075717
11.33582 9.810684 0.1300908 0 0 1 255 255 0 255 0.904771 0.068145
11.33582 10.66197 -0.3613967 0 0.8660263 0.4999985 255 255 0 255 0.904771 0.053002
11.33582 10.30217 -0.001602879 0 0.4999999 0.8660254 255 255 0 255 0.904771 0.060574
-11.33582 10.66197 -1.344372 -4.427037e-07 0.8660263 -0.4999985 255 255 0 255 0.163541 0.010228
-11.33582 10.79366 -0.852884 -1.6738e-07 0.9960351 0.08896109 255 255 0 255 0.170825 0.010228
-11.33582 10.30217 -1.704165 -6.561484e-07 0.4209734 -0.907073 255 255 0 255 0.156256 0.010228
-11.33582 9.810684 -1.835859 -6.640577e-07 0 -1 255 255 0 255 0.148972 0.010228
-11.33582 9.319196 -1.704165 -6.561103e-07 -0.500002 -0.8660243 255 255 0 255 0.141687 0.010228
-11.33582 8.959406 -1.344372 -4.427044e-07 -0.8660259 -0.4999993 255 255 0 255 0.134403 0.010228
-11.33582 8.959406 -0.3613967 0 -0.8660257 0.4999994 255 255 0 255 0.207247 0.010228
-11.33582 9.319196 -0.001602879 0 -0.5000022 0.8660241 255 255 0 255 0.199963 0.010228
-11.33582 9.810684 0.1300908 0 0 1 255 255 0 255 0.192229 0.010228
-11.33582 10.30217 -0.001602879 -1.822965e-07 0.4999998 0.8660256 255 255 0 255 0.185394 0.010228
-11.33582 10.66197 -0.3613964 -2.490209e-07 0.8660262 0.4999986 255 255 0 255 0.178109 0.010228
11.87431 10.20139 -0.1761615 1 -6.102264e-07 -1.056942e-06 255 255 0 255 0.019141 0.267327
11.33582 8.82771 -0.852884 1.28905e-07 -0.9659248 0.2588229 255 255 0 255 0.904771 0.090861
11.87431 9.029276 -0.852884 0.5860037 -0.7826977 -0.2097236 255 255 0 255 0.894933 0
11.60509 8.82771 -0.852884 0.204129 -0.9455866 -0.2533722 255 255 0 255 0.900628 0
11.33582 8.82771 -0.852884 2.291644e-07 -0.9659248 -0.2588229 255 255 0 255 0.904771 0
11.33582 8.82771 -0.852884 1 0 0 255 255 0 255 0 0.425775
11.33582 8.362128 -0.852884 0.8944272 -0.4319752 -0.1157474 255 255 0 255 0.010095 0.425775
10.9037 8.362128 -0.852884 0.4472136 -0.8639504 -0.2314948 255 255 0 255 0.01824 0.425775
10.9037 8.105582 -0.852884 0.7071068 -0.6830124 -0.1830141 255 255 0 255 0.02253 0.425775
-10.9037 8.105582 -0.852884 -0.8944272 -0.4319749 -0.1157483 255 255 0 255 0.371487 0.425775
-10.9037 8.362128 -0.852884 -0.4472136 -0.8639504 -0.2314948 255 255 0 255 0.375774 0.425775
-11.33582 8.362128 -0.852884 -0.8944272 -0.4319752 -0.1157474 255 255 0 255 0.38391 0.425775
-11.33582 8.82771 -0.852884 -1 0 0 255 255 0 255 0.394007 0.425775
-11.33582 8.82771 -0.852884 -2.291644e-07 -0.9659248 -0.2588229 255 255 0 255 0.127118 0.010228
-11.60509 8.82771 -0.852884 -0.4082577 -0.8817611 -0.2362689 255 255 0 255 0.127118 0.005921
-11.87431 9.029276 -0.852884 -0.5860037 -0.7826977 -0.2097237 255 255 0 255 0.127118 1.4e-05
-11.87431 9.029276 -0.852884 -1 1.220456e-06 0 255 255 0 255 0.030627 0.2852
-11.87431 9.029276 -0.852884 -0.5860039 -0.7826976 0.2097237 255 255 0 255 0.214532 0
-11.60509 8.82771 -0.852884 -0.4082577 -0.8817611 0.236269 255 255 0 255 0.214532 0.005921
-11.33582 8.82771 -0.852884 0 -0.9659248 0.2588229 255 255 0 255 0.214532 0.010228
-11.33582 8.82771 -0.852884 -1 0 0 255 255 0 255 0.394007 0.589719
-11.33582 8.362128 -0.852884 -0.8944272 -0.4319752 0.1157474 255 255 0 255 0.38391 0.589719
-10.9037 8.362128 -0.852884 -0.4472136 -0.8639503 0.2314948 255 255 0 255 0.375774 0.589719
-10.9037 8.105582 -0.852884 -0.8944272 -0.4319749 0.1157483 255 255 0 255 0.371487 0.589719
10.9037 8.105582 -0.852884 0.7071068 -0.6830124 0.1830142 255 255 0 255 0.02253 0.589719
7.831034 13.85601 -2.2979 0 1 0 255 255 0 255 0.88166 0.274378
7.831034 13.85601 0.5683377 0 1 0 255 255 0 255 0.88166 0.2291
9.788795 13.85601 0.5683377 0 1 0 255 255 0 255 0.913631 0.2291
9.788795 13.85601 -2.2979 0 1 0 255 255 0 255 0.913631 0.274378
9.788795 0.3855364 -4.280518 0 0 -1 255 255 0 255 0.942105 0.612853
7.831034 1.809775 -4.280518 0 0 -1 255 255 0 255 0.920459 0.646085
9.788795 1.809775 -4.280518 0 0 -1 255 255 0 255 0.920459 0.612853
-9.788795 0.3855364 -4.280518 0 0 -1 255 255 0 255 0.942105 0.945168
-8.026813 1.809775 -4.280518 0 0 -1 255 255 0 255 0.920459 0.91526
-9.788795 1.809775 -4.280518 0 0 -1 255 255 0 255 0.920459 0.945168
9.788795 1.809775 2.550955 1 0 0 255 255 0 255 0.390748 0.816443
9.788795 0.3855364 4.258823 1 0 0 255 255 0 255 0.369103 0.845433
9.788795 0.3855364 -4.280518 1 0 0 255 255 0 255 0.369103 0.700484
9.788795 1.809775 -4.280518 1 0 0 255 255 0 255 0.390748 0.700484
9.788795 1.809775 4.258823 1 0 0 255 255 0 255 0.390748 0.845433
9.788795 13.85601 -2.2979 1 0 0 255 255 0 255 0.573824 0.734137
9.788795 13.85601 0.5683377 1 0 0 255 255 0 255 0.573824 0.78279
-9.788795 0.3855364 -4.280518 -1 -3.720016e-07 -6.204449e-08 255 255 0 255 0.364589 0.80652
-9.788795 0.3855364 4.258823 -1 -1.083791e-07 3.776398e-07 255 255 0 255 0.225137 0.80652
-9.788796 1.809775 2.550955 -1 -1.369563e-07 1.909816e-07 255 255 0 255 0.253028 0.784022
-9.788795 1.809775 -4.280518 -1 -1.240005e-07 -1.518017e-07 255 255 0 255 0.364589 0.784022
-9.788795 1.809775 4.258823 -1 0 5.584004e-07 255 255 0 255 0.225137 0.784022
-9.788796 13.85601 0.5683396 -1 2.919517e-14 -1.966803e-07 255 255 0 255 0.285405 0.593728
-9.788795 13.85601 -2.297899 -1 2.919517e-14 -1.966803e-07 255 255 0 255 0.332212 0.593728
9.788795 0.3855364 4.258823 0 -1 0 255 255 0 255 0.695738 0.697095
-9.788795 0.3855364 4.258823 0 -1 0 255 255 0 255 0.398202 0.697095
-9.788795 0.3855364 -4.280518 0 -1 0 255 255 0 255 0.398202 0.552145
9.788795 0.3855364 -4.280518 0 -1 0 255 255 0 255 0.695738 0.552145
-8.026813 1.809775 -4.280518 0 1 0 255 255 0 255 0.819786 0.31043
-8.026813 1.809775 2.550955 0 1 0 255 255 0 255 0.681538 0.31043
7.831034 1.809775 2.550955 0 1 0 255 255 0 255 0.681538 0
7.831034 1.809775 -4.280518 0 1 0 255 255 0 255 0.819786 0
-9.788795 1.809775 4.258823 0 1 0 255 255 0 255 0.877496 0.593747
-8.026813 1.809775 2.550955 0 1 0 255 255 0 255 0.85154 0.623655
-9.788796 1.809775 2.550955 0 1 0 255 255 0 255 0.85154 0.593747
7.831034 1.809775 2.550955 0 1 0 255 255 0 255 0.85154 0.892831
9.788795 1.809775 4.258823 0 1 0 255 255 0 255 0.877496 0.926062
9.788795 1.809775 2.550955 0 1 0 255 255 0 255 0.85154 0.926062
-9.788795 1.809775 4.258823 0 0 1 255 255 0 255 0.947006 0
-9.788795 0.3855364 4.258823 0 0 1 255 255 0 255 0.968651 0
9.788795 0.3855364 4.258823 0 0 1 255 255 0 255 0.968651 0.332316
9.788795 1.809775 4.258823 0 0 1 255 255 0 255 0.947006 0.332316
-9.788796 13.85601 0.5683396 0 1 0 255 255 0 255 0.04356 0
-8.026813 13.85601 0.5683396 0 1 0 255 255 0 255 0.04356 0.029909
-8.026813 13.85601 -2.297899 0 1 0 255 255 0 255 0 0.029909
-9.788795 13.85601 -2.297899 0 1 0 255 255 0 255 0 0
7.831034 1.809775 -4.280518 -1 0 0 255 255 0 255 0.847133 0.908074
7.831034 1.809775 2.550955 -1 0 0 255 255 0 255 0.74331 0.908074
7.831034 13.85601 0.5683377 -1 0 0 255 255 0 255 0.773442 0.703598
7.831034 13.85601 -2.2979 -1 0 0 255 255 0 255 0.817002 0.703598
7.831034 1.809775 2.550955 0 0.1623992 0.9867252 255 255 0 255 0.978681 0.804422
9.788795 1.809775 2.550955 0 0.1623992 0.9867252 255 255 0 255 0.946496 0.804422
9.788795 13.85601 0.5683377 0 0.1623992 0.9867252 255 255 0 255 0.946496 0.612853
7.831034 13.85601 0.5683377 0 0.1623992 0.9867252 255 255 0 255 0.978681 0.612853
9.788795 1.809775 -4.280518 0 0.1623992 -0.9867252 255 255 0 255 0.946496 0.808431
7.831034 1.809775 -4.280518 0 0.1623992 -0.9867252 255 255 0 255 0.978681 0.808431
7.831034 13.85601 -2.2979 0 0.1623992 -0.9867252 255 255 0 255 0.978681 1
9.788795 13.85601 -2.2979 0 0.1623992 -0.9867252 255 255 0 255 0.946496 1
-9.788796 1.809775 2.550955 0 0.162399 0.9867252 255 255 0 255 0.947006 0.336325
-8.026813 1.809775 2.550955 0 0.162399 0.9867252 255 255 0 255 0.973964 0.336325
-8.026813 13.85601 0.5683396 0 0.162399 0.9867252 255 255 0 255 0.973964 0.542172
-9.788796 13.85601 0.5683396 0 0.162399 0.9867252 255 255 0 255 0.947006 0.542172
-8.026813 1.809775 2.550955 1 0 0 255 255 0 255 0.905332 0.46686
-8.026813 1.809775 -4.280518 1 0 0 255 255 0 255 0.801509 0.46686
-8.026813 13.85601 -2.297899 1 0 0 255 255 0 255 0.831641 0.262384
-8.026813 13.85601 0.5683396 1 0 0 255 255 0 255 0.875201 0.262384
-8.026813 1.809775 -4.280518 0 0.1623993 -0.9867252 255 255 0 255 1 0.205847
-9.788795 1.809775 -4.280518 0 0.1623993 -0.9867252 255 255 0 255 0.973042 0.205847
-9.788795 13.85601 -2.297899 0 0.1623993 -0.9867252 255 255 0 255 0.973042 0
-8.026813 13.85601 -2.297899 0 0.1623993 -0.9867252 255 255 0 255 1 0
3 0 1 2 
3 0 2 3 
3 4 3 2 
3 4 2 5 
3 6 7 8 
3 6 8 9 
3 10 9 8 
3 10 8 11 
3 12 13 14 
3 12 14 15 
3 16 17 18 
3 16 18 19 
3 20 19 18 
3 20 18 21 
3 22 1 23 
3 22 23 24 
3 25 5 2 
3 25 2 26 
3 27 28 8 
3 27 8 7 
3 29 11 8 
3 29 8 28 
3 30 15 14 
3 30 14 31 
3 32 33 34 
3 32 34 0 
3 35 36 3 
3 35 3 4 
3 37 6 9 
3 37 9 38 
3 39 38 9 
3 39 9 10 
3 40 41 13 
3 40 13 12 
3 42 43 17 
3 42 17 16 
3 44 20 21 
3 44 21 45 
3 46 22 24 
3 46 24 47 
3 48 25 26 
3 48 26 49 
3 50 27 51 
3 50 51 52 
3 53 29 28 
3 53 28 54 
3 55 30 31 
3 55 31 56 
3 57 58 33 
3 57 33 32 
3 59 60 36 
3 59 36 35 
3 61 37 38 
3 61 38 62 
3 63 62 38 
3 63 38 39 
3 64 65 41 
3 64 41 40 
3 66 67 43 
3 66 43 42 
3 68 44 45 
3 68 45 69 
3 70 46 47 
3 70 47 71 
3 72 48 49 
3 72 49 73 
3 74 50 52 
3 74 52 75 
3 76 53 54 
3 76 54 77 
3 78 55 56 
3 78 56 79 
3 80 81 58 
3 80 58 57 
3 82 83 60 
3 82 60 59 
3 84 61 62 
3 84 62 85 
3 86 85 62 
3 86 62 63 
3 87 88 65 
3 87 65 64 
3 89 90 67 
3 89 67 66 
3 91 92 93 
3 91 93 94 
3 95 96 97 
3 95 97 98 
3 99 100 101 
3 99 101 102 
3 103 104 105 
3 103 105 106 
3 107 108 109 
3 107 109 110 
3 111 112 113 
3 111 113 114 
3 115 116 117 
3 115 117 118 
3 119 120 121 
3 119 121 122 
3 123 124 125 
3 123 125 126 
3 127 128 129 
3 127 129 130 
3 131 130 129 
3 131 129 132 
3 131 132 133 
3 134 135 136 
3 134 136 137 
3 138 139 140 
3 138 140 141 
3 142 139 138 
3 143 144 138 
3 145 146 138 
3 147 148 138 
3 149 138 141 
3 150 151 152 
3 151 153 154 
3 151 155 156 
3 151 157 158 
3 151 158 159 
3 151 159 160 
3 151 161 162 
3 91 163 164 
3 91 164 92 
3 165 166 96 
3 165 96 95 
3 167 168 100 
3 167 100 99 
3 169 103 108 
3 169 108 170 
3 171 170 108 
3 171 108 107 
3 172 173 112 
3 172 112 111 
3 174 118 117 
3 174 117 175 
3 122 121 176 
3 122 176 177 
3 126 125 178 
3 126 178 179 
3 128 180 181 
3 128 181 129 
3 132 129 181 
3 132 181 182 
3 137 136 183 
3 137 183 184 
3 149 185 138 
3 111 114 93 
3 111 93 92 
3 172 111 92 
3 172 92 164 
3 78 69 45 
3 78 45 55 
3 55 45 21 
3 55 21 30 
3 30 21 18 
3 30 18 15 
3 12 15 18 
3 12 18 17 
3 40 12 17 
3 40 17 43 
3 147 138 185 
3 107 110 113 
3 107 113 112 
3 171 107 112 
3 171 112 173 
3 76 79 56 
3 76 56 53 
3 53 56 31 
3 53 31 29 
3 29 31 14 
3 29 14 11 
3 145 138 148 
3 103 106 109 
3 103 109 108 
3 169 186 104 
3 169 104 103 
3 74 77 54 
3 74 54 50 
3 50 54 28 
3 50 28 27 
3 143 138 146 
3 99 102 187 
3 99 187 188 
3 167 99 188 
3 167 188 189 
3 72 190 191 
3 72 191 48 
3 48 191 192 
3 48 192 25 
3 25 192 193 
3 25 193 5 
3 142 138 144 
3 95 98 101 
3 95 101 100 
3 165 95 100 
3 165 100 168 
3 70 73 49 
3 70 49 46 
3 46 49 26 
3 46 26 22 
3 22 26 2 
3 22 2 1 
3 91 94 97 
3 91 97 96 
3 91 96 166 
3 91 166 163 
3 68 71 47 
3 68 47 44 
3 44 47 24 
3 44 24 20 
3 20 24 23 
3 20 23 19 
3 16 19 23 
3 16 23 34 
3 42 16 34 
3 42 34 33 
3 66 42 33 
3 66 33 58 
3 89 66 58 
3 89 58 81 
3 174 176 121 
3 174 121 118 
3 115 118 121 
3 115 121 120 
3 64 40 43 
3 64 43 67 
3 87 64 67 
3 87 67 90 
3 137 184 175 
3 137 175 117 
3 134 137 117 
3 134 117 116 
3 151 162 152 
3 32 0 3 
3 32 3 36 
3 57 32 36 
3 57 36 60 
3 80 57 60 
3 80 60 83 
3 122 177 178 
3 122 178 125 
3 119 122 125 
3 119 125 124 
3 151 154 155 
3 150 153 151 
3 0 34 23 
3 0 23 1 
3 4 5 193 
3 4 193 194 
3 35 4 194 
3 35 194 195 
3 59 35 195 
3 59 195 196 
3 82 59 196 
3 82 196 197 
3 126 179 198 
3 126 198 199 
3 123 126 199 
3 123 199 200 
3 151 156 201 
3 151 201 157 
3 127 202 203 
3 127 203 128 
3 128 203 204 
3 128 204 180 
3 84 205 206 
3 84 206 61 
3 61 206 207 
3 61 207 37 
3 37 207 208 
3 37 208 6 
3 6 208 209 
3 6 209 7 
3 27 7 209 
3 27 209 51 
3 10 11 14 
3 10 14 13 
3 39 10 13 
3 39 13 41 
3 63 39 41 
3 63 41 65 
3 86 63 65 
3 86 65 88 
3 132 182 183 
3 132 183 136 
3 133 132 136 
3 133 136 135 
3 151 160 161 
3 210 211 212 
3 210 212 213 
3 214 215 216 
3 217 218 215 
3 217 215 214 
3 219 218 217 
3 220 221 222 
3 220 222 223 
3 221 220 224 
3 220 223 225 
3 220 225 226 
3 227 228 229 
3 227 229 230 
3 229 228 231 
3 230 229 232 
3 230 232 233 
3 234 235 236 
3 234 236 237 
3 238 239 240 
3 238 240 241 
3 242 243 244 
3 245 243 242 
3 245 242 246 
3 247 245 246 
3 248 249 250 
3 248 250 251 
3 252 253 254 
3 252 254 255 
3 256 257 258 
3 256 258 259 
3 260 261 262 
3 260 262 263 
3 264 265 266 
3 264 266 267 
3 268 269 270 
3 268 270 271 
3 272 273 274 
3 272 274 275 
3 276 277 278 
3 276 278 279 
