ply
format ascii 1.0
comment VCGLIB generated
element vertex 374
property float x
property float y
property float z
property float nx
property float ny
property float nz
property uchar red
property uchar green
property uchar blue
property uchar alpha
property float texture_u
property float texture_v
element face 408
property list uchar int vertex_indices
end_header
-1.786274 -0.397118 1.786275 0 0 1 254 254 0 255 0.692637 0.872079
1.786274 -0.397118 1.786275 0 0 1 254 254 0 255 0.692637 0.932721
1.786274 6.648389 1.786275 0 0 1 254 254 0 255 0.585561 0.932721
-1.786274 6.648389 1.786275 0 0 1 254 254 0 255 0.585561 0.872079
-1.786274 6.648389 -0.8932266 -0.7071068 0 -0.7071068 254 254 0 255 0.31652 0.913851
-0.8932266 6.648389 -1.786274 -0.3826834 0 -0.9238796 254 254 0 255 0.31652 0.89775
-0.8932266 4.049069 -1.786274 -0.5054412 0 -0.862861 254 254 0 255 0.364966 0.897751
-1.786274 -0.397118 -0.8932266 -0.7071068 0 -0.7071067 254 254 0 255 0.447834 0.913851
-0.8932266 -0.397118 -1.786274 -0.7071068 0 -0.7071068 254 254 0 255 0.447834 0.89775
0.8932266 6.648389 -1.786274 0.3826769 0 -0.9238824 254 254 0 255 0.31652 0.865542
1.786274 6.648389 -0.8932266 0.7071068 0 -0.7071068 254 254 0 255 0.31652 0.849442
1.786274 -0.397118 -0.8932266 0.7071068 0 -0.7071068 254 254 0 255 0.447834 0.849442
0.8932266 4.049069 -1.786274 0.5054496 0 -0.8628562 254 254 0 255 0.364966 0.865543
0.8932266 -0.397118 -1.786274 0.7071068 0 -0.7071068 254 254 0 255 0.447834 0.865543
1.786274 6.648389 -0.0893761 0.9354168 0.2927078 -0.1982867 254 254 0 255 0.84341 0.474828
1.786274 -0.397118 -0.0893761 0.7071243 0 -0.7070893 254 254 0 255 0.814449 0.583359
1.786274 -0.397118 -0.8932266 1 0 0 254 254 0 255 0.801509 0.580574
1.786274 6.648389 -0.8932266 1 0 0 254 254 0 255 0.826748 0.470868
-1.786274 6.648389 0.8484489 -0.9354163 0.2927087 0.1982873 254 254 0 255 0.579021 0.872877
-1.786274 -0.397118 0.8484489 -0.7071243 0 0.7070893 254 254 0 255 0.483078 0.817889
-1.786274 -0.397118 1.786275 -1 0 0 254 254 0 255 0.488999 0.803221
-1.786274 6.648389 1.786275 -1 0 0 254 254 0 255 0.58766 0.852906
-0.9104137 4.049069 -3.872949 0 0.7050884 -0.7091194 254 254 0 255 0.801509 0.624156
0.8760394 4.049069 -3.872949 0 0.7070631 -0.7071505 254 254 0 255 0.830712 0.624156
0.8932266 -0.397118 -3.859808 0 -0.002955535 -0.9999956 254 254 0 255 0.830712 0.694463
-0.8932266 -0.397118 -3.859808 0 -0.002955535 -0.9999957 254 254 0 255 0.801509 0.694463
-0.8932266 4.049069 -1.786274 0 1 -4.831544e-08 254 254 0 255 0.801509 0.591368
0.8932266 4.049069 -1.786274 0 1 -8.794201e-08 254 254 0 255 0.830712 0.591368
0.8932266 4.049069 -1.786274 0.9999785 0.002774066 -0.00594832 254 254 0 255 0.383108 0.593728
0.8932266 -0.397118 -1.786274 1 0 0 254 254 0 255 0.383108 0.664076
0.8932266 -0.397118 -3.859808 0.9999968 0.001072319 -0.00229933 254 254 0 255 0.349193 0.664076
0.8760394 4.049069 -3.872949 0.9999587 0.003841102 -0.008236323 254 254 0 255 0.349193 0.593728
-0.8932266 -0.397118 -1.786274 -0.9999936 -0.002785724 0.002300851 254 254 0 255 0.891652 0.225091
-0.8932266 4.049069 -1.786274 -0.9999661 0 0.008236299 254 254 0 255 0.823972 0.225091
-0.9104137 4.049069 -3.872949 -0.9999818 -0.001074591 0.005946746 254 254 0 255 0.823972 0.189838
-0.8932266 -0.397118 -3.859808 -0.9999925 -0.003865553 0 254 254 0 255 0.891652 0.189839
-1.786274 -0.397118 -0.8932266 -1 0 0 254 254 0 255 0.466101 0.919866
-1.786274 -0.397118 -0.0893761 -0.7071243 0 -0.7070893 254 254 0 255 0.466101 0.906075
-1.786274 6.648389 -0.0893761 -0.9354181 0.2927004 -0.1982914 254 254 0 255 0.573801 0.899993
-1.786274 6.648389 -0.8932266 -1 0 0 254 254 0 255 0.574326 0.919866
-3.589602 4.049069 -0.0893761 -0.7287771 0.2280511 -0.6456599 254 254 0 255 0.534319 0.879836
-3.589602 4.049069 0.8484489 -0.7287765 0.2280414 0.645664 254 254 0 255 0.535611 0.873127
-3.589602 -0.397118 -0.0893761 -0.7071068 0 -0.7071068 254 254 0 255 0.466784 0.871818
-3.589602 -0.397118 0.8484489 -0.7070972 0 0.7071164 254 254 0 255 0.471094 0.849432
1.786274 6.648389 0.8484489 0.9354177 0.2927012 0.1982919 254 254 0 255 0.8738 0.475039
3.589602 4.049069 0.8484489 0.7287771 0.2280511 0.64566 254 254 0 255 0.861572 0.519554
3.589602 4.049069 -0.0893761 0.7287765 0.2280414 -0.645664 254 254 0 255 0.854976 0.519508
3.589602 -0.397118 0.8484489 0.7071068 0 0.7071068 254 254 0 255 0.868758 0.589738
3.589602 -0.397118 -0.0893761 0.7070972 0 -0.7071164 254 254 0 255 0.846749 0.589585
1.786274 -0.397118 1.786275 1 0 0 254 254 0 255 0.91629 0.580922
1.786274 -0.397118 0.8484489 0.7071243 0 0.7070893 254 254 0 255 0.901147 0.583961
1.786274 6.648389 1.786275 1 0 0 254 254 0 255 0.892682 0.470877
0 6.568829 0 0 -1 0 254 254 0 255 0.012761 0.34246
0 6.568829 -3.668289 0 -1 0 254 254 0 255 0.019141 0.33177
-1.834144 6.568829 -3.176831 0 -1 0 254 254 0 255 0.012761 0.330116
-10.9037 17.37366 -2.557986 -0.6532144 -6.592558e-07 -0.7571731 254 254 0 255 0.371487 0.466761
10.9037 17.37366 -2.557986 0.6532203 -9.295195e-07 -0.757168 254 254 0 255 0.02253 0.466761
10.9037 16.5211 -2.329546 0.6532058 -0.37859 -0.6557377 254 254 0 255 0.02253 0.453099
-10.9037 16.5211 -2.329546 -0.6532119 -0.3785883 -0.6557325 254 254 0 255 0.371487 0.453099
-10.9037 15.897 -1.705435 -0.6532151 -0.6557307 -0.3785861 254 254 0 255 0.371487 0.439437
10.9037 15.897 -1.705435 0.6532212 -0.6557257 -0.3785841 254 254 0 255 0.02253 0.439437
-10.9037 15.897 -0.0003333786 -0.6532151 -0.6557307 0.3785861 254 254 0 255 0.371487 0.576057
10.9037 15.897 -0.0003333786 0.6532212 -0.6557257 0.3785842 254 254 0 255 0.02253 0.576057
10.9037 16.5211 0.6237774 0.6532053 -0.3785917 0.6557371 254 254 0 255 0.02253 0.562395
-10.9037 16.5211 0.6237774 -0.6532114 -0.37859 0.655732 254 254 0 255 0.371487 0.562395
-10.9037 17.37366 0.8522177 -0.6532144 -6.395036e-07 0.757173 254 254 0 255 0.371487 0.548733
10.9037 17.37366 0.8522177 0.6532204 -9.369558e-07 0.7571679 254 254 0 255 0.02253 0.548733
-10.9037 18.85032 -0.0003333786 -0.6532148 0.6557314 0.3785852 254 254 0 255 0.371487 0.521409
-10.9037 18.22621 0.6237774 -0.6532115 0.3785895 0.6557322 254 254 0 255 0.371487 0.535071
10.9037 18.22621 0.6237774 0.6532055 0.3785908 0.6557375 254 254 0 255 0.02253 0.535071
10.9037 18.85032 -0.0003333786 0.6532208 0.655726 0.3785844 254 254 0 255 0.02253 0.521409
-10.9037 18.85032 -1.705435 -0.6532148 0.6557314 -0.3785852 254 254 0 255 0.371487 0.494085
-10.9037 19.07876 -0.852884 -0.6532124 0.7571747 5.205358e-08 254 254 0 255 0.371487 0.507747
10.9037 19.07876 -0.852884 0.6532066 0.7571797 4.508172e-08 254 254 0 255 0.02253 0.507747
10.9037 18.85032 -1.705435 0.6532208 0.655726 -0.3785843 254 254 0 255 0.02253 0.494085
10.9037 18.62814 -1.577163 0.7702607 0.5522901 -0.318864 254 254 0 255 0.01824 0.494085
10.9037 18.82221 -0.852884 0.770269 0.6377191 6.26312e-09 254 254 0 255 0.01824 0.507747
10.9037 17.37366 -2.301441 0.7702598 0 -0.6377302 254 254 0 255 0.01824 0.466761
10.9037 18.22621 -2.329546 0.6532059 0.3785892 -0.655738 254 254 0 255 0.02253 0.480423
10.9037 18.09793 -2.107371 0.7702688 0.3188594 -0.5522815 254 254 0 255 0.01824 0.480423
10.9037 16.11917 -1.577163 0.7702603 -0.5522903 -0.3188644 254 254 0 255 0.01824 0.439437
10.9037 16.64938 -2.107371 0.7702695 -0.3188597 -0.5522803 254 254 0 255 0.01824 0.453099
10.9037 16.11917 -0.1286056 0.7702602 -0.5522906 0.3188643 254 254 0 255 0.01824 0.576057
10.9037 16.64938 0.4016026 0.770269 -0.3188612 0.5522802 254 254 0 255 0.01824 0.562395
10.9037 17.37366 0.5956727 0.77026 0 0.6377302 254 254 0 255 0.01824 0.548733
10.9037 18.62814 -0.1286056 0.7702605 0.5522903 0.3188639 254 254 0 255 0.01824 0.521409
10.9037 18.09793 0.4016026 0.7702681 0.3188608 0.5522814 254 254 0 255 0.01824 0.535071
-10.9037 17.37366 -2.301441 -0.7702598 0 -0.6377302 254 254 0 255 0.375774 0.466761
-10.9037 18.09793 -2.107371 -0.7702688 0.3188594 -0.5522815 254 254 0 255 0.375774 0.480423
-10.9037 18.22621 -2.329546 -0.653212 0.3785878 -0.6557328 254 254 0 255 0.371487 0.480423
-10.9037 16.11917 -1.577163 -0.7702604 -0.5522904 -0.3188644 254 254 0 255 0.375774 0.439437
-10.9037 16.64938 -2.107371 -0.7702695 -0.3188598 -0.5522803 254 254 0 255 0.375774 0.453099
-10.9037 16.11917 -0.1286056 -0.7702601 -0.5522906 0.3188643 254 254 0 255 0.375774 0.576058
-10.9037 16.64938 0.4016026 -0.7702689 -0.3188611 0.5522802 254 254 0 255 0.375774 0.562395
-10.9037 17.37366 0.5956727 -0.77026 0 0.6377302 254 254 0 255 0.375774 0.548733
-10.9037 18.62814 -0.1286056 -0.7702605 0.5522903 0.3188639 254 254 0 255 0.375774 0.521409
-10.9037 18.09793 0.4016026 -0.7702681 0.3188608 0.5522814 254 254 0 255 0.375774 0.535071
-10.9037 18.62814 -1.577163 -0.7702607 0.5522901 -0.318864 254 254 0 255 0.375774 0.494085
-10.9037 18.82221 -0.852884 -0.770269 0.6377191 6.26312e-09 254 254 0 255 0.375774 0.507747
11.33582 18.62814 -1.577163 0.6532236 0.6557245 -0.3785819 254 254 0 255 0.010095 0.494085
11.33582 18.82221 -0.852884 0.6532463 0.7571456 0 254 254 0 255 0.010095 0.507747
11.33582 17.37366 -2.301441 0.6532243 3.792466e-07 -0.7571645 254 254 0 255 0.010095 0.466761
11.33582 18.09793 -2.107371 0.653246 0.3785716 -0.6557082 254 254 0 255 0.010095 0.480423
11.33582 16.11917 -1.577163 0.6532237 -0.6557252 -0.3785808 254 254 0 255 0.010095 0.439437
11.33582 16.64938 -2.107371 0.6532457 -0.3785729 -0.6557078 254 254 0 255 0.010095 0.453099
11.33582 16.11917 -0.1286056 0.653225 -0.6557233 0.3785816 254 254 0 255 0.010095 0.576057
10.9037 15.9251 -0.852884 0.7592638 -0.6286085 0.1684335 254 254 0 255 0.01824 0.589719
11.33582 15.9251 -0.852884 0.640205 -0.7420288 0.1988241 254 254 0 255 0.010095 0.589719
11.33582 17.37366 0.5956727 0.6532242 3.866829e-07 0.7571646 254 254 0 255 0.010095 0.548733
11.33582 16.64938 0.4016026 0.6532457 -0.378572 0.6557083 254 254 0 255 0.010095 0.562395
11.33582 18.62814 -0.1286056 0.6532245 0.6557234 0.3785826 254 254 0 255 0.010095 0.521409
11.33582 18.09793 0.4016026 0.6532459 0.3785711 0.6557086 254 254 0 255 0.010095 0.535071
-11.33582 17.37366 -2.301441 -0.6532243 3.800511e-07 -0.7571645 254 254 0 255 0.383911 0.466761
-11.33582 18.09793 -2.107371 -0.653246 0.3785716 -0.6557082 254 254 0 255 0.383911 0.480423
-11.33582 16.11917 -1.577163 -0.6532237 -0.6557252 -0.3785808 254 254 0 255 0.38391 0.439437
-11.33582 16.64938 -2.107371 -0.6532457 -0.3785729 -0.6557078 254 254 0 255 0.38391 0.453099
-11.33582 16.11917 -0.1286056 -0.6532246 -0.6557239 0.3785814 254 254 0 255 0.383911 0.576057
-11.33582 16.64938 0.4016026 -0.6532457 -0.3785722 0.6557082 254 254 0 255 0.383911 0.562396
-11.33582 17.37366 0.5956727 -0.6532242 3.829648e-07 0.7571646 254 254 0 255 0.383911 0.548733
-11.33582 18.62814 -0.1286056 -0.6532248 0.6557228 0.3785828 254 254 0 255 0.38391 0.521409
-11.33582 18.09793 0.4016026 -0.653246 0.3785708 0.6557087 254 254 0 255 0.38391 0.535071
-11.33582 18.62814 -1.577163 -0.6532236 0.6557245 -0.3785819 254 254 0 255 0.383911 0.494085
-11.33582 18.82221 -0.852884 -0.6532467 0.7571452 0 254 254 0 255 0.383911 0.507747
11.33582 18.22494 -1.344372 1 2.297416e-07 0 254 254 0 255 0 0.494085
11.33582 18.35663 -0.852884 1 0 0 254 254 0 255 0 0.507747
11.33582 17.37366 -1.835859 1 -1.985169e-12 0 254 254 0 255 0 0.466761
11.33582 17.86514 -1.704165 1 -2.083804e-06 0 254 254 0 255 0 0.480423
11.33582 16.52238 -1.344372 1 -2.297176e-07 0 254 254 0 255 0 0.439437
11.33582 16.88217 -1.704165 1 2.083854e-06 0 254 254 0 255 0 0.453099
11.33582 16.52238 -0.3613964 1 1.870558e-06 0 254 254 0 255 0 0.576057
11.33582 16.39068 -0.852884 1 0 0 254 254 0 255 0 0.589719
11.33582 17.37366 0.1300908 1 -8.747156e-12 0 254 254 0 255 0 0.548733
11.33582 16.88217 -0.001602879 1 2.083817e-06 0 254 254 0 255 0 0.562395
11.33582 18.22494 -0.3613967 1 -2.297428e-07 0 254 254 0 255 0 0.521409
11.33582 17.86514 -0.001602879 1 -3.523608e-11 0 254 254 0 255 0 0.535071
-11.33582 17.37366 -1.835859 -1 -1.985169e-12 0 254 254 0 255 0.394007 0.466761
-11.33582 17.86514 -1.704165 -1 -2.083804e-06 0 254 254 0 255 0.394007 0.480423
-11.33582 16.52238 -1.344372 -1 -2.297176e-07 0 254 254 0 255 0.394007 0.439437
-11.33582 16.88217 -1.704165 -1 2.083854e-06 0 254 254 0 255 0.394007 0.453099
-11.33582 16.52238 -0.3613967 -1 2.297184e-07 0 254 254 0 255 0.394007 0.576058
-11.33582 16.88217 -0.001602879 -1 -3.672475e-11 0 254 254 0 255 0.394007 0.562396
-11.33582 17.37366 0.1300908 -1 -8.747156e-12 0 254 254 0 255 0.394007 0.548733
-11.33582 18.22494 -0.3613964 -1 -1.870593e-06 0 254 254 0 255 0.394007 0.521409
-11.33582 17.86514 -0.001602879 -1 -2.083839e-06 0 254 254 0 255 0.394007 0.535071
-11.33582 18.22494 -1.344372 -1 2.297416e-07 0 254 254 0 255 0.394007 0.494085
-11.33582 18.35663 -0.852884 -1 0 0 254 254 0 255 0.394007 0.507747
11.60509 18.22494 -1.344371 0.3012521 0.8257934 -0.4767731 254 254 0 255 0.900628 0.037859
11.60509 18.35663 -0.852884 0.3012395 0.9535485 -1.358726e-06 254 254 0 255 0.900628 0.04543
11.87431 18.15507 -0.852884 0.5993271 0.8005043 2.118468e-07 254 254 0 255 0.894933 0.04543
11.87431 18.05038 -1.24359 0.5993352 0.6932495 -0.400253 254 254 0 255 0.894933 0.037859
11.60509 17.37366 -1.835859 0.3012482 8.336273e-07 -0.9535458 254 254 0 255 0.900628 0.022715
11.60509 17.86514 -1.704165 0.3012427 0.4767733 -0.8257966 254 254 0 255 0.900628 0.030287
11.87431 17.76436 -1.529607 0.5993295 0.4002477 -0.6932575 254 254 0 255 0.894933 0.030287
11.87431 17.37366 -1.634296 0.5993326 5.914127e-07 -0.8005001 254 254 0 255 0.894933 0.022715
11.60509 16.52238 -1.344371 0.30125 -0.8257949 -0.4767718 254 254 0 255 0.900628 0.007572
11.60509 16.88217 -1.704165 0.3012463 -0.4767761 -0.8257937 254 254 0 255 0.900628 0.015143
11.87431 16.98295 -1.529607 0.5993319 -0.4002508 -0.6932537 254 254 0 255 0.894933 0.015143
11.87431 16.69694 -1.24359 0.599332 -0.6932545 -0.4002493 254 254 0 255 0.894933 0.007572
11.60509 16.52238 -0.3613967 0.3012497 -0.8257946 0.4767726 254 254 0 255 0.900628 0.083289
11.60509 16.39068 -0.852884 0.2918721 -0.9238656 0.2475543 254 254 0 255 0.900628 0.090861
11.87431 16.59225 -0.852884 0.586006 -0.7826947 0.2097285 254 254 0 255 0.894933 0.090861
11.87431 16.69694 -0.4621784 0.599333 -0.6932539 0.4002488 254 254 0 255 0.894933 0.083289
11.60509 17.37366 0.1300908 0.3012485 8.22801e-07 0.9535457 254 254 0 255 0.900628 0.068145
11.60509 16.88217 -0.001602879 0.3012469 -0.4767759 0.8257937 254 254 0 255 0.900628 0.075717
11.87431 16.98295 -0.1761615 0.5993326 -0.4002516 0.6932526 254 254 0 255 0.894933 0.075717
11.87431 17.37366 -0.07147247 0.5993326 6.002402e-07 0.8005001 254 254 0 255 0.894933 0.068145
11.60509 18.22494 -0.3613967 0.301248 0.8257938 0.4767748 254 254 0 255 0.900628 0.053002
11.60509 17.86514 -0.001602879 0.3012455 0.4767708 0.825797 254 254 0 255 0.900628 0.060574
11.87431 17.76436 -0.1761615 0.5993303 0.4002485 0.6932564 254 254 0 255 0.894933 0.060574
11.87431 18.05038 -0.4621784 0.5993364 0.6932488 0.4002523 254 254 0 255 0.894933 0.053002
-11.87431 18.05038 -1.24359 -0.5993301 0.6932535 -0.400254 254 254 0 255 0.163541 0
-11.87431 18.15507 -0.852884 -0.5993254 0.8005056 6.443755e-07 254 254 0 255 0.170825 0
-11.60509 18.35663 -0.852884 -0.3012486 0.9535456 1.058275e-06 254 254 0 255 0.170825 0.005921
-11.60509 18.22494 -1.344371 -0.3012431 0.8257951 -0.4767758 254 254 0 255 0.163541 0.005921
-11.87431 17.37366 -1.634296 -0.599331 8.871089e-07 -0.8005013 254 254 0 255 0.148972 0
-11.87431 17.76436 -1.529607 -0.5993304 0.4002472 -0.6932571 254 254 0 255 0.156256 0
-11.60509 17.86514 -1.704165 -0.30125 0.4767683 -0.8257968 254 254 0 255 0.156256 0.005921
-11.60509 17.37366 -1.835859 -0.3012468 1.088077e-06 -0.9535462 254 254 0 255 0.148972 0.005921
-11.87431 16.69694 -1.24359 -0.5993316 -0.6932541 -0.4002504 254 254 0 255 0.134403 1.4e-05
-11.87431 16.98295 -1.529607 -0.5993332 -0.4002475 -0.6932545 254 254 0 255 0.141687 1.4e-05
-11.60509 16.88217 -1.704165 -0.3012485 -0.4767748 -0.8257937 254 254 0 255 0.141687 0.005921
-11.60509 16.52238 -1.344371 -0.3012465 -0.8257962 -0.476772 254 254 0 255 0.134403 0.005921
-11.87431 16.69694 -0.4621784 -0.5993325 -0.6932536 0.4002499 254 254 0 255 0.207247 0
-11.60509 16.52238 -0.3613967 -0.3012461 -0.8257959 0.4767725 254 254 0 255 0.207247 0.005921
-11.60509 16.88217 -0.001602879 -0.3012488 -0.4767748 0.8257935 254 254 0 255 0.199963 0.005921
-11.87431 16.98295 -0.1761615 -0.5993338 -0.4002485 0.6932534 254 254 0 255 0.199963 0
-11.87431 17.37366 -0.07147247 -0.5993288 7.573586e-06 0.8005031 254 254 0 255 0.192678 0
-11.60509 17.37366 0.1300908 -0.3012411 -2.349417e-06 0.9535481 254 254 0 255 0.192229 0.005921
-11.87431 17.42185 -0.08438677 -0.5860001 0.2097309 0.7826985 254 254 0 255 0.192229 0
-11.87431 18.05038 -0.4621784 -0.5993309 0.693253 0.4002534 254 254 0 255 0.178109 0
-11.87431 17.76436 -0.1761615 -0.599333 0.4002492 0.6932536 254 254 0 255 0.185394 0
-11.60509 17.86514 -0.001602879 -0.301249 0.4767704 0.8257959 254 254 0 255 0.185394 0.005921
-11.60509 18.22494 -0.3613967 -0.3012463 0.8257943 0.4767751 254 254 0 255 0.178109 0.005921
11.87431 17.37366 -0.852884 1 2.60308e-07 0 254 254 0 255 0.012761 0.256637
11.87431 17.76436 -1.529607 1 1.561867e-06 0 254 254 0 255 0.019141 0.245947
11.87431 18.05038 -1.24359 1 -1.561832e-06 0 254 254 0 255 0.023812 0.250465
11.87431 18.15507 -0.852884 1 0 0 254 254 0 255 0.025522 0.256637
11.87431 17.37366 -1.634296 1 0 0 254 254 0 255 0.012761 0.244293
11.87431 16.69694 -1.24359 1 3.123729e-06 0 254 254 0 255 0.00171 0.250465
11.87431 16.98295 -1.529607 1 -1.042224e-11 0 254 254 0 255 0.00638 0.245947
11.87431 16.69694 -0.4621784 1 -3.123731e-06 0 254 254 0 255 0.00171 0.262809
11.87431 16.59225 -0.852884 1 0 0 254 254 0 255 0 0.256637
11.87431 17.37366 -0.07147247 1 0 0 254 254 0 255 0.012761 0.268981
11.87431 16.98295 -0.1761615 1 -3.123714e-06 0 254 254 0 255 0.00638 0.267327
11.87431 18.05038 -0.4621784 1 3.123665e-06 0 254 254 0 255 0.023812 0.262809
-11.87431 18.05038 -1.24359 -1 -3.123664e-06 0 254 254 0 255 0.006815 0.279028
-11.87431 17.37366 -0.852884 -1 -3.113333e-07 0 254 254 0 255 0.017866 0.2852
-11.87431 18.15507 -0.852884 -1 0 0 254 254 0 255 0.005105 0.2852
-11.87431 17.76436 -1.529607 -1 -1.171365e-06 0 254 254 0 255 0.011486 0.27451
-11.87431 17.37366 -1.634296 -1 0 0 254 254 0 255 0.017866 0.272856
-11.87431 16.98295 -1.529607 -1 -3.904701e-07 0 254 254 0 255 0.024246 0.27451
-11.87431 16.69694 -1.24359 -1 1.561865e-06 0 254 254 0 255 0.028917 0.279028
-11.87431 16.69694 -0.4621784 -1 -2.342798e-06 0 254 254 0 255 0.028917 0.291372
-11.87431 16.98295 -0.1761615 -1 -1.95232e-06 0 254 254 0 255 0.024246 0.29589
-11.87431 17.37366 -0.07147247 -1 1.423856e-05 0 254 254 0 255 0.017866 0.297544
-11.87431 17.42185 -0.08438677 -1 1.327029e-05 0 254 254 0 255 0.017079 0.29734
-11.87431 17.76436 -0.1761615 -1 -3.296863e-07 0 254 254 0 255 0.011486 0.29589
-11.87431 18.05038 -0.4621784 -1 2.342749e-06 0 254 254 0 255 0.006815 0.291372
11.33582 18.22494 -1.344372 2.477078e-06 0.866024 -0.5000023 254 254 0 255 0.904771 0.037859
11.33582 18.35663 -0.852884 2.093332e-07 1 2.47492e-06 254 254 0 255 0.904771 0.04543
11.33582 17.37366 -1.835859 0 9.035556e-07 -1 254 254 0 255 0.904771 0.022715
11.33582 17.86514 -1.704165 5.582116e-07 0.499995 -0.8660283 254 254 0 255 0.904771 0.030287
11.33582 16.52238 -1.344372 1.631825e-06 -0.8660257 -0.4999995 254 254 0 255 0.904771 0.007572
11.33582 16.88217 -1.704165 0 -0.5000018 -0.8660244 254 254 0 255 0.904771 0.015143
11.33582 16.52238 -0.3613964 3.8853e-07 -0.8660257 0.4999996 254 254 0 255 0.904771 0.083289
11.33582 16.88217 -0.001602879 0 -0.5000018 0.8660244 254 254 0 255 0.904771 0.075717
11.33582 17.37366 0.1300908 0 8.642702e-07 1 254 254 0 255 0.904771 0.068145
11.33582 18.22494 -0.3613967 0 0.8660251 0.5000004 254 254 0 255 0.904771 0.053002
11.33582 17.86514 -0.001602879 0 0.4999984 0.8660263 254 254 0 255 0.904771 0.060574
-11.33582 18.22494 -1.344372 -1.709521e-06 0.8660249 -0.500001 254 254 0 255 0.163541 0.010228
-11.33582 18.35663 -0.852884 -5.233366e-08 1 -2.769552e-06 254 254 0 255 0.170825 0.010228
-11.33582 17.86514 -1.704165 0 0.5000017 -0.8660244 254 254 0 255 0.156256 0.010228
-11.33582 17.37366 -1.835859 0 8.937126e-07 -1 254 254 0 255 0.148972 0.010228
-11.33582 16.88217 -1.704165 -5.582376e-07 -0.500003 -0.8660237 254 254 0 255 0.141687 0.010228
-11.33582 16.52238 -1.344372 -2.364506e-06 -0.8660256 -0.4999996 254 254 0 255 0.134403 0.010228
-11.33582 16.52238 -0.3613967 0 -0.8660255 0.4999999 254 254 0 255 0.207247 0.010228
-11.33582 16.88217 -0.001602879 0 -0.5000025 0.866024 254 254 0 255 0.199963 0.010228
-11.33582 17.37366 0.1300908 0 8.937126e-07 1 254 254 0 255 0.192229 0.010228
-11.33582 17.86514 -0.001602879 -1.395546e-07 0.4999977 0.8660267 254 254 0 255 0.185394 0.010228
-11.33582 18.22494 -0.3613964 -6.192701e-07 0.8660238 0.5000027 254 254 0 255 0.178109 0.010228
11.87431 17.76436 -0.1761615 1 3.123686e-06 0 254 254 0 255 0.019141 0.267327
11.33582 16.39068 -0.852884 0 -0.9659256 0.2588201 254 254 0 255 0.904771 0.090861
11.87431 16.59225 -0.852884 0.5860046 -0.7826958 -0.2097281 254 254 0 255 0.894933 0
11.60509 16.39068 -0.852884 0.2918721 -0.9238655 -0.2475546 254 254 0 255 0.900628 0
11.33582 16.39068 -0.852884 0 -0.9659251 -0.2588218 254 254 0 255 0.904771 0
11.33582 16.39068 -0.852884 1 0 0 254 254 0 255 0 0.425775
11.33582 15.9251 -0.852884 0.6402042 -0.7420294 -0.1988239 254 254 0 255 0.010095 0.425775
10.9037 15.9251 -0.852884 0.7592638 -0.6286086 -0.1684335 254 254 0 255 0.01824 0.425775
10.9037 15.66856 -0.852884 0.6401633 -0.7420618 -0.1988349 254 254 0 255 0.02253 0.425775
-10.9037 15.66856 -0.852884 -0.6401694 -0.7420569 -0.1988335 254 254 0 255 0.371487 0.425775
-10.9037 15.9251 -0.852884 -0.7592638 -0.6286086 -0.1684335 254 254 0 255 0.375774 0.425775
-11.33582 15.9251 -0.852884 -0.6402042 -0.7420294 -0.1988239 254 254 0 255 0.38391 0.425775
-11.33582 16.39068 -0.852884 -1 0 0 254 254 0 255 0.394007 0.425775
-11.33582 16.39068 -0.852884 -3.370034e-07 -0.9659248 -0.2588233 254 254 0 255 0.127118 0.010228
-11.60509 16.39068 -0.852884 -0.2918728 -0.9238657 -0.2475532 254 254 0 255 0.127118 0.005921
-11.87431 16.59225 -0.852884 -0.5860092 -0.782693 -0.2097258 254 254 0 255 0.127118 1.4e-05
-11.87431 16.59225 -0.852884 -1 0 0 254 254 0 255 0.030627 0.2852
-11.87431 16.59225 -0.852884 -0.586012 -0.7826906 0.2097271 254 254 0 255 0.214532 0
-11.60509 16.39068 -0.852884 -0.2918738 -0.9238654 0.2475526 254 254 0 255 0.214532 0.005921
-11.33582 16.39068 -0.852884 0 -0.9659249 0.2588226 254 254 0 255 0.214532 0.010228
-11.33582 16.39068 -0.852884 -1 0 0 254 254 0 255 0.394007 0.589719
-11.33582 15.9251 -0.852884 -0.6402041 -0.7420295 0.1988239 254 254 0 255 0.38391 0.589719
-10.9037 15.9251 -0.852884 -0.7592638 -0.6286085 0.1684335 254 254 0 255 0.375774 0.589719
-10.9037 15.66856 -0.852884 -0.6401699 -0.7420564 0.1988338 254 254 0 255 0.371487 0.589719
10.9037 15.66856 -0.852884 0.6401638 -0.7420613 0.1988351 254 254 0 255 0.02253 0.589719
7.831034 21.41898 -2.2979 0 1 0 254 254 0 255 0.88166 0.274378
7.831034 21.41898 0.5683377 0 1 0 254 254 0 255 0.88166 0.2291
9.788795 21.41898 0.5683377 0 1 0 254 254 0 255 0.913631 0.2291
9.788795 21.41898 -2.2979 0 1 0 254 254 0 255 0.913631 0.274378
9.788795 7.948508 -4.280518 0 0 -1 254 254 0 255 0.942105 0.612853
7.831034 9.372746 -4.280518 0 0 -1 254 254 0 255 0.920459 0.646085
9.788795 9.372746 -4.280518 0 0 -1 254 254 0 255 0.920459 0.612853
-9.788795 7.948508 -4.280518 0 0 -1 254 254 0 255 0.942105 0.945168
-8.026813 9.372746 -4.280518 0 0 -1 254 254 0 255 0.920459 0.91526
-9.788795 9.372746 -4.280518 0 0 -1 254 254 0 255 0.920459 0.945168
9.788795 9.372746 2.550955 1 -6.059284e-07 0 254 254 0 255 0.390748 0.816443
9.788795 7.948508 4.258823 1 -5.551859e-07 0 254 254 0 255 0.369103 0.845433
9.788795 7.948508 -4.280518 1 -1.641372e-07 0 254 254 0 255 0.369103 0.700484
9.788795 9.372746 -4.280518 1 2.19082e-08 0 254 254 0 255 0.390748 0.700484
9.788795 9.372746 4.258823 1 0 0 254 254 0 255 0.390748 0.845433
9.788795 21.41898 -2.2979 1 1.459196e-08 0 254 254 0 255 0.573824 0.734137
9.788795 21.41898 0.5683377 1 0 0 254 254 0 255 0.573824 0.78279
-9.788795 7.948508 -4.280518 -1 -1.231029e-07 -1.213368e-07 254 254 0 255 0.364589 0.80652
-9.788795 7.948508 4.258823 -1 -4.163894e-07 3.113014e-07 254 254 0 255 0.225137 0.80652
-9.788796 9.372746 2.550955 -1 -4.778586e-07 3.582096e-08 254 254 0 255 0.253028 0.784022
-9.788795 9.372746 -4.280518 -1 -1.034805e-08 -1.538339e-07 254 254 0 255 0.364589 0.784022
-9.788795 9.372746 4.258823 -1 0 5.584006e-07 254 254 0 255 0.225137 0.784022
-9.788796 21.41898 0.5683396 -1 6.111238e-08 -2.719326e-07 254 254 0 255 0.285405 0.593728
-9.788795 21.41898 -2.297899 -1 1.104832e-07 -3.327268e-07 254 254 0 255 0.332212 0.593728
9.788795 7.948508 4.258823 0 -1 0 254 254 0 255 0.695738 0.697095
-9.788795 7.948508 4.258823 0 -1 0 254 254 0 255 0.398202 0.697095
-9.788795 7.948508 -4.280518 0 -1 0 254 254 0 255 0.398202 0.552145
9.788795 7.948508 -4.280518 0 -1 0 254 254 0 255 0.695738 0.552145
-8.026813 9.372746 -4.280518 0 1 0 254 254 0 255 0.819786 0.31043
-8.026813 9.372746 2.550955 0 1 0 254 254 0 255 0.681538 0.31043
7.831034 9.372746 2.550955 0 1 0 254 254 0 255 0.681538 0
7.831034 9.372746 -4.280518 0 1 0 254 254 0 255 0.819786 0
-9.788795 9.372746 4.258823 0 1 -6.421945e-07 254 254 0 255 0.877496 0.593747
-8.026813 9.372746 2.550955 0 1 -2.043057e-07 254 254 0 255 0.85154 0.623655
-9.788796 9.372746 2.550955 0 1 -1.267664e-06 254 254 0 255 0.85154 0.593747
7.831034 9.372746 2.550955 0 1 -6.719027e-07 254 254 0 255 0.85154 0.892831
9.788795 9.372746 4.258823 0 1 -4.168121e-07 254 254 0 255 0.877496 0.926062
9.788795 9.372746 2.550955 0 1 0 254 254 0 255 0.85154 0.926062
-9.788795 9.372746 4.258823 0 0 1 254 254 0 255 0.947006 0
-9.788795 7.948508 4.258823 0 0 1 254 254 0 255 0.968651 0
9.788795 7.948508 4.258823 0 0 1 254 254 0 255 0.968651 0.332316
9.788795 9.372746 4.258823 0 0 1 254 254 0 255 0.947006 0.332316
-9.788796 21.41898 0.5683396 0 1 0 254 254 0 255 0.04356 0
-8.026813 21.41898 0.5683396 0 1 0 254 254 0 255 0.04356 0.029909
-8.026813 21.41898 -2.297899 0 1 0 254 254 0 255 0 0.029909
-9.788795 21.41898 -2.297899 0 1 0 254 254 0 255 0 0
7.831034 9.372746 -4.280518 -1 2.333074e-09 0 254 254 0 255 0.847133 0.908074
7.831034 9.372746 2.550955 -1 2.317738e-08 0 254 254 0 255 0.74331 0.908074
7.831034 21.41898 0.5683377 -1 -6.840838e-08 0 254 254 0 255 0.773442 0.703598
7.831034 21.41898 -2.2979 -1 -1.104833e-07 0 254 254 0 255 0.817002 0.703598
7.831034 9.372746 2.550955 0 0.1623992 0.9867252 254 254 0 255 0.978681 0.804422
9.788795 9.372746 2.550955 0 0.1623992 0.9867252 254 254 0 255 0.946496 0.804422
9.788795 21.41898 0.5683377 0 0.1623991 0.9867252 254 254 0 255 0.946496 0.612853
7.831034 21.41898 0.5683377 0 0.1623991 0.9867252 254 254 0 255 0.978681 0.612853
9.788795 9.372746 -4.280518 0 0.1623991 -0.9867252 254 254 0 255 0.946496 0.808431
7.831034 9.372746 -4.280518 0 0.1623991 -0.9867252 254 254 0 255 0.978681 0.808431
7.831034 21.41898 -2.2979 0 0.1623992 -0.9867252 254 254 0 255 0.978681 1
9.788795 21.41898 -2.2979 0 0.1623992 -0.9867252 254 254 0 255 0.946496 1
-9.788796 9.372746 2.550955 0 0.1623991 0.9867252 254 254 0 255 0.947006 0.336325
-8.026813 9.372746 2.550955 0 0.162399 0.9867252 254 254 0 255 0.973964 0.336325
-8.026813 21.41898 0.5683396 0 0.162399 0.9867252 254 254 0 255 0.973964 0.542172
-9.788796 21.41898 0.5683396 0 0.162399 0.9867252 254 254 0 255 0.947006 0.542172
-8.026813 9.372746 2.550955 1 -9.781439e-08 0 254 254 0 255 0.905332 0.46686
-8.026813 9.372746 -4.280518 1 -1.158869e-07 0 254 254 0 255 0.801509 0.46686
-8.026813 21.41898 -2.297899 1 -3.647991e-08 0 254 254 0 255 0.831641 0.262384
-8.026813 21.41898 0.5683396 1 0 0 254 254 0 255 0.875201 0.262384
-8.026813 9.372746 -4.280518 0 0.1623991 -0.9867252 254 254 0 255 1 0.205847
-9.788795 9.372746 -4.280518 0 0.162399 -0.9867252 254 254 0 255 0.973042 0.205847
-9.788795 21.41898 -2.297899 0 0.1623995 -0.9867252 254 254 0 255 0.973042 0
-8.026813 21.41898 -2.297899 0 0.1623995 -0.9867251 254 254 0 255 1 0
3.176831 6.442783 -1.834144 0.8660226 0 -0.5000048 254 254 0 255 0.891871 0.681043
1.834144 6.442783 -3.176831 0.4999955 0 -0.866028 254 254 0 255 0.891871 0.656742
1.834144 7.946393 -3.176831 0.5000049 0 -0.8660227 254 254 0 255 0.916236 0.656742
3.176831 7.946393 -1.834144 0.866028 0 -0.4999954 254 254 0 255 0.916236 0.681043
0 6.442783 -3.668289 -5.450554e-06 0 -1 254 254 0 255 0.891871 0.623548
0 7.946393 -3.668289 5.558583e-06 0 -1 254 254 0 255 0.916236 0.623548
-1.834144 6.442783 -3.176831 -0.2588195 0 -0.9659257 254 254 0 255 0.891871 0.590353
-1.834144 7.946393 -3.176831 -0.2588193 0 -0.9659258 254 254 0 255 0.916236 0.590353
-1.834144 6.442783 -3.176831 -0.7071068 0 -0.7071067 254 254 0 255 0.89187 0.953112
-3.176831 6.442783 -1.834144 -0.866028 0 -0.4999954 254 254 0 255 0.891871 0.928812
-3.176831 7.946393 -1.834144 -0.8660227 0 -0.5000049 254 254 0 255 0.916235 0.928812
-1.834144 7.946393 -3.176831 -0.7071069 0 -0.7071066 254 254 0 255 0.916235 0.953112
-3.668289 6.442783 0 -1 0 5.40636e-06 254 254 0 255 0.891871 0.895617
-3.668289 7.946393 0 -1 0 -5.440734e-06 254 254 0 255 0.916235 0.895617
-3.176831 6.442783 1.834145 -0.8660226 0 0.5000049 254 254 0 255 0.891871 0.862422
-3.176831 7.946393 1.834145 -0.866028 0 0.4999956 254 254 0 255 0.916236 0.862422
-1.834144 6.442783 3.176831 -0.4999953 0 0.8660281 254 254 0 255 0.891871 0.838122
-1.834144 7.946393 3.176831 -0.5000046 0 0.8660227 254 254 0 255 0.916236 0.838122
0 6.442783 3.668289 5.450554e-06 0 1 254 254 0 255 0.891871 0.804927
0 7.946393 3.668289 -5.558583e-06 0 1 254 254 0 255 0.916236 0.804927
1.834144 6.442783 3.176831 0.5000048 0 0.8660227 254 254 0 255 0.891871 0.771733
1.834144 7.946393 3.176831 0.4999953 0 0.8660281 254 254 0 255 0.916236 0.771732
3.176831 6.442783 1.834145 0.866028 0 0.4999956 254 254 0 255 0.891871 0.747432
3.176831 7.946393 1.834145 0.8660226 0 0.500005 254 254 0 255 0.916236 0.747432
3.668289 6.442783 0 1 0 -5.524211e-06 254 254 0 255 0.891871 0.714237
3.668289 7.946393 0 1 0 5.313063e-06 254 254 0 255 0.916236 0.714237
1.834144 6.442783 -3.176831 0 -1 0 254 254 0 255 0.023812 0.336288
3.176831 6.442783 -1.834144 0 -1 0 254 254 0 255 0.025522 0.34246
0 6.442783 0 0 -1 0 254 254 0 255 0.012761 0.34246
0 6.442783 -3.668289 0 -1 0 254 254 0 255 0.019141 0.33177
-1.834144 6.442783 -3.176831 0 -1 0 254 254 0 255 0.012761 0.330116
-3.176831 6.442783 -1.834144 0 -1 0 254 254 0 255 0.00638 0.33177
-3.668289 6.442783 0 0 -1 0 254 254 0 255 0.00171 0.336288
-3.176831 6.442783 1.834145 0 -1 0 254 254 0 255 0 0.34246
-1.834144 6.442783 3.176831 0 -1 0 254 254 0 255 0.00171 0.348632
0 6.442783 3.668289 0 -1 0 254 254 0 255 0.006381 0.35315
1.834144 6.442783 3.176831 0 -1 0 254 254 0 255 0.012761 0.354804
3.176831 6.442783 1.834145 0 -1 0 254 254 0 255 0.019141 0.35315
3.668289 6.442783 0 0 -1 0 254 254 0 255 0.023812 0.348632
3 0 1 2 
3 0 2 3 
3 4 5 6 
3 4 6 7 
3 7 6 8 
3 9 10 11 
3 9 11 12 
3 12 11 13 
3 6 5 9 
3 6 9 12 
3 14 15 16 
3 14 16 17 
3 18 19 20 
3 18 20 21 
3 22 23 24 
3 22 24 25 
3 26 27 23 
3 26 23 22 
3 28 29 30 
3 28 30 31 
3 32 33 34 
3 32 34 35 
3 36 37 38 
3 36 38 39 
3 38 40 41 
3 38 41 18 
3 40 42 43 
3 40 43 41 
3 44 45 46 
3 44 46 14 
3 45 47 48 
3 45 48 46 
3 49 50 44 
3 49 44 51 
3 38 37 40 
3 37 42 40 
3 19 18 41 
3 19 41 43 
3 44 50 45 
3 50 47 45 
3 15 14 46 
3 15 46 48 
3 54 53 52 
3 55 56 57 
3 55 57 58 
3 59 58 57 
3 59 57 60 
3 61 62 63 
3 61 63 64 
3 65 64 63 
3 65 63 66 
3 67 68 69 
3 67 69 70 
3 71 72 73 
3 71 73 74 
3 75 74 73 
3 75 73 76 
3 77 56 78 
3 77 78 79 
3 80 60 57 
3 80 57 81 
3 82 83 63 
3 82 63 62 
3 84 66 63 
3 84 63 83 
3 85 70 69 
3 85 69 86 
3 87 88 89 
3 87 89 55 
3 90 91 58 
3 90 58 59 
3 92 61 64 
3 92 64 93 
3 94 93 64 
3 94 64 65 
3 95 96 68 
3 95 68 67 
3 97 98 72 
3 97 72 71 
3 99 75 76 
3 99 76 100 
3 101 77 79 
3 101 79 102 
3 103 80 81 
3 103 81 104 
3 105 82 106 
3 105 106 107 
3 108 84 83 
3 108 83 109 
3 110 85 86 
3 110 86 111 
3 112 113 88 
3 112 88 87 
3 114 115 91 
3 114 91 90 
3 116 92 93 
3 116 93 117 
3 118 117 93 
3 118 93 94 
3 119 120 96 
3 119 96 95 
3 121 122 98 
3 121 98 97 
3 123 99 100 
3 123 100 124 
3 125 101 102 
3 125 102 126 
3 127 103 104 
3 127 104 128 
3 129 105 107 
3 129 107 130 
3 131 108 109 
3 131 109 132 
3 133 110 111 
3 133 111 134 
3 135 136 113 
3 135 113 112 
3 137 138 115 
3 137 115 114 
3 139 116 117 
3 139 117 140 
3 141 140 117 
3 141 117 118 
3 142 143 120 
3 142 120 119 
3 144 145 122 
3 144 122 121 
3 146 147 148 
3 146 148 149 
3 150 151 152 
3 150 152 153 
3 154 155 156 
3 154 156 157 
3 158 159 160 
3 158 160 161 
3 162 163 164 
3 162 164 165 
3 166 167 168 
3 166 168 169 
3 170 171 172 
3 170 172 173 
3 174 175 176 
3 174 176 177 
3 178 179 180 
3 178 180 181 
3 182 183 184 
3 182 184 185 
3 186 185 184 
3 186 184 187 
3 186 187 188 
3 189 190 191 
3 189 191 192 
3 193 194 195 
3 193 195 196 
3 197 194 193 
3 198 199 193 
3 200 201 193 
3 202 203 193 
3 204 193 196 
3 205 206 207 
3 206 208 209 
3 206 210 211 
3 206 212 213 
3 206 213 214 
3 206 214 215 
3 206 216 217 
3 146 218 219 
3 146 219 147 
3 220 221 151 
3 220 151 150 
3 222 223 155 
3 222 155 154 
3 224 158 163 
3 224 163 225 
3 226 225 163 
3 226 163 162 
3 227 228 167 
3 227 167 166 
3 229 173 172 
3 229 172 230 
3 177 176 231 
3 177 231 232 
3 181 180 233 
3 181 233 234 
3 183 235 236 
3 183 236 184 
3 187 184 236 
3 187 236 237 
3 192 191 238 
3 192 238 239 
3 204 240 193 
3 166 169 148 
3 166 148 147 
3 227 166 147 
3 227 147 219 
3 133 124 100 
3 133 100 110 
3 110 100 76 
3 110 76 85 
3 85 76 73 
3 85 73 70 
3 67 70 73 
3 67 73 72 
3 95 67 72 
3 95 72 98 
3 202 193 240 
3 162 165 168 
3 162 168 167 
3 226 162 167 
3 226 167 228 
3 131 134 111 
3 131 111 108 
3 108 111 86 
3 108 86 84 
3 84 86 69 
3 84 69 66 
3 200 193 203 
3 158 161 164 
3 158 164 163 
3 224 241 159 
3 224 159 158 
3 129 132 109 
3 129 109 105 
3 105 109 83 
3 105 83 82 
3 198 193 201 
3 154 157 242 
3 154 242 243 
3 222 154 243 
3 222 243 244 
3 127 245 246 
3 127 246 103 
3 103 246 247 
3 103 247 80 
3 80 247 248 
3 80 248 60 
3 197 193 199 
3 150 153 156 
3 150 156 155 
3 220 150 155 
3 220 155 223 
3 125 128 104 
3 125 104 101 
3 101 104 81 
3 101 81 77 
3 77 81 57 
3 77 57 56 
3 146 149 152 
3 146 152 151 
3 146 151 221 
3 146 221 218 
3 123 126 102 
3 123 102 99 
3 99 102 79 
3 99 79 75 
3 75 79 78 
3 75 78 74 
3 71 74 78 
3 71 78 89 
3 97 71 89 
3 97 89 88 
3 121 97 88 
3 121 88 113 
3 144 121 113 
3 144 113 136 
3 229 231 176 
3 229 176 173 
3 170 173 176 
3 170 176 175 
3 119 95 98 
3 119 98 122 
3 142 119 122 
3 142 122 145 
3 192 239 230 
3 192 230 172 
3 189 192 172 
3 189 172 171 
3 206 217 207 
3 87 55 58 
3 87 58 91 
3 112 87 91 
3 112 91 115 
3 135 112 115 
3 135 115 138 
3 177 232 233 
3 177 233 180 
3 174 177 180 
3 174 180 179 
3 206 209 210 
3 205 208 206 
3 55 89 78 
3 55 78 56 
3 59 60 248 
3 59 248 249 
3 90 59 249 
3 90 249 250 
3 114 90 250 
3 114 250 251 
3 137 114 251 
3 137 251 252 
3 181 234 253 
3 181 253 254 
3 178 181 254 
3 178 254 255 
3 206 211 256 
3 206 256 212 
3 182 257 258 
3 182 258 183 
3 183 258 259 
3 183 259 235 
3 139 260 261 
3 139 261 116 
3 116 261 262 
3 116 262 92 
3 92 262 263 
3 92 263 61 
3 61 263 264 
3 61 264 62 
3 82 62 264 
3 82 264 106 
3 65 66 69 
3 65 69 68 
3 94 65 68 
3 94 68 96 
3 118 94 96 
3 118 96 120 
3 141 118 120 
3 141 120 143 
3 187 237 238 
3 187 238 191 
3 188 187 191 
3 188 191 190 
3 206 215 216 
3 265 266 267 
3 265 267 268 
3 269 270 271 
3 272 273 270 
3 272 270 269 
3 274 273 272 
3 275 276 277 
3 275 277 278 
3 276 275 279 
3 275 278 280 
3 275 280 281 
3 282 283 284 
3 282 284 285 
3 284 283 286 
3 285 284 287 
3 285 287 288 
3 289 290 291 
3 289 291 292 
3 293 294 295 
3 293 295 296 
3 297 298 299 
3 300 298 297 
3 300 297 301 
3 302 300 301 
3 303 304 305 
3 303 305 306 
3 307 308 309 
3 307 309 310 
3 311 312 313 
3 311 313 314 
3 315 316 317 
3 315 317 318 
3 319 320 321 
3 319 321 322 
3 323 324 325 
3 323 325 326 
3 327 328 329 
3 327 329 330 
3 331 332 333 
3 331 333 334 
3 335 336 337 
3 335 337 338 
3 336 339 340 
3 336 340 337 
3 339 341 342 
3 339 342 340 
3 343 344 345 
3 343 345 346 
3 344 347 348 
3 344 348 345 
3 347 349 350 
3 347 350 348 
3 349 351 352 
3 349 352 350 
3 351 353 354 
3 351 354 352 
3 353 355 356 
3 353 356 354 
3 355 357 358 
3 355 358 356 
3 357 359 360 
3 357 360 358 
3 359 335 338 
3 359 338 360 
3 361 362 363 
3 364 361 363 
3 366 365 363 
3 367 366 363 
3 368 367 363 
3 369 368 363 
3 370 369 363 
3 371 370 363 
3 372 371 363 
3 373 372 363 
3 362 373 363 
