ply
format ascii 1.0
comment VCGLIB generated
element vertex 326
property float x
property float y
property float z
property float nx
property float ny
property float nz
property uchar red
property uchar green
property uchar blue
property uchar alpha
property float texture_u
property float texture_v
element face 366
property list uchar int vertex_indices
end_header
-4.523593 2.627502 7.988284 -0.5695471 0.4003416 0.7178738 255 255 0 255 0.663058 0.182743
-2.6117 4.539404 7.988283 -0.2930735 0.6314787 0.7178738 255 255 0 255 0.663058 0.228428
-2.611701 4.539404 -6.755223 -0.5750636 0.8181087 5.027366e-08 255 255 0 255 0.440064 0.228428
-4.523594 2.627502 -6.755222 -0.9070727 0.420974 7.929881e-08 255 255 0 255 0.440064 0.182743
-2.001642e-06 5.239221 7.988283 0.06193447 0.6934123 0.7178743 255 255 0 255 0.663058 0.274107
-3.29056e-06 5.239221 -6.755223 -0.08896411 0.9960349 7.77749e-09 255 255 0 255 0.440064 0.274107
2.611696 4.539404 7.988283 0.400344 0.5695454 0.7178737 255 255 0 255 0.663058 0.319782
2.611695 4.539404 -6.755223 0.4209778 0.9070709 -3.680305e-08 255 255 0 255 0.440064 0.319782
4.52359 2.627502 7.988283 0.6314799 0.2930709 0.7178737 255 255 0 255 0.663058 0.365454
4.523589 2.627502 -6.755223 0.8181111 0.5750602 -7.152155e-08 255 255 0 255 0.440064 0.365454
5.223394 0.01580658 7.988283 0.6934129 -0.06193339 0.7178739 255 255 0 255 0.663058 0.411116
5.223393 0.01580658 -6.755223 0.996035 0.08896265 -8.707615e-08 255 255 0 255 0.440064 0.411116
4.52359 -2.595889 7.988283 0.5695466 -0.4003423 0.7178738 255 255 0 255 0.663058 0.456786
4.523589 -2.595889 -6.755223 0.9070725 -0.4209746 -7.929879e-08 255 255 0 255 0.440064 0.456786
2.611696 -4.507783 7.988283 0.2930708 -0.6314798 0.7178739 255 255 0 255 0.663058 0.502459
2.611695 -4.507783 -6.755223 0.5750611 -0.8181105 -5.027344e-08 255 255 0 255 0.440064 0.502459
-2.001642e-06 -5.207585 7.988283 0.1157474 -0.4319752 0.8944272 255 255 0 255 0.663058 0.548137
-3.29056e-06 -5.207585 -6.755223 0.2588189 -0.9659259 -2.262667e-08 255 255 0 255 0.440064 0.548137
-2.001642e-06 -5.207585 7.988283 -0.2314947 -0.8639504 0.4472136 255 255 0 255 0.663058 0
-2.6117 -4.507783 7.988283 -0.400342 -0.5695466 0.7178739 255 255 0 255 0.663058 0.045681
-2.611701 -4.507783 -6.755223 -0.4209739 -0.9070728 3.680271e-08 255 255 0 255 0.440064 0.045681
-3.29056e-06 -5.207585 -6.755223 -0.2588189 -0.9659259 2.262667e-08 255 255 0 255 0.440064 0
-4.523593 -2.595889 7.988284 -0.6314796 -0.2930712 0.7178739 255 255 0 255 0.663058 0.091366
-4.523594 -2.595889 -6.755222 -0.8181104 -0.5750613 7.152148e-08 255 255 0 255 0.440064 0.091366
-5.223399 0.01580658 7.988284 -0.6934128 0.06193341 0.717874 255 255 0 255 0.663058 0.137054
-5.2234 0.01580658 -6.755222 -0.996035 -0.08896262 8.707615e-08 255 255 0 255 0.440064 0.137054
-0.4726824 0.8344925 11.90512 -1.930154e-06 3.494682e-06 1 255 255 0 255 0.017813 0.238507
-0.8187047 0.4884903 11.90512 -3.407162e-06 2.017635e-06 1 255 255 0 255 0.011876 0.240284
-1.125922e-05 0.01580658 11.90512 8.742276e-08 -8.480749e-14 1 255 255 0 255 0.011876 0.22702
-2.659221e-06 0.9611496 11.90512 8.742278e-08 4.035252e-06 1 255 255 0 255 0.02216 0.233652
0.4726619 0.8344925 11.90512 2.105042e-06 3.494652e-06 1 255 255 0 255 0.023751 0.227021
0.8186752 0.4884903 11.90512 3.582019e-06 2.017669e-06 1 255 255 0 255 0.022161 0.220389
0.9453452 0.01580658 11.90512 4.122618e-06 1.101631e-10 1 255 255 0 255 0.017814 0.215533
0.818701 -0.456868 11.90512 3.581986e-06 -2.017574e-06 1 255 255 0 255 0.011876 0.213756
0.4726762 -0.8028855 11.90512 2.10497e-06 -3.494633e-06 1 255 255 0 255 0.005938 0.215533
-0.4727097 -0.8028855 11.90512 -1.930227e-06 -3.494546e-06 1 255 255 0 255 0 0.22702
-3.295922e-05 -0.9295456 11.90512 8.742278e-08 -4.035213e-06 1 255 255 0 255 0.001591 0.220388
-0.818705 -0.456868 11.90512 -3.407236e-06 -2.017545e-06 1 255 255 0 255 0.001591 0.233652
-0.9453591 0.01580658 11.90512 -3.947808e-06 1.272103e-12 1 255 255 0 255 0.005938 0.238507
-5.158422 2.994022 -7.518708 -8.742278e-08 0 -1 255 255 0 255 0.023812 0.319935
-2.978221 5.174228 -7.518708 -8.742278e-08 0 -1 255 255 0 255 0.019141 0.324454
-3.357306e-06 0.01580658 -7.518708 -8.742278e-08 0 -1 255 255 0 255 0.012761 0.313763
-3.357306e-06 5.972256 -7.518708 -8.742278e-08 0 -1 255 255 0 255 0.012761 0.326107
2.978214 5.174228 -7.518709 -8.742278e-08 0 -1 255 255 0 255 0.00638 0.324454
5.158414 2.994022 -7.518709 -8.742278e-08 0 -1 255 255 0 255 0.00171 0.319935
5.956428 0.01580658 -7.518709 -8.742278e-08 0 -1 255 255 0 255 0 0.313763
5.158414 -2.962405 -7.518709 -8.742278e-08 0 -1 255 255 0 255 0.00171 0.307591
2.978212 -5.14261 -7.518709 -8.742278e-08 0 -1 255 255 0 255 0.00638 0.303073
-3.257306e-06 -5.940619 -7.518708 -8.742278e-08 0 -1 255 255 0 255 0.012761 0.301419
-2.978219 -5.14261 -7.518708 -8.742278e-08 0 -1 255 255 0 255 0.019141 0.303073
-5.158422 -2.962405 -7.518708 -8.742278e-08 0 -1 255 255 0 255 0.023812 0.307591
-5.956434 0.01580658 -7.518708 -8.742278e-08 0 -1 255 255 0 255 0.025522 0.313763
-3.763883 2.188889 7.988284 8.742278e-08 0 1 255 255 0 255 0.677052 0.182743
-2.17308 3.779681 7.988283 8.742278e-08 0 1 255 255 0 255 0.677052 0.228428
-2.001642e-06 4.361954 7.988283 8.742278e-08 0 1 255 255 0 255 0.677052 0.274107
2.173077 3.779681 7.988283 8.742278e-08 0 1 255 255 0 255 0.677052 0.319782
3.76388 2.188889 7.988283 8.742278e-08 0 1 255 255 0 255 0.677052 0.365454
4.346155 0.01580658 7.988283 8.742278e-08 0 1 255 255 0 255 0.677052 0.411116
3.76388 -2.157284 7.988283 8.742278e-08 0 1 255 255 0 255 0.677052 0.456786
2.173076 -3.748088 7.988283 8.742278e-08 0 1 255 255 0 255 0.677052 0.502459
-2.001642e-06 -4.330362 7.988283 8.742278e-08 0 1 255 255 0 255 0.677052 0.548137
-2.001642e-06 -4.330362 7.988283 8.742278e-08 0 1 255 255 0 255 0.677052 0
-2.17308 -3.748088 7.988283 8.742278e-08 0 1 255 255 0 255 0.677052 0.045681
-3.763883 -2.157284 7.988284 8.742278e-08 0 1 255 255 0 255 0.677052 0.091366
-4.346159 0.01580658 7.988284 8.742278e-08 0 1 255 255 0 255 0.677052 0.137054
-2.17308 3.779681 7.988283 -0.5703892 0.8114627 0.1272183 255 255 0 255 0.797082 0.539083
-3.763883 2.188889 7.988284 -0.8997023 0.4175538 0.1272194 255 255 0 255 0.797082 0.571184
-3.181092 1.852402 13.2142 -0.5322316 0.3741133 0.7594529 255 255 0 255 0.712894 0.571184
-1.836608 3.196893 13.2142 -0.2738713 0.5901077 0.7594522 255 255 0 255 0.712894 0.539083
-2.001642e-06 4.361954 7.988283 -0.08824055 0.9879421 0.1272166 255 255 0 255 0.797082 0.506987
-2.744778e-06 3.689026 13.2142 0.0578763 0.6479836 0.7594522 255 255 0 255 0.712894 0.506987
2.173077 3.779681 7.988283 0.4175552 0.8997019 0.1272175 255 255 0 255 0.797082 0.474892
1.836603 3.196893 13.2142 0.3741138 0.532232 0.7594525 255 255 0 255 0.712894 0.474892
3.76388 2.188889 7.988283 0.8114627 0.570389 0.1272193 255 255 0 255 0.797082 0.442801
3.181087 1.852402 13.2142 0.5901073 0.2738703 0.7594528 255 255 0 255 0.712894 0.442801
4.346155 0.01580658 7.988283 0.9879418 0.08824014 0.1272193 255 255 0 255 0.797082 0.410716
3.673205 0.01580658 13.2142 0.6479829 -0.05787516 0.7594529 255 255 0 255 0.712894 0.410716
3.76388 -2.157284 7.988283 0.8997029 -0.4175523 0.1272193 255 255 0 255 0.797082 0.378626
3.181088 -1.820795 13.2142 0.5322328 -0.374112 0.7594528 255 255 0 255 0.712894 0.378626
2.173076 -3.748088 7.988283 0.5703892 -0.8114625 0.1272199 255 255 0 255 0.797082 0.346534
1.836602 -3.165298 13.2142 0.2738689 -0.5901074 0.7594532 255 255 0 255 0.712894 0.346534
-2.001642e-06 -4.330362 7.988283 0.2568364 -0.9585401 0.1234336 255 255 0 255 0.797082 0.314438
-2.744778e-06 -3.657401 13.2142 0.1095779 -0.4089559 0.9059513 255 255 0 255 0.712894 0.314438
-2.17308 -3.748088 7.988283 -0.4175521 -0.8997029 0.1272199 255 255 0 255 0.797082 0.667492
-2.001642e-06 -4.330362 7.988283 -0.2568366 -0.9585401 0.1234336 255 255 0 255 0.797082 0.699589
-2.744778e-06 -3.657401 13.2142 -0.2191558 -0.8179117 0.5319691 255 255 0 255 0.712894 0.699589
-1.836604 -3.165298 13.2142 -0.3741131 -0.5322313 0.7594533 255 255 0 255 0.712894 0.667492
-3.763883 -2.157284 7.988284 -0.8114641 -0.5703868 0.1272198 255 255 0 255 0.797082 0.63539
-3.181092 -1.820795 13.2142 -0.5901076 -0.273869 0.7594529 255 255 0 255 0.712894 0.63539
-4.346159 0.01580658 7.988284 -0.9879419 -0.08823892 0.1272194 255 255 0 255 0.797082 0.603288
-3.673208 0.01580658 13.2142 -0.6479828 0.0578758 0.7594529 255 255 0 255 0.712894 0.603288
-2.577486 1.503922 13.2142 8.742278e-08 0 1 255 255 0 255 0.699917 0.571184
-1.488116 2.593298 13.2142 8.742278e-08 0 1 255 255 0 255 0.699917 0.539083
-2.744778e-06 2.992032 13.2142 8.742278e-08 0 1 255 255 0 255 0.699917 0.506987
1.488111 2.593298 13.2142 8.742278e-08 0 1 255 255 0 255 0.699917 0.474892
2.577482 1.503922 13.2142 8.742278e-08 0 1 255 255 0 255 0.699917 0.442801
2.976222 0.01580658 13.2142 8.742278e-08 0 1 255 255 0 255 0.699917 0.410716
2.577483 -1.472304 13.2142 8.742278e-08 0 1 255 255 0 255 0.699917 0.378626
1.488109 -2.56169 13.2142 8.742278e-08 0 1 255 255 0 255 0.699917 0.346534
-2.644778e-06 -2.960416 13.2142 8.742278e-08 0 1 255 255 0 255 0.699917 0.314438
-2.644778e-06 -2.960416 13.2142 8.742278e-08 0 1 255 255 0 255 0.699917 0.699589
-1.488113 -2.56169 13.2142 8.742278e-08 0 1 255 255 0 255 0.699917 0.667492
-2.577486 -1.472304 13.2142 8.742278e-08 0 1 255 255 0 255 0.699917 0.63539
-2.976225 0.01580658 13.2142 8.742278e-08 0 1 255 255 0 255 0.699917 0.603288
-1.488116 2.593298 13.2142 -0.5741923 0.8168755 0.0549327 255 255 0 255 0.150605 0.593728
-2.577486 1.503922 13.2142 -0.9057033 0.420338 0.05493237 255 255 0 255 0.172126 0.593728
-2.239481 1.308782 20.28032 -0.5537147 0.3892137 0.7361472 255 255 0 255 0.172126 0.711859
-1.292969 2.255286 20.28032 -0.2849236 0.6139265 0.7361473 255 255 0 255 0.150605 0.711859
-2.744778e-06 2.992032 13.2142 -0.08882752 0.994531 0.05493307 255 255 0 255 0.129087 0.593728
-2.727038e-06 2.601737 20.28032 0.06021124 0.6741378 0.7361473 255 255 0 255 0.129087 0.711859
1.488111 2.593298 13.2142 0.4203374 0.9057035 0.05493298 255 255 0 255 0.107571 0.593728
1.292964 2.255286 20.28032 0.3892135 0.5537148 0.7361473 255 255 0 255 0.107571 0.711859
2.577482 1.503922 13.2142 0.8168752 0.5741928 0.05493253 255 255 0 255 0.086056 0.593728
2.239478 1.308778 20.28032 0.6139264 0.2849244 0.7361472 255 255 0 255 0.086056 0.711859
2.976222 0.01580658 13.2142 0.9945311 0.08882806 0.05493229 255 255 0 255 0.064546 0.593728
2.585929 0.01580658 20.28032 0.6741379 -0.06021173 0.7361472 255 255 0 255 0.064546 0.711859
2.577483 -1.472304 13.2142 0.9057034 -0.4203377 0.05493243 255 255 0 255 0.043032 0.593728
2.239479 -1.277159 20.28032 0.5537156 -0.3892127 0.736147 255 255 0 255 0.043032 0.711859
1.488109 -2.56169 13.2142 0.5741938 -0.8168744 0.05493275 255 255 0 255 0.021517 0.593728
1.292963 -2.223675 20.28032 0.2849237 -0.6139262 0.7361475 255 255 0 255 0.021517 0.711859
-2.644778e-06 -2.960416 13.2142 0.258449 -0.9645547 0.05327679 255 255 0 255 0 0.593728
-1.927038e-06 -2.570129 20.28032 0.1131949 -0.4224531 0.8992888 255 255 0 255 0 0.711859
-1.488113 -2.56169 13.2142 -0.4203377 -0.9057034 0.05493278 255 255 0 255 0.236692 0.593728
-2.644778e-06 -2.960416 13.2142 -0.2584496 -0.9645545 0.05327688 255 255 0 255 0.258211 0.593728
-1.927038e-06 -2.570129 20.28032 -0.2263901 -0.8449062 0.4846455 255 255 0 255 0.258211 0.711859
-1.292962 -2.223675 20.28032 -0.3892139 -0.5537142 0.7361475 255 255 0 255 0.236692 0.711859
-2.577486 -1.472304 13.2142 -0.8168761 -0.5741915 0.05493274 255 255 0 255 0.215171 0.593728
-2.239482 -1.277159 20.28032 -0.6139266 -0.2849236 0.7361472 255 255 0 255 0.215171 0.711859
-2.976225 0.01580658 13.2142 -0.9945311 -0.0888278 0.05493236 255 255 0 255 0.193649 0.593728
-2.58593 0.01580963 20.28032 -0.674138 0.06021144 0.7361471 255 255 0 255 0.193649 0.711859
-1.683186 0.9876022 20.28032 8.742278e-08 0 1 255 255 0 255 0.172126 0.724577
-0.9717941 1.698996 20.28032 8.742278e-08 0 1 255 255 0 255 0.150605 0.724577
-2.727038e-06 1.959396 20.28032 8.742278e-08 0 1 255 255 0 255 0.129087 0.724577
0.9717881 1.698996 20.28032 8.742278e-08 0 1 255 255 0 255 0.107571 0.724577
1.683184 0.9875962 20.28032 8.742278e-08 0 1 255 255 0 255 0.086056 0.724577
1.943576 0.01580658 20.28032 8.742278e-08 0 1 255 255 0 255 0.064546 0.724577
1.683185 -0.955983 20.28032 8.742278e-08 0 1 255 255 0 255 0.043032 0.724577
0.9717861 -1.667387 20.28032 8.742278e-08 0 1 255 255 0 255 0.021517 0.724577
-1.727038e-06 -1.927771 20.28032 8.742278e-08 0 1 255 255 0 255 0 0.724577
-1.727038e-06 -1.927771 20.28032 8.742278e-08 0 1 255 255 0 255 0.258211 0.724577
-0.9717863 -1.667387 20.28032 8.742278e-08 0 1 255 255 0 255 0.236692 0.724577
-1.683186 -0.955983 20.28032 8.742278e-08 0 1 255 255 0 255 0.215171 0.724577
-1.943578 0.01580963 20.28032 8.742278e-08 0 1 255 255 0 255 0.193649 0.724577
-0.9717941 1.698996 20.28032 0.5710484 -0.8124077 0.1178885 255 255 0 255 0.174596 0.869596
-1.683186 0.9876022 20.28032 0.9007465 -0.418041 0.1178875 255 255 0 255 0.174596 0.857783
-0.8187047 0.4884903 11.90512 0.8124023 -0.5710561 0.1178878 255 255 0 255 0.312271 0.857783
-0.4726824 0.8344925 11.90512 0.4180408 -0.9007464 0.1178891 255 255 0 255 0.312271 0.869596
-2.727038e-06 1.959396 20.28032 0.08834396 -0.9890891 0.1178903 255 255 0 255 0.174596 0.881408
-2.659221e-06 0.9611496 11.90512 -0.08834656 -0.9890889 0.1178903 255 255 0 255 0.312271 0.881408
0.9717881 1.698996 20.28032 -0.4180441 -0.9007449 0.1178897 255 255 0 255 0.174596 0.893219
0.4726619 0.8344925 11.90512 -0.5710522 -0.8124048 0.1178896 255 255 0 255 0.312271 0.893219
1.683184 0.9875962 20.28032 -0.8124024 -0.5710556 0.1178893 255 255 0 255 0.174596 0.905029
0.8186752 0.4884903 11.90512 -0.900744 -0.4180459 0.1178892 255 255 0 255 0.312271 0.905029
1.943576 0.01580658 20.28032 -0.9890887 -0.08835073 0.1178888 255 255 0 255 0.174596 0.916836
0.9453452 0.01580658 11.90512 -0.9890901 0.08833525 0.1178884 255 255 0 255 0.312271 0.916836
1.683185 -0.955983 20.28032 -0.9007489 0.4180357 0.117888 255 255 0 255 0.174596 0.928646
0.818701 -0.456868 11.90512 -0.8124064 0.5710503 0.1178882 255 255 0 255 0.312271 0.928646
0.9717861 -1.667387 20.28032 -0.5710494 0.8124069 0.1178886 255 255 0 255 0.174596 0.940456
0.4726762 -0.8028855 11.90512 -0.4180351 0.9007491 0.1178887 255 255 0 255 0.312271 0.940456
-1.727038e-06 -1.927771 20.28032 -0.2571158 0.9595887 0.1143727 255 255 0 255 0.174596 0.952267
-3.295922e-05 -0.9295456 11.90512 -0.2571158 0.9595887 0.1143727 255 255 0 255 0.312271 0.952267
-0.9717863 -1.667387 20.28032 0.4180427 0.9007457 0.1178874 255 255 0 255 0.174596 0.822341
-1.727038e-06 -1.927771 20.28032 0.2571216 0.9595873 0.1143713 255 255 0 255 0.174596 0.810529
-3.295922e-05 -0.9295456 11.90512 0.2571216 0.9595873 0.1143713 255 255 0 255 0.312271 0.810529
-0.4727097 -0.8028855 11.90512 0.5710583 0.8124008 0.117887 255 255 0 255 0.312271 0.822341
-1.683186 -0.955983 20.28032 0.8124105 0.5710447 0.1178866 255 255 0 255 0.174596 0.834155
-0.818705 -0.456868 11.90512 0.9007491 0.4180356 0.1178867 255 255 0 255 0.312271 0.834155
-1.943578 0.01580963 20.28032 0.9890896 0.08834281 0.1178871 255 255 0 255 0.174596 0.845969
-0.9453591 0.01580658 11.90512 0.9890897 -0.08834143 0.1178871 255 255 0 255 0.312271 0.845969
-4.523594 2.627502 -6.755222 8.742278e-08 0 1 255 255 0 255 0.942845 0.202982
-2.611701 4.539404 -6.755223 8.742278e-08 0 1 255 255 0 255 0.942845 0.253727
-2.97822 5.174228 -6.755222 -0.2930733 0.6314788 0.7178737 255 255 0 255 0.931712 0.253727
-5.158422 2.994022 -6.755222 -0.5695468 0.4003418 0.7178739 255 255 0 255 0.931712 0.202982
-3.29056e-06 5.239221 -6.755223 8.742278e-08 0 1 255 255 0 255 0.942845 0.304465
-3.29056e-06 5.972256 -6.755223 0.06193451 0.6934123 0.7178743 255 255 0 255 0.931712 0.304465
2.611695 4.539404 -6.755223 8.742278e-08 0 1 255 255 0 255 0.942845 0.355199
2.978215 5.174228 -6.755223 0.4003438 0.5695457 0.7178737 255 255 0 255 0.931712 0.355199
4.523589 2.627502 -6.755223 8.742278e-08 0 1 255 255 0 255 0.942845 0.405929
5.158414 2.994022 -6.755223 0.6314799 0.2930709 0.7178738 255 255 0 255 0.931712 0.405929
5.223393 0.01580658 -6.755223 8.742278e-08 0 1 255 255 0 255 0.942845 0.456649
5.956428 0.01580658 -6.755223 0.6934129 -0.06193344 0.7178739 255 255 0 255 0.931712 0.456649
4.523589 -2.595889 -6.755223 8.742278e-08 0 1 255 255 0 255 0.942845 0.507377
5.158414 -2.962405 -6.755223 0.5695468 -0.4003422 0.7178738 255 255 0 255 0.931712 0.507377
2.611695 -4.507783 -6.755223 8.742278e-08 0 1 255 255 0 255 0.942845 0.558108
2.978213 -5.14261 -6.755223 0.2930707 -0.6314798 0.7178739 255 255 0 255 0.931712 0.558108
-3.29056e-06 -5.207585 -6.755223 8.742278e-08 0 1 255 255 0 255 0.942845 0.608844
-3.29056e-06 -5.940619 -6.755223 0.1157473 -0.4319752 0.8944272 255 255 0 255 0.931712 0.608844
-3.29056e-06 -5.207585 -6.755223 8.742278e-08 0 1 255 255 0 255 0.942845 0
-2.611701 -4.507783 -6.755223 8.742278e-08 0 1 255 255 0 255 0.942845 0.05074
-2.978219 -5.14261 -6.755222 -0.400342 -0.5695466 0.7178739 255 255 0 255 0.931712 0.05074
-3.29056e-06 -5.940619 -6.755223 -0.2314944 -0.8639504 0.4472136 255 255 0 255 0.931712 0
-4.523594 -2.595889 -6.755222 8.742278e-08 0 1 255 255 0 255 0.942845 0.101485
-5.158422 -2.962405 -6.755222 -0.6314796 -0.2930711 0.7178739 255 255 0 255 0.931712 0.101485
-5.2234 0.01580658 -6.755222 8.742278e-08 0 1 255 255 0 255 0.942845 0.152233
-5.956434 0.01580658 -6.755222 -0.6934128 0.06193326 0.717874 255 255 0 255 0.931712 0.152233
-2.978221 5.174228 -7.518708 -0.5750632 0.818109 5.027362e-08 255 255 0 255 0.920459 0.253727
-5.158422 2.994022 -7.518708 -0.9070727 0.4209741 7.929881e-08 255 255 0 255 0.920459 0.202982
-3.357306e-06 5.972256 -7.518708 -0.08896419 0.9960349 7.777496e-09 255 255 0 255 0.920459 0.304465
2.978214 5.174228 -7.518709 0.4209777 0.907071 -3.680303e-08 255 255 0 255 0.920459 0.355199
5.158414 2.994022 -7.518709 0.8181108 0.5750606 -7.152152e-08 255 255 0 255 0.920459 0.405929
5.956428 0.01580658 -7.518709 0.996035 0.08896245 -8.707615e-08 255 255 0 255 0.920459 0.456649
5.158414 -2.962405 -7.518709 0.9070725 -0.4209744 -4.448615e-08 255 255 0 255 0.920459 0.507377
2.978212 -5.14261 -7.518709 0.5750613 -0.8181104 3.324227e-08 255 255 0 255 0.920459 0.558108
-3.257306e-06 -5.940619 -7.518708 0.2588186 -0.965926 1.778487e-08 255 255 0 255 0.920459 0.608844
-2.978219 -5.14261 -7.518708 -0.4209737 -0.9070728 2.515057e-08 255 255 0 255 0.920459 0.05074
-3.257306e-06 -5.940619 -7.518708 -0.2588186 -0.965926 5.67681e-09 255 255 0 255 0.920459 0
-5.158422 -2.962405 -7.518708 -0.8181105 -0.5750611 7.152149e-08 255 255 0 255 0.920459 0.101485
-5.956434 0.01580658 -7.518708 -0.996035 -0.0889627 8.707615e-08 255 255 0 255 0.920459 0.152233
-5.223721 4.310632 -1.737269 -0.9328287 0.3603202 8.155047e-08 255 255 0 255 0.865115 0.021298
-4.313338 5.221014 -1.737269 -0.2202578 0.9754417 1.925555e-08 255 255 0 255 0.849227 0.021298
-4.313338 5.221014 -2.481698 -0.4926405 0.8702329 4.3068e-08 255 255 0 255 0.849227 0.006788
-5.223721 4.310632 -2.481698 -0.9328287 0.3603202 8.155047e-08 255 255 0 255 0.865115 0.006788
-4.269073 2.86351 6.703694 8.742278e-08 0 1 255 255 0 255 0.38646 0
-2.866224 4.266355 6.703694 8.742278e-08 0 1 255 255 0 255 0.419942 0
-3.795926 5.196057 6.703694 -0.1684636 0.1684644 0.9712053 255 255 0 255 0.419942 0.021464
-5.198773 3.793216 6.703694 -0.3369274 0.3369288 0.8791808 255 255 0 255 0.38646 0.021464
-3.795926 5.196057 -1.737272 0.5709473 0.8209867 -4.99138e-08 255 255 0 255 0.840197 0.021298
-2.866224 4.266355 -2.829923 0.7071069 0.7071066 -6.181725e-08 255 255 0 255 0.823972 0
-3.795926 5.196057 -2.829923 0.3462409 0.9381456 -3.026934e-08 255 255 0 255 0.840197 0
-3.795926 5.196057 1.56947 0.6538762 0.7566016 -5.716367e-08 255 255 0 255 0.840197 0.085753
-2.866224 4.266355 6.703694 0.707107 0.7071066 -6.181726e-08 255 255 0 255 0.823972 0.185829
-3.795926 5.196057 0.2467733 0.594338 0.8042154 -5.195868e-08 255 255 0 255 0.840197 0.059971
-3.795926 5.196057 6.703694 0.5838747 0.8118438 -5.104395e-08 255 255 0 255 0.840197 0.185829
-3.795926 5.196057 -0.5468447 0.4480473 0.8940099 -3.916954e-08 255 255 0 255 0.840197 0.044502
-2.866224 4.266355 -2.829923 -8.742278e-08 0 -1 255 255 0 255 0.08934 0
-4.269073 2.86351 -2.829922 -8.742278e-08 0 -1 255 255 0 255 0.122822 0
-5.198774 3.793216 -2.829922 -0.1684637 0.1684643 -0.9712054 255 255 0 255 0.122822 0.021464
-3.795926 5.196057 -2.829923 -0.3369272 0.3369285 -0.879181 255 255 0 255 0.08934 0.021464
-4.269073 2.86351 -2.829922 -0.7071084 -0.7071052 6.181737e-08 255 255 0 255 0.89037 0
-5.198774 3.793216 -1.737272 -0.8209903 -0.5709421 7.177325e-08 255 255 0 255 0.874145 0.021298
-5.198774 3.793216 -2.829922 -0.9381501 -0.3462289 8.201569e-08 255 255 0 255 0.874145 0
-5.198774 3.793216 -0.5468445 -0.8077247 -0.5895599 7.061354e-08 255 255 0 255 0.874145 0.044502
-4.269073 2.86351 6.703694 -0.7071084 -0.7071053 6.181737e-08 255 255 0 255 0.89037 0.185829
-5.198774 3.793216 0.2467735 -0.8883975 -0.4590751 7.766618e-08 255 255 0 255 0.874145 0.059971
-4.313337 5.221014 6.35547 -0.4753356 0.4753377 0.7403446 255 255 0 255 0.414065 0.027725
-5.223721 4.310632 6.35547 -0.4753356 0.4753377 0.7403446 255 255 0 255 0.392337 0.027725
-5.223721 4.310632 -2.481698 -0.4753354 0.4753374 -0.7403449 255 255 0 255 0.116945 0.027725
-4.313338 5.221014 -2.481698 -0.4753354 0.4753374 -0.7403449 255 255 0 255 0.095217 0.027725
-5.198774 3.793216 1.569471 -0.7566041 -0.6538733 6.614444e-08 255 255 0 255 0.874145 0.085753
-5.198773 3.793216 6.703694 -0.8118473 -0.5838699 7.097394e-08 255 255 0 255 0.874145 0.185829
-4.915842 4.191709 0.4673171 -0.9572424 0.1692334 0.2346213 255 255 0 255 0.831801 0.250046
-4.907951 4.028039 0.4673163 -0.8485615 0.203555 0.4883738 255 255 0 255 0.828585 0.250046
-4.907951 4.028039 1.348928 -0.919477 0.342423 -0.1931538 255 255 0 255 0.828585 0.233292
-4.915842 4.191709 1.348928 -0.8654854 0.3154824 -0.3891092 255 255 0 255 0.831801 0.233292
-4.194417 4.913128 1.348928 -0.169234 0.957242 -0.2346224 255 255 0 255 0.845974 0.233292
-4.194422 4.913126 0.467317 -0.3154773 0.8654862 0.3891116 255 255 0 255 0.845974 0.250046
-4.030749 4.905237 1.348928 -0.2035525 0.8485609 -0.4883758 255 255 0 255 0.849189 0.233292
-4.030749 4.905237 0.4673163 -0.3424219 0.9194776 0.1931537 255 255 0 255 0.849189 0.250046
-5.223721 4.310632 1.569471 -0.9754385 0.2202723 8.527554e-08 255 255 0 255 0.865115 0.085753
-5.223721 4.310632 6.35547 -0.8702293 0.4926468 7.607786e-08 255 255 0 255 0.865115 0.179042
-4.313337 5.221014 6.35547 -0.3603099 0.9328327 3.149929e-08 255 255 0 255 0.849227 0.179042
-4.313338 5.221014 1.569471 -0.3603099 0.9328327 3.149929e-08 255 255 0 255 0.849227 0.085753
-4.313338 5.221014 0.2467746 -0.2202578 0.9754417 1.925555e-08 255 255 0 255 0.849227 0.059971
-4.313338 5.221014 -0.5468428 -0.4926403 0.8702331 4.306798e-08 255 255 0 255 0.849227 0.044502
-5.223722 4.310632 0.2467747 -0.8702294 0.4926468 7.607787e-08 255 255 0 255 0.865115 0.059971
-5.223722 4.310632 -0.5468426 -0.9754386 0.2202718 8.527555e-08 255 255 0 255 0.865115 0.044502
-4.194421 4.913128 -0.7673852 -0.1692354 0.9572415 -0.2346231 255 255 0 255 0.070057 0.004204
-4.030749 4.905237 -0.767386 -0.203554 0.8485605 -0.4883758 255 255 0 255 0.073282 0.004204
-4.030749 4.905237 -1.516729 -0.3424216 0.9194776 0.1931537 255 255 0 255 0.073282 0.018488
-4.194422 4.913126 -1.516727 -0.315477 0.8654866 0.3891109 255 255 0 255 0.070057 0.018487
-4.915842 4.191709 -0.7673852 -0.8654848 0.3154827 -0.3891101 255 255 0 255 0.055841 0.004204
-4.915842 4.191709 -1.516726 -0.9572426 0.1692333 0.2346204 255 255 0 255 0.055841 0.018487
-4.907951 4.028039 -1.516729 -0.8485616 0.2035542 0.4883738 255 255 0 255 0.052616 0.018487
-4.907951 4.028039 -0.767386 -0.9194767 0.342424 -0.193154 255 255 0 255 0.052616 0.004204
-5.223722 4.310632 0.2467747 -0.589332 -0.02841687 0.807391 255 255 0 255 0.834137 0.254237
-5.198774 3.793216 0.2467735 -0.7300342 0.6042135 0.319337 255 255 0 255 0.823972 0.254237
-4.313338 5.221014 0.2467746 -0.4172032 0.4172046 0.807392 255 255 0 255 0.240787 0.005701
-5.223722 4.310632 0.2467747 -0.4172032 0.4172045 0.8073919 255 255 0 255 0.219011 0.005701
-4.915842 4.191709 0.4673171 -0.4172032 0.4172046 0.807392 255 255 0 255 0.221271 0
-4.194422 4.913126 0.467317 -0.4172032 0.4172045 0.8073919 255 255 0 255 0.238527 0
-3.795926 5.196057 0.2467733 -0.2852418 0.7146525 0.6386775 255 255 0 255 0.853803 0.254237
-4.313338 5.221014 0.2467746 0.02842333 0.5893273 0.8073943 255 255 0 255 0.843638 0.254237
-5.198774 3.793216 1.569471 -0.7146528 0.2852503 -0.6386734 255 255 0 255 0.823972 0.2291
-5.223721 4.310632 1.569471 -0.5893321 -0.02841323 -0.8073911 255 255 0 255 0.834137 0.2291
-5.223721 4.310632 1.569471 -0.4172023 0.417204 -0.8073928 255 255 0 255 0.271084 0
-4.313338 5.221014 1.569471 -0.4172023 0.417204 -0.8073928 255 255 0 255 0.29286 0
-4.194417 4.913128 1.348928 -0.4172023 0.417204 -0.8073928 255 255 0 255 0.2906 0.005701
-4.915842 4.191709 1.348928 -0.4172023 0.417204 -0.8073928 255 255 0 255 0.273344 0.005701
-4.313338 5.221014 1.569471 0.02842266 0.5893285 -0.8073934 255 255 0 255 0.843637 0.2291
-3.795926 5.196057 1.56947 -0.6042095 0.730037 -0.3193382 255 255 0 255 0.853802 0.2291
-4.313338 5.221014 -0.5468428 0.02842017 0.5893283 -0.8073937 255 255 0 255 0.067713 0
-3.795926 5.196057 -0.5468447 -0.6042103 0.7300364 -0.3193382 255 255 0 255 0.077909 0
-5.223722 4.310632 -0.5468426 -0.4172044 0.4172051 -0.8073912 255 255 0 255 0.424238 0.022635
-4.313338 5.221014 -0.5468428 -0.4172044 0.4172051 -0.8073912 255 255 0 255 0.424238 0
-4.194421 4.913128 -0.7673852 -0.4172044 0.4172051 -0.8073912 255 255 0 255 0.429723 0.002349
-4.915842 4.191709 -0.7673852 -0.4172044 0.4172051 -0.8073912 255 255 0 255 0.429723 0.020285
-5.198774 3.793216 -0.5468445 -0.7146522 0.2852518 -0.6386734 255 255 0 255 0.047988 0
-5.223722 4.310632 -0.5468426 -0.5893317 -0.02841128 -0.8073915 255 255 0 255 0.058184 0
-3.795926 5.196057 -1.737272 -0.2852397 0.714653 0.6386779 255 255 0 255 0.077909 0.022691
-4.313338 5.221014 -1.737269 0.02842629 0.5893273 0.8073941 255 255 0 255 0.067713 0.022691
-4.313338 5.221014 -1.737269 -0.4172029 0.4172041 0.8073924 255 255 0 255 0.266823 0.005701
-5.223721 4.310632 -1.737269 -0.4172029 0.4172041 0.8073924 255 255 0 255 0.245047 0.005701
-4.915842 4.191709 -1.516726 -0.4172029 0.4172041 0.8073924 255 255 0 255 0.247307 0
-4.194422 4.913126 -1.516727 -0.4172029 0.4172041 0.8073924 255 255 0 255 0.264563 0
-5.223721 4.310632 -1.737269 -0.5893322 -0.02841903 0.8073909 255 255 0 255 0.058184 0.022691
-5.198774 3.793216 -1.737272 -0.7300346 0.604213 0.3193371 255 255 0 255 0.047988 0.022691
-2.2064e-06 5.691791 5.64613 0.003687184 0.9781153 0.2080314 255 255 0 255 0.41878 0.469519
-2.879511 4.920202 5.646131 -0.4325251 0.8841791 0.1764922 255 255 0 255 0.41878 0.515546
-2.775645 4.816854 5.941498 -0.3230085 0.5691581 0.7561247 255 255 0 255 0.413481 0.515546
-2.180578e-06 5.560614 5.941498 0.03687701 0.6082178 0.7929131 255 255 0 255 0.413481 0.469519
-2.611701 4.539404 5.996944 -0.06878523 0.1529679 0.9858344 255 255 0 255 0.408412 0.515546
-2.175731e-06 5.239221 5.996944 0.01518326 0.1699889 0.985329 255 255 0 255 0.408412 0.469519
-2.879511 4.920202 5.2746 -0.5013133 0.8276904 -0.2522173 255 255 0 255 0.425046 0.515546
-2.23888e-06 5.691791 5.274599 -0.003687173 0.9781154 -0.2080308 255 255 0 255 0.425046 0.469519
-2.264702e-06 5.560614 4.97923 -0.03687702 0.6082183 -0.7929127 255 255 0 255 0.430433 0.469519
-2.775645 4.816854 4.97923 -0.2189652 0.3952336 -0.8921013 255 255 0 255 0.430433 0.515546
-2.269549e-06 5.239221 4.923784 -0.01518353 0.1699904 -0.9853287 255 255 0 255 0.435489 0.469519
-2.611701 4.539404 4.923784 -0.08041429 0.1444813 -0.9862346 255 255 0 255 0.435489 0.515546
2.879507 4.920202 5.64613 0.4848381 0.8472245 0.2171238 255 255 0 255 0.41878 0.423674
2.879507 4.920202 5.274599 0.4382936 0.8810975 -0.1776683 255 255 0 255 0.425046 0.423674
4.617295 3.227252 5.641995 0.7572735 0.6099041 0.2335679 255 255 0 255 0.41878 0.38614
4.619237 3.225357 5.274627 0.7921166 0.590037 -0.1562294 255 255 0 255 0.425046 0.38614
-3.768556 4.083685 5.2746 -0.6671969 0.7090934 -0.2281116 255 255 0 255 0.425046 0.534347
-3.768556 4.083685 5.646131 -0.6671968 0.7090933 0.2281121 255 255 0 255 0.41878 0.534347
-3.622169 4.020349 5.941498 -0.4093409 0.4330567 0.8030578 255 255 0 255 0.413481 0.534347
-3.376457 3.774637 5.996944 -0.1151692 0.1188583 0.9862093 255 255 0 255 0.408412 0.534347
2.77379 4.817352 5.941497 0.3220032 0.4987581 0.8047076 255 255 0 255 0.413481 0.423674
2.611696 4.539404 5.996944 0.09351257 0.1359064 0.9862986 255 255 0 255 0.408412 0.423674
2.77379 4.817352 4.979229 0.3269609 0.5651568 -0.7574263 255 255 0 255 0.430433 0.423674
2.611696 4.539404 4.923784 0.06938656 0.1528297 -0.9858137 255 255 0 255 0.435489 0.423674
-3.376457 3.774637 4.923784 -0.1151703 0.1188593 -0.9862091 255 255 0 255 0.435489 0.534347
-3.622169 4.020349 4.97923 -0.495555 0.5253664 -0.6916758 255 255 0 255 0.430433 0.534347
4.728549 2.9116 5.940982 0.8072647 0.2166456 0.5489885 255 255 0 255 0.413481 0.381218
4.52359 2.627502 5.996943 0.7696868 -0.4657842 0.4366089 255 255 0 255 0.408412 0.377317
4.728814 2.911346 4.979381 0.9173312 -0.02256021 -0.3974854 255 255 0 255 0.430433 0.381218
4.52359 2.627502 4.923783 0.4625033 -0.1543621 -0.8730768 255 255 0 255 0.435489 0.377317
3 0 1 2 
3 0 2 3 
3 1 4 5 
3 1 5 2 
3 4 6 7 
3 4 7 5 
3 6 8 9 
3 6 9 7 
3 8 10 11 
3 8 11 9 
3 10 12 13 
3 10 13 11 
3 12 14 15 
3 12 15 13 
3 14 16 17 
3 14 17 15 
3 18 19 20 
3 18 20 21 
3 19 22 23 
3 19 23 20 
3 22 24 25 
3 22 25 23 
3 24 0 3 
3 24 3 25 
3 26 27 28 
3 29 26 28 
3 30 29 28 
3 31 30 28 
3 32 31 28 
3 33 32 28 
3 34 33 28 
3 35 36 28 
3 37 35 28 
3 38 37 28 
3 27 38 28 
3 36 34 28 
3 39 40 41 
3 40 42 41 
3 42 43 41 
3 43 44 41 
3 44 45 41 
3 45 46 41 
3 46 47 41 
3 47 48 41 
3 48 49 41 
3 49 50 41 
3 50 51 41 
3 51 39 41 
3 1 0 52 
3 1 52 53 
3 4 1 53 
3 4 53 54 
3 6 4 54 
3 6 54 55 
3 8 6 55 
3 8 55 56 
3 10 8 56 
3 10 56 57 
3 12 10 57 
3 12 57 58 
3 14 12 58 
3 14 58 59 
3 16 14 59 
3 16 59 60 
3 19 18 61 
3 19 61 62 
3 22 19 62 
3 22 62 63 
3 24 22 63 
3 24 63 64 
3 0 24 64 
3 0 64 52 
3 65 66 67 
3 65 67 68 
3 69 65 68 
3 69 68 70 
3 71 69 70 
3 71 70 72 
3 73 71 72 
3 73 72 74 
3 75 73 74 
3 75 74 76 
3 77 75 76 
3 77 76 78 
3 79 77 78 
3 79 78 80 
3 81 79 80 
3 81 80 82 
3 83 84 85 
3 83 85 86 
3 87 83 86 
3 87 86 88 
3 89 87 88 
3 89 88 90 
3 66 89 90 
3 66 90 67 
3 68 67 91 
3 68 91 92 
3 70 68 92 
3 70 92 93 
3 72 70 93 
3 72 93 94 
3 74 72 94 
3 74 94 95 
3 76 74 95 
3 76 95 96 
3 78 76 96 
3 78 96 97 
3 80 78 97 
3 80 97 98 
3 82 80 98 
3 82 98 99 
3 86 85 100 
3 86 100 101 
3 88 86 101 
3 88 101 102 
3 90 88 102 
3 90 102 103 
3 67 90 103 
3 67 103 91 
3 104 105 106 
3 104 106 107 
3 108 104 107 
3 108 107 109 
3 110 108 109 
3 110 109 111 
3 112 110 111 
3 112 111 113 
3 114 112 113 
3 114 113 115 
3 116 114 115 
3 116 115 117 
3 118 116 117 
3 118 117 119 
3 120 118 119 
3 120 119 121 
3 122 123 124 
3 122 124 125 
3 126 122 125 
3 126 125 127 
3 128 126 127 
3 128 127 129 
3 105 128 129 
3 105 129 106 
3 107 106 130 
3 107 130 131 
3 109 107 131 
3 109 131 132 
3 111 109 132 
3 111 132 133 
3 113 111 133 
3 113 133 134 
3 115 113 134 
3 115 134 135 
3 117 115 135 
3 117 135 136 
3 119 117 136 
3 119 136 137 
3 121 119 137 
3 121 137 138 
3 125 124 139 
3 125 139 140 
3 127 125 140 
3 127 140 141 
3 129 127 141 
3 129 141 142 
3 106 129 142 
3 106 142 130 
3 143 144 145 
3 143 145 146 
3 147 143 146 
3 147 146 148 
3 149 147 148 
3 149 148 150 
3 151 149 150 
3 151 150 152 
3 153 151 152 
3 153 152 154 
3 155 153 154 
3 155 154 156 
3 157 155 156 
3 157 156 158 
3 159 157 158 
3 159 158 160 
3 161 162 163 
3 161 163 164 
3 165 161 164 
3 165 164 166 
3 167 165 166 
3 167 166 168 
3 144 167 168 
3 144 168 145 
3 169 170 171 
3 169 171 172 
3 170 173 174 
3 170 174 171 
3 173 175 176 
3 173 176 174 
3 175 177 178 
3 175 178 176 
3 177 179 180 
3 177 180 178 
3 179 181 182 
3 179 182 180 
3 181 183 184 
3 181 184 182 
3 183 185 186 
3 183 186 184 
3 187 188 189 
3 187 189 190 
3 188 191 192 
3 188 192 189 
3 191 193 194 
3 191 194 192 
3 193 169 172 
3 193 172 194 
3 172 171 195 
3 172 195 196 
3 171 174 197 
3 171 197 195 
3 174 176 198 
3 174 198 197 
3 176 178 199 
3 176 199 198 
3 178 180 200 
3 178 200 199 
3 180 182 201 
3 180 201 200 
3 182 184 202 
3 182 202 201 
3 184 186 203 
3 184 203 202 
3 190 189 204 
3 190 204 205 
3 189 192 206 
3 189 206 204 
3 192 194 207 
3 192 207 206 
3 194 172 196 
3 194 196 207 
3 208 209 210 
3 208 210 211 
3 212 213 214 
3 212 214 215 
3 216 217 218 
3 219 220 221 
3 220 219 222 
3 221 220 217 
3 221 217 223 
3 223 217 216 
3 224 225 226 
3 224 226 227 
3 228 229 230 
3 231 228 232 
3 231 232 233 
3 229 228 231 
3 215 214 234 
3 215 234 235 
3 209 216 218 
3 209 218 210 
3 227 226 236 
3 227 236 237 
3 230 229 208 
3 230 208 211 
3 233 232 238 
3 238 232 239 
3 240 241 242 
3 240 242 243 
3 243 244 245 
3 243 245 240 
3 244 246 247 
3 244 247 245 
3 248 238 239 
3 248 239 249 
3 249 250 251 
3 249 251 248 
3 222 219 251 
3 222 251 250 
3 252 221 223 
3 252 223 253 
3 254 252 253 
3 254 253 255 
3 255 231 233 
3 255 233 254 
3 256 257 258 
3 256 258 259 
3 260 256 259 
3 260 259 261 
3 261 262 263 
3 261 263 260 
3 264 265 241 
3 264 241 240 
3 266 267 268 
3 266 268 269 
3 270 271 245 
3 270 245 247 
3 265 272 242 
3 265 242 241 
3 272 273 243 
3 272 243 242 
3 274 275 276 
3 274 276 277 
3 278 279 246 
3 278 246 244 
3 279 270 247 
3 279 247 246 
3 280 281 257 
3 280 257 256 
3 282 283 284 
3 282 284 285 
3 286 287 260 
3 286 260 263 
3 281 288 258 
3 281 258 257 
3 288 289 259 
3 288 259 258 
3 290 291 292 
3 290 292 293 
3 294 295 262 
3 294 262 261 
3 295 286 263 
3 295 263 262 
3 296 297 298 
3 296 298 299 
3 299 298 300 
3 299 300 301 
3 302 303 304 
3 302 304 305 
3 305 304 306 
3 305 306 307 
3 297 296 303 
3 297 303 302 
3 296 308 309 
3 296 309 303 
3 308 310 311 
3 308 311 309 
3 302 312 313 
3 302 313 297 
3 298 314 315 
3 298 315 300 
3 313 314 298 
3 313 298 297 
3 316 299 301 
3 316 301 317 
3 308 296 299 
3 308 299 316 
3 304 318 319 
3 304 319 306 
3 318 304 303 
3 318 303 309 
3 320 321 305 
3 320 305 307 
3 321 312 302 
3 321 302 305 
3 322 316 317 
3 322 317 323 
3 310 308 316 
3 310 316 322 
3 324 322 323 
3 324 323 325 
3 311 310 322 
3 311 322 324 
3 318 324 325 
3 318 325 319 
3 311 324 318 
3 311 318 309 
